<svg id="Layer_1" data-name="Layer 1" xmlns="http://www.w3.org/2000/svg" viewBox="0 0 500 193.82"><title>aws</title><polygon points="64.34 185.46 34.86 174.9 34.86 131.87 64.34 141.83 64.34 185.46" style="fill:#f89a20"/><polygon points="69.72 185.46 99.2 174.9 99.2 131.87 69.72 141.83 69.72 185.46" style="fill:#f89a20"/><polygon points="38.05 128.69 67.73 120.32 95.22 129.08 67.73 138.45 38.05 128.69" style="fill:#f89a20"/><polygon points="29.28 125.3 0 114.74 0 71.71 29.28 81.67 29.28 125.3" style="fill:#f89a20"/><polygon points="34.66 125.3 64.14 114.74 64.14 71.71 34.66 81.67 34.66 125.3" style="fill:#f89a20"/><polygon points="2.99 68.53 32.67 60.16 60.36 68.92 32.67 78.29 2.99 68.53" style="fill:#f89a20"/><polygon points="98.01 125.3 68.53 114.74 68.53 71.71 98.01 81.67 98.01 125.3" style="fill:#f89a20"/><polygon points="103.39 125.3 132.67 114.74 132.67 71.71 103.39 81.67 103.39 125.3" style="fill:#f89a20"/><polygon points="71.51 68.53 101.19 60.16 128.88 68.92 101.19 78.29 71.51 68.53" style="fill:#f89a20"/><polygon points="132.87 65.14 103.59 54.58 103.59 11.55 132.87 21.51 132.87 65.14" style="fill:#f89a20"/><polygon points="138.25 65.14 167.73 54.58 167.73 11.55 138.25 21.51 138.25 65.14" style="fill:#f89a20"/><polygon points="106.57 8.37 136.25 0 163.94 8.77 136.25 18.13 106.57 8.37" style="fill:#f89a20"/><polygon points="201.39 65.14 172.11 54.58 172.11 11.55 201.39 21.51 201.39 65.14" style="fill:#f89a20"/><polygon points="206.77 65.14 236.25 54.58 236.25 11.55 206.77 21.51 206.77 65.14" style="fill:#f89a20"/><polygon points="175.1 8.37 204.78 0 232.47 8.77 204.78 18.13 175.1 8.37" style="fill:#f89a20"/><polygon points="181.47 156.37 174.5 179.68 167.53 156.37 162.15 156.37 155.78 179.28 149 156.37 141.63 156.37 152.59 192.63 158.37 192.63 164.74 169.92 171.51 192.63 177.49 192.63 187.85 156.37 181.47 156.37" style="fill:#020202"/><path d="M220.32,175.1c0-6.37-1.59-11.35-4.38-14.54a14.53,14.53,0,0,0-11.55-5A15.74,15.74,0,0,0,192.23,161c-3.19,3.59-4.78,8.17-4.78,13.94,0,5.58,1.59,10.16,4.58,13.55a15.17,15.17,0,0,0,12.15,5.38,16.22,16.22,0,0,0,9.76-3,13.6,13.6,0,0,0,5.58-7.77l0.4-1-6.77-1.39-0.4.8c-1.59,4.18-4.38,6.18-8.37,6.18a9.66,9.66,0,0,1-6.18-2.39c-1.79-1.59-2.79-4.38-2.79-8.76h24.9V175.1Zm-24.5-5a10.47,10.47,0,0,1,2.79-6,7.58,7.58,0,0,1,6-2.59,6.44,6.44,0,0,1,4.38,1.39,7.08,7.08,0,0,1,2.59,3.39,11.65,11.65,0,0,1,.8,3.78H195.82Z" style="fill:#020202"/><path d="M241.83,155.38a11.31,11.31,0,0,0-9.16,4.38V144.22H225.3v48.21h4.18l1.39-4.38a12.33,12.33,0,0,0,10.36,5.38,12.82,12.82,0,0,0,11-5.58,21.34,21.34,0,0,0,4.18-13.35c0-6.18-1.39-11-4.18-14.14A13,13,0,0,0,241.83,155.38ZM249,175.1c0,3.78-.8,7-2.39,9.16a6.49,6.49,0,0,1-5.78,3.19,8.47,8.47,0,0,1-5.38-2.19c-1.59-1.39-2.59-3.78-2.79-7v-7.57c0.4-2.59,1.2-4.78,3-6.37A7.43,7.43,0,0,1,241,162a6.1,6.1,0,0,1,5.78,3.39C248.41,167.53,249,170.92,249,175.1Z" style="fill:#020202"/><path d="M288.25,170.92l-6.77-1.2c-4-.8-4.58-2.59-4.58-3.78a3.78,3.78,0,0,1,1.59-3,8.5,8.5,0,0,1,4.78-1.2c4,0,6.37,1.59,7.77,4.78l0.4,0.8,6.77-1.39-0.4-1c-1.79-6.18-6.77-9.36-14.74-9.36-4.18,0-7.37,1-10,3.19a9.89,9.89,0,0,0-3.78,8,9.61,9.61,0,0,0,2.79,7,13.44,13.44,0,0,0,7.17,3.39l7.17,1.39c5,1,5,3.39,5,4.18a3.91,3.91,0,0,1-1.79,3.39,9.94,9.94,0,0,1-5.18,1.39c-5.58,0-8.76-1.79-9.76-5.78l-0.2-1-7.17,1.39,0.4,1c2,7,7.37,10.56,15.94,10.56,4.58,0,8.17-1,11-3.19a10.39,10.39,0,0,0,4.38-8.37C299.6,176.1,295.82,172.31,288.25,170.92Z" style="fill:#020202"/><path d="M333.67,175.1c0-6.37-1.59-11.35-4.38-14.54a14.53,14.53,0,0,0-11.55-5A15.74,15.74,0,0,0,305.58,161c-3.19,3.59-4.78,8.17-4.78,13.94,0,5.58,1.59,10.16,4.58,13.55a15.17,15.17,0,0,0,12.15,5.38,16.22,16.22,0,0,0,9.76-3,13.6,13.6,0,0,0,5.58-7.77l0.4-1-6.77-1.39-0.4.8c-1.59,4.18-4.38,6.18-8.37,6.18a9.66,9.66,0,0,1-6.18-2.39c-1.79-1.59-2.79-4.38-2.79-8.76h24.9V175.1Zm-24.7-5a10.47,10.47,0,0,1,2.79-6,7.58,7.58,0,0,1,6-2.59,6.44,6.44,0,0,1,4.38,1.39,7.08,7.08,0,0,1,2.59,3.39,11.65,11.65,0,0,1,.8,3.78H309Z" style="fill:#020202"/><path d="M353,155.38a9.76,9.76,0,0,0-5.58,1.79,9.9,9.9,0,0,0-3.39,4v-4.78h-6.57v36.25h7.37V173.51c0.2-3.39,1-6,2.79-8a8.51,8.51,0,0,1,6.57-3h2v-7h-1C354.38,155.58,353.59,155.38,353,155.38Z" style="fill:#020202"/><polygon points="374.1 182.27 365.34 156.37 357.37 156.37 370.32 192.63 377.29 192.63 389.84 156.37 382.87 156.37 374.1 182.27" style="fill:#020202"/><rect x="391.63" y="144.42" width="7.77" height="7.97" style="fill:#020202"/><rect x="391.83" y="156.37" width="7.37" height="36.25" style="fill:#020202"/><path d="M425.1,179.48c-1,5.18-3.59,7.77-7.37,7.77a6.28,6.28,0,0,1-5.78-3.19c-1.39-2.19-2.19-5.58-2.19-9.76a17.81,17.81,0,0,1,2.19-9.16,6.59,6.59,0,0,1,6-3.19c4,0,6.37,2.59,7.17,7.57l0.2,1,6.77-1.2-0.2-1a15.9,15.9,0,0,0-4.38-9.16c-2.39-2.39-5.78-3.59-9.76-3.59a13.89,13.89,0,0,0-11.55,5.58c-2.79,3.59-4.18,8.17-4.18,13.55A22.53,22.53,0,0,0,406,188c2.59,3.78,6.57,5.58,11.55,5.58a13.49,13.49,0,0,0,9.36-3.39,15.68,15.68,0,0,0,4.78-9.36l0.2-1-6.77-1.2v0.8Z" style="fill:#020202"/><path d="M467.53,175.1c0-6.37-1.59-11.35-4.38-14.54a14.53,14.53,0,0,0-11.55-5A15.74,15.74,0,0,0,439.44,161c-3.19,3.59-4.78,8.17-4.78,13.94,0,5.58,1.59,10.16,4.58,13.55a15.17,15.17,0,0,0,12.15,5.38,16.22,16.22,0,0,0,9.76-3,13.6,13.6,0,0,0,5.58-7.77l0.4-1-6.77-1.39-0.4.8c-1.59,4.18-4.38,6.18-8.37,6.18a9.66,9.66,0,0,1-6.18-2.39c-1.79-1.59-2.79-4.38-2.79-8.76h24.9V175.1Zm-24.5-5a10.47,10.47,0,0,1,2.79-6,7.58,7.58,0,0,1,6-2.59,6.44,6.44,0,0,1,4.38,1.39,7.08,7.08,0,0,1,2.59,3.39,11.65,11.65,0,0,1,.8,3.78H443Z" style="fill:#020202"/><path d="M488.65,170.92l-6.77-1.2c-4-.8-4.58-2.59-4.58-3.78a3.78,3.78,0,0,1,1.59-3,8.5,8.5,0,0,1,4.78-1.2c4,0,6.37,1.59,7.77,4.78l0.4,0.8,6.77-1.39-0.4-1c-1.79-6.18-6.77-9.36-14.74-9.36-4.18,0-7.37,1-10,3.19a9.89,9.89,0,0,0-3.78,8,9.61,9.61,0,0,0,2.79,7,13.44,13.44,0,0,0,7.17,3.39l7.17,1.39c5,1,5,3.39,5,4.18a3.91,3.91,0,0,1-1.79,3.39,9.94,9.94,0,0,1-5.18,1.39c-5.58,0-8.76-1.79-9.76-5.78l-0.2-1-7.17,1.39,0.4,1c2,7,7.37,10.56,15.94,10.56,4.58,0,8.17-1,11-3.19a10.39,10.39,0,0,0,4.38-8.37C500,176.1,496.22,172.31,488.65,170.92Z" style="fill:#020202"/><path d="M349.2,84.06V75.9a2,2,0,0,1,2-2H388a2,2,0,0,1,2.19,2v7c0,1.2-1,2.79-2.79,5.18l-19.12,27.29c7.17-.2,14.54.8,21.12,4.58a4.06,4.06,0,0,1,2,3.19v8.76c0,1.2-1.39,2.59-2.79,1.79a42.82,42.82,0,0,0-39,0c-1.2.6-2.59-.6-2.59-2v-8.37a9.22,9.22,0,0,1,1.39-5.58l22.11-31.87H351.2C350.2,86.25,349.2,85.46,349.2,84.06Z" style="fill:#020202"/><path d="M217.13,135.66H206a2,2,0,0,1-2-2V76.1a2,2,0,0,1,2.19-2h10.56a2,2,0,0,1,2,2v7.57h0.2c2.79-7.37,7.77-10.76,14.74-10.76S245,76.29,248.21,83.67a16,16,0,0,1,15.54-10.76,15.84,15.84,0,0,1,12.95,6.37c3.59,4.78,2.79,12,2.79,18.13v36.45a2,2,0,0,1-2.19,2H266.14a2,2,0,0,1-2-2V103.39c0-2.39.2-8.57-.4-10.76-0.8-3.78-3.39-5-6.57-5a7.44,7.44,0,0,0-6.77,4.78c-1.2,3-1,7.77-1,11v30.48a2,2,0,0,1-2.19,2H236.06a2,2,0,0,1-2-2V103.39c0-6.37,1-15.94-7-15.94-8.17,0-7.77,9.16-7.77,15.94v30.48A2.18,2.18,0,0,1,217.13,135.66Z" style="fill:#020202"/><path d="M417.53,72.71c16.53,0,25.5,14.34,25.5,32.47,0,17.53-10,31.47-25.5,31.47-16.14,0-25.1-14.34-25.1-32.07C392.43,86.65,401.39,72.71,417.53,72.71Zm0,13.35c-8.17,0-8.76,11.35-8.76,18.33s-0.2,20.52,8.57,20.52c8.57,0,9-10.56,9-18.13,0-4.78-.2-10.76-1.59-15.34C423.51,87.65,421.12,86.06,417.53,86.06Z" style="fill:#020202"/><path d="M466.93,135.66H455.78a2,2,0,0,1-2-2V76.1A2,2,0,0,1,456,74.3h10.36a2.14,2.14,0,0,1,2,1.59v8.76h0.2c3.19-8,7.57-11.55,15.34-11.55,5,0,10,1.79,13.15,6.77,3,4.58,3,12.35,3,17.93v36.25a2.17,2.17,0,0,1-2.19,1.79H486.45a2.12,2.12,0,0,1-2-1.79V102.39c0-6.37.8-15.54-7-15.54-2.79,0-5.18,1.79-6.57,4.58-1.59,3.59-1.79,7-1.79,11v31.08A2.21,2.21,0,0,1,466.93,135.66Z" style="fill:#020202"/><path d="M341.24,124.7c-2-2.79-4.18-5.18-4.18-10.36V96.81c0-7.37.4-14.14-5-19.32-4.38-4.18-11.55-5.58-16.93-5.58-10.76,0-22.51,4-25.1,17.13a1.85,1.85,0,0,0,1.59,2.39l11,1.2a2.32,2.32,0,0,0,2-2c0.8-4.58,4.58-6.77,9-6.77a7.84,7.84,0,0,1,6.37,3c1.59,2.39,1.39,5.58,1.39,8.17v1.39c-6.57.8-14.94,1.39-21.12,4-7,3-12,9.16-12,18.33,0,11.75,7.37,17.53,16.73,17.53,8,0,12.35-1.79,18.53-8.17,2,3,2.59,4.38,6.37,7.57a2.11,2.11,0,0,0,2.59-.2c2.19-2,6.18-5.58,8.76-7.77A2.16,2.16,0,0,0,341.24,124.7Zm-22.31-4.78c-1.79,3.19-4.58,5.18-7.77,5.18-4.38,0-6.77-3.19-6.77-8.17,0-9.56,8.57-11.35,16.73-11.35V108C321.12,112.35,321.31,115.94,318.92,119.92Z" style="fill:#020202"/><path d="M195.22,124.7c-2-2.79-4.18-5.18-4.18-10.36V96.81c0-7.37.4-14.14-5-19.32-4.38-4.18-11.55-5.58-16.93-5.58-10.76,0-22.51,4-25.1,17.13a1.85,1.85,0,0,0,1.59,2.39l11,1.2a2.32,2.32,0,0,0,2-2c0.8-4.58,4.58-6.77,9-6.77a7.84,7.84,0,0,1,6.37,3c1.59,2.39,1.39,5.58,1.39,8.17v1.39c-6.57.8-14.94,1.39-21.12,4-7,3-12,9.16-12,18.33,0,11.75,7.37,17.53,16.73,17.53,8,0,12.35-1.79,18.53-8.17,2,3,2.59,4.38,6.37,7.57a2.11,2.11,0,0,0,2.59-.2c2.19-2,6.37-5.58,8.76-7.77A2.16,2.16,0,0,0,195.22,124.7Zm-22.31-4.78c-1.79,3.19-4.58,5.18-7.77,5.18-4.38,0-6.77-3.19-6.77-8.17,0-9.56,8.57-11.35,16.73-11.35V108C175.1,112.35,175.3,115.94,172.91,119.92Z" style="fill:#020202"/></svg>