<svg id="Layer_1" data-name="Layer 1" xmlns="http://www.w3.org/2000/svg" viewBox="0 0 200 200"><title>ec2</title><g id="Layer_1-2" data-name="Layer 1"><polygon points="25.48 37.38 17.23 41.51 17.23 158.5 25.48 162.62 59.22 103.16 25.48 37.38" style="fill:#9e5125"/><polygon points="44.9 158.25 25.48 162.62 25.48 37.38 44.9 41.75 44.9 158.25" style="fill:#f68635"/><polygon points="34.71 32.77 44.9 27.67 93.45 105.34 44.9 172.33 34.71 167.23 34.71 32.77" style="fill:#9e5125"/><polygon points="68.93 165.53 44.9 172.33 44.9 27.67 68.93 34.47 68.93 165.53" style="fill:#f68635"/><polygon points="56.31 21.84 68.93 15.53 140.53 113.83 68.93 184.47 56.31 178.16 56.31 21.84" style="fill:#9e5125"/><polygon points="100 173.06 68.93 184.47 68.93 15.53 100 26.94 100 173.06" style="fill:#f68635"/><polygon points="83.5 8.25 100 0 177.18 105.58 100 200 83.5 191.75 83.5 8.25" style="fill:#9e5125"/><polygon points="182.77 158.5 100 200 100 0 182.77 41.51 182.77 158.5" style="fill:#f68635"/></g></svg>