<?xml version="1.0" encoding="utf-8"?>
<!-- Generator: Adobe Illustrator 19.1.0, SVG Export Plug-In . SVG Version: 6.00 Build 0)  -->
<svg version="1.1"
	 id="svg4843" xmlns:inkscape="http://www.inkscape.org/namespaces/inkscape" xmlns:svg="http://www.w3.org/2000/svg" xmlns:sodipodi="http://sodipodi.sourceforge.net/DTD/sodipodi-0.dtd" xmlns:cc="http://creativecommons.org/ns#" xmlns:rdf="http://www.w3.org/1999/02/22-rdf-syntax-ns#" xmlns:dc="http://purl.org/dc/elements/1.1/" sodipodi:docname="drawing.svg" inkscape:version="0.48.2 r9819"
	 xmlns="http://www.w3.org/2000/svg" xmlns:xlink="http://www.w3.org/1999/xlink" x="0px" y="0px" viewBox="350 -33.1 1000 167.1"
	 style="enable-background:new 350 -33.1 1000 167.1;" xml:space="preserve">
<style type="text/css">
	.st0{fill:#231F20;}
	.st1{fill:#0E0D0F;}
	.st2{fill:url(#path4460_1_);}
	.st3{fill:url(#path4458_1_);}
	.st4{fill:url(#path4456_1_);}
</style>
<sodipodi:namedview  pagecolor="#ffffff" bordercolor="#666666" inkscape:zoom="0.35" borderopacity="1.0" inkscape:cy="-454.71711" inkscape:cx="1010.9794" showgrid="false" fit-margin-top="0.5" fit-margin-left="0.5" id="base" inkscape:window-maximized="1" inkscape:window-y="-8" fit-margin-right="0.5" fit-margin-bottom="0.5" inkscape:current-layer="g4585" inkscape:document-units="px" inkscape:window-x="-8" inkscape:window-width="1920" inkscape:pageshadow="2" inkscape:pageopacity="0.0" inkscape:window-height="1028">
	</sodipodi:namedview>
<path id="path3633" inkscape:connector-curvature="0" class="st0" d="M1348.2,82.1c0,4.3-3.1,7.5-7.4,7.5c-4.2,0-7.4-3.1-7.4-7.5
	s3.2-7.5,7.4-7.5C1345.1,74.7,1348.2,77.8,1348.2,82.1 M1349.5,82.1c0-4.8-3.9-8.7-8.7-8.7c-4.8,0-8.7,3.9-8.7,8.7s3.9,8.7,8.7,8.7
	C1345.6,90.8,1349.5,86.9,1349.5,82.1"/>
<path id="path3637" inkscape:connector-curvature="0" class="st0" d="M1342.4,80.1c0,1.3-1.1,1.4-2.1,1.4h-0.9v-2.8h1.3
	C1342,78.7,1342.4,79.3,1342.4,80.1 M1344.6,86.6l-2.1-2.9c-0.4-0.5-0.6-0.9-1-1.2c1.5-0.2,2.4-1,2.4-2.3c0-1.3-0.9-2.5-2.8-2.5
	h-2.9v9h1.3v-4c0.7,0,1,0.2,1.4,0.9l2.2,3.2H1344.6z"/>
<path id="path3721" inkscape:connector-curvature="0" class="st1" d="M606.7,14.3l-16.4,38.4h33L606.7,14.3z M657,90.8h-17.8
	l-9.7-23.2H584l-9.9,23.2h-17.3l42.2-96.7h15.6C614.7-5.8,657,90.8,657,90.8z"/>
<path id="path3725" inkscape:connector-curvature="0" class="st1" d="M812.6,90.8h-17V10.5h-30.4V-5.1h79.2l-6.5,15.6h-25.3V90.8z"
	/>
<path id="path3729" inkscape:connector-curvature="0" class="st1" d="M1135.4,10.5H1084v24.4h32.9V50H1084v25.5h51.4v15.3h-68.4v-96
	l68.4,0V10.5z"/>
<path id="path3731" inkscape:connector-curvature="0" class="st1" d="M1255.9,90.8h-16.1v-96h16.1V90.8z"/>
<path id="path3743" inkscape:connector-curvature="0" class="st1" d="M1187.6,8.7c-9.8,0-18.1,3-18.2,9.5
	c-0.1,7.6,4.7,10.3,22.8,16.1c19.9,6.6,30.5,13.2,30.4,29.5c-0.1,18.3-14.2,28.7-34.9,28.7c-14.6,0-27.7-4.7-37.7-13.5l6.2-15.1
	c9.1,7.6,20,13,31.9,13c10.4,0.1,17.8-5,17.8-12.5c0-6.3-3.6-10.4-21.1-16c-20.1-6.6-32.2-13.4-32.1-29.8
	c0.1-16.3,15.4-25.5,34.6-25.4c19.2,0.1,30,7.1,31.6,8.1l-6,13.7C1208.9,12.9,1200.3,8.7,1187.6,8.7"/>
<path id="path3747" inkscape:connector-curvature="0" class="st1" d="M1276.7,41.3l43-46.5H1299l-43.1,46.5l47.4,49.5h20.9
	L1276.7,41.3z"/>
<path id="path3751" inkscape:connector-curvature="0" class="st1" d="M896.4,77c-18.9,0-32.6-15.3-32.6-34.1s13.8-34.2,32.6-34.2
	C915.2,8.7,929,24,929,42.9S915.2,77,896.4,77 M896.4-6.8c-27.4,0-49.6,22.2-49.6,49.6s22.2,49.6,49.6,49.6
	c27.4,0,49.6-22.2,49.6-49.6S923.8-6.8,896.4-6.8"/>
<path id="path3755" inkscape:connector-curvature="0" class="st1" d="M1000.2,75.5l-19.4,0v-65h19.5c18.9,0,32.6,13.4,32.6,32.2
	S1019,75.5,1000.2,75.5 M1000.2-5.1h-36.4v96l36.4,0c27.4,0,49.6-20.7,49.6-48.1C1049.8,15.3,1027.6-5.1,1000.2-5.1"/>
<path id="path3759" inkscape:connector-curvature="0" class="st1" d="M746.6,48.3c0,28.6-16.8,44-41.1,44c-24.3,0-41.1-15.4-41.1-44
	V-5.1h17v55.5c0,16.8,9.9,26.6,24.1,26.6c14.3,0,24.1-9.9,24.1-26.6V-5.1h17V48.3z"/>
<linearGradient id="path4460_1_" gradientUnits="userSpaceOnUse" x1="-686.3781" y1="-627.6631" x2="-140.6756" y2="-518.9329" gradientTransform="matrix(0.1741 0 0 -0.1741 483.5745 -0.927)">
	<stop  offset="0" style="stop-color:#2B7A77"/>
	<stop  offset="0.5105" style="stop-color:#4EBAA9"/>
	<stop  offset="1" style="stop-color:#5CC2B1"/>
</linearGradient>
<path id="path4460" sodipodi:nodetypes="ccccccccc" inkscape:connector-curvature="0" class="st2" d="M383.1,133.5
	c-4.7,0-7.2-1.8-9.5-5.9L352,87.7c-1.5-2.9-1.5-3.8-1.5-5.9l33.8,1.5l7.7,7.7H460l-56.4,34.9C400.9,127.6,390.4,133.5,383.1,133.5z"
	/>
<linearGradient id="path4458_1_" gradientUnits="userSpaceOnUse" x1="-392.4909" y1="103.0005" x2="-663.2905" y2="-532.9686" gradientTransform="matrix(0.1741 0 0 -0.1741 483.5745 -0.927)">
	<stop  offset="0" style="stop-color:#236736"/>
	<stop  offset="0.4928" style="stop-color:#6BA443"/>
	<stop  offset="1" style="stop-color:#86C146"/>
</linearGradient>
<path id="path4458" sodipodi:nodetypes="cccccccccccccc" inkscape:connector-curvature="0" class="st3" d="M392.1,91h-29.3
	c-8.8,0-12.3-4.6-12.3-9.2c0-2.9,0.9-4.5,2.2-7.8l42.7-101.9l0.5-0.9l0.6-0.9l1.2-1.2l1.8-1l2.6-0.6l4.5,0.1l29.6,11l-10,31.6
	L392.1,91z"/>
<linearGradient id="path4456_1_" gradientUnits="userSpaceOnUse" x1="-332.9987" y1="163.9895" x2="64.9948" y2="-783.8095" gradientTransform="matrix(0.1741 0 0 -0.1741 483.5745 -0.927)">
	<stop  offset="0" style="stop-color:#29A5E3"/>
	<stop  offset="0.5155" style="stop-color:#356EB9"/>
	<stop  offset="1" style="stop-color:#394DA5"/>
</linearGradient>
<path id="path4456" sodipodi:nodetypes="ccccccccc" inkscape:connector-curvature="0" class="st4" d="M478.1,133.5L410.7-25.9
	c-1.2-2.7-3-6.2-7.8-6.2c-4.3,0-6.4,2.1-7.5,4.3c0.6-1.6,2.4-4.8,7.7-4.8h46.5c4.3,0,6.3,2.5,7.3,4.8l68.1,161.2H478.1z"/>
</svg>
