<svg id="Layer_1" data-name="Layer 1" xmlns="http://www.w3.org/2000/svg" viewBox="0 0 104.65 88.58"><title>medium</title><path d="M104.33,16.21l-0.06,0,0,0L72.67,0.36A3.32,3.32,0,0,0,72,.12,3.5,3.5,0,0,0,71.14,0a3.61,3.61,0,0,0-3.06,1.67L49.9,31.2,72.7,68.27l31.73-51.55A0.38,0.38,0,0,0,104.33,16.21Z" style="fill:#FFFFFF"/><polygon points="39.88 24.47 39.88 58.09 69.77 73.04 39.88 24.47" style="fill:#FFFFFF"/><path d="M74.26,75.28l24.6,12.3c3.2,1.6,5.8.48,5.8-2.5V25.89Z" style="fill:#FFFFFF"/><path d="M34.7,16.25L3.86,0.84A3.53,3.53,0,0,0,2.3.43c-1.35,0-2.3,1-2.3,2.8V69.8a5.76,5.76,0,0,0,2.9,4.69L30.05,88.06a4.41,4.41,0,0,0,2,.51c1.69,0,2.87-1.31,2.87-3.5V16.56A0.34,0.34,0,0,0,34.7,16.25Z" style="fill:#FFFFFF"/></svg>