<?xml version="1.0" encoding="utf-8"?>
<!-- Generator: Adobe Illustrator 18.1.1, SVG Export Plug-In . SVG Version: 6.00 Build 0)  -->
<!DOCTYPE svg PUBLIC "-//W3C//DTD SVG 1.1//EN" "http://www.w3.org/Graphics/SVG/1.1/DTD/svg11.dtd">
<svg version="1.1" id="Layer_1" xmlns="http://www.w3.org/2000/svg" xmlns:xlink="http://www.w3.org/1999/xlink" x="0px" y="0px"
	 viewBox="0 0 230 200" enable-background="new 0 0 230 200" xml:space="preserve">
<g>
	<path fill="#E53A35" d="M65,71c0-7.7-6.3-14-14-14h0c-7.7,0-14,6.3-14,14v1h28V71z"/>
	<path fill="#E53A35" d="M69,71v1h28v-1c0-7.7-6.3-14-14-14h0C75.3,57,69,63.3,69,71z"/>
	<path fill="#E53A35" d="M129,71c0-8-6.7-14.4-14.7-14c-7.5,0.4-13.3,6.9-13.3,14.4V72h12v-1c0-1.2,1.1-2.2,2.3-2
		c1,0.2,1.7,1.1,1.7,2.1V72h12V71z"/>
	<path fill="#E53A35" d="M146.3,57c-7.5,0.4-13.3,6.9-13.3,14.4V72h28v-1C161,63,154.3,56.6,146.3,57z"/>
	<path fill="#E53A35" d="M178.3,57c-7.5,0.4-13.3,6.9-13.3,14.4V72h28v-1C193,63,186.3,56.6,178.3,57z"/>
</g>
<g>
	<rect x="37" y="72" fill="#F05323" width="28" height="17"/>
	<rect x="69" y="72" fill="#F05323" width="28" height="17"/>
	<path fill="#F05323" d="M120,83h-1c-3.3,0-6-2.7-6-6v-5h-12v14c0,1.1,0.2,2.1,0.5,3h27C127.2,85.5,123.9,83,120,83z"/>
	<path fill="#F05323" d="M119,79h8c1.1,0,2-0.9,2-2v-5h-12v5C117,78.1,117.9,79,119,79z"/>
	<rect x="133" y="72" fill="#F05323" width="28" height="17"/>
	<rect x="165" y="72" fill="#F05323" width="28" height="17"/>
</g>
<g>
	<rect x="37" y="89" fill="#ED6D23" width="28" height="18"/>
	<rect x="69" y="89" fill="#ED6D23" width="28" height="18"/>
	<path fill="#ED6D23" d="M113,106.9V101c0-1.1-0.9-2-2-2h-8c-1.1,0-2,0.9-2,2v5.6c0,0.1,0,0.3,0,0.4h12C113,107,113,106.9,113,106.9
		z"/>
	<path fill="#ED6D23" d="M129,107V92c0-1.1-0.2-2.1-0.5-3h-27c1.2,3.5,4.6,6,8.5,6h1c3.3,0,6,2.7,6,6v6H129z"/>
	<path fill="#ED6D23" d="M159,100.3h-8c-1.1,0-2,0.9-2,2v4.7h12v-4.7C161,101.2,160.1,100.3,159,100.3z"/>
	<path fill="#ED6D23" d="M133,89v17.6c0,0.1,0,0.3,0,0.4h12c0,0,0-0.1,0-0.1V103c0-3.3,2.7-6,6-6h8c1.1,0,2-0.9,2-2v-6H133z"/>
	<path fill="#ED6D23" d="M165,106.6c0,0.1,0,0.3,0,0.4h12c0,0,0-0.1,0-0.1V103c0-3.3,2.7-6,6-6h8c1.1,0,2-0.9,2-2v-6h-28V106.6z"/>
	<path fill="#ED6D23" d="M191,100.3h-8c-1.1,0-2,0.9-2,2v4.7h12v-4.7C193,101.2,192.1,100.3,191,100.3z"/>
</g>
<g>
	<path fill="#F78C1F" d="M51,121c7.7,0,14-6.3,14-14v0H37v0C37,114.7,43.3,121,51,121z"/>
	<path fill="#F78C1F" d="M81,124v-3.2c0.7,0.1,1.3,0.2,2,0.2c7.7,0,14-6.3,14-14v0H69v0v17H81z"/>
	<path fill="#F78C1F" d="M114.3,121c8,0.4,14.7-6,14.7-14v0h-12v0c0,1.2-1.1,2.2-2.3,2c-0.9-0.2-1.6-1-1.7-2h-12
		C101.2,114.4,106.9,120.6,114.3,121z"/>
	<path fill="#F78C1F" d="M149,107L149,107c0,1.2-1.1,2.2-2.3,2c-0.9-0.2-1.6-1-1.7-2h-12c0.2,7.4,5.9,13.6,13.3,14
		c8,0.4,14.7-6,14.7-14v0H149z"/>
	<path fill="#F78C1F" d="M181,107c0,1.2-1.1,2.2-2.3,2c-0.9-0.2-1.6-1-1.7-2h-12c0.2,7.4,5.9,13.6,13.3,14c8,0.4,14.7-6,14.7-14v0
		L181,107L181,107z"/>
</g>
<path fill="#FCB316" d="M81,137v-13H69v13c0,3.3,2.7,6,6,6S81,140.3,81,137z"/>
<g>
	<path fill="#EEEEEE" d="M147,85c1.1,0,2-0.9,2-2V71c0-1.1-0.9-2-2-2s-2,0.9-2,2v12C145,84.1,145.9,85,147,85z"/>
	<path fill="#EEEEEE" d="M179,69c-1.1,0-2,0.9-2,2v12c0,1.1,0.9,2,2,2s2-0.9,2-2V71C181,69.9,180.1,69,179,69z"/>
	<path fill="#EEEEEE" d="M179,53c-7,0-13,4-16,9.8c-3-5.8-9-9.8-16-9.8s-13,4-16,9.8c-3-5.8-9-9.8-16-9.8s-13,4-16,9.8
		C96,57,90,53,83,53s-13,4-16,9.8C64,57,58,53,51,53c-9.9,0-18,8.1-18,18v36c0,9.9,8.1,18,18,18c5.7,0,10.7-2.6,14-6.7V137
		c0,5.5,4.5,10,10,10c5.5,0,10-4.5,10-10v-12.1c6.1-0.7,11.3-4.4,14-9.7c3,5.8,9,9.8,16,9.8c7,0,13-4,16-9.8c3,5.8,9,9.8,16,9.8
		s13-4,16-9.8c3,5.8,9,9.8,16,9.8c9.9,0,18-8.1,18-18V71C197,61.1,188.9,53,179,53z M51,121c-7.7,0-14-6.3-14-14V71
		c0-7.7,6.3-14,14-14c7.7,0,14,6.3,14,14c0,0,0,0,0,0v36c0,0,0,0,0,0C65,114.7,58.7,121,51,121z M83,121c-0.7,0-1.3-0.1-2-0.2V137
		c0,3.3-2.7,6-6,6s-6-2.7-6-6v-30V71c0-7.7,6.3-14,14-14c7.7,0,14,6.3,14,14c0,0,0,0,0,0v36c0,0,0,0,0,0C97,114.7,90.7,121,83,121z
		 M114.3,121c-7.5-0.4-13.3-6.9-13.3-14.4V101c0-1.1,0.9-2,2-2h8c1.1,0,2,0.9,2,2v5.9c0,1,0.7,1.9,1.7,2.1c1.3,0.2,2.3-0.8,2.3-2v-6
		c0-3.3-2.7-6-6-6h-1c-5,0-9-4-9-9V71.4c0-7.5,5.8-14,13.3-14.4c8-0.4,14.7,6,14.7,14c0,0,0,0,0,0v6c0,1.1-0.9,2-2,2h-8
		c-1.1,0-2-0.9-2-2v-5.9c0-1-0.7-1.9-1.7-2.1c-1.3-0.2-2.3,0.8-2.3,2v6c0,3.3,2.7,6,6,6h1c5,0,9,4,9,9v15c0,0,0,0,0,0
		C129,115,122.3,121.4,114.3,121z M146.3,121c-7.5-0.4-13.3-6.9-13.3-14.4V71.4c0-7.5,5.8-14,13.3-14.4c8-0.4,14.7,6,14.7,14
		c0,0,0,0,0,0v24c0,1.1-0.9,2-2,2h-8c-3.3,0-6,2.7-6,6v3.9c0,1,0.7,1.9,1.7,2.1c1.3,0.2,2.3-0.8,2.3-2v-4.7c0-1.1,0.9-2,2-2h8
		c1.1,0,2,0.9,2,2v4.7c0,0,0,0,0,0C161,115,154.3,121.4,146.3,121z M193,95c0,1.1-0.9,2-2,2h-8c-3.3,0-6,2.7-6,6v3.9
		c0,1,0.7,1.9,1.7,2.1c1.3,0.2,2.3-0.8,2.3-2v-4.7c0-1.1,0.9-2,2-2h8c1.1,0,2,0.9,2,2v4.7c0,8-6.7,14.4-14.7,14
		c-7.5-0.4-13.3-6.9-13.3-14.4V71.4c0-7.5,5.8-14,13.3-14.4c8-0.4,14.7,6,14.7,14V95z"/>
	<path fill="#EEEEEE" d="M83,69c-1.1,0-2,0.9-2,2v36c0,1.1,0.9,2,2,2s2-0.9,2-2V71C85,69.9,84.1,69,83,69z"/>
	<path fill="#EEEEEE" d="M51,69c-1.1,0-2,0.9-2,2v36c0,1.1,0.9,2,2,2s2-0.9,2-2V71C53,69.9,52.1,69,51,69z"/>
</g>
</svg>
