<?xml version="1.0" encoding="utf-8"?>
<!-- Generator: Adobe Illustrator 19.1.0, SVG Export Plug-In . SVG Version: 6.00 Build 0)  -->
<svg version="1.1" id="PD_Logo" xmlns="http://www.w3.org/2000/svg" xmlns:xlink="http://www.w3.org/1999/xlink" x="0px" y="0px"
	 viewBox="0 0 792 396" style="enable-background:new 0 0 792 396;" xml:space="preserve">
<style type="text/css">
	.st0{fill:#25C151;}
</style>
<g>
	<g>
		<path class="st0" d="M179.3,169.2c-1.7-3.3-3.9-5.9-6.4-8c-2.6-2-5.3-3.5-8.3-4.4c-3-0.9-5.8-1.4-8.4-1.4h-44.6v17.7h44.6
			c2.3,0,4.2,0.7,5.7,2.2c1.5,1.4,2.3,3.4,2.3,5.8v7.8h-34.2c-4.7,0-8.7,0.9-11.9,2.6c-3.3,1.7-5.9,3.9-8,6.4
			c-2,2.6-3.5,5.3-4.4,8.4c-0.9,3-1.4,5.8-1.4,8.4c0,4.7,0.9,8.7,2.6,11.9c1.7,3.3,3.9,5.9,6.4,8c2.6,2,5.3,3.5,8.3,4.4
			c3,0.9,5.8,1.4,8.4,1.4h26.3c4.7,0,8.7-0.9,11.9-2.6c3.3-1.7,5.9-3.9,8-6.4c2-2.6,3.5-5.3,4.4-8.3c0.9-3,1.4-5.8,1.4-8.3v-33.5
			C181.9,176.4,181,172.5,179.3,169.2z M164.2,214.5c0,2.3-0.7,4.2-2.1,5.7c-1.4,1.5-3.4,2.3-5.9,2.3h-26.1c-2.2,0-4.1-0.7-5.7-2
			c-1.6-1.4-2.4-3.3-2.4-5.7c0-2.3,0.7-4.2,2.1-5.8c1.4-1.5,3.4-2.3,5.9-2.3h34.2V214.5z"/>
	</g>
	<g>
		<path class="st0" d="M331.6,207.1c4.7,0,8.7-0.9,12-2.6c3.3-1.7,6-3.9,8-6.5c2.1-2.6,3.5-5.4,4.4-8.4c0.9-3,1.4-5.8,1.4-8.4
			c0-4.7-0.9-8.7-2.6-12c-1.7-3.3-3.9-6-6.5-8c-2.6-2.1-5.4-3.5-8.4-4.4c-3-0.9-5.8-1.4-8.4-1.4h-26.4c-4.7,0-8.7,0.9-12,2.6
			c-3.3,1.7-6,3.9-8,6.5c-2,2.6-3.5,5.4-4.4,8.4c-0.9,3-1.4,5.8-1.4,8.4V215c0,4.7,0.9,8.7,2.6,12c1.7,3.3,3.9,6,6.4,8
			c2.6,2,5.4,3.5,8.4,4.4c3,0.9,5.8,1.4,8.4,1.4h49.6v-17.9h-49.4c-2.3,0-4.2-0.7-5.8-2.1c-1.6-1.4-2.3-3.3-2.3-5.8v-7.9H331.6z
			 M297.1,181.4c0-2.3,0.7-4.2,2.1-5.8c1.4-1.6,3.4-2.3,5.9-2.3h26.4c2.2,0,4.1,0.7,5.7,2.1c1.6,1.4,2.3,3.3,2.3,5.8
			c0,2.3-0.7,4.2-2.1,5.8c-1.4,1.6-3.4,2.3-5.9,2.3h-34.4V181.4z"/>
	</g>
	<g>
		<path class="st0" d="M485.7,240.4C485.7,240.4,485.7,240.4,485.7,240.4l-28.4,0c-10.1,0-15.9-4.1-19.1-7.5
			c-6.3-6.9-6.3-15.7-6.2-18.1v-34c0-9.8,4-15.6,7.4-18.8c6.9-6.4,15.9-6.6,18.1-6.5h35.3V125h18v90.3c0,9.2-3.8,14.9-7,18
			C496.9,240.1,487.6,240.4,485.7,240.4z M450,215.8c0,0.9,0.2,3.5,1.6,5c1.3,1.4,3.9,1.7,5.8,1.7h28.4c7.1-0.1,7.1-5.4,7.1-7.2
			v-41.7l-36.1,0c0,0,0,0,0,0c-1,0-3.6,0.3-5,1.7c-1.1,1-1.6,2.9-1.6,5.6L450,215.8z"/>
	</g>
	<g>
		<path class="st0" d="M34.5,271h-18v-90.5c0-9.3,3.8-14.9,7-18.1c7.1-6.9,16.6-7.2,18.3-7.1H70c10.1,0,16,4.1,19.1,7.5
			c6.3,6.9,6.4,15.7,6.2,18.1V215c0,9.8-4,15.7-7.4,18.8c-6.9,6.5-15.9,6.6-18.1,6.5H34.5V271z M70.6,222.3c0.9,0,3.7-0.3,5.1-1.7
			c1.1-1,1.6-2.9,1.6-5.6l0-35c0-0.9-0.2-3.6-1.6-5c-1.3-1.4-3.9-1.7-5.8-1.7H41.6c-7.1,0.1-7.1,5.4-7.1,7.2v41.8L70.6,222.3z"/>
	</g>
	<g>
		<path class="st0" d="M382.6,240.5h-18v-59.9c0-9.2,3.8-14.9,7-18c7.1-7,16.8-7.2,18.3-7.2h35v18h-35.1c-7.2,0.1-7.2,5.5-7.2,7.2
			V240.5z"/>
	</g>
	<g>
		<path class="st0" d="M545.4,240.5c-1.4,0-11.1-0.3-18.3-7.3c-3.2-3.1-6.9-8.8-6.9-17.9v-59.9h18v59.9c0,3.9,1.4,5.2,2.8,6
			c1.7,0.9,3.8,1.2,4.5,1.2l35.2,0v-67.1h18v85.1L545.4,240.5C545.5,240.5,545.5,240.5,545.4,240.5z"/>
	</g>
	<g>
		<path class="st0" d="M243.5,270.2h-42.7v-18h42.7c4.5,0,6.1-1.8,7-3.5c1.1-2,1.4-4.3,1.5-5.2v-3.4h-34c-2.3,0.1-11.8,0-19.1-6.8
			c-3.5-3.3-7.7-9.4-7.7-19.8v-31.4c-0.1-2.2,0.1-11.8,7-19.1c3.3-3.5,9.4-7.7,19.7-7.7h25.6c10.7,0,26.6,7.1,26.6,26.6v61.8
			C269.9,254.4,262.7,270.2,243.5,270.2z M209.2,181.5l0,0.3l0,0.1v31.5c0,3.2,0.7,5.4,2,6.7c2.1,2,6,2,6,2l0.6,0H252l0-40.2
			c0-4.8-1.9-6.4-3.8-7.3c-2.3-1.1-4.7-1.2-4.8-1.2h-25.6c-3.1,0-5.3,0.7-6.5,2C209.5,177.1,209.2,180.3,209.2,181.5z"/>
	</g>
	<g>
		<path class="st0" d="M749.1,270.4h-42.7v-18h42.7c4.5,0,6.1-1.7,7-3.4c1.1-2,1.4-4.3,1.4-5.1v-3.3h-34.1
			c-10.4,0-16.5-4.2-19.8-7.7c-6.9-7.3-6.9-16.9-6.9-19.1v-58.2h18l0,58.9c0,1.2,0.3,4.3,2.1,6.1c1.3,1.3,3.5,2,6.6,2h34.1v-67.2h18
			V244C775.5,254.6,768.4,270.4,749.1,270.4z"/>
	</g>
	<g>
		<polygon class="st0" points="656.6,240.6 638.6,240.6 638.6,173.4 608,173.4 608,155.4 638.6,155.4 638.6,132.3 656.6,132.3 
			656.6,155.4 687.4,155.4 687.4,173.4 656.6,173.4 		"/>
	</g>
</g>
</svg>
