<svg id="Layer_1" data-name="Layer 1" xmlns="http://www.w3.org/2000/svg" viewBox="0 0 500 142.74"><title>slack</title><path d="M89.54,12.81A12.44,12.44,0,1,0,66,20.48L98,119.09a12.44,12.44,0,0,0,23.56-7.65Z" style="fill:#e8a826"/><path d="M39.91,29a12.44,12.44,0,0,0-23.58,7.67l32.05,98.61a12.44,12.44,0,0,0,23.56-7.65Z" style="fill:#3fb890"/><path d="M130,94.49a12.44,12.44,0,1,0-7.78-23.58L23.65,103a12.44,12.44,0,0,0,7.65,23.56Z" style="fill:#df1767"/><path d="M44.2,122.34l23.56-7.64L60.11,91.13,36.54,98.8Z" style="fill:#482c49"/><path d="M93.86,106.2l23.58-7.65L109.75,75,86.18,82.64Z" style="fill:#cc2029"/><path d="M113.78,44.83a12.44,12.44,0,0,0-7.67-23.58L7.5,53.31a12.44,12.44,0,0,0,7.65,23.56Z" style="fill:#73cada"/><path d="M28.06,72.72l23.58-7.67L44,41.44,20.4,49.11Z" style="fill:#21937d"/><path d="M77.72,56.54l23.58-7.67L93.63,25.32,70.05,33Z" style="fill:#67883a"/><path d="M229.95,38.78c4.35,1.9,4.67,3.33,1.28,9.83s-4.35,7.06-8.65,5.32a49.28,49.28,0,0,0-16.73-4c-7.29,0-12.13,2.61-12.13,6.58,0,13.08,41.79,6,41.79,33.93,0,14-12.05,23.33-30.14,23.33A70.9,70.9,0,0,1,176,106.43c-4-2.07-4.28-3.25-.79-9.91,3-5.86,4-6.5,8.32-4.67,6.9,3,15.55,5.32,21.49,5.32,6.66,0,11.1-2.69,11.1-6.66,0-12.69-42.5-6.66-42.5-33.7,0-14.35,12-23.95,29.89-23.95A70.82,70.82,0,0,1,229.95,38.78Z" style="fill:#3d454d"/><path d="M263.71,5.63v104a3.76,3.76,0,0,1-4,3.25H248.78a3.76,3.76,0,0,1-4-3.25V5.63c0-5.15,1.43-5.63,9.52-5.63C263.32,0,263.71.64,263.71,5.63Z" style="fill:#3d454d"/><path d="M341.46,64.15V109a3.87,3.87,0,0,1-3.69,4H326.64a3.89,3.89,0,0,1-4-4.28l0.16-4.84a30.59,30.59,0,0,1-22.67,9.91c-16.33,0-27.28-9.44-27.28-23.54,0-15,12.44-25.05,30.93-25.13a49.87,49.87,0,0,1,18.66,3.41V63.39c0-8.24-6.5-13.16-17.53-13.16a35.77,35.77,0,0,0-16.58,5c-3.89,2.22-4.84,2.07-9-4.2s-4-7.45,0-10A52.87,52.87,0,0,1,306.69,33C328,32.91,341.46,44.49,341.46,64.15ZM291,90.07c0,5.32,4.53,8.88,11.34,8.88a23.62,23.62,0,0,0,20.06-10.7v-7A42.27,42.27,0,0,0,308,78.66c-10.19,0-17,4.84-17,11.41h0Z" style="fill:#3d454d"/><path d="M415.64,38.94c4,2.3,4.12,3.56-.23,10.31-4.12,6.34-4.84,6.73-9.19,4.53a31.1,31.1,0,0,0-13-3.25c-13.72,0-22.83,9-22.83,22.67,0,14.2,9.11,23.72,22.83,23.72a33.62,33.62,0,0,0,14.59-4c4-2.3,4.84-2.15,9,4,3.81,5.71,3.73,7.06.31,9.44a46.37,46.37,0,0,1-24.26,7.45c-25.38,0-42.35-16.25-42.35-40.6s17-40.28,42.5-40.28A48.32,48.32,0,0,1,415.64,38.94Z" style="fill:#3d454d"/><path d="M498.42,103.09c3.11,4,1.9,5.47-6,8.32s-9.19,2.77-12.05-.95L457.66,80.17,447.51,90v19.66a3.76,3.76,0,0,1-4,3.25H432.58a3.76,3.76,0,0,1-4-3.25V5.63C428.53,0.48,430,0,438.05,0c9.19,0,9.52.64,9.52,5.63V64.72l31.1-29.81c3.41-3.25,5.32-3,11.41,1,6.73,4.35,7.22,5.55,4,8.72L470.89,67.18Z" style="fill:#3d454d"/></svg>