<?xml version="1.0" encoding="utf-8"?>
<!-- Generator: Adobe Illustrator 19.1.0, SVG Export Plug-In . SVG Version: 6.00 Build 0)  -->
<svg version="1.1" id="Layer_1" xmlns="http://www.w3.org/2000/svg" xmlns:xlink="http://www.w3.org/1999/xlink" x="0px" y="0px"
	 viewBox="0 0 300 360" style="enable-background:new 0 0 300 360;" xml:space="preserve">
<style type="text/css">
	.st0{fill:#303030;}
	.st1{fill:#424242;}
	.st2{fill:#7CB342;}
	.st3{fill:none;stroke:#7CB342;stroke-width:2.0952;stroke-miterlimit:10;}
	.st4{opacity:0.87;}
	.st5{fill:#FFFFFF;}
	.st6{opacity:0.56;}
	.st7{opacity:0.87;fill:#FFFFFF;}
	.st8{opacity:0.56;fill:#FFFFFF;}
	.st9{fill:#212121;}
	.st10{fill:#42A5F5;}
	.st11{opacity:0.87;fill:#BDBDBD;}
</style>
<rect class="st0" width="300" height="360"/>
<rect class="st1" width="300" height="72"/>
<g>
	<circle class="st2" cx="42" cy="36" r="18"/>
	<circle class="st3" cx="42" cy="36" r="22"/>
	<g>
		<path class="st0" d="M35.3,42.9h-1.2V30.3h-1.3v-0.9l0.3,0c0.8-0.1,1.1-0.4,1.4-0.9l0.2-0.3h0.7V42.9z"/>
		<path class="st0" d="M40.5,43H40c-1.7,0-2.6-0.9-2.6-2.6v-9.8c0-1.7,0.9-2.6,2.6-2.6h0.6c1.7,0,2.6,0.9,2.6,2.6v9.8
			C43.1,42.2,42.3,43,40.5,43z M40.5,29.3H40c-0.9,0-1.4,0.4-1.4,1.3v9.9c0,0.9,0.5,1.3,1.4,1.3h0.5c0.9,0,1.4-0.4,1.4-1.3v-9.9
			C41.9,29.7,41.4,29.3,40.5,29.3z"/>
		<path class="st0" d="M48.1,43h-0.6c-1.7,0-2.6-0.9-2.6-2.6v-9.8c0-1.7,0.9-2.6,2.6-2.6h0.6c1.7,0,2.6,0.9,2.6,2.6v9.8
			C50.6,42.2,49.8,43,48.1,43z M48,29.3h-0.5c-0.9,0-1.4,0.4-1.4,1.3v9.9c0,0.9,0.5,1.3,1.4,1.3H48c0.9,0,1.4-0.4,1.4-1.3v-9.9
			C49.4,29.7,48.9,29.3,48,29.3z"/>
	</g>
</g>
<g class="st4">
	<path class="st5" d="M91.4,43.1v-8.2l-3.5,5.4h-0.1L84.2,35v8.2h-2.7V30.5h3l3.3,5.3l3.3-5.3h3v12.6H91.4z"/>
	<path class="st5" d="M102.3,43.4c-0.7,2-1.5,2.7-3.2,2.7c-1,0-1.7-0.3-2.4-0.7l0.9-2c0.4,0.2,0.8,0.4,1.2,0.4c0.5,0,0.7-0.1,1-0.6
		L96,33.5h2.9l2.2,6.6l2.1-6.6h2.8L102.3,43.4z"/>
	<path class="st5" d="M112.4,43.3c-1.9,0-3.8-0.7-5.3-2l1.6-2c1.1,0.9,2.3,1.5,3.8,1.5c1.1,0,1.8-0.5,1.8-1.2v0
		c0-0.7-0.4-1.1-2.5-1.6c-2.5-0.6-4.2-1.4-4.2-3.9v0c0-2.3,1.8-3.8,4.4-3.8c1.8,0,3.4,0.6,4.7,1.6l-1.4,2.1
		c-1.1-0.8-2.2-1.2-3.3-1.2c-1.1,0-1.6,0.5-1.6,1.1v0c0,0.8,0.5,1.1,2.7,1.7c2.6,0.7,4,1.6,4,3.8v0C117,41.9,115.1,43.3,112.4,43.3z
		"/>
	<path class="st5" d="M130.7,43.5l-1.4-1.2c-1.1,0.7-2.3,1.1-3.7,1.1c-3.9,0-6.7-2.9-6.7-6.5v0c0-3.6,2.8-6.5,6.7-6.5
		s6.7,2.9,6.7,6.5v0c0,1.3-0.4,2.6-1.1,3.6l1.3,1.1L130.7,43.5z M129.4,36.8c0-2.2-1.6-4-3.8-4s-3.8,1.8-3.8,3.9v0
		c0,2.2,1.6,4,3.8,4c0.6,0,1.2-0.1,1.7-0.3l-2.1-1.7l1.8-2l2.1,1.9C129.3,38.1,129.4,37.5,129.4,36.8L129.4,36.8z"/>
	<path class="st5" d="M134.8,43.1V30.5h2.8v10.1h6.3v2.5H134.8z"/>
	<path class="st5" d="M156.2,43.1h-4.9V30.5h4.9c4,0,6.7,2.7,6.7,6.3v0C162.9,40.4,160.2,43.1,156.2,43.1z M160,36.8
		c0-2.2-1.5-3.8-3.8-3.8h-2.1v7.6h2.1C158.5,40.6,160,39.1,160,36.8L160,36.8z"/>
	<path class="st5" d="M171.4,43.1h-6V30.5h5.9c2.6,0,4.2,1.3,4.2,3.3v0c0,1.4-0.8,2.2-1.7,2.7c1.5,0.6,2.4,1.4,2.4,3.1v0
		C176.1,42,174.2,43.1,171.4,43.1z M172.6,34.3c0-0.8-0.6-1.3-1.8-1.3h-2.7v2.7h2.6C171.9,35.6,172.6,35.2,172.6,34.3L172.6,34.3z
		 M173.3,39.3c0-0.8-0.6-1.4-2.1-1.4h-3.2v2.8h3.3C172.6,40.7,173.3,40.3,173.3,39.3L173.3,39.3z"/>
</g>
<g class="st6">
	<path class="st5" d="M30.9,100.1l-1.2-2.8h-5.3l-1.2,2.8h-2.8l5.4-12.7h2.6l5.4,12.7H30.9z M27.1,90.8l-1.7,4.1h3.3L27.1,90.8z"/>
	<path class="st5" d="M38.8,100.3c-1.4,0-2.9-0.5-4.1-1.5l1.2-1.8c1,0.8,2.1,1.2,3,1.2c0.8,0,1.2-0.3,1.2-0.7v0c0-0.6-0.9-0.8-2-1.1
		c-1.4-0.4-2.9-1-2.9-2.9v0c0-2,1.6-3.1,3.5-3.1c1.2,0,2.6,0.4,3.6,1.1l-1,1.9c-1-0.6-1.9-0.9-2.6-0.9c-0.7,0-1,0.3-1,0.7v0
		c0,0.5,0.9,0.8,2,1.2c1.4,0.5,2.9,1.1,2.9,2.9v0C42.5,99.3,40.9,100.3,38.8,100.3z"/>
	<path class="st5" d="M47.7,100.3c-1.4,0-2.9-0.5-4.1-1.5l1.2-1.8c1,0.8,2.1,1.2,3,1.2c0.8,0,1.2-0.3,1.2-0.7v0c0-0.6-0.9-0.8-2-1.1
		c-1.4-0.4-2.9-1-2.9-2.9v0c0-2,1.6-3.1,3.5-3.1c1.2,0,2.6,0.4,3.6,1.1l-1,1.9c-1-0.6-1.9-0.9-2.6-0.9c-0.7,0-1,0.3-1,0.7v0
		c0,0.5,0.9,0.8,2,1.2c1.4,0.5,2.9,1.1,2.9,2.9v0C51.4,99.3,49.8,100.3,47.7,100.3z"/>
	<path class="st5" d="M62.3,96.3h-6.7c0.3,1.2,1.1,1.9,2.4,1.9c0.9,0,1.6-0.3,2.3-1l1.6,1.4c-0.9,1.1-2.2,1.8-3.9,1.8
		c-2.9,0-5-2-5-5v0c0-2.8,2-5,4.8-5c3.2,0,4.7,2.5,4.7,5.2v0C62.3,95.9,62.3,96,62.3,96.3z M57.6,92.5c-1.1,0-1.9,0.8-2.1,2.1h4.1
		C59.5,93.3,58.8,92.5,57.6,92.5z"/>
	<path class="st5" d="M70,93.2c-1.8,0-2.9,1.1-2.9,3.4v3.6h-2.7v-9.7h2.7v1.9c0.6-1.3,1.5-2.2,3.1-2.1v2.9H70z"/>
	<path class="st5" d="M75.2,100.3c-1.7,0-2.8-0.7-2.8-2.9v-4.6h-1.2v-2.3h1.2V88h2.7v2.5h2.3v2.3h-2.3V97c0,0.6,0.3,0.9,0.9,0.9
		c0.5,0,1-0.1,1.4-0.3v2.2C76.7,100.1,76.1,100.3,75.2,100.3z"/>
	<path class="st5" d="M79.4,89.4V87h2.9v2.4H79.4z M79.5,100.1v-9.7h2.7v9.7H79.5z"/>
	<path class="st5" d="M89.5,100.4c-3,0-5.2-2.2-5.2-5v0c0-2.8,2.2-5,5.2-5c3,0,5.2,2.2,5.2,5v0C94.8,98.1,92.5,100.4,89.5,100.4z
		 M92.1,95.3c0-1.4-1-2.7-2.5-2.7c-1.6,0-2.5,1.2-2.5,2.6v0c0,1.4,1,2.7,2.5,2.7C91.1,98,92.1,96.8,92.1,95.3L92.1,95.3z"/>
	<path class="st5" d="M102.9,100.1v-5.4c0-1.3-0.6-2-1.7-2c-1,0-1.7,0.7-1.7,2v5.4h-2.7v-9.7h2.7v1.4c0.6-0.8,1.4-1.5,2.8-1.5
		c2.1,0,3.3,1.4,3.3,3.6v6.2H102.9z"/>
	<path class="st5" d="M111.4,100.3c-1.4,0-2.9-0.5-4.1-1.5l1.2-1.8c1,0.8,2.1,1.2,3,1.2c0.8,0,1.2-0.3,1.2-0.7v0
		c0-0.6-0.9-0.8-2-1.1c-1.4-0.4-2.9-1-2.9-2.9v0c0-2,1.6-3.1,3.5-3.1c1.2,0,2.6,0.4,3.6,1.1l-1,1.9c-1-0.6-1.9-0.9-2.6-0.9
		c-0.7,0-1,0.3-1,0.7v0c0,0.5,0.9,0.8,2,1.2c1.4,0.5,2.9,1.1,2.9,2.9v0C115,99.3,113.4,100.3,111.4,100.3z"/>
</g>
<g class="st4">
	<path class="st7" d="M86.7,132.9c-3.2,0-5.6-2.5-5.6-5.8c0-3.2,2.4-5.8,5.7-5.8c2,0,3.2,0.7,4.4,1.8l-0.9,0.9
		c-0.9-0.9-2-1.5-3.5-1.5c-2.5,0-4.3,2-4.3,4.6s1.9,4.6,4.3,4.6c1.5,0,2.5-0.6,3.6-1.6l0.8,0.8C90,132.1,88.7,132.9,86.7,132.9z"/>
	<path class="st7" d="M97.4,128.7h-2.7v4h-1.3v-11.2h4.2c2.5,0,4.2,1.3,4.2,3.6C101.8,127.5,99.8,128.7,97.4,128.7z M97.5,122.6
		h-2.8v4.9h2.8c1.9,0,3.1-1,3.1-2.5C100.5,123.5,99.3,122.6,97.5,122.6z"/>
	<path class="st7" d="M113.2,127.9c0,3.3-1.9,5-4.7,5c-2.8,0-4.7-1.7-4.7-4.9v-6.5h1.3v6.4c0,2.4,1.3,3.8,3.4,3.8
		c2.1,0,3.4-1.2,3.4-3.7v-6.5h1.3V127.9z"/>
	<path class="st7" d="M130.2,127.9c0,3.3-1.9,5-4.7,5c-2.8,0-4.7-1.7-4.7-4.9v-6.5h1.3v6.4c0,2.4,1.3,3.8,3.4,3.8
		c2.1,0,3.4-1.2,3.4-3.7v-6.5h1.3V127.9z"/>
	<path class="st7" d="M134.6,130.3c0,1,0.6,1.4,1.4,1.4c0.4,0,0.8-0.1,1.2-0.3v1.1c-0.4,0.2-0.9,0.4-1.5,0.4c-1.3,0-2.3-0.7-2.3-2.3
		v-5h-1.2v-1.1h1.2v-2.5h1.2v2.5h2.6v1.1h-2.6V130.3z"/>
	<path class="st7" d="M139.5,122.6v-1.4h1.4v1.4H139.5z M139.5,132.7v-8.3h1.2v8.3H139.5z"/>
	<path class="st7" d="M143.7,132.7V121h1.2v11.7H143.7z"/>
	<path class="st7" d="M147.9,122.6v-1.4h1.4v1.4H147.9z M148,132.7v-8.3h1.2v8.3H148z"/>
	<path class="st7" d="M151.8,125.4v-1h7v0.8l-5.5,6.5h5.5v1h-7.2v-0.8l5.5-6.5H151.8z"/>
	<path class="st7" d="M161.4,126l-0.4-1c0.9-0.4,1.8-0.7,3-0.7c2.3,0,3.5,1.2,3.5,3.3v5.1h-1.2v-1.2c-0.6,0.8-1.5,1.4-3,1.4
		c-1.5,0-3.1-0.9-3.1-2.6c0-1.8,1.4-2.7,3.5-2.7c1.1,0,1.8,0.1,2.5,0.4v-0.3c0-1.5-0.9-2.3-2.5-2.3C163,125.4,162.2,125.6,161.4,126
		z M161.6,130.2c0,1.1,1,1.7,2.1,1.7c1.5,0,2.8-0.9,2.8-2.2v-0.8c-0.6-0.2-1.4-0.4-2.4-0.4C162.4,128.5,161.6,129.2,161.6,130.2z"/>
	<path class="st7" d="M171.8,130.3c0,1,0.6,1.4,1.4,1.4c0.4,0,0.8-0.1,1.2-0.3v1.1c-0.4,0.2-0.9,0.4-1.5,0.4c-1.3,0-2.3-0.7-2.3-2.3
		v-5h-1.2v-1.1h1.2v-2.5h1.2v2.5h2.6v1.1h-2.6V130.3z"/>
	<path class="st7" d="M176.6,122.6v-1.4h1.4v1.4H176.6z M176.7,132.7v-8.3h1.2v8.3H176.7z"/>
	<path class="st7" d="M184.6,132.9c-2.5,0-4.3-2-4.3-4.3c0-2.4,1.8-4.3,4.3-4.3c2.5,0,4.3,2,4.3,4.3
		C188.9,130.9,187.1,132.9,184.6,132.9z M184.6,125.3c-1.8,0-3,1.4-3,3.2s1.3,3.2,3.1,3.2c1.8,0,3-1.4,3-3.2
		C187.7,126.8,186.3,125.3,184.6,125.3z"/>
	<path class="st7" d="M192.4,132.7h-1.2v-8.3h1.2v1.4c0.5-0.9,1.4-1.6,2.8-1.6c2,0,3.2,1.3,3.2,3.3v5.1h-1.2v-4.8
		c0-1.5-0.8-2.5-2.3-2.5c-1.4,0-2.5,1-2.5,2.6V132.7z"/>
	<path class="st8" d="M88.7,142v1.2l-6.2,3l6.2,3v1.2l-7.5-3.7v-1.1L88.7,142z"/>
	<path class="st7" d="M100.1,152c-2.5,0-4.3-1.3-4.3-3.2c0-1.4,0.6-2.2,1.8-2.7c-0.9-0.5-1.4-1.2-1.4-2.5c0-1.7,1.6-3.1,3.9-3.1
		s3.9,1.4,3.9,3.1c0,1.2-0.6,1.9-1.4,2.5c1.1,0.6,1.8,1.3,1.8,2.7C104.4,150.8,102.6,152,100.1,152z M100.1,147.2
		c-1.1,0-1.9,0.5-1.9,1.4c0,0.8,0.7,1.4,1.9,1.4s1.9-0.6,1.9-1.4C102,147.7,101.2,147.2,100.1,147.2z M100.1,142.5
		c-1,0-1.6,0.6-1.6,1.3c0,0.8,0.6,1.4,1.6,1.4s1.6-0.6,1.6-1.4C101.7,143.2,101.1,142.5,100.1,142.5z"/>
	<path class="st7" d="M110.9,152.1c-3,0-5-2.5-5-5.8c0-3.3,2-5.8,5-5.8s5,2.5,5,5.8S113.9,152.1,110.9,152.1z M110.9,142.7
		c-1.5,0-2.4,1.5-2.4,3.6s1,3.6,2.5,3.6s2.4-1.5,2.4-3.6S112.4,142.7,110.9,142.7z"/>
	<path class="st7" d="M120.2,146.3c-1.6,0-2.7-1.3-2.7-2.8c0-1.6,1.1-2.9,2.7-2.9c1.6,0,2.7,1.3,2.7,2.8
		C123,145,121.9,146.3,120.2,146.3z M120.5,151.9h-1.9l8.2-11.2h1.9L120.5,151.9z M120.2,142c-0.7,0-1,0.6-1,1.4
		c0,0.8,0.4,1.4,1.1,1.4c0.7,0,1-0.6,1-1.4C121.3,142.7,120.9,142,120.2,142z M127.1,152c-1.6,0-2.7-1.3-2.7-2.8
		c0-1.6,1.1-2.9,2.7-2.9c1.6,0,2.7,1.3,2.7,2.8C129.8,150.7,128.7,152,127.1,152z M127.1,147.7c-0.7,0-1,0.6-1,1.4
		c0,0.8,0.4,1.4,1.1,1.4c0.7,0,1-0.6,1-1.4C128.2,148.4,127.7,147.7,127.1,147.7z"/>
</g>
<rect x="20" y="191" class="st9" width="260" height="150"/>
<g>
	<rect x="70" y="212" class="st10" width="210" height="2"/>
</g>
<g>
	<g>
		<rect x="20" y="221" class="st1" width="2" height="1"/>
	</g>
	<g>
		<path class="st1" d="M276,222h-2v-1h2V222z M270,222h-4v-1h4V222z M262,222h-4v-1h4V222z M254,222h-4v-1h4V222z M246,222h-4v-1h4
			V222z M238,222h-4v-1h4V222z M230,222h-4v-1h4V222z M222,222h-4v-1h4V222z M214,222h-4v-1h4V222z M206,222h-4v-1h4V222z M198,222
			h-4v-1h4V222z M190,222h-4v-1h4V222z M182,222h-4v-1h4V222z M174,222h-4v-1h4V222z M166,222h-4v-1h4V222z M158,222h-4v-1h4V222z
			 M150,222h-4v-1h4V222z M142,222h-4v-1h4V222z M134,222h-4v-1h4V222z M126,222h-4v-1h4V222z M118,222h-4v-1h4V222z M110,222h-4v-1
			h4V222z M102,222h-4v-1h4V222z M94,222h-4v-1h4V222z M86,222h-4v-1h4V222z M78,222h-4v-1h4V222z M70,222h-4v-1h4V222z M62,222h-4
			v-1h4V222z M54,222h-4v-1h4V222z M46,222h-4v-1h4V222z M38,222h-4v-1h4V222z M30,222h-4v-1h4V222z"/>
	</g>
	<g>
		<rect x="278" y="221" class="st1" width="2" height="1"/>
	</g>
</g>
<g>
	<g>
		<rect x="278" y="261" class="st1" width="2" height="1"/>
	</g>
	<g>
		<path class="st1" d="M274,262h-4v-1h4V262z M266,262h-4v-1h4V262z M258,262h-4v-1h4V262z M250,262h-4v-1h4V262z M242,262h-4v-1h4
			V262z M234,262h-4v-1h4V262z M226,262h-4v-1h4V262z M218,262h-4v-1h4V262z M210,262h-4v-1h4V262z M202,262h-4v-1h4V262z M194,262
			h-4v-1h4V262z M186,262h-4v-1h4V262z M178,262h-4v-1h4V262z M170,262h-4v-1h4V262z M162,262h-4v-1h4V262z M154,262h-4v-1h4V262z
			 M146,262h-4v-1h4V262z M138,262h-4v-1h4V262z M130,262h-4v-1h4V262z M122,262h-4v-1h4V262z M114,262h-4v-1h4V262z M106,262h-4v-1
			h4V262z M98,262h-4v-1h4V262z M90,262h-4v-1h4V262z M82,262h-4v-1h4V262z M74,262h-4v-1h4V262z M66,262h-4v-1h4V262z M58,262h-4
			v-1h4V262z M50,262h-4v-1h4V262z M42,262h-4v-1h4V262z M34,262h-4v-1h4V262z M26,262h-2v-1h2V262z"/>
	</g>
	<g>
		<rect x="20" y="261" class="st1" width="2" height="1"/>
	</g>
</g>
<g>
	<g>
		<rect x="20" y="301" class="st1" width="2" height="1"/>
	</g>
	<g>
		<path class="st1" d="M276,302h-2v-1h2V302z M270,302h-4v-1h4V302z M262,302h-4v-1h4V302z M254,302h-4v-1h4V302z M246,302h-4v-1h4
			V302z M238,302h-4v-1h4V302z M230,302h-4v-1h4V302z M222,302h-4v-1h4V302z M214,302h-4v-1h4V302z M206,302h-4v-1h4V302z M198,302
			h-4v-1h4V302z M190,302h-4v-1h4V302z M182,302h-4v-1h4V302z M174,302h-4v-1h4V302z M166,302h-4v-1h4V302z M158,302h-4v-1h4V302z
			 M150,302h-4v-1h4V302z M142,302h-4v-1h4V302z M134,302h-4v-1h4V302z M126,302h-4v-1h4V302z M118,302h-4v-1h4V302z M110,302h-4v-1
			h4V302z M102,302h-4v-1h4V302z M94,302h-4v-1h4V302z M86,302h-4v-1h4V302z M78,302h-4v-1h4V302z M70,302h-4v-1h4V302z M62,302h-4
			v-1h4V302z M54,302h-4v-1h4V302z M46,302h-4v-1h4V302z M38,302h-4v-1h4V302z M30,302h-4v-1h4V302z"/>
	</g>
	<g>
		<rect x="278" y="301" class="st1" width="2" height="1"/>
	</g>
</g>
<g>
	<g class="st4">
		<path class="st11" d="M24.2,202.5h8.6v1.1l-5.7,11.5h-1.6l5.7-11.3h-6.9V202.5z"/>
		<path class="st11" d="M35.4,202.5h7.3v1.3h-6l-0.3,4c0.7-0.3,1.4-0.6,2.5-0.6c2.4,0,4.4,1.5,4.4,3.9c0,2.5-1.9,4.2-4.5,4.2
			c-1.8,0-3.4-0.9-4.5-2l0.9-1c1.1,1.1,2.3,1.7,3.6,1.7c1.8,0,3-1.2,3-2.8c0-1.6-1.3-2.7-3.1-2.7c-1.1,0-1.9,0.3-2.6,0.7l-1-0.6
			L35.4,202.5z"/>
		<path class="st11" d="M48.1,208.8c-1.7,0-2.8-1.5-2.8-3.2c0-1.7,1.2-3.2,2.9-3.2c1.7,0,2.8,1.5,2.8,3.2
			C50.9,207.3,49.8,208.8,48.1,208.8z M48.1,203.4c-1,0-1.6,1-1.6,2.2c0,1.3,0.7,2.2,1.7,2.2c1,0,1.6-1,1.6-2.2
			C49.8,204.4,49,203.4,48.1,203.4z M47.8,215.1h-1.3l9.3-12.6h1.3L47.8,215.1z M55.5,215.3c-1.7,0-2.8-1.5-2.8-3.2
			c0-1.7,1.2-3.2,2.9-3.2s2.8,1.5,2.8,3.2C58.4,213.8,57.2,215.3,55.5,215.3z M55.5,209.8c-1,0-1.6,1-1.6,2.2c0,1.3,0.7,2.2,1.7,2.2
			c1,0,1.6-1,1.6-2.2C57.2,210.8,56.4,209.8,55.5,209.8z"/>
	</g>
	<g class="st4">
		<path class="st11" d="M25.1,242.5h7.3v1.3h-6l-0.3,4c0.7-0.3,1.4-0.6,2.5-0.6c2.4,0,4.4,1.5,4.4,3.9c0,2.5-1.9,4.2-4.5,4.2
			c-1.8,0-3.4-0.9-4.5-2l0.9-1c1.1,1.1,2.3,1.7,3.6,1.7c1.8,0,3-1.2,3-2.8c0-1.6-1.3-2.7-3.1-2.7c-1.1,0-1.9,0.3-2.6,0.7l-1-0.6
			L25.1,242.5z"/>
		<path class="st11" d="M40.4,255.4c-3.3,0-5.3-3-5.3-6.5s2.1-6.5,5.3-6.5c3.2,0,5.3,3,5.3,6.5C45.8,252.4,43.7,255.4,40.4,255.4z
			 M40.4,243.6c-2.4,0-3.8,2.4-3.8,5.2c0,2.8,1.5,5.2,3.9,5.2s3.8-2.4,3.8-5.2C44.3,246.1,42.8,243.6,40.4,243.6z"/>
		<path class="st11" d="M50.7,248.8c-1.7,0-2.8-1.5-2.8-3.2c0-1.7,1.2-3.2,2.9-3.2c1.7,0,2.8,1.5,2.8,3.2
			C53.5,247.3,52.4,248.8,50.7,248.8z M50.7,243.4c-1,0-1.6,1-1.6,2.2c0,1.3,0.7,2.2,1.7,2.2c1,0,1.6-1,1.6-2.2
			C52.3,244.4,51.6,243.4,50.7,243.4z M50.4,255.1h-1.3l9.3-12.6h1.3L50.4,255.1z M58.1,255.3c-1.7,0-2.8-1.5-2.8-3.2
			c0-1.7,1.2-3.2,2.9-3.2s2.8,1.5,2.8,3.2C60.9,253.8,59.8,255.3,58.1,255.3z M58.1,249.8c-1,0-1.6,1-1.6,2.2c0,1.3,0.7,2.2,1.7,2.2
			c1,0,1.6-1,1.6-2.2C59.8,250.8,59,249.8,58.1,249.8z"/>
	</g>
	<g class="st4">
		<path class="st11" d="M25.1,285.8l-1-0.8c1.1-1.7,2.3-2.7,4.5-2.7c2.3,0,3.9,1.5,3.9,3.6c0,1.9-1,3-3.2,4.9l-3.4,3h6.7v1.3h-8.8
			V294l4.6-4c1.9-1.7,2.6-2.7,2.6-4c0-1.5-1.2-2.4-2.5-2.4C27.1,283.6,26.2,284.4,25.1,285.8z"/>
		<path class="st11" d="M35.9,282.5h7.3v1.3h-6l-0.3,4c0.7-0.3,1.4-0.6,2.5-0.6c2.4,0,4.4,1.5,4.4,3.9c0,2.5-1.9,4.2-4.5,4.2
			c-1.8,0-3.4-0.9-4.5-2l0.9-1c1.1,1.1,2.3,1.7,3.6,1.7c1.8,0,3-1.2,3-2.8c0-1.6-1.3-2.7-3.1-2.7c-1.1,0-1.9,0.3-2.6,0.7l-1-0.6
			L35.9,282.5z"/>
		<path class="st11" d="M48.6,288.8c-1.7,0-2.8-1.5-2.8-3.2c0-1.7,1.2-3.2,2.9-3.2c1.7,0,2.8,1.5,2.8,3.2
			C51.4,287.3,50.3,288.8,48.6,288.8z M48.6,283.4c-1,0-1.6,1-1.6,2.2c0,1.3,0.7,2.2,1.7,2.2c1,0,1.6-1,1.6-2.2
			C50.3,284.4,49.5,283.4,48.6,283.4z M48.3,295.1H47l9.3-12.6h1.3L48.3,295.1z M56,295.3c-1.7,0-2.8-1.5-2.8-3.2
			c0-1.7,1.2-3.2,2.9-3.2s2.8,1.5,2.8,3.2C58.9,293.8,57.7,295.3,56,295.3z M56,289.8c-1,0-1.6,1-1.6,2.2c0,1.3,0.7,2.2,1.7,2.2
			c1,0,1.6-1,1.6-2.2C57.7,290.8,56.9,289.8,56,289.8z"/>
	</g>
	<g class="st4">
		<path class="st11" d="M29.4,335.4c-3.3,0-5.3-3-5.3-6.5s2.1-6.5,5.3-6.5c3.2,0,5.3,3,5.3,6.5C34.8,332.4,32.7,335.4,29.4,335.4z
			 M29.4,323.6c-2.4,0-3.8,2.4-3.8,5.2c0,2.8,1.5,5.2,3.9,5.2c2.4,0,3.8-2.4,3.8-5.2C33.3,326.1,31.8,323.6,29.4,323.6z"/>
		<path class="st11" d="M39.7,328.8c-1.7,0-2.8-1.5-2.8-3.2c0-1.7,1.2-3.2,2.9-3.2c1.7,0,2.8,1.5,2.8,3.2
			C42.5,327.3,41.4,328.8,39.7,328.8z M39.7,323.4c-1,0-1.6,1-1.6,2.2c0,1.3,0.7,2.2,1.7,2.2c1,0,1.6-1,1.6-2.2
			C41.3,324.4,40.6,323.4,39.7,323.4z M39.4,335.1h-1.3l9.3-12.6h1.3L39.4,335.1z M47.1,335.3c-1.7,0-2.8-1.5-2.8-3.2
			c0-1.7,1.2-3.2,2.9-3.2s2.8,1.5,2.8,3.2C49.9,333.8,48.8,335.3,47.1,335.3z M47.1,329.8c-1,0-1.6,1-1.6,2.2c0,1.3,0.7,2.2,1.7,2.2
			c1,0,1.6-1,1.6-2.2C48.7,330.8,48,329.8,47.1,329.8z"/>
	</g>
</g>
<g>
	<path class="st2" d="M70,304.2c-0.3,0-0.7-0.1-1-0.3c-0.8-0.5-1-1.6-0.4-2.4c0.1-0.1,9.2-13.1,22-26c17.4-17.4,32.9-26.3,46.1-26.3
		c16.1,0,25.9,8.2,35.3,16.2c9,7.6,17.5,14.8,31.4,14.8c12.2,0,16.8-5.2,22.6-11.9c7.7-8.7,16.4-18.6,44-19.1c0.9,0,1.7,0.7,1.8,1.7
		c0,1-0.7,1.7-1.7,1.8c-26.1,0.5-34.3,9.8-41.5,18c-5.9,6.7-11.5,13-25.2,13c-15.1,0-24.5-8-33.6-15.7c-9.3-7.9-18.2-15.3-33-15.3
		c-29.4,0-64.9,50.3-65.2,50.8C71.1,304,70.5,304.2,70,304.2z"/>
</g>
<path class="st2" d="M42,117c-12.2,0-22,9.8-22,22s9.8,22,22,22s22-9.8,22-22S54.2,117,42,117z M38,148.3l-7.5-7.5l1.9-1.9l5.6,5.6
	l14.1-14.1l1.9,1.9L38,148.3z"/>
<circle class="st2" cx="271" cy="251" r="6"/>
</svg>
