<?xml version="1.0" encoding="utf-8"?>
<!-- Generator: Adobe Illustrator 19.1.0, SVG Export Plug-In . SVG Version: 6.00 Build 0)  -->
<svg version="1.1" id="Layer_1" xmlns="http://www.w3.org/2000/svg" xmlns:xlink="http://www.w3.org/1999/xlink" x="0px" y="0px"
	 viewBox="-9 -20 300 320" style="enable-background:new -9 -20 300 320;" xml:space="preserve">
<style type="text/css">
	.st0{fill:#EEEEEE;}
	.st1{fill:#7CB342;}
	.st2{fill:none;stroke:#7CB342;stroke-width:2.0952;stroke-miterlimit:10;}
	.st3{opacity:0.87;}
	.st4{fill:#626262;}
	.st5{fill:#626262;enable-background:new    ;}
	.st6{fill:#42A5F5;}
	.st7{fill:#E0E0E0;}
	.st8{opacity:0.87;fill:#626262;enable-background:new    ;}
</style>
<rect x="-9" y="-20" class="st0" width="300" height="72"/>
<g>
	<circle class="st1" cx="33" cy="16" r="18"/>
	<circle class="st2" cx="33" cy="16" r="22"/>
	<g>
		<path class="st0" d="M26.3,22.9h-1.2V10.3h-1.3V9.4h0.3c0.8-0.1,1.1-0.4,1.4-0.9l0.2-0.3h0.7v14.7H26.3z"/>
		<path class="st0" d="M31.5,23H31c-1.7,0-2.6-0.9-2.6-2.6v-9.8C28.4,8.9,29.3,8,31,8h0.6c1.7,0,2.6,0.9,2.6,2.6v9.8
			C34.1,22.2,33.3,23,31.5,23z M31.5,9.3H31c-0.9,0-1.4,0.4-1.4,1.3v9.9c0,0.9,0.5,1.3,1.4,1.3h0.5c0.9,0,1.4-0.4,1.4-1.3v-9.9
			C32.9,9.7,32.4,9.3,31.5,9.3z"/>
		<path class="st0" d="M39.1,23h-0.6c-1.7,0-2.6-0.9-2.6-2.6v-9.8c0-1.7,0.9-2.6,2.6-2.6h0.6c1.7,0,2.6,0.9,2.6,2.6v9.8
			C41.6,22.2,40.8,23,39.1,23z M39,9.3h-0.5c-0.9,0-1.4,0.4-1.4,1.3v9.9c0,0.9,0.5,1.3,1.4,1.3H39c0.9,0,1.4-0.4,1.4-1.3v-9.9
			C40.4,9.7,39.9,9.3,39,9.3z"/>
	</g>
</g>
<g class="st3">
	<path class="st4" d="M82.4,23.1v-8.2l-3.5,5.4h-0.1L75.2,15v8.2h-2.7V10.5h3l3.3,5.3l3.3-5.3h3v12.6H82.4z"/>
	<path class="st4" d="M93.3,23.4c-0.7,2-1.5,2.7-3.2,2.7c-1,0-1.7-0.3-2.4-0.7l0.9-2c0.4,0.2,0.8,0.4,1.2,0.4c0.5,0,0.7-0.1,1-0.6
		L87,13.5h2.9l2.2,6.6l2.1-6.6H97L93.3,23.4z"/>
	<path class="st4" d="M103.4,23.3c-1.9,0-3.8-0.7-5.3-2l1.6-2c1.1,0.9,2.3,1.5,3.8,1.5c1.1,0,1.8-0.5,1.8-1.2l0,0
		c0-0.7-0.4-1.1-2.5-1.6c-2.5-0.6-4.2-1.4-4.2-3.9l0,0c0-2.3,1.8-3.8,4.4-3.8c1.8,0,3.4,0.6,4.7,1.6l-1.4,2.1
		c-1.1-0.8-2.2-1.2-3.3-1.2c-1.1,0-1.6,0.5-1.6,1.1l0,0c0,0.8,0.5,1.1,2.7,1.7c2.6,0.7,4,1.6,4,3.8l0,0
		C108,21.9,106.1,23.3,103.4,23.3z"/>
	<path class="st4" d="M121.7,23.5l-1.4-1.2c-1.1,0.7-2.3,1.1-3.7,1.1c-3.9,0-6.7-2.9-6.7-6.5l0,0c0-3.6,2.8-6.5,6.7-6.5
		s6.7,2.9,6.7,6.5l0,0c0,1.3-0.4,2.6-1.1,3.6l1.3,1.1L121.7,23.5z M120.4,16.8c0-2.2-1.6-4-3.8-4s-3.8,1.8-3.8,3.9l0,0
		c0,2.2,1.6,4,3.8,4c0.6,0,1.2-0.1,1.7-0.3l-2.1-1.7l1.8-2l2.1,1.9C120.3,18.1,120.4,17.5,120.4,16.8L120.4,16.8z"/>
	<path class="st4" d="M125.8,23.1V10.5h2.8v10.1h6.3v2.5H125.8z"/>
	<path class="st4" d="M147.2,23.1h-4.9V10.5h4.9c4,0,6.7,2.7,6.7,6.3l0,0C153.9,20.4,151.2,23.1,147.2,23.1z M151,16.8
		c0-2.2-1.5-3.8-3.8-3.8h-2.1v7.6h2.1C149.5,20.6,151,19.1,151,16.8L151,16.8z"/>
	<path class="st4" d="M162.4,23.1h-6V10.5h5.9c2.6,0,4.2,1.3,4.2,3.3l0,0c0,1.4-0.8,2.2-1.7,2.7c1.5,0.6,2.4,1.4,2.4,3.1l0,0
		C167.1,22,165.2,23.1,162.4,23.1z M163.6,14.3c0-0.8-0.6-1.3-1.8-1.3h-2.7v2.7h2.6C162.9,15.6,163.6,15.2,163.6,14.3L163.6,14.3z
		 M164.3,19.3c0-0.8-0.6-1.4-2.1-1.4H159v2.8h3.3C163.6,20.7,164.3,20.3,164.3,19.3L164.3,19.3z"/>
</g>
<g>
	<path class="st5" d="M77.7,92.9c-3.2,0-5.6-2.5-5.6-5.8c0-3.2,2.4-5.8,5.7-5.8c2,0,3.2,0.7,4.4,1.8L81.3,84c-0.9-0.9-2-1.5-3.5-1.5
		c-2.5,0-4.3,2-4.3,4.6c0,2.6,1.9,4.6,4.3,4.6c1.5,0,2.5-0.6,3.6-1.6l0.8,0.8C81,92.1,79.7,92.9,77.7,92.9z"/>
	<path class="st5" d="M88.4,88.7h-2.7v4h-1.3V81.5h4.2c2.5,0,4.2,1.3,4.2,3.6C92.8,87.5,90.8,88.7,88.4,88.7z M88.5,82.6h-2.8v4.9
		h2.8c1.9,0,3.1-1,3.1-2.5C91.5,83.5,90.3,82.6,88.5,82.6z"/>
	<path class="st5" d="M104.2,87.9c0,3.3-1.9,5-4.7,5c-2.8,0-4.7-1.7-4.7-4.9v-6.5h1.3v6.4c0,2.4,1.3,3.8,3.4,3.8s3.4-1.2,3.4-3.7
		v-6.5h1.3L104.2,87.9L104.2,87.9z"/>
	<path class="st5" d="M121.2,87.9c0,3.3-1.9,5-4.7,5s-4.7-1.7-4.7-4.9v-6.5h1.3v6.4c0,2.4,1.3,3.8,3.4,3.8s3.4-1.2,3.4-3.7v-6.5h1.3
		L121.2,87.9L121.2,87.9z"/>
	<path class="st5" d="M125.6,90.3c0,1,0.6,1.4,1.4,1.4c0.4,0,0.8-0.1,1.2-0.3v1.1c-0.4,0.2-0.9,0.4-1.5,0.4c-1.3,0-2.3-0.7-2.3-2.3
		v-5h-1.2v-1.1h1.2V82h1.2v2.5h2.6v1.1h-2.6L125.6,90.3L125.6,90.3z"/>
	<path class="st5" d="M130.5,82.6v-1.4h1.4v1.4H130.5z M130.5,92.7v-8.3h1.2v8.3H130.5z"/>
	<path class="st5" d="M134.7,92.7V81h1.2v11.7H134.7z"/>
	<path class="st5" d="M138.9,82.6v-1.4h1.4v1.4H138.9z M139,92.7v-8.3h1.2v8.3H139z"/>
	<path class="st5" d="M142.8,85.4v-1h7v0.8l-5.5,6.5h5.5v1h-7.2v-0.8l5.5-6.5C148.1,85.4,142.8,85.4,142.8,85.4z"/>
	<path class="st5" d="M152.4,86l-0.4-1c0.9-0.4,1.8-0.7,3-0.7c2.3,0,3.5,1.2,3.5,3.3v5.1h-1.2v-1.2c-0.6,0.8-1.5,1.4-3,1.4
		s-3.1-0.9-3.1-2.6c0-1.8,1.4-2.7,3.5-2.7c1.1,0,1.8,0.1,2.5,0.4v-0.3c0-1.5-0.9-2.3-2.5-2.3C154,85.4,153.2,85.6,152.4,86z
		 M152.6,90.2c0,1.1,1,1.7,2.1,1.7c1.5,0,2.8-0.9,2.8-2.2v-0.8c-0.6-0.2-1.4-0.4-2.4-0.4C153.4,88.5,152.6,89.2,152.6,90.2z"/>
	<path class="st5" d="M162.8,90.3c0,1,0.6,1.4,1.4,1.4c0.4,0,0.8-0.1,1.2-0.3v1.1c-0.4,0.2-0.9,0.4-1.5,0.4c-1.3,0-2.3-0.7-2.3-2.3
		v-5h-1.2v-1.1h1.2V82h1.2v2.5h2.6v1.1h-2.6L162.8,90.3L162.8,90.3z"/>
	<path class="st5" d="M167.6,82.6v-1.4h1.4v1.4H167.6z M167.7,92.7v-8.3h1.2v8.3H167.7z"/>
	<path class="st5" d="M175.6,92.9c-2.5,0-4.3-2-4.3-4.3c0-2.4,1.8-4.3,4.3-4.3s4.3,2,4.3,4.3C179.9,90.9,178.1,92.9,175.6,92.9z
		 M175.6,85.3c-1.8,0-3,1.4-3,3.2c0,1.8,1.3,3.2,3.1,3.2s3-1.4,3-3.2C178.7,86.8,177.3,85.3,175.6,85.3z"/>
	<path class="st5" d="M183.4,92.7h-1.2v-8.3h1.2v1.4c0.5-0.9,1.4-1.6,2.8-1.6c2,0,3.2,1.3,3.2,3.3v5.1h-1.2v-4.8
		c0-1.5-0.8-2.5-2.3-2.5c-1.4,0-2.5,1-2.5,2.6V92.7z"/>
	<path class="st5" d="M79.7,102v1.2l-6.2,3l6.2,3v1.2l-7.5-3.7v-1.1L79.7,102z"/>
	<path class="st5" d="M91.1,112c-2.5,0-4.3-1.3-4.3-3.2c0-1.4,0.6-2.2,1.8-2.7c-0.9-0.5-1.4-1.2-1.4-2.5c0-1.7,1.6-3.1,3.9-3.1
		s3.9,1.4,3.9,3.1c0,1.2-0.6,1.9-1.4,2.5c1.1,0.6,1.8,1.3,1.8,2.7C95.4,110.8,93.6,112,91.1,112z M91.1,107.2
		c-1.1,0-1.9,0.5-1.9,1.4c0,0.8,0.7,1.4,1.9,1.4s1.9-0.6,1.9-1.4C93,107.7,92.2,107.2,91.1,107.2z M91.1,102.5c-1,0-1.6,0.6-1.6,1.3
		c0,0.8,0.6,1.4,1.6,1.4s1.6-0.6,1.6-1.4C92.7,103.2,92.1,102.5,91.1,102.5z"/>
	<path class="st5" d="M101.9,112.1c-3,0-5-2.5-5-5.8s2-5.8,5-5.8s5,2.5,5,5.8S104.9,112.1,101.9,112.1z M101.9,102.7
		c-1.5,0-2.4,1.5-2.4,3.6s1,3.6,2.5,3.6s2.4-1.5,2.4-3.6S103.4,102.7,101.9,102.7z"/>
	<path class="st5" d="M111.2,106.3c-1.6,0-2.7-1.3-2.7-2.8c0-1.6,1.1-2.9,2.7-2.9s2.7,1.3,2.7,2.8C114,105,112.9,106.3,111.2,106.3z
		 M111.5,111.9h-1.9l8.2-11.2h1.9L111.5,111.9z M111.2,102c-0.7,0-1,0.6-1,1.4c0,0.8,0.4,1.4,1.1,1.4s1-0.6,1-1.4
		C112.3,102.7,111.9,102,111.2,102z M118.1,112c-1.6,0-2.7-1.3-2.7-2.8c0-1.6,1.1-2.9,2.7-2.9s2.7,1.3,2.7,2.8
		C120.8,110.7,119.7,112,118.1,112z M118.1,107.7c-0.7,0-1,0.6-1,1.4c0,0.8,0.4,1.4,1.1,1.4s1-0.6,1-1.4
		C119.2,108.4,118.7,107.7,118.1,107.7z"/>
</g>
<g>
	<rect x="61" y="161" class="st6" width="210" height="3"/>
</g>
<g>
	<g>
		<rect x="11" y="171" class="st7" width="2" height="1"/>
	</g>
	<g>
		<path class="st7" d="M267,172h-2v-1h2V172z M261,172h-4v-1h4V172z M253,172h-4v-1h4V172z M245,172h-4v-1h4V172z M237,172h-4v-1h4
			V172z M229,172h-4v-1h4V172z M221,172h-4v-1h4V172z M213,172h-4v-1h4V172z M205,172h-4v-1h4V172z M197,172h-4v-1h4V172z M189,172
			h-4v-1h4V172z M181,172h-4v-1h4V172z M173,172h-4v-1h4V172z M165,172h-4v-1h4V172z M157,172h-4v-1h4V172z M149,172h-4v-1h4V172z
			 M141,172h-4v-1h4V172z M133,172h-4v-1h4V172z M125,172h-4v-1h4V172z M117,172h-4v-1h4V172z M109,172h-4v-1h4V172z M101,172h-4v-1
			h4V172z M93,172h-4v-1h4V172z M85,172h-4v-1h4V172z M77,172h-4v-1h4V172z M69,172h-4v-1h4V172z M61,172h-4v-1h4V172z M53,172h-4
			v-1h4V172z M45,172h-4v-1h4V172z M37,172h-4v-1h4V172z M29,172h-4v-1h4V172z M21,172h-4v-1h4V172z"/>
	</g>
	<g>
		<rect x="269" y="171" class="st7" width="2" height="1"/>
	</g>
</g>
<g>
	<g>
		<rect x="269" y="211" class="st7" width="2" height="1"/>
	</g>
	<g>
		<path class="st7" d="M265,212h-4v-1h4V212z M257,212h-4v-1h4V212z M249,212h-4v-1h4V212z M241,212h-4v-1h4V212z M233,212h-4v-1h4
			V212z M225,212h-4v-1h4V212z M217,212h-4v-1h4V212z M209,212h-4v-1h4V212z M201,212h-4v-1h4V212z M193,212h-4v-1h4V212z M185,212
			h-4v-1h4V212z M177,212h-4v-1h4V212z M169,212h-4v-1h4V212z M161,212h-4v-1h4V212z M153,212h-4v-1h4V212z M145,212h-4v-1h4V212z
			 M137,212h-4v-1h4V212z M129,212h-4v-1h4V212z M121,212h-4v-1h4V212z M113,212h-4v-1h4V212z M105,212h-4v-1h4V212z M97,212h-4v-1
			h4V212z M89,212h-4v-1h4V212z M81,212h-4v-1h4V212z M73,212h-4v-1h4V212z M65,212h-4v-1h4V212z M57,212h-4v-1h4V212z M49,212h-4
			v-1h4V212z M41,212h-4v-1h4V212z M33,212h-4v-1h4V212z M25,212h-4v-1h4V212z M17,212h-2v-1h2V212z"/>
	</g>
	<g>
		<rect x="11" y="211" class="st7" width="2" height="1"/>
	</g>
</g>
<g>
	<g>
		<rect x="11" y="251" class="st7" width="2" height="1"/>
	</g>
	<g>
		<path class="st7" d="M267,252h-2v-1h2V252z M261,252h-4v-1h4V252z M253,252h-4v-1h4V252z M245,252h-4v-1h4V252z M237,252h-4v-1h4
			V252z M229,252h-4v-1h4V252z M221,252h-4v-1h4V252z M213,252h-4v-1h4V252z M205,252h-4v-1h4V252z M197,252h-4v-1h4V252z M189,252
			h-4v-1h4V252z M181,252h-4v-1h4V252z M173,252h-4v-1h4V252z M165,252h-4v-1h4V252z M157,252h-4v-1h4V252z M149,252h-4v-1h4V252z
			 M141,252h-4v-1h4V252z M133,252h-4v-1h4V252z M125,252h-4v-1h4V252z M117,252h-4v-1h4V252z M109,252h-4v-1h4V252z M101,252h-4v-1
			h4V252z M93,252h-4v-1h4V252z M85,252h-4v-1h4V252z M77,252h-4v-1h4V252z M69,252h-4v-1h4V252z M61,252h-4v-1h4V252z M53,252h-4
			v-1h4V252z M45,252h-4v-1h4V252z M37,252h-4v-1h4V252z M29,252h-4v-1h4V252z M21,252h-4v-1h4V252z"/>
	</g>
	<g>
		<rect x="269" y="251" class="st7" width="2" height="1"/>
	</g>
</g>
<g>
	<g class="st3">
		<path class="st8" d="M15.2,152.5h8.6v1.1l-5.7,11.5h-1.6l5.7-11.3h-6.9v-1.3H15.2z"/>
		<path class="st8" d="M26.4,152.5h7.3v1.3h-6l-0.3,4c0.7-0.3,1.4-0.6,2.5-0.6c2.4,0,4.4,1.5,4.4,3.9c0,2.5-1.9,4.2-4.5,4.2
			c-1.8,0-3.4-0.9-4.5-2l0.9-1c1.1,1.1,2.3,1.7,3.6,1.7c1.8,0,3-1.2,3-2.8s-1.3-2.7-3.1-2.7c-1.1,0-1.9,0.3-2.6,0.7l-1-0.6
			L26.4,152.5z"/>
		<path class="st8" d="M39.1,158.8c-1.7,0-2.8-1.5-2.8-3.2s1.2-3.2,2.9-3.2s2.8,1.5,2.8,3.2C41.9,157.3,40.8,158.8,39.1,158.8z
			 M39.1,153.4c-1,0-1.6,1-1.6,2.2c0,1.3,0.7,2.2,1.7,2.2s1.6-1,1.6-2.2S40,153.4,39.1,153.4z M38.8,165.1h-1.3l9.3-12.6h1.3
			L38.8,165.1z M46.5,165.3c-1.7,0-2.8-1.5-2.8-3.2s1.2-3.2,2.9-3.2s2.8,1.5,2.8,3.2S48.2,165.3,46.5,165.3z M46.5,159.8
			c-1,0-1.6,1-1.6,2.2c0,1.3,0.7,2.2,1.7,2.2s1.6-1,1.6-2.2S47.4,159.8,46.5,159.8z"/>
	</g>
	<g class="st3">
		<path class="st8" d="M16.1,192.5h7.3v1.3h-6l-0.3,4c0.7-0.3,1.4-0.6,2.5-0.6c2.4,0,4.4,1.5,4.4,3.9c0,2.5-1.9,4.2-4.5,4.2
			c-1.8,0-3.4-0.9-4.5-2l0.9-1c1.1,1.1,2.3,1.7,3.6,1.7c1.8,0,3-1.2,3-2.8s-1.3-2.7-3.1-2.7c-1.1,0-1.9,0.3-2.6,0.7l-1-0.6
			L16.1,192.5z"/>
		<path class="st8" d="M31.4,205.4c-3.3,0-5.3-3-5.3-6.5s2.1-6.5,5.3-6.5s5.3,3,5.3,6.5C36.8,202.4,34.7,205.4,31.4,205.4z
			 M31.4,193.6c-2.4,0-3.8,2.4-3.8,5.2s1.5,5.2,3.9,5.2s3.8-2.4,3.8-5.2C35.3,196.1,33.8,193.6,31.4,193.6z"/>
		<path class="st8" d="M41.7,198.8c-1.7,0-2.8-1.5-2.8-3.2s1.2-3.2,2.9-3.2s2.8,1.5,2.8,3.2C44.5,197.3,43.4,198.8,41.7,198.8z
			 M41.7,193.4c-1,0-1.6,1-1.6,2.2c0,1.3,0.7,2.2,1.7,2.2s1.6-1,1.6-2.2C43.3,194.4,42.6,193.4,41.7,193.4z M41.4,205.1h-1.3
			l9.3-12.6h1.3L41.4,205.1z M49.1,205.3c-1.7,0-2.8-1.5-2.8-3.2s1.2-3.2,2.9-3.2s2.8,1.5,2.8,3.2C51.9,203.8,50.8,205.3,49.1,205.3
			z M49.1,199.8c-1,0-1.6,1-1.6,2.2c0,1.3,0.7,2.2,1.7,2.2s1.6-1,1.6-2.2S50,199.8,49.1,199.8z"/>
	</g>
	<g class="st3">
		<path class="st8" d="M16.1,235.8l-1-0.8c1.1-1.7,2.3-2.7,4.5-2.7c2.3,0,3.9,1.5,3.9,3.6c0,1.9-1,3-3.2,4.9l-3.4,3h6.7v1.3h-8.8
			V244l4.6-4c1.9-1.7,2.6-2.7,2.6-4c0-1.5-1.2-2.4-2.5-2.4C18.1,233.6,17.2,234.4,16.1,235.8z"/>
		<path class="st8" d="M26.9,232.5h7.3v1.3h-6l-0.3,4c0.7-0.3,1.4-0.6,2.5-0.6c2.4,0,4.4,1.5,4.4,3.9c0,2.5-1.9,4.2-4.5,4.2
			c-1.8,0-3.4-0.9-4.5-2l0.9-1c1.1,1.1,2.3,1.7,3.6,1.7c1.8,0,3-1.2,3-2.8c0-1.6-1.3-2.7-3.1-2.7c-1.1,0-1.9,0.3-2.6,0.7l-1-0.6
			L26.9,232.5z"/>
		<path class="st8" d="M39.6,238.8c-1.7,0-2.8-1.5-2.8-3.2s1.2-3.2,2.9-3.2s2.8,1.5,2.8,3.2C42.4,237.3,41.3,238.8,39.6,238.8z
			 M39.6,233.4c-1,0-1.6,1-1.6,2.2c0,1.3,0.7,2.2,1.7,2.2s1.6-1,1.6-2.2S40.5,233.4,39.6,233.4z M39.3,245.1H38l9.3-12.6h1.3
			L39.3,245.1z M47,245.3c-1.7,0-2.8-1.5-2.8-3.2s1.2-3.2,2.9-3.2s2.8,1.5,2.8,3.2S48.7,245.3,47,245.3z M47,239.8
			c-1,0-1.6,1-1.6,2.2c0,1.3,0.7,2.2,1.7,2.2s1.6-1,1.6-2.2S47.9,239.8,47,239.8z"/>
	</g>
	<g class="st3">
		<path class="st8" d="M20.4,285.4c-3.3,0-5.3-3-5.3-6.5s2.1-6.5,5.3-6.5s5.3,3,5.3,6.5C25.8,282.4,23.7,285.4,20.4,285.4z
			 M20.4,273.6c-2.4,0-3.8,2.4-3.8,5.2c0,2.8,1.5,5.2,3.9,5.2s3.8-2.4,3.8-5.2C24.3,276.1,22.8,273.6,20.4,273.6z"/>
		<path class="st8" d="M30.7,278.8c-1.7,0-2.8-1.5-2.8-3.2s1.2-3.2,2.9-3.2s2.8,1.5,2.8,3.2C33.5,277.3,32.4,278.8,30.7,278.8z
			 M30.7,273.4c-1,0-1.6,1-1.6,2.2c0,1.3,0.7,2.2,1.7,2.2s1.6-1,1.6-2.2C32.3,274.4,31.6,273.4,30.7,273.4z M30.4,285.1h-1.3
			l9.3-12.6h1.3L30.4,285.1z M38.1,285.3c-1.7,0-2.8-1.5-2.8-3.2s1.2-3.2,2.9-3.2s2.8,1.5,2.8,3.2C40.9,283.8,39.8,285.3,38.1,285.3
			z M38.1,279.8c-1,0-1.6,1-1.6,2.2c0,1.3,0.7,2.2,1.7,2.2s1.6-1,1.6-2.2C39.7,280.8,39,279.8,38.1,279.8z"/>
	</g>
</g>
<g>
	<path class="st1" d="M61,254.2c-0.3,0-0.7-0.1-1-0.3c-0.8-0.5-1-1.6-0.4-2.4c0.1-0.1,9.2-13.1,22-26c17.4-17.4,32.9-26.3,46.1-26.3
		c16.1,0,25.9,8.2,35.3,16.2c9,7.6,17.5,14.8,31.4,14.8c12.2,0,16.8-5.2,22.6-11.9c7.7-8.7,16.4-18.6,44-19.1c0.9,0,1.7,0.7,1.8,1.7
		c0,1-0.7,1.7-1.7,1.8c-26.1,0.5-34.3,9.8-41.5,18c-5.9,6.7-11.5,13-25.2,13c-15.1,0-24.5-8-33.6-15.7c-9.3-7.9-18.2-15.3-33-15.3
		c-29.4,0-64.9,50.3-65.2,50.8C62.1,254,61.5,254.2,61,254.2z"/>
</g>
<path class="st1" d="M33,77c-12.2,0-22,9.8-22,22s9.8,22,22,22s22-9.8,22-22S45.2,77,33,77z M29,108.3l-7.5-7.5l1.9-1.9l5.6,5.6
	l14.1-14.1l1.9,1.9L29,108.3z"/>
<circle class="st1" cx="262" cy="201" r="6"/>
</svg>
