<?xml version="1.0" encoding="utf-8"?>
<!-- Generator: Adobe Illustrator 19.1.0, SVG Export Plug-In . SVG Version: 6.00 Build 0)  -->
<svg version="1.1" id="Layer_1" xmlns="http://www.w3.org/2000/svg" xmlns:xlink="http://www.w3.org/1999/xlink" x="0px" y="0px"
	 viewBox="-309 340 300 320" style="enable-background:new -309 340 300 320;" xml:space="preserve">
<style type="text/css">
	.st0{fill:#EEEEEE;}
	.st1{fill:#7CB342;}
	.st2{fill:none;stroke:#7CB342;stroke-width:2.0952;stroke-miterlimit:10;}
	.st3{opacity:0.87;}
	.st4{fill:#626262;}
	.st5{fill:#626262;enable-background:new    ;}
	.st6{enable-background:new    ;}
</style>
<rect x="-309" y="340" class="st0" width="300" height="72"/>
<g>
	<circle class="st1" cx="-267" cy="376" r="18"/>
	<circle class="st2" cx="-267" cy="376" r="22"/>
	<g>
		<path class="st0" d="M-273.7,382.9h-1.2v-12.6h-1.3v-0.9h0.3c0.8-0.1,1.1-0.4,1.4-0.9l0.2-0.3h0.7v14.7L-273.7,382.9L-273.7,382.9
			z"/>
		<path class="st0" d="M-268.5,383h-0.5c-1.7,0-2.6-0.9-2.6-2.6v-9.8c0-1.7,0.9-2.6,2.6-2.6h0.6c1.7,0,2.6,0.9,2.6,2.6v9.8
			C-265.9,382.2-266.7,383-268.5,383z M-268.5,369.3h-0.5c-0.9,0-1.4,0.4-1.4,1.3v9.9c0,0.9,0.5,1.3,1.4,1.3h0.5
			c0.9,0,1.4-0.4,1.4-1.3v-9.9C-267.1,369.7-267.6,369.3-268.5,369.3z"/>
		<path class="st0" d="M-260.9,383h-0.6c-1.7,0-2.6-0.9-2.6-2.6v-9.8c0-1.7,0.9-2.6,2.6-2.6h0.6c1.7,0,2.6,0.9,2.6,2.6v9.8
			C-258.4,382.2-259.2,383-260.9,383z M-261,369.3h-0.5c-0.9,0-1.4,0.4-1.4,1.3v9.9c0,0.9,0.5,1.3,1.4,1.3h0.5
			c0.9,0,1.4-0.4,1.4-1.3v-9.9C-259.6,369.7-260.1,369.3-261,369.3z"/>
	</g>
</g>
<g class="st3">
	<path class="st4" d="M-218.1,383.1l-1.2-2.8h-5.3l-1.2,2.8h-2.8l5.4-12.7h2.6l5.4,12.7H-218.1z M-221.9,373.8l-1.7,4.1h3.3
		L-221.9,373.8z"/>
	<path class="st4" d="M-207.7,383.1v-1.4c-0.6,0.8-1.4,1.5-2.8,1.5c-2.1,0-3.3-1.4-3.3-3.6v-6.2h2.7v5.4c0,1.3,0.6,2,1.7,2
		c1,0,1.7-0.7,1.7-2v-5.4h2.7v9.7H-207.7z"/>
	<path class="st4" d="M-199.3,383.3c-1.7,0-2.8-0.7-2.8-2.9v-4.6h-1.2v-2.3h1.2V371h2.7v2.5h2.3v2.3h-2.3v4.2c0,0.6,0.3,0.9,0.9,0.9
		c0.5,0,1-0.1,1.4-0.3v2.2C-197.7,383.1-198.3,383.3-199.3,383.3z"/>
	<path class="st4" d="M-190.6,383.4c-3,0-5.2-2.2-5.2-5l0,0c0-2.8,2.2-5,5.2-5s5.2,2.2,5.2,5l0,0
		C-185.3,381.1-187.6,383.4-190.6,383.4z M-188,378.3c0-1.4-1-2.7-2.5-2.7c-1.6,0-2.5,1.2-2.5,2.6l0,0c0,1.4,1,2.7,2.5,2.7
		C-189,381-188,379.8-188,378.3L-188,378.3z"/>
	<path class="st4" d="M-173.2,383.3c-1.9,0-3.8-0.7-5.3-2l1.6-2c1.1,0.9,2.3,1.5,3.8,1.5c1.1,0,1.8-0.5,1.8-1.2l0,0
		c0-0.7-0.4-1.1-2.5-1.6c-2.5-0.6-4.2-1.4-4.2-3.9l0,0c0-2.3,1.8-3.8,4.4-3.8c1.8,0,3.4,0.6,4.7,1.6l-1.4,2.1
		c-1.1-0.8-2.2-1.2-3.3-1.2s-1.6,0.5-1.6,1.1l0,0c0,0.8,0.5,1.1,2.7,1.7c2.6,0.7,4,1.6,4,3.8l0,0
		C-168.6,381.9-170.5,383.3-173.2,383.3z"/>
	<path class="st4" d="M-161.9,383.4c-2.9,0-5-2.2-5-5l0,0c0-2.8,2.1-5,5.1-5c1.8,0,3,0.6,3.9,1.6l-1.7,1.8c-0.6-0.6-1.2-1.1-2.2-1.1
		c-1.4,0-2.3,1.2-2.3,2.6l0,0c0,1.5,1,2.7,2.4,2.7c0.9,0,1.5-0.4,2.2-1l1.6,1.6C-158.9,382.6-160,383.4-161.9,383.4z"/>
	<path class="st4" d="M-150.5,383.1v-1c-0.7,0.7-1.6,1.2-2.9,1.2c-1.8,0-3.3-1-3.3-3l0,0c0-2.1,1.6-3.1,3.9-3.1c1,0,1.7,0.2,2.4,0.4
		v-0.2c0-1.1-0.7-1.8-2.1-1.8c-1,0-1.8,0.2-2.7,0.5l-0.7-2.1c1.1-0.5,2.1-0.8,3.7-0.8c3,0,4.3,1.5,4.3,4.2v5.6L-150.5,383.1
		L-150.5,383.1L-150.5,383.1z M-150.5,379.2c-0.5-0.2-1.1-0.4-1.7-0.4c-1.2,0-1.9,0.5-1.9,1.3l0,0c0,0.7,0.6,1.2,1.5,1.2
		c1.3,0,2.1-0.7,2.1-1.7L-150.5,379.2L-150.5,379.2z"/>
	<path class="st4" d="M-145.4,383.1V370h2.7v13.1H-145.4z"/>
	<path class="st4" d="M-131.1,379.3h-6.7c0.3,1.2,1.1,1.9,2.4,1.9c0.9,0,1.6-0.3,2.3-1l1.6,1.4c-0.9,1.1-2.2,1.8-3.9,1.8
		c-2.9,0-5-2-5-5l0,0c0-2.8,2-5,4.8-5c3.2,0,4.7,2.5,4.7,5.2l0,0C-131.1,378.9-131.1,379-131.1,379.3z M-135.8,375.5
		c-1.1,0-1.9,0.8-2.1,2.1h4.1C-133.9,376.3-134.6,375.5-135.8,375.5z"/>
	<path class="st4" d="M-117.3,383.4c-3.9,0-6.6-2.8-6.6-6.5l0,0c0-3.6,2.8-6.5,6.6-6.5c2.3,0,3.6,0.6,5,1.7l-1.7,2.1
		c-1-0.8-1.8-1.3-3.3-1.3c-2,0-3.6,1.8-3.6,3.9l0,0c0,2.3,1.6,4,3.8,4c1,0,1.9-0.3,2.6-0.8v-1.8h-2.8v-2.4h5.5v5.5
		C-113.2,382.5-115,383.4-117.3,383.4z"/>
	<path class="st4" d="M-103.9,376.2c-1.8,0-2.9,1.1-2.9,3.4v3.6h-2.7v-9.7h2.7v1.9c0.6-1.3,1.5-2.2,3.1-2.1v2.9
		C-103.7,376.2-103.9,376.2-103.9,376.2z"/>
	<path class="st4" d="M-97.5,383.4c-3,0-5.2-2.2-5.2-5l0,0c0-2.8,2.2-5,5.2-5s5.2,2.2,5.2,5l0,0C-92.3,381.1-94.5,383.4-97.5,383.4z
		 M-95,378.3c0-1.4-1-2.7-2.5-2.7c-1.6,0-2.5,1.2-2.5,2.6l0,0c0,1.4,1,2.7,2.5,2.7C-95.9,381-95,379.8-95,378.3L-95,378.3z"/>
	<path class="st4" d="M-84.3,383.1v-1.4c-0.6,0.8-1.4,1.5-2.8,1.5c-2.1,0-3.3-1.4-3.3-3.6v-6.2h2.7v5.4c0,1.3,0.6,2,1.7,2
		s1.7-0.7,1.7-2v-5.4h2.7v9.7H-84.3z"/>
	<path class="st4" d="M-73.4,383.3c-1.5,0-2.4-0.7-3-1.4v4.1h-2.7v-12.5h2.7v1.4c0.7-0.9,1.6-1.6,3-1.6c2.3,0,4.4,1.8,4.4,5l0,0
		C-69,381.6-71.1,383.3-73.4,383.3z M-71.7,378.3c0-1.6-1.1-2.7-2.4-2.7s-2.3,1.1-2.3,2.7l0,0c0,1.6,1.1,2.7,2.3,2.7
		S-71.7,380-71.7,378.3L-71.7,378.3z"/>
</g>
<g>
	<path class="st5" d="M-222.3,552.9c-3.2,0-5.6-2.5-5.6-5.8c0-3.2,2.4-5.8,5.7-5.8c2,0,3.2,0.7,4.4,1.8l-0.9,0.9
		c-0.9-0.9-2-1.5-3.5-1.5c-2.5,0-4.3,2-4.3,4.6s1.9,4.6,4.3,4.6c1.5,0,2.5-0.6,3.6-1.6l0.8,0.8C-219,552.1-220.3,552.9-222.3,552.9z
		"/>
	<path class="st5" d="M-212.2,552.9c-2.5,0-4.3-2-4.3-4.3c0-2.4,1.8-4.3,4.3-4.3s4.3,2,4.3,4.3S-209.7,552.9-212.2,552.9z
		 M-212.2,545.3c-1.8,0-3,1.4-3,3.2s1.3,3.2,3.1,3.2s3-1.4,3-3.2C-209.1,546.8-210.5,545.3-212.2,545.3z"/>
	<path class="st5" d="M-204.4,552.7h-1.2v-8.3h1.2v1.4c0.5-0.9,1.4-1.6,2.8-1.6c2,0,3.2,1.3,3.2,3.3v5.1h-1.2v-4.8
		c0-1.5-0.8-2.5-2.3-2.5c-1.4,0-2.5,1-2.5,2.6V552.7z"/>
	<path class="st5" d="M-194.1,550.3c0,1,0.6,1.4,1.4,1.4c0.4,0,0.8-0.1,1.2-0.3v1.1c-0.4,0.2-0.9,0.4-1.5,0.4
		c-1.3,0-2.3-0.7-2.3-2.3v-5h-1.2v-1.1h1.2V542h1.2v2.5h2.6v1.1h-2.6C-194.1,545.6-194.1,550.3-194.1,550.3z"/>
	<path class="st5" d="M-185.9,551.8c1.1,0,1.9-0.5,2.6-1.2l0.8,0.7c-0.8,0.9-1.8,1.6-3.4,1.6c-2.3,0-4.1-1.7-4.1-4.3
		c0-2.4,1.7-4.3,4-4.3c2.4,0,3.9,2,3.9,4.4c0,0.1,0,0.2,0,0.4h-6.6C-188.6,550.8-187.4,551.8-185.9,551.8z M-183.5,548.1
		c-0.1-1.5-1-2.8-2.6-2.8c-1.4,0-2.5,1.2-2.7,2.8H-183.5z"/>
	<path class="st5" d="M-178.9,552.7h-1.2v-8.3h1.2v1.4c0.5-0.9,1.4-1.6,2.8-1.6c2,0,3.2,1.3,3.2,3.3v5.1h-1.2v-4.8
		c0-1.5-0.8-2.5-2.3-2.5c-1.4,0-2.5,1-2.5,2.6V552.7z"/>
	<path class="st5" d="M-168.6,550.3c0,1,0.6,1.4,1.4,1.4c0.4,0,0.8-0.1,1.2-0.3v1.1c-0.4,0.2-0.9,0.4-1.5,0.4
		c-1.3,0-2.3-0.7-2.3-2.3v-5h-1.2v-1.1h1.2V542h1.2v2.5h2.6v1.1h-2.6L-168.6,550.3L-168.6,550.3z"/>
	<path class="st5" d="M-164.1,548.5v-1.3h4.4v1.3H-164.1z"/>
	<path class="st5" d="M-154.2,552.7h-1.3v-10h-3.8v-1.2h8.8v1.2h-3.8L-154.2,552.7L-154.2,552.7z"/>
	<path class="st5" d="M-145.7,553c-0.7,1.7-1.5,2.3-2.8,2.3c-0.7,0-1.2-0.1-1.8-0.4l0.4-1c0.4,0.2,0.8,0.3,1.3,0.3
		c0.7,0,1.2-0.4,1.7-1.6l-3.8-8.2h1.4l3,6.9l2.7-6.9h1.3L-145.7,553z"/>
	<path class="st5" d="M-135.8,552.9c-1.5,0-2.5-0.8-3.2-1.8v4.1h-1.2v-10.8h1.2v1.7c0.7-1,1.6-1.8,3.2-1.8c2,0,4,1.6,4,4.3
		C-131.9,551.3-133.8,552.9-135.8,552.9z M-136.1,545.3c-1.5,0-3,1.3-3,3.2s1.5,3.2,3,3.2c1.6,0,2.9-1.2,2.9-3.2
		C-133.2,546.6-134.5,545.3-136.1,545.3z"/>
	<path class="st5" d="M-126,551.8c1.1,0,1.9-0.5,2.6-1.2l0.8,0.7c-0.8,0.9-1.8,1.6-3.4,1.6c-2.3,0-4.1-1.7-4.1-4.3
		c0-2.4,1.7-4.3,4-4.3c2.4,0,3.9,2,3.9,4.4c0,0.1,0,0.2,0,0.4h-6.6C-128.7,550.8-127.4,551.8-126,551.8z M-123.6,548.1
		c-0.1-1.5-1-2.8-2.6-2.8c-1.4,0-2.5,1.2-2.7,2.8H-123.6z"/>
	<path class="st5" d="M-220.2,563.8v1.2h-7.4v-1.2H-220.2z M-220.2,567.5v1.2h-7.4v-1.2H-220.2z"/>
	<path class="st5" d="M-207.8,571.9V571c-0.6,0.7-1.4,1.1-2.6,1.1c-1.6,0-2.9-0.9-2.9-2.6l0,0c0-1.9,1.4-2.7,3.5-2.7
		c0.9,0,1.5,0.1,2.1,0.4v-0.1c0-1-0.6-1.6-1.8-1.6c-0.9,0-1.6,0.2-2.4,0.5l-0.6-1.9c0.9-0.4,1.9-0.7,3.3-0.7c2.7,0,3.8,1.4,3.8,3.7
		v5h-2.4L-207.8,571.9L-207.8,571.9z M-207.8,568.4c-0.4-0.2-1-0.3-1.6-0.3c-1,0-1.7,0.4-1.7,1.2l0,0c0,0.7,0.5,1,1.3,1
		c1.1,0,1.9-0.6,1.9-1.5L-207.8,568.4L-207.8,568.4z"/>
	<path class="st5" d="M-198.3,572c-1.3,0-2.1-0.6-2.7-1.3v3.7h-2.4v-11.1h2.4v1.2c0.6-0.8,1.4-1.4,2.7-1.4c2,0,3.9,1.6,3.9,4.4l0,0
		C-194.4,570.5-196.3,572-198.3,572z M-196.8,567.6c0-1.4-1-2.4-2.1-2.4s-2.1,0.9-2.1,2.4l0,0c0,1.4,0.9,2.4,2.1,2.4
		C-197.8,570-196.8,569-196.8,567.6L-196.8,567.6z"/>
	<path class="st5" d="M-187.5,572c-1.3,0-2.1-0.6-2.7-1.3v3.7h-2.4v-11.1h2.4v1.2c0.6-0.8,1.4-1.4,2.7-1.4c2,0,3.9,1.6,3.9,4.4l0,0
		C-183.6,570.5-185.5,572-187.5,572z M-186,567.6c0-1.4-1-2.4-2.1-2.4s-2.1,0.9-2.1,2.4l0,0c0,1.4,0.9,2.4,2.1,2.4
		C-187,570-186,569-186,567.6L-186,567.6z"/>
	<path class="st5" d="M-181.7,571.9v-11.7h2.4v11.7H-181.7z"/>
	<path class="st5" d="M-176.9,562.4v-2.2h2.6v2.2H-176.9z M-176.9,571.9v-8.6h2.4v8.6H-176.9z"/>
	<path class="st5" d="M-168.1,572.1c-2.6,0-4.5-2-4.5-4.4l0,0c0-2.4,1.9-4.5,4.5-4.5c1.6,0,2.6,0.5,3.4,1.4l-1.5,1.6
		c-0.5-0.6-1.1-0.9-2-0.9c-1.2,0-2.1,1.1-2.1,2.3l0,0c0,1.3,0.8,2.4,2.2,2.4c0.8,0,1.4-0.4,2-0.9l1.4,1.4
		C-165.4,571.4-166.4,572.1-168.1,572.1z"/>
	<path class="st5" d="M-158,571.9V571c-0.6,0.7-1.4,1.1-2.6,1.1c-1.6,0-2.9-0.9-2.9-2.6l0,0c0-1.9,1.4-2.7,3.5-2.7
		c0.9,0,1.5,0.1,2.1,0.4v-0.1c0-1-0.6-1.6-1.8-1.6c-0.9,0-1.6,0.2-2.4,0.5l-0.6-1.9c0.9-0.4,1.9-0.7,3.3-0.7c2.7,0,3.8,1.4,3.8,3.7
		v5h-2.4L-158,571.9L-158,571.9z M-157.9,568.4c-0.4-0.2-1-0.3-1.6-0.3c-1,0-1.7,0.4-1.7,1.2l0,0c0,0.7,0.5,1,1.3,1
		c1.1,0,1.9-0.6,1.9-1.5L-157.9,568.4L-157.9,568.4z"/>
	<path class="st5" d="M-150.7,572c-1.5,0-2.5-0.6-2.5-2.6v-4.1h-1v-2.1h1V561h2.4v2.2h2v2.1h-2v3.7c0,0.6,0.2,0.8,0.8,0.8
		c0.4,0,0.8-0.1,1.2-0.3v2C-149.3,571.8-149.9,572-150.7,572z"/>
	<path class="st5" d="M-146.9,562.4v-2.2h2.6v2.2H-146.9z M-146.9,571.9v-8.6h2.4v8.6H-146.9z"/>
	<path class="st5" d="M-137.9,572.1c-2.7,0-4.6-2-4.6-4.4l0,0c0-2.5,2-4.5,4.7-4.5s4.6,2,4.6,4.4l0,0
		C-133.3,570.1-135.3,572.1-137.9,572.1z M-135.7,567.6c0-1.3-0.9-2.4-2.3-2.4s-2.2,1.1-2.2,2.3l0,0c0,1.3,0.9,2.4,2.3,2.4
		C-136.5,570-135.7,568.9-135.7,567.6L-135.7,567.6z"/>
	<path class="st5" d="M-126.1,571.9v-4.8c0-1.2-0.5-1.7-1.5-1.7s-1.5,0.6-1.5,1.7v4.8h-2.4v-8.6h2.4v1.2c0.6-0.7,1.3-1.4,2.5-1.4
		c1.8,0,2.9,1.2,2.9,3.2v5.6H-126.1L-126.1,571.9z"/>
	<path class="st5" d="M-113.9,559.1l-7.1,14.8h-2.1l7.1-14.8H-113.9z"/>
	<path class="st5" d="M-113.3,574.5c-0.4,0-0.7,0-1.1-0.1v-1.9c0.2,0,0.3,0,0.5,0c0.5,0,0.9-0.3,0.9-1v-8.2h2.4v8.4
		C-110.5,573.6-111.5,574.5-113.3,574.5z M-113,562.4v-2.2h2.6v2.2H-113z"/>
	<path class="st5" d="M-105.2,572c-1.2,0-2.5-0.4-3.7-1.3l1-1.6c0.9,0.7,1.9,1,2.7,1c0.7,0,1-0.3,1-0.6l0,0c0-0.5-0.8-0.7-1.8-1
		c-1.2-0.4-2.6-0.9-2.6-2.6l0,0c0-1.7,1.4-2.7,3.1-2.7c1.1,0,2.3,0.4,3.2,1l-0.9,1.7c-0.8-0.5-1.7-0.8-2.3-0.8s-0.9,0.3-0.9,0.6l0,0
		c0,0.5,0.8,0.7,1.7,1c1.2,0.4,2.6,1,2.6,2.5l0,0C-101.9,571.2-103.4,572-105.2,572z"/>
	<path class="st5" d="M-96,572.1c-2.7,0-4.6-2-4.6-4.4l0,0c0-2.5,2-4.5,4.7-4.5s4.6,2,4.6,4.4l0,0C-91.3,570.1-93.3,572.1-96,572.1z
		 M-93.7,567.6c0-1.3-0.9-2.4-2.3-2.4s-2.2,1.1-2.2,2.3l0,0c0,1.3,0.9,2.4,2.3,2.4C-94.6,570-93.7,568.9-93.7,567.6L-93.7,567.6z"/>
	<path class="st5" d="M-84.2,571.9v-4.8c0-1.2-0.5-1.7-1.5-1.7s-1.5,0.6-1.5,1.7v4.8h-2.4v-8.6h2.4v1.2c0.6-0.7,1.3-1.4,2.5-1.4
		c1.8,0,2.9,1.2,2.9,3.2v5.6H-84.2L-84.2,571.9z"/>
</g>
<g>
	<path class="st5" d="M-223.4,436.5c2.5,0.5,3.6,1.5,3.6,3.2c0,1.9-1.6,3.2-3.8,3.2c-1.8,0-3.2-0.6-4.6-1.8l0.8-0.9
		c1.2,1.1,2.3,1.6,3.8,1.6s2.5-0.8,2.5-1.9s-0.6-1.6-2.9-2.1c-2.6-0.6-3.8-1.4-3.8-3.2c0-1.8,1.6-3.1,3.7-3.1c1.6,0,2.8,0.5,3.9,1.4
		l-0.7,1c-1-0.8-2.1-1.2-3.2-1.2c-1.5,0-2.4,0.8-2.4,1.8C-226.4,435.3-225.9,435.9-223.4,436.5z"/>
	<path class="st5" d="M-215.8,440.3c0,1,0.6,1.4,1.4,1.4c0.4,0,0.8-0.1,1.2-0.3v1.1c-0.4,0.2-0.9,0.4-1.5,0.4
		c-1.3,0-2.3-0.7-2.3-2.3v-5h-1.2v-1.1h1.2V432h1.2v2.5h2.6v1.1h-2.6L-215.8,440.3L-215.8,440.3z"/>
	<path class="st5" d="M-210.5,436l-0.4-1c0.9-0.4,1.8-0.7,3-0.7c2.3,0,3.5,1.2,3.5,3.3v5.1h-1.2v-1.2c-0.6,0.8-1.5,1.4-3,1.4
		s-3.1-0.9-3.1-2.6c0-1.8,1.4-2.7,3.5-2.7c1.1,0,1.8,0.1,2.5,0.4v-0.3c0-1.5-0.9-2.3-2.5-2.3C-209,435.4-209.8,435.6-210.5,436z
		 M-210.4,440.2c0,1.1,1,1.7,2.1,1.7c1.5,0,2.8-0.9,2.8-2.2v-0.8c-0.6-0.2-1.4-0.4-2.4-0.4C-209.5,438.5-210.4,439.2-210.4,440.2z"
		/>
	<path class="st5" d="M-200.2,440.3c0,1,0.6,1.4,1.4,1.4c0.4,0,0.8-0.1,1.2-0.3v1.1c-0.4,0.2-0.9,0.4-1.5,0.4
		c-1.3,0-2.3-0.7-2.3-2.3v-5h-1.2v-1.1h1.2V432h1.2v2.5h2.6v1.1h-2.6C-200.2,435.6-200.2,440.3-200.2,440.3z"/>
	<path class="st5" d="M-189.5,434.4h1.2v8.3h-1.2v-1.4c-0.6,0.9-1.4,1.6-2.8,1.6c-2,0-3.2-1.3-3.2-3.3v-5.1h1.2v4.8
		c0,1.5,0.8,2.5,2.3,2.5c1.4,0,2.5-1,2.5-2.6V434.4z"/>
	<path class="st5" d="M-182.8,442.8c-1.2,0-2.5-0.5-3.4-1.2l0.6-0.9c0.9,0.7,1.9,1.1,2.9,1.1s1.7-0.5,1.7-1.3l0,0
		c0-0.8-1-1.2-2.1-1.5c-1.3-0.4-2.7-0.8-2.7-2.3l0,0c0-1.4,1.2-2.4,2.8-2.4c1,0,2.1,0.4,3,0.9l-0.6,0.9c-0.8-0.5-1.6-0.8-2.4-0.8
		c-1,0-1.6,0.5-1.6,1.2l0,0c0,0.8,1,1.1,2.1,1.4c1.3,0.4,2.7,0.9,2.7,2.4l0,0C-179.8,441.9-181.1,442.8-182.8,442.8z"/>
	<path class="st5" d="M-169,442.9c-2.4,0-4.2-2-4.2-4.3c0-2.4,1.8-4.3,4.2-4.3c1.6,0,2.5,0.7,3.3,1.5l-0.8,0.9
		c-0.7-0.7-1.4-1.2-2.5-1.2c-1.7,0-3,1.4-3,3.2c0,1.8,1.3,3.2,3,3.2c1.1,0,1.9-0.5,2.5-1.2l0.8,0.7
		C-166.5,442.2-167.4,442.9-169,442.9z"/>
	<path class="st5" d="M-160.1,442.9c-2.5,0-4.3-2-4.3-4.3c0-2.4,1.8-4.3,4.3-4.3s4.3,2,4.3,4.3
		C-155.7,440.9-157.6,442.9-160.1,442.9z M-160.1,435.3c-1.8,0-3,1.4-3,3.2s1.3,3.2,3.1,3.2s3-1.4,3-3.2
		C-157,436.8-158.3,435.3-160.1,435.3z"/>
	<path class="st5" d="M-146.9,442.7V441c-0.7,1-1.6,1.8-3.2,1.8c-2,0-4-1.6-4-4.3s2-4.3,4-4.3c1.5,0,2.5,0.8,3.2,1.8v-5h1.2v11.7
		H-146.9z M-149.8,435.3c-1.6,0-2.9,1.2-2.9,3.2s1.3,3.2,2.9,3.2c1.5,0,3-1.3,3-3.2S-148.3,435.3-149.8,435.3z"/>
	<path class="st5" d="M-139.2,441.8c1.1,0,1.9-0.5,2.6-1.2l0.8,0.7c-0.8,0.9-1.8,1.6-3.4,1.6c-2.3,0-4.1-1.7-4.1-4.3
		c0-2.4,1.7-4.3,4-4.3c2.4,0,3.9,2,3.9,4.4c0,0.1,0,0.2,0,0.4h-6.6C-142,440.8-140.7,441.8-139.2,441.8z M-136.8,438.1
		c-0.1-1.5-1-2.8-2.6-2.8c-1.4,0-2.5,1.2-2.7,2.8H-136.8z"/>
	<path class="st5" d="M-220.2,453.8v1.2h-7.4v-1.2H-220.2z M-220.2,457.5v1.2h-7.4v-1.2H-220.2z"/>
	<path class="st5" d="M-211.3,454.2l-1.7-1.4c1.1-1.5,2.2-2.3,4.2-2.3c2.4,0,3.9,1.4,3.9,3.5c0,1.9-1,2.8-2.9,4.4l-1.8,1.4h4.9v2.1
		h-8.3v-2l3.7-3.1c1.4-1.2,1.9-1.8,1.9-2.7c0-0.9-0.6-1.5-1.5-1.5C-209.9,452.7-210.5,453.2-211.3,454.2z"/>
	<path class="st5" d="M-198.2,462.1c-3,0-5-2.5-5-5.8s2-5.8,5-5.8s5,2.5,5,5.8C-193.2,459.6-195.2,462.1-198.2,462.1z M-198.2,452.7
		c-1.5,0-2.4,1.5-2.4,3.6s1,3.6,2.5,3.6s2.4-1.5,2.4-3.6S-196.7,452.7-198.2,452.7z"/>
	<path class="st5" d="M-186.5,462.1c-3,0-5-2.5-5-5.8s2-5.8,5-5.8s5,2.5,5,5.8C-181.5,459.6-183.5,462.1-186.5,462.1z M-186.5,452.7
		c-1.5,0-2.4,1.5-2.4,3.6s1,3.6,2.5,3.6s2.4-1.5,2.4-3.6S-185,452.7-186.5,452.7z"/>
</g>
<path class="st1" d="M-267,482c-12.2,0-22,9.8-22,22s9.8,22,22,22s22-9.8,22-22S-254.8,482-267,482z M-271,513.3l-7.5-7.5l1.9-1.9
	l5.6,5.6l14.1-14.1l1.9,1.9L-271,513.3z"/>
<path class="st1" d="M-267,537c-12.2,0-22,9.8-22,22s9.8,22,22,22s22-9.8,22-22S-254.8,537-267,537z M-271,568.3l-7.5-7.5l1.9-1.9
	l5.6,5.6l14.1-14.1l1.9,1.9L-271,568.3z"/>
<path class="st1" d="M-267,427c-12.2,0-22,9.8-22,22s9.8,22,22,22s22-9.8,22-22S-254.8,427-267,427z M-271,458.3l-7.5-7.5l1.9-1.9
	l5.6,5.6l14.1-14.1l1.9,1.9L-271,458.3z"/>
<g>
	<path class="st5" d="M-219.7,607.7l-3.2-4.4h-3.2v4.4h-1.3v-11.2h4.8c2.5,0,4,1.3,4,3.3c0,1.9-1.3,3-3,3.3l3.4,4.6L-219.7,607.7
		L-219.7,607.7z M-222.7,597.6h-3.5v4.5h3.4c1.7,0,2.9-0.9,2.9-2.3C-219.8,598.5-220.9,597.6-222.7,597.6z"/>
	<path class="st5" d="M-212.4,607.9c-2.5,0-4.3-2-4.3-4.3c0-2.4,1.8-4.3,4.3-4.3s4.3,2,4.3,4.3
		C-208.1,605.9-209.9,607.9-212.4,607.9z M-212.4,600.3c-1.8,0-3,1.4-3,3.2s1.3,3.2,3.1,3.2s3-1.4,3-3.2
		C-209.4,601.8-210.7,600.3-212.4,600.3z"/>
	<path class="st5" d="M-200,599.4h1.2v8.3h-1.2v-1.4c-0.6,0.9-1.4,1.6-2.8,1.6c-2,0-3.2-1.3-3.2-3.3v-5.1h1.2v4.8
		c0,1.5,0.8,2.5,2.3,2.5c1.4,0,2.5-1,2.5-2.6V599.4z"/>
	<path class="st5" d="M-194.8,607.7h-1.2v-8.3h1.2v1.4c0.5-0.9,1.4-1.6,2.8-1.6c2,0,3.2,1.3,3.2,3.3v5.1h-1.2v-4.8
		c0-1.5-0.8-2.5-2.3-2.5c-1.4,0-2.5,1-2.5,2.6V607.7z"/>
	<path class="st5" d="M-179.5,607.7V606c-0.7,1-1.6,1.8-3.2,1.8c-2,0-4-1.6-4-4.3s2-4.3,4-4.3c1.5,0,2.5,0.8,3.2,1.8v-5h1.2v11.7
		H-179.5z M-182.5,600.3c-1.6,0-2.9,1.2-2.9,3.2s1.3,3.2,2.9,3.2c1.5,0,3-1.3,3-3.2S-180.9,600.3-182.5,600.3z"/>
	<path class="st5" d="M-175.9,603.5v-1.3h4.4v1.3H-175.9z"/>
	<path class="st5" d="M-167.4,605.3c0,1,0.6,1.4,1.4,1.4c0.4,0,0.8-0.1,1.2-0.3v1.1c-0.4,0.2-0.9,0.4-1.5,0.4
		c-1.3,0-2.3-0.7-2.3-2.3v-5h-1.2v-1.1h1.2V597h1.2v2.5h2.6v1.1h-2.6L-167.4,605.3L-167.4,605.3z"/>
	<path class="st5" d="M-161.3,607.7h-1.2v-8.3h1.2v2.2c0.6-1.4,1.8-2.4,3.4-2.3v1.3h-0.1c-1.8,0-3.3,1.3-3.3,3.8L-161.3,607.7
		L-161.3,607.7z"/>
	<path class="st5" d="M-156,597.6v-1.4h1.4v1.4H-156z M-156,607.7v-8.3h1.2v8.3H-156z"/>
	<path class="st5" d="M-147.5,607.9c-1.5,0-2.5-0.8-3.2-1.8v4.1h-1.2v-10.8h1.2v1.7c0.7-1,1.6-1.8,3.2-1.8c2,0,4,1.6,4,4.3
		C-143.5,606.3-145.5,607.9-147.5,607.9z M-147.7,600.3c-1.5,0-3,1.3-3,3.2s1.5,3.2,3,3.2c1.6,0,2.9-1.2,2.9-3.2
		C-144.8,601.6-146.1,600.3-147.7,600.3z"/>
	<path class="st5" d="M-132,607.7h-1.3v-10h-3.7v-1.2h8.8v1.2h-3.8V607.7z"/>
	<path class="st5" d="M-126.6,597.6v-1.4h1.4v1.4H-126.6z M-126.5,607.7v-8.3h1.2v8.3H-126.5z"/>
	<path class="st5" d="M-112.9,599.2c1.9,0,3.1,1.3,3.1,3.3v5.1h-1.2v-4.8c0-1.6-0.8-2.5-2.1-2.5c-1.2,0-2.3,0.9-2.3,2.6v4.8h-1.2
		v-4.9c0-1.6-0.8-2.5-2.1-2.5s-2.3,1.1-2.3,2.6v4.7h-1.2v-8.3h1.2v1.4c0.5-0.8,1.3-1.6,2.7-1.6c1.3,0,2.2,0.7,2.7,1.6
		C-115.2,600-114.3,599.2-112.9,599.2z"/>
	<path class="st5" d="M-103.5,606.8c1.1,0,1.9-0.5,2.6-1.2l0.8,0.7c-0.8,0.9-1.8,1.6-3.4,1.6c-2.3,0-4.1-1.7-4.1-4.3
		c0-2.4,1.7-4.3,4-4.3c2.4,0,3.9,2,3.9,4.4c0,0.1,0,0.2,0,0.4h-6.6C-106.2,605.8-105,606.8-103.5,606.8z M-101.1,603.1
		c-0.1-1.5-1-2.8-2.6-2.8c-1.4,0-2.5,1.2-2.7,2.8H-101.1z"/>
	<path class="st5" d="M-220.3,617v1.2l-6.2,3l6.2,3v1.2l-7.5-3.7v-1.1L-220.3,617z"/>
	<path class="st5" d="M-211.3,619.2l-1.7-1.4c1.1-1.5,2.2-2.3,4.2-2.3c2.4,0,3.9,1.4,3.9,3.5c0,1.9-1,2.8-2.9,4.4l-1.8,1.4h4.9v2.1
		h-8.3v-2l3.7-3.1c1.4-1.2,1.9-1.8,1.9-2.7s-0.6-1.5-1.5-1.5C-209.9,617.7-210.5,618.2-211.3,619.2z"/>
	<path class="st5" d="M-198.2,627.1c-3,0-5-2.5-5-5.8s2-5.8,5-5.8s5,2.5,5,5.8S-195.2,627.1-198.2,627.1z M-198.2,617.7
		c-1.5,0-2.4,1.5-2.4,3.6s1,3.6,2.5,3.6s2.4-1.5,2.4-3.6S-196.7,617.7-198.2,617.7z"/>
	<path class="st5" d="M-186.5,627.1c-3,0-5-2.5-5-5.8s2-5.8,5-5.8s5,2.5,5,5.8S-183.5,627.1-186.5,627.1z M-186.5,617.7
		c-1.5,0-2.4,1.5-2.4,3.6s1,3.6,2.5,3.6s2.4-1.5,2.4-3.6S-185,617.7-186.5,617.7z"/>
	<path class="st5" d="M-168.9,626.9v-4.8c0-1.2-0.5-1.7-1.4-1.7s-1.5,0.6-1.5,1.7v4.8h-2.4v-4.8c0-1.2-0.5-1.7-1.4-1.7
		s-1.5,0.6-1.5,1.7v4.8h-2.4v-8.6h2.4v1.2c0.6-0.7,1.3-1.4,2.5-1.4c1.1,0,2,0.5,2.4,1.4c0.8-0.9,1.6-1.4,2.8-1.4
		c1.8,0,2.9,1.1,2.9,3.2v5.6H-168.9L-168.9,626.9z"/>
	<path class="st5" d="M-161.3,627c-1.2,0-2.5-0.4-3.7-1.3l1-1.6c0.9,0.7,1.9,1,2.7,1c0.7,0,1-0.3,1-0.6l0,0c0-0.5-0.8-0.7-1.8-1
		c-1.2-0.4-2.6-0.9-2.6-2.6l0,0c0-1.7,1.4-2.7,3.1-2.7c1.1,0,2.3,0.4,3.2,1l-0.9,1.7c-0.8-0.5-1.7-0.8-2.3-0.8s-0.9,0.3-0.9,0.6l0,0
		c0,0.5,0.8,0.7,1.7,1c1.2,0.4,2.6,1,2.6,2.5l0,0C-158.1,626.2-159.5,627-161.3,627z"/>
</g>
<path class="st1" d="M-267,592c-12.2,0-22,9.8-22,22s9.8,22,22,22s22-9.8,22-22S-254.8,592-267,592z M-271,623.3l-7.5-7.5l1.9-1.9
	l5.6,5.6l14.1-14.1l1.9,1.9L-271,623.3z"/>
<g class="st6">
	<path class="st5" d="M-225,497.8c-1.7,0-2.8-0.8-3.5-2l0.9-0.8c0.7,1,1.4,1.6,2.6,1.6c1.3,0,2.2-0.9,2.2-2.7v-7.5h1.3v7.5
		C-221.6,496.5-223,497.8-225,497.8z"/>
	<path class="st5" d="M-214.5,491.5c2.5,0.5,3.6,1.5,3.6,3.2c0,1.9-1.6,3.2-3.8,3.2c-1.8,0-3.2-0.6-4.6-1.8l0.8-0.9
		c1.2,1.1,2.3,1.6,3.8,1.6s2.5-0.8,2.5-1.9c0-1.1-0.6-1.6-2.9-2.1c-2.6-0.6-3.8-1.4-3.8-3.2s1.6-3.1,3.7-3.1c1.6,0,2.8,0.5,3.9,1.4
		l-0.7,1c-1-0.8-2.1-1.2-3.2-1.2c-1.5,0-2.4,0.8-2.4,1.8C-217.6,490.3-217,490.9-214.5,491.5z"/>
	<path class="st5" d="M-203.1,497.9c-3.4,0-5.7-2.7-5.7-5.8s2.3-5.8,5.7-5.8s5.7,2.7,5.7,5.8S-199.7,497.9-203.1,497.9z
		 M-203.1,487.5c-2.6,0-4.4,2-4.4,4.6s1.9,4.6,4.4,4.6c2.6,0,4.4-2,4.4-4.6C-198.7,489.5-200.6,487.5-203.1,487.5z"/>
	<path class="st5" d="M-186.5,486.5h1.2v11.2h-1l-7.2-9.2v9.2h-1.2v-11.2h1.2l7.1,9L-186.5,486.5L-186.5,486.5z"/>
	<path class="st5" d="M-167.7,497.7h-1.6l-4.3-5.4l-2.4,2.4v3h-1.3v-11.2h1.3v6.7l6.4-6.7h1.6l-4.8,4.9L-167.7,497.7z"/>
	<path class="st5" d="M-162.8,496.8c1.1,0,1.9-0.5,2.6-1.2l0.8,0.7c-0.8,0.9-1.8,1.6-3.4,1.6c-2.3,0-4.1-1.7-4.1-4.3
		c0-2.4,1.7-4.3,4-4.3c2.4,0,3.9,2,3.9,4.4c0,0.1,0,0.2,0,0.4h-6.6C-165.6,495.8-164.3,496.8-162.8,496.8z M-160.4,493.1
		c-0.1-1.5-1-2.8-2.6-2.8c-1.4,0-2.5,1.2-2.7,2.8H-160.4z"/>
	<path class="st5" d="M-153.4,498c-0.7,1.7-1.5,2.3-2.8,2.3c-0.7,0-1.2-0.1-1.8-0.4l0.4-1c0.4,0.2,0.8,0.3,1.3,0.3
		c0.7,0,1.2-0.4,1.7-1.6l-3.8-8.2h1.4l3,6.9l2.7-6.9h1.3L-153.4,498z"/>
	<path class="st5" d="M-148,491.1v-1.7h1.5v1.7H-148z M-148,497.7V496h1.5v1.7H-148z"/>
	<path class="st5" d="M-133.7,497.9c-3.2,0-5.6-2.5-5.6-5.8c0-3.2,2.4-5.8,5.7-5.8c2,0,3.2,0.7,4.4,1.8l-0.9,0.9
		c-0.9-0.9-2-1.5-3.5-1.5c-2.5,0-4.3,2-4.3,4.6s1.9,4.6,4.3,4.6c1.5,0,2.5-0.6,3.6-1.6l0.8,0.8
		C-130.4,497.1-131.7,497.9-133.7,497.9z"/>
	<path class="st5" d="M-126,497.7h-1.2V486h1.2v4.8c0.5-0.9,1.4-1.6,2.8-1.6c2,0,3.2,1.3,3.2,3.3v5.1h-1.2v-4.8
		c0-1.5-0.8-2.5-2.3-2.5c-1.4,0-2.5,1-2.5,2.6V497.7z"/>
	<path class="st5" d="M-113.8,496.8c1.1,0,1.9-0.5,2.6-1.2l0.8,0.7c-0.8,0.9-1.8,1.6-3.4,1.6c-2.3,0-4.1-1.7-4.1-4.3
		c0-2.4,1.7-4.3,4-4.3c2.4,0,3.9,2,3.9,4.4c0,0.1,0,0.2,0,0.4h-6.6C-116.5,495.8-115.2,496.8-113.8,496.8z M-111.3,493.1
		c-0.1-1.5-1-2.8-2.6-2.8c-1.4,0-2.5,1.2-2.7,2.8H-111.3z"/>
	<path class="st5" d="M-104.2,497.9c-2.4,0-4.2-2-4.2-4.3c0-2.4,1.8-4.3,4.2-4.3c1.6,0,2.5,0.7,3.3,1.5l-0.8,0.9
		c-0.7-0.7-1.4-1.2-2.5-1.2c-1.7,0-3,1.4-3,3.2s1.3,3.2,3,3.2c1.1,0,1.9-0.5,2.5-1.2l0.8,0.7C-101.7,497.2-102.6,497.9-104.2,497.9z
		"/>
	<path class="st5" d="M-91.4,497.7h-1.5l-3-3.9l-1.7,1.7v2.2h-1.2V486h1.2v8.1l4.5-4.7h1.5l-3.5,3.6L-91.4,497.7z"/>
	<path class="st5" d="M-89.8,497.7V496h1.5v1.7H-89.8z"/>
	<path class="st5" d="M-85.7,487.6v-1.4h1.4v1.4H-85.7z M-85.7,497.7v-8.3h1.2v8.3H-85.7z"/>
	<path class="st5" d="M-80.3,497.7h-1.2v-8.3h1.2v1.4c0.5-0.9,1.4-1.6,2.8-1.6c2,0,3.2,1.3,3.2,3.3v5.1h-1.2v-4.8
		c0-1.5-0.8-2.5-2.3-2.5c-1.4,0-2.5,1-2.5,2.6V497.7z"/>
	<path class="st5" d="M-70,495.3c0,1,0.6,1.4,1.4,1.4c0.4,0,0.8-0.1,1.2-0.3v1.1c-0.4,0.2-0.9,0.4-1.5,0.4c-1.3,0-2.3-0.7-2.3-2.3
		v-5h-1.2v-1.1h1.2V487h1.2v2.5h2.6v1.1H-70L-70,495.3L-70,495.3z"/>
	<path class="st5" d="M-220.3,507v1.2l-6.2,3l6.2,3v1.2l-7.5-3.7v-1.1L-220.3,507z"/>
	<path class="st5" d="M-212.7,507.8v-2.1h7.6v1.9l-2.8,2.7c1.5,0.3,3,1.1,3,3.2c0,2.1-1.5,3.7-4,3.7c-2,0-3.4-0.8-4.4-1.9l1.7-1.6
		c0.8,0.9,1.6,1.3,2.7,1.3c0.9,0,1.6-0.5,1.6-1.4s-0.8-1.4-2.2-1.4h-1l-0.4-1.6l2.7-2.7h-4.5V507.8z"/>
	<path class="st5" d="M-198.2,517.1c-3,0-5-2.5-5-5.8s2-5.8,5-5.8s5,2.5,5,5.8S-195.2,517.1-198.2,517.1z M-198.2,507.7
		c-1.5,0-2.4,1.5-2.4,3.6s1,3.6,2.5,3.6s2.4-1.5,2.4-3.6S-196.7,507.7-198.2,507.7z"/>
	<path class="st5" d="M-188.2,517c-1.2,0-2.5-0.4-3.7-1.3l1-1.6c0.9,0.7,1.9,1,2.7,1c0.7,0,1-0.3,1-0.6l0,0c0-0.5-0.8-0.7-1.8-1
		c-1.2-0.4-2.6-0.9-2.6-2.6l0,0c0-1.7,1.4-2.7,3.1-2.7c1.1,0,2.3,0.4,3.2,1l-0.9,1.7c-0.8-0.5-1.7-0.8-2.3-0.8s-0.9,0.3-0.9,0.6l0,0
		c0,0.5,0.8,0.7,1.7,1c1.2,0.4,2.6,1,2.6,2.5l0,0C-185,516.2-186.4,517-188.2,517z"/>
</g>
</svg>
