<?xml version="1.0" encoding="utf-8"?>
<!-- Generator: Adobe Illustrator 19.1.0, SVG Export Plug-In . SVG Version: 6.00 Build 0)  -->
<svg version="1.1" id="Layer_1" xmlns="http://www.w3.org/2000/svg" xmlns:xlink="http://www.w3.org/1999/xlink" x="0px" y="0px"
	 viewBox="-159 160 300 320" style="enable-background:new -159 160 300 320;" xml:space="preserve">
<style type="text/css">
	.st0{fill:#EEEEEE;}
	.st1{fill:#7CB342;}
	.st2{fill:none;stroke:#7CB342;stroke-width:2.0952;stroke-miterlimit:10;}
	.st3{opacity:0.87;}
	.st4{fill:#626262;}
	.st5{fill:#626262;enable-background:new    ;}
	.st6{opacity:0.87;fill:#626262;enable-background:new    ;}
	.st7{enable-background:new    ;}
</style>
<rect x="-159" y="160" class="st0" width="300" height="72"/>
<g>
	<circle class="st1" cx="-117" cy="196" r="18"/>
	<circle class="st2" cx="-117" cy="196" r="22"/>
	<g>
		<path class="st0" d="M-123.7,202.9h-1.2v-12.6h-1.3v-0.9h0.3c0.8-0.1,1.1-0.4,1.4-0.9l0.2-0.3h0.7v14.7L-123.7,202.9L-123.7,202.9
			z"/>
		<path class="st0" d="M-118.5,203h-0.5c-1.7,0-2.6-0.9-2.6-2.6v-9.8c0-1.7,0.9-2.6,2.6-2.6h0.6c1.7,0,2.6,0.9,2.6,2.6v9.8
			C-115.9,202.2-116.7,203-118.5,203z M-118.5,189.3h-0.5c-0.9,0-1.4,0.4-1.4,1.3v9.9c0,0.9,0.5,1.3,1.4,1.3h0.5
			c0.9,0,1.4-0.4,1.4-1.3v-9.9C-117.1,189.7-117.6,189.3-118.5,189.3z"/>
		<path class="st0" d="M-110.9,203h-0.6c-1.7,0-2.6-0.9-2.6-2.6v-9.8c0-1.7,0.9-2.6,2.6-2.6h0.6c1.7,0,2.6,0.9,2.6,2.6v9.8
			C-108.4,202.2-109.2,203-110.9,203z M-111,189.3h-0.5c-0.9,0-1.4,0.4-1.4,1.3v9.9c0,0.9,0.5,1.3,1.4,1.3h0.5
			c0.9,0,1.4-0.4,1.4-1.3v-9.9C-109.6,189.7-110.1,189.3-111,189.3z"/>
	</g>
</g>
<g class="st3">
	<path class="st4" d="M-71.7,203.1v-5.4c0-1.3-0.6-2-1.7-2c-1,0-1.7,0.7-1.7,2v5.4h-2.7V190h2.8v4.9c0.6-0.8,1.4-1.5,2.8-1.5
		c2.1,0,3.3,1.4,3.3,3.6v6.2h-2.8L-71.7,203.1L-71.7,203.1z"/>
	<path class="st4" d="M-63.3,203.3c-1.7,0-2.8-0.7-2.8-2.9v-4.6h-1.2v-2.3h1.2V191h2.7v2.5h2.3v2.3h-2.3v4.2c0,0.6,0.3,0.9,0.9,0.9
		c0.5,0,1-0.1,1.4-0.3v2.2C-61.7,203.1-62.4,203.3-63.3,203.3z"/>
	<path class="st4" d="M-55.8,203.3c-1.7,0-2.8-0.7-2.8-2.9v-4.6h-1.2v-2.3h1.2V191h2.7v2.5h2.3v2.3h-2.3v4.2c0,0.6,0.3,0.9,0.9,0.9
		c0.5,0,1-0.1,1.4-0.3v2.2C-54.2,203.1-54.9,203.3-55.8,203.3z"/>
	<path class="st4" d="M-45.9,203.3c-1.5,0-2.4-0.7-3-1.4v4.1h-2.7v-12.5h2.7v1.4c0.7-0.9,1.6-1.6,3-1.6c2.3,0,4.4,1.8,4.4,5l0,0
		C-41.5,201.6-43.6,203.3-45.9,203.3z M-44.2,198.3c0-1.6-1.1-2.7-2.4-2.7c-1.3,0-2.3,1.1-2.3,2.7l0,0c0,1.6,1.1,2.7,2.3,2.7
		C-45.3,201-44.2,200-44.2,198.3L-44.2,198.3z"/>
	<path class="st4" d="M-36.1,203.3c-1.4,0-2.9-0.5-4.1-1.5l1.2-1.8c1,0.8,2.1,1.2,3,1.2c0.8,0,1.2-0.3,1.2-0.7l0,0
		c0-0.6-0.9-0.8-2-1.1c-1.4-0.4-2.9-1-2.9-2.9l0,0c0-2,1.6-3.1,3.5-3.1c1.2,0,2.6,0.4,3.6,1.1l-1,1.9c-1-0.6-1.9-0.9-2.6-0.9
		s-1,0.3-1,0.7l0,0c0,0.5,0.9,0.8,2,1.2c1.4,0.5,2.9,1.1,2.9,2.9l0,0C-32.4,202.3-34,203.3-36.1,203.3z"/>
	<path class="st4" d="M-30.5,196.4v-2.9h2.9v2.9H-30.5z M-30.5,203.1v-2.9h2.9v2.9H-30.5z"/>
	<path class="st4" d="M-16.5,188.8l-8,16.7h-2.3l8-16.7H-16.5z"/>
	<path class="st4" d="M-9.9,188.8l-8,16.7h-2.3l8-16.7H-9.9z"/>
	<path class="st4" d="M-5.6,203.4c-3,0-5.2-2.2-5.2-5l0,0c0-2.8,2.2-5,5.2-5s5.2,2.2,5.2,5l0,0C-0.4,201.1-2.6,203.4-5.6,203.4z
		 M-3.1,198.3c0-1.4-1-2.7-2.5-2.7c-1.6,0-2.5,1.2-2.5,2.6l0,0c0,1.4,1,2.7,2.5,2.7C-4,201-3.1,199.8-3.1,198.3L-3.1,198.3z"/>
	<path class="st4" d="M7.3,203.3c-1.5,0-2.4-0.7-3-1.4v4.1H1.6v-12.5h2.7v1.4c0.7-0.9,1.6-1.6,3-1.6c2.2,0,4.4,1.8,4.4,5l0,0
		C11.7,201.6,9.6,203.3,7.3,203.3z M9,198.3c0-1.6-1.1-2.7-2.4-2.7c-1.3,0-2.3,1.1-2.3,2.7l0,0c0,1.6,1.1,2.7,2.3,2.7S9,200,9,198.3
		L9,198.3z"/>
	<path class="st4" d="M17.1,203.3c-1.4,0-2.9-0.5-4.1-1.5l1.2-1.8c1,0.8,2.1,1.2,3,1.2c0.8,0,1.2-0.3,1.2-0.7l0,0
		c0-0.6-0.9-0.8-2-1.1c-1.4-0.4-2.9-1-2.9-2.9l0,0c0-2,1.6-3.1,3.5-3.1c1.2,0,2.6,0.4,3.6,1.1l-1,1.9c-1-0.6-1.9-0.9-2.6-0.9
		s-1,0.3-1,0.7l0,0c0,0.5,0.9,0.8,2,1.2c1.4,0.5,2.9,1.1,2.9,2.9l0,0C20.8,202.3,19.2,203.3,17.1,203.3z"/>
	<path class="st4" d="M31.8,199.3H25c0.3,1.2,1.1,1.9,2.4,1.9c0.9,0,1.6-0.3,2.3-1l1.6,1.4c-0.9,1.1-2.2,1.8-3.9,1.8c-2.9,0-5-2-5-5
		l0,0c0-2.8,2-5,4.8-5c3.2,0,4.7,2.5,4.7,5.2l0,0C31.8,198.9,31.8,199,31.8,199.3z M27.1,195.5c-1.1,0-1.9,0.8-2.1,2.1h4.1
		C29,196.3,28.2,195.5,27.1,195.5z"/>
	<path class="st4" d="M42.8,199.3h-6.7c0.3,1.2,1.1,1.9,2.4,1.9c0.9,0,1.6-0.3,2.3-1l1.6,1.4c-0.9,1.1-2.2,1.8-3.9,1.8
		c-2.9,0-5-2-5-5l0,0c0-2.8,2-5,4.8-5c3.2,0,4.7,2.5,4.7,5.2l0,0C42.8,198.9,42.8,199,42.8,199.3z M38.1,195.5
		c-1.1,0-1.9,0.8-2.1,2.1h4.1C40,196.3,39.3,195.5,38.1,195.5z"/>
	<path class="st4" d="M44.6,203.1v-2.9h2.9v2.9H44.6z"/>
	<path class="st4" d="M54,203.4c-2.9,0-5-2.2-5-5l0,0c0-2.8,2.1-5,5.1-5c1.8,0,3,0.6,3.9,1.6l-1.7,1.8c-0.6-0.6-1.2-1.1-2.2-1.1
		c-1.4,0-2.3,1.2-2.3,2.6l0,0c0,1.5,1,2.7,2.4,2.7c0.9,0,1.5-0.4,2.2-1l1.6,1.6C57,202.6,55.9,203.4,54,203.4z"/>
	<path class="st4" d="M64.2,203.4c-3,0-5.2-2.2-5.2-5l0,0c0-2.8,2.2-5,5.2-5s5.2,2.2,5.2,5l0,0C69.4,201.1,67.2,203.4,64.2,203.4z
		 M66.7,198.3c0-1.4-1-2.7-2.5-2.7c-1.6,0-2.5,1.2-2.5,2.6l0,0c0,1.4,1,2.7,2.5,2.7C65.8,201,66.7,199.8,66.7,198.3L66.7,198.3z"/>
	<path class="st4" d="M83.4,203.1v-5.4c0-1.3-0.6-2-1.6-2s-1.7,0.7-1.7,2v5.4h-2.7v-5.4c0-1.3-0.6-2-1.6-2s-1.7,0.7-1.7,2v5.4h-2.7
		v-9.7h2.7v1.4c0.6-0.8,1.5-1.5,2.8-1.5s2.2,0.6,2.7,1.5c0.8-1,1.9-1.5,3.2-1.5c2,0,3.3,1.2,3.3,3.5v6.3L83.4,203.1L83.4,203.1z"/>
</g>
<g>
	<path class="st5" d="M-69.7,437.7l-3.2-4.4h-3.2v4.4h-1.3v-11.2h4.8c2.5,0,4,1.3,4,3.3c0,1.9-1.3,3-3,3.3l3.4,4.6L-69.7,437.7
		L-69.7,437.7z M-72.7,427.6h-3.5v4.5h3.4c1.7,0,2.9-0.9,2.9-2.3C-69.8,428.5-70.9,427.6-72.7,427.6z"/>
	<path class="st5" d="M-62.4,437.9c-2.5,0-4.3-2-4.3-4.3c0-2.4,1.8-4.3,4.3-4.3s4.3,2,4.3,4.3C-58.1,435.9-59.9,437.9-62.4,437.9z
		 M-62.4,430.3c-1.8,0-3,1.4-3,3.2s1.3,3.2,3.1,3.2s3-1.4,3-3.2C-59.4,431.8-60.7,430.3-62.4,430.3z"/>
	<path class="st5" d="M-50,429.4h1.2v8.3H-50v-1.4c-0.6,0.9-1.4,1.6-2.8,1.6c-2,0-3.2-1.3-3.2-3.3v-5.1h1.2v4.8
		c0,1.5,0.8,2.5,2.3,2.5c1.4,0,2.5-1,2.5-2.6V429.4z"/>
	<path class="st5" d="M-44.8,437.7H-46v-8.3h1.2v1.4c0.5-0.9,1.4-1.6,2.8-1.6c2,0,3.2,1.3,3.2,3.3v5.1H-40v-4.8
		c0-1.5-0.8-2.5-2.3-2.5c-1.4,0-2.5,1-2.5,2.6V437.7z"/>
	<path class="st5" d="M-29.5,437.7V436c-0.7,1-1.6,1.8-3.2,1.8c-2,0-4-1.6-4-4.3s2-4.3,4-4.3c1.5,0,2.5,0.8,3.2,1.8v-5h1.2v11.7
		H-29.5z M-32.5,430.3c-1.6,0-2.9,1.2-2.9,3.2s1.3,3.2,2.9,3.2c1.5,0,3-1.3,3-3.2S-30.9,430.3-32.5,430.3z"/>
	<path class="st6" d="M-25.9,433.5v-1.3h4.4v1.3H-25.9z"/>
	<path class="st5" d="M-17.4,435.3c0,1,0.6,1.4,1.4,1.4c0.4,0,0.8-0.1,1.2-0.3v1.1c-0.4,0.2-0.9,0.4-1.5,0.4c-1.3,0-2.3-0.7-2.3-2.3
		v-5h-1.2v-1.1h1.2V427h1.2v2.5h2.6v1.1h-2.6L-17.4,435.3L-17.4,435.3z"/>
	<path class="st5" d="M-11.3,437.7h-1.2v-8.3h1.2v2.2c0.6-1.4,1.8-2.4,3.4-2.3v1.3H-8c-1.8,0-3.3,1.3-3.3,3.8L-11.3,437.7
		L-11.3,437.7z"/>
	<path class="st5" d="M-6,427.6v-1.4h1.4v1.4H-6z M-6,437.7v-8.3h1.2v8.3H-6z"/>
	<path class="st5" d="M2.5,437.9c-1.5,0-2.5-0.8-3.2-1.8v4.1h-1.2v-10.8h1.2v1.7c0.7-1,1.6-1.8,3.2-1.8c2,0,4,1.6,4,4.3
		C6.5,436.3,4.5,437.9,2.5,437.9z M2.3,430.3c-1.5,0-3,1.3-3,3.2s1.5,3.2,3,3.2c1.6,0,2.9-1.2,2.9-3.2
		C5.2,431.6,3.9,430.3,2.3,430.3z"/>
	<path class="st5" d="M18,437.7h-1.3v-10H13v-1.2h8.8v1.2H18V437.7z"/>
	<path class="st5" d="M23.4,427.6v-1.4h1.4v1.4H23.4z M23.5,437.7v-8.3h1.2v8.3H23.5z"/>
	<path class="st5" d="M37.1,429.2c1.9,0,3.1,1.3,3.1,3.3v5.1H39v-4.8c0-1.6-0.8-2.5-2.1-2.5c-1.2,0-2.3,0.9-2.3,2.6v4.8h-1.2v-4.9
		c0-1.6-0.8-2.5-2.1-2.5s-2.3,1.1-2.3,2.6v4.7h-1.2v-8.3H29v1.4c0.5-0.8,1.3-1.6,2.7-1.6c1.3,0,2.2,0.7,2.7,1.6
		C34.8,430,35.7,429.2,37.1,429.2z"/>
	<path class="st5" d="M46.5,436.8c1.1,0,1.9-0.5,2.6-1.2l0.8,0.7c-0.8,0.9-1.8,1.6-3.4,1.6c-2.3,0-4.1-1.7-4.1-4.3
		c0-2.4,1.7-4.3,4-4.3c2.4,0,3.9,2,3.9,4.4c0,0.1,0,0.2,0,0.4h-6.6C43.8,435.8,45,436.8,46.5,436.8z M48.9,433.1
		c-0.1-1.5-1-2.8-2.6-2.8c-1.4,0-2.5,1.2-2.7,2.8H48.9z"/>
	<path class="st5" d="M-70.3,447v1.2l-6.2,3l6.2,3v1.2l-7.5-3.7v-1.1L-70.3,447z"/>
	<path class="st5" d="M-62.2,445.7h6.9v2.2h-4.8l-0.1,1.9c0.4-0.1,0.8-0.2,1.5-0.2c2.2,0,3.9,1.1,3.9,3.6c0,2.4-1.7,3.9-4.3,3.9
		c-1.8,0-3.1-0.6-4.2-1.7l1.5-1.8c0.8,0.8,1.7,1.2,2.7,1.2c1.2,0,1.9-0.6,1.9-1.6s-0.8-1.5-2-1.5c-0.7,0-1.3,0.2-1.9,0.4l-1.4-0.9
		L-62.2,445.7z"/>
	<path class="st5" d="M-48.1,457.1c-3,0-5-2.5-5-5.8s2-5.8,5-5.8s5,2.5,5,5.8S-45.1,457.1-48.1,457.1z M-48.1,447.7
		c-1.5,0-2.4,1.5-2.4,3.6s1,3.6,2.5,3.6s2.4-1.5,2.4-3.6S-46.6,447.7-48.1,447.7z"/>
	<path class="st5" d="M-36.4,457.1c-3,0-5-2.5-5-5.8s2-5.8,5-5.8s5,2.5,5,5.8S-33.4,457.1-36.4,457.1z M-36.4,447.7
		c-1.5,0-2.4,1.5-2.4,3.6s1,3.6,2.5,3.6s2.4-1.5,2.4-3.6S-34.9,447.7-36.4,447.7z"/>
	<path class="st5" d="M-18.8,456.9v-4.8c0-1.2-0.5-1.7-1.4-1.7s-1.5,0.6-1.5,1.7v4.8h-2.4v-4.8c0-1.2-0.5-1.7-1.4-1.7
		s-1.5,0.6-1.5,1.7v4.8h-2.4v-8.6h2.4v1.2c0.6-0.7,1.3-1.4,2.5-1.4c1.1,0,2,0.5,2.4,1.4c0.8-0.9,1.6-1.4,2.8-1.4
		c1.8,0,2.9,1.1,2.9,3.2v5.6H-18.8L-18.8,456.9z"/>
	<path class="st5" d="M-11.2,457c-1.2,0-2.5-0.4-3.7-1.3l1-1.6c0.9,0.7,1.9,1,2.7,1c0.7,0,1-0.3,1-0.6l0,0c0-0.5-0.8-0.7-1.8-1
		c-1.2-0.4-2.6-0.9-2.6-2.6l0,0c0-1.7,1.4-2.7,3.1-2.7c1.1,0,2.3,0.4,3.2,1l-0.9,1.7c-0.8-0.5-1.7-0.8-2.3-0.8s-0.9,0.3-0.9,0.6l0,0
		c0,0.5,0.8,0.7,1.7,1c1.2,0.4,2.6,1,2.6,2.5l0,0C-7.9,456.2-9.4,457-11.2,457z"/>
</g>
<g>
	<path class="st5" d="M-72.3,382.9c-3.2,0-5.6-2.5-5.6-5.8c0-3.2,2.4-5.8,5.7-5.8c2,0,3.2,0.7,4.4,1.8l-0.9,0.9
		c-0.9-0.9-2-1.5-3.5-1.5c-2.5,0-4.3,2-4.3,4.6s1.9,4.6,4.3,4.6c1.5,0,2.5-0.6,3.6-1.6l0.8,0.8C-69,382.1-70.3,382.9-72.3,382.9z"/>
	<path class="st5" d="M-62.2,382.9c-2.5,0-4.3-2-4.3-4.3c0-2.4,1.8-4.3,4.3-4.3s4.3,2,4.3,4.3S-59.7,382.9-62.2,382.9z M-62.2,375.3
		c-1.8,0-3,1.4-3,3.2s1.3,3.2,3.1,3.2s3-1.4,3-3.2C-59.1,376.8-60.5,375.3-62.2,375.3z"/>
	<path class="st5" d="M-54.4,382.7h-1.2v-8.3h1.2v1.4c0.5-0.9,1.4-1.6,2.8-1.6c2,0,3.2,1.3,3.2,3.3v5.1h-1.2v-4.8
		c0-1.5-0.8-2.5-2.3-2.5c-1.4,0-2.5,1-2.5,2.6V382.7z"/>
	<path class="st5" d="M-44.1,380.3c0,1,0.6,1.4,1.4,1.4c0.4,0,0.8-0.1,1.2-0.3v1.1c-0.4,0.2-0.9,0.4-1.5,0.4c-1.3,0-2.3-0.7-2.3-2.3
		v-5h-1.2v-1.1h1.2V372h1.2v2.5h2.6v1.1h-2.6C-44.1,375.6-44.1,380.3-44.1,380.3z"/>
	<path class="st5" d="M-35.9,381.8c1.1,0,1.9-0.5,2.6-1.2l0.8,0.7c-0.8,0.9-1.8,1.6-3.4,1.6c-2.3,0-4.1-1.7-4.1-4.3
		c0-2.4,1.7-4.3,4-4.3c2.4,0,3.9,2,3.9,4.4c0,0.1,0,0.2,0,0.4h-6.6C-38.6,380.8-37.4,381.8-35.9,381.8z M-33.5,378.1
		c-0.1-1.5-1-2.8-2.6-2.8c-1.4,0-2.5,1.2-2.7,2.8H-33.5z"/>
	<path class="st5" d="M-28.9,382.7h-1.2v-8.3h1.2v1.4c0.5-0.9,1.4-1.6,2.8-1.6c2,0,3.2,1.3,3.2,3.3v5.1h-1.2v-4.8
		c0-1.5-0.8-2.5-2.3-2.5c-1.4,0-2.5,1-2.5,2.6V382.7z"/>
	<path class="st5" d="M-18.6,380.3c0,1,0.6,1.4,1.4,1.4c0.4,0,0.8-0.1,1.2-0.3v1.1c-0.4,0.2-0.9,0.4-1.5,0.4c-1.3,0-2.3-0.7-2.3-2.3
		v-5H-21v-1.1h1.2V372h1.2v2.5h2.6v1.1h-2.6L-18.6,380.3L-18.6,380.3z"/>
	<path class="st5" d="M-14.1,378.5v-1.3h4.4v1.3H-14.1z"/>
	<path class="st5" d="M-4.2,382.7h-1.3v-10h-3.8v-1.2h8.8v1.2h-3.8L-4.2,382.7L-4.2,382.7z"/>
	<path class="st5" d="M4.3,383c-0.7,1.7-1.5,2.3-2.8,2.3c-0.7,0-1.2-0.1-1.8-0.4l0.4-1c0.4,0.2,0.8,0.3,1.3,0.3
		c0.7,0,1.2-0.4,1.7-1.6l-3.8-8.2h1.4l3,6.9l2.7-6.9h1.3L4.3,383z"/>
	<path class="st5" d="M14.2,382.9c-1.5,0-2.5-0.8-3.2-1.8v4.1H9.8v-10.8H11v1.7c0.7-1,1.6-1.8,3.2-1.8c2,0,4,1.6,4,4.3
		C18.1,381.3,16.2,382.9,14.2,382.9z M13.9,375.3c-1.5,0-3,1.3-3,3.2s1.5,3.2,3,3.2c1.6,0,2.9-1.2,2.9-3.2
		C16.8,376.6,15.5,375.3,13.9,375.3z"/>
	<path class="st5" d="M24,381.8c1.1,0,1.9-0.5,2.6-1.2l0.8,0.7c-0.8,0.9-1.8,1.6-3.4,1.6c-2.3,0-4.1-1.7-4.1-4.3
		c0-2.4,1.7-4.3,4-4.3c2.4,0,3.9,2,3.9,4.4c0,0.1,0,0.2,0,0.4h-6.6C21.3,380.8,22.6,381.8,24,381.8z M26.4,378.1
		c-0.1-1.5-1-2.8-2.6-2.8c-1.4,0-2.5,1.2-2.7,2.8H26.4z"/>
	<path class="st5" d="M-70.2,393.8v1.2h-7.4v-1.2H-70.2z M-70.2,397.5v1.2h-7.4v-1.2H-70.2z"/>
	<path class="st5" d="M-60,402c-1.5,0-2.5-0.6-2.5-2.6v-4.1h-1v-2.1h1V391h2.5v2.2h2v2.1h-2v3.7c0,0.6,0.2,0.8,0.8,0.8
		c0.4,0,0.8-0.1,1.2-0.3v2C-58.6,401.8-59.2,402-60,402z"/>
	<path class="st5" d="M-48.5,398.4h-6c0.2,1.1,1,1.7,2.1,1.7c0.8,0,1.4-0.3,2.1-0.9l1.4,1.2c-0.8,1-2,1.6-3.5,1.6
		c-2.6,0-4.5-1.8-4.5-4.4l0,0c0-2.4,1.7-4.5,4.2-4.5c2.9,0,4.2,2.2,4.2,4.7l0,0C-48.5,398.1-48.5,398.2-48.5,398.4z M-52.6,395.1
		c-1,0-1.7,0.7-1.9,1.8h3.7C-51,395.8-51.6,395.1-52.6,395.1z"/>
	<path class="st5" d="M-41.9,401.9l-1.7-2.7l-1.7,2.7h-2.5l3-4.4l-2.9-4.2h2.6l1.6,2.5l1.6-2.5h2.5l-2.9,4.2l3,4.4H-41.9z"/>
	<path class="st5" d="M-34.9,402c-1.5,0-2.5-0.6-2.5-2.6v-4.1h-1v-2.1h1V391h2.4v2.2h2v2.1h-2v3.7c0,0.6,0.2,0.8,0.8,0.8
		c0.4,0,0.8-0.1,1.2-0.3v2C-33.5,401.8-34.1,402-34.9,402z"/>
	<path class="st5" d="M-23.5,389.1l-7.1,14.8h-2.1l7.1-14.8H-23.5z"/>
	<path class="st5" d="M-17.3,401.9v-4.8c0-1.2-0.5-1.7-1.5-1.7s-1.5,0.6-1.5,1.7v4.8h-2.4v-11.7h2.4v4.3c0.6-0.7,1.3-1.4,2.5-1.4
		c1.8,0,2.9,1.2,2.9,3.2v5.6L-17.3,401.9L-17.3,401.9z"/>
	<path class="st5" d="M-9.8,402c-1.5,0-2.5-0.6-2.5-2.6v-4.1h-1v-2.1h1V391h2.4v2.2h2v2.1h-2v3.7c0,0.6,0.2,0.8,0.8,0.8
		c0.4,0,0.8-0.1,1.2-0.3v2C-8.4,401.8-9,402-9.8,402z"/>
	<path class="st5" d="M4.6,401.9v-4.8c0-1.2-0.5-1.7-1.4-1.7s-1.5,0.6-1.5,1.7v4.8h-2.4v-4.8c0-1.2-0.5-1.7-1.4-1.7
		s-1.5,0.6-1.5,1.7v4.8H-6v-8.6h2.4v1.2c0.6-0.7,1.3-1.4,2.5-1.4c1.1,0,2,0.5,2.4,1.4c0.8-0.9,1.6-1.4,2.8-1.4
		c1.8,0,2.9,1.1,2.9,3.2v5.6H4.6L4.6,401.9z"/>
	<path class="st5" d="M9.2,401.9v-11.7h2.4v11.7H9.2z"/>
</g>
<path class="st1" d="M-117,422c-12.2,0-22,9.8-22,22s9.8,22,22,22s22-9.8,22-22S-104.8,422-117,422z M-121,453.3l-7.5-7.5l1.9-1.9
	l5.6,5.6l14.1-14.1l1.9,1.9L-121,453.3z"/>
<g>
	<path class="st5" d="M-73.4,266.5c2.5,0.5,3.6,1.5,3.6,3.2c0,1.9-1.6,3.2-3.8,3.2c-1.8,0-3.2-0.6-4.6-1.8l0.8-0.9
		c1.2,1.1,2.3,1.6,3.8,1.6s2.5-0.8,2.5-1.9s-0.6-1.6-2.9-2.1c-2.6-0.6-3.8-1.4-3.8-3.2c0-1.8,1.6-3.1,3.7-3.1c1.6,0,2.8,0.5,3.9,1.4
		l-0.7,1c-1-0.8-2.1-1.2-3.2-1.2c-1.5,0-2.4,0.8-2.4,1.8C-76.4,265.3-75.9,265.9-73.4,266.5z"/>
	<path class="st5" d="M-65.8,270.3c0,1,0.6,1.4,1.4,1.4c0.4,0,0.8-0.1,1.2-0.3v1.1c-0.4,0.2-0.9,0.4-1.5,0.4c-1.3,0-2.3-0.7-2.3-2.3
		v-5h-1.2v-1.1h1.2V262h1.2v2.5h2.6v1.1h-2.6L-65.8,270.3L-65.8,270.3z"/>
	<path class="st5" d="M-60.5,266l-0.4-1c0.9-0.4,1.8-0.7,3-0.7c2.3,0,3.5,1.2,3.5,3.3v5.1h-1.2v-1.2c-0.6,0.8-1.5,1.4-3,1.4
		s-3.1-0.9-3.1-2.6c0-1.8,1.4-2.7,3.5-2.7c1.1,0,1.8,0.1,2.5,0.4v-0.3c0-1.5-0.9-2.3-2.5-2.3C-59,265.4-59.8,265.6-60.5,266z
		 M-60.4,270.2c0,1.1,1,1.7,2.1,1.7c1.5,0,2.8-0.9,2.8-2.2v-0.8c-0.6-0.2-1.4-0.4-2.4-0.4C-59.5,268.5-60.4,269.2-60.4,270.2z"/>
	<path class="st5" d="M-50.2,270.3c0,1,0.6,1.4,1.4,1.4c0.4,0,0.8-0.1,1.2-0.3v1.1c-0.4,0.2-0.9,0.4-1.5,0.4c-1.3,0-2.3-0.7-2.3-2.3
		v-5h-1.2v-1.1h1.2V262h1.2v2.5h2.6v1.1h-2.6C-50.2,265.6-50.2,270.3-50.2,270.3z"/>
	<path class="st5" d="M-39.5,264.4h1.2v8.3h-1.2v-1.4c-0.6,0.9-1.4,1.6-2.8,1.6c-2,0-3.2-1.3-3.2-3.3v-5.1h1.2v4.8
		c0,1.5,0.8,2.5,2.3,2.5c1.4,0,2.5-1,2.5-2.6V264.4z"/>
	<path class="st5" d="M-32.8,272.8c-1.2,0-2.5-0.5-3.4-1.2l0.6-0.9c0.9,0.7,1.9,1.1,2.9,1.1s1.7-0.5,1.7-1.3l0,0
		c0-0.8-1-1.2-2.1-1.5c-1.3-0.4-2.7-0.8-2.7-2.3l0,0c0-1.4,1.2-2.4,2.8-2.4c1,0,2.1,0.4,3,0.9l-0.6,0.9c-0.8-0.5-1.6-0.8-2.4-0.8
		c-1,0-1.6,0.5-1.6,1.2l0,0c0,0.8,1,1.1,2.1,1.4c1.3,0.4,2.7,0.9,2.7,2.4l0,0C-29.8,271.9-31.1,272.8-32.8,272.8z"/>
	<path class="st5" d="M-19,272.9c-2.4,0-4.2-2-4.2-4.3c0-2.4,1.8-4.3,4.2-4.3c1.6,0,2.5,0.7,3.3,1.5l-0.8,0.9
		c-0.7-0.7-1.4-1.2-2.5-1.2c-1.7,0-3,1.4-3,3.2c0,1.8,1.3,3.2,3,3.2c1.1,0,1.9-0.5,2.5-1.2l0.8,0.7C-16.5,272.2-17.4,272.9-19,272.9
		z"/>
	<path class="st5" d="M-10.1,272.9c-2.5,0-4.3-2-4.3-4.3c0-2.4,1.8-4.3,4.3-4.3s4.3,2,4.3,4.3C-5.7,270.9-7.6,272.9-10.1,272.9z
		 M-10.1,265.3c-1.8,0-3,1.4-3,3.2s1.3,3.2,3.1,3.2s3-1.4,3-3.2C-7,266.8-8.3,265.3-10.1,265.3z"/>
	<path class="st5" d="M3.1,272.7V271c-0.7,1-1.6,1.8-3.2,1.8c-2,0-4-1.6-4-4.3s2-4.3,4-4.3c1.5,0,2.5,0.8,3.2,1.8v-5h1.2v11.7H3.1z
		 M0.2,265.3c-1.6,0-2.9,1.2-2.9,3.2s1.3,3.2,2.9,3.2c1.5,0,3-1.3,3-3.2S1.7,265.3,0.2,265.3z"/>
	<path class="st5" d="M10.8,271.8c1.1,0,1.9-0.5,2.6-1.2l0.8,0.7c-0.8,0.9-1.8,1.6-3.4,1.6c-2.3,0-4.1-1.7-4.1-4.3
		c0-2.4,1.7-4.3,4-4.3c2.4,0,3.9,2,3.9,4.4c0,0.1,0,0.2,0,0.4H8C8,270.8,9.3,271.8,10.8,271.8z M13.2,268.1c-0.1-1.5-1-2.8-2.6-2.8
		c-1.4,0-2.5,1.2-2.7,2.8H13.2z"/>
	<path class="st5" d="M-70.2,283.8v1.2h-7.4v-1.2H-70.2z M-70.2,287.5v1.2h-7.4v-1.2H-70.2z"/>
	<path class="st5" d="M-61.3,284.2l-1.7-1.4c1.1-1.5,2.2-2.3,4.2-2.3c2.4,0,3.9,1.4,3.9,3.5c0,1.9-1,2.8-2.9,4.4l-1.8,1.4h4.9v2.1
		H-63v-2l3.7-3.1c1.4-1.2,1.9-1.8,1.9-2.7c0-0.9-0.6-1.5-1.5-1.5C-59.9,282.7-60.5,283.2-61.3,284.2z"/>
	<path class="st5" d="M-48.2,292.1c-3,0-5-2.5-5-5.8s2-5.8,5-5.8s5,2.5,5,5.8C-43.2,289.6-45.2,292.1-48.2,292.1z M-48.2,282.7
		c-1.5,0-2.4,1.5-2.4,3.6s1,3.6,2.5,3.6s2.4-1.5,2.4-3.6S-46.7,282.7-48.2,282.7z"/>
	<path class="st5" d="M-36.5,292.1c-3,0-5-2.5-5-5.8s2-5.8,5-5.8s5,2.5,5,5.8C-31.5,289.6-33.5,292.1-36.5,292.1z M-36.5,282.7
		c-1.5,0-2.4,1.5-2.4,3.6s1,3.6,2.5,3.6s2.4-1.5,2.4-3.6S-35,282.7-36.5,282.7z"/>
</g>
<path class="st1" d="M-117,257c-12.2,0-22,9.8-22,22s9.8,22,22,22s22-9.8,22-22S-104.8,257-117,257z M-121,288.3l-7.5-7.5l1.9-1.9
	l5.6,5.6l14.1-14.1l1.9,1.9L-121,288.3z"/>
<path class="st1" d="M-117,312c-12.2,0-22,9.8-22,22s9.8,22,22,22s22-9.8,22-22S-104.8,312-117,312z M-121,343.3l-7.5-7.5l1.9-1.9
	l5.6,5.6l14.1-14.1l1.9,1.9L-121,343.3z"/>
<path class="st1" d="M-117,367c-12.2,0-22,9.8-22,22s9.8,22,22,22s22-9.8,22-22S-104.8,367-117,367z M-121,398.3l-7.5-7.5l1.9-1.9
	l5.6,5.6l14.1-14.1l1.9,1.9L-121,398.3z"/>
<g class="st7">
	<path class="st4" d="M-69.7,327.7l-3.2-4.4h-3.2v4.4h-1.3v-11.2h4.8c2.5,0,4,1.3,4,3.3c0,1.9-1.3,3-3,3.3l3.4,4.6L-69.7,327.7
		L-69.7,327.7z M-72.7,317.6h-3.5v4.5h3.4c1.7,0,2.9-0.9,2.9-2.3C-69.8,318.5-70.9,317.6-72.7,317.6z"/>
	<path class="st4" d="M-62.6,326.8c1.1,0,1.9-0.5,2.6-1.2l0.8,0.7c-0.8,0.9-1.8,1.6-3.4,1.6c-2.3,0-4.1-1.7-4.1-4.3
		c0-2.4,1.7-4.3,4-4.3c2.4,0,3.9,2,3.9,4.4c0,0.1,0,0.2,0,0.4h-6.6C-65.3,325.8-64,326.8-62.6,326.8z M-60.1,323.1
		c-0.1-1.5-1-2.8-2.6-2.8c-1.4,0-2.5,1.2-2.7,2.8H-60.1z"/>
	<path class="st4" d="M-54,327.8c-1.2,0-2.5-0.5-3.4-1.2l0.6-0.9c0.9,0.7,1.9,1.1,2.9,1.1s1.7-0.5,1.7-1.3l0,0c0-0.8-1-1.2-2.1-1.5
		c-1.3-0.4-2.7-0.8-2.7-2.3l0,0c0-1.4,1.2-2.4,2.8-2.4c1,0,2.1,0.4,3,0.9l-0.6,0.9c-0.8-0.5-1.6-0.8-2.4-0.8c-1,0-1.6,0.5-1.6,1.2
		l0,0c0,0.8,1,1.1,2.1,1.4c1.3,0.4,2.7,0.9,2.7,2.4l0,0C-51.1,326.9-52.4,327.8-54,327.8z"/>
	<path class="st4" d="M-44.4,327.9c-1.5,0-2.5-0.8-3.2-1.8v4.1h-1.2v-10.8h1.2v1.7c0.7-1,1.6-1.8,3.2-1.8c2,0,4,1.6,4,4.3
		C-40.4,326.3-42.4,327.9-44.4,327.9z M-44.6,320.3c-1.5,0-3,1.3-3,3.2s1.5,3.2,3,3.2c1.6,0,2.9-1.2,2.9-3.2
		C-41.7,321.6-43,320.3-44.6,320.3z"/>
	<path class="st4" d="M-34.4,327.9c-2.5,0-4.3-2-4.3-4.3c0-2.4,1.8-4.3,4.3-4.3s4.3,2,4.3,4.3C-30,325.9-31.9,327.9-34.4,327.9z
		 M-34.4,320.3c-1.8,0-3,1.4-3,3.2s1.3,3.2,3.1,3.2s3-1.4,3-3.2C-31.3,321.8-32.6,320.3-34.4,320.3z"/>
	<path class="st4" d="M-26.6,327.7h-1.2v-8.3h1.2v1.4c0.5-0.9,1.4-1.6,2.8-1.6c2,0,3.2,1.3,3.2,3.3v5.1h-1.2v-4.8
		c0-1.5-0.8-2.5-2.3-2.5c-1.4,0-2.5,1-2.5,2.6V327.7z"/>
	<path class="st4" d="M-15.2,327.8c-1.2,0-2.5-0.5-3.4-1.2l0.6-0.9c0.9,0.7,1.9,1.1,2.9,1.1s1.7-0.5,1.7-1.3l0,0
		c0-0.8-1-1.2-2.1-1.5c-1.3-0.4-2.7-0.8-2.7-2.3l0,0c0-1.4,1.2-2.4,2.8-2.4c1,0,2.1,0.4,3,0.9l-0.6,0.9c-0.8-0.5-1.6-0.8-2.4-0.8
		c-1,0-1.6,0.5-1.6,1.2l0,0c0,0.8,1,1.1,2.1,1.4c1.3,0.4,2.7,0.9,2.7,2.4l0,0C-12.3,326.9-13.6,327.8-15.2,327.8z"/>
	<path class="st4" d="M-6.3,326.8c1.1,0,1.9-0.5,2.6-1.2l0.8,0.7c-0.8,0.9-1.8,1.6-3.4,1.6c-2.3,0-4.1-1.7-4.1-4.3
		c0-2.4,1.7-4.3,4-4.3c2.4,0,3.9,2,3.9,4.4c0,0.1,0,0.2,0,0.4h-6.6C-9.1,325.8-7.8,326.8-6.3,326.8z M-3.9,323.1
		c-0.1-1.5-1-2.8-2.6-2.8c-1.4,0-2.5,1.2-2.7,2.8H-3.9z"/>
	<path class="st4" d="M12.9,319.3c0,1.5-0.9,2.2-1.8,2.6c1.3,0.4,2.4,1.2,2.4,2.7c0,1.9-1.6,3.1-4.1,3.1h-5v-11.2h4.8
		C11.5,316.5,12.9,317.6,12.9,319.3z M11.6,319.5c0-1.1-0.9-1.8-2.5-1.8H5.7v3.9H9C10.6,321.5,11.6,320.8,11.6,319.5z M12.3,324.5
		c0-1.2-1-1.9-3-1.9H5.8v4h3.8C11.2,326.5,12.3,325.8,12.3,324.5z"/>
	<path class="st4" d="M19.6,327.9c-2.5,0-4.3-2-4.3-4.3c0-2.4,1.8-4.3,4.3-4.3s4.3,2,4.3,4.3C23.9,325.9,22.1,327.9,19.6,327.9z
		 M19.6,320.3c-1.8,0-3,1.4-3,3.2s1.3,3.2,3.1,3.2s3-1.4,3-3.2C22.7,321.8,21.4,320.3,19.6,320.3z"/>
	<path class="st4" d="M32.8,327.7V326c-0.7,1-1.6,1.8-3.2,1.8c-2,0-4-1.6-4-4.3s2-4.3,4-4.3c1.5,0,2.5,0.8,3.2,1.8v-5H34v11.7H32.8z
		 M29.9,320.3c-1.6,0-2.9,1.2-2.9,3.2s1.3,3.2,2.9,3.2c1.5,0,3-1.3,3-3.2S31.4,320.3,29.9,320.3z"/>
	<path class="st4" d="M40.8,328c-0.7,1.7-1.5,2.3-2.8,2.3c-0.7,0-1.2-0.1-1.8-0.4l0.4-1c0.4,0.2,0.8,0.3,1.3,0.3
		c0.7,0,1.2-0.4,1.7-1.6l-3.8-8.2h1.4l3,6.9l2.7-6.9h1.3L40.8,328z"/>
	<path class="st4" d="M-77.9,337.4v-2.2h2.6v2.2H-77.9z M-77.8,346.9v-8.6h2.4v8.6H-77.8z"/>
	<path class="st4" d="M-70.1,347c-1.2,0-2.5-0.4-3.7-1.3l1-1.6c0.9,0.7,1.9,1,2.7,1c0.7,0,1-0.3,1-0.6l0,0c0-0.5-0.8-0.7-1.8-1
		c-1.2-0.4-2.6-0.9-2.6-2.6l0,0c0-1.7,1.4-2.7,3.1-2.7c1.1,0,2.3,0.4,3.2,1l-0.9,1.7c-0.8-0.5-1.7-0.8-2.3-0.8s-0.9,0.3-0.9,0.6l0,0
		c0,0.5,0.8,0.7,1.7,1c1.2,0.4,2.6,1,2.6,2.5l0,0C-66.8,346.2-68.2,347-70.1,347z"/>
	<path class="st4" d="M-54.8,346.9v-4.8c0-1.2-0.5-1.7-1.5-1.7s-1.5,0.6-1.5,1.7v4.8h-2.4v-8.6h2.4v1.2c0.6-0.7,1.3-1.4,2.5-1.4
		c1.8,0,2.9,1.2,2.9,3.2v5.6H-54.8z"/>
	<path class="st4" d="M-46.1,347.1c-2.7,0-4.6-2-4.6-4.4l0,0c0-2.5,2-4.5,4.7-4.5s4.6,2,4.6,4.4l0,0
		C-41.4,345.1-43.4,347.1-46.1,347.1z M-43.8,342.6c0-1.3-0.9-2.4-2.3-2.4c-1.4,0-2.2,1.1-2.2,2.3l0,0c0,1.3,0.9,2.4,2.3,2.4
		C-44.6,345-43.8,343.9-43.8,342.6L-43.8,342.6z"/>
	<path class="st4" d="M-36.8,347c-1.5,0-2.5-0.6-2.5-2.6v-4.1h-1v-2.1h1V336h2.4v2.2h2v2.1h-2v3.7c0,0.6,0.2,0.8,0.8,0.8
		c0.4,0,0.8-0.1,1.2-0.3v2C-35.3,346.8-35.9,347-36.8,347z"/>
	<path class="st4" d="M-20.2,343.4h-6c0.2,1.1,1,1.7,2.1,1.7c0.8,0,1.4-0.3,2.1-0.9l1.4,1.2c-0.8,1-2,1.6-3.5,1.6
		c-2.6,0-4.5-1.8-4.5-4.4l0,0c0-2.4,1.7-4.5,4.2-4.5c2.9,0,4.2,2.2,4.2,4.7l0,0C-20.2,343.1-20.2,343.2-20.2,343.4z M-24.4,340.1
		c-1,0-1.7,0.7-1.9,1.8h3.7C-22.7,340.8-23.4,340.1-24.4,340.1z"/>
	<path class="st4" d="M-7.7,346.9v-4.8c0-1.2-0.5-1.7-1.4-1.7s-1.5,0.6-1.5,1.7v4.8H-13v-4.8c0-1.2-0.5-1.7-1.4-1.7
		s-1.5,0.6-1.5,1.7v4.8h-2.4v-8.6h2.4v1.2c0.6-0.7,1.3-1.4,2.5-1.4c1.1,0,2,0.5,2.4,1.4c0.8-0.9,1.6-1.4,2.8-1.4
		c1.8,0,2.9,1.1,2.9,3.2v5.6H-7.7z"/>
	<path class="st4" d="M1.9,347c-1.3,0-2.1-0.6-2.7-1.3v3.7h-2.4v-11.1h2.4v1.2c0.6-0.8,1.4-1.4,2.7-1.4c2,0,3.9,1.6,3.9,4.4l0,0
		C5.8,345.5,3.9,347,1.9,347z M3.4,342.6c0-1.4-1-2.4-2.1-2.4s-2.1,0.9-2.1,2.4l0,0c0,1.4,0.9,2.4,2.1,2.4S3.4,344,3.4,342.6
		L3.4,342.6z"/>
	<path class="st4" d="M10.5,347C9,347,8,346.4,8,344.4v-4.1H7v-2.1h1V336h2.4v2.2h2v2.1h-2v3.7c0,0.6,0.2,0.8,0.8,0.8
		c0.4,0,0.8-0.1,1.2-0.3v2C11.9,346.8,11.3,347,10.5,347z"/>
	<path class="st4" d="M19.1,347.1c-0.7,1.7-1.4,2.4-2.8,2.4c-0.9,0-1.5-0.2-2.2-0.6l0.8-1.8c0.3,0.2,0.7,0.3,1,0.3
		c0.4,0,0.6-0.1,0.8-0.6l-3.4-8.6h2.6l2,5.8l1.9-5.8h2.5L19.1,347.1z"/>
</g>
</svg>
