<?xml version="1.0" encoding="utf-8"?>
<!-- Generator: Adobe Illustrator 19.1.0, SVG Export Plug-In . SVG Version: 6.00 Build 0)  -->
<svg version="1.1" id="Layer_1" xmlns="http://www.w3.org/2000/svg" xmlns:xlink="http://www.w3.org/1999/xlink" x="0px" y="0px"
	 viewBox="0 0 300 360" style="enable-background:new 0 0 300 360;" xml:space="preserve">
<style type="text/css">
	.st0{fill:#303030;}
	.st1{fill:#424242;}
	.st2{fill:#7CB342;}
	.st3{fill:none;stroke:#7CB342;stroke-width:2.0952;stroke-miterlimit:10;}
	.st4{opacity:0.87;}
	.st5{fill:#FFFFFF;}
	.st6{opacity:0.56;}
	.st7{opacity:0.87;fill:#FFFFFF;}
	.st8{opacity:0.56;fill:#FFFFFF;}
</style>
<g>
	<rect class="st0" width="300" height="360"/>
	<rect class="st1" width="300" height="72"/>
	<g>
		<circle class="st2" cx="42" cy="36" r="18"/>
		<circle class="st3" cx="42" cy="36" r="22"/>
		<g>
			<path class="st0" d="M35.3,42.9h-1.2V30.3h-1.3v-0.9l0.3,0c0.8-0.1,1.1-0.4,1.4-0.9l0.2-0.3h0.7V42.9z"/>
			<path class="st0" d="M40.5,43H40c-1.7,0-2.6-0.9-2.6-2.6v-9.8c0-1.7,0.9-2.6,2.6-2.6h0.6c1.7,0,2.6,0.9,2.6,2.6v9.8
				C43.1,42.2,42.3,43,40.5,43z M40.5,29.3H40c-0.9,0-1.4,0.4-1.4,1.3v9.9c0,0.9,0.5,1.3,1.4,1.3h0.5c0.9,0,1.4-0.4,1.4-1.3v-9.9
				C41.9,29.7,41.4,29.3,40.5,29.3z"/>
			<path class="st0" d="M48.1,43h-0.6c-1.7,0-2.6-0.9-2.6-2.6v-9.8c0-1.7,0.9-2.6,2.6-2.6h0.6c1.7,0,2.6,0.9,2.6,2.6v9.8
				C50.6,42.2,49.8,43,48.1,43z M48,29.3h-0.5c-0.9,0-1.4,0.4-1.4,1.3v9.9c0,0.9,0.5,1.3,1.4,1.3H48c0.9,0,1.4-0.4,1.4-1.3v-9.9
				C49.4,29.7,48.9,29.3,48,29.3z"/>
		</g>
	</g>
	<g class="st4">
		<path class="st5" d="M87.3,43.1v-5.4c0-1.3-0.6-2-1.7-2c-1,0-1.7,0.7-1.7,2v5.4h-2.7V30H84v4.9c0.6-0.8,1.4-1.5,2.8-1.5
			c2.1,0,3.3,1.4,3.3,3.6v6.2H87.3z"/>
		<path class="st5" d="M95.7,43.3c-1.7,0-2.8-0.7-2.8-2.9v-4.6h-1.2v-2.3h1.2V31h2.7v2.5h2.3v2.3h-2.3V40c0,0.6,0.3,0.9,0.9,0.9
			c0.5,0,1-0.1,1.4-0.3v2.2C97.3,43.1,96.6,43.3,95.7,43.3z"/>
		<path class="st5" d="M103.2,43.3c-1.7,0-2.8-0.7-2.8-2.9v-4.6h-1.2v-2.3h1.2V31h2.7v2.5h2.3v2.3h-2.3V40c0,0.6,0.3,0.9,0.9,0.9
			c0.5,0,1-0.1,1.4-0.3v2.2C104.8,43.1,104.1,43.3,103.2,43.3z"/>
		<path class="st5" d="M113.1,43.3c-1.5,0-2.4-0.7-3-1.4V46h-2.7V33.5h2.7v1.4c0.7-0.9,1.6-1.6,3-1.6c2.3,0,4.4,1.8,4.4,5v0
			C117.5,41.6,115.4,43.3,113.1,43.3z M114.8,38.3c0-1.6-1.1-2.7-2.4-2.7c-1.3,0-2.3,1.1-2.3,2.7v0c0,1.6,1.1,2.7,2.3,2.7
			C113.7,41,114.8,40,114.8,38.3L114.8,38.3z"/>
		<path class="st5" d="M122.9,43.3c-1.4,0-2.9-0.5-4.1-1.5l1.2-1.8c1,0.8,2.1,1.2,3,1.2c0.8,0,1.2-0.3,1.2-0.7v0
			c0-0.6-0.9-0.8-2-1.1c-1.4-0.4-2.9-1-2.9-2.9v0c0-2,1.6-3.1,3.5-3.1c1.2,0,2.6,0.4,3.6,1.1l-1,1.9c-1-0.6-1.9-0.9-2.6-0.9
			c-0.7,0-1,0.3-1,0.7v0c0,0.5,0.9,0.8,2,1.2c1.4,0.5,2.9,1.1,2.9,2.9v0C126.6,42.3,125,43.3,122.9,43.3z"/>
		<path class="st5" d="M128.5,36.4v-2.9h2.9v2.9H128.5z M128.5,43.1v-2.9h2.9v2.9H128.5z"/>
		<path class="st5" d="M142.5,28.8l-8,16.7h-2.3l8-16.7H142.5z"/>
		<path class="st5" d="M149.1,28.8l-8,16.7h-2.3l8-16.7H149.1z"/>
		<path class="st5" d="M153.4,43.4c-3,0-5.2-2.2-5.2-5v0c0-2.8,2.2-5,5.2-5c3,0,5.2,2.2,5.2,5v0C158.6,41.1,156.4,43.4,153.4,43.4z
			 M155.9,38.3c0-1.4-1-2.7-2.5-2.7c-1.6,0-2.5,1.2-2.5,2.6v0c0,1.4,1,2.7,2.5,2.7C155,41,155.9,39.8,155.9,38.3L155.9,38.3z"/>
		<path class="st5" d="M166.3,43.3c-1.5,0-2.4-0.7-3-1.4V46h-2.7V33.5h2.7v1.4c0.7-0.9,1.6-1.6,3-1.6c2.2,0,4.4,1.8,4.4,5v0
			C170.7,41.6,168.6,43.3,166.3,43.3z M168,38.3c0-1.6-1.1-2.7-2.4-2.7s-2.3,1.1-2.3,2.7v0c0,1.6,1.1,2.7,2.3,2.7S168,40,168,38.3
			L168,38.3z"/>
		<path class="st5" d="M176.1,43.3c-1.4,0-2.9-0.5-4.1-1.5l1.2-1.8c1,0.8,2.1,1.2,3,1.2c0.8,0,1.2-0.3,1.2-0.7v0
			c0-0.6-0.9-0.8-2-1.1c-1.4-0.4-2.9-1-2.9-2.9v0c0-2,1.6-3.1,3.5-3.1c1.2,0,2.6,0.4,3.6,1.1l-1,1.9c-1-0.6-1.9-0.9-2.6-0.9
			c-0.7,0-1,0.3-1,0.7v0c0,0.5,0.9,0.8,2,1.2c1.4,0.5,2.9,1.1,2.9,2.9v0C179.8,42.3,178.2,43.3,176.1,43.3z"/>
		<path class="st5" d="M190.8,39.3H184c0.3,1.2,1.1,1.9,2.4,1.9c0.9,0,1.6-0.3,2.3-1l1.6,1.4c-0.9,1.1-2.2,1.8-3.9,1.8
			c-2.9,0-5-2-5-5v0c0-2.8,2-5,4.8-5c3.2,0,4.7,2.5,4.7,5.2v0C190.8,38.9,190.8,39,190.8,39.3z M186.1,35.5c-1.1,0-1.9,0.8-2.1,2.1
			h4.1C188,36.3,187.2,35.5,186.1,35.5z"/>
		<path class="st5" d="M201.8,39.3h-6.7c0.3,1.2,1.1,1.9,2.4,1.9c0.9,0,1.6-0.3,2.3-1l1.6,1.4c-0.9,1.1-2.2,1.8-3.9,1.8
			c-2.9,0-5-2-5-5v0c0-2.8,2-5,4.8-5c3.2,0,4.7,2.5,4.7,5.2v0C201.8,38.9,201.8,39,201.8,39.3z M197.1,35.5c-1.1,0-1.9,0.8-2.1,2.1
			h4.1C199,36.3,198.3,35.5,197.1,35.5z"/>
		<path class="st5" d="M203.6,43.1v-2.9h2.9v2.9H203.6z"/>
		<path class="st5" d="M213,43.4c-2.9,0-5-2.2-5-5v0c0-2.8,2.1-5,5.1-5c1.8,0,3,0.6,3.9,1.6l-1.7,1.8c-0.6-0.6-1.2-1.1-2.2-1.1
			c-1.4,0-2.3,1.2-2.3,2.6v0c0,1.5,1,2.7,2.4,2.7c0.9,0,1.5-0.4,2.2-1l1.6,1.6C216,42.6,214.9,43.4,213,43.4z"/>
		<path class="st5" d="M223.2,43.4c-3,0-5.2-2.2-5.2-5v0c0-2.8,2.2-5,5.2-5c3,0,5.2,2.2,5.2,5v0C228.4,41.1,226.2,43.4,223.2,43.4z
			 M225.7,38.3c0-1.4-1-2.7-2.5-2.7c-1.6,0-2.5,1.2-2.5,2.6v0c0,1.4,1,2.7,2.5,2.7C224.8,41,225.7,39.8,225.7,38.3L225.7,38.3z"/>
		<path class="st5" d="M242.4,43.1v-5.4c0-1.3-0.6-2-1.6-2s-1.7,0.7-1.7,2v5.4h-2.7v-5.4c0-1.3-0.6-2-1.6-2c-1,0-1.7,0.7-1.7,2v5.4
			h-2.7v-9.7h2.7v1.4c0.6-0.8,1.5-1.5,2.8-1.5c1.3,0,2.2,0.6,2.7,1.5c0.8-1,1.9-1.5,3.2-1.5c2,0,3.3,1.2,3.3,3.5v6.3H242.4z"/>
	</g>
	<g class="st6">
		<path class="st5" d="M30.9,100.1l-1.2-2.8h-5.3l-1.2,2.8h-2.8l5.4-12.7h2.6l5.4,12.7H30.9z M27.1,90.8l-1.7,4.1h3.3L27.1,90.8z"/>
		<path class="st5" d="M38.8,100.3c-1.4,0-2.9-0.5-4.1-1.5l1.2-1.8c1,0.8,2.1,1.2,3,1.2c0.8,0,1.2-0.3,1.2-0.7v0
			c0-0.6-0.9-0.8-2-1.1c-1.4-0.4-2.9-1-2.9-2.9v0c0-2,1.6-3.1,3.5-3.1c1.2,0,2.6,0.4,3.6,1.1l-1,1.9c-1-0.6-1.9-0.9-2.6-0.9
			c-0.7,0-1,0.3-1,0.7v0c0,0.5,0.9,0.8,2,1.2c1.4,0.5,2.9,1.1,2.9,2.9v0C42.5,99.3,40.9,100.3,38.8,100.3z"/>
		<path class="st5" d="M47.7,100.3c-1.4,0-2.9-0.5-4.1-1.5l1.2-1.8c1,0.8,2.1,1.2,3,1.2c0.8,0,1.2-0.3,1.2-0.7v0
			c0-0.6-0.9-0.8-2-1.1c-1.4-0.4-2.9-1-2.9-2.9v0c0-2,1.6-3.1,3.5-3.1c1.2,0,2.6,0.4,3.6,1.1l-1,1.9c-1-0.6-1.9-0.9-2.6-0.9
			c-0.7,0-1,0.3-1,0.7v0c0,0.5,0.9,0.8,2,1.2c1.4,0.5,2.9,1.1,2.9,2.9v0C51.4,99.3,49.8,100.3,47.7,100.3z"/>
		<path class="st5" d="M62.3,96.3h-6.7c0.3,1.2,1.1,1.9,2.4,1.9c0.9,0,1.6-0.3,2.3-1l1.6,1.4c-0.9,1.1-2.2,1.8-3.9,1.8
			c-2.9,0-5-2-5-5v0c0-2.8,2-5,4.8-5c3.2,0,4.7,2.5,4.7,5.2v0C62.3,95.9,62.3,96,62.3,96.3z M57.6,92.5c-1.1,0-1.9,0.8-2.1,2.1h4.1
			C59.5,93.3,58.8,92.5,57.6,92.5z"/>
		<path class="st5" d="M70,93.2c-1.8,0-2.9,1.1-2.9,3.4v3.6h-2.7v-9.7h2.7v1.9c0.6-1.3,1.5-2.2,3.1-2.1v2.9H70z"/>
		<path class="st5" d="M75.2,100.3c-1.7,0-2.8-0.7-2.8-2.9v-4.6h-1.2v-2.3h1.2V88h2.7v2.5h2.3v2.3h-2.3V97c0,0.6,0.3,0.9,0.9,0.9
			c0.5,0,1-0.1,1.4-0.3v2.2C76.7,100.1,76.1,100.3,75.2,100.3z"/>
		<path class="st5" d="M79.4,89.4V87h2.9v2.4H79.4z M79.5,100.1v-9.7h2.7v9.7H79.5z"/>
		<path class="st5" d="M89.5,100.4c-3,0-5.2-2.2-5.2-5v0c0-2.8,2.2-5,5.2-5c3,0,5.2,2.2,5.2,5v0C94.8,98.1,92.5,100.4,89.5,100.4z
			 M92.1,95.3c0-1.4-1-2.7-2.5-2.7c-1.6,0-2.5,1.2-2.5,2.6v0c0,1.4,1,2.7,2.5,2.7C91.1,98,92.1,96.8,92.1,95.3L92.1,95.3z"/>
		<path class="st5" d="M102.9,100.1v-5.4c0-1.3-0.6-2-1.7-2c-1,0-1.7,0.7-1.7,2v5.4h-2.7v-9.7h2.7v1.4c0.6-0.8,1.4-1.5,2.8-1.5
			c2.1,0,3.3,1.4,3.3,3.6v6.2H102.9z"/>
		<path class="st5" d="M111.4,100.3c-1.4,0-2.9-0.5-4.1-1.5l1.2-1.8c1,0.8,2.1,1.2,3,1.2c0.8,0,1.2-0.3,1.2-0.7v0
			c0-0.6-0.9-0.8-2-1.1c-1.4-0.4-2.9-1-2.9-2.9v0c0-2,1.6-3.1,3.5-3.1c1.2,0,2.6,0.4,3.6,1.1l-1,1.9c-1-0.6-1.9-0.9-2.6-0.9
			c-0.7,0-1,0.3-1,0.7v0c0,0.5,0.9,0.8,2,1.2c1.4,0.5,2.9,1.1,2.9,2.9v0C115,99.3,113.4,100.3,111.4,100.3z"/>
	</g>
	<g class="st4">
		<path class="st7" d="M89.3,312.7l-3.2-4.4h-3.2v4.4h-1.3v-11.2h4.8c2.5,0,4,1.3,4,3.3c0,1.9-1.3,3-3,3.3l3.4,4.6H89.3z
			 M86.3,302.6h-3.5v4.5h3.4c1.7,0,2.9-0.9,2.9-2.3C89.2,303.5,88.1,302.6,86.3,302.6z"/>
		<path class="st7" d="M96.6,312.9c-2.5,0-4.3-2-4.3-4.3c0-2.4,1.8-4.3,4.3-4.3c2.5,0,4.3,2,4.3,4.3
			C100.9,310.9,99.1,312.9,96.6,312.9z M96.6,305.3c-1.8,0-3,1.4-3,3.2s1.3,3.2,3.1,3.2c1.8,0,3-1.4,3-3.2
			C99.6,306.8,98.3,305.3,96.6,305.3z"/>
		<path class="st7" d="M109,304.4h1.2v8.3H109v-1.4c-0.6,0.9-1.4,1.6-2.8,1.6c-2,0-3.2-1.3-3.2-3.3v-5.1h1.2v4.8
			c0,1.5,0.8,2.5,2.3,2.5c1.4,0,2.5-1,2.5-2.6V304.4z"/>
		<path class="st7" d="M114.2,312.7H113v-8.3h1.2v1.4c0.5-0.9,1.4-1.6,2.8-1.6c2,0,3.2,1.3,3.2,3.3v5.1H119v-4.8
			c0-1.5-0.8-2.5-2.3-2.5c-1.4,0-2.5,1-2.5,2.6V312.7z"/>
		<path class="st7" d="M129.5,312.7V311c-0.7,1-1.6,1.8-3.2,1.8c-2,0-4-1.6-4-4.3c0-2.7,2-4.3,4-4.3c1.5,0,2.5,0.8,3.2,1.8v-5h1.2
			v11.7H129.5z M126.5,305.3c-1.6,0-2.9,1.2-2.9,3.2c0,2,1.3,3.2,2.9,3.2c1.5,0,3-1.3,3-3.2C129.5,306.6,128.1,305.3,126.5,305.3z"
			/>
		<path class="st7" d="M133.1,308.5v-1.3h4.4v1.3H133.1z"/>
		<path class="st7" d="M141.6,310.3c0,1,0.6,1.4,1.4,1.4c0.4,0,0.8-0.1,1.2-0.3v1.1c-0.4,0.2-0.9,0.4-1.5,0.4
			c-1.3,0-2.3-0.7-2.3-2.3v-5h-1.2v-1.1h1.2v-2.5h1.2v2.5h2.6v1.1h-2.6V310.3z"/>
		<path class="st7" d="M147.7,312.7h-1.2v-8.3h1.2v2.2c0.6-1.4,1.8-2.4,3.4-2.3v1.3H151c-1.8,0-3.3,1.3-3.3,3.8V312.7z"/>
		<path class="st7" d="M153,302.6v-1.4h1.4v1.4H153z M153,312.7v-8.3h1.2v8.3H153z"/>
		<path class="st7" d="M161.5,312.9c-1.5,0-2.5-0.8-3.2-1.8v4.1h-1.2v-10.8h1.2v1.7c0.7-1,1.6-1.8,3.2-1.8c2,0,4,1.6,4,4.3
			C165.5,311.3,163.5,312.9,161.5,312.9z M161.3,305.3c-1.5,0-3,1.3-3,3.2c0,1.9,1.5,3.2,3,3.2c1.6,0,2.9-1.2,2.9-3.2
			C164.2,306.6,162.9,305.3,161.3,305.3z"/>
		<path class="st7" d="M177,312.7h-1.3v-10H172v-1.2h8.8v1.2H177V312.7z"/>
		<path class="st7" d="M182.4,302.6v-1.4h1.4v1.4H182.4z M182.5,312.7v-8.3h1.2v8.3H182.5z"/>
		<path class="st7" d="M196.1,304.2c1.9,0,3.1,1.3,3.1,3.3v5.1h-1.2v-4.8c0-1.6-0.8-2.5-2.1-2.5c-1.2,0-2.3,0.9-2.3,2.6v4.8h-1.2
			v-4.9c0-1.6-0.8-2.5-2.1-2.5s-2.3,1.1-2.3,2.6v4.7h-1.2v-8.3h1.2v1.4c0.5-0.8,1.3-1.6,2.7-1.6c1.3,0,2.2,0.7,2.7,1.6
			C193.8,305,194.7,304.2,196.1,304.2z"/>
		<path class="st7" d="M205.5,311.8c1.1,0,1.9-0.5,2.6-1.2l0.8,0.7c-0.8,0.9-1.8,1.6-3.4,1.6c-2.3,0-4.1-1.7-4.1-4.3
			c0-2.4,1.7-4.3,4-4.3c2.4,0,3.9,2,3.9,4.4c0,0.1,0,0.2,0,0.4h-6.6C202.8,310.8,204,311.8,205.5,311.8z M207.9,308.1
			c-0.1-1.5-1-2.8-2.6-2.8c-1.4,0-2.5,1.2-2.7,2.8H207.9z"/>
		<path class="st8" d="M88.7,322v1.2l-6.2,3l6.2,3v1.2l-7.5-3.7v-1.1L88.7,322z"/>
		<path class="st7" d="M96.8,320.7h6.9v2.2h-4.8l-0.1,1.9c0.4-0.1,0.8-0.2,1.5-0.2c2.2,0,3.9,1.1,3.9,3.6c0,2.4-1.7,3.9-4.3,3.9
			c-1.8,0-3.1-0.6-4.2-1.7l1.5-1.8c0.8,0.8,1.7,1.2,2.7,1.2c1.2,0,1.9-0.6,1.9-1.6c0-1-0.8-1.5-2-1.5c-0.7,0-1.3,0.2-1.9,0.4
			l-1.4-0.9L96.8,320.7z"/>
		<path class="st7" d="M110.9,332.1c-3,0-5-2.5-5-5.8c0-3.3,2-5.8,5-5.8s5,2.5,5,5.8S113.9,332.1,110.9,332.1z M110.9,322.7
			c-1.5,0-2.4,1.5-2.4,3.6s1,3.6,2.5,3.6s2.4-1.5,2.4-3.6S112.4,322.7,110.9,322.7z"/>
		<path class="st7" d="M122.6,332.1c-3,0-5-2.5-5-5.8c0-3.3,2-5.8,5-5.8s5,2.5,5,5.8S125.6,332.1,122.6,332.1z M122.6,322.7
			c-1.5,0-2.4,1.5-2.4,3.6s1,3.6,2.5,3.6s2.4-1.5,2.4-3.6S124.1,322.7,122.6,322.7z"/>
		<path class="st7" d="M140.2,331.9v-4.8c0-1.2-0.5-1.7-1.4-1.7c-0.9,0-1.5,0.6-1.5,1.7v4.8h-2.4v-4.8c0-1.2-0.5-1.7-1.4-1.7
			c-0.9,0-1.5,0.6-1.5,1.7v4.8h-2.4v-8.6h2.4v1.2c0.6-0.7,1.3-1.4,2.5-1.4c1.1,0,2,0.5,2.4,1.4c0.8-0.9,1.6-1.4,2.8-1.4
			c1.8,0,2.9,1.1,2.9,3.2v5.6H140.2z"/>
		<path class="st7" d="M147.8,332c-1.2,0-2.5-0.4-3.7-1.3l1-1.6c0.9,0.7,1.9,1,2.7,1c0.7,0,1-0.3,1-0.6v0c0-0.5-0.8-0.7-1.8-1
			c-1.2-0.4-2.6-0.9-2.6-2.6v0c0-1.7,1.4-2.7,3.1-2.7c1.1,0,2.3,0.4,3.2,1l-0.9,1.7c-0.8-0.5-1.7-0.8-2.3-0.8
			c-0.6,0-0.9,0.3-0.9,0.6v0c0,0.5,0.8,0.7,1.7,1c1.2,0.4,2.6,1,2.6,2.5v0C151.1,331.2,149.6,332,147.8,332z"/>
	</g>
	<g class="st4">
		<path class="st7" d="M84,192.8c-1.7,0-2.8-0.8-3.5-2l0.9-0.8c0.7,1,1.4,1.6,2.6,1.6c1.3,0,2.2-0.9,2.2-2.7v-7.5h1.3v7.5
			C87.4,191.5,86,192.8,84,192.8z"/>
		<path class="st7" d="M94.4,186.5c2.5,0.5,3.6,1.5,3.6,3.2c0,1.9-1.6,3.2-3.8,3.2c-1.8,0-3.2-0.6-4.6-1.8l0.8-0.9
			c1.2,1.1,2.3,1.6,3.8,1.6c1.5,0,2.5-0.8,2.5-1.9c0-1.1-0.6-1.6-2.9-2.1c-2.6-0.6-3.8-1.4-3.8-3.2c0-1.8,1.6-3.1,3.7-3.1
			c1.6,0,2.8,0.5,3.9,1.4l-0.7,1c-1-0.8-2.1-1.2-3.2-1.2c-1.5,0-2.4,0.8-2.4,1.8C91.4,185.3,92,185.9,94.4,186.5z"/>
		<path class="st7" d="M105.9,192.9c-3.4,0-5.7-2.7-5.7-5.8c0-3.1,2.3-5.8,5.7-5.8c3.4,0,5.7,2.7,5.7,5.8S109.3,192.9,105.9,192.9z
			 M105.9,182.5c-2.6,0-4.4,2-4.4,4.6c0,2.6,1.9,4.6,4.4,4.6s4.4-2,4.4-4.6C110.3,184.5,108.4,182.5,105.9,182.5z"/>
		<path class="st7" d="M122.5,181.5h1.2v11.2h-1l-7.2-9.2v9.2h-1.2v-11.2h1.2l7.1,9V181.5z"/>
		<path class="st7" d="M141.3,192.7h-1.6l-4.3-5.4l-2.4,2.4v3h-1.3v-11.2h1.3v6.7l6.4-6.7h1.6l-4.8,4.9L141.3,192.7z"/>
		<path class="st7" d="M146.2,191.8c1.1,0,1.9-0.5,2.6-1.2l0.8,0.7c-0.8,0.9-1.8,1.6-3.4,1.6c-2.3,0-4.1-1.7-4.1-4.3
			c0-2.4,1.7-4.3,4-4.3c2.4,0,3.9,2,3.9,4.4c0,0.1,0,0.2,0,0.4h-6.6C143.4,190.8,144.7,191.8,146.2,191.8z M148.6,188.1
			c-0.1-1.5-1-2.8-2.6-2.8c-1.4,0-2.5,1.2-2.7,2.8H148.6z"/>
		<path class="st7" d="M155.6,193c-0.7,1.7-1.5,2.3-2.8,2.3c-0.7,0-1.2-0.1-1.8-0.4l0.4-1c0.4,0.2,0.8,0.3,1.3,0.3
			c0.7,0,1.2-0.4,1.7-1.6l-3.8-8.2h1.4l3,6.9l2.7-6.9h1.3L155.6,193z"/>
		<path class="st7" d="M161,186.1v-1.7h1.5v1.7H161z M161,192.7V191h1.5v1.7H161z"/>
		<path class="st7" d="M175.3,192.9c-3.2,0-5.6-2.5-5.6-5.8c0-3.2,2.4-5.8,5.7-5.8c2,0,3.2,0.7,4.4,1.8l-0.9,0.9
			c-0.9-0.9-2-1.5-3.5-1.5c-2.5,0-4.3,2-4.3,4.6s1.9,4.6,4.3,4.6c1.5,0,2.5-0.6,3.6-1.6l0.8,0.8
			C178.6,192.1,177.3,192.9,175.3,192.9z"/>
		<path class="st7" d="M183,192.7h-1.2V181h1.2v4.8c0.5-0.9,1.4-1.6,2.8-1.6c2,0,3.2,1.3,3.2,3.3v5.1h-1.2v-4.8
			c0-1.5-0.8-2.5-2.3-2.5c-1.4,0-2.5,1-2.5,2.6V192.7z"/>
		<path class="st7" d="M195.2,191.8c1.1,0,1.9-0.5,2.6-1.2l0.8,0.7c-0.8,0.9-1.8,1.6-3.4,1.6c-2.3,0-4.1-1.7-4.1-4.3
			c0-2.4,1.7-4.3,4-4.3c2.4,0,3.9,2,3.9,4.4c0,0.1,0,0.2,0,0.4h-6.6C192.5,190.8,193.8,191.8,195.2,191.8z M197.7,188.1
			c-0.1-1.5-1-2.8-2.6-2.8c-1.4,0-2.5,1.2-2.7,2.8H197.7z"/>
		<path class="st7" d="M204.8,192.9c-2.4,0-4.2-2-4.2-4.3c0-2.4,1.8-4.3,4.2-4.3c1.6,0,2.5,0.7,3.3,1.5l-0.8,0.9
			c-0.7-0.7-1.4-1.2-2.5-1.2c-1.7,0-3,1.4-3,3.2c0,1.8,1.3,3.2,3,3.2c1.1,0,1.9-0.5,2.5-1.2l0.8,0.7
			C207.3,192.2,206.4,192.9,204.8,192.9z"/>
		<path class="st7" d="M217.6,192.7h-1.5l-3-3.9l-1.7,1.7v2.2h-1.2V181h1.2v8.1l4.5-4.7h1.5L214,188L217.6,192.7z"/>
		<path class="st7" d="M219.2,192.7V191h1.5v1.7H219.2z"/>
		<path class="st7" d="M223.3,182.6v-1.4h1.4v1.4H223.3z M223.3,192.7v-8.3h1.2v8.3H223.3z"/>
		<path class="st7" d="M228.7,192.7h-1.2v-8.3h1.2v1.4c0.5-0.9,1.4-1.6,2.8-1.6c2,0,3.2,1.3,3.2,3.3v5.1h-1.2v-4.8
			c0-1.5-0.8-2.5-2.3-2.5c-1.4,0-2.5,1-2.5,2.6V192.7z"/>
		<path class="st7" d="M239,190.3c0,1,0.6,1.4,1.4,1.4c0.4,0,0.8-0.1,1.2-0.3v1.1c-0.4,0.2-0.9,0.4-1.5,0.4c-1.3,0-2.3-0.7-2.3-2.3
			v-5h-1.2v-1.1h1.2v-2.5h1.2v2.5h2.6v1.1H239V190.3z"/>
		<path class="st8" d="M88.7,202v1.2l-6.2,3l6.2,3v1.2l-7.5-3.7v-1.1L88.7,202z"/>
		<path class="st7" d="M96.8,200.7h6.9v2.2h-4.8l-0.1,1.9c0.4-0.1,0.8-0.2,1.5-0.2c2.2,0,3.9,1.1,3.9,3.6c0,2.4-1.7,3.9-4.3,3.9
			c-1.8,0-3.1-0.6-4.2-1.7l1.5-1.8c0.8,0.8,1.7,1.2,2.7,1.2c1.2,0,1.9-0.6,1.9-1.6c0-1-0.8-1.5-2-1.5c-0.7,0-1.3,0.2-1.9,0.4
			l-1.4-0.9L96.8,200.7z"/>
		<path class="st7" d="M110.9,212.1c-3,0-5-2.5-5-5.8c0-3.3,2-5.8,5-5.8s5,2.5,5,5.8S113.9,212.1,110.9,212.1z M110.9,202.7
			c-1.5,0-2.4,1.5-2.4,3.6s1,3.6,2.5,3.6s2.4-1.5,2.4-3.6S112.4,202.7,110.9,202.7z"/>
		<path class="st7" d="M122.6,212.1c-3,0-5-2.5-5-5.8c0-3.3,2-5.8,5-5.8s5,2.5,5,5.8S125.6,212.1,122.6,212.1z M122.6,202.7
			c-1.5,0-2.4,1.5-2.4,3.6s1,3.6,2.5,3.6s2.4-1.5,2.4-3.6S124.1,202.7,122.6,202.7z"/>
		<path class="st7" d="M140.2,211.9v-4.8c0-1.2-0.5-1.7-1.4-1.7c-0.9,0-1.5,0.6-1.5,1.7v4.8h-2.4v-4.8c0-1.2-0.5-1.7-1.4-1.7
			c-0.9,0-1.5,0.6-1.5,1.7v4.8h-2.4v-8.6h2.4v1.2c0.6-0.7,1.3-1.4,2.5-1.4c1.1,0,2,0.5,2.4,1.4c0.8-0.9,1.6-1.4,2.8-1.4
			c1.8,0,2.9,1.1,2.9,3.2v5.6H140.2z"/>
		<path class="st7" d="M147.8,212c-1.2,0-2.5-0.4-3.7-1.3l1-1.6c0.9,0.7,1.9,1,2.7,1c0.7,0,1-0.3,1-0.6v0c0-0.5-0.8-0.7-1.8-1
			c-1.2-0.4-2.6-0.9-2.6-2.6v0c0-1.7,1.4-2.7,3.1-2.7c1.1,0,2.3,0.4,3.2,1l-0.9,1.7c-0.8-0.5-1.7-0.8-2.3-0.8
			c-0.6,0-0.9,0.3-0.9,0.6v0c0,0.5,0.8,0.7,1.7,1c1.2,0.4,2.6,1,2.6,2.5v0C151.1,211.2,149.6,212,147.8,212z"/>
	</g>
	<g class="st4">
		<path class="st7" d="M86.7,252.9c-3.2,0-5.6-2.5-5.6-5.8c0-3.2,2.4-5.8,5.7-5.8c2,0,3.2,0.7,4.4,1.8l-0.9,0.9
			c-0.9-0.9-2-1.5-3.5-1.5c-2.5,0-4.3,2-4.3,4.6s1.9,4.6,4.3,4.6c1.5,0,2.5-0.6,3.6-1.6l0.8,0.8C90,252.1,88.7,252.9,86.7,252.9z"/>
		<path class="st7" d="M96.8,252.9c-2.5,0-4.3-2-4.3-4.3c0-2.4,1.8-4.3,4.3-4.3c2.5,0,4.3,2,4.3,4.3
			C101.1,250.9,99.3,252.9,96.8,252.9z M96.8,245.3c-1.8,0-3,1.4-3,3.2s1.3,3.2,3.1,3.2c1.8,0,3-1.4,3-3.2
			C99.9,246.8,98.5,245.3,96.8,245.3z"/>
		<path class="st7" d="M104.6,252.7h-1.2v-8.3h1.2v1.4c0.5-0.9,1.4-1.6,2.8-1.6c2,0,3.2,1.3,3.2,3.3v5.1h-1.2v-4.8
			c0-1.5-0.8-2.5-2.3-2.5c-1.4,0-2.5,1-2.5,2.6V252.7z"/>
		<path class="st7" d="M114.9,250.3c0,1,0.6,1.4,1.4,1.4c0.4,0,0.8-0.1,1.2-0.3v1.1c-0.4,0.2-0.9,0.4-1.5,0.4
			c-1.3,0-2.3-0.7-2.3-2.3v-5h-1.2v-1.1h1.2v-2.5h1.2v2.5h2.6v1.1h-2.6V250.3z"/>
		<path class="st7" d="M123.1,251.8c1.1,0,1.9-0.5,2.6-1.2l0.8,0.7c-0.8,0.9-1.8,1.6-3.4,1.6c-2.3,0-4.1-1.7-4.1-4.3
			c0-2.4,1.7-4.3,4-4.3c2.4,0,3.9,2,3.9,4.4c0,0.1,0,0.2,0,0.4h-6.6C120.4,250.8,121.6,251.8,123.1,251.8z M125.5,248.1
			c-0.1-1.5-1-2.8-2.6-2.8c-1.4,0-2.5,1.2-2.7,2.8H125.5z"/>
		<path class="st7" d="M130.1,252.7h-1.2v-8.3h1.2v1.4c0.5-0.9,1.4-1.6,2.8-1.6c2,0,3.2,1.3,3.2,3.3v5.1h-1.2v-4.8
			c0-1.5-0.8-2.5-2.3-2.5c-1.4,0-2.5,1-2.5,2.6V252.7z"/>
		<path class="st7" d="M140.4,250.3c0,1,0.6,1.4,1.4,1.4c0.4,0,0.8-0.1,1.2-0.3v1.1c-0.4,0.2-0.9,0.4-1.5,0.4
			c-1.3,0-2.3-0.7-2.3-2.3v-5H138v-1.1h1.2v-2.5h1.2v2.5h2.6v1.1h-2.6V250.3z"/>
		<path class="st7" d="M144.9,248.5v-1.3h4.4v1.3H144.9z"/>
		<path class="st7" d="M154.8,252.7h-1.3v-10h-3.8v-1.2h8.8v1.2h-3.8V252.7z"/>
		<path class="st7" d="M163.3,253c-0.7,1.7-1.5,2.3-2.8,2.3c-0.7,0-1.2-0.1-1.8-0.4l0.4-1c0.4,0.2,0.8,0.3,1.3,0.3
			c0.7,0,1.2-0.4,1.7-1.6l-3.8-8.2h1.4l3,6.9l2.7-6.9h1.3L163.3,253z"/>
		<path class="st7" d="M173.2,252.9c-1.5,0-2.5-0.8-3.2-1.8v4.1h-1.2v-10.8h1.2v1.7c0.7-1,1.6-1.8,3.2-1.8c2,0,4,1.6,4,4.3
			C177.1,251.3,175.2,252.9,173.2,252.9z M172.9,245.3c-1.5,0-3,1.3-3,3.2c0,1.9,1.5,3.2,3,3.2c1.6,0,2.9-1.2,2.9-3.2
			C175.8,246.6,174.5,245.3,172.9,245.3z"/>
		<path class="st7" d="M183,251.8c1.1,0,1.9-0.5,2.6-1.2l0.8,0.7c-0.8,0.9-1.8,1.6-3.4,1.6c-2.3,0-4.1-1.7-4.1-4.3
			c0-2.4,1.7-4.3,4-4.3c2.4,0,3.9,2,3.9,4.4c0,0.1,0,0.2,0,0.4h-6.6C180.3,250.8,181.6,251.8,183,251.8z M185.4,248.1
			c-0.1-1.5-1-2.8-2.6-2.8c-1.4,0-2.5,1.2-2.7,2.8H185.4z"/>
		<path class="st8" d="M88.8,263.8v1.2h-7.4v-1.2H88.8z M88.8,267.5v1.2h-7.4v-1.2H88.8z"/>
		<path class="st7" d="M99,272c-1.5,0-2.5-0.6-2.5-2.6v-4.1h-1v-2.1h1v-2.2H99v2.2h2v2.1h-2v3.7c0,0.6,0.2,0.8,0.8,0.8
			c0.4,0,0.8-0.1,1.2-0.3v2C100.4,271.8,99.8,272,99,272z"/>
		<path class="st7" d="M110.5,268.4h-6c0.2,1.1,1,1.7,2.1,1.7c0.8,0,1.4-0.3,2.1-0.9l1.4,1.2c-0.8,1-2,1.6-3.5,1.6
			c-2.6,0-4.5-1.8-4.5-4.4v0c0-2.4,1.7-4.5,4.2-4.5c2.9,0,4.2,2.2,4.2,4.7v0C110.5,268.1,110.5,268.2,110.5,268.4z M106.4,265.1
			c-1,0-1.7,0.7-1.9,1.8h3.7C108,265.8,107.4,265.1,106.4,265.1z"/>
		<path class="st7" d="M117.1,271.9l-1.7-2.7l-1.7,2.7h-2.5l3-4.4l-2.9-4.2h2.6l1.6,2.5l1.6-2.5h2.5l-2.9,4.2l3,4.4H117.1z"/>
		<path class="st7" d="M124.1,272c-1.5,0-2.5-0.6-2.5-2.6v-4.1h-1v-2.1h1v-2.2h2.4v2.2h2v2.1h-2v3.7c0,0.6,0.2,0.8,0.8,0.8
			c0.4,0,0.8-0.1,1.2-0.3v2C125.5,271.8,124.9,272,124.1,272z"/>
		<path class="st7" d="M135.5,259.1l-7.1,14.8h-2.1l7.1-14.8H135.5z"/>
		<path class="st7" d="M141.7,271.9v-4.8c0-1.2-0.5-1.7-1.5-1.7s-1.5,0.6-1.5,1.7v4.8h-2.4v-11.7h2.4v4.3c0.6-0.7,1.3-1.4,2.5-1.4
			c1.8,0,2.9,1.2,2.9,3.2v5.6H141.7z"/>
		<path class="st7" d="M149.2,272c-1.5,0-2.5-0.6-2.5-2.6v-4.1h-1v-2.1h1v-2.2h2.4v2.2h2v2.1h-2v3.7c0,0.6,0.2,0.8,0.8,0.8
			c0.4,0,0.8-0.1,1.2-0.3v2C150.6,271.8,150,272,149.2,272z"/>
		<path class="st7" d="M163.6,271.9v-4.8c0-1.2-0.5-1.7-1.4-1.7c-0.9,0-1.5,0.6-1.5,1.7v4.8h-2.4v-4.8c0-1.2-0.5-1.7-1.4-1.7
			c-0.9,0-1.5,0.6-1.5,1.7v4.8h-2.4v-8.6h2.4v1.2c0.6-0.7,1.3-1.4,2.5-1.4c1.1,0,2,0.5,2.4,1.4c0.8-0.9,1.6-1.4,2.8-1.4
			c1.8,0,2.9,1.1,2.9,3.2v5.6H163.6z"/>
		<path class="st7" d="M168.2,271.9v-11.7h2.4v11.7H168.2z"/>
	</g>
	<path class="st2" d="M42,297c-12.2,0-22,9.8-22,22s9.8,22,22,22s22-9.8,22-22S54.2,297,42,297z M38,328.3l-7.5-7.5l1.9-1.9l5.6,5.6
		l14.1-14.1l1.9,1.9L38,328.3z"/>
	<g class="st4">
		<path class="st7" d="M85.6,126.5c2.5,0.5,3.6,1.5,3.6,3.2c0,1.9-1.6,3.2-3.8,3.2c-1.8,0-3.2-0.6-4.6-1.8l0.8-0.9
			c1.2,1.1,2.3,1.6,3.8,1.6c1.5,0,2.5-0.8,2.5-1.9c0-1.1-0.6-1.6-2.9-2.1c-2.6-0.6-3.8-1.4-3.8-3.2c0-1.8,1.6-3.1,3.7-3.1
			c1.6,0,2.8,0.5,3.9,1.4l-0.7,1c-1-0.8-2.1-1.2-3.2-1.2c-1.5,0-2.4,0.8-2.4,1.8C82.6,125.3,83.1,125.9,85.6,126.5z"/>
		<path class="st7" d="M93.2,130.3c0,1,0.6,1.4,1.4,1.4c0.4,0,0.8-0.1,1.2-0.3v1.1c-0.4,0.2-0.9,0.4-1.5,0.4c-1.3,0-2.3-0.7-2.3-2.3
			v-5h-1.2v-1.1H92v-2.5h1.2v2.5h2.6v1.1h-2.6V130.3z"/>
		<path class="st7" d="M98.5,126l-0.4-1c0.9-0.4,1.8-0.7,3-0.7c2.3,0,3.5,1.2,3.5,3.3v5.1h-1.2v-1.2c-0.6,0.8-1.5,1.4-3,1.4
			c-1.5,0-3.1-0.9-3.1-2.6c0-1.8,1.4-2.7,3.5-2.7c1.1,0,1.8,0.1,2.5,0.4v-0.3c0-1.5-0.9-2.3-2.5-2.3C100,125.4,99.2,125.6,98.5,126z
			 M98.6,130.2c0,1.1,1,1.7,2.1,1.7c1.5,0,2.8-0.9,2.8-2.2v-0.8c-0.6-0.2-1.4-0.4-2.4-0.4C99.5,128.5,98.6,129.2,98.6,130.2z"/>
		<path class="st7" d="M108.8,130.3c0,1,0.6,1.4,1.4,1.4c0.4,0,0.8-0.1,1.2-0.3v1.1c-0.4,0.2-0.9,0.4-1.5,0.4
			c-1.3,0-2.3-0.7-2.3-2.3v-5h-1.2v-1.1h1.2v-2.5h1.2v2.5h2.6v1.1h-2.6V130.3z"/>
		<path class="st7" d="M119.5,124.4h1.2v8.3h-1.2v-1.4c-0.6,0.9-1.4,1.6-2.8,1.6c-2,0-3.2-1.3-3.2-3.3v-5.1h1.2v4.8
			c0,1.5,0.8,2.5,2.3,2.5c1.4,0,2.5-1,2.5-2.6V124.4z"/>
		<path class="st7" d="M126.2,132.8c-1.2,0-2.5-0.5-3.4-1.2l0.6-0.9c0.9,0.7,1.9,1.1,2.9,1.1c1,0,1.7-0.5,1.7-1.3v0
			c0-0.8-1-1.2-2.1-1.5c-1.3-0.4-2.7-0.8-2.7-2.3v0c0-1.4,1.2-2.4,2.8-2.4c1,0,2.1,0.4,3,0.9l-0.6,0.9c-0.8-0.5-1.6-0.8-2.4-0.8
			c-1,0-1.6,0.5-1.6,1.2v0c0,0.8,1,1.1,2.1,1.4c1.3,0.4,2.7,0.9,2.7,2.4v0C129.2,131.9,127.9,132.8,126.2,132.8z"/>
		<path class="st7" d="M140,132.9c-2.4,0-4.2-2-4.2-4.3c0-2.4,1.8-4.3,4.2-4.3c1.6,0,2.5,0.7,3.3,1.5l-0.8,0.9
			c-0.7-0.7-1.4-1.2-2.5-1.2c-1.7,0-3,1.4-3,3.2c0,1.8,1.3,3.2,3,3.2c1.1,0,1.9-0.5,2.5-1.2l0.8,0.7
			C142.5,132.2,141.6,132.9,140,132.9z"/>
		<path class="st7" d="M148.9,132.9c-2.5,0-4.3-2-4.3-4.3c0-2.4,1.8-4.3,4.3-4.3c2.5,0,4.3,2,4.3,4.3
			C153.3,130.9,151.4,132.9,148.9,132.9z M148.9,125.3c-1.8,0-3,1.4-3,3.2s1.3,3.2,3.1,3.2c1.8,0,3-1.4,3-3.2
			C152,126.8,150.7,125.3,148.9,125.3z"/>
		<path class="st7" d="M162.1,132.7V131c-0.7,1-1.6,1.8-3.2,1.8c-2,0-4-1.6-4-4.3c0-2.7,2-4.3,4-4.3c1.5,0,2.5,0.8,3.2,1.8v-5h1.2
			v11.7H162.1z M159.2,125.3c-1.6,0-2.9,1.2-2.9,3.2c0,2,1.3,3.2,2.9,3.2c1.5,0,3-1.3,3-3.2C162.2,126.6,160.7,125.3,159.2,125.3z"
			/>
		<path class="st7" d="M169.8,131.8c1.1,0,1.9-0.5,2.6-1.2l0.8,0.7c-0.8,0.9-1.8,1.6-3.4,1.6c-2.3,0-4.1-1.7-4.1-4.3
			c0-2.4,1.7-4.3,4-4.3c2.4,0,3.9,2,3.9,4.4c0,0.1,0,0.2,0,0.4h-6.6C167,130.8,168.3,131.8,169.8,131.8z M172.2,128.1
			c-0.1-1.5-1-2.8-2.6-2.8c-1.4,0-2.5,1.2-2.7,2.8H172.2z"/>
		<path class="st8" d="M88.8,143.8v1.2h-7.4v-1.2H88.8z M88.8,147.5v1.2h-7.4v-1.2H88.8z"/>
		<path class="st7" d="M97.7,144.2l-1.7-1.4c1.1-1.5,2.2-2.3,4.2-2.3c2.4,0,3.9,1.4,3.9,3.5c0,1.9-1,2.8-2.9,4.4l-1.8,1.4h4.9v2.1
			h-8.3v-2l3.7-3.1c1.4-1.2,1.9-1.8,1.9-2.7c0-0.9-0.6-1.5-1.5-1.5C99.1,142.7,98.5,143.2,97.7,144.2z"/>
		<path class="st7" d="M110.8,152.1c-3,0-5-2.5-5-5.8c0-3.3,2-5.8,5-5.8s5,2.5,5,5.8S113.8,152.1,110.8,152.1z M110.8,142.7
			c-1.5,0-2.4,1.5-2.4,3.6s1,3.6,2.5,3.6s2.4-1.5,2.4-3.6S112.3,142.7,110.8,142.7z"/>
		<path class="st7" d="M122.5,152.1c-3,0-5-2.5-5-5.8c0-3.3,2-5.8,5-5.8s5,2.5,5,5.8S125.5,152.1,122.5,152.1z M122.5,142.7
			c-1.5,0-2.4,1.5-2.4,3.6s1,3.6,2.5,3.6s2.4-1.5,2.4-3.6S124,142.7,122.5,142.7z"/>
	</g>
	<path class="st2" d="M42,117c-12.2,0-22,9.8-22,22s9.8,22,22,22s22-9.8,22-22S54.2,117,42,117z M38,148.3l-7.5-7.5l1.9-1.9l5.6,5.6
		l14.1-14.1l1.9,1.9L38,148.3z"/>
	<path class="st2" d="M42,177c-12.2,0-22,9.8-22,22s9.8,22,22,22s22-9.8,22-22S54.2,177,42,177z M38,208.3l-7.5-7.5l1.9-1.9l5.6,5.6
		l14.1-14.1l1.9,1.9L38,208.3z"/>
	<path class="st2" d="M42,237c-12.2,0-22,9.8-22,22s9.8,22,22,22s22-9.8,22-22S54.2,237,42,237z M38,268.3l-7.5-7.5l1.9-1.9l5.6,5.6
		l14.1-14.1l1.9,1.9L38,268.3z"/>
</g>
</svg>
