<?xml version="1.0" encoding="utf-8"?>
<!-- Generator: Adobe Illustrator 19.1.0, SVG Export Plug-In . SVG Version: 6.00 Build 0)  -->
<svg version="1.1" id="Layer_1" xmlns="http://www.w3.org/2000/svg" xmlns:xlink="http://www.w3.org/1999/xlink" x="0px" y="0px"
	 viewBox="-809 361 300 360" style="enable-background:new -809 361 300 360;" xml:space="preserve">
<style type="text/css">
	.st0{fill:#303030;}
	.st1{fill:#424242;}
	.st2{fill:#7CB342;}
	.st3{fill:none;stroke:#7CB342;stroke-width:2.0952;stroke-miterlimit:10;}
	.st4{opacity:0.87;}
	.st5{fill:#FFFFFF;}
	.st6{opacity:0.56;}
	.st7{opacity:0.87;fill:#FFFFFF;enable-background:new    ;}
	.st8{opacity:0.56;fill:#FFFFFF;enable-background:new    ;}
	.st9{opacity:0.87;enable-background:new    ;}
</style>
<rect x="-809" y="361" class="st0" width="300" height="360"/>
<rect x="-809" y="361" class="st1" width="300" height="72"/>
<g>
	<circle class="st2" cx="-767" cy="397" r="18"/>
	<circle class="st3" cx="-767" cy="397" r="22"/>
	<g>
		<path class="st0" d="M-773.7,403.9h-1.2v-12.6h-1.3v-0.9h0.3c0.8-0.1,1.1-0.4,1.4-0.9l0.2-0.3h0.7v14.7H-773.7z"/>
		<path class="st0" d="M-768.5,404h-0.5c-1.7,0-2.6-0.9-2.6-2.6v-9.8c0-1.7,0.9-2.6,2.6-2.6h0.6c1.7,0,2.6,0.9,2.6,2.6v9.8
			C-765.9,403.2-766.7,404-768.5,404z M-768.5,390.3h-0.5c-0.9,0-1.4,0.4-1.4,1.3v9.9c0,0.9,0.5,1.3,1.4,1.3h0.5
			c0.9,0,1.4-0.4,1.4-1.3v-9.9C-767.1,390.7-767.6,390.3-768.5,390.3z"/>
		<path class="st0" d="M-760.9,404h-0.6c-1.7,0-2.6-0.9-2.6-2.6v-9.8c0-1.7,0.9-2.6,2.6-2.6h0.6c1.7,0,2.6,0.9,2.6,2.6v9.8
			C-758.4,403.2-759.2,404-760.9,404z M-761,390.3h-0.5c-0.9,0-1.4,0.4-1.4,1.3v9.9c0,0.9,0.5,1.3,1.4,1.3h0.5
			c0.9,0,1.4-0.4,1.4-1.3v-9.9C-759.6,390.7-760.1,390.3-761,390.3z"/>
	</g>
</g>
<g class="st4">
	<path class="st5" d="M-721.7,404.1v-5.4c0-1.3-0.6-2-1.7-2c-1,0-1.7,0.7-1.7,2v5.4h-2.7V391h2.8v4.9c0.6-0.8,1.4-1.5,2.8-1.5
		c2.1,0,3.3,1.4,3.3,3.6v6.2h-2.8V404.1z"/>
	<path class="st5" d="M-713.3,404.3c-1.7,0-2.8-0.7-2.8-2.9v-4.6h-1.2v-2.3h1.2V392h2.7v2.5h2.3v2.3h-2.3v4.2c0,0.6,0.3,0.9,0.9,0.9
		c0.5,0,1-0.1,1.4-0.3v2.2C-711.7,404.1-712.4,404.3-713.3,404.3z"/>
	<path class="st5" d="M-705.8,404.3c-1.7,0-2.8-0.7-2.8-2.9v-4.6h-1.2v-2.3h1.2V392h2.7v2.5h2.3v2.3h-2.3v4.2c0,0.6,0.3,0.9,0.9,0.9
		c0.5,0,1-0.1,1.4-0.3v2.2C-704.2,404.1-704.9,404.3-705.8,404.3z"/>
	<path class="st5" d="M-695.9,404.3c-1.5,0-2.4-0.7-3-1.4v4.1h-2.7v-12.5h2.7v1.4c0.7-0.9,1.6-1.6,3-1.6c2.3,0,4.4,1.8,4.4,5l0,0
		C-691.5,402.6-693.6,404.3-695.9,404.3z M-694.2,399.3c0-1.6-1.1-2.7-2.4-2.7c-1.3,0-2.3,1.1-2.3,2.7l0,0c0,1.6,1.1,2.7,2.3,2.7
		C-695.3,402-694.2,401-694.2,399.3L-694.2,399.3z"/>
	<path class="st5" d="M-686.1,404.3c-1.4,0-2.9-0.5-4.1-1.5l1.2-1.8c1,0.8,2.1,1.2,3,1.2c0.8,0,1.2-0.3,1.2-0.7l0,0
		c0-0.6-0.9-0.8-2-1.1c-1.4-0.4-2.9-1-2.9-2.9l0,0c0-2,1.6-3.1,3.5-3.1c1.2,0,2.6,0.4,3.6,1.1l-1,1.9c-1-0.6-1.9-0.9-2.6-0.9
		s-1,0.3-1,0.7l0,0c0,0.5,0.9,0.8,2,1.2c1.4,0.5,2.9,1.1,2.9,2.9l0,0C-682.4,403.3-684,404.3-686.1,404.3z"/>
	<path class="st5" d="M-680.5,397.4v-2.9h2.9v2.9H-680.5z M-680.5,404.1v-2.9h2.9v2.9H-680.5z"/>
	<path class="st5" d="M-666.5,389.8l-8,16.7h-2.3l8-16.7H-666.5z"/>
	<path class="st5" d="M-659.9,389.8l-8,16.7h-2.3l8-16.7H-659.9z"/>
	<path class="st5" d="M-655.6,404.4c-3,0-5.2-2.2-5.2-5l0,0c0-2.8,2.2-5,5.2-5s5.2,2.2,5.2,5l0,0
		C-650.4,402.1-652.6,404.4-655.6,404.4z M-653.1,399.3c0-1.4-1-2.7-2.5-2.7c-1.6,0-2.5,1.2-2.5,2.6l0,0c0,1.4,1,2.7,2.5,2.7
		C-654,402-653.1,400.8-653.1,399.3L-653.1,399.3z"/>
	<path class="st5" d="M-642.7,404.3c-1.5,0-2.4-0.7-3-1.4v4.1h-2.7v-12.5h2.7v1.4c0.7-0.9,1.6-1.6,3-1.6c2.2,0,4.4,1.8,4.4,5l0,0
		C-638.3,402.6-640.4,404.3-642.7,404.3z M-641,399.3c0-1.6-1.1-2.7-2.4-2.7c-1.3,0-2.3,1.1-2.3,2.7l0,0c0,1.6,1.1,2.7,2.3,2.7
		C-642.2,402-641,401-641,399.3L-641,399.3z"/>
	<path class="st5" d="M-632.9,404.3c-1.4,0-2.9-0.5-4.1-1.5l1.2-1.8c1,0.8,2.1,1.2,3,1.2c0.8,0,1.2-0.3,1.2-0.7l0,0
		c0-0.6-0.9-0.8-2-1.1c-1.4-0.4-2.9-1-2.9-2.9l0,0c0-2,1.6-3.1,3.5-3.1c1.2,0,2.6,0.4,3.6,1.1l-1,1.9c-1-0.6-1.9-0.9-2.6-0.9
		s-1,0.3-1,0.7l0,0c0,0.5,0.9,0.8,2,1.2c1.4,0.5,2.9,1.1,2.9,2.9l0,0C-629.2,403.3-630.8,404.3-632.9,404.3z"/>
	<path class="st5" d="M-618.2,400.3h-6.8c0.3,1.2,1.1,1.9,2.4,1.9c0.9,0,1.6-0.3,2.3-1l1.6,1.4c-0.9,1.1-2.2,1.8-3.9,1.8
		c-2.9,0-5-2-5-5l0,0c0-2.8,2-5,4.8-5c3.2,0,4.7,2.5,4.7,5.2l0,0C-618.2,399.9-618.2,400-618.2,400.3z M-622.9,396.5
		c-1.1,0-1.9,0.8-2.1,2.1h4.1C-621,397.3-621.8,396.5-622.9,396.5z"/>
	<path class="st5" d="M-607.2,400.3h-6.7c0.3,1.2,1.1,1.9,2.4,1.9c0.9,0,1.6-0.3,2.3-1l1.6,1.4c-0.9,1.1-2.2,1.8-3.9,1.8
		c-2.9,0-5-2-5-5l0,0c0-2.8,2-5,4.8-5c3.2,0,4.7,2.5,4.7,5.2l0,0C-607.2,399.9-607.2,400-607.2,400.3z M-611.9,396.5
		c-1.1,0-1.9,0.8-2.1,2.1h4.1C-610,397.3-610.7,396.5-611.9,396.5z"/>
	<path class="st5" d="M-605.4,404.1v-2.9h2.9v2.9H-605.4z"/>
	<path class="st5" d="M-596,404.4c-2.9,0-5-2.2-5-5l0,0c0-2.8,2.1-5,5.1-5c1.8,0,3,0.6,3.9,1.6l-1.7,1.8c-0.6-0.6-1.2-1.1-2.2-1.1
		c-1.4,0-2.3,1.2-2.3,2.6l0,0c0,1.5,1,2.7,2.4,2.7c0.9,0,1.5-0.4,2.2-1l1.6,1.6C-593,403.6-594.1,404.4-596,404.4z"/>
	<path class="st5" d="M-585.8,404.4c-3,0-5.2-2.2-5.2-5l0,0c0-2.8,2.2-5,5.2-5s5.2,2.2,5.2,5l0,0
		C-580.6,402.1-582.8,404.4-585.8,404.4z M-583.3,399.3c0-1.4-1-2.7-2.5-2.7c-1.6,0-2.5,1.2-2.5,2.6l0,0c0,1.4,1,2.7,2.5,2.7
		C-584.2,402-583.3,400.8-583.3,399.3L-583.3,399.3z"/>
	<path class="st5" d="M-566.6,404.1v-5.4c0-1.3-0.6-2-1.6-2s-1.7,0.7-1.7,2v5.4h-2.7v-5.4c0-1.3-0.6-2-1.6-2s-1.7,0.7-1.7,2v5.4
		h-2.7v-9.7h2.7v1.4c0.6-0.8,1.5-1.5,2.8-1.5c1.3,0,2.2,0.6,2.7,1.5c0.8-1,1.9-1.5,3.2-1.5c2,0,3.3,1.2,3.3,3.5v6.3H-566.6z"/>
</g>
<g class="st6">
	<path class="st5" d="M-778.1,461.1l-1.2-2.8h-5.3l-1.2,2.8h-2.8l5.4-12.7h2.6l5.4,12.7H-778.1z M-781.9,451.8l-1.7,4.1h3.3
		L-781.9,451.8z"/>
	<path class="st5" d="M-770.2,461.3c-1.4,0-2.9-0.5-4.1-1.5l1.2-1.8c1,0.8,2.1,1.2,3,1.2c0.8,0,1.2-0.3,1.2-0.7l0,0
		c0-0.6-0.9-0.8-2-1.1c-1.4-0.4-2.9-1-2.9-2.9l0,0c0-2,1.6-3.1,3.5-3.1c1.2,0,2.6,0.4,3.6,1.1l-1,1.9c-1-0.6-1.9-0.9-2.6-0.9
		s-1,0.3-1,0.7l0,0c0,0.5,0.9,0.8,2,1.2c1.4,0.5,2.9,1.1,2.9,2.9l0,0C-766.5,460.3-768.1,461.3-770.2,461.3z"/>
	<path class="st5" d="M-761.3,461.3c-1.4,0-2.9-0.5-4.1-1.5l1.2-1.8c1,0.8,2.1,1.2,3,1.2c0.8,0,1.2-0.3,1.2-0.7l0,0
		c0-0.6-0.9-0.8-2-1.1c-1.4-0.4-2.9-1-2.9-2.9l0,0c0-2,1.6-3.1,3.5-3.1c1.2,0,2.6,0.4,3.6,1.1l-1,1.9c-1-0.6-1.9-0.9-2.6-0.9
		c-0.7,0-1,0.3-1,0.7l0,0c0,0.5,0.9,0.8,2,1.2c1.4,0.5,2.9,1.1,2.9,2.9l0,0C-757.6,460.3-759.2,461.3-761.3,461.3z"/>
	<path class="st5" d="M-746.7,457.3h-6.7c0.3,1.2,1.1,1.9,2.4,1.9c0.9,0,1.6-0.3,2.3-1l1.6,1.4c-0.9,1.1-2.2,1.8-3.9,1.8
		c-2.9,0-5-2-5-5l0,0c0-2.8,2-5,4.8-5c3.2,0,4.7,2.5,4.7,5.2l0,0C-746.7,456.9-746.7,457-746.7,457.3z M-751.4,453.5
		c-1.1,0-1.9,0.8-2.1,2.1h4.1C-749.5,454.3-750.2,453.5-751.4,453.5z"/>
	<path class="st5" d="M-739,454.2c-1.8,0-2.9,1.1-2.9,3.4v3.6h-2.7v-9.7h2.7v1.9c0.6-1.3,1.5-2.2,3.1-2.1v2.9
		C-738.8,454.2-739,454.2-739,454.2z"/>
	<path class="st5" d="M-733.8,461.3c-1.7,0-2.8-0.7-2.8-2.9v-4.6h-1.2v-2.3h1.2V449h2.7v2.5h2.3v2.3h-2.3v4.2c0,0.6,0.3,0.9,0.9,0.9
		c0.5,0,1-0.1,1.4-0.3v2.2C-732.3,461.1-732.9,461.3-733.8,461.3z"/>
	<path class="st5" d="M-729.6,450.4V448h2.9v2.4H-729.6z M-729.5,461.1v-9.7h2.7v9.7H-729.5z"/>
	<path class="st5" d="M-719.5,461.4c-3,0-5.2-2.2-5.2-5l0,0c0-2.8,2.2-5,5.2-5s5.2,2.2,5.2,5l0,0
		C-714.2,459.1-716.5,461.4-719.5,461.4z M-716.9,456.3c0-1.4-1-2.7-2.5-2.7c-1.6,0-2.5,1.2-2.5,2.6l0,0c0,1.4,1,2.7,2.5,2.7
		C-717.9,459-716.9,457.8-716.9,456.3L-716.9,456.3z"/>
	<path class="st5" d="M-706.1,461.1v-5.4c0-1.3-0.6-2-1.7-2c-1,0-1.7,0.7-1.7,2v5.4h-2.7v-9.7h2.7v1.4c0.6-0.8,1.4-1.5,2.8-1.5
		c2.1,0,3.3,1.4,3.3,3.6v6.2H-706.1z"/>
	<path class="st5" d="M-697.6,461.3c-1.4,0-2.9-0.5-4.1-1.5l1.2-1.8c1,0.8,2.1,1.2,3,1.2c0.8,0,1.2-0.3,1.2-0.7l0,0
		c0-0.6-0.9-0.8-2-1.1c-1.4-0.4-2.9-1-2.9-2.9l0,0c0-2,1.6-3.1,3.5-3.1c1.2,0,2.6,0.4,3.6,1.1l-1,1.9c-1-0.6-1.9-0.9-2.6-0.9
		s-1,0.3-1,0.7l0,0c0,0.5,0.9,0.8,2,1.2c1.4,0.5,2.9,1.1,2.9,2.9l0,0C-694,460.3-695.6,461.3-697.6,461.3z"/>
</g>
<g class="st4">
	<path class="st7" d="M-719.7,673.7l-3.2-4.4h-3.2v4.4h-1.3v-11.2h4.8c2.5,0,4,1.3,4,3.3c0,1.9-1.3,3-3,3.3l3.4,4.6L-719.7,673.7
		L-719.7,673.7z M-722.7,663.6h-3.5v4.5h3.4c1.7,0,2.9-0.9,2.9-2.3C-719.8,664.5-720.9,663.6-722.7,663.6z"/>
	<path class="st7" d="M-712.4,673.9c-2.5,0-4.3-2-4.3-4.3c0-2.4,1.8-4.3,4.3-4.3s4.3,2,4.3,4.3
		C-708.1,671.9-709.9,673.9-712.4,673.9z M-712.4,666.3c-1.8,0-3,1.4-3,3.2s1.3,3.2,3.1,3.2s3-1.4,3-3.2
		C-709.4,667.8-710.7,666.3-712.4,666.3z"/>
	<path class="st7" d="M-700,665.4h1.2v8.3h-1.2v-1.4c-0.6,0.9-1.4,1.6-2.8,1.6c-2,0-3.2-1.3-3.2-3.3v-5.1h1.2v4.8
		c0,1.5,0.8,2.5,2.3,2.5c1.4,0,2.5-1,2.5-2.6V665.4z"/>
	<path class="st7" d="M-694.8,673.7h-1.2v-8.3h1.2v1.4c0.5-0.9,1.4-1.6,2.8-1.6c2,0,3.2,1.3,3.2,3.3v5.1h-1.2v-4.8
		c0-1.5-0.8-2.5-2.3-2.5c-1.4,0-2.5,1-2.5,2.6V673.7z"/>
	<path class="st7" d="M-679.5,673.7V672c-0.7,1-1.6,1.8-3.2,1.8c-2,0-4-1.6-4-4.3c0-2.7,2-4.3,4-4.3c1.5,0,2.5,0.8,3.2,1.8v-5h1.2
		v11.7H-679.5z M-682.5,666.3c-1.6,0-2.9,1.2-2.9,3.2s1.3,3.2,2.9,3.2c1.5,0,3-1.3,3-3.2S-680.9,666.3-682.5,666.3z"/>
	<path class="st7" d="M-675.9,669.5v-1.3h4.4v1.3H-675.9z"/>
	<path class="st7" d="M-667.4,671.3c0,1,0.6,1.4,1.4,1.4c0.4,0,0.8-0.1,1.2-0.3v1.1c-0.4,0.2-0.9,0.4-1.5,0.4
		c-1.3,0-2.3-0.7-2.3-2.3v-5h-1.2v-1.1h1.2V663h1.2v2.5h2.6v1.1h-2.6V671.3L-667.4,671.3z"/>
	<path class="st7" d="M-661.3,673.7h-1.2v-8.3h1.2v2.2c0.6-1.4,1.8-2.4,3.4-2.3v1.3h-0.1c-1.8,0-3.3,1.3-3.3,3.8V673.7z"/>
	<path class="st7" d="M-656,663.6v-1.4h1.4v1.4H-656z M-656,673.7v-8.3h1.2v8.3H-656z"/>
	<path class="st7" d="M-647.5,673.9c-1.5,0-2.5-0.8-3.2-1.8v4.1h-1.2v-10.8h1.2v1.7c0.7-1,1.6-1.8,3.2-1.8c2,0,4,1.6,4,4.3
		C-643.5,672.3-645.5,673.9-647.5,673.9z M-647.7,666.3c-1.5,0-3,1.3-3,3.2s1.5,3.2,3,3.2c1.6,0,2.9-1.2,2.9-3.2
		C-644.8,667.6-646.1,666.3-647.7,666.3z"/>
	<path class="st7" d="M-632,673.7h-1.3v-10h-3.7v-1.2h8.8v1.2h-3.8V673.7z"/>
	<path class="st7" d="M-626.6,663.6v-1.4h1.4v1.4H-626.6z M-626.5,673.7v-8.3h1.2v8.3H-626.5z"/>
	<path class="st7" d="M-612.9,665.2c1.9,0,3.1,1.3,3.1,3.3v5.1h-1.2v-4.8c0-1.6-0.8-2.5-2.1-2.5c-1.2,0-2.3,0.9-2.3,2.6v4.8h-1.2
		v-4.9c0-1.6-0.8-2.5-2.1-2.5s-2.3,1.1-2.3,2.6v4.7h-1.2v-8.3h1.2v1.4c0.5-0.8,1.3-1.6,2.7-1.6c1.3,0,2.2,0.7,2.7,1.6
		C-615.2,666-614.3,665.2-612.9,665.2z"/>
	<path class="st7" d="M-603.5,672.8c1.1,0,1.9-0.5,2.6-1.2l0.8,0.7c-0.8,0.9-1.8,1.6-3.4,1.6c-2.3,0-4.1-1.7-4.1-4.3
		c0-2.4,1.7-4.3,4-4.3c2.4,0,3.9,2,3.9,4.4c0,0.1,0,0.2,0,0.4h-6.6C-606.2,671.8-605,672.8-603.5,672.8z M-601.1,669.1
		c-0.1-1.5-1-2.8-2.6-2.8c-1.4,0-2.5,1.2-2.7,2.8H-601.1z"/>
	<path class="st8" d="M-720.3,683v1.2l-6.2,3l6.2,3v1.2l-7.5-3.7v-1.1L-720.3,683z"/>
	<path class="st7" d="M-712.2,681.7h6.9v2.2h-4.8l-0.1,1.9c0.4-0.1,0.8-0.2,1.5-0.2c2.2,0,3.9,1.1,3.9,3.6c0,2.4-1.7,3.9-4.3,3.9
		c-1.8,0-3.1-0.6-4.2-1.7l1.5-1.8c0.8,0.8,1.7,1.2,2.7,1.2c1.2,0,1.9-0.6,1.9-1.6s-0.8-1.5-2-1.5c-0.7,0-1.3,0.2-1.9,0.4l-1.4-0.9
		L-712.2,681.7z"/>
	<path class="st7" d="M-698.1,693.1c-3,0-5-2.5-5-5.8c0-3.3,2-5.8,5-5.8s5,2.5,5,5.8C-693.1,690.6-695.1,693.1-698.1,693.1z
		 M-698.1,683.7c-1.5,0-2.4,1.5-2.4,3.6c0,2.1,1,3.6,2.5,3.6s2.4-1.5,2.4-3.6C-695.6,685.2-696.6,683.7-698.1,683.7z"/>
	<path class="st7" d="M-686.4,693.1c-3,0-5-2.5-5-5.8c0-3.3,2-5.8,5-5.8s5,2.5,5,5.8C-681.4,690.6-683.4,693.1-686.4,693.1z
		 M-686.4,683.7c-1.5,0-2.4,1.5-2.4,3.6c0,2.1,1,3.6,2.5,3.6s2.4-1.5,2.4-3.6C-683.9,685.2-684.9,683.7-686.4,683.7z"/>
	<path class="st7" d="M-668.8,692.9v-4.8c0-1.2-0.5-1.7-1.4-1.7c-0.9,0-1.5,0.6-1.5,1.7v4.8h-2.4v-4.8c0-1.2-0.5-1.7-1.4-1.7
		c-0.9,0-1.5,0.6-1.5,1.7v4.8h-2.4v-8.6h2.4v1.2c0.6-0.7,1.3-1.4,2.5-1.4c1.1,0,2,0.5,2.4,1.4c0.8-0.9,1.6-1.4,2.8-1.4
		c1.8,0,2.9,1.1,2.9,3.2v5.6H-668.8L-668.8,692.9z"/>
	<path class="st7" d="M-661.2,693c-1.2,0-2.5-0.4-3.7-1.3l1-1.6c0.9,0.7,1.9,1,2.7,1c0.7,0,1-0.3,1-0.6l0,0c0-0.5-0.8-0.7-1.8-1
		c-1.2-0.4-2.6-0.9-2.6-2.6l0,0c0-1.7,1.4-2.7,3.1-2.7c1.1,0,2.3,0.4,3.2,1l-0.9,1.7c-0.8-0.5-1.7-0.8-2.3-0.8s-0.9,0.3-0.9,0.6l0,0
		c0,0.5,0.8,0.7,1.7,1c1.2,0.4,2.6,1,2.6,2.5l0,0C-657.9,692.2-659.4,693-661.2,693z"/>
</g>
<g class="st4">
	<path class="st7" d="M-722.3,613.9c-3.2,0-5.6-2.5-5.6-5.8c0-3.2,2.4-5.8,5.7-5.8c2,0,3.2,0.7,4.4,1.8l-0.9,0.9
		c-0.9-0.9-2-1.5-3.5-1.5c-2.5,0-4.3,2-4.3,4.6c0,2.6,1.9,4.6,4.3,4.6c1.5,0,2.5-0.6,3.6-1.6l0.8,0.8
		C-719,613.1-720.3,613.9-722.3,613.9z"/>
	<path class="st7" d="M-712.2,613.9c-2.5,0-4.3-2-4.3-4.3c0-2.4,1.8-4.3,4.3-4.3s4.3,2,4.3,4.3
		C-707.9,611.9-709.7,613.9-712.2,613.9z M-712.2,606.3c-1.8,0-3,1.4-3,3.2s1.3,3.2,3.1,3.2c1.8,0,3-1.4,3-3.2
		C-709.1,607.8-710.5,606.3-712.2,606.3z"/>
	<path class="st7" d="M-704.4,613.7h-1.2v-8.3h1.2v1.4c0.5-0.9,1.4-1.6,2.8-1.6c2,0,3.2,1.3,3.2,3.3v5.1h-1.2v-4.8
		c0-1.5-0.8-2.5-2.3-2.5c-1.4,0-2.5,1-2.5,2.6V613.7z"/>
	<path class="st7" d="M-694.1,611.3c0,1,0.6,1.4,1.4,1.4c0.4,0,0.8-0.1,1.2-0.3v1.1c-0.4,0.2-0.9,0.4-1.5,0.4
		c-1.3,0-2.3-0.7-2.3-2.3v-5h-1.2v-1.1h1.2V603h1.2v2.5h2.6v1.1h-2.6C-694.1,606.6-694.1,611.3-694.1,611.3z"/>
	<path class="st7" d="M-685.9,612.8c1.1,0,1.9-0.5,2.6-1.2l0.8,0.7c-0.8,0.9-1.8,1.6-3.4,1.6c-2.3,0-4.1-1.7-4.1-4.3
		c0-2.4,1.7-4.3,4-4.3c2.4,0,3.9,2,3.9,4.4c0,0.1,0,0.2,0,0.4h-6.6C-688.6,611.8-687.4,612.8-685.9,612.8z M-683.5,609.1
		c-0.1-1.5-1-2.8-2.6-2.8c-1.4,0-2.5,1.2-2.7,2.8H-683.5z"/>
	<path class="st7" d="M-678.9,613.7h-1.2v-8.3h1.2v1.4c0.5-0.9,1.4-1.6,2.8-1.6c2,0,3.2,1.3,3.2,3.3v5.1h-1.2v-4.8
		c0-1.5-0.8-2.5-2.3-2.5c-1.4,0-2.5,1-2.5,2.6V613.7z"/>
	<path class="st7" d="M-668.6,611.3c0,1,0.6,1.4,1.4,1.4c0.4,0,0.8-0.1,1.2-0.3v1.1c-0.4,0.2-0.9,0.4-1.5,0.4
		c-1.3,0-2.3-0.7-2.3-2.3v-5h-1.2v-1.1h1.2V603h1.2v2.5h2.6v1.1h-2.6V611.3z"/>
	<path class="st7" d="M-664.1,609.5v-1.3h4.4v1.3H-664.1z"/>
	<path class="st7" d="M-654.2,613.7h-1.3v-10h-3.8v-1.2h8.8v1.2h-3.8L-654.2,613.7L-654.2,613.7z"/>
	<path class="st7" d="M-645.7,614c-0.7,1.7-1.5,2.3-2.8,2.3c-0.7,0-1.2-0.1-1.8-0.4l0.4-1c0.4,0.2,0.8,0.3,1.3,0.3
		c0.7,0,1.2-0.4,1.7-1.6l-3.8-8.2h1.4l3,6.9l2.7-6.9h1.3L-645.7,614z"/>
	<path class="st7" d="M-635.8,613.9c-1.5,0-2.5-0.8-3.2-1.8v4.1h-1.2v-10.8h1.2v1.7c0.7-1,1.6-1.8,3.2-1.8c2,0,4,1.6,4,4.3
		C-631.9,612.3-633.8,613.9-635.8,613.9z M-636.1,606.3c-1.5,0-3,1.3-3,3.2s1.5,3.2,3,3.2c1.6,0,2.9-1.2,2.9-3.2
		C-633.2,607.6-634.5,606.3-636.1,606.3z"/>
	<path class="st7" d="M-626,612.8c1.1,0,1.9-0.5,2.6-1.2l0.8,0.7c-0.8,0.9-1.8,1.6-3.4,1.6c-2.3,0-4.1-1.7-4.1-4.3
		c0-2.4,1.7-4.3,4-4.3c2.4,0,3.9,2,3.9,4.4c0,0.1,0,0.2,0,0.4h-6.6C-628.7,611.8-627.4,612.8-626,612.8z M-623.6,609.1
		c-0.1-1.5-1-2.8-2.6-2.8c-1.4,0-2.5,1.2-2.7,2.8H-623.6z"/>
	<path class="st8" d="M-720.2,624.8v1.2h-7.4v-1.2H-720.2z M-720.2,628.5v1.2h-7.4v-1.2H-720.2z"/>
	<path class="st7" d="M-710,633c-1.5,0-2.5-0.6-2.5-2.6v-4.1h-1v-2.1h1V622h2.5v2.2h2v2.1h-2v3.7c0,0.6,0.2,0.8,0.8,0.8
		c0.4,0,0.8-0.1,1.2-0.3v2C-708.6,632.8-709.2,633-710,633z"/>
	<path class="st7" d="M-698.5,629.4h-6c0.2,1.1,1,1.7,2.1,1.7c0.8,0,1.4-0.3,2.1-0.9l1.4,1.2c-0.8,1-2,1.6-3.5,1.6
		c-2.6,0-4.5-1.8-4.5-4.4l0,0c0-2.4,1.7-4.5,4.2-4.5c2.9,0,4.2,2.2,4.2,4.7l0,0C-698.5,629.1-698.5,629.2-698.5,629.4z
		 M-702.6,626.1c-1,0-1.7,0.7-1.9,1.8h3.7C-701,626.8-701.6,626.1-702.6,626.1z"/>
	<path class="st7" d="M-691.9,632.9l-1.7-2.7l-1.7,2.7h-2.5l3-4.4l-2.9-4.2h2.6l1.6,2.5l1.6-2.5h2.5l-2.9,4.2l3,4.4H-691.9z"/>
	<path class="st7" d="M-684.9,633c-1.5,0-2.5-0.6-2.5-2.6v-4.1h-1v-2.1h1V622h2.4v2.2h2v2.1h-2v3.7c0,0.6,0.2,0.8,0.8,0.8
		c0.4,0,0.8-0.1,1.2-0.3v2C-683.5,632.8-684.1,633-684.9,633z"/>
	<path class="st7" d="M-673.5,620.1l-7.1,14.8h-2.1l7.1-14.8H-673.5z"/>
	<path class="st7" d="M-667.3,632.9v-4.8c0-1.2-0.5-1.7-1.5-1.7s-1.5,0.6-1.5,1.7v4.8h-2.4v-11.7h2.4v4.3c0.6-0.7,1.3-1.4,2.5-1.4
		c1.8,0,2.9,1.2,2.9,3.2v5.6H-667.3z"/>
	<path class="st7" d="M-659.8,633c-1.5,0-2.5-0.6-2.5-2.6v-4.1h-1v-2.1h1V622h2.4v2.2h2v2.1h-2v3.7c0,0.6,0.2,0.8,0.8,0.8
		c0.4,0,0.8-0.1,1.2-0.3v2C-658.4,632.8-659,633-659.8,633z"/>
	<path class="st7" d="M-645.4,632.9v-4.8c0-1.2-0.5-1.7-1.4-1.7s-1.5,0.6-1.5,1.7v4.8h-2.4v-4.8c0-1.2-0.5-1.7-1.4-1.7
		s-1.5,0.6-1.5,1.7v4.8h-2.4v-8.6h2.4v1.2c0.6-0.7,1.3-1.4,2.5-1.4c1.1,0,2,0.5,2.4,1.4c0.8-0.9,1.6-1.4,2.8-1.4
		c1.8,0,2.9,1.1,2.9,3.2v5.6H-645.4L-645.4,632.9z"/>
	<path class="st7" d="M-640.8,632.9v-11.7h2.4v11.7H-640.8z"/>
</g>
<path class="st2" d="M-767,658c-12.2,0-22,9.8-22,22s9.8,22,22,22s22-9.8,22-22S-754.8,658-767,658z M-771,689.3l-7.5-7.5l1.9-1.9
	l5.6,5.6l14.1-14.1l1.9,1.9L-771,689.3z"/>
<g class="st4">
	<path class="st7" d="M-723.4,487.5c2.5,0.5,3.6,1.5,3.6,3.2c0,1.9-1.6,3.2-3.8,3.2c-1.8,0-3.2-0.6-4.6-1.8l0.8-0.9
		c1.2,1.1,2.3,1.6,3.8,1.6s2.5-0.8,2.5-1.9c0-1.1-0.6-1.6-2.9-2.1c-2.6-0.6-3.8-1.4-3.8-3.2c0-1.8,1.6-3.1,3.7-3.1
		c1.6,0,2.8,0.5,3.9,1.4l-0.7,1c-1-0.8-2.1-1.2-3.2-1.2c-1.5,0-2.4,0.8-2.4,1.8C-726.4,486.3-725.9,486.9-723.4,487.5z"/>
	<path class="st7" d="M-715.8,491.3c0,1,0.6,1.4,1.4,1.4c0.4,0,0.8-0.1,1.2-0.3v1.1c-0.4,0.2-0.9,0.4-1.5,0.4
		c-1.3,0-2.3-0.7-2.3-2.3v-5h-1.2v-1.1h1.2V483h1.2v2.5h2.6v1.1h-2.6V491.3z"/>
	<path class="st7" d="M-710.5,487l-0.4-1c0.9-0.4,1.8-0.7,3-0.7c2.3,0,3.5,1.2,3.5,3.3v5.1h-1.2v-1.2c-0.6,0.8-1.5,1.4-3,1.4
		s-3.1-0.9-3.1-2.6c0-1.8,1.4-2.7,3.5-2.7c1.1,0,1.8,0.1,2.5,0.4v-0.3c0-1.5-0.9-2.3-2.5-2.3C-709,486.4-709.8,486.6-710.5,487z
		 M-710.4,491.2c0,1.1,1,1.7,2.1,1.7c1.5,0,2.8-0.9,2.8-2.2v-0.8c-0.6-0.2-1.4-0.4-2.4-0.4C-709.5,489.5-710.4,490.2-710.4,491.2z"
		/>
	<path class="st7" d="M-700.2,491.3c0,1,0.6,1.4,1.4,1.4c0.4,0,0.8-0.1,1.2-0.3v1.1c-0.4,0.2-0.9,0.4-1.5,0.4
		c-1.3,0-2.3-0.7-2.3-2.3v-5h-1.2v-1.1h1.2V483h1.2v2.5h2.6v1.1h-2.6C-700.2,486.6-700.2,491.3-700.2,491.3z"/>
	<path class="st7" d="M-689.5,485.4h1.2v8.3h-1.2v-1.4c-0.6,0.9-1.4,1.6-2.8,1.6c-2,0-3.2-1.3-3.2-3.3v-5.1h1.2v4.8
		c0,1.5,0.8,2.5,2.3,2.5c1.4,0,2.5-1,2.5-2.6V485.4z"/>
	<path class="st7" d="M-682.8,493.8c-1.2,0-2.5-0.5-3.4-1.2l0.6-0.9c0.9,0.7,1.9,1.1,2.9,1.1s1.7-0.5,1.7-1.3l0,0
		c0-0.8-1-1.2-2.1-1.5c-1.3-0.4-2.7-0.8-2.7-2.3l0,0c0-1.4,1.2-2.4,2.8-2.4c1,0,2.1,0.4,3,0.9l-0.6,0.9c-0.8-0.5-1.6-0.8-2.4-0.8
		c-1,0-1.6,0.5-1.6,1.2l0,0c0,0.8,1,1.1,2.1,1.4c1.3,0.4,2.7,0.9,2.7,2.4l0,0C-679.8,492.9-681.1,493.8-682.8,493.8z"/>
	<path class="st7" d="M-669,493.9c-2.4,0-4.2-2-4.2-4.3c0-2.4,1.8-4.3,4.2-4.3c1.6,0,2.5,0.7,3.3,1.5l-0.8,0.9
		c-0.7-0.7-1.4-1.2-2.5-1.2c-1.7,0-3,1.4-3,3.2c0,1.8,1.3,3.2,3,3.2c1.1,0,1.9-0.5,2.5-1.2l0.8,0.7
		C-666.5,493.2-667.4,493.9-669,493.9z"/>
	<path class="st7" d="M-660.1,493.9c-2.5,0-4.3-2-4.3-4.3c0-2.4,1.8-4.3,4.3-4.3s4.3,2,4.3,4.3
		C-655.7,491.9-657.6,493.9-660.1,493.9z M-660.1,486.3c-1.8,0-3,1.4-3,3.2s1.3,3.2,3.1,3.2s3-1.4,3-3.2
		C-657,487.8-658.3,486.3-660.1,486.3z"/>
	<path class="st7" d="M-646.9,493.7V492c-0.7,1-1.6,1.8-3.2,1.8c-2,0-4-1.6-4-4.3s2-4.3,4-4.3c1.5,0,2.5,0.8,3.2,1.8v-5h1.2v11.7
		H-646.9z M-649.8,486.3c-1.6,0-2.9,1.2-2.9,3.2s1.3,3.2,2.9,3.2c1.5,0,3-1.3,3-3.2S-648.3,486.3-649.8,486.3z"/>
	<path class="st7" d="M-639.2,492.8c1.1,0,1.9-0.5,2.6-1.2l0.8,0.7c-0.8,0.9-1.8,1.6-3.4,1.6c-2.3,0-4.1-1.7-4.1-4.3
		c0-2.4,1.7-4.3,4-4.3c2.4,0,3.9,2,3.9,4.4c0,0.1,0,0.2,0,0.4h-6.6C-642,491.8-640.7,492.8-639.2,492.8z M-636.8,489.1
		c-0.1-1.5-1-2.8-2.6-2.8c-1.4,0-2.5,1.2-2.7,2.8H-636.8z"/>
	<path class="st8" d="M-720.2,504.8v1.2h-7.4v-1.2H-720.2z M-720.2,508.5v1.2h-7.4v-1.2H-720.2z"/>
	<path class="st7" d="M-711.3,505.2l-1.7-1.4c1.1-1.5,2.2-2.3,4.2-2.3c2.4,0,3.9,1.4,3.9,3.5c0,1.9-1,2.8-2.9,4.4l-1.8,1.4h4.9v2.1
		h-8.3v-2l3.7-3.1c1.4-1.2,1.9-1.8,1.9-2.7c0-0.9-0.6-1.5-1.5-1.5C-709.9,503.7-710.5,504.2-711.3,505.2z"/>
	<path class="st7" d="M-698.2,513.1c-3,0-5-2.5-5-5.8c0-3.3,2-5.8,5-5.8s5,2.5,5,5.8C-693.2,510.6-695.2,513.1-698.2,513.1z
		 M-698.2,503.7c-1.5,0-2.4,1.5-2.4,3.6c0,2.1,1,3.6,2.5,3.6s2.4-1.5,2.4-3.6C-695.7,505.2-696.7,503.7-698.2,503.7z"/>
	<path class="st7" d="M-686.5,513.1c-3,0-5-2.5-5-5.8c0-3.3,2-5.8,5-5.8s5,2.5,5,5.8C-681.5,510.6-683.5,513.1-686.5,513.1z
		 M-686.5,503.7c-1.5,0-2.4,1.5-2.4,3.6c0,2.1,1,3.6,2.5,3.6s2.4-1.5,2.4-3.6C-684,505.2-685,503.7-686.5,503.7z"/>
</g>
<path class="st2" d="M-767,478c-12.2,0-22,9.8-22,22s9.8,22,22,22s22-9.8,22-22S-754.8,478-767,478z M-771,509.3l-7.5-7.5l1.9-1.9
	l5.6,5.6l14.1-14.1l1.9,1.9L-771,509.3z"/>
<path class="st2" d="M-767,538c-12.2,0-22,9.8-22,22s9.8,22,22,22s22-9.8,22-22S-754.8,538-767,538z M-771,569.3l-7.5-7.5l1.9-1.9
	l5.6,5.6l14.1-14.1l1.9,1.9L-771,569.3z"/>
<path class="st2" d="M-767,598c-12.2,0-22,9.8-22,22s9.8,22,22,22s22-9.8,22-22S-754.8,598-767,598z M-771,629.3l-7.5-7.5l1.9-1.9
	l5.6,5.6l14.1-14.1l1.9,1.9L-771,629.3z"/>
<g class="st9">
	<path class="st5" d="M-719.7,553.7l-3.2-4.4h-3.2v4.4h-1.3v-11.2h4.8c2.5,0,4,1.3,4,3.3c0,1.9-1.3,3-3,3.3l3.4,4.6H-719.7z
		 M-722.7,543.6h-3.5v4.5h3.4c1.7,0,2.9-0.9,2.9-2.3C-719.8,544.5-720.9,543.6-722.7,543.6z"/>
	<path class="st5" d="M-712.6,552.8c1.1,0,1.9-0.5,2.6-1.2l0.8,0.7c-0.8,0.9-1.8,1.6-3.4,1.6c-2.3,0-4.1-1.7-4.1-4.3
		c0-2.4,1.7-4.3,4-4.3c2.4,0,3.9,2,3.9,4.4c0,0.1,0,0.2,0,0.4h-6.6C-715.3,551.8-714,552.8-712.6,552.8z M-710.1,549.1
		c-0.1-1.5-1-2.8-2.6-2.8c-1.4,0-2.5,1.2-2.7,2.8H-710.1z"/>
	<path class="st5" d="M-704,553.8c-1.2,0-2.5-0.5-3.4-1.2l0.6-0.9c0.9,0.7,1.9,1.1,2.9,1.1c1,0,1.7-0.5,1.7-1.3v0
		c0-0.8-1-1.2-2.1-1.5c-1.3-0.4-2.7-0.8-2.7-2.3v0c0-1.4,1.2-2.4,2.8-2.4c1,0,2.1,0.4,3,0.9l-0.6,0.9c-0.8-0.5-1.6-0.8-2.4-0.8
		c-1,0-1.6,0.5-1.6,1.2v0c0,0.8,1,1.1,2.1,1.4c1.3,0.4,2.7,0.9,2.7,2.4v0C-701.1,552.9-702.4,553.8-704,553.8z"/>
	<path class="st5" d="M-694.4,553.9c-1.5,0-2.5-0.8-3.2-1.8v4.1h-1.2v-10.8h1.2v1.7c0.7-1,1.6-1.8,3.2-1.8c2,0,4,1.6,4,4.3
		C-690.4,552.3-692.4,553.9-694.4,553.9z M-694.6,546.3c-1.5,0-3,1.3-3,3.2c0,1.9,1.5,3.2,3,3.2c1.6,0,2.9-1.2,2.9-3.2
		C-691.7,547.6-693,546.3-694.6,546.3z"/>
	<path class="st5" d="M-684.4,553.9c-2.5,0-4.3-2-4.3-4.3c0-2.4,1.8-4.3,4.3-4.3c2.5,0,4.3,2,4.3,4.3
		C-680,551.9-681.9,553.9-684.4,553.9z M-684.4,546.3c-1.8,0-3,1.4-3,3.2s1.3,3.2,3.1,3.2c1.8,0,3-1.4,3-3.2
		C-681.3,547.8-682.6,546.3-684.4,546.3z"/>
	<path class="st5" d="M-676.6,553.7h-1.2v-8.3h1.2v1.4c0.5-0.9,1.4-1.6,2.8-1.6c2,0,3.2,1.3,3.2,3.3v5.1h-1.2v-4.8
		c0-1.5-0.8-2.5-2.3-2.5c-1.4,0-2.5,1-2.5,2.6V553.7z"/>
	<path class="st5" d="M-665.2,553.8c-1.2,0-2.5-0.5-3.4-1.2l0.6-0.9c0.9,0.7,1.9,1.1,2.9,1.1c1,0,1.7-0.5,1.7-1.3v0
		c0-0.8-1-1.2-2.1-1.5c-1.3-0.4-2.7-0.8-2.7-2.3v0c0-1.4,1.2-2.4,2.8-2.4c1,0,2.1,0.4,3,0.9l-0.6,0.9c-0.8-0.5-1.6-0.8-2.4-0.8
		c-1,0-1.6,0.5-1.6,1.2v0c0,0.8,1,1.1,2.1,1.4c1.3,0.4,2.7,0.9,2.7,2.4v0C-662.3,552.9-663.6,553.8-665.2,553.8z"/>
	<path class="st5" d="M-656.3,552.8c1.1,0,1.9-0.5,2.6-1.2l0.8,0.7c-0.8,0.9-1.8,1.6-3.4,1.6c-2.3,0-4.1-1.7-4.1-4.3
		c0-2.4,1.7-4.3,4-4.3c2.4,0,3.9,2,3.9,4.4c0,0.1,0,0.2,0,0.4h-6.6C-659.1,551.8-657.8,552.8-656.3,552.8z M-653.9,549.1
		c-0.1-1.5-1-2.8-2.6-2.8c-1.4,0-2.5,1.2-2.7,2.8H-653.9z"/>
	<path class="st5" d="M-637.1,545.3c0,1.5-0.9,2.2-1.8,2.6c1.3,0.4,2.4,1.2,2.4,2.7c0,1.9-1.6,3.1-4.1,3.1h-5v-11.2h4.8
		C-638.5,542.5-637.1,543.6-637.1,545.3z M-638.4,545.5c0-1.1-0.9-1.8-2.5-1.8h-3.4v3.9h3.3C-639.4,547.5-638.4,546.8-638.4,545.5z
		 M-637.7,550.5c0-1.2-1-1.9-3-1.9h-3.5v4h3.8C-638.8,552.5-637.7,551.8-637.7,550.5z"/>
	<path class="st5" d="M-630.4,553.9c-2.5,0-4.3-2-4.3-4.3c0-2.4,1.8-4.3,4.3-4.3c2.5,0,4.3,2,4.3,4.3
		C-626.1,551.9-627.9,553.9-630.4,553.9z M-630.4,546.3c-1.8,0-3,1.4-3,3.2s1.3,3.2,3.1,3.2c1.8,0,3-1.4,3-3.2
		C-627.3,547.8-628.6,546.3-630.4,546.3z"/>
	<path class="st5" d="M-617.2,553.7V552c-0.7,1-1.6,1.8-3.2,1.8c-2,0-4-1.6-4-4.3c0-2.7,2-4.3,4-4.3c1.5,0,2.5,0.8,3.2,1.8v-5h1.2
		v11.7H-617.2z M-620.1,546.3c-1.6,0-2.9,1.2-2.9,3.2c0,2,1.3,3.2,2.9,3.2c1.5,0,3-1.3,3-3.2C-617.1,547.6-618.6,546.3-620.1,546.3z
		"/>
	<path class="st5" d="M-609.2,554c-0.7,1.7-1.5,2.3-2.8,2.3c-0.7,0-1.2-0.1-1.8-0.4l0.4-1c0.4,0.2,0.8,0.3,1.3,0.3
		c0.7,0,1.2-0.4,1.7-1.6l-3.8-8.2h1.4l3,6.9l2.7-6.9h1.3L-609.2,554z"/>
	<path class="st5" d="M-727.9,563.4v-2.2h2.6v2.2H-727.9z M-727.8,572.9v-8.6h2.4v8.6H-727.8z"/>
	<path class="st5" d="M-720.1,573c-1.2,0-2.5-0.4-3.7-1.3l1-1.6c0.9,0.7,1.9,1,2.7,1c0.7,0,1-0.3,1-0.6v0c0-0.5-0.8-0.7-1.8-1
		c-1.2-0.4-2.6-0.9-2.6-2.6v0c0-1.7,1.4-2.7,3.1-2.7c1.1,0,2.3,0.4,3.2,1l-0.9,1.7c-0.8-0.5-1.7-0.8-2.3-0.8c-0.6,0-0.9,0.3-0.9,0.6
		v0c0,0.5,0.8,0.7,1.7,1c1.2,0.4,2.6,1,2.6,2.5v0C-716.8,572.2-718.2,573-720.1,573z"/>
	<path class="st5" d="M-704.8,572.9v-4.8c0-1.2-0.5-1.7-1.5-1.7s-1.5,0.6-1.5,1.7v4.8h-2.4v-8.6h2.4v1.2c0.6-0.7,1.3-1.4,2.5-1.4
		c1.8,0,2.9,1.2,2.9,3.2v5.6H-704.8z"/>
	<path class="st5" d="M-696.1,573.1c-2.7,0-4.6-2-4.6-4.4v0c0-2.5,2-4.5,4.7-4.5c2.7,0,4.6,2,4.6,4.4v0
		C-691.4,571.1-693.4,573.1-696.1,573.1z M-693.8,568.6c0-1.3-0.9-2.4-2.3-2.4c-1.4,0-2.2,1.1-2.2,2.3v0c0,1.3,0.9,2.4,2.3,2.4
		C-694.6,571-693.8,569.9-693.8,568.6L-693.8,568.6z"/>
	<path class="st5" d="M-686.8,573c-1.5,0-2.5-0.6-2.5-2.6v-4.1h-1v-2.1h1v-2.2h2.4v2.2h2v2.1h-2v3.7c0,0.6,0.2,0.8,0.8,0.8
		c0.4,0,0.8-0.1,1.2-0.3v2C-685.3,572.8-685.9,573-686.8,573z"/>
	<path class="st5" d="M-670.2,569.4h-6c0.2,1.1,1,1.7,2.1,1.7c0.8,0,1.4-0.3,2.1-0.9l1.4,1.2c-0.8,1-2,1.6-3.5,1.6
		c-2.6,0-4.5-1.8-4.5-4.4v0c0-2.4,1.7-4.5,4.2-4.5c2.9,0,4.2,2.2,4.2,4.7v0C-670.2,569.1-670.2,569.2-670.2,569.4z M-674.4,566.1
		c-1,0-1.7,0.7-1.9,1.8h3.7C-672.7,566.8-673.4,566.1-674.4,566.1z"/>
	<path class="st5" d="M-657.7,572.9v-4.8c0-1.2-0.5-1.7-1.4-1.7s-1.5,0.6-1.5,1.7v4.8h-2.4v-4.8c0-1.2-0.5-1.7-1.4-1.7
		s-1.5,0.6-1.5,1.7v4.8h-2.4v-8.6h2.4v1.2c0.6-0.7,1.3-1.4,2.5-1.4c1.1,0,2,0.5,2.4,1.4c0.8-0.9,1.6-1.4,2.8-1.4
		c1.8,0,2.9,1.1,2.9,3.2v5.6H-657.7z"/>
	<path class="st5" d="M-648.1,573c-1.3,0-2.1-0.6-2.7-1.3v3.7h-2.4v-11.1h2.4v1.2c0.6-0.8,1.4-1.4,2.7-1.4c2,0,3.9,1.6,3.9,4.4v0
		C-644.2,571.5-646.1,573-648.1,573z M-646.6,568.6c0-1.4-1-2.4-2.1-2.4s-2.1,0.9-2.1,2.4v0c0,1.4,0.9,2.4,2.1,2.4
		S-646.6,570-646.6,568.6L-646.6,568.6z"/>
	<path class="st5" d="M-639.5,573c-1.5,0-2.5-0.6-2.5-2.6v-4.1h-1v-2.1h1v-2.2h2.4v2.2h2v2.1h-2v3.7c0,0.6,0.2,0.8,0.8,0.8
		c0.4,0,0.8-0.1,1.2-0.3v2C-638.1,572.8-638.7,573-639.5,573z"/>
	<path class="st5" d="M-630.9,573.1c-0.7,1.7-1.4,2.4-2.8,2.4c-0.9,0-1.5-0.2-2.2-0.6l0.8-1.8c0.3,0.2,0.7,0.3,1,0.3
		c0.4,0,0.6-0.1,0.8-0.6l-3.4-8.6h2.6l2,5.8l1.9-5.8h2.5L-630.9,573.1z"/>
</g>
</svg>
