<svg id="Layer_1" data-name="Layer 1" xmlns="http://www.w3.org/2000/svg" xmlns:xlink="http://www.w3.org/1999/xlink" viewBox="0 0 277.9 300"><defs><clipPath id="clip-path"><circle cx="46.43" cy="196.48" r="12.48" style="fill:#69a92c"/></clipPath><clipPath id="clip-path-2"><rect x="23.97" y="79.17" width="234" height="356.21" style="fill:#69a92c"/></clipPath><clipPath id="clip-path-3"><circle cx="46.43" cy="236.48" r="12.48" style="fill:#69a92c"/></clipPath><clipPath id="clip-path-4"><rect x="23.97" y="74.24" width="234" height="356.21" style="fill:#69a92c"/></clipPath><clipPath id="clip-path-5"><circle cx="46.43" cy="276.48" r="12.48" style="fill:#69a92c"/></clipPath><clipPath id="clip-path-6"><rect x="23.97" y="69.31" width="234" height="356.21" style="fill:#69a92c"/></clipPath></defs><title>clean-simple</title><path d="M277.9,46.5a44.11,44.11,0,0,0-44-43.9h-1.5V1.3A1.44,1.44,0,0,0,230.9,0H188.4a1.44,1.44,0,0,0-1.5,1.3V2.6H47a44.13,44.13,0,0,0-44,44V83.2H1.5A1.43,1.43,0,0,0,0,84.5v22.7a1.71,1.71,0,0,0,1.5,1.6H3v29.3H1.5A1.43,1.43,0,0,0,0,139.4v17.2a1.71,1.71,0,0,0,1.5,1.6H3v27.9H1.5A1.43,1.43,0,0,0,0,187.4v17.2a1.71,1.71,0,0,0,1.5,1.6H3V300H277.9V46.5Z" style="fill:#fffffe"/><rect x="23.6" y="87.2" width="234.5" height="212.8" style="fill:#303030"/><path d="M163.1,47.3h-44a5.5,5.5,0,0,0,0,11h44a5.55,5.55,0,0,0,5.5-5.5A5.42,5.42,0,0,0,163.1,47.3Z" style="fill:#bdbdbd"/><circle cx="140.4" cy="30.8" r="5.5" style="fill:#bdbdbd"/><path d="M233.9,4.6h-1.5a2,2,0,0,1-2-2V2H188.9V2.4a2,2,0,0,1-2,2H46.9a42.06,42.06,0,0,0-42,42V83a2,2,0,0,1-2,2H2v21.7H2.9a2,2,0,0,1,2,2V138a2,2,0,0,1-2,2H2v16.2H2.9a2,2,0,0,1,2,2v27.9a2,2,0,0,1-2,2H2v16.2H2.9a2,2,0,0,1,2,2V300h271V46.6A42.12,42.12,0,0,0,233.9,4.6Z" style="fill:none"/><path d="M5,206.3a2,2,0,0,0-2-2H2.1V188.1H3a2,2,0,0,0,2-2V158.2a2,2,0,0,0-2-2H2.1V140H3a2,2,0,0,0,2-2V108.7a2,2,0,0,0-2-2H2.1V85H3a2,2,0,0,0,2-2V46.4a42.06,42.06,0,0,1,42-42H187a2,2,0,0,0,2-2V2h41.4V2.6a2,2,0,0,0,2,2h1.5a42.06,42.06,0,0,1,42,42V300h2V46.5a44.13,44.13,0,0,0-44-44h-1.5V1.2A1.27,1.27,0,0,0,231,0H188.5A1.44,1.44,0,0,0,187,1.3V2.6H47a44.13,44.13,0,0,0-44,44V83.2H1.5A1.43,1.43,0,0,0,0,84.5v22.7a1.71,1.71,0,0,0,1.5,1.6H3v29.3H1.5A1.43,1.43,0,0,0,0,139.4v17.2a1.71,1.71,0,0,0,1.5,1.6H3v27.9H1.5A1.43,1.43,0,0,0,0,187.4v17.2a1.71,1.71,0,0,0,1.5,1.6H3V300H5V206.3Z" style="fill:#bdbdbd"/><rect x="23.95" y="87" width="234" height="48" style="fill:#4e4e4e"/><rect x="23.95" y="87" width="234" height="44.93" style="fill:none"/><g style="opacity:0.870000004768372"><path d="M39.57,114.07v7.26h-1.8v-7.2l-3.48-13.8h1.86l2.52,11.13,2.58-11.13H43Z" style="fill:#fff"/><path d="M47.37,121.51c-2.34,0-3.51-1.2-3.51-3.51v-9.45q0-3.51,3.51-3.51H48c2.31,0,3.48,1.17,3.48,3.51V118c0,2.31-1.17,3.51-3.48,3.51H47.37Zm0-14.85a1.6,1.6,0,0,0-1.8,1.83v9.57a1.58,1.58,0,0,0,1.8,1.8H48a1.58,1.58,0,0,0,1.8-1.8v-9.57a1.6,1.6,0,0,0-1.8-1.83H47.4Z" style="fill:#fff"/><path d="M61.29,121.33H59.55v-1.11a4.44,4.44,0,0,1-3,1.29H56.49a2.44,2.44,0,0,1-2.7-2.76V105.22h1.74v13.2A1.27,1.27,0,0,0,57,119.86h0.06a4.21,4.21,0,0,0,2.49-1V105.22h1.74v16.11Z" style="fill:#fff"/><path d="M63.78,105.22h1.71v1.62a3.09,3.09,0,0,1,2.76-1.77V107a4,4,0,0,0-2.76,1.17v13.14H63.78V105.22Z" style="fill:#fff"/><path d="M81.75,113.38v4.44c0,2.43-1.23,3.69-3.69,3.69H77.25c-2.46,0-3.69-1.26-3.69-3.69v-14c0-2.4,1.23-3.66,3.69-3.66h0.81c2.43,0,3.63,1.23,3.63,3.63v3.87H79.92v-3.9A1.7,1.7,0,0,0,78,101.83H77.31a1.7,1.7,0,0,0-1.95,1.92v14.16a1.7,1.7,0,0,0,1.95,1.92H78A1.7,1.7,0,0,0,80,117.91v-4.53h1.77Z" style="fill:#fff"/><path d="M84.12,100h1.71v6.3a4.44,4.44,0,0,1,3-1.29h0.09a2.44,2.44,0,0,1,2.7,2.76v13.53H89.88v-13.2a1.31,1.31,0,0,0-1.5-1.47h0a4.16,4.16,0,0,0-2.52,1v13.65H84.12V100Z" style="fill:#fff"/><path d="M95.64,113.95v4.11a1.6,1.6,0,0,0,1.83,1.8h0.36a1.61,1.61,0,0,0,1.83-1.8V116.2h1.68V118c0,2.31-1.2,3.51-3.51,3.51H97.41c-2.34,0-3.51-1.2-3.51-3.51v-9.45c0-2.31,1.17-3.51,3.51-3.51h0.42c2.31,0,3.51,1.2,3.51,3.51v5.4h-5.7Zm0-1.65h4v-3.81a1.61,1.61,0,0,0-1.8-1.83H97.47a1.62,1.62,0,0,0-1.83,1.83v3.81Z" style="fill:#fff"/><path d="M109.29,108.49a1.6,1.6,0,0,0-1.8-1.83h-0.42a1.6,1.6,0,0,0-1.8,1.83v9.57a1.58,1.58,0,0,0,1.8,1.8h0.45a1.58,1.58,0,0,0,1.8-1.8V115H111v3c0,2.31-1.17,3.51-3.48,3.51H107c-2.34,0-3.51-1.2-3.51-3.51v-9.45q0-3.51,3.51-3.51h0.51c2.31,0,3.45,1.17,3.45,3.45V111h-1.71v-2.55Z" style="fill:#fff"/><path d="M121,105.22l-4.2,7.86,4.11,8.25H119l-3.87-8v8H113.4V100h1.71v13l4-7.8H121Z" style="fill:#fff"/><path d="M127.56,108.28a1.48,1.48,0,0,0-1.71-1.65h-0.42a1.49,1.49,0,0,0-1.71,1.65v1.47a1.91,1.91,0,0,0,1,1.83l2.73,1.68a3.27,3.27,0,0,1,1.83,3.15v1.71c0,2.19-1.14,3.39-3.42,3.39H125.4c-2.28,0-3.39-1.2-3.39-3.36v-2.46h1.68v2.58a1.47,1.47,0,0,0,1.71,1.62h0.51a1.45,1.45,0,0,0,1.68-1.62v-1.65a1.87,1.87,0,0,0-1-1.8l-2.73-1.71A3.27,3.27,0,0,1,122,110v-1.53c0-2.22,1.11-3.39,3.42-3.39h0.42c2.28,0,3.36,1.17,3.36,3.36v2.34h-1.68v-2.46Z" style="fill:#fff"/></g><g style="opacity:0.870000004768372"><path d="M71.44,196.47v4.41H70.34v-9.8h1.11v4.36H77.1v-4.36h1.11v9.8H77.1v-4.41H71.44Z" style="fill:#fff"/><path d="M84.69,200.88H83.57V192.1H80.28v-1H88v1H84.69v8.78Z" style="fill:#fff"/><path d="M93.76,200.88H92.64V192.1H89.35v-1h7.7v1H93.76v8.78Z" style="fill:#fff"/><path d="M102.61,197.42h-2.38v3.46H99.12v-9.8h3.67c2.21,0,3.67,1.18,3.67,3.12C106.46,196.33,104.7,197.42,102.61,197.42Zm0.1-5.32h-2.48v4.31h2.42c1.63,0,2.69-.87,2.69-2.17S104.29,192.1,102.71,192.1Z" style="fill:#fff"/><path d="M113.33,196.86c0,2.24,1.12,3.92,3.25,5.28l-0.46.71c-2.49-1.4-3.88-3.42-3.88-6s1.39-4.59,3.88-6l0.46,0.71C114.45,192.94,113.33,194.62,113.33,196.86Z" style="fill:#fff"/><path d="M125.84,192.08h-6v3.35h5.35v1h-5.35v3.43h6.05v1h-7.16v-9.8h7.09v1Z" style="fill:#fff"/><path d="M128.13,191.08h1.11v8.78h5.52v1h-6.63v-9.8Z" style="fill:#fff"/><path d="M144.16,193.53a2.37,2.37,0,0,1-1.55,2.28,2.47,2.47,0,0,1,2.1,2.38c0,1.7-1.41,2.69-3.56,2.69h-4.36v-9.8H141C142.9,191.08,144.16,192,144.16,193.53Zm-1.12.15c0-1-.77-1.61-2.17-1.61h-3v3.38h2.9C142.12,195.45,143,194.84,143,193.68Zm0.55,4.44c0-1.08-.9-1.7-2.61-1.7h-3.1v3.46h3.29C142.66,199.89,143.59,199.23,143.59,198.12Z" style="fill:#fff"/><path d="M146.76,190.86c2.49,1.4,3.88,3.42,3.88,6s-1.39,4.59-3.88,6l-0.46-.71c2.13-1.36,3.25-3,3.25-5.28s-1.12-3.92-3.25-5.28Z" style="fill:#fff"/></g><g style="opacity:0.870000004768372"><path d="M71.44,236.47v4.41H70.34v-9.81h1.11v4.36H77.1v-4.36h1.11v9.81H77.1v-4.41H71.44Z" style="fill:#fff"/><path d="M84.69,240.88H83.57V232.1H80.28v-1H88v1H84.69v8.78Z" style="fill:#fff"/><path d="M93.76,240.88H92.64V232.1H89.35v-1h7.7v1H93.76v8.78Z" style="fill:#fff"/><path d="M102.61,237.42h-2.38v3.46H99.12v-9.81h3.67c2.21,0,3.67,1.18,3.67,3.12C106.46,236.33,104.7,237.42,102.61,237.42Zm0.1-5.32h-2.48v4.31h2.42c1.63,0,2.69-.87,2.69-2.17S104.29,232.1,102.71,232.1Z" style="fill:#fff"/><path d="M112,235.44c2.19,0.48,3.19,1.28,3.19,2.79,0,1.69-1.4,2.79-3.35,2.79a5.74,5.74,0,0,1-4-1.57l0.69-.81a4.67,4.67,0,0,0,3.36,1.39c1.32,0,2.18-.69,2.18-1.68s-0.49-1.44-2.55-1.88c-2.26-.49-3.29-1.22-3.29-2.84s1.36-2.69,3.22-2.69a5.12,5.12,0,0,1,3.45,1.2l-0.64.85a4.31,4.31,0,0,0-2.83-1.06c-1.27,0-2.09.7-2.09,1.6S109.83,235,112,235.44Z" style="fill:#fff"/><path d="M122.29,236.86c0,2.24,1.12,3.92,3.25,5.28l-0.46.71c-2.49-1.4-3.88-3.42-3.88-6s1.39-4.59,3.88-6l0.46,0.71C123.41,232.94,122.29,234.62,122.29,236.86Z" style="fill:#fff"/><path d="M131.22,235.44c2.19,0.48,3.19,1.28,3.19,2.79,0,1.69-1.4,2.79-3.35,2.79a5.74,5.74,0,0,1-4-1.57l0.69-.81a4.67,4.67,0,0,0,3.36,1.39c1.32,0,2.18-.69,2.18-1.68s-0.49-1.44-2.55-1.88c-2.26-.49-3.29-1.22-3.29-2.84s1.36-2.69,3.22-2.69a5.12,5.12,0,0,1,3.45,1.2l-0.64.85a4.31,4.31,0,0,0-2.83-1.06c-1.27,0-2.09.7-2.09,1.6S129.07,235,131.22,235.44Z" style="fill:#fff"/><path d="M139.68,240.11a3,3,0,0,0,2.28-1l0.67,0.6a3.74,3.74,0,0,1-3,1.36,3.79,3.79,0,0,1-.14-7.56c2.14,0,3.38,1.71,3.38,3.84a2.81,2.81,0,0,1,0,.34h-5.74A2.54,2.54,0,0,0,139.68,240.11Zm2.12-3.25a2.38,2.38,0,0,0-2.31-2.46,2.5,2.5,0,0,0-2.35,2.46h4.67Z" style="fill:#fff"/><path d="M148,241a3.78,3.78,0,1,1,2.9-6.28l-0.71.76a2.93,2.93,0,0,0-2.2-1.09,2.68,2.68,0,0,0-2.59,2.82,2.71,2.71,0,0,0,2.66,2.83,3,3,0,0,0,2.21-1.08l0.69,0.64A3.73,3.73,0,0,1,148,241Z" style="fill:#fff"/><path d="M161.7,241a4.81,4.81,0,0,1-5-5.06,4.92,4.92,0,0,1,4.92-5.08,5.17,5.17,0,0,1,3.66,1.3l-0.71.84a4.17,4.17,0,0,0-3-1.12,3.83,3.83,0,0,0-3.73,4,3.79,3.79,0,0,0,3.88,4.09,4.61,4.61,0,0,0,2.83-1v-2.44h-3v-1h4v3.91A5.94,5.94,0,0,1,161.7,241Z" style="fill:#fff"/><path d="M169,240.88h-1.08v-7.24H169v1.89a3.1,3.1,0,0,1,3-2v1.16H171.9c-1.58,0-2.87,1.13-2.87,3.32v2.89Z" style="fill:#fff"/><path d="M176.61,241a3.71,3.71,0,0,1-3.75-3.77A3.77,3.77,0,1,1,176.61,241Zm0-6.61a2.66,2.66,0,0,0-2.65,2.82,2.72,2.72,0,0,0,2.67,2.83,2.67,2.67,0,0,0,2.66-2.8A2.74,2.74,0,0,0,176.61,234.44Z" style="fill:#fff"/><path d="M187.49,233.64h1.06v7.24h-1.06v-1.26A2.76,2.76,0,0,1,185,241a2.65,2.65,0,0,1-2.77-2.9v-4.5h1.08v4.23a1.93,1.93,0,0,0,2,2.18,2.14,2.14,0,0,0,2.17-2.27v-4.15Z" style="fill:#fff"/><path d="M194.83,241a3.27,3.27,0,0,1-2.77-1.54v3.63H191v-9.48h1.08v1.46a3.25,3.25,0,0,1,2.77-1.61A3.79,3.79,0,0,1,194.83,241Zm-0.2-6.58a2.82,2.82,0,0,0,0,5.62,2.56,2.56,0,0,0,2.55-2.8A2.61,2.61,0,0,0,194.63,234.45Z" style="fill:#fff"/><path d="M199.91,230.86c2.49,1.4,3.88,3.42,3.88,6s-1.39,4.59-3.88,6l-0.46-.71c2.13-1.36,3.25-3,3.25-5.28s-1.12-3.92-3.25-5.28Z" style="fill:#fff"/></g><g style="opacity:0.870000004768372"><path d="M73.85,275.44C76,275.92,77,276.72,77,278.23c0,1.69-1.4,2.79-3.35,2.79a5.74,5.74,0,0,1-4-1.57l0.69-.81A4.67,4.67,0,0,0,73.74,280c1.32,0,2.19-.69,2.19-1.68s-0.49-1.44-2.55-1.88c-2.25-.49-3.29-1.22-3.29-2.84s1.36-2.69,3.22-2.69a5.12,5.12,0,0,1,3.45,1.2l-0.64.85a4.31,4.31,0,0,0-2.83-1.06c-1.27,0-2.09.7-2.09,1.6S71.7,275,73.85,275.44Z" style="fill:#fff"/><path d="M89,280.35l-0.76.83L86.94,280a5.1,5.1,0,1,1,1.92-4,5.13,5.13,0,0,1-1.18,3.31Zm-4.68-2.62,0.74-.83,1.81,1.64a4.16,4.16,0,0,0,.85-2.55,3.9,3.9,0,0,0-3.87-4.06A3.86,3.86,0,0,0,80,276,3.9,3.9,0,0,0,83.88,280a3.69,3.69,0,0,0,2.26-.74Z" style="fill:#fff"/><path d="M91.2,271.07H92.3v8.78h5.52v1H91.2v-9.81Z" style="fill:#fff"/><path d="M104.72,276.86c0,2.24,1.12,3.92,3.25,5.28l-0.46.71c-2.49-1.4-3.88-3.42-3.88-6s1.39-4.59,3.88-6l0.46,0.71C105.84,272.94,104.72,274.62,104.72,276.86Z" style="fill:#fff"/><path d="M116.89,280.88L114,277.07h-2.8v3.81h-1.11v-9.81h4.22c2.16,0,3.54,1.16,3.54,2.93a2.87,2.87,0,0,1-2.66,2.87l3,4h-1.36Zm-2.62-8.78h-3v4h3c1.47,0,2.52-.76,2.52-2S115.85,272.1,114.27,272.1Z" style="fill:#fff"/><path d="M123.66,280.88h-3.4v-9.81h3.4A4.91,4.91,0,1,1,123.66,280.88Zm0-8.78h-2.3v7.76h2.3A3.88,3.88,0,1,0,123.66,272.1Z" style="fill:#fff"/><path d="M134.58,275.44c2.19,0.48,3.19,1.28,3.19,2.79,0,1.69-1.4,2.79-3.35,2.79a5.74,5.74,0,0,1-4-1.57l0.69-.81a4.67,4.67,0,0,0,3.36,1.39c1.32,0,2.18-.69,2.18-1.68s-0.49-1.44-2.55-1.88c-2.26-.49-3.29-1.22-3.29-2.84s1.36-2.69,3.22-2.69a5.12,5.12,0,0,1,3.45,1.2l-0.64.85a4.31,4.31,0,0,0-2.83-1.06c-1.27,0-2.09.7-2.09,1.6S132.43,275,134.58,275.44Z" style="fill:#fff"/><path d="M147.63,280.88h-3.4v-9.81h3.4A4.91,4.91,0,1,1,147.63,280.88Zm0-8.78h-2.3v7.76h2.3A3.88,3.88,0,1,0,147.63,272.1Z" style="fill:#fff"/><path d="M162.55,273.53a2.37,2.37,0,0,1-1.55,2.28,2.47,2.47,0,0,1,2.1,2.38c0,1.69-1.41,2.69-3.56,2.69h-4.36v-9.81h4.17C161.28,271.07,162.55,272,162.55,273.53Zm-1.12.15c0-1-.77-1.61-2.17-1.61h-3v3.38h2.9C160.5,275.44,161.42,274.84,161.42,273.68Zm0.55,4.44c0-1.08-.9-1.7-2.61-1.7h-3.1v3.46h3.29C161,279.88,162,279.23,162,278.12Z" style="fill:#fff"/><path d="M165.15,270.86c2.49,1.4,3.88,3.42,3.88,6s-1.39,4.59-3.88,6l-0.46-.71c2.13-1.36,3.25-3,3.25-5.28s-1.12-3.92-3.25-5.28Z" style="fill:#fff"/></g><circle cx="46.43" cy="196.48" r="12.48" style="fill:#69a92c"/><g style="clip-path:url(#clip-path)"><rect x="23.97" y="79.17" width="234" height="356.21" style="fill:#69a92c"/><g style="clip-path:url(#clip-path-2)"><circle cx="46.43" cy="196.48" r="12.48" style="fill:#69a92c"/></g></g><path d="M37.43,187.48h18v18h-18v-18Z" style="fill:none"/><path d="M44.18,199.61l-3.13-3.13L40,197.54l4.19,4.19,9-9-1.06-1.06Z" style="fill:#303030"/><circle cx="46.43" cy="236.48" r="12.48" style="fill:#69a92c"/><g style="clip-path:url(#clip-path-3)"><rect x="23.97" y="74.24" width="234" height="356.21" style="fill:#69a92c"/><g style="clip-path:url(#clip-path-4)"><circle cx="46.43" cy="236.48" r="12.48" style="fill:#69a92c"/></g></g><circle cx="46.43" cy="276.48" r="12.48" style="fill:#69a92c"/><g style="clip-path:url(#clip-path-5)"><rect x="23.97" y="69.31" width="234" height="356.21" style="fill:#69a92c"/><g style="clip-path:url(#clip-path-6)"><circle cx="46.43" cy="276.48" r="12.48" style="fill:#69a92c"/></g></g><g style="opacity:0.560000002384186"><path d="M35.1,157.18v-1.5h6.49V157l-2.73,2.8c1.5,0.2,2.89.94,2.89,2.77a3.14,3.14,0,0,1-3.43,3.11,4.65,4.65,0,0,1-3.75-1.72l1.2-1.12a3.2,3.2,0,0,0,2.58,1.29A1.54,1.54,0,0,0,40,162.6c0-1-.87-1.53-2.25-1.53H37L36.7,160l2.65-2.82H35.1Z" style="fill:#ff0"/><path d="M52.61,165.65a5.07,5.07,0,0,1,.07-10.14A5.11,5.11,0,0,1,56.52,157l-1.11,1.28a3.9,3.9,0,0,0-2.75-1.22,3.5,3.5,0,0,0,0,7,3.84,3.84,0,0,0,2.82-1.27l1.11,1.12A5.06,5.06,0,0,1,52.61,165.65Z" style="fill:#ff0"/><path d="M59.89,165.49H58.2V155.26h1.69v4a2.66,2.66,0,0,1,2.31-1.3,2.54,2.54,0,0,1,2.63,2.84v4.71H63.14v-4.2a1.55,1.55,0,0,0-1.58-1.81,1.65,1.65,0,0,0-1.67,1.83v4.17Z" style="fill:#ff0"/><path d="M70.3,164.27a2.69,2.69,0,0,0,2-.88l1,0.88a3.74,3.74,0,0,1-3,1.39,3.86,3.86,0,0,1-.18-7.72c2.35,0,3.54,1.85,3.54,4,0,0.15,0,.29,0,0.46H68.17A2.07,2.07,0,0,0,70.3,164.27Zm1.65-3a1.92,1.92,0,0,0-1.88-1.95,2,2,0,0,0-1.92,1.95h3.8Z" style="fill:#ff0"/><path d="M78.75,165.65a3.78,3.78,0,0,1-3.82-3.84,3.82,3.82,0,0,1,3.84-3.88,3.69,3.69,0,0,1,3,1.28l-1.05,1.13a2.49,2.49,0,0,0-1.92-.92,2.22,2.22,0,0,0-2.13,2.37,2.25,2.25,0,0,0,2.21,2.4,2.6,2.6,0,0,0,1.92-.92l1,1A3.74,3.74,0,0,1,78.75,165.65Z" style="fill:#ff0"/><path d="M90.25,165.49h-2l-2.23-3.19-1,1.08v2.12H83.33V155.26H85v6.11l3.07-3.28h2.06l-2.94,3Z" style="fill:#ff0"/><path d="M94,165.63a5.19,5.19,0,0,1-3.14-1.11l0.76-1.15a4.15,4.15,0,0,0,2.42.91,0.93,0.93,0,0,0,1.15-.8v0c0-.57-0.78-0.77-1.65-1-1.09-.31-2.31-0.76-2.31-2.17v0A2.36,2.36,0,0,1,93.87,158a5.12,5.12,0,0,1,2.72.84L95.92,160a4.3,4.3,0,0,0-2.09-.7,0.86,0.86,0,0,0-1,.74v0c0,0.53.8,0.76,1.67,1,1.08,0.34,2.3.83,2.3,2.16v0C96.76,164.86,95.55,165.63,94,165.63Z" style="fill:#ff0"/><path d="M106.54,162.33h-1.95v3.15h-1.72v-9.81h3.87c2.28,0,3.73,1.29,3.73,3.29C110.46,161.19,108.7,162.33,106.54,162.33Zm0.06-5.08h-2v3.53h2a1.84,1.84,0,0,0,2.12-1.76C108.71,157.85,107.89,157.25,106.6,157.25Z" style="fill:#ff0"/><path d="M116.55,165.49v-0.91a3,3,0,0,1-2.4,1.07,2.37,2.37,0,0,1-2.63-2.28v0c0-1.6,1.27-2.38,3-2.38a6.21,6.21,0,0,1,2,.31v-0.18a1.54,1.54,0,0,0-1.82-1.58,5.15,5.15,0,0,0-2.12.46l-0.46-1.36A6.34,6.34,0,0,1,115,158c2.18,0,3.25,1.15,3.25,3.12v4.38h-1.68Zm0-3.14a4.84,4.84,0,0,0-1.69-.29c-1.07,0-1.7.43-1.7,1.19v0a1.22,1.22,0,0,0,1.43,1.09,1.73,1.73,0,0,0,2-1.55v-0.46Z" style="fill:#ff0"/><path d="M122.78,165.63a5.2,5.2,0,0,1-3.14-1.11l0.76-1.15a4.15,4.15,0,0,0,2.42.91,0.94,0.94,0,0,0,1.15-.8v0c0-.57-0.79-0.77-1.65-1-1.09-.31-2.31-0.76-2.31-2.17v0a2.36,2.36,0,0,1,2.63-2.26,5.13,5.13,0,0,1,2.72.84l-0.67,1.2a4.3,4.3,0,0,0-2.09-.7,0.86,0.86,0,0,0-1,.74v0c0,0.53.8,0.76,1.67,1,1.08,0.34,2.3.83,2.3,2.16v0C125.53,164.86,124.32,165.63,122.78,165.63Z" style="fill:#ff0"/><path d="M129.78,165.63a5.2,5.2,0,0,1-3.14-1.11l0.76-1.15a4.15,4.15,0,0,0,2.42.91,0.94,0.94,0,0,0,1.15-.8v0c0-.57-0.79-0.77-1.65-1-1.09-.31-2.31-0.76-2.31-2.17v0a2.36,2.36,0,0,1,2.63-2.26,5.13,5.13,0,0,1,2.72.84l-0.67,1.2a4.3,4.3,0,0,0-2.09-.7,0.86,0.86,0,0,0-1,.74v0c0,0.53.8,0.76,1.67,1,1.08,0.34,2.3.83,2.3,2.16v0C132.53,164.86,131.32,165.63,129.78,165.63Z" style="fill:#ff0"/><path d="M134.27,157v-1.61h1.82V157h-1.82Zm0.07,8.53v-7.4H136v7.4h-1.69Z" style="fill:#ff0"/><path d="M139.94,165.49h-1.7v-7.4h1.7v1.15a2.66,2.66,0,0,1,2.31-1.3,2.54,2.54,0,0,1,2.63,2.84v4.71h-1.7v-4.2a1.55,1.55,0,0,0-1.58-1.81,1.65,1.65,0,0,0-1.67,1.83v4.17Z" style="fill:#ff0"/><path d="M150.22,167.75a6.37,6.37,0,0,1-3.31-.88l0.63-1.27a4.81,4.81,0,0,0,2.63.78,2.07,2.07,0,0,0,2.34-2.27v-0.57a3.1,3.1,0,0,1-2.61,1.36,3.48,3.48,0,0,1,0-7,3.19,3.19,0,0,1,2.59,1.26v-1.11h1.7V164C154.2,166.59,152.77,167.75,150.22,167.75Zm0.14-8.39a2.05,2.05,0,1,0,0,4.1A2.06,2.06,0,1,0,150.36,159.37Z" style="fill:#ff0"/></g><path d="M37.43,227.48h18v18h-18v-18Z" style="fill:none"/><path d="M44.18,239.61l-3.13-3.13L40,237.54l4.19,4.19,9-9-1.06-1.06Z" style="fill:#303030"/><path d="M37.43,267.48h18v18h-18v-18Z" style="fill:none"/><path d="M44.18,279.61l-3.13-3.13L40,277.54l4.19,4.19,9-9-1.06-1.06Z" style="fill:#303030"/></svg>