<?xml version="1.0" encoding="utf-8"?>
<!-- Generator: Adobe Illustrator 19.1.0, SVG Export Plug-In . SVG Version: 6.00 Build 0)  -->
<svg version="1.1" id="Layer_1" xmlns="http://www.w3.org/2000/svg" xmlns:xlink="http://www.w3.org/1999/xlink" x="0px" y="0px"
	 viewBox="120 180 320 320" style="enable-background:new 120 180 320 320;" xml:space="preserve">
<style type="text/css">
	.st0{fill:#607D8B;}
	.st1{fill:#F57C00;}
</style>
<g>
	<path class="st0" d="M250.6,477.4h-1.1v-3.9l-4.1-5.9h1.3l3.3,4.9l3.3-4.9h1.3l-4.1,5.9v3.9H250.6z"/>
	<path class="st0" d="M258,477.6c-2.2,0-3.8-1.7-3.8-3.8s1.6-3.8,3.8-3.8c2.2,0,3.8,1.7,3.8,3.8S260.2,477.6,258,477.6z M258,471
		c-1.6,0-2.6,1.2-2.6,2.8s1.1,2.8,2.7,2.8c1.6,0,2.7-1.2,2.7-2.8C260.7,472.2,259.5,471,258,471z"/>
	<path class="st0" d="M268.9,470.2h1.1v7.2h-1.1v-1.2c-0.5,0.8-1.2,1.4-2.5,1.4c-1.8,0-2.8-1.2-2.8-2.9v-4.5h1.1v4.2
		c0,1.3,0.7,2.2,2,2.2c1.2,0,2.2-0.9,2.2-2.3V470.2L268.9,470.2z"/>
	<path class="st0" d="M273.4,477.4h-1.1v-7.2h1.1v1.9c0.5-1.2,1.6-2.1,3-2v1.2h-0.1c-1.6,0-2.9,1.1-2.9,3.3V477.4z"/>
	<path class="st0" d="M291.5,477.4h-1.2l-1.1-2.6h-5.3l-1.2,2.6h-1.1l4.5-9.9h1L291.5,477.4z M286.5,468.8l-2.2,5h4.5L286.5,468.8z"
		/>
	<path class="st0" d="M298.1,467.6h0.9l2.7,8.2l2.8-8.2h1.2l-3.5,9.9h-0.9l-2.7-8l-2.7,8H295l-3.5-9.9h1.2l2.8,8.2L298.1,467.6z"/>
	<path class="st0" d="M311,472c2.2,0.5,3.2,1.3,3.2,2.8c0,1.7-1.4,2.8-3.3,2.8c-1.6,0-2.8-0.5-4-1.6l0.7-0.8c1,0.9,2,1.4,3.4,1.4
		c1.3,0,2.2-0.7,2.2-1.7c0-0.9-0.5-1.4-2.5-1.9c-2.3-0.5-3.3-1.2-3.3-2.8s1.4-2.7,3.2-2.7c1.4,0,2.5,0.4,3.4,1.2l-0.6,0.9
		c-0.9-0.7-1.8-1.1-2.8-1.1c-1.3,0-2.1,0.7-2.1,1.6C308.3,471,308.8,471.5,311,472z"/>
	<path class="st0" d="M240.4,493.4c1,0,1.7-0.4,2.3-1l0.7,0.6c-0.7,0.8-1.6,1.4-3,1.4c-2,0-3.6-1.5-3.6-3.8c0-2.1,1.5-3.8,3.5-3.8
		c2.1,0,3.4,1.7,3.4,3.8c0,0.1,0,0.2,0,0.3H238C238,492.6,239.1,493.4,240.4,493.4z M242.5,490.2c-0.1-1.3-0.9-2.5-2.3-2.5
		c-1.3,0-2.2,1.1-2.4,2.5H242.5z"/>
	<path class="st0" d="M246.6,494.2h-1.1V487h1.1v1.3c0.5-0.8,1.2-1.4,2.5-1.4c1.8,0,2.8,1.2,2.8,2.9v4.5h-1.1v-4.2
		c0-1.3-0.7-2.2-2-2.2c-1.2,0-2.2,0.9-2.2,2.3V494.2L246.6,494.2z"/>
	<path class="st0" d="M259.5,487h1.2l-3.2,7.3h-1l-3.1-7.3h1.2l2.4,6L259.5,487z"/>
	<path class="st0" d="M262.3,485.4v-1.2h1.2v1.2H262.3z M262.4,494.2V487h1.1v7.2H262.4z"/>
	<path class="st0" d="M267.1,494.2H266V487h1.1v1.9c0.5-1.2,1.6-2.1,3-2v1.2H270c-1.6,0-2.9,1.1-2.9,3.3V494.2z"/>
	<path class="st0" d="M275,494.4c-2.2,0-3.8-1.7-3.8-3.8s1.6-3.8,3.8-3.8s3.8,1.7,3.8,3.8S277.2,494.4,275,494.4z M275,487.8
		c-1.6,0-2.6,1.2-2.6,2.8s1.1,2.8,2.7,2.8c1.6,0,2.7-1.2,2.7-2.8C277.7,489,276.5,487.8,275,487.8z"/>
	<path class="st0" d="M281.8,494.2h-1.1V487h1.1v1.3c0.5-0.8,1.2-1.4,2.5-1.4c1.8,0,2.8,1.2,2.8,2.9v4.5H286v-4.2
		c0-1.3-0.7-2.2-2-2.2c-1.2,0-2.2,0.9-2.2,2.3V494.2z"/>
	<path class="st0" d="M297.6,486.8c1.7,0,2.7,1.1,2.7,2.9v4.5h-1.1V490c0-1.4-0.7-2.2-1.9-2.2c-1.1,0-2,0.8-2,2.2v4.2h-1.1v-4.3
		c0-1.4-0.7-2.2-1.9-2.2c-1.1,0-2,1-2,2.3v4.1h-1.1v-7.2h1.1v1.2c0.5-0.7,1.1-1.4,2.3-1.4s1.9,0.6,2.3,1.4
		C295.6,487.5,296.4,486.8,297.6,486.8z"/>
	<path class="st0" d="M305.8,493.4c1,0,1.7-0.4,2.3-1l0.7,0.6c-0.7,0.8-1.6,1.4-3,1.4c-2,0-3.6-1.5-3.6-3.8c0-2.1,1.5-3.8,3.5-3.8
		c2.1,0,3.4,1.7,3.4,3.8c0,0.1,0,0.2,0,0.3h-5.7C303.5,492.6,304.6,493.4,305.8,493.4z M308,490.2c-0.1-1.3-0.9-2.5-2.3-2.5
		c-1.3,0-2.2,1.1-2.4,2.5H308z"/>
	<path class="st0" d="M312,494.2h-1.1V487h1.1v1.3c0.5-0.8,1.2-1.4,2.5-1.4c1.8,0,2.8,1.2,2.8,2.9v4.5h-1.1v-4.2
		c0-1.3-0.7-2.2-2-2.2c-1.2,0-2.2,0.9-2.2,2.3V494.2L312,494.2z"/>
	<path class="st0" d="M321,492.2c0,0.9,0.5,1.2,1.2,1.2c0.4,0,0.7-0.1,1.1-0.3v0.9c-0.4,0.2-0.8,0.3-1.3,0.3c-1.2,0-2-0.6-2-2v-4.4
		h-1v-1h1v-2.2h1.1v2.2h2.3v1H321V492.2z"/>
</g>
<circle class="st0" cx="280" cy="361.2" r="18"/>
<circle class="st0" cx="359.4" cy="318.7" r="18"/>
<circle class="st0" cx="200.6" cy="318.7" r="18"/>
<g>
	<path class="st0" d="M277,458.7c-2,0-4-0.1-6-0.3l0.2-3c2,0.1,3.9,0.2,5.9,0.3L277,458.7z M283.1,458.7l-0.1-3c2,0,3.9-0.1,5.9-0.3
		l0.2,3C287.1,458.5,285.1,458.6,283.1,458.7z M265,457.9c-2-0.2-4-0.5-6-0.8l0.5-3c1.9,0.3,3.9,0.6,5.9,0.8L265,457.9z
		 M295.1,457.9l-0.3-3c2-0.2,3.9-0.5,5.9-0.8l0.5,3C299.2,457.4,297.1,457.6,295.1,457.9z M253.1,456c-2-0.4-3.9-0.8-5.9-1.3
		l0.7-2.9c1.9,0.5,3.8,0.9,5.8,1.3L253.1,456z M307.1,456l-0.6-2.9c1.9-0.4,3.9-0.8,5.8-1.3l0.7,2.9C311,455.2,309,455.6,307.1,456z
		 M241.3,453.2c-1.9-0.6-3.9-1.2-5.8-1.8l1-2.8c1.9,0.6,3.7,1.2,5.6,1.8L241.3,453.2z M318.8,453.1l-0.8-2.9
		c1.9-0.6,3.8-1.2,5.6-1.8l1,2.8C322.6,451.9,320.7,452.5,318.8,453.1z M229.9,449.2c-1.9-0.7-3.8-1.5-5.6-2.3l1.2-2.7
		c1.8,0.8,3.6,1.6,5.5,2.3L229.9,449.2z M330.2,449.2l-1.1-2.8c1.8-0.7,3.6-1.5,5.4-2.3l1.2,2.7
		C333.9,447.7,332.1,448.4,330.2,449.2z M218.9,444.3c-1.8-0.9-3.6-1.9-5.3-2.8l1.5-2.6c1.7,1,3.5,1.9,5.2,2.8L218.9,444.3z
		 M341.2,444.3l-1.3-2.7c1.7-0.9,3.5-1.8,5.2-2.8l1.5,2.6C344.8,442.4,343,443.4,341.2,444.3z M208.3,438.4
		c-1.7-1.1-3.4-2.2-5.1-3.3l1.7-2.5c1.6,1.1,3.3,2.2,5,3.2L208.3,438.4z M351.7,438.4l-1.6-2.6c1.7-1,3.3-2.1,4.9-3.2l1.7,2.5
		C355.1,436.2,353.4,437.3,351.7,438.4z M198.3,431.6c-1.6-1.2-3.2-2.5-4.8-3.7l1.9-2.3c1.5,1.2,3.1,2.5,4.7,3.6L198.3,431.6z
		 M361.7,431.6l-1.8-2.4c1.6-1.2,3.1-2.4,4.6-3.6l1.9,2.3C364.9,429.1,363.3,430.4,361.7,431.6z M371,423.9l-2-2.2
		c1.5-1.3,2.9-2.7,4.3-4l2.1,2.1C374,421.2,372.5,422.6,371,423.9z M189,423.9c-1.5-1.3-3-2.7-4.4-4.1l2.1-2.1
		c1.4,1.4,2.9,2.7,4.3,4L189,423.9z M379.6,415.5l-2.2-2.1c1.3-1.4,2.7-2.9,3.9-4.4l2.3,2C382.4,412.5,381,414,379.6,415.5z
		 M180.4,415.5c-1.4-1.5-2.7-3-4-4.5l2.3-2c1.3,1.5,2.6,3,3.9,4.4L180.4,415.5z M172.5,406.3c-1.2-1.6-2.4-3.2-3.6-4.8l2.4-1.7
		c1.1,1.6,2.3,3.2,3.5,4.7L172.5,406.3z M387.5,406.3l-2.4-1.9c1.2-1.5,2.4-3.1,3.5-4.7l2.4,1.7C390,403.1,388.7,404.7,387.5,406.3z
		 M165.5,396.5c-1.1-1.7-2.2-3.4-3.2-5.1l2.6-1.5c1,1.7,2,3.4,3.1,5L165.5,396.5z M394.5,396.5l-2.5-1.6c1.1-1.6,2.1-3.3,3.1-5
		l2.6,1.5C396.7,393.1,395.6,394.8,394.5,396.5z M159.4,386.1c-0.9-1.8-1.8-3.6-2.7-5.4l2.7-1.3c0.8,1.8,1.7,3.5,2.6,5.3
		L159.4,386.1z M400.7,386.1l-2.7-1.4c0.9-1.7,1.8-3.5,2.7-5.3l2.7,1.3C402.5,382.5,401.6,384.3,400.7,386.1z M154.2,375.2
		c-0.8-1.8-1.5-3.7-2.2-5.6l2.8-1c0.7,1.8,1.4,3.7,2.2,5.5L154.2,375.2z M405.8,375.2L403,374c0.8-1.8,1.5-3.7,2.2-5.5l2.8,1
		C407.4,371.4,406.6,373.3,405.8,375.2z M150,363.9c-0.6-1.9-1.2-3.9-1.7-5.8l2.9-0.8c0.5,1.9,1.1,3.8,1.7,5.7L150,363.9z
		 M410,363.8l-2.9-0.9c0.6-1.9,1.2-3.8,1.7-5.7l2.9,0.8C411.2,360,410.7,361.9,410,363.8z M146.8,352.3c-0.4-2-0.8-3.9-1.2-5.9
		l3-0.5c0.3,1.9,0.7,3.9,1.2,5.8L146.8,352.3z M413.2,352.1l-2.9-0.7c0.4-1.9,0.8-3.8,1.2-5.8l3,0.5
		C414,348.2,413.6,350.2,413.2,352.1z M144.7,340.4c-0.3-2-0.5-4-0.7-6l3-0.3c0.2,2,0.4,3.9,0.7,5.9L144.7,340.4z M415.3,340.3
		l-3-0.4c0.3-1.9,0.5-3.9,0.6-5.9l3,0.3C415.8,336.2,415.6,338.3,415.3,340.3z M143.6,328.4c-0.1-2-0.1-4-0.1-6h3c0,2,0,3.9,0.1,5.9
		L143.6,328.4z M416.4,328.2l-3-0.1c0.1-2,0.1-3.9,0.1-5.9v-0.3h3v0.3C416.5,324.2,416.5,326.2,416.4,328.2z M146.6,316.4l-3-0.1
		c0.1-2,0.2-4,0.4-6l3,0.3C146.8,312.5,146.7,314.5,146.6,316.4z M413.4,316c-0.1-2-0.2-3.9-0.4-5.9l3-0.3c0.2,2,0.3,4,0.4,6
		L413.4,316z M147.6,304.7l-3-0.4c0.3-2,0.6-4,0.9-6l3,0.5C148.2,300.8,147.9,302.7,147.6,304.7z M412.3,304.2
		c-0.3-1.9-0.6-3.9-0.9-5.8l3-0.5c0.4,2,0.7,4,0.9,6L412.3,304.2z M149.7,293.1l-2.9-0.7c0.4-2,0.9-3.9,1.4-5.9l2.9,0.8
		C150.6,289.2,150.1,291.1,149.7,293.1z M410.2,292.6c-0.4-1.9-0.9-3.8-1.4-5.7l2.9-0.8c0.5,1.9,1,3.9,1.5,5.9L410.2,292.6z
		 M152.8,281.7l-2.9-0.9c0.6-1.9,1.3-3.8,2-5.7l2.8,1C154,277.9,153.4,279.8,152.8,281.7z M407.1,281.2c-0.6-1.9-1.3-3.7-1.9-5.6
		l2.8-1c0.7,1.9,1.4,3.8,2,5.7L407.1,281.2z M156.9,270.5l-2.8-1.2c0.8-1.9,1.6-3.7,2.5-5.5l2.7,1.3
		C158.4,266.9,157.6,268.7,156.9,270.5z M403,270.2c-0.8-1.8-1.6-3.6-2.4-5.4l2.7-1.3c0.9,1.8,1.7,3.7,2.5,5.5L403,270.2z
		 M161.9,259.9l-2.7-1.4c0.9-1.8,1.9-3.5,2.9-5.3l2.6,1.5C163.8,256.4,162.8,258.1,161.9,259.9z M397.9,259.6
		c-0.9-1.7-1.9-3.5-2.9-5.1l2.6-1.5c1,1.7,2,3.5,3,5.3L397.9,259.6z M167.9,249.7l-2.5-1.6c1.1-1.7,2.2-3.4,3.4-5l2.4,1.7
		C170.1,246.4,169,248,167.9,249.7z M391.9,249.4c-1.1-1.6-2.2-3.3-3.3-4.9l2.4-1.7c1.2,1.6,2.3,3.3,3.4,5L391.9,249.4z M174.8,240
		l-2.4-1.8c1.2-1.6,2.5-3.2,3.8-4.7l2.3,2C177.2,237,176,238.5,174.8,240z M385,239.8c-1.2-1.5-2.5-3.1-3.7-4.6l2.3-2
		c1.3,1.5,2.6,3.1,3.8,4.7L385,239.8z M182.4,231.1l-2.2-2c1.4-1.5,2.8-2.9,4.2-4.3l2.1,2.1C185.2,228.2,183.8,229.6,182.4,231.1z
		 M377.4,230.9c-1.3-1.4-2.7-2.8-4.1-4.2l2.1-2.1c1.4,1.4,2.9,2.9,4.2,4.3L377.4,230.9z M190.9,222.8l-2-2.2c1.5-1.3,3-2.7,4.6-3.9
		l1.9,2.3C193.8,220.2,192.3,221.5,190.9,222.8z M368.9,222.6c-1.5-1.3-3-2.6-4.5-3.8l1.9-2.3c1.6,1.3,3.1,2.6,4.6,3.9L368.9,222.6z
		 M200,215.3l-1.8-2.4c1.6-1.2,3.3-2.4,4.9-3.5l1.7,2.5C203.2,213,201.6,214.1,200,215.3z M359.8,215.1c-1.6-1.2-3.2-2.3-4.8-3.4
		l1.7-2.5c1.7,1.1,3.3,2.3,4.9,3.5L359.8,215.1z M209.7,208.7l-1.6-2.5c1.7-1.1,3.4-2.1,5.2-3.1l1.5,2.6
		C213.1,206.6,211.4,207.6,209.7,208.7z M350,208.5c-1.7-1-3.4-2-5.1-3l1.5-2.6c1.8,1,3.5,2,5.2,3.1L350,208.5z M220,202.9l-1.3-2.7
		c1.8-0.9,3.6-1.8,5.4-2.6l1.2,2.7C223.6,201.2,221.8,202,220,202.9z M339.6,202.7c-1.8-0.9-3.6-1.7-5.3-2.5l1.2-2.7
		c1.8,0.8,3.7,1.7,5.5,2.6L339.6,202.7z M230.8,198.1l-1.1-2.8c1.9-0.7,3.8-1.4,5.7-2.1l1,2.8C234.5,196.7,232.6,197.3,230.8,198.1z
		 M328.8,197.9c-1.8-0.7-3.7-1.4-5.6-2l1-2.8c1.9,0.7,3.8,1.4,5.7,2.1L328.8,197.9z M241.9,194.2l-0.9-2.9c1.9-0.6,3.9-1.1,5.8-1.6
		l0.7,2.9C245.7,193.1,243.8,193.6,241.9,194.2z M317.7,194.1c-1.9-0.6-3.8-1.1-5.7-1.5l0.7-2.9c1.9,0.5,3.9,1,5.8,1.6L317.7,194.1z
		 M253.4,191.4l-0.6-2.9c2-0.4,4-0.8,5.9-1.1l0.5,3C257.3,190.6,255.3,191,253.4,191.4z M306.2,191.3c-1.9-0.4-3.9-0.7-5.8-1l0.5-3
		c2,0.3,4,0.7,5.9,1L306.2,191.3z M265.1,189.5l-0.3-3c2-0.2,4-0.4,6-0.5l0.2,3C269,189.1,267,189.3,265.1,189.5z M294.5,189.5
		c-2-0.2-3.9-0.4-5.9-0.5l0.2-3c2,0.1,4,0.3,6,0.5L294.5,189.5z M276.8,188.7l-0.1-3c2,0,4-0.1,6,0l-0.1,3
		C280.8,188.7,278.8,188.7,276.8,188.7z"/>
</g>
<polygon class="st0" points="290.1,308 281,317.8 281,298.2 278,298.2 278,316.7 269.9,308 267.7,310 280,323.2 292.3,310 "/>
<polygon class="st0" points="337.9,276.5 337.2,289 325.1,274.6 322.8,276.5 334.9,291 322.4,289.4 322.1,292.4 339.9,294.6 
	340.9,276.6 "/>
<polygon class="st0" points="237.6,289.4 225.1,291 237.2,276.5 234.9,274.6 222.8,289 222.1,276.5 219.1,276.6 220.1,294.6 
	237.9,292.4 "/>
<g>
	<g>
		<path class="st0" d="M337.7,357.3c-1.5,0-3-0.5-4.2-1.6l1.3-1.5c0.9,0.7,1.8,1.2,2.9,1.2c0.9,0,1.4-0.4,1.4-0.9l0,0
			c0-0.5-0.3-0.8-2-1.2c-2-0.5-3.2-1.1-3.2-3l0,0c0-1.8,1.4-3,3.4-3c1.4,0,2.6,0.4,3.6,1.2l-1.1,1.6c-0.9-0.6-1.7-1-2.5-1
			s-1.3,0.4-1.3,0.9l0,0c0,0.6,0.4,0.9,2.1,1.3c2,0.5,3.1,1.2,3.1,2.9l0,0C341.3,356.2,339.8,357.3,337.7,357.3z"/>
		<path class="st0" d="M350,354.1h-5.2c0.2,1,0.9,1.5,1.8,1.5c0.7,0,1.2-0.2,1.8-0.8l1.2,1.1c-0.7,0.9-1.7,1.4-3.1,1.4
			c-2.3,0-3.9-1.6-3.9-3.9l0,0c0-2.1,1.5-3.9,3.7-3.9c2.5,0,3.7,1.9,3.7,4.1l0,0C350,353.8,350,353.9,350,354.1z M346.3,351.2
			c-0.9,0-1.5,0.6-1.6,1.6h3.2C347.8,351.8,347.2,351.2,346.3,351.2z"/>
		<path class="st0" d="M356,351.7c-1.4,0-2.3,0.9-2.3,2.6v2.8h-2.1v-7.5h2.1v1.5c0.4-1,1.1-1.7,2.4-1.7v2.2H356V351.7z"/>
		<path class="st0" d="M361.6,357.2h-1.9l-3-7.6h2.3l1.7,5l1.7-5h2.2L361.6,357.2z"/>
		<path class="st0" d="M365.9,348.8v-1.9h2.2v1.9H365.9z M365.9,357.1v-7.5h2.1v7.5H365.9z"/>
		<path class="st0" d="M373.6,357.3c-2.3,0-3.9-1.7-3.9-3.9l0,0c0-2.1,1.6-3.9,3.9-3.9c1.4,0,2.3,0.5,3,1.3l-1.3,1.4
			c-0.5-0.5-1-0.8-1.7-0.8c-1.1,0-1.8,0.9-1.8,2l0,0c0,1.1,0.7,2.1,1.9,2.1c0.7,0,1.2-0.3,1.7-0.8l1.2,1.3
			C375.9,356.7,375.1,357.3,373.6,357.3z"/>
		<path class="st0" d="M385,354.1h-5.2c0.2,1,0.9,1.5,1.8,1.5c0.7,0,1.2-0.2,1.8-0.8l1.2,1.1c-0.7,0.9-1.7,1.4-3.1,1.4
			c-2.3,0-3.9-1.6-3.9-3.9l0,0c0-2.1,1.5-3.9,3.7-3.9c2.5,0,3.7,1.9,3.7,4.1l0,0C385,353.8,385,353.9,385,354.1z M381.4,351.2
			c-0.9,0-1.5,0.6-1.6,1.6h3.2C382.8,351.8,382.3,351.2,381.4,351.2z"/>
		<path class="st0" d="M325,369.9c0,2,0.8,3.3,2.7,4.6l-0.9,1.4c-2.6-1.4-3.9-3.3-3.9-6c0-2.7,1.3-4.6,3.9-6l0.9,1.4
			C325.8,366.6,325,367.9,325,369.9z"/>
		<path class="st0" d="M329.5,373.9v-9.8h7.4v1.9h-5.3v2h4.6v1.9h-4.6v2.1h5.3v1.9H329.5z"/>
		<path class="st0" d="M338.8,373.9v-9.8h2.2v7.8h4.9v2H338.8z"/>
		<path class="st0" d="M352.2,373.9h-4.7v-9.8h4.6c2,0,3.2,1,3.2,2.5l0,0c0,1.1-0.6,1.7-1.3,2.1c1.1,0.4,1.8,1.1,1.8,2.4l0,0
			C355.8,373,354.4,373.9,352.2,373.9z M353.1,367c0-0.6-0.5-1-1.4-1h-2.1v2.1h2C352.5,368.1,353.1,367.8,353.1,367L353.1,367z
			 M353.7,370.9c0-0.7-0.5-1.1-1.6-1.1h-2.5v2.2h2.6C353.1,372,353.7,371.7,353.7,370.9L353.7,370.9z"/>
		<path class="st0" d="M358.2,373.9h-0.9v-2.2h2.3v1.9c0,1.8-0.9,2.6-2.6,2.6l-0.2-0.9C357.8,375.2,358.2,374.7,358.2,373.9z"/>
		<path class="st0" d="M367.6,373.9l-2.1-3.1h-1.7v3.1h-2.2v-9.8h4.5c2.3,0,3.7,1.2,3.7,3.2l0,0c0,1.6-0.9,2.6-2.1,3l2.4,3.5
			L367.6,373.9L367.6,373.9z M367.6,367.5c0-0.9-0.6-1.4-1.7-1.4h-2.1v2.8h2.2C367,368.9,367.6,368.3,367.6,367.5L367.6,367.5z"/>
		<path class="st0" d="M375.6,373.9h-3.8v-9.8h3.8c3.1,0,5.2,2.1,5.2,4.9l0,0C380.8,371.8,378.6,373.9,375.6,373.9z M378.5,369
			c0-1.7-1.2-3-3-3h-1.7v5.9h1.7C377.3,372,378.5,370.8,378.5,369L378.5,369z"/>
		<path class="st0" d="M386.2,374.1c-1.5,0-3-0.5-4.2-1.6l1.3-1.5c0.9,0.7,1.8,1.2,2.9,1.2c0.9,0,1.4-0.3,1.4-0.9l0,0
			c0-0.5-0.3-0.8-2-1.2c-2-0.5-3.2-1-3.2-3l0,0c0-1.8,1.4-3,3.4-3c1.4,0,2.6,0.4,3.6,1.2l-1.1,1.6c-0.9-0.6-1.7-1-2.5-1
			s-1.3,0.4-1.3,0.9l0,0c0,0.6,0.4,0.9,2.1,1.3c2,0.5,3.1,1.2,3.1,2.9l0,0C389.8,373,388.3,374.1,386.2,374.1z"/>
		<path class="st0" d="M392,375.9l-0.9-1.4c1.9-1.3,2.7-2.6,2.7-4.6s-0.8-3.3-2.7-4.6l0.9-1.4c2.6,1.4,3.9,3.3,3.9,6
			C395.9,372.6,394.6,374.5,392,375.9z"/>
	</g>
</g>
<g>
	<g>
		<path class="st0" d="M187.6,357.1v-9.8h7.4v1.9h-5.3v2h4.6v1.9h-4.6v2.1h5.3v1.9H187.6z"/>
		<path class="st0" d="M201.6,357.3c-2.9,0-5-2.2-5-5l0,0c0-2.8,2.1-5.1,5.1-5.1c1.8,0,3,0.6,3.9,1.5l-1.4,1.6
			c-0.8-0.7-1.5-1.1-2.5-1.1c-1.7,0-2.8,1.4-2.8,3.1l0,0c0,1.7,1.2,3.1,2.8,3.1c1.1,0,1.8-0.4,2.6-1.1l1.4,1.4
			C204.6,356.6,203.5,357.3,201.6,357.3z"/>
		<path class="st0" d="M208.5,350.4l-1.5-1.2c1-1.3,1.9-2,3.7-2c2.1,0,3.4,1.2,3.4,3c0,1.6-0.8,2.5-2.6,3.8l-1.6,1.2h4.3v1.9h-7.3
			v-1.7l3.3-2.7c1.2-1,1.7-1.5,1.7-2.4c0-0.8-0.5-1.3-1.3-1.3C209.7,349.1,209.2,349.5,208.5,350.4z"/>
		<path class="st0" d="M172,373.9v-9.8h2.2v9.8H172z"/>
		<path class="st0" d="M181.1,373.9v-4.2c0-1-0.5-1.5-1.3-1.5c-0.8,0-1.3,0.5-1.3,1.5v4.2h-2.1v-7.5h2.1v1.1
			c0.5-0.6,1.1-1.2,2.2-1.2c1.6,0,2.5,1.1,2.5,2.8v4.9L181.1,373.9L181.1,373.9z"/>
		<path class="st0" d="M187.7,374.1c-1.1,0-2.2-0.3-3.2-1.1l0.9-1.4c0.8,0.6,1.7,0.9,2.4,0.9c0.6,0,0.9-0.2,0.9-0.6l0,0
			c0-0.5-0.7-0.6-1.6-0.9c-1.1-0.3-2.2-0.8-2.2-2.3l0,0c0-1.5,1.2-2.4,2.7-2.4c1,0,2,0.3,2.8,0.9l-0.8,1.5c-0.7-0.4-1.5-0.7-2-0.7
			s-0.8,0.2-0.8,0.5l0,0c0,0.4,0.7,0.6,1.5,0.9c1.1,0.4,2.3,0.9,2.3,2.2l0,0C190.6,373.3,189.3,374.1,187.7,374.1z"/>
		<path class="st0" d="M194.6,374.1c-1.3,0-2.2-0.5-2.2-2.3v-3.6h-0.9v-1.8h0.9v-1.9h2.1v1.9h1.8v1.8h-1.8v3.2
			c0,0.5,0.2,0.7,0.7,0.7c0.4,0,0.7-0.1,1.1-0.3v1.7C195.9,373.9,195.4,374.1,194.6,374.1z"/>
		<path class="st0" d="M202.3,373.9v-0.8c-0.5,0.6-1.2,1-2.3,1c-1.4,0-2.6-0.8-2.6-2.3l0,0c0-1.6,1.2-2.4,3-2.4
			c0.8,0,1.3,0.1,1.8,0.3v-0.1c0-0.9-0.5-1.4-1.6-1.4c-0.8,0-1.4,0.2-2.1,0.4L198,367c0.8-0.4,1.6-0.6,2.9-0.6
			c2.3,0,3.3,1.2,3.3,3.2v4.4h-1.9V373.9z M202.4,370.9c-0.4-0.2-0.8-0.3-1.4-0.3c-0.9,0-1.5,0.4-1.5,1l0,0c0,0.6,0.5,0.9,1.2,0.9
			c1,0,1.7-0.5,1.7-1.3C202.4,371.2,202.4,370.9,202.4,370.9z"/>
		<path class="st0" d="M211,373.9v-4.2c0-1-0.5-1.5-1.3-1.5s-1.3,0.5-1.3,1.5v4.2h-2.1v-7.5h2.1v1.1c0.5-0.6,1.1-1.2,2.2-1.2
			c1.6,0,2.5,1.1,2.5,2.8v4.9L211,373.9L211,373.9z"/>
		<path class="st0" d="M218.5,374.1c-2.3,0-3.9-1.7-3.9-3.9l0,0c0-2.1,1.6-3.9,3.9-3.9c1.4,0,2.3,0.5,3,1.3l-1.3,1.4
			c-0.5-0.5-1-0.8-1.7-0.8c-1.1,0-1.8,0.9-1.8,2l0,0c0,1.1,0.7,2.1,1.9,2.1c0.7,0,1.2-0.3,1.7-0.8l1.2,1.3
			C220.8,373.5,220,374.1,218.5,374.1z"/>
		<path class="st0" d="M229.9,370.9h-5.2c0.2,1,0.9,1.5,1.8,1.5c0.7,0,1.2-0.2,1.8-0.8l1.2,1.1c-0.7,0.9-1.7,1.4-3.1,1.4
			c-2.3,0-3.9-1.6-3.9-3.9l0,0c0-2.1,1.5-3.9,3.7-3.9c2.5,0,3.7,1.9,3.7,4.1l0,0C229.9,370.6,229.9,370.7,229.9,370.9z M226.3,368
			c-0.9,0-1.5,0.6-1.6,1.6h3.2C227.7,368.6,227.2,368,226.3,368z"/>
	</g>
</g>
<g>
	<g>
		<path class="st0" d="M255.4,399.6c-1.5,0-3-0.5-4.2-1.6l1.3-1.5c0.9,0.7,1.8,1.2,2.9,1.2c0.9,0,1.4-0.3,1.4-0.9l0,0
			c0-0.5-0.3-0.8-2-1.2c-2-0.5-3.2-1-3.2-3l0,0c0-1.8,1.4-3,3.4-3c1.4,0,2.6,0.4,3.6,1.2l-1.1,1.6c-0.9-0.6-1.7-1-2.5-1
			s-1.3,0.4-1.3,0.9l0,0c0,0.6,0.4,0.9,2.1,1.3c2,0.5,3.1,1.2,3.1,2.9l0,0C259,398.5,257.5,399.6,255.4,399.6z"/>
		<path class="st0" d="M267.6,396.4h-5.2c0.2,1,0.9,1.5,1.8,1.5c0.7,0,1.2-0.2,1.8-0.8l1.2,1.1c-0.7,0.9-1.7,1.4-3.1,1.4
			c-2.3,0-3.9-1.6-3.9-3.9l0,0c0-2.1,1.5-3.9,3.7-3.9c2.5,0,3.7,1.9,3.7,4.1l0,0C267.6,396.1,267.6,396.3,267.6,396.4z M264,393.5
			c-0.9,0-1.5,0.6-1.6,1.6h3.2C265.4,394.2,264.9,393.5,264,393.5z"/>
		<path class="st0" d="M272.8,399.6c-2.3,0-3.9-1.7-3.9-3.9l0,0c0-2.1,1.6-3.9,3.9-3.9c1.4,0,2.3,0.5,3,1.3l-1.3,1.4
			c-0.5-0.5-1-0.8-1.7-0.8c-1.1,0-1.8,0.9-1.8,2l0,0c0,1.1,0.7,2.1,1.9,2.1c0.7,0,1.2-0.3,1.7-0.8l1.2,1.3
			C275.1,399.1,274.3,399.6,272.8,399.6z"/>
		<path class="st0" d="M281.9,399.5v-1.1c-0.5,0.6-1.1,1.2-2.2,1.2c-1.6,0-2.5-1.1-2.5-2.8v-4.9h2.1v4.2c0,1,0.5,1.5,1.3,1.5
			s1.3-0.5,1.3-1.5v-4.2h2.1v7.5h-2.1L281.9,399.5L281.9,399.5z"/>
		<path class="st0" d="M290.3,394c-1.4,0-2.3,0.9-2.3,2.6v2.8h-2.1v-7.5h2.1v1.5c0.4-1,1.1-1.7,2.4-1.7v2.2L290.3,394L290.3,394z"/>
		<path class="st0" d="M291.8,391.1v-1.9h2.2v1.9H291.8z M291.9,399.5V392h2.1v7.5H291.9z"/>
		<path class="st0" d="M298.6,399.6c-1.3,0-2.2-0.5-2.2-2.3v-3.6h-0.9v-1.8h0.9V390h2.1v1.9h1.8v1.8h-1.8v3.2c0,0.5,0.2,0.7,0.7,0.7
			c0.4,0,0.7-0.1,1.1-0.3v1.9C299.8,399.4,299.3,399.6,298.6,399.6z"/>
		<path class="st0" d="M306.1,399.6c-0.6,1.5-1.2,2.1-2.5,2.1c-0.8,0-1.3-0.2-1.9-0.5l0.7-1.5c0.3,0.2,0.6,0.3,0.9,0.3
			c0.4,0,0.6-0.1,0.7-0.5l-2.9-7.5h2.3l1.7,5.1l1.6-5.1h2.2L306.1,399.6z"/>
		<path class="st0" d="M263.7,416.4c-3.1,0-5.2-2.1-5.2-5l0,0c0-2.8,2.2-5.1,5.1-5.1c1.8,0,2.8,0.5,3.9,1.3l-1.4,1.6
			c-0.8-0.6-1.4-1-2.6-1c-1.6,0-2.8,1.4-2.8,3.1l0,0c0,1.8,1.2,3.1,3,3.1c0.8,0,1.5-0.2,2-0.6v-1.4h-2.2v-1.9h4.3v4.3
			C266.9,415.7,265.5,416.4,263.7,416.4z"/>
		<path class="st0" d="M274.2,410.8c-1.4,0-2.3,0.9-2.3,2.6v2.8h-2.1v-7.5h2.1v1.5c0.4-1,1.1-1.7,2.4-1.7L274.2,410.8L274.2,410.8
			L274.2,410.8z"/>
		<path class="st0" d="M279.3,416.4c-2.3,0-4-1.7-4-3.9l0,0c0-2.2,1.7-3.9,4.1-3.9c2.3,0,4,1.7,4,3.9l0,0
			C283.4,414.7,281.7,416.4,279.3,416.4z M281.3,412.5c0-1.1-0.8-2.1-2-2.1c-1.2,0-1.9,0.9-1.9,2l0,0c0,1.1,0.8,2.1,2,2.1
			C280.6,414.6,281.3,413.7,281.3,412.5L281.3,412.5z"/>
		<path class="st0" d="M289.6,416.3v-1.1c-0.5,0.6-1.1,1.2-2.2,1.2c-1.6,0-2.5-1.1-2.5-2.8v-4.9h2.1v4.2c0,1,0.5,1.5,1.3,1.5
			s1.3-0.5,1.3-1.5v-4.2h2.1v7.5h-2.1L289.6,416.3L289.6,416.3z"/>
		<path class="st0" d="M298.1,416.4c-1.1,0-1.8-0.5-2.3-1.1v3.2h-2.1v-9.7h2.1v1.1c0.5-0.7,1.2-1.2,2.3-1.2c1.8,0,3.4,1.4,3.4,3.9
			l0,0C301.5,415,299.9,416.4,298.1,416.4z M299.4,412.5c0-1.2-0.8-2.1-1.8-2.1s-1.8,0.8-1.8,2.1l0,0c0,1.2,0.8,2.1,1.8,2.1
			S299.4,413.8,299.4,412.5L299.4,412.5z"/>
	</g>
</g>
<circle class="st1" cx="280" cy="222.2" r="18"/>
<g>
	<path class="st1" d="M246.9,260.4c-3,0-5.2-2.3-5.2-5l0,0c0-2.8,2.2-5.1,5.2-5.1s5.2,2.3,5.2,5l0,0
		C252.1,258.1,249.9,260.4,246.9,260.4z M249.8,255.3c0-1.7-1.2-3.1-3-3.1c-1.7,0-2.9,1.4-2.9,3.1l0,0c0,1.7,1.2,3.1,3,3.1
		C248.6,258.4,249.8,257,249.8,255.3L249.8,255.3z"/>
	<path class="st1" d="M258.2,260.4c-1.1,0-1.8-0.5-2.3-1.1v3.2h-2.1v-9.7h2.1v1.1c0.5-0.7,1.2-1.2,2.3-1.2c1.8,0,3.4,1.4,3.4,3.9
		l0,0C261.7,259,260,260.4,258.2,260.4z M259.5,256.5c0-1.2-0.8-2.1-1.8-2.1s-1.8,0.8-1.8,2.1l0,0c0,1.2,0.8,2.1,1.8,2.1
		S259.5,257.7,259.5,256.5L259.5,256.5z"/>
	<path class="st1" d="M265.8,260.4c-1.1,0-2.2-0.3-3.2-1.1l0.9-1.4c0.8,0.6,1.7,0.9,2.4,0.9c0.6,0,0.9-0.2,0.9-0.6l0,0
		c0-0.5-0.7-0.6-1.6-0.9c-1.1-0.3-2.2-0.8-2.2-2.3l0,0c0-1.5,1.2-2.4,2.7-2.4c1,0,2,0.3,2.8,0.9l-0.8,1.5c-0.7-0.4-1.5-0.7-2-0.7
		s-0.8,0.2-0.8,0.5l0,0c0,0.4,0.7,0.6,1.5,0.9c1.1,0.3,2.3,0.9,2.3,2.2l0,0C268.7,259.6,267.5,260.4,265.8,260.4z"/>
	<path class="st1" d="M277.2,257.2H272c0.2,1,0.9,1.5,1.8,1.5c0.7,0,1.2-0.2,1.8-0.8l1.2,1.1c-0.7,0.9-1.7,1.4-3.1,1.4
		c-2.3,0-3.9-1.6-3.9-3.9l0,0c0-2.1,1.5-3.9,3.7-3.9c2.5,0,3.7,1.9,3.7,4.1l0,0C277.2,256.9,277.2,257,277.2,257.2z M273.6,254.3
		c-0.9,0-1.5,0.6-1.6,1.6h3.2C275,254.9,274.5,254.3,273.6,254.3z"/>
	<path class="st1" d="M285.8,257.2h-5.2c0.2,1,0.9,1.5,1.8,1.5c0.7,0,1.2-0.2,1.8-0.8l1.2,1.1c-0.7,0.9-1.7,1.4-3.1,1.4
		c-2.3,0-3.9-1.6-3.9-3.9l0,0c0-2.1,1.5-3.9,3.7-3.9c2.5,0,3.7,1.9,3.7,4.1l0,0C285.8,256.9,285.8,257,285.8,257.2z M282.2,254.3
		c-0.9,0-1.5,0.6-1.6,1.6h3.2C283.6,254.9,283.1,254.3,282.2,254.3z"/>
	<path class="st1" d="M291.8,260.2v-9.8h7.4v1.9H294v2h4.6v1.9H294v2.1h5.3v1.9H291.8z"/>
	<path class="st1" d="M305.8,260.4c-2.9,0-5-2.2-5-5l0,0c0-2.8,2.1-5.1,5.1-5.1c1.8,0,3,0.6,3.9,1.5l-1.4,1.6
		c-0.8-0.7-1.5-1.1-2.5-1.1c-1.7,0-2.8,1.4-2.8,3.1l0,0c0,1.7,1.2,3.1,2.8,3.1c1.1,0,1.8-0.4,2.6-1.1l1.4,1.4
		C308.8,259.7,307.7,260.4,305.8,260.4z"/>
	<path class="st1" d="M312.7,253.5l-1.5-1.2c1-1.3,1.9-2,3.7-2c2.1,0,3.4,1.2,3.4,3c0,1.6-0.8,2.5-2.6,3.8l-1.6,1.2h4.3v1.9h-7.3
		v-1.7l3.3-2.7c1.2-1,1.7-1.5,1.7-2.4c0-0.8-0.5-1.3-1.3-1.3C313.9,252.2,313.4,252.6,312.7,253.5z"/>
	<path class="st1" d="M251.5,277v-9.8h2.2v9.8H251.5z"/>
	<path class="st1" d="M260.7,277v-4.2c0-1-0.5-1.5-1.3-1.5s-1.3,0.5-1.3,1.5v4.2H256v-7.5h2.1v1.1c0.5-0.6,1.1-1.2,2.2-1.2
		c1.6,0,2.5,1.1,2.5,2.8v4.9h-2.1V277z"/>
	<path class="st1" d="M267.3,277.2c-1.1,0-2.2-0.3-3.2-1.1l0.9-1.4c0.8,0.6,1.7,0.9,2.4,0.9c0.6,0,0.9-0.2,0.9-0.6l0,0
		c0-0.5-0.7-0.6-1.6-0.9c-1.1-0.3-2.2-0.8-2.2-2.3l0,0c0-1.5,1.2-2.4,2.7-2.4c1,0,2,0.3,2.8,0.9l-0.8,1.5c-0.7-0.4-1.5-0.7-2-0.7
		s-0.8,0.2-0.8,0.5l0,0c0,0.4,0.7,0.6,1.5,0.9c1.1,0.3,2.3,0.9,2.3,2.2l0,0C270.1,276.4,268.9,277.2,267.3,277.2z"/>
	<path class="st1" d="M274.1,277.1c-1.3,0-2.2-0.5-2.2-2.3v-3.6H271v-1.8h0.9v-1.9h2.1v1.9h1.8v1.8H274v3.2c0,0.5,0.2,0.7,0.7,0.7
		c0.4,0,0.7-0.1,1.1-0.3v1.7C275.3,277,274.8,277.1,274.1,277.1z"/>
	<path class="st1" d="M281.7,277v-0.8c-0.5,0.6-1.2,1-2.3,1c-1.4,0-2.6-0.8-2.6-2.3l0,0c0-1.6,1.2-2.4,3-2.4c0.8,0,1.3,0.1,1.8,0.3
		v-0.1c0-0.9-0.5-1.4-1.6-1.4c-0.8,0-1.4,0.2-2.1,0.4l-0.5-1.6c0.8-0.4,1.6-0.6,2.9-0.6c2.3,0,3.3,1.2,3.3,3.2v4.4h-1.9V277z
		 M281.8,274c-0.4-0.2-0.8-0.3-1.4-0.3c-0.9,0-1.5,0.4-1.5,1l0,0c0,0.6,0.5,0.9,1.2,0.9c1,0,1.7-0.5,1.7-1.3V274z"/>
	<path class="st1" d="M290.4,277v-4.2c0-1-0.5-1.5-1.3-1.5c-0.8,0-1.3,0.5-1.3,1.5v4.2h-2.1v-7.5h2.1v1.1c0.5-0.6,1.1-1.2,2.2-1.2
		c1.6,0,2.5,1.1,2.5,2.8v4.9h-2.1V277z"/>
	<path class="st1" d="M297.9,277.2c-2.3,0-3.9-1.7-3.9-3.9l0,0c0-2.1,1.6-3.9,3.9-3.9c1.4,0,2.3,0.5,3,1.3l-1.3,1.4
		c-0.5-0.5-1-0.8-1.7-0.8c-1.1,0-1.8,0.9-1.8,2l0,0c0,1.1,0.7,2.1,1.9,2.1c0.7,0,1.2-0.3,1.7-0.8l1.2,1.3
		C300.2,276.6,299.4,277.2,297.9,277.2z"/>
	<path class="st1" d="M309.1,274h-5.2c0.2,1,0.9,1.5,1.8,1.5c0.7,0,1.2-0.2,1.8-0.8l1.2,1.1c-0.7,0.9-1.7,1.4-3.1,1.4
		c-2.3,0-3.9-1.6-3.9-3.9l0,0c0-2.1,1.5-3.9,3.7-3.9c2.5,0,3.7,1.9,3.7,4.1l0,0C309.1,273.7,309.1,273.8,309.1,274z M305.5,271.1
		c-0.9,0-1.5,0.6-1.6,1.6h3.2C306.9,271.7,306.4,271.1,305.5,271.1z"/>
</g>
</svg>
