<?xml version="1.0" encoding="utf-8"?>
<!-- Generator: Adobe Illustrator 19.1.0, SVG Export Plug-In . SVG Version: 6.00 Build 0)  -->
<svg version="1.1" id="Layer_1" xmlns="http://www.w3.org/2000/svg" xmlns:xlink="http://www.w3.org/1999/xlink" x="0px" y="0px"
	 viewBox="10 -145 320 320" style="enable-background:new 10 -145 320 320;" xml:space="preserve">
<style type="text/css">
	.st0{fill:#607D8B;}
	.st1{fill:#F57C00;}
</style>
<g>
	<path class="st0" d="M140.6,152.4h-1.1v-3.9l-4.1-5.9h1.3l3.3,4.9l3.3-4.9h1.3l-4.1,5.9v3.9H140.6z"/>
	<path class="st0" d="M148,152.6c-2.2,0-3.8-1.7-3.8-3.8s1.6-3.8,3.8-3.8c2.2,0,3.8,1.7,3.8,3.8S150.2,152.6,148,152.6z M148,146
		c-1.6,0-2.6,1.2-2.6,2.8s1.1,2.8,2.7,2.8s2.7-1.2,2.7-2.8C150.7,147.2,149.5,146,148,146z"/>
	<path class="st0" d="M158.9,145.2h1.1v7.2h-1.1v-1.2c-0.5,0.8-1.2,1.4-2.5,1.4c-1.8,0-2.8-1.2-2.8-2.9v-4.5h1.1v4.2
		c0,1.3,0.7,2.2,2,2.2c1.2,0,2.2-0.9,2.2-2.3L158.9,145.2L158.9,145.2z"/>
	<path class="st0" d="M163.4,152.4h-1.1v-7.2h1.1v1.9c0.5-1.2,1.6-2.1,3-2v1.2h-0.1c-1.6,0-2.9,1.1-2.9,3.3V152.4z"/>
	<path class="st0" d="M181.5,152.4h-1.2l-1.1-2.6h-5.3l-1.2,2.6h-1.1l4.5-9.9h1L181.5,152.4z M176.5,143.8l-2.2,5h4.5L176.5,143.8z"
		/>
	<path class="st0" d="M188.1,142.6h0.9l2.7,8.2l2.8-8.2h1.2l-3.5,9.9h-0.9l-2.7-8l-2.7,8H185l-3.5-9.9h1.2l2.8,8.2L188.1,142.6z"/>
	<path class="st0" d="M201,147c2.2,0.5,3.2,1.3,3.2,2.8c0,1.7-1.4,2.8-3.3,2.8c-1.6,0-2.8-0.5-4-1.6l0.7-0.8c1,0.9,2,1.4,3.4,1.4
		c1.3,0,2.2-0.7,2.2-1.7c0-0.9-0.5-1.4-2.5-1.9c-2.3-0.5-3.3-1.2-3.3-2.8s1.4-2.7,3.2-2.7c1.4,0,2.5,0.4,3.4,1.2l-0.6,0.9
		c-0.9-0.7-1.8-1.1-2.8-1.1c-1.3,0-2.1,0.7-2.1,1.6C198.3,146,198.8,146.5,201,147z"/>
	<path class="st0" d="M130.4,168.4c1,0,1.7-0.4,2.3-1l0.7,0.6c-0.7,0.8-1.6,1.4-3,1.4c-2,0-3.6-1.5-3.6-3.8c0-2.1,1.5-3.8,3.5-3.8
		c2.1,0,3.4,1.7,3.4,3.8c0,0.1,0,0.2,0,0.3H128C128,167.6,129.1,168.4,130.4,168.4z M132.5,165.2c-0.1-1.3-0.9-2.5-2.3-2.5
		c-1.3,0-2.2,1.1-2.4,2.5H132.5z"/>
	<path class="st0" d="M136.6,169.2h-1.1V162h1.1v1.3c0.5-0.8,1.2-1.4,2.5-1.4c1.8,0,2.8,1.2,2.8,2.9v4.5h-1.1v-4.2
		c0-1.3-0.7-2.2-2-2.2c-1.2,0-2.2,0.9-2.2,2.3L136.6,169.2L136.6,169.2z"/>
	<path class="st0" d="M149.5,162h1.2l-3.2,7.3h-1l-3.1-7.3h1.2l2.4,6L149.5,162z"/>
	<path class="st0" d="M152.3,160.4v-1.2h1.2v1.2H152.3z M152.4,169.2V162h1.1v7.2H152.4z"/>
	<path class="st0" d="M157.1,169.2H156V162h1.1v1.9c0.5-1.2,1.6-2.1,3-2v1.2H160c-1.6,0-2.9,1.1-2.9,3.3V169.2z"/>
	<path class="st0" d="M165,169.4c-2.2,0-3.8-1.7-3.8-3.8s1.6-3.8,3.8-3.8c2.2,0,3.8,1.7,3.8,3.8S167.2,169.4,165,169.4z M165,162.8
		c-1.6,0-2.6,1.2-2.6,2.8s1.1,2.8,2.7,2.8s2.7-1.2,2.7-2.8C167.7,164,166.5,162.8,165,162.8z"/>
	<path class="st0" d="M171.8,169.2h-1.1V162h1.1v1.3c0.5-0.8,1.2-1.4,2.5-1.4c1.8,0,2.8,1.2,2.8,2.9v4.5H176v-4.2
		c0-1.3-0.7-2.2-2-2.2c-1.2,0-2.2,0.9-2.2,2.3V169.2z"/>
	<path class="st0" d="M187.6,161.8c1.7,0,2.7,1.1,2.7,2.9v4.5h-1.1V165c0-1.4-0.7-2.2-1.9-2.2c-1.1,0-2,0.8-2,2.2v4.2h-1.1v-4.3
		c0-1.4-0.7-2.2-1.9-2.2c-1.1,0-2,1-2,2.3v4.1h-1.1v-7.2h1.1v1.2c0.5-0.7,1.1-1.4,2.3-1.4c1.2,0,1.9,0.6,2.3,1.4
		C185.6,162.5,186.4,161.8,187.6,161.8z"/>
	<path class="st0" d="M195.8,168.4c1,0,1.7-0.4,2.3-1l0.7,0.6c-0.7,0.8-1.6,1.4-3,1.4c-2,0-3.6-1.5-3.6-3.8c0-2.1,1.5-3.8,3.5-3.8
		c2.1,0,3.4,1.7,3.4,3.8c0,0.1,0,0.2,0,0.3h-5.7C193.5,167.6,194.6,168.4,195.8,168.4z M198,165.2c-0.1-1.3-0.9-2.5-2.3-2.5
		c-1.3,0-2.2,1.1-2.4,2.5H198z"/>
	<path class="st0" d="M202,169.2h-1.1V162h1.1v1.3c0.5-0.8,1.2-1.4,2.5-1.4c1.8,0,2.8,1.2,2.8,2.9v4.5h-1.1v-4.2
		c0-1.3-0.7-2.2-2-2.2c-1.2,0-2.2,0.9-2.2,2.3L202,169.2L202,169.2z"/>
	<path class="st0" d="M211,167.2c0,0.9,0.5,1.2,1.2,1.2c0.4,0,0.7-0.1,1.1-0.3v0.9c-0.4,0.2-0.8,0.3-1.3,0.3c-1.2,0-2-0.6-2-2v-4.4
		h-1v-1h1v-2.2h1.1v2.2h2.3v1H211V167.2z"/>
</g>
<circle class="st0" cx="170" cy="36.2" r="18"/>
<circle class="st0" cx="249.4" cy="-6.3" r="18"/>
<circle class="st0" cx="90.6" cy="-6.3" r="18"/>
<g>
	<path class="st0" d="M167,133.7c-2,0-4-0.1-6-0.3l0.2-3c2,0.1,3.9,0.2,5.9,0.3L167,133.7z M173.1,133.7l-0.1-3c2,0,3.9-0.1,5.9-0.3
		l0.2,3C177.1,133.5,175.1,133.6,173.1,133.7z M155,132.9c-2-0.2-4-0.5-6-0.8l0.5-3c1.9,0.3,3.9,0.6,5.9,0.8L155,132.9z
		 M185.1,132.9l-0.3-3c2-0.2,3.9-0.5,5.9-0.8l0.5,3C189.2,132.4,187.1,132.6,185.1,132.9z M143.1,131c-2-0.4-3.9-0.8-5.9-1.3
		l0.7-2.9c1.9,0.5,3.8,0.9,5.8,1.3L143.1,131z M197.1,131l-0.6-2.9c1.9-0.4,3.9-0.8,5.8-1.3l0.7,2.9C201,130.2,199,130.6,197.1,131z
		 M131.3,128.2c-1.9-0.6-3.9-1.2-5.8-1.8l1-2.8c1.9,0.6,3.7,1.2,5.6,1.8L131.3,128.2z M208.8,128.1l-0.8-2.9
		c1.9-0.6,3.8-1.2,5.6-1.8l1,2.8C212.6,126.9,210.7,127.5,208.8,128.1z M119.9,124.2c-1.9-0.7-3.8-1.5-5.6-2.3l1.2-2.7
		c1.8,0.8,3.6,1.6,5.5,2.3L119.9,124.2z M220.2,124.2l-1.1-2.8c1.8-0.7,3.6-1.5,5.4-2.3l1.2,2.7
		C223.9,122.7,222.1,123.4,220.2,124.2z M108.9,119.3c-1.8-0.9-3.6-1.9-5.3-2.8l1.5-2.6c1.7,1,3.5,1.9,5.2,2.8L108.9,119.3z
		 M231.2,119.3l-1.3-2.7c1.7-0.9,3.5-1.8,5.2-2.8l1.5,2.6C234.8,117.4,233,118.4,231.2,119.3z M98.3,113.4c-1.7-1.1-3.4-2.2-5.1-3.3
		l1.7-2.5c1.6,1.1,3.3,2.2,5,3.2L98.3,113.4z M241.7,113.4l-1.6-2.6c1.7-1,3.3-2.1,4.9-3.2l1.7,2.5
		C245.1,111.2,243.4,112.3,241.7,113.4z M88.3,106.6c-1.6-1.2-3.2-2.5-4.8-3.7l1.9-2.3c1.5,1.2,3.1,2.5,4.7,3.6L88.3,106.6z
		 M251.7,106.6l-1.8-2.4c1.6-1.2,3.1-2.4,4.6-3.6l1.9,2.3C254.9,104.1,253.3,105.4,251.7,106.6z M261,98.9l-2-2.2
		c1.5-1.3,2.9-2.7,4.3-4l2.1,2.1C264,96.2,262.5,97.6,261,98.9z M79,98.9c-1.5-1.3-3-2.7-4.4-4.1l2.1-2.1c1.4,1.4,2.9,2.7,4.3,4
		L79,98.9z M269.6,90.5l-2.2-2.1c1.3-1.4,2.7-2.9,3.9-4.4l2.3,2C272.4,87.5,271,89,269.6,90.5z M70.4,90.5c-1.4-1.5-2.7-3-4-4.5
		l2.3-2c1.3,1.5,2.6,3,3.9,4.4L70.4,90.5z M62.5,81.3c-1.2-1.6-2.4-3.2-3.6-4.8l2.4-1.7c1.1,1.6,2.3,3.2,3.5,4.7L62.5,81.3z
		 M277.5,81.3l-2.4-1.9c1.2-1.5,2.4-3.1,3.5-4.7l2.4,1.7C280,78.1,278.7,79.7,277.5,81.3z M55.5,71.5c-1.1-1.7-2.2-3.4-3.2-5.1
		l2.6-1.5c1,1.7,2,3.4,3.1,5L55.5,71.5z M284.5,71.5l-2.5-1.6c1.1-1.6,2.1-3.3,3.1-5l2.6,1.5C286.7,68.1,285.6,69.8,284.5,71.5z
		 M49.4,61.1c-0.9-1.8-1.8-3.6-2.7-5.4l2.7-1.3c0.8,1.8,1.7,3.5,2.6,5.3L49.4,61.1z M290.7,61.1l-2.7-1.4c0.9-1.7,1.8-3.5,2.7-5.3
		l2.7,1.3C292.5,57.5,291.6,59.3,290.7,61.1z M44.2,50.2c-0.8-1.8-1.5-3.7-2.2-5.6l2.8-1c0.7,1.8,1.4,3.7,2.2,5.5L44.2,50.2z
		 M295.8,50.2L293,49c0.8-1.8,1.5-3.7,2.2-5.5l2.8,1C297.4,46.4,296.6,48.3,295.8,50.2z M40,38.9c-0.6-1.9-1.2-3.9-1.7-5.8l2.9-0.8
		c0.5,1.9,1.1,3.8,1.7,5.7L40,38.9z M300,38.8l-2.9-0.9c0.6-1.9,1.2-3.8,1.7-5.7l2.9,0.8C301.2,35,300.7,36.9,300,38.8z M36.8,27.3
		c-0.4-2-0.8-3.9-1.2-5.9l3-0.5c0.3,1.9,0.7,3.9,1.2,5.8L36.8,27.3z M303.2,27.1l-2.9-0.7c0.4-1.9,0.8-3.8,1.2-5.8l3,0.5
		C304,23.2,303.6,25.2,303.2,27.1z M34.7,15.4c-0.3-2-0.5-4-0.7-6l3-0.3c0.2,2,0.4,3.9,0.7,5.9L34.7,15.4z M305.3,15.3l-3-0.4
		c0.3-1.9,0.5-3.9,0.6-5.9l3,0.3C305.8,11.2,305.6,13.3,305.3,15.3z M33.6,3.4c-0.1-2-0.1-4-0.1-6h3c0,2,0,3.9,0.1,5.9L33.6,3.4z
		 M306.4,3.2l-3-0.1c0.1-2,0.1-3.9,0.1-5.9v-0.3h3v0.3C306.5-0.8,306.5,1.2,306.4,3.2z M36.6-8.6l-3-0.1c0.1-2,0.2-4,0.4-6l3,0.3
		C36.8-12.5,36.7-10.5,36.6-8.6z M303.4-9c-0.1-2-0.2-3.9-0.4-5.9l3-0.3c0.2,2,0.3,4,0.4,6L303.4-9z M37.6-20.3l-3-0.4
		c0.3-2,0.6-4,0.9-6l3,0.5C38.2-24.2,37.9-22.3,37.6-20.3z M302.3-20.8c-0.3-1.9-0.6-3.9-0.9-5.8l3-0.5c0.4,2,0.7,4,0.9,6
		L302.3-20.8z M39.7-31.9l-2.9-0.7c0.4-2,0.9-3.9,1.4-5.9l2.9,0.8C40.6-35.8,40.1-33.9,39.7-31.9z M300.2-32.4
		c-0.4-1.9-0.9-3.8-1.4-5.7l2.9-0.8c0.5,1.9,1,3.9,1.5,5.9L300.2-32.4z M42.8-43.3l-2.9-0.9c0.6-1.9,1.3-3.8,2-5.7l2.8,1
		C44-47.1,43.4-45.2,42.8-43.3z M297.1-43.8c-0.6-1.9-1.3-3.7-1.9-5.6l2.8-1c0.7,1.9,1.4,3.8,2,5.7L297.1-43.8z M46.9-54.5l-2.8-1.2
		c0.8-1.9,1.6-3.7,2.5-5.5l2.7,1.3C48.4-58.1,47.6-56.3,46.9-54.5z M293-54.8c-0.8-1.8-1.6-3.6-2.4-5.4l2.7-1.3
		c0.9,1.8,1.7,3.7,2.5,5.5L293-54.8z M51.9-65.1l-2.7-1.4c0.9-1.8,1.9-3.5,2.9-5.3l2.6,1.5C53.8-68.6,52.8-66.9,51.9-65.1z
		 M287.9-65.4c-0.9-1.7-1.9-3.5-2.9-5.1l2.6-1.5c1,1.7,2,3.5,3,5.3L287.9-65.4z M57.9-75.3l-2.5-1.6c1.1-1.7,2.2-3.4,3.4-5l2.4,1.7
		C60.1-78.6,59-77,57.9-75.3z M281.9-75.6c-1.1-1.6-2.2-3.3-3.3-4.9l2.4-1.7c1.2,1.6,2.3,3.3,3.4,5L281.9-75.6z M64.8-85l-2.4-1.8
		c1.2-1.6,2.5-3.2,3.8-4.7l2.3,2C67.2-88,66-86.5,64.8-85z M275-85.2c-1.2-1.5-2.5-3.1-3.7-4.6l2.3-2c1.3,1.5,2.6,3.1,3.8,4.7
		L275-85.2z M72.4-93.9l-2.2-2c1.4-1.5,2.8-2.9,4.2-4.3l2.1,2.1C75.2-96.8,73.8-95.4,72.4-93.9z M267.4-94.1
		c-1.3-1.4-2.7-2.8-4.1-4.2l2.1-2.1c1.4,1.4,2.9,2.9,4.2,4.3L267.4-94.1z M80.9-102.2l-2-2.2c1.5-1.3,3-2.7,4.6-3.9l1.9,2.3
		C83.8-104.8,82.3-103.5,80.9-102.2z M258.9-102.4c-1.5-1.3-3-2.6-4.5-3.8l1.9-2.3c1.6,1.3,3.1,2.6,4.6,3.9L258.9-102.4z M90-109.7
		l-1.8-2.4c1.6-1.2,3.3-2.4,4.9-3.5l1.7,2.5C93.2-112,91.6-110.9,90-109.7z M249.8-109.9c-1.6-1.2-3.2-2.3-4.8-3.4l1.7-2.5
		c1.7,1.1,3.3,2.3,4.9,3.5L249.8-109.9z M99.7-116.3l-1.6-2.5c1.7-1.1,3.4-2.1,5.2-3.1l1.5,2.6C103.1-118.4,101.4-117.4,99.7-116.3z
		 M240-116.5c-1.7-1-3.4-2-5.1-3l1.5-2.6c1.8,1,3.5,2,5.2,3.1L240-116.5z M110-122.1l-1.3-2.7c1.8-0.9,3.6-1.8,5.4-2.6l1.2,2.7
		C113.6-123.8,111.8-123,110-122.1z M229.6-122.3c-1.8-0.9-3.6-1.7-5.3-2.5l1.2-2.7c1.8,0.8,3.7,1.7,5.5,2.6L229.6-122.3z
		 M120.8-126.9l-1.1-2.8c1.9-0.7,3.8-1.4,5.7-2.1l1,2.8C124.5-128.3,122.6-127.7,120.8-126.9z M218.8-127.1c-1.8-0.7-3.7-1.4-5.6-2
		l1-2.8c1.9,0.7,3.8,1.4,5.7,2.1L218.8-127.1z M131.9-130.8l-0.9-2.9c1.9-0.6,3.9-1.1,5.8-1.6l0.7,2.9
		C135.7-131.9,133.8-131.4,131.9-130.8z M207.7-130.9c-1.9-0.6-3.8-1.1-5.7-1.5l0.7-2.9c1.9,0.5,3.9,1,5.8,1.6L207.7-130.9z
		 M143.4-133.6l-0.6-2.9c2-0.4,4-0.8,5.9-1.1l0.5,3C147.3-134.4,145.3-134,143.4-133.6z M196.2-133.7c-1.9-0.4-3.9-0.7-5.8-1l0.5-3
		c2,0.3,4,0.7,5.9,1L196.2-133.7z M155.1-135.5l-0.3-3c2-0.2,4-0.4,6-0.5l0.2,3C159-135.9,157-135.7,155.1-135.5z M184.5-135.5
		c-2-0.2-3.9-0.4-5.9-0.5l0.2-3c2,0.1,4,0.3,6,0.5L184.5-135.5z M166.8-136.3l-0.1-3c2,0,4-0.1,6,0l-0.1,3
		C170.8-136.3,168.8-136.3,166.8-136.3z"/>
</g>
<polygon class="st0" points="180.1,-17 171,-7.2 171,-26.8 168,-26.8 168,-8.3 159.9,-17 157.7,-15 170,-1.8 182.3,-15 "/>
<polygon class="st0" points="227.9,-48.5 227.2,-36 215.1,-50.4 212.8,-48.5 224.9,-34 212.4,-35.6 212.1,-32.6 229.9,-30.4 
	230.9,-48.4 "/>
<polygon class="st0" points="127.6,-35.6 115.1,-34 127.2,-48.5 124.9,-50.4 112.8,-36 112.1,-48.5 109.1,-48.4 110.1,-30.4 
	127.9,-32.6 "/>
<g>
	<g>
		<path class="st0" d="M227.7,32.3c-1.5,0-3-0.5-4.2-1.6l1.3-1.5c0.9,0.7,1.8,1.2,2.9,1.2c0.9,0,1.4-0.4,1.4-0.9l0,0
			c0-0.5-0.3-0.8-2-1.2c-2-0.5-3.2-1.1-3.2-3l0,0c0-1.8,1.4-3,3.4-3c1.4,0,2.6,0.4,3.6,1.2l-1.1,1.6c-0.9-0.6-1.7-1-2.5-1
			S226,24.5,226,25l0,0c0,0.6,0.4,0.9,2.1,1.3c2,0.5,3.1,1.2,3.1,2.9l0,0C231.3,31.2,229.8,32.3,227.7,32.3z"/>
		<path class="st0" d="M240,29.1h-5.2c0.2,1,0.9,1.5,1.8,1.5c0.7,0,1.2-0.2,1.8-0.8l1.2,1.1c-0.7,0.9-1.7,1.4-3.1,1.4
			c-2.3,0-3.9-1.6-3.9-3.9l0,0c0-2.1,1.5-3.9,3.7-3.9c2.5,0,3.7,1.9,3.7,4.1l0,0C240,28.8,240,28.9,240,29.1z M236.3,26.2
			c-0.9,0-1.5,0.6-1.6,1.6h3.2C237.8,26.8,237.2,26.2,236.3,26.2z"/>
		<path class="st0" d="M246,26.7c-1.4,0-2.3,0.9-2.3,2.6v2.8h-2.1v-7.5h2.1v1.5c0.4-1,1.1-1.7,2.4-1.7v2.2H246V26.7z"/>
		<path class="st0" d="M251.6,32.2h-1.9l-3-7.6h2.3l1.7,5l1.7-5h2.2L251.6,32.2z"/>
		<path class="st0" d="M255.9,23.8v-1.9h2.2v1.9H255.9z M255.9,32.1v-7.5h2.1v7.5H255.9z"/>
		<path class="st0" d="M263.6,32.3c-2.3,0-3.9-1.7-3.9-3.9l0,0c0-2.1,1.6-3.9,3.9-3.9c1.4,0,2.3,0.5,3,1.3l-1.3,1.4
			c-0.5-0.5-1-0.8-1.7-0.8c-1.1,0-1.8,0.9-1.8,2l0,0c0,1.1,0.7,2.1,1.9,2.1c0.7,0,1.2-0.3,1.7-0.8l1.2,1.3
			C265.9,31.7,265.1,32.3,263.6,32.3z"/>
		<path class="st0" d="M275,29.1h-5.2c0.2,1,0.9,1.5,1.8,1.5c0.7,0,1.2-0.2,1.8-0.8l1.2,1.1c-0.7,0.9-1.7,1.4-3.1,1.4
			c-2.3,0-3.9-1.6-3.9-3.9l0,0c0-2.1,1.5-3.9,3.7-3.9c2.5,0,3.7,1.9,3.7,4.1l0,0C275,28.8,275,28.9,275,29.1z M271.4,26.2
			c-0.9,0-1.5,0.6-1.6,1.6h3.2C272.8,26.8,272.3,26.2,271.4,26.2z"/>
		<path class="st0" d="M215,44.9c0,2,0.8,3.3,2.7,4.6l-0.9,1.4c-2.6-1.4-3.9-3.3-3.9-6s1.3-4.6,3.9-6l0.9,1.4
			C215.8,41.6,215,42.9,215,44.9z"/>
		<path class="st0" d="M219.5,48.9v-9.8h7.4V41h-5.3v2h4.6v1.9h-4.6V47h5.3v1.9C226.9,48.9,219.5,48.9,219.5,48.9z"/>
		<path class="st0" d="M228.8,48.9v-9.8h2.2v7.8h4.9v2H228.8z"/>
		<path class="st0" d="M242.2,48.9h-4.7v-9.8h4.6c2,0,3.2,1,3.2,2.5l0,0c0,1.1-0.6,1.7-1.3,2.1c1.1,0.4,1.8,1.1,1.8,2.4l0,0
			C245.8,48,244.4,48.9,242.2,48.9z M243.1,42c0-0.6-0.5-1-1.4-1h-2.1v2.1h2C242.5,43.1,243.1,42.8,243.1,42L243.1,42z M243.7,45.9
			c0-0.7-0.5-1.1-1.6-1.1h-2.5V47h2.6C243.1,47,243.7,46.7,243.7,45.9L243.7,45.9z"/>
		<path class="st0" d="M248.2,48.9h-0.9v-2.2h2.3v1.9c0,1.8-0.9,2.6-2.6,2.6l-0.2-0.9C247.8,50.2,248.2,49.7,248.2,48.9z"/>
		<path class="st0" d="M257.6,48.9l-2.1-3.1h-1.7v3.1h-2.2v-9.8h4.5c2.3,0,3.7,1.2,3.7,3.2l0,0c0,1.6-0.9,2.6-2.1,3l2.4,3.5
			L257.6,48.9L257.6,48.9z M257.6,42.5c0-0.9-0.6-1.4-1.7-1.4h-2.1v2.8h2.2C257,43.9,257.6,43.3,257.6,42.5L257.6,42.5z"/>
		<path class="st0" d="M265.6,48.9h-3.8v-9.8h3.8c3.1,0,5.2,2.1,5.2,4.9l0,0C270.8,46.8,268.6,48.9,265.6,48.9z M268.5,44
			c0-1.7-1.2-3-3-3h-1.7v5.9h1.7C267.3,47,268.5,45.8,268.5,44L268.5,44z"/>
		<path class="st0" d="M276.2,49.1c-1.5,0-3-0.5-4.2-1.6l1.3-1.5c0.9,0.7,1.8,1.2,2.9,1.2c0.9,0,1.4-0.3,1.4-0.9l0,0
			c0-0.5-0.3-0.8-2-1.2c-2-0.5-3.2-1-3.2-3l0,0c0-1.8,1.4-3,3.4-3c1.4,0,2.6,0.4,3.6,1.2l-1.1,1.6c-0.9-0.6-1.7-1-2.5-1
			s-1.3,0.4-1.3,0.9l0,0c0,0.6,0.4,0.9,2.1,1.3c2,0.5,3.1,1.2,3.1,2.9l0,0C279.8,48,278.3,49.1,276.2,49.1z"/>
		<path class="st0" d="M282,50.9l-0.9-1.4c1.9-1.3,2.7-2.6,2.7-4.6s-0.8-3.3-2.7-4.6l0.9-1.4c2.6,1.4,3.9,3.3,3.9,6
			S284.6,49.5,282,50.9z"/>
	</g>
</g>
<g>
	<g>
		<path class="st0" d="M77.6,32.1v-9.8H85v1.9h-5.3v2h4.6v1.9h-4.6v2.1H85v1.9H77.6z"/>
		<path class="st0" d="M91.6,32.3c-2.9,0-5-2.2-5-5l0,0c0-2.8,2.1-5.1,5.1-5.1c1.8,0,3,0.6,3.9,1.5l-1.4,1.6
			c-0.8-0.7-1.5-1.1-2.5-1.1c-1.7,0-2.8,1.4-2.8,3.1l0,0c0,1.7,1.2,3.1,2.8,3.1c1.1,0,1.8-0.4,2.6-1.1l1.4,1.4
			C94.6,31.6,93.5,32.3,91.6,32.3z"/>
		<path class="st0" d="M98.5,25.4L97,24.2c1-1.3,1.9-2,3.7-2c2.1,0,3.4,1.2,3.4,3c0,1.6-0.8,2.5-2.6,3.8l-1.6,1.2h4.3v1.9h-7.3v-1.7
			l3.3-2.7c1.2-1,1.7-1.5,1.7-2.4c0-0.8-0.5-1.3-1.3-1.3C99.7,24.1,99.2,24.5,98.5,25.4z"/>
		<path class="st0" d="M62,48.9v-9.8h2.2v9.8H62z"/>
		<path class="st0" d="M71.1,48.9v-4.2c0-1-0.5-1.5-1.3-1.5s-1.3,0.5-1.3,1.5v4.2h-2.1v-7.5h2.1v1.1c0.5-0.6,1.1-1.2,2.2-1.2
			c1.6,0,2.5,1.1,2.5,2.8V49L71.1,48.9L71.1,48.9z"/>
		<path class="st0" d="M77.7,49.1c-1.1,0-2.2-0.3-3.2-1.1l0.9-1.4c0.8,0.6,1.7,0.9,2.4,0.9c0.6,0,0.9-0.2,0.9-0.6l0,0
			c0-0.5-0.7-0.6-1.6-0.9c-1.1-0.3-2.2-0.8-2.2-2.3l0,0c0-1.5,1.2-2.4,2.7-2.4c1,0,2,0.3,2.8,0.9l-0.8,1.5c-0.7-0.4-1.5-0.7-2-0.7
			s-0.8,0.2-0.8,0.5l0,0c0,0.4,0.7,0.6,1.5,0.9c1.1,0.4,2.3,0.9,2.3,2.2l0,0C80.6,48.3,79.3,49.1,77.7,49.1z"/>
		<path class="st0" d="M84.6,49.1c-1.3,0-2.2-0.5-2.2-2.3v-3.6h-0.9v-1.8h0.9v-1.9h2.1v1.9h1.8v1.8h-1.8v3.2c0,0.5,0.2,0.7,0.7,0.7
			c0.4,0,0.7-0.1,1.1-0.3v1.7C85.9,48.9,85.4,49.1,84.6,49.1z"/>
		<path class="st0" d="M92.3,48.9v-0.8c-0.5,0.6-1.2,1-2.3,1c-1.4,0-2.6-0.8-2.6-2.3l0,0c0-1.6,1.2-2.4,3-2.4c0.8,0,1.3,0.1,1.8,0.3
			v-0.1c0-0.9-0.5-1.4-1.6-1.4c-0.8,0-1.4,0.2-2.1,0.4L88,42c0.8-0.4,1.6-0.6,2.9-0.6c2.3,0,3.3,1.2,3.3,3.2V49h-1.9V48.9z
			 M92.4,45.9c-0.4-0.2-0.8-0.3-1.4-0.3c-0.9,0-1.5,0.4-1.5,1l0,0c0,0.6,0.5,0.9,1.2,0.9c1,0,1.7-0.5,1.7-1.3V45.9z"/>
		<path class="st0" d="M101,48.9v-4.2c0-1-0.5-1.5-1.3-1.5s-1.3,0.5-1.3,1.5v4.2h-2.1v-7.5h2.1v1.1c0.5-0.6,1.1-1.2,2.2-1.2
			c1.6,0,2.5,1.1,2.5,2.8V49L101,48.9L101,48.9z"/>
		<path class="st0" d="M108.5,49.1c-2.3,0-3.9-1.7-3.9-3.9l0,0c0-2.1,1.6-3.9,3.9-3.9c1.4,0,2.3,0.5,3,1.3l-1.3,1.4
			c-0.5-0.5-1-0.8-1.7-0.8c-1.1,0-1.8,0.9-1.8,2l0,0c0,1.1,0.7,2.1,1.9,2.1c0.7,0,1.2-0.3,1.7-0.8l1.2,1.3
			C110.8,48.5,110,49.1,108.5,49.1z"/>
		<path class="st0" d="M119.9,45.9h-5.2c0.2,1,0.9,1.5,1.8,1.5c0.7,0,1.2-0.2,1.8-0.8l1.2,1.1c-0.7,0.9-1.7,1.4-3.1,1.4
			c-2.3,0-3.9-1.6-3.9-3.9l0,0c0-2.1,1.5-3.9,3.7-3.9c2.5,0,3.7,1.9,3.7,4.1l0,0C119.9,45.6,119.9,45.7,119.9,45.9z M116.3,43
			c-0.9,0-1.5,0.6-1.6,1.6h3.2C117.7,43.6,117.2,43,116.3,43z"/>
	</g>
</g>
<g>
	<g>
		<path class="st0" d="M145.4,74.6c-1.5,0-3-0.5-4.2-1.6l1.3-1.5c0.9,0.7,1.8,1.2,2.9,1.2c0.9,0,1.4-0.3,1.4-0.9l0,0
			c0-0.5-0.3-0.8-2-1.2c-2-0.5-3.2-1-3.2-3l0,0c0-1.8,1.4-3,3.4-3c1.4,0,2.6,0.4,3.6,1.2l-1.1,1.6c-0.9-0.6-1.7-1-2.5-1
			s-1.3,0.4-1.3,0.9l0,0c0,0.6,0.4,0.9,2.1,1.3c2,0.5,3.1,1.2,3.1,2.9l0,0C149,73.5,147.5,74.6,145.4,74.6z"/>
		<path class="st0" d="M157.6,71.4h-5.2c0.2,1,0.9,1.5,1.8,1.5c0.7,0,1.2-0.2,1.8-0.8l1.2,1.1c-0.7,0.9-1.7,1.4-3.1,1.4
			c-2.3,0-3.9-1.6-3.9-3.9l0,0c0-2.1,1.5-3.9,3.7-3.9c2.5,0,3.7,1.9,3.7,4.1l0,0C157.6,71.1,157.6,71.3,157.6,71.4z M154,68.5
			c-0.9,0-1.5,0.6-1.6,1.6h3.2C155.4,69.2,154.9,68.5,154,68.5z"/>
		<path class="st0" d="M162.8,74.6c-2.3,0-3.9-1.7-3.9-3.9l0,0c0-2.1,1.6-3.9,3.9-3.9c1.4,0,2.3,0.5,3,1.3l-1.3,1.4
			c-0.5-0.5-1-0.8-1.7-0.8c-1.1,0-1.8,0.9-1.8,2l0,0c0,1.1,0.7,2.1,1.9,2.1c0.7,0,1.2-0.3,1.7-0.8l1.2,1.3
			C165.1,74.1,164.3,74.6,162.8,74.6z"/>
		<path class="st0" d="M171.9,74.5v-1.1c-0.5,0.6-1.1,1.2-2.2,1.2c-1.6,0-2.5-1.1-2.5-2.8v-4.9h2.1v4.2c0,1,0.5,1.5,1.3,1.5
			s1.3-0.5,1.3-1.5v-4.2h2.1v7.5h-2.1V74.5z"/>
		<path class="st0" d="M180.3,69c-1.4,0-2.3,0.9-2.3,2.6v2.8h-2.1v-7.5h2.1v1.5c0.4-1,1.1-1.7,2.4-1.7v2.2L180.3,69L180.3,69z"/>
		<path class="st0" d="M181.8,66.1v-1.9h2.2v1.9H181.8z M181.9,74.5V67h2.1v7.5H181.9z"/>
		<path class="st0" d="M188.6,74.6c-1.3,0-2.2-0.5-2.2-2.3v-3.6h-0.9v-1.8h0.9V65h2.1v1.9h1.8v1.8h-1.8v3.2c0,0.5,0.2,0.7,0.7,0.7
			c0.4,0,0.7-0.1,1.1-0.3v1.9C189.8,74.4,189.3,74.6,188.6,74.6z"/>
		<path class="st0" d="M196.1,74.6c-0.6,1.5-1.2,2.1-2.5,2.1c-0.8,0-1.3-0.2-1.9-0.5l0.7-1.5c0.3,0.2,0.6,0.3,0.9,0.3
			c0.4,0,0.6-0.1,0.7-0.5l-2.9-7.5h2.3l1.7,5.1l1.6-5.1h2.2L196.1,74.6z"/>
		<path class="st0" d="M153.7,91.4c-3.1,0-5.2-2.1-5.2-5l0,0c0-2.8,2.2-5.1,5.1-5.1c1.8,0,2.8,0.5,3.9,1.3l-1.4,1.6
			c-0.8-0.6-1.4-1-2.6-1c-1.6,0-2.8,1.4-2.8,3.1l0,0c0,1.8,1.2,3.1,3,3.1c0.8,0,1.5-0.2,2-0.6v-1.4h-2.2v-1.9h4.3v4.3
			C156.9,90.7,155.5,91.4,153.7,91.4z"/>
		<path class="st0" d="M164.2,85.8c-1.4,0-2.3,0.9-2.3,2.6v2.8h-2.1v-7.5h2.1v1.5c0.4-1,1.1-1.7,2.4-1.7v2.2L164.2,85.8L164.2,85.8z
			"/>
		<path class="st0" d="M169.3,91.4c-2.3,0-4-1.7-4-3.9l0,0c0-2.2,1.7-3.9,4.1-3.9c2.3,0,4,1.7,4,3.9l0,0
			C173.4,89.7,171.7,91.4,169.3,91.4z M171.3,87.5c0-1.1-0.8-2.1-2-2.1s-1.9,0.9-1.9,2l0,0c0,1.1,0.8,2.1,2,2.1
			C170.6,89.6,171.3,88.7,171.3,87.5L171.3,87.5z"/>
		<path class="st0" d="M179.6,91.3v-1.1c-0.5,0.6-1.1,1.2-2.2,1.2c-1.6,0-2.5-1.1-2.5-2.8v-4.9h2.1v4.2c0,1,0.5,1.5,1.3,1.5
			s1.3-0.5,1.3-1.5v-4.2h2.1v7.5h-2.1V91.3z"/>
		<path class="st0" d="M188.1,91.4c-1.1,0-1.8-0.5-2.3-1.1v3.2h-2.1v-9.7h2.1v1.1c0.5-0.7,1.2-1.2,2.3-1.2c1.8,0,3.4,1.4,3.4,3.9
			l0,0C191.5,90,189.9,91.4,188.1,91.4z M189.4,87.5c0-1.2-0.8-2.1-1.8-2.1s-1.8,0.8-1.8,2.1l0,0c0,1.2,0.8,2.1,1.8,2.1
			S189.4,88.8,189.4,87.5L189.4,87.5z"/>
	</g>
</g>
<circle class="st1" cx="170" cy="-102.8" r="18"/>
<g>
	<path class="st1" d="M136.9-64.6c-3,0-5.2-2.3-5.2-5v0c0-2.8,2.2-5.1,5.2-5.1c3,0,5.2,2.3,5.2,5v0
		C142.1-66.9,139.9-64.6,136.9-64.6z M139.8-69.7c0-1.7-1.2-3.1-3-3.1c-1.7,0-2.9,1.4-2.9,3.1v0c0,1.7,1.2,3.1,3,3.1
		C138.6-66.6,139.8-68,139.8-69.7L139.8-69.7z"/>
	<path class="st1" d="M148.2-64.6c-1.1,0-1.8-0.5-2.3-1.1v3.2h-2.1v-9.7h2.1v1.1c0.5-0.7,1.2-1.2,2.3-1.2c1.8,0,3.4,1.4,3.4,3.9v0
		C151.7-66,150-64.6,148.2-64.6z M149.5-68.5c0-1.2-0.8-2.1-1.8-2.1c-1,0-1.8,0.8-1.8,2.1v0c0,1.2,0.8,2.1,1.8,2.1
		C148.7-66.4,149.5-67.3,149.5-68.5L149.5-68.5z"/>
	<path class="st1" d="M155.8-64.6c-1.1,0-2.2-0.3-3.2-1.1l0.9-1.4c0.8,0.6,1.7,0.9,2.4,0.9c0.6,0,0.9-0.2,0.9-0.6v0
		c0-0.5-0.7-0.6-1.6-0.9c-1.1-0.3-2.2-0.8-2.2-2.3v0c0-1.5,1.2-2.4,2.7-2.4c1,0,2,0.3,2.8,0.9l-0.8,1.5c-0.7-0.4-1.5-0.7-2-0.7
		c-0.5,0-0.8,0.2-0.8,0.5v0c0,0.4,0.7,0.6,1.5,0.9c1.1,0.3,2.3,0.9,2.3,2.2v0C158.7-65.4,157.5-64.6,155.8-64.6z"/>
	<path class="st1" d="M167.2-67.8H162c0.2,1,0.9,1.5,1.8,1.5c0.7,0,1.2-0.2,1.8-0.8l1.2,1.1c-0.7,0.9-1.7,1.4-3.1,1.4
		c-2.3,0-3.9-1.6-3.9-3.9v0c0-2.1,1.5-3.9,3.7-3.9c2.5,0,3.7,1.9,3.7,4.1v0C167.2-68.1,167.2-68,167.2-67.8z M163.6-70.7
		c-0.9,0-1.5,0.6-1.6,1.6h3.2C165-70.1,164.5-70.7,163.6-70.7z"/>
	<path class="st1" d="M175.8-67.8h-5.2c0.2,1,0.9,1.5,1.8,1.5c0.7,0,1.2-0.2,1.8-0.8l1.2,1.1c-0.7,0.9-1.7,1.4-3.1,1.4
		c-2.3,0-3.9-1.6-3.9-3.9v0c0-2.1,1.5-3.9,3.7-3.9c2.5,0,3.7,1.9,3.7,4.1v0C175.8-68.1,175.8-68,175.8-67.8z M172.2-70.7
		c-0.9,0-1.5,0.6-1.6,1.6h3.2C173.6-70.1,173.1-70.7,172.2-70.7z"/>
	<path class="st1" d="M181.8-64.8v-9.8h7.4v1.9H184v2h4.6v1.9H184v2.1h5.3v1.9H181.8z"/>
	<path class="st1" d="M195.8-64.6c-2.9,0-5-2.2-5-5v0c0-2.8,2.1-5.1,5.1-5.1c1.8,0,3,0.6,3.9,1.5l-1.4,1.6c-0.8-0.7-1.5-1.1-2.5-1.1
		c-1.7,0-2.8,1.4-2.8,3.1v0c0,1.7,1.2,3.1,2.8,3.1c1.1,0,1.8-0.4,2.6-1.1l1.4,1.4C198.8-65.3,197.7-64.6,195.8-64.6z"/>
	<path class="st1" d="M202.7-71.5l-1.5-1.2c1-1.3,1.9-2,3.7-2c2.1,0,3.4,1.2,3.4,3c0,1.6-0.8,2.5-2.6,3.8l-1.6,1.2h4.3v1.9h-7.3
		v-1.7l3.3-2.7c1.2-1,1.7-1.5,1.7-2.4c0-0.8-0.5-1.3-1.3-1.3C203.9-72.8,203.4-72.4,202.7-71.5z"/>
	<path class="st1" d="M141.5-48v-9.8h2.2v9.8H141.5z"/>
	<path class="st1" d="M150.7-48v-4.2c0-1-0.5-1.5-1.3-1.5s-1.3,0.5-1.3,1.5v4.2h-2.1v-7.5h2.1v1.1c0.5-0.6,1.1-1.2,2.2-1.2
		c1.6,0,2.5,1.1,2.5,2.8v4.9H150.7z"/>
	<path class="st1" d="M157.3-47.8c-1.1,0-2.2-0.3-3.2-1.1l0.9-1.4c0.8,0.6,1.7,0.9,2.4,0.9c0.6,0,0.9-0.2,0.9-0.6v0
		c0-0.5-0.7-0.6-1.6-0.9c-1.1-0.3-2.2-0.8-2.2-2.3v0c0-1.5,1.2-2.4,2.7-2.4c1,0,2,0.3,2.8,0.9l-0.8,1.5c-0.7-0.4-1.5-0.7-2-0.7
		c-0.5,0-0.8,0.2-0.8,0.5v0c0,0.4,0.7,0.6,1.5,0.9c1.1,0.3,2.3,0.9,2.3,2.2v0C160.1-48.6,158.9-47.8,157.3-47.8z"/>
	<path class="st1" d="M164.1-47.9c-1.3,0-2.2-0.5-2.2-2.3v-3.6H161v-1.8h0.9v-1.9h2.1v1.9h1.8v1.8H164v3.2c0,0.5,0.2,0.7,0.7,0.7
		c0.4,0,0.7-0.1,1.1-0.3v1.7C165.3-48,164.8-47.9,164.1-47.9z"/>
	<path class="st1" d="M171.7-48v-0.8c-0.5,0.6-1.2,1-2.3,1c-1.4,0-2.6-0.8-2.6-2.3v0c0-1.6,1.2-2.4,3-2.4c0.8,0,1.3,0.1,1.8,0.3
		v-0.1c0-0.9-0.5-1.4-1.6-1.4c-0.8,0-1.4,0.2-2.1,0.4l-0.5-1.6c0.8-0.4,1.6-0.6,2.9-0.6c2.3,0,3.3,1.2,3.3,3.2v4.4H171.7z M171.8-51
		c-0.4-0.2-0.8-0.3-1.4-0.3c-0.9,0-1.5,0.4-1.5,1v0c0,0.6,0.5,0.9,1.2,0.9c1,0,1.7-0.5,1.7-1.3V-51z"/>
	<path class="st1" d="M180.4-48v-4.2c0-1-0.5-1.5-1.3-1.5s-1.3,0.5-1.3,1.5v4.2h-2.1v-7.5h2.1v1.1c0.5-0.6,1.1-1.2,2.2-1.2
		c1.6,0,2.5,1.1,2.5,2.8v4.9H180.4z"/>
	<path class="st1" d="M187.9-47.8c-2.3,0-3.9-1.7-3.9-3.9v0c0-2.1,1.6-3.9,3.9-3.9c1.4,0,2.3,0.5,3,1.3l-1.3,1.4
		c-0.5-0.5-1-0.8-1.7-0.8c-1.1,0-1.8,0.9-1.8,2v0c0,1.1,0.7,2.1,1.9,2.1c0.7,0,1.2-0.3,1.7-0.8l1.2,1.3
		C190.2-48.4,189.4-47.8,187.9-47.8z"/>
	<path class="st1" d="M199.1-51h-5.2c0.2,1,0.9,1.5,1.8,1.5c0.7,0,1.2-0.2,1.8-0.8l1.2,1.1c-0.7,0.9-1.7,1.4-3.1,1.4
		c-2.3,0-3.9-1.6-3.9-3.9v0c0-2.1,1.5-3.9,3.7-3.9c2.5,0,3.7,1.9,3.7,4.1v0C199.1-51.3,199.1-51.2,199.1-51z M195.5-53.9
		c-0.9,0-1.5,0.6-1.6,1.6h3.2C196.9-53.3,196.4-53.9,195.5-53.9z"/>
</g>
</svg>
