<?xml version="1.0" encoding="utf-8"?>
<!-- Generator: Adobe Illustrator 19.1.0, SVG Export Plug-In . SVG Version: 6.00 Build 0)  -->
<svg version="1.1" id="Layer_1" xmlns="http://www.w3.org/2000/svg" xmlns:xlink="http://www.w3.org/1999/xlink" x="0px" y="0px"
	 viewBox="10 -145 320 320" style="enable-background:new 10 -145 320 320;" xml:space="preserve">
<style type="text/css">
	.st0{fill:#607D8B;}
	.st1{fill:#F57C00;}
</style>
<circle class="st0" cx="151.6" cy="87.1" r="18"/>
<circle class="st0" cx="101.6" cy="87.1" r="18"/>
<circle class="st0" cx="201.6" cy="87.1" r="18"/>
<g>
	<path class="st0" d="M195.7,132.4h-4.4v-3h4.4c0.5,0,1.1,0,1.6,0l0.1,3C196.9,132.4,196.3,132.4,195.7,132.4z M185.2,132.4h-6.1v-3
		h6.1V132.4z M173,132.4h-6.1v-3h6.1V132.4z M160.8,132.4h-6.1v-3h6.1V132.4z M148.7,132.4h-6.1v-3h6.1V132.4z M136.5,132.4h-6.1v-3
		h6.1V132.4z M124.3,132.4h-6.1v-3h6.1V132.4z M112.1,132.4h-4.6c-0.5,0-1,0-1.5,0l0.1-3c0.5,0,0.9,0,1.4,0h4.6V132.4z M99.7,131.6
		c-2.1-0.4-4.1-1.1-6.1-1.8l1.1-2.8c1.8,0.7,3.7,1.3,5.6,1.7L99.7,131.6z M203.7,131.6l-0.6-2.9c1.9-0.4,3.8-1,5.6-1.7l1.1,2.8
		C207.8,130.5,205.8,131.1,203.7,131.6z M88,126.9c-1.8-1.1-3.5-2.4-5.1-3.8l2-2.3c1.5,1.3,3,2.4,4.7,3.5L88,126.9z M215.4,126.8
		l-1.6-2.5c1.6-1,3.2-2.2,4.7-3.5l2,2.2C218.9,124.4,217.2,125.7,215.4,126.8z M78.5,118.6c-1.3-1.6-2.5-3.4-3.6-5.2l2.6-1.5
		c1,1.7,2.1,3.3,3.3,4.8L78.5,118.6z M224.9,118.4l-2.3-1.9c1.2-1.5,2.3-3.1,3.3-4.8l2.6,1.5C227.4,115,226.2,116.8,224.9,118.4z
		 M72.3,107.6c-0.7-2-1.3-4-1.6-6.1l3-0.5c0.3,1.9,0.8,3.8,1.5,5.6L72.3,107.6z M231,107.4l-2.8-1c0.6-1.8,1.1-3.7,1.5-5.6l3,0.5
		C232.2,103.4,231.7,105.4,231,107.4z M73.1,95.2h-3v-0.1c0-2.1,0.2-4.3,0.5-6.3l3,0.5C73.3,91.2,73.1,93.2,73.1,95.2L73.1,95.2z
		 M230.1,95c0-1.9-0.2-3.9-0.5-5.8l3-0.5c0.4,2.1,0.5,4.2,0.5,6.3H230.1z M75,83.6l-2.8-1c0.7-2,1.6-3.9,2.6-5.8l2.6,1.5
		C76.5,80,75.7,81.8,75,83.6z M228.1,83.5c-0.6-1.8-1.5-3.6-2.4-5.3l2.6-1.5c1,1.8,1.9,3.8,2.6,5.8L228.1,83.5z M80.7,73.5l-2.3-1.9
		c1.3-1.6,2.8-3.2,4.4-4.6l2,2.2C83.3,70.5,81.9,71.9,80.7,73.5z M222.4,73.4c-1.2-1.5-2.6-2.9-4-4.2l2-2.3c1.6,1.4,3.1,2.9,4.4,4.6
		L222.4,73.4z M89.4,65.8l-1.6-2.6c1.8-1.1,3.7-2.1,5.6-2.9l1.2,2.8C92.8,63.9,91.1,64.7,89.4,65.8z M213.7,65.7
		c-1.7-1-3.4-1.9-5.2-2.6l1.1-2.8c2,0.8,3.9,1.7,5.7,2.9L213.7,65.7z M100.2,61.4l-0.6-2.9c2.1-0.4,4.2-0.7,6.3-0.8l0.1,3
		C104,60.8,102.1,61,100.2,61.4z M202.9,61.4c-1.9-0.4-3.8-0.7-5.8-0.7l0.1-3c2.1,0.1,4.2,0.4,6.3,0.8L202.9,61.4z M191.1,60.6H185
		v-3h6.1V60.6z M179,60.6h-6.1v-3h6.1V60.6z M166.8,60.6h-6.1v-3h6.1V60.6z M154.6,60.6h-6.1v-3h6.1V60.6z M142.4,60.6h-6.1v-3h6.1
		V60.6z M130.2,60.6h-6.1v-3h6.1V60.6z M118.1,60.6H112v-3h6.1V60.6z"/>
</g>
<g>
	<path class="st0" d="M119.4,121.4v-9.8h2.2v9.8H119.4z"/>
	<path class="st0" d="M128.6,121.4v-4.2c0-1-0.5-1.5-1.3-1.5s-1.3,0.5-1.3,1.5v4.2h-2.1v-7.5h2.1v1.1c0.5-0.6,1.1-1.2,2.2-1.2
		c1.6,0,2.5,1.1,2.5,2.8v4.9h-2.1V121.4z"/>
	<path class="st0" d="M135.2,121.5c-1.1,0-2.2-0.3-3.2-1.1l0.9-1.4c0.8,0.6,1.7,0.9,2.4,0.9c0.6,0,0.9-0.2,0.9-0.6l0,0
		c0-0.5-0.7-0.6-1.6-0.9c-1.1-0.3-2.2-0.8-2.2-2.3l0,0c0-1.5,1.2-2.4,2.7-2.4c1,0,2,0.3,2.8,0.9l-0.8,1.5c-0.7-0.4-1.5-0.7-2-0.7
		s-0.8,0.2-0.8,0.5l0,0c0,0.4,0.7,0.6,1.5,0.9c1.1,0.4,2.3,0.9,2.3,2.2l0,0C138,120.7,136.8,121.5,135.2,121.5z"/>
	<path class="st0" d="M142.1,121.5c-1.3,0-2.2-0.5-2.2-2.3v-3.6H139v-1.8h0.9v-1.9h2.1v1.9h1.8v1.8H142v3.2c0,0.5,0.2,0.7,0.7,0.7
		c0.4,0,0.7-0.1,1-0.3v1.7C143.3,121.3,142.8,121.5,142.1,121.5z"/>
	<path class="st0" d="M149.8,121.4v-0.8c-0.5,0.6-1.2,1-2.3,1c-1.4,0-2.6-0.8-2.6-2.3l0,0c0-1.6,1.2-2.4,3-2.4
		c0.8,0,1.3,0.1,1.8,0.3v-0.1c0-0.9-0.5-1.4-1.6-1.4c-0.8,0-1.4,0.2-2.1,0.4l-0.5-1.6c0.8-0.4,1.6-0.6,2.9-0.6
		c2.3,0,3.3,1.2,3.3,3.2v4.4L149.8,121.4L149.8,121.4z M149.8,118.3c-0.4-0.2-0.8-0.3-1.4-0.3c-0.9,0-1.5,0.4-1.5,1l0,0
		c0,0.6,0.5,0.9,1.2,0.9c1,0,1.7-0.5,1.7-1.3L149.8,118.3L149.8,118.3z"/>
	<path class="st0" d="M158.4,121.4v-4.2c0-1-0.5-1.5-1.3-1.5s-1.3,0.5-1.3,1.5v4.2h-2.1v-7.5h2.1v1.1c0.5-0.6,1.1-1.2,2.2-1.2
		c1.6,0,2.5,1.1,2.5,2.8v4.9h-2.1V121.4z"/>
	<path class="st0" d="M165.9,121.5c-2.3,0-3.9-1.7-3.9-3.9l0,0c0-2.1,1.6-3.9,3.9-3.9c1.4,0,2.3,0.5,3,1.3l-1.3,1.4
		c-0.5-0.5-1-0.8-1.7-0.8c-1.1,0-1.8,0.9-1.8,2l0,0c0,1.1,0.7,2.1,1.9,2.1c0.7,0,1.2-0.3,1.7-0.8l1.2,1.3
		C168.3,121,167.4,121.5,165.9,121.5z"/>
	<path class="st0" d="M177.4,118.3h-5.2c0.2,1,0.9,1.5,1.8,1.5c0.7,0,1.2-0.2,1.8-0.8l1.2,1.1c-0.7,0.9-1.7,1.4-3.1,1.4
		c-2.3,0-3.9-1.6-3.9-3.9l0,0c0-2.1,1.5-3.9,3.7-3.9c2.5,0,3.7,1.9,3.7,4.1l0,0C177.4,118,177.4,118.2,177.4,118.3z M173.7,115.4
		c-0.9,0-1.5,0.6-1.6,1.6h3.2C175.2,116.1,174.6,115.4,173.7,115.4z"/>
	<path class="st0" d="M181.6,121.5c-1.1,0-2.2-0.3-3.2-1.1l0.9-1.4c0.8,0.6,1.7,0.9,2.4,0.9c0.6,0,0.9-0.2,0.9-0.6l0,0
		c0-0.5-0.7-0.6-1.6-0.9c-1.1-0.3-2.2-0.8-2.2-2.3l0,0c0-1.5,1.2-2.4,2.7-2.4c1,0,2,0.3,2.8,0.9l-0.8,1.5c-0.7-0.4-1.5-0.7-2-0.7
		s-0.8,0.2-0.8,0.5l0,0c0,0.4,0.7,0.6,1.5,0.9c1.1,0.4,2.3,0.9,2.3,2.2l0,0C184.5,120.7,183.2,121.5,181.6,121.5z"/>
</g>
<g>
	<g>
		<path class="st0" d="M131,144.3c2.2,0.5,3.2,1.3,3.2,2.8c0,1.7-1.4,2.8-3.3,2.8c-1.6,0-2.8-0.5-4-1.6l0.7-0.8c1,0.9,2,1.4,3.4,1.4
			c1.3,0,2.2-0.7,2.2-1.7c0-0.9-0.5-1.4-2.5-1.9c-2.3-0.5-3.3-1.2-3.3-2.8s1.4-2.7,3.2-2.7c1.4,0,2.5,0.4,3.4,1.2l-0.6,0.9
			c-0.9-0.7-1.8-1.1-2.8-1.1c-1.3,0-2.1,0.7-2.1,1.6C128.3,143.3,128.8,143.8,131,144.3z"/>
		<path class="st0" d="M139.4,148.9c1,0,1.7-0.4,2.3-1l0.7,0.6c-0.7,0.8-1.6,1.4-3,1.4c-2,0-3.6-1.5-3.6-3.8c0-2.1,1.5-3.8,3.5-3.8
			c2.1,0,3.4,1.7,3.4,3.8c0,0.1,0,0.2,0,0.3H137C137,148,138.1,148.9,139.4,148.9z M141.5,145.7c-0.1-1.3-0.9-2.5-2.3-2.5
			c-1.3,0-2.2,1.1-2.4,2.5H141.5z"/>
		<path class="st0" d="M145.6,149.7h-1.1v-7.2h1.1v1.9c0.5-1.2,1.6-2.1,3-2v1.2h-0.1c-1.6,0-2.9,1.1-2.9,3.3V149.7z"/>
		<path class="st0" d="M155.5,142.5h1.2l-3.2,7.3h-1l-3.1-7.3h1.2l2.4,6L155.5,142.5z"/>
		<path class="st0" d="M158.4,140.9v-1.2h1.2v1.2H158.4z M158.5,149.7v-7.2h1.1v7.2H158.5z"/>
		<path class="st0" d="M165.3,149.9c-2.1,0-3.7-1.7-3.7-3.8s1.6-3.8,3.7-3.8c1.4,0,2.2,0.6,2.9,1.3l-0.7,0.8
			c-0.6-0.6-1.2-1.1-2.2-1.1c-1.5,0-2.6,1.2-2.6,2.8s1.1,2.8,2.7,2.8c0.9,0,1.6-0.5,2.2-1.1l0.7,0.6
			C167.6,149.3,166.7,149.9,165.3,149.9z"/>
		<path class="st0" d="M173.3,148.9c1,0,1.7-0.4,2.3-1l0.7,0.6c-0.7,0.8-1.6,1.4-3,1.4c-2,0-3.6-1.5-3.6-3.8c0-2.1,1.5-3.8,3.5-3.8
			c2.1,0,3.4,1.7,3.4,3.8c0,0.1,0,0.2,0,0.3h-5.7C170.9,148,172,148.9,173.3,148.9z M175.4,145.7c-0.1-1.3-0.9-2.5-2.3-2.5
			c-1.3,0-2.2,1.1-2.4,2.5H175.4z"/>
	</g>
</g>
<circle class="st1" cx="151.6" cy="-101.9" r="18"/>
<g>
	<path class="st0" d="M182.9,4.9V1h-4v3.9h-2.2v-9.8h2.2V-1h4v-3.9h2.2v9.8H182.9z"/>
	<path class="st0" d="M194.2,1.9H189c0.2,1,0.9,1.5,1.8,1.5c0.7,0,1.2-0.2,1.8-0.8l1.2,1.1c-0.7,0.9-1.7,1.4-3.1,1.4
		c-2.3,0-3.9-1.6-3.9-3.9l0,0c0-2.1,1.5-3.9,3.7-3.9c2.5,0,3.7,1.9,3.7,4.1l0,0C194.2,1.6,194.2,1.7,194.2,1.9z M190.5-1
		c-0.9,0-1.5,0.6-1.6,1.6h3.2C192-0.4,191.4-1,190.5-1z"/>
	<path class="st0" d="M200.2,4.9V4.1c-0.5,0.6-1.2,1-2.3,1c-1.4,0-2.6-0.8-2.6-2.3l0,0c0-1.6,1.2-2.4,3-2.4c0.8,0,1.3,0.1,1.8,0.3
		V0.5c0-0.9-0.5-1.4-1.6-1.4c-0.8,0-1.4,0.2-2.1,0.4l-0.5-1.6c0.8-0.4,1.6-0.6,2.9-0.6c2.3,0,3.3,1.2,3.3,3.2v4.4
		C202.1,4.9,200.2,4.9,200.2,4.9z M200.2,1.9c-0.4-0.2-0.8-0.3-1.4-0.3c-0.9,0-1.5,0.4-1.5,1l0,0c0,0.6,0.5,0.9,1.2,0.9
		c1,0,1.7-0.5,1.7-1.3L200.2,1.9L200.2,1.9z"/>
	<path class="st0" d="M204.2,4.9V-5.3h2.1V4.9C206.3,4.9,204.2,4.9,204.2,4.9z"/>
	<path class="st0" d="M210.8,5.1c-1.3,0-2.2-0.5-2.2-2.3v-3.6h-0.9v-1.8h0.9v-1.9h2.1v1.9h1.8v1.8h-1.8v3.2c0,0.5,0.2,0.7,0.7,0.7
		c0.4,0,0.7-0.1,1.1-0.3v1.7C212.1,4.9,211.5,5.1,210.8,5.1z"/>
	<path class="st0" d="M218.8,4.9V0.7c0-1-0.5-1.5-1.3-1.5s-1.3,0.5-1.3,1.5v4.2h-2.1V-5.3h2.1v3.8c0.5-0.6,1.1-1.2,2.2-1.2
		c1.6,0,2.5,1.1,2.5,2.8V5L218.8,4.9L218.8,4.9z"/>
	<path class="st0" d="M231.8,5.1c-2.9,0-5-2.2-5-5l0,0c0-2.8,2.1-5.1,5.1-5.1c1.8,0,3,0.6,3.9,1.5l-1.4,1.6
		c-0.8-0.7-1.5-1.1-2.5-1.1c-1.7,0-2.8,1.4-2.8,3.1l0,0c0,1.7,1.2,3.1,2.8,3.1c1.1,0,1.8-0.4,2.6-1.1l1.4,1.4
		C234.9,4.4,233.7,5.1,231.8,5.1z"/>
	<path class="st0" d="M242.1,4.9V0.7c0-1-0.5-1.5-1.3-1.5s-1.3,0.5-1.3,1.5v4.2h-2.1V-5.3h2.1v3.8c0.5-0.6,1.1-1.2,2.2-1.2
		c1.6,0,2.5,1.1,2.5,2.8V5L242.1,4.9L242.1,4.9z"/>
	<path class="st0" d="M253.1,1.9h-5.2c0.2,1,0.9,1.5,1.8,1.5c0.7,0,1.2-0.2,1.8-0.8l1.2,1.1c-0.7,0.9-1.7,1.4-3.1,1.4
		c-2.3,0-3.9-1.6-3.9-3.9l0,0c0-2.1,1.5-3.9,3.7-3.9c2.5,0,3.7,1.9,3.7,4.1l0,0C253.1,1.6,253.1,1.7,253.1,1.9z M249.4-1
		c-0.9,0-1.5,0.6-1.6,1.6h3.2C250.9-0.4,250.3-1,249.4-1z"/>
	<path class="st0" d="M258.2,5.1c-2.3,0-3.9-1.7-3.9-3.9l0,0c0-2.1,1.6-3.9,3.9-3.9c1.4,0,2.3,0.5,3,1.3L259.9,0
		c-0.5-0.5-1-0.8-1.7-0.8c-1.1,0-1.8,0.9-1.8,2l0,0c0,1.1,0.7,2.1,1.9,2.1c0.7,0,1.2-0.3,1.7-0.8l1.2,1.3
		C260.5,4.5,259.7,5.1,258.2,5.1z"/>
	<path class="st0" d="M267.5,4.9l-2-3.1l-0.7,0.8v2.3h-2.1V-5.3h2.1v5.4l2.5-2.7h2.5l-2.9,3l3,4.6L267.5,4.9L267.5,4.9z"/>
</g>
<path class="st0" d="M152.6,31.7V15.5c8.1-0.5,14.5-7.2,14.5-15.4s-6.4-14.9-14.5-15.4v-9.6h-3v9.6c-7.6,1-13.5,7.5-13.5,15.4
	s5.9,14.4,13.5,15.4v15.2l-8.1-8.7l-2.2,2l12.3,13.1l12.3-13.2l-2.2-2L152.6,31.7z M164.1,0c0,6.9-5.6,12.5-12.5,12.5V7.1l-1.1,1.1
	c-0.4,0.4-0.9,0.6-1.4,0.6s-1-0.2-1.4-0.6l-5.9-5.9c-0.4-0.4-0.6-0.9-0.6-1.4s0.2-1,0.6-1.4l2.5-2.5c0.4-0.4,0.9-0.6,1.4-0.6
	s1,0.2,1.4,0.6l1.9,1.9l2.6-2.5v-8.8C158.5-12.5,164.1-6.9,164.1,0z"/>
<polygon class="st0" points="143.2,0.9 145.7,-1.6 149,1.7 157.5,-6.7 160,-4.2 149,6.8 "/>
<g>
	<path class="st1" d="M117.9-63.6c-3,0-5.2-2.3-5.2-5v0c0-2.8,2.2-5.1,5.2-5.1c3,0,5.2,2.3,5.2,5v0
		C123.1-65.9,120.9-63.6,117.9-63.6z M120.8-68.7c0-1.7-1.2-3.1-3-3.1c-1.7,0-2.9,1.4-2.9,3.1v0c0,1.7,1.2,3.1,3,3.1
		C119.6-65.6,120.8-67,120.8-68.7L120.8-68.7z"/>
	<path class="st1" d="M129.2-63.6c-1.1,0-1.8-0.5-2.3-1.1v3.2h-2.1v-9.7h2.1v1.1c0.5-0.7,1.2-1.2,2.3-1.2c1.8,0,3.4,1.4,3.4,3.9v0
		C132.7-65,131-63.6,129.2-63.6z M130.5-67.5c0-1.2-0.8-2.1-1.8-2.1c-1,0-1.8,0.8-1.8,2.1v0c0,1.2,0.8,2.1,1.8,2.1
		C129.7-65.4,130.5-66.3,130.5-67.5L130.5-67.5z"/>
	<path class="st1" d="M136.8-63.6c-1.1,0-2.2-0.3-3.2-1.1l0.9-1.4c0.8,0.6,1.7,0.9,2.4,0.9c0.6,0,0.9-0.2,0.9-0.6v0
		c0-0.5-0.7-0.6-1.6-0.9c-1.1-0.3-2.2-0.8-2.2-2.3v0c0-1.5,1.2-2.4,2.7-2.4c1,0,2,0.3,2.8,0.9l-0.8,1.5c-0.7-0.4-1.5-0.7-2-0.7
		c-0.5,0-0.8,0.2-0.8,0.5v0c0,0.4,0.7,0.6,1.5,0.9c1.1,0.3,2.3,0.9,2.3,2.2v0C139.7-64.4,138.5-63.6,136.8-63.6z"/>
	<path class="st1" d="M148.2-66.8H143c0.2,1,0.9,1.5,1.8,1.5c0.7,0,1.2-0.2,1.8-0.8l1.2,1.1c-0.7,0.9-1.7,1.4-3.1,1.4
		c-2.3,0-3.9-1.6-3.9-3.9v0c0-2.1,1.5-3.9,3.7-3.9c2.5,0,3.7,1.9,3.7,4.1v0C148.2-67.1,148.2-67,148.2-66.8z M144.6-69.7
		c-0.9,0-1.5,0.6-1.6,1.6h3.2C146-69.1,145.5-69.7,144.6-69.7z"/>
	<path class="st1" d="M156.8-66.8h-5.2c0.2,1,0.9,1.5,1.8,1.5c0.7,0,1.2-0.2,1.8-0.8l1.2,1.1c-0.7,0.9-1.7,1.4-3.1,1.4
		c-2.3,0-3.9-1.6-3.9-3.9v0c0-2.1,1.5-3.9,3.7-3.9c2.5,0,3.7,1.9,3.7,4.1v0C156.8-67.1,156.8-67,156.8-66.8z M153.2-69.7
		c-0.9,0-1.5,0.6-1.6,1.6h3.2C154.6-69.1,154.1-69.7,153.2-69.7z"/>
	<path class="st1" d="M162.8-63.8v-9.8h7.4v1.9H165v2h4.6v1.9H165v2.1h5.3v1.9H162.8z"/>
	<path class="st1" d="M176.8-63.6c-2.9,0-5-2.2-5-5v0c0-2.8,2.1-5.1,5.1-5.1c1.8,0,3,0.6,3.9,1.5l-1.4,1.6c-0.8-0.7-1.5-1.1-2.5-1.1
		c-1.7,0-2.8,1.4-2.8,3.1v0c0,1.7,1.2,3.1,2.8,3.1c1.1,0,1.8-0.4,2.6-1.1l1.4,1.4C179.8-64.3,178.7-63.6,176.8-63.6z"/>
	<path class="st1" d="M183.7-70.5l-1.5-1.2c1-1.3,1.9-2,3.7-2c2.1,0,3.4,1.2,3.4,3c0,1.6-0.8,2.5-2.6,3.8l-1.6,1.2h4.3v1.9h-7.3
		v-1.7l3.3-2.7c1.2-1,1.7-1.5,1.7-2.4c0-0.8-0.5-1.3-1.3-1.3C184.9-71.8,184.4-71.4,183.7-70.5z"/>
	<path class="st1" d="M122.5-47v-9.8h2.2v9.8H122.5z"/>
	<path class="st1" d="M131.7-47v-4.2c0-1-0.5-1.5-1.3-1.5s-1.3,0.5-1.3,1.5v4.2h-2.1v-7.5h2.1v1.1c0.5-0.6,1.1-1.2,2.2-1.2
		c1.6,0,2.5,1.1,2.5,2.8v4.9H131.7z"/>
	<path class="st1" d="M138.3-46.8c-1.1,0-2.2-0.3-3.2-1.1l0.9-1.4c0.8,0.6,1.7,0.9,2.4,0.9c0.6,0,0.9-0.2,0.9-0.6v0
		c0-0.5-0.7-0.6-1.6-0.9c-1.1-0.3-2.2-0.8-2.2-2.3v0c0-1.5,1.2-2.4,2.7-2.4c1,0,2,0.3,2.8,0.9l-0.8,1.5c-0.7-0.4-1.5-0.7-2-0.7
		c-0.5,0-0.8,0.2-0.8,0.5v0c0,0.4,0.7,0.6,1.5,0.9c1.1,0.3,2.3,0.9,2.3,2.2v0C141.1-47.6,139.9-46.8,138.3-46.8z"/>
	<path class="st1" d="M145.1-46.9c-1.3,0-2.2-0.5-2.2-2.3v-3.6H142v-1.8h0.9v-1.9h2.1v1.9h1.8v1.8H145v3.2c0,0.5,0.2,0.7,0.7,0.7
		c0.4,0,0.7-0.1,1.1-0.3v1.7C146.3-47,145.8-46.9,145.1-46.9z"/>
	<path class="st1" d="M152.7-47v-0.8c-0.5,0.6-1.2,1-2.3,1c-1.4,0-2.6-0.8-2.6-2.3v0c0-1.6,1.2-2.4,3-2.4c0.8,0,1.3,0.1,1.8,0.3
		v-0.1c0-0.9-0.5-1.4-1.6-1.4c-0.8,0-1.4,0.2-2.1,0.4l-0.5-1.6c0.8-0.4,1.6-0.6,2.9-0.6c2.3,0,3.3,1.2,3.3,3.2v4.4H152.7z M152.8-50
		c-0.4-0.2-0.8-0.3-1.4-0.3c-0.9,0-1.5,0.4-1.5,1v0c0,0.6,0.5,0.9,1.2,0.9c1,0,1.7-0.5,1.7-1.3V-50z"/>
	<path class="st1" d="M161.4-47v-4.2c0-1-0.5-1.5-1.3-1.5s-1.3,0.5-1.3,1.5v4.2h-2.1v-7.5h2.1v1.1c0.5-0.6,1.1-1.2,2.2-1.2
		c1.6,0,2.5,1.1,2.5,2.8v4.9H161.4z"/>
	<path class="st1" d="M168.9-46.8c-2.3,0-3.9-1.7-3.9-3.9v0c0-2.1,1.6-3.9,3.9-3.9c1.4,0,2.3,0.5,3,1.3l-1.3,1.4
		c-0.5-0.5-1-0.8-1.7-0.8c-1.1,0-1.8,0.9-1.8,2v0c0,1.1,0.7,2.1,1.9,2.1c0.7,0,1.2-0.3,1.7-0.8l1.2,1.3
		C171.2-47.4,170.4-46.8,168.9-46.8z"/>
	<path class="st1" d="M180.1-50h-5.2c0.2,1,0.9,1.5,1.8,1.5c0.7,0,1.2-0.2,1.8-0.8l1.2,1.1c-0.7,0.9-1.7,1.4-3.1,1.4
		c-2.3,0-3.9-1.6-3.9-3.9v0c0-2.1,1.5-3.9,3.7-3.9c2.5,0,3.7,1.9,3.7,4.1v0C180.1-50.3,180.1-50.2,180.1-50z M176.5-52.9
		c-0.9,0-1.5,0.6-1.6,1.6h3.2C177.9-52.3,177.4-52.9,176.5-52.9z"/>
</g>
</svg>
