<?xml version="1.0" encoding="utf-8"?>
<!-- Generator: Adobe Illustrator 19.1.0, SVG Export Plug-In . SVG Version: 6.00 Build 0)  -->
<svg version="1.1" id="Layer_1" xmlns="http://www.w3.org/2000/svg" xmlns:xlink="http://www.w3.org/1999/xlink" x="0px" y="0px"
	 viewBox="120 180 320 320" style="enable-background:new 120 180 320 320;" xml:space="preserve">
<style type="text/css">
	.st0{fill:#607D8B;}
	.st1{fill:#F57C00;}
</style>
<g>
	<circle class="st0" cx="261.6" cy="412.1" r="18"/>
	<circle class="st0" cx="211.6" cy="412.1" r="18"/>
	<circle class="st0" cx="311.6" cy="412.1" r="18"/>
	<g>
		<path class="st0" d="M305.7,457.4h-4.4v-3h4.4c0.5,0,1.1,0,1.6,0l0.1,3C306.9,457.4,306.3,457.4,305.7,457.4z M295.2,457.4h-6.1
			v-3h6.1V457.4z M283,457.4h-6.1v-3h6.1V457.4z M270.8,457.4h-6.1v-3h6.1V457.4z M258.7,457.4h-6.1v-3h6.1V457.4z M246.5,457.4
			h-6.1v-3h6.1V457.4z M234.3,457.4h-6.1v-3h6.1V457.4z M222.1,457.4h-4.6c-0.5,0-1,0-1.5,0l0.1-3c0.5,0,0.9,0,1.4,0h4.6V457.4z
			 M209.7,456.6c-2.1-0.4-4.1-1.1-6.1-1.8l1.1-2.8c1.8,0.7,3.7,1.3,5.6,1.7L209.7,456.6z M313.7,456.6l-0.6-2.9
			c1.9-0.4,3.8-1,5.6-1.7l1.1,2.8C317.8,455.5,315.8,456.1,313.7,456.6z M198,451.9c-1.8-1.1-3.5-2.4-5.1-3.8l2-2.3
			c1.5,1.3,3,2.4,4.7,3.5L198,451.9z M325.4,451.8l-1.6-2.5c1.6-1,3.2-2.2,4.7-3.5l2,2.2C328.9,449.4,327.2,450.7,325.4,451.8z
			 M188.5,443.6c-1.3-1.6-2.5-3.4-3.6-5.2l2.6-1.5c1,1.7,2.1,3.3,3.3,4.8L188.5,443.6z M334.9,443.4l-2.3-1.9
			c1.2-1.5,2.3-3.1,3.3-4.8l2.6,1.5C337.4,440,336.2,441.8,334.9,443.4z M182.3,432.6c-0.7-2-1.3-4-1.6-6.1l3-0.5
			c0.3,1.9,0.8,3.8,1.5,5.6L182.3,432.6z M341,432.4l-2.8-1c0.6-1.8,1.1-3.7,1.5-5.6l3,0.5C342.2,428.4,341.7,430.4,341,432.4z
			 M183.1,420.2h-3v-0.1c0-2.1,0.2-4.3,0.5-6.3l3,0.5C183.3,416.2,183.1,418.2,183.1,420.2L183.1,420.2z M340.1,420
			c0-1.9-0.2-3.9-0.5-5.8l3-0.5c0.4,2.1,0.5,4.2,0.5,6.3H340.1z M185,408.6l-2.8-1c0.7-2,1.6-3.9,2.6-5.8l2.6,1.5
			C186.5,405,185.7,406.8,185,408.6z M338.1,408.5c-0.6-1.8-1.5-3.6-2.4-5.3l2.6-1.5c1,1.8,1.9,3.8,2.6,5.8L338.1,408.5z
			 M190.7,398.5l-2.3-1.9c1.3-1.6,2.8-3.2,4.4-4.6l2,2.2C193.3,395.5,191.9,396.9,190.7,398.5z M332.4,398.4c-1.2-1.5-2.6-2.9-4-4.2
			l2-2.3c1.6,1.4,3.1,2.9,4.4,4.6L332.4,398.4z M199.4,390.8l-1.6-2.6c1.8-1.1,3.7-2.1,5.6-2.9l1.2,2.8
			C202.8,388.9,201.1,389.7,199.4,390.8z M323.7,390.7c-1.7-1-3.4-1.9-5.2-2.6l1.1-2.8c2,0.8,3.9,1.7,5.7,2.9L323.7,390.7z
			 M210.2,386.4l-0.6-2.9c2.1-0.4,4.2-0.7,6.3-0.8l0.1,3C214,385.8,212.1,386,210.2,386.4z M312.9,386.4c-1.9-0.4-3.8-0.7-5.8-0.7
			l0.1-3c2.1,0.1,4.2,0.4,6.3,0.8L312.9,386.4z M301.1,385.6H295v-3h6.1V385.6z M289,385.6h-6.1v-3h6.1V385.6z M276.8,385.6h-6.1v-3
			h6.1V385.6z M264.6,385.6h-6.1v-3h6.1V385.6z M252.4,385.6h-6.1v-3h6.1V385.6z M240.2,385.6h-6.1v-3h6.1V385.6z M228.1,385.6H222
			v-3h6.1V385.6z"/>
	</g>
	<g>
		<path class="st0" d="M229.4,446.4v-9.8h2.2v9.8H229.4z"/>
		<path class="st0" d="M238.6,446.4v-4.2c0-1-0.5-1.5-1.3-1.5s-1.3,0.5-1.3,1.5v4.2h-2.1v-7.5h2.1v1.1c0.5-0.6,1.1-1.2,2.2-1.2
			c1.6,0,2.5,1.1,2.5,2.8v4.9h-2.1L238.6,446.4L238.6,446.4z"/>
		<path class="st0" d="M245.2,446.5c-1.1,0-2.2-0.3-3.2-1.1l0.9-1.4c0.8,0.6,1.7,0.9,2.4,0.9c0.6,0,0.9-0.2,0.9-0.6l0,0
			c0-0.5-0.7-0.6-1.6-0.9c-1.1-0.3-2.2-0.8-2.2-2.3l0,0c0-1.5,1.2-2.4,2.7-2.4c1,0,2,0.3,2.8,0.9l-0.8,1.5c-0.7-0.4-1.5-0.7-2-0.7
			s-0.8,0.2-0.8,0.5l0,0c0,0.4,0.7,0.6,1.5,0.9c1.1,0.4,2.3,0.9,2.3,2.2l0,0C248,445.7,246.8,446.5,245.2,446.5z"/>
		<path class="st0" d="M252.1,446.5c-1.3,0-2.2-0.5-2.2-2.3v-3.6H249v-1.8h0.9v-1.9h2.1v1.9h1.8v1.8H252v3.2c0,0.5,0.2,0.7,0.7,0.7
			c0.4,0,0.7-0.1,1-0.3v1.7C253.3,446.3,252.8,446.5,252.1,446.5z"/>
		<path class="st0" d="M259.8,446.4v-0.8c-0.5,0.6-1.2,1-2.3,1c-1.4,0-2.6-0.8-2.6-2.3l0,0c0-1.6,1.2-2.4,3-2.4
			c0.8,0,1.3,0.1,1.8,0.3v-0.1c0-0.9-0.5-1.4-1.6-1.4c-0.8,0-1.4,0.2-2.1,0.4l-0.5-1.6c0.8-0.4,1.6-0.6,2.9-0.6
			c2.3,0,3.3,1.2,3.3,3.2v4.4L259.8,446.4L259.8,446.4z M259.8,443.3c-0.4-0.2-0.8-0.3-1.4-0.3c-0.9,0-1.5,0.4-1.5,1l0,0
			c0,0.6,0.5,0.9,1.2,0.9c1,0,1.7-0.5,1.7-1.3V443.3L259.8,443.3z"/>
		<path class="st0" d="M268.4,446.4v-4.2c0-1-0.5-1.5-1.3-1.5c-0.8,0-1.3,0.5-1.3,1.5v4.2h-2.1v-7.5h2.1v1.1
			c0.5-0.6,1.1-1.2,2.2-1.2c1.6,0,2.5,1.1,2.5,2.8v4.9h-2.1V446.4L268.4,446.4z"/>
		<path class="st0" d="M275.9,446.5c-2.3,0-3.9-1.7-3.9-3.9l0,0c0-2.1,1.6-3.9,3.9-3.9c1.4,0,2.3,0.5,3,1.3l-1.3,1.4
			c-0.5-0.5-1-0.8-1.7-0.8c-1.1,0-1.8,0.9-1.8,2l0,0c0,1.1,0.7,2.1,1.9,2.1c0.7,0,1.2-0.3,1.7-0.8l1.2,1.3
			C278.3,446,277.4,446.5,275.9,446.5z"/>
		<path class="st0" d="M287.4,443.3h-5.2c0.2,1,0.9,1.5,1.8,1.5c0.7,0,1.2-0.2,1.8-0.8l1.2,1.1c-0.7,0.9-1.7,1.4-3.1,1.4
			c-2.3,0-3.9-1.6-3.9-3.9l0,0c0-2.1,1.5-3.9,3.7-3.9c2.5,0,3.7,1.9,3.7,4.1l0,0C287.4,443,287.4,443.2,287.4,443.3z M283.7,440.4
			c-0.9,0-1.5,0.6-1.6,1.6h3.2C285.2,441.1,284.6,440.4,283.7,440.4z"/>
		<path class="st0" d="M291.6,446.5c-1.1,0-2.2-0.3-3.2-1.1l0.9-1.4c0.8,0.6,1.7,0.9,2.4,0.9c0.6,0,0.9-0.2,0.9-0.6l0,0
			c0-0.5-0.7-0.6-1.6-0.9c-1.1-0.3-2.2-0.8-2.2-2.3l0,0c0-1.5,1.2-2.4,2.7-2.4c1,0,2,0.3,2.8,0.9l-0.8,1.5c-0.7-0.4-1.5-0.7-2-0.7
			s-0.8,0.2-0.8,0.5l0,0c0,0.4,0.7,0.6,1.5,0.9c1.1,0.4,2.3,0.9,2.3,2.2l0,0C294.5,445.7,293.2,446.5,291.6,446.5z"/>
	</g>
	<g>
		<g>
			<path class="st0" d="M241,469.3c2.2,0.5,3.2,1.3,3.2,2.8c0,1.7-1.4,2.8-3.3,2.8c-1.6,0-2.8-0.5-4-1.6l0.7-0.8
				c1,0.9,2,1.4,3.4,1.4c1.3,0,2.2-0.7,2.2-1.7c0-0.9-0.5-1.4-2.5-1.9c-2.3-0.5-3.3-1.2-3.3-2.8s1.4-2.7,3.2-2.7
				c1.4,0,2.5,0.4,3.4,1.2l-0.6,0.9c-0.9-0.7-1.8-1.1-2.8-1.1c-1.3,0-2.1,0.7-2.1,1.6C238.3,468.3,238.8,468.8,241,469.3z"/>
			<path class="st0" d="M249.4,473.9c1,0,1.7-0.4,2.3-1l0.7,0.6c-0.7,0.8-1.6,1.4-3,1.4c-2,0-3.6-1.5-3.6-3.8c0-2.1,1.5-3.8,3.5-3.8
				c2.1,0,3.4,1.7,3.4,3.8c0,0.1,0,0.2,0,0.3H247C247,473,248.1,473.9,249.4,473.9z M251.5,470.7c-0.1-1.3-0.9-2.5-2.3-2.5
				c-1.3,0-2.2,1.1-2.4,2.5H251.5z"/>
			<path class="st0" d="M255.6,474.7h-1.1v-7.2h1.1v1.9c0.5-1.2,1.6-2.1,3-2v1.2h-0.1c-1.6,0-2.9,1.1-2.9,3.3V474.7z"/>
			<path class="st0" d="M265.5,467.5h1.2l-3.2,7.3h-1l-3.1-7.3h1.2l2.4,6L265.5,467.5z"/>
			<path class="st0" d="M268.4,465.9v-1.2h1.2v1.2H268.4z M268.5,474.7v-7.2h1.1v7.2H268.5z"/>
			<path class="st0" d="M275.3,474.9c-2.1,0-3.7-1.7-3.7-3.8s1.6-3.8,3.7-3.8c1.4,0,2.2,0.6,2.9,1.3l-0.7,0.8
				c-0.6-0.6-1.2-1.1-2.2-1.1c-1.5,0-2.6,1.2-2.6,2.8s1.1,2.8,2.7,2.8c0.9,0,1.6-0.5,2.2-1.1l0.7,0.6
				C277.6,474.3,276.7,474.9,275.3,474.9z"/>
			<path class="st0" d="M283.3,473.9c1,0,1.7-0.4,2.3-1l0.7,0.6c-0.7,0.8-1.6,1.4-3,1.4c-2,0-3.6-1.5-3.6-3.8c0-2.1,1.5-3.8,3.5-3.8
				c2.1,0,3.4,1.7,3.4,3.8c0,0.1,0,0.2,0,0.3h-5.7C280.9,473,282,473.9,283.3,473.9z M285.4,470.7c-0.1-1.3-0.9-2.5-2.3-2.5
				c-1.3,0-2.2,1.1-2.4,2.5H285.4z"/>
		</g>
	</g>
	<circle class="st1" cx="261.6" cy="223.1" r="18"/>
	<g>
		<path class="st0" d="M292.9,329.9V326h-4v3.9h-2.2v-9.8h2.2v3.9h4v-3.9h2.2v9.8H292.9z"/>
		<path class="st0" d="M304.2,326.9H299c0.2,1,0.9,1.5,1.8,1.5c0.7,0,1.2-0.2,1.8-0.8l1.2,1.1c-0.7,0.9-1.7,1.4-3.1,1.4
			c-2.3,0-3.9-1.6-3.9-3.9l0,0c0-2.1,1.5-3.9,3.7-3.9c2.5,0,3.7,1.9,3.7,4.1l0,0C304.2,326.6,304.2,326.7,304.2,326.9z M300.5,324
			c-0.9,0-1.5,0.6-1.6,1.6h3.2C302,324.6,301.4,324,300.5,324z"/>
		<path class="st0" d="M310.2,329.9v-0.8c-0.5,0.6-1.2,1-2.3,1c-1.4,0-2.6-0.8-2.6-2.3l0,0c0-1.6,1.2-2.4,3-2.4
			c0.8,0,1.3,0.1,1.8,0.3v-0.2c0-0.9-0.5-1.4-1.6-1.4c-0.8,0-1.4,0.2-2.1,0.4l-0.5-1.6c0.8-0.4,1.6-0.6,2.9-0.6
			c2.3,0,3.3,1.2,3.3,3.2v4.4C312.1,329.9,310.2,329.9,310.2,329.9z M310.2,326.9c-0.4-0.2-0.8-0.3-1.4-0.3c-0.9,0-1.5,0.4-1.5,1
			l0,0c0,0.6,0.5,0.9,1.2,0.9c1,0,1.7-0.5,1.7-1.3V326.9L310.2,326.9z"/>
		<path class="st0" d="M314.2,329.9v-10.2h2.1v10.2H314.2z"/>
		<path class="st0" d="M320.8,330.1c-1.3,0-2.2-0.5-2.2-2.3v-3.6h-0.9v-1.8h0.9v-1.9h2.1v1.9h1.8v1.8h-1.8v3.2
			c0,0.5,0.2,0.7,0.7,0.7c0.4,0,0.7-0.1,1.1-0.3v1.7C322.1,329.9,321.5,330.1,320.8,330.1z"/>
		<path class="st0" d="M328.8,329.9v-4.2c0-1-0.5-1.5-1.3-1.5c-0.8,0-1.3,0.5-1.3,1.5v4.2h-2.1v-10.2h2.1v3.8
			c0.5-0.6,1.1-1.2,2.2-1.2c1.6,0,2.5,1.1,2.5,2.8v4.9L328.8,329.9L328.8,329.9z"/>
		<path class="st0" d="M341.8,330.1c-2.9,0-5-2.2-5-5l0,0c0-2.8,2.1-5.1,5.1-5.1c1.8,0,3,0.6,3.9,1.5l-1.4,1.6
			c-0.8-0.7-1.5-1.1-2.5-1.1c-1.7,0-2.8,1.4-2.8,3.1l0,0c0,1.7,1.2,3.1,2.8,3.1c1.1,0,1.8-0.4,2.6-1.1l1.4,1.4
			C344.9,329.4,343.7,330.1,341.8,330.1z"/>
		<path class="st0" d="M352.1,329.9v-4.2c0-1-0.5-1.5-1.3-1.5c-0.8,0-1.3,0.5-1.3,1.5v4.2h-2.1v-10.2h2.1v3.8
			c0.5-0.6,1.1-1.2,2.2-1.2c1.6,0,2.5,1.1,2.5,2.8v4.9L352.1,329.9L352.1,329.9z"/>
		<path class="st0" d="M363.1,326.9h-5.2c0.2,1,0.9,1.5,1.8,1.5c0.7,0,1.2-0.2,1.8-0.8l1.2,1.1c-0.7,0.9-1.7,1.4-3.1,1.4
			c-2.3,0-3.9-1.6-3.9-3.9l0,0c0-2.1,1.5-3.9,3.7-3.9c2.5,0,3.7,1.9,3.7,4.1l0,0C363.1,326.6,363.1,326.7,363.1,326.9z M359.4,324
			c-0.9,0-1.5,0.6-1.6,1.6h3.2C360.9,324.6,360.3,324,359.4,324z"/>
		<path class="st0" d="M368.2,330.1c-2.3,0-3.9-1.7-3.9-3.9l0,0c0-2.1,1.6-3.9,3.9-3.9c1.4,0,2.3,0.5,3,1.3l-1.3,1.4
			c-0.5-0.5-1-0.8-1.7-0.8c-1.1,0-1.8,0.9-1.8,2l0,0c0,1.1,0.7,2.1,1.9,2.1c0.7,0,1.2-0.3,1.7-0.8l1.2,1.3
			C370.5,329.5,369.7,330.1,368.2,330.1z"/>
		<path class="st0" d="M377.5,329.9l-2-3.1l-0.7,0.8v2.3h-2.1v-10.2h2.1v5.4l2.5-2.7h2.5l-2.9,3l3,4.6L377.5,329.9L377.5,329.9z"/>
	</g>
	<path class="st0" d="M262.6,356.7v-16.2c8.1-0.5,14.5-7.2,14.5-15.4c0-8.2-6.4-14.9-14.5-15.4v-9.6h-3v9.6
		c-7.6,1-13.5,7.5-13.5,15.4s5.9,14.4,13.5,15.4v15.2l-8.1-8.7l-2.2,2l12.3,13.1l12.3-13.2l-2.2-2L262.6,356.7z M274.1,325
		c0,6.9-5.6,12.5-12.5,12.5v-5.4l-1.1,1.1c-0.4,0.4-0.9,0.6-1.4,0.6s-1-0.2-1.4-0.6l-5.9-5.9c-0.4-0.4-0.6-0.9-0.6-1.4
		s0.2-1,0.6-1.4l2.5-2.5c0.4-0.4,0.9-0.6,1.4-0.6s1,0.2,1.4,0.6l1.9,1.9l2.6-2.5v-8.8C268.5,312.5,274.1,318.1,274.1,325z"/>
	<polygon class="st0" points="253.2,325.9 255.7,323.4 259,326.7 267.5,318.3 270,320.8 259,331.8 	"/>
	<g>
		<path class="st1" d="M227.9,261.4c-3,0-5.2-2.3-5.2-5l0,0c0-2.8,2.2-5.1,5.2-5.1s5.2,2.3,5.2,5l0,0
			C233.1,259.1,230.9,261.4,227.9,261.4z M230.8,256.3c0-1.7-1.2-3.1-3-3.1c-1.7,0-2.9,1.4-2.9,3.1l0,0c0,1.7,1.2,3.1,3,3.1
			C229.6,259.4,230.8,258,230.8,256.3L230.8,256.3z"/>
		<path class="st1" d="M239.2,261.4c-1.1,0-1.8-0.5-2.3-1.1v3.2h-2.1v-9.7h2.1v1.1c0.5-0.7,1.2-1.2,2.3-1.2c1.8,0,3.4,1.4,3.4,3.9
			l0,0C242.7,260,241,261.4,239.2,261.4z M240.5,257.5c0-1.2-0.8-2.1-1.8-2.1s-1.8,0.8-1.8,2.1l0,0c0,1.2,0.8,2.1,1.8,2.1
			S240.5,258.7,240.5,257.5L240.5,257.5z"/>
		<path class="st1" d="M246.8,261.4c-1.1,0-2.2-0.3-3.2-1.1l0.9-1.4c0.8,0.6,1.7,0.9,2.4,0.9c0.6,0,0.9-0.2,0.9-0.6l0,0
			c0-0.5-0.7-0.6-1.6-0.9c-1.1-0.3-2.2-0.8-2.2-2.3l0,0c0-1.5,1.2-2.4,2.7-2.4c1,0,2,0.3,2.8,0.9l-0.8,1.5c-0.7-0.4-1.5-0.7-2-0.7
			s-0.8,0.2-0.8,0.5l0,0c0,0.4,0.7,0.6,1.5,0.9c1.1,0.3,2.3,0.9,2.3,2.2l0,0C249.7,260.6,248.5,261.4,246.8,261.4z"/>
		<path class="st1" d="M258.2,258.2H253c0.2,1,0.9,1.5,1.8,1.5c0.7,0,1.2-0.2,1.8-0.8l1.2,1.1c-0.7,0.9-1.7,1.4-3.1,1.4
			c-2.3,0-3.9-1.6-3.9-3.9l0,0c0-2.1,1.5-3.9,3.7-3.9c2.5,0,3.7,1.9,3.7,4.1l0,0C258.2,257.9,258.2,258,258.2,258.2z M254.6,255.3
			c-0.9,0-1.5,0.6-1.6,1.6h3.2C256,255.9,255.5,255.3,254.6,255.3z"/>
		<path class="st1" d="M266.8,258.2h-5.2c0.2,1,0.9,1.5,1.8,1.5c0.7,0,1.2-0.2,1.8-0.8l1.2,1.1c-0.7,0.9-1.7,1.4-3.1,1.4
			c-2.3,0-3.9-1.6-3.9-3.9l0,0c0-2.1,1.5-3.9,3.7-3.9c2.5,0,3.7,1.9,3.7,4.1l0,0C266.8,257.9,266.8,258,266.8,258.2z M263.2,255.3
			c-0.9,0-1.5,0.6-1.6,1.6h3.2C264.6,255.9,264.1,255.3,263.2,255.3z"/>
		<path class="st1" d="M272.8,261.2v-9.8h7.4v1.9H275v2h4.6v1.9H275v2.1h5.3v1.9C280.3,261.2,272.8,261.2,272.8,261.2z"/>
		<path class="st1" d="M286.8,261.4c-2.9,0-5-2.2-5-5l0,0c0-2.8,2.1-5.1,5.1-5.1c1.8,0,3,0.6,3.9,1.5l-1.4,1.6
			c-0.8-0.7-1.5-1.1-2.5-1.1c-1.7,0-2.8,1.4-2.8,3.1l0,0c0,1.7,1.2,3.1,2.8,3.1c1.1,0,1.8-0.4,2.6-1.1l1.4,1.4
			C289.8,260.7,288.7,261.4,286.8,261.4z"/>
		<path class="st1" d="M293.7,254.5l-1.5-1.2c1-1.3,1.9-2,3.7-2c2.1,0,3.4,1.2,3.4,3c0,1.6-0.8,2.5-2.6,3.8l-1.6,1.2h4.3v1.9h-7.3
			v-1.7l3.3-2.7c1.2-1,1.7-1.5,1.7-2.4c0-0.8-0.5-1.3-1.3-1.3C294.9,253.2,294.4,253.6,293.7,254.5z"/>
		<path class="st1" d="M232.5,278v-9.8h2.2v9.8H232.5z"/>
		<path class="st1" d="M241.7,278v-4.2c0-1-0.5-1.5-1.3-1.5s-1.3,0.5-1.3,1.5v4.2H237v-7.5h2.1v1.1c0.5-0.6,1.1-1.2,2.2-1.2
			c1.6,0,2.5,1.1,2.5,2.8v4.9h-2.1V278z"/>
		<path class="st1" d="M248.3,278.2c-1.1,0-2.2-0.3-3.2-1.1l0.9-1.4c0.8,0.6,1.7,0.9,2.4,0.9c0.6,0,0.9-0.2,0.9-0.6l0,0
			c0-0.5-0.7-0.6-1.6-0.9c-1.1-0.3-2.2-0.8-2.2-2.3l0,0c0-1.5,1.2-2.4,2.7-2.4c1,0,2,0.3,2.8,0.9l-0.8,1.5c-0.7-0.4-1.5-0.7-2-0.7
			s-0.8,0.2-0.8,0.5l0,0c0,0.4,0.7,0.6,1.5,0.9c1.1,0.3,2.3,0.9,2.3,2.2l0,0C251.1,277.4,249.9,278.2,248.3,278.2z"/>
		<path class="st1" d="M255.1,278.1c-1.3,0-2.2-0.5-2.2-2.3v-3.6H252v-1.8h0.9v-1.9h2.1v1.9h1.8v1.8H255v3.2c0,0.5,0.2,0.7,0.7,0.7
			c0.4,0,0.7-0.1,1.1-0.3v1.7C256.3,278,255.8,278.1,255.1,278.1z"/>
		<path class="st1" d="M262.7,278v-0.8c-0.5,0.6-1.2,1-2.3,1c-1.4,0-2.6-0.8-2.6-2.3l0,0c0-1.6,1.2-2.4,3-2.4c0.8,0,1.3,0.1,1.8,0.3
			v-0.1c0-0.9-0.5-1.4-1.6-1.4c-0.8,0-1.4,0.2-2.1,0.4l-0.5-1.6c0.8-0.4,1.6-0.6,2.9-0.6c2.3,0,3.3,1.2,3.3,3.2v4.4h-1.9V278z
			 M262.8,275c-0.4-0.2-0.8-0.3-1.4-0.3c-0.9,0-1.5,0.4-1.5,1l0,0c0,0.6,0.5,0.9,1.2,0.9c1,0,1.7-0.5,1.7-1.3V275z"/>
		<path class="st1" d="M271.4,278v-4.2c0-1-0.5-1.5-1.3-1.5c-0.8,0-1.3,0.5-1.3,1.5v4.2h-2.1v-7.5h2.1v1.1c0.5-0.6,1.1-1.2,2.2-1.2
			c1.6,0,2.5,1.1,2.5,2.8v4.9h-2.1V278z"/>
		<path class="st1" d="M278.9,278.2c-2.3,0-3.9-1.7-3.9-3.9l0,0c0-2.1,1.6-3.9,3.9-3.9c1.4,0,2.3,0.5,3,1.3l-1.3,1.4
			c-0.5-0.5-1-0.8-1.7-0.8c-1.1,0-1.8,0.9-1.8,2l0,0c0,1.1,0.7,2.1,1.9,2.1c0.7,0,1.2-0.3,1.7-0.8l1.2,1.3
			C281.2,277.6,280.4,278.2,278.9,278.2z"/>
		<path class="st1" d="M290.1,275h-5.2c0.2,1,0.9,1.5,1.8,1.5c0.7,0,1.2-0.2,1.8-0.8l1.2,1.1c-0.7,0.9-1.7,1.4-3.1,1.4
			c-2.3,0-3.9-1.6-3.9-3.9l0,0c0-2.1,1.5-3.9,3.7-3.9c2.5,0,3.7,1.9,3.7,4.1l0,0C290.1,274.7,290.1,274.8,290.1,275z M286.5,272.1
			c-0.9,0-1.5,0.6-1.6,1.6h3.2C287.9,272.7,287.4,272.1,286.5,272.1z"/>
	</g>
</g>
</svg>
