<?xml version="1.0" encoding="utf-8"?>
<!-- Generator: Adobe Illustrator 19.1.0, SVG Export Plug-In . SVG Version: 6.00 Build 0)  -->
<svg version="1.1" id="Layer_1" xmlns="http://www.w3.org/2000/svg" xmlns:xlink="http://www.w3.org/1999/xlink" x="0px" y="0px"
	 viewBox="120 180 320 320" style="enable-background:new 120 180 320 320;" xml:space="preserve">
<style type="text/css">
	.st0{fill:#607D8B;}
	.st1{fill:#F57C00;}
</style>
<g>
	<g>
		<path class="st0" d="M277,496.8c-2,0-4-0.1-6-0.3l0.2-3c2,0.1,3.9,0.2,5.9,0.3L277,496.8z M283.1,496.8l-0.1-3
			c2,0,3.9-0.1,5.9-0.3l0.2,3C287.1,496.7,285.1,496.8,283.1,496.8z M265,496c-2-0.2-4-0.5-6-0.9l0.5-3c1.9,0.3,3.9,0.6,5.8,0.9
			L265,496z M295.2,495.9l-0.4-3c1.9-0.2,3.9-0.5,5.8-0.9l0.5,3C299.2,495.4,297.2,495.7,295.2,495.9z M253,493.9
			c-2-0.4-3.9-0.9-5.9-1.5l0.8-2.9c1.9,0.5,3.8,1,5.7,1.5L253,493.9z M307.1,493.9l-0.7-2.9c1.9-0.4,3.8-0.9,5.7-1.5l0.8,2.9
			C311,492.9,309,493.4,307.1,493.9z M241.4,490.6c-1.9-0.6-3.8-1.3-5.7-2.1l1.1-2.8c1.8,0.7,3.7,1.4,5.6,2L241.4,490.6z
			 M318.7,490.6l-1-2.8c1.9-0.6,3.7-1.3,5.6-2l1.1,2.8C322.6,489.2,320.6,489.9,318.7,490.6z M230.1,486.2c-1.8-0.8-3.7-1.7-5.5-2.6
			l1.4-2.7c1.7,0.9,3.5,1.8,5.3,2.6L230.1,486.2z M330,486.1l-1.2-2.7c1.8-0.8,3.6-1.7,5.3-2.6l1.4,2.7
			C333.7,484.4,331.8,485.3,330,486.1z M219.3,480.6c-1.7-1-3.5-2.1-5.2-3.2l1.6-2.5c1.6,1.1,3.3,2.1,5,3.1L219.3,480.6z
			 M340.8,480.6l-1.5-2.6c1.7-1,3.4-2,5-3.1l1.6,2.5C344.2,478.5,342.5,479.6,340.8,480.6z M209.1,474.1c-1.6-1.2-3.3-2.4-4.8-3.7
			l1.9-2.3c1.5,1.2,3.1,2.4,4.7,3.6L209.1,474.1z M350.9,474l-1.8-2.4c1.6-1.1,3.2-2.3,4.7-3.6l1.9,2.3
			C354.2,471.7,352.5,472.9,350.9,474z M199.6,466.5c-1.5-1.3-3-2.7-4.4-4.1l2.1-2.1c1.4,1.4,2.9,2.7,4.3,4L199.6,466.5z
			 M360.4,466.5l-2-2.2c1.5-1.3,2.9-2.7,4.3-4l2.1,2.1C363.4,463.8,361.9,465.2,360.4,466.5z M191,458c-1.4-1.5-2.7-3-4-4.5l2.3-1.9
			c1.3,1.5,2.6,3,3.9,4.4L191,458z M369,458l-2.2-2c1.3-1.4,2.7-2.9,3.9-4.4l2.3,1.9C371.8,455,370.4,456.6,369,458z M183.2,448.8
			c-1.2-1.6-2.4-3.3-3.5-4.9l2.5-1.7c1.1,1.6,2.3,3.2,3.5,4.8L183.2,448.8z M376.8,448.8l-2.4-1.8c1.2-1.6,2.4-3.2,3.5-4.8l2.5,1.7
			C379.2,445.5,378.1,447.2,376.8,448.8z M176.3,438.8c-1.1-1.7-2.1-3.5-3-5.2l2.6-1.4c0.9,1.7,1.9,3.4,3,5.1L176.3,438.8z
			 M383.7,438.8l-2.6-1.6c1-1.7,2-3.4,3-5.1l2.6,1.4C385.8,435.3,384.7,437,383.7,438.8z M170.5,428.2c-0.9-1.8-1.7-3.7-2.5-5.5
			l2.8-1.2c0.8,1.8,1.6,3.6,2.4,5.4L170.5,428.2z M389.5,428.1l-2.7-1.3c0.9-1.8,1.7-3.6,2.4-5.4l2.8,1.2
			C391.2,424.4,390.4,426.3,389.5,428.1z M165.8,417.1c-0.7-1.9-1.3-3.8-1.9-5.7l2.9-0.9c0.6,1.9,1.2,3.8,1.9,5.6L165.8,417.1z
			 M394.2,416.9l-2.8-1c0.7-1.8,1.3-3.7,1.9-5.6l2.9,0.9C395.5,413.1,394.9,415,394.2,416.9z M162.3,405.5c-0.5-1.9-1-3.9-1.3-5.9
			l2.9-0.6c0.4,1.9,0.8,3.9,1.3,5.8L162.3,405.5z M397.8,405.4l-2.9-0.7c0.5-1.9,0.9-3.8,1.3-5.8l2.9,0.6
			C398.7,401.4,398.3,403.4,397.8,405.4z M159.9,393.6c-0.3-2-0.6-4-0.8-6l3-0.3c0.2,2,0.4,3.9,0.7,5.9L159.9,393.6z M400.2,393.5
			l-3-0.4c0.3-1.9,0.5-3.9,0.7-5.9l3,0.3C400.7,389.5,400.5,391.5,400.2,393.5z M158.7,381.6c-0.1-2-0.2-4-0.2-6.1h3
			c0,2,0.1,4,0.2,5.9L158.7,381.6z M401.4,381.4l-3-0.1c0.1-1.9,0.1-3.9,0.1-5.9v-0.3h3v0.2C401.5,377.4,401.5,379.4,401.4,381.4z
			 M161.6,369.6l-3-0.1c0.1-2,0.2-4,0.4-6l3,0.3C161.9,365.7,161.7,367.6,161.6,369.6z M398.3,369.2c-0.1-2-0.3-3.9-0.4-5.9l3-0.3
			c0.2,2,0.4,4,0.5,6L398.3,369.2z M162.8,357.8l-3-0.4c0.3-2,0.6-4,1-6l2.9,0.6C163.4,354,163.1,355.9,162.8,357.8z M397.2,357.5
			c-0.3-1.9-0.6-3.9-1-5.8l2.9-0.6c0.4,2,0.8,4,1.1,6L397.2,357.5z M165.1,346.3l-2.9-0.7c0.5-1.9,1-3.9,1.6-5.8l2.9,0.9
			C166.1,342.5,165.6,344.4,165.1,346.3z M394.8,345.9c-0.5-1.9-1-3.8-1.6-5.7l2.9-0.9c0.6,1.9,1.1,3.9,1.6,5.8L394.8,345.9z
			 M168.6,335l-2.8-1c0.7-1.9,1.4-3.8,2.2-5.7l2.8,1.2C170,331.3,169.2,333.1,168.6,335z M391.3,334.6c-0.7-1.8-1.4-3.7-2.2-5.5
			l2.8-1.2c0.8,1.8,1.5,3.7,2.2,5.6L391.3,334.6z M173.2,324.1l-2.7-1.3c0.9-1.8,1.8-3.6,2.8-5.4l2.6,1.4
			C174.9,320.5,174,322.3,173.2,324.1z M386.7,323.8c-0.9-1.8-1.8-3.5-2.7-5.2l2.6-1.4c1,1.8,1.9,3.6,2.8,5.4L386.7,323.8z
			 M178.8,313.7l-2.6-1.6c1-1.7,2.2-3.4,3.3-5.1l2.5,1.7C180.9,310.3,179.8,312,178.8,313.7z M381,313.4c-1-1.7-2.1-3.3-3.2-4.9
			l2.5-1.7c1.1,1.6,2.2,3.4,3.3,5.1L381,313.4z M185.5,303.9l-2.4-1.8c1.2-1.6,2.5-3.2,3.8-4.7l2.3,1.9
			C187.9,300.8,186.7,302.3,185.5,303.9z M374.4,303.7c-1.2-1.6-2.4-3.1-3.7-4.6l2.3-1.9c1.3,1.5,2.6,3.1,3.8,4.7L374.4,303.7z
			 M193.1,294.9l-2.2-2c1.4-1.5,2.8-2.9,4.2-4.3l2.1,2.1C195.8,292,194.4,293.4,193.1,294.9z M366.8,294.7c-1.3-1.4-2.7-2.9-4.1-4.2
			l2.1-2.2c1.4,1.4,2.9,2.9,4.2,4.3L366.8,294.7z M201.5,286.6l-2-2.2c1.5-1.3,3.1-2.6,4.6-3.9l1.9,2.3
			C204.5,284,203,285.3,201.5,286.6z M358.3,286.4c-1.5-1.3-3-2.6-4.5-3.8l1.9-2.3c1.6,1.2,3.1,2.6,4.6,3.9L358.3,286.4z
			 M210.7,279.2l-1.8-2.4c1.6-1.2,3.3-2.3,5-3.4l1.6,2.5C214,277,212.3,278.1,210.7,279.2z M349,279.1c-1.6-1.1-3.2-2.3-4.9-3.3
			l1.6-2.5c1.7,1.1,3.4,2.2,5,3.4L349,279.1z M220.6,272.8l-1.5-2.6c1.7-1,3.5-2,5.3-2.9l1.4,2.7
			C224.1,270.9,222.3,271.8,220.6,272.8z M339.1,272.7c-1.7-1-3.4-1.9-5.2-2.8l1.4-2.7c1.8,0.9,3.6,1.9,5.3,2.9L339.1,272.7z
			 M231.1,267.4l-1.2-2.7c1.8-0.8,3.7-1.6,5.6-2.4l1.1,2.8C234.7,265.8,232.9,266.6,231.1,267.4z M328.6,267.3
			c-1.8-0.8-3.6-1.6-5.5-2.3l1.1-2.8c1.9,0.7,3.8,1.5,5.6,2.4L328.6,267.3z M242.1,263.1l-1-2.8c1.9-0.6,3.9-1.2,5.8-1.8l0.8,2.9
			C245.8,261.9,243.9,262.4,242.1,263.1z M317.6,263c-1.9-0.6-3.8-1.2-5.6-1.7l0.8-2.9c1.9,0.5,3.9,1.1,5.8,1.8L317.6,263z
			 M253.5,259.9l-0.7-2.9c2-0.4,4-0.9,5.9-1.2l0.5,3C257.3,259,255.4,259.4,253.5,259.9z M306.2,259.8c-1.9-0.4-3.9-0.8-5.8-1.2
			l0.5-3c2,0.3,4,0.7,5.9,1.2L306.2,259.8z M265.1,257.8l-0.4-3c2-0.2,4-0.5,6-0.6l0.2,3C269,257.4,267,257.6,265.1,257.8z
			 M294.5,257.8c-1.9-0.2-3.9-0.4-5.9-0.6l0.2-3c2,0.1,4,0.3,6,0.6L294.5,257.8z M276.9,256.9l-0.1-3c2-0.1,4-0.1,6.1,0l-0.1,3
			C280.8,256.9,278.8,256.9,276.9,256.9z"/>
	</g>
	<g>
		<path class="st0" d="M296,199.2c0.5,0,1-0.4,1-1v-6c0-0.6-0.5-1-1-1s-1,0.4-1,1v6C295,198.8,295.5,199.2,296,199.2z"/>
		<path class="st0" d="M312,191.2c-0.5,0-1,0.4-1,1v6c0,0.6,0.5,1,1,1s1-0.4,1-1v-6C313,191.6,312.5,191.2,312,191.2z"/>
		<path class="st0" d="M312,183.2c-3.5,0-6.5,2-8,4.9c-1.5-2.9-4.5-4.9-8-4.9s-6.5,2-8,4.9c-1.5-2.9-4.5-4.9-8-4.9s-6.5,2-8,4.9
			c-1.5-2.9-4.5-4.9-8-4.9s-6.5,2-8,4.9c-1.5-2.9-4.5-4.9-8-4.9c-5,0-9,4.1-9,9v18c0,4.9,4,9,9,9c2.9,0,5.4-1.3,7-3.3v9.3
			c0,2.8,2.2,5,5,5s5-2.2,5-5v-6.1c3-0.3,5.6-2.2,7-4.8c1.5,2.9,4.5,4.9,8,4.9s6.5-2,8-4.9c1.5,2.9,4.5,4.9,8,4.9s6.5-2,8-4.9
			c1.5,2.9,4.5,4.9,8,4.9c5,0,9-4,9-9v-18C321,187.3,317,183.2,312,183.2z M248,217.2c-3.9,0-7-3.2-7-7v-18c0-3.8,3.1-7,7-7
			s7,3.2,7,7l0,0v18l0,0C255,214,251.9,217.2,248,217.2z M264,217.2c-0.4,0-0.6-0.1-1-0.1v8.1c0,1.7-1.4,3-3,3s-3-1.3-3-3v-15v-18
			c0-3.8,3.1-7,7-7s7,3.2,7,7l0,0v18l0,0C271,214,267.9,217.2,264,217.2z M279.6,217.2c-3.8-0.2-6.6-3.4-6.6-7.2v-2.8
			c0-0.6,0.5-1,1-1h4c0.5,0,1,0.4,1,1v2.9c0,0.5,0.4,1,0.9,1.1c0.6,0.1,1.1-0.4,1.1-1v-3c0-1.7-1.4-3-3-3h-0.5c-2.5,0-4.5-2-4.5-4.5
			v-7.3c0-3.8,2.9-7,6.6-7.2c4-0.2,7.4,3,7.4,7l0,0v3c0,0.6-0.5,1-1,1h-4c-0.5,0-1-0.4-1-1v-2.9c0-0.5-0.4-1-0.9-1.1
			c-0.6-0.1-1.1,0.4-1.1,1v3c0,1.7,1.4,3,3,3h0.5c2.5,0,4.5,2,4.5,4.5v7.5l0,0C287,214.2,283.6,217.4,279.6,217.2z M295.6,217.2
			c-3.8-0.2-6.6-3.4-6.6-7.2v-17.6c0-3.8,2.9-7,6.6-7.2c4-0.2,7.4,3,7.4,7l0,0v12c0,0.6-0.5,1-1,1h-4c-1.6,0-3,1.3-3,3v1.9
			c0,0.5,0.4,1,0.9,1.1c0.6,0.1,1.1-0.4,1.1-1v-2.3c0-0.5,0.5-1,1-1h4c0.5,0,1,0.5,1,1v2.3l0,0C303,214.2,299.6,217.4,295.6,217.2z
			 M319,204.2c0,0.6-0.5,1-1,1h-4c-1.6,0-3,1.3-3,3v1.9c0,0.5,0.4,1,0.9,1.1c0.6,0.1,1.1-0.4,1.1-1v-2.3c0-0.5,0.5-1,1-1h4
			c0.5,0,1,0.5,1,1v2.3c0,4-3.4,7.2-7.4,7c-3.8-0.2-6.6-3.4-6.6-7.2v-17.6c0-3.8,2.9-7,6.6-7.2c4-0.2,7.4,3,7.4,7V204.2z"/>
		<path class="st0" d="M264,191.2c-0.5,0-1,0.4-1,1v18c0,0.6,0.5,1,1,1s1-0.4,1-1v-18C265,191.6,264.5,191.2,264,191.2z"/>
		<path class="st0" d="M248,191.2c-0.5,0-1,0.4-1,1v18c0,0.6,0.5,1,1,1s1-0.4,1-1v-18C249,191.6,248.5,191.2,248,191.2z"/>
	</g>
	<g>
		<path class="st0" d="M250.6,454.4h-1.1v-3.9l-4.1-5.9h1.3l3.3,4.9l3.3-4.9h1.3l-4.1,5.9v3.9H250.6z"/>
		<path class="st0" d="M258,454.6c-2.2,0-3.8-1.7-3.8-3.8c0-2.1,1.6-3.8,3.8-3.8c2.2,0,3.8,1.7,3.8,3.8
			C261.8,452.9,260.2,454.6,258,454.6z M258,448c-1.6,0-2.6,1.2-2.6,2.8c0,1.6,1.1,2.8,2.7,2.8c1.6,0,2.7-1.2,2.7-2.8
			C260.7,449.2,259.5,448,258,448z"/>
		<path class="st0" d="M268.9,447.2h1.1v7.2h-1.1v-1.2c-0.5,0.8-1.2,1.4-2.5,1.4c-1.8,0-2.8-1.2-2.8-2.9v-4.5h1.1v4.2
			c0,1.3,0.7,2.2,2,2.2c1.2,0,2.2-0.9,2.2-2.3V447.2L268.9,447.2z"/>
		<path class="st0" d="M273.4,454.4h-1.1v-7.2h1.1v1.9c0.5-1.2,1.6-2.1,3-2v1.2h-0.1c-1.6,0-2.9,1.1-2.9,3.3V454.4z"/>
		<path class="st0" d="M291.5,454.4h-1.2l-1.1-2.6h-5.3l-1.2,2.6h-1.1l4.5-9.9h1L291.5,454.4z M286.5,445.8l-2.2,5h4.5L286.5,445.8z
			"/>
		<path class="st0" d="M298.1,444.6h0.9l2.7,8.2l2.8-8.2h1.2l-3.5,9.9h-0.9l-2.7-8l-2.7,8H295l-3.5-9.9h1.2l2.8,8.2L298.1,444.6z"/>
		<path class="st0" d="M311,449c2.2,0.5,3.2,1.3,3.2,2.8c0,1.7-1.4,2.8-3.3,2.8c-1.6,0-2.8-0.5-4-1.6l0.7-0.8c1,0.9,2,1.4,3.4,1.4
			c1.3,0,2.2-0.7,2.2-1.7c0-0.9-0.5-1.4-2.5-1.9c-2.3-0.5-3.3-1.2-3.3-2.8s1.4-2.7,3.2-2.7c1.4,0,2.5,0.4,3.4,1.2l-0.6,0.9
			c-0.9-0.7-1.8-1.1-2.8-1.1c-1.3,0-2.1,0.7-2.1,1.6C308.3,448,308.8,448.5,311,449z"/>
		<path class="st0" d="M240.4,470.4c1,0,1.7-0.4,2.3-1l0.7,0.6c-0.7,0.8-1.6,1.4-3,1.4c-2,0-3.6-1.5-3.6-3.8c0-2.1,1.5-3.8,3.5-3.8
			c2.1,0,3.4,1.7,3.4,3.8c0,0.1,0,0.2,0,0.3H238C238,469.6,239.1,470.4,240.4,470.4z M242.5,467.2c-0.1-1.3-0.9-2.5-2.3-2.5
			c-1.3,0-2.2,1.1-2.4,2.5H242.5z"/>
		<path class="st0" d="M246.6,471.2h-1.1V464h1.1v1.3c0.5-0.8,1.2-1.4,2.5-1.4c1.8,0,2.8,1.2,2.8,2.9v4.5h-1.1v-4.2
			c0-1.3-0.7-2.2-2-2.2c-1.2,0-2.2,0.9-2.2,2.3V471.2L246.6,471.2z"/>
		<path class="st0" d="M259.5,464h1.2l-3.2,7.3h-1l-3.1-7.3h1.2l2.4,6L259.5,464z"/>
		<path class="st0" d="M262.3,462.4v-1.2h1.2v1.2H262.3z M262.4,471.2V464h1.1v7.2H262.4z"/>
		<path class="st0" d="M267.1,471.2H266V464h1.1v1.9c0.5-1.2,1.6-2.1,3-2v1.2H270c-1.6,0-2.9,1.1-2.9,3.3V471.2z"/>
		<path class="st0" d="M275,471.4c-2.2,0-3.8-1.7-3.8-3.8c0-2.1,1.6-3.8,3.8-3.8s3.8,1.7,3.8,3.8C278.8,469.7,277.2,471.4,275,471.4
			z M275,464.8c-1.6,0-2.6,1.2-2.6,2.8s1.1,2.8,2.7,2.8c1.6,0,2.7-1.2,2.7-2.8C277.7,466,276.5,464.8,275,464.8z"/>
		<path class="st0" d="M281.8,471.2h-1.1V464h1.1v1.3c0.5-0.8,1.2-1.4,2.5-1.4c1.8,0,2.8,1.2,2.8,2.9v4.5H286v-4.2
			c0-1.3-0.7-2.2-2-2.2c-1.2,0-2.2,0.9-2.2,2.3V471.2z"/>
		<path class="st0" d="M297.6,463.8c1.7,0,2.7,1.1,2.7,2.9v4.5h-1.1V467c0-1.4-0.7-2.2-1.9-2.2c-1.1,0-2,0.8-2,2.2v4.2h-1.1v-4.3
			c0-1.4-0.7-2.2-1.9-2.2c-1.1,0-2,1-2,2.3v4.1h-1.1v-7.2h1.1v1.2c0.5-0.7,1.1-1.4,2.3-1.4s1.9,0.6,2.3,1.4
			C295.6,464.5,296.4,463.8,297.6,463.8z"/>
		<path class="st0" d="M305.8,470.4c1,0,1.7-0.4,2.3-1l0.7,0.6c-0.7,0.8-1.6,1.4-3,1.4c-2,0-3.6-1.5-3.6-3.8c0-2.1,1.5-3.8,3.5-3.8
			c2.1,0,3.4,1.7,3.4,3.8c0,0.1,0,0.2,0,0.3h-5.7C303.5,469.6,304.6,470.4,305.8,470.4z M308,467.2c-0.1-1.3-0.9-2.5-2.3-2.5
			c-1.3,0-2.2,1.1-2.4,2.5H308z"/>
		<path class="st0" d="M312,471.2h-1.1V464h1.1v1.3c0.5-0.8,1.2-1.4,2.5-1.4c1.8,0,2.8,1.2,2.8,2.9v4.5h-1.1v-4.2
			c0-1.3-0.7-2.2-2-2.2c-1.2,0-2.2,0.9-2.2,2.3V471.2L312,471.2z"/>
		<path class="st0" d="M321,469.2c0,0.9,0.5,1.2,1.2,1.2c0.4,0,0.7-0.1,1.1-0.3v0.9c-0.4,0.2-0.8,0.3-1.3,0.3c-1.2,0-2-0.6-2-2v-4.4
			h-1v-1h1v-2.2h1.1v2.2h2.3v1H321V469.2z"/>
	</g>
	<circle class="st1" cx="280.3" cy="354" r="18"/>
	<polygon class="st0" points="290.4,300.8 282,309.8 282,235.2 279,235.2 279,310.2 270.2,300.8 268,302.9 280.3,316 292.6,302.9 	
		"/>
	<g>
		<path class="st1" d="M246.9,392.4c-3,0-5.2-2.3-5.2-5l0,0c0-2.8,2.2-5.1,5.2-5.1s5.2,2.3,5.2,5l0,0
			C252.1,390.1,249.9,392.4,246.9,392.4z M249.8,387.3c0-1.7-1.2-3.1-3-3.1c-1.7,0-2.9,1.4-2.9,3.1l0,0c0,1.7,1.2,3.1,3,3.1
			C248.6,390.4,249.8,389,249.8,387.3L249.8,387.3z"/>
		<path class="st1" d="M258.2,392.4c-1.1,0-1.8-0.5-2.3-1.1v3.2h-2.1v-9.7h2.1v1.1c0.5-0.7,1.2-1.2,2.3-1.2c1.8,0,3.4,1.4,3.4,3.9
			l0,0C261.7,391,260,392.4,258.2,392.4z M259.5,388.5c0-1.2-0.8-2.1-1.8-2.1s-1.8,0.8-1.8,2.1l0,0c0,1.2,0.8,2.1,1.8,2.1
			S259.5,389.7,259.5,388.5L259.5,388.5z"/>
		<path class="st1" d="M265.8,392.4c-1.1,0-2.2-0.3-3.2-1.1l0.9-1.4c0.8,0.6,1.7,0.9,2.4,0.9c0.6,0,0.9-0.2,0.9-0.6l0,0
			c0-0.5-0.7-0.6-1.6-0.9c-1.1-0.3-2.2-0.8-2.2-2.3l0,0c0-1.5,1.2-2.4,2.7-2.4c1,0,2,0.3,2.8,0.9l-0.8,1.5c-0.7-0.4-1.5-0.7-2-0.7
			s-0.8,0.2-0.8,0.5l0,0c0,0.4,0.7,0.6,1.5,0.9c1.1,0.3,2.3,0.9,2.3,2.2l0,0C268.7,391.6,267.5,392.4,265.8,392.4z"/>
		<path class="st1" d="M277.2,389.2H272c0.2,1,0.9,1.5,1.8,1.5c0.7,0,1.2-0.2,1.8-0.8l1.2,1.1c-0.7,0.9-1.7,1.4-3.1,1.4
			c-2.3,0-3.9-1.6-3.9-3.9l0,0c0-2.1,1.5-3.9,3.7-3.9c2.5,0,3.7,1.9,3.7,4.1l0,0C277.2,388.9,277.2,389,277.2,389.2z M273.6,386.3
			c-0.9,0-1.5,0.6-1.6,1.6h3.2C275,386.9,274.5,386.3,273.6,386.3z"/>
		<path class="st1" d="M285.8,389.2h-5.2c0.2,1,0.9,1.5,1.8,1.5c0.7,0,1.2-0.2,1.8-0.8l1.2,1.1c-0.7,0.9-1.7,1.4-3.1,1.4
			c-2.3,0-3.9-1.6-3.9-3.9l0,0c0-2.1,1.5-3.9,3.7-3.9c2.5,0,3.7,1.9,3.7,4.1l0,0C285.8,388.9,285.8,389,285.8,389.2z M282.2,386.3
			c-0.9,0-1.5,0.6-1.6,1.6h3.2C283.6,386.9,283.1,386.3,282.2,386.3z"/>
		<path class="st1" d="M291.8,392.2v-9.8h7.4v1.9H294v2h4.6v1.9H294v2.1h5.3v1.9C299.3,392.2,291.8,392.2,291.8,392.2z"/>
		<path class="st1" d="M305.8,392.4c-2.9,0-5-2.2-5-5l0,0c0-2.8,2.1-5.1,5.1-5.1c1.8,0,3,0.6,3.9,1.5l-1.4,1.6
			c-0.8-0.7-1.5-1.1-2.5-1.1c-1.7,0-2.8,1.4-2.8,3.1l0,0c0,1.7,1.2,3.1,2.8,3.1c1.1,0,1.8-0.4,2.6-1.1l1.4,1.4
			C308.8,391.7,307.7,392.4,305.8,392.4z"/>
		<path class="st1" d="M312.7,385.5l-1.5-1.2c1-1.3,1.9-2,3.7-2c2.1,0,3.4,1.2,3.4,3c0,1.6-0.8,2.5-2.6,3.8l-1.6,1.2h4.3v1.9h-7.3
			v-1.7l3.3-2.7c1.2-1,1.7-1.5,1.7-2.4c0-0.8-0.5-1.3-1.3-1.3C313.9,384.2,313.4,384.6,312.7,385.5z"/>
		<path class="st1" d="M251.5,409v-9.8h2.2v9.8H251.5z"/>
		<path class="st1" d="M260.7,409v-4.2c0-1-0.5-1.5-1.3-1.5s-1.3,0.5-1.3,1.5v4.2H256v-7.5h2.1v1.1c0.5-0.6,1.1-1.2,2.2-1.2
			c1.6,0,2.5,1.1,2.5,2.8v4.8H260.7z"/>
		<path class="st1" d="M267.3,409.2c-1.1,0-2.2-0.3-3.2-1.1l0.9-1.4c0.8,0.6,1.7,0.9,2.4,0.9c0.6,0,0.9-0.2,0.9-0.6l0,0
			c0-0.5-0.7-0.6-1.6-0.9c-1.1-0.3-2.2-0.8-2.2-2.3l0,0c0-1.5,1.2-2.4,2.7-2.4c1,0,2,0.3,2.8,0.9l-0.8,1.5c-0.7-0.4-1.5-0.7-2-0.7
			s-0.8,0.2-0.8,0.5l0,0c0,0.4,0.7,0.6,1.5,0.9c1.1,0.3,2.3,0.9,2.3,2.2l0,0C270.1,408.4,268.9,409.2,267.3,409.2z"/>
		<path class="st1" d="M274.1,409.1c-1.3,0-2.2-0.5-2.2-2.3v-3.6H271v-1.8h0.9v-1.9h2.1v1.9h1.8v1.8H274v3.2c0,0.5,0.2,0.7,0.7,0.7
			c0.4,0,0.7-0.1,1.1-0.3v1.7C275.3,409,274.8,409.1,274.1,409.1z"/>
		<path class="st1" d="M281.7,409v-0.8c-0.5,0.6-1.2,1-2.3,1c-1.4,0-2.6-0.8-2.6-2.3l0,0c0-1.6,1.2-2.4,3-2.4c0.8,0,1.3,0.1,1.8,0.3
			v-0.1c0-0.9-0.5-1.4-1.6-1.4c-0.8,0-1.4,0.2-2.1,0.4l-0.5-1.6c0.8-0.4,1.6-0.6,2.9-0.6c2.3,0,3.3,1.2,3.3,3.2v4.3H281.7z
			 M281.8,406c-0.4-0.2-0.8-0.3-1.4-0.3c-0.9,0-1.5,0.4-1.5,1l0,0c0,0.6,0.5,0.9,1.2,0.9c1,0,1.7-0.5,1.7-1.3V406z"/>
		<path class="st1" d="M290.4,409v-4.2c0-1-0.5-1.5-1.3-1.5c-0.8,0-1.3,0.5-1.3,1.5v4.2h-2.1v-7.5h2.1v1.1c0.5-0.6,1.1-1.2,2.2-1.2
			c1.6,0,2.5,1.1,2.5,2.8v4.8H290.4z"/>
		<path class="st1" d="M297.9,409.2c-2.3,0-3.9-1.7-3.9-3.9l0,0c0-2.1,1.6-3.9,3.9-3.9c1.4,0,2.3,0.5,3,1.3l-1.3,1.4
			c-0.5-0.5-1-0.8-1.7-0.8c-1.1,0-1.8,0.9-1.8,2l0,0c0,1.1,0.7,2.1,1.9,2.1c0.7,0,1.2-0.3,1.7-0.8l1.2,1.3
			C300.2,408.6,299.4,409.2,297.9,409.2z"/>
		<path class="st1" d="M309.1,406h-5.2c0.2,1,0.9,1.5,1.8,1.5c0.7,0,1.2-0.2,1.8-0.8l1.2,1.1c-0.7,0.9-1.7,1.4-3.1,1.4
			c-2.3,0-3.9-1.6-3.9-3.9l0,0c0-2.1,1.5-3.9,3.7-3.9c2.5,0,3.7,1.9,3.7,4.1l0,0C309.1,405.7,309.1,405.8,309.1,406z M305.5,403.1
			c-0.9,0-1.5,0.6-1.6,1.6h3.2C306.9,403.7,306.4,403.1,305.5,403.1z"/>
	</g>
</g>
</svg>
