<?xml version="1.0" encoding="utf-8"?>
<!-- Generator: Adobe Illustrator 19.1.0, SVG Export Plug-In . SVG Version: 6.00 Build 0)  -->
<svg version="1.1" id="Layer_1" xmlns="http://www.w3.org/2000/svg" xmlns:xlink="http://www.w3.org/1999/xlink" x="0px" y="0px"
	 viewBox="10 -145 320 320" style="enable-background:new 10 -145 320 320;" xml:space="preserve">
<style type="text/css">
	.st0{fill:#607D8B;}
	.st1{fill:#F57C00;}
</style>
<g>
	<path class="st0" d="M167,171.8c-2,0-4-0.1-6-0.3l0.2-3c2,0.1,3.9,0.2,5.9,0.3L167,171.8z M173.1,171.8l-0.1-3c2,0,3.9-0.1,5.9-0.3
		l0.2,3C177.1,171.7,175.1,171.8,173.1,171.8z M155,171c-2-0.2-4-0.5-6-0.9l0.5-3c1.9,0.3,3.9,0.6,5.8,0.9L155,171z M185.2,170.9
		l-0.4-3c1.9-0.2,3.9-0.5,5.8-0.9l0.5,3C189.2,170.4,187.2,170.7,185.2,170.9z M143,168.9c-2-0.4-3.9-0.9-5.9-1.5l0.8-2.9
		c1.9,0.5,3.8,1,5.7,1.5L143,168.9z M197.1,168.9l-0.7-2.9c1.9-0.4,3.8-0.9,5.7-1.5l0.8,2.9C201,167.9,199,168.4,197.1,168.9z
		 M131.4,165.6c-1.9-0.6-3.8-1.3-5.7-2.1l1.1-2.8c1.8,0.7,3.7,1.4,5.6,2L131.4,165.6z M208.7,165.6l-1-2.8c1.9-0.6,3.7-1.3,5.6-2
		l1.1,2.8C212.6,164.2,210.6,164.9,208.7,165.6z M120.1,161.2c-1.8-0.8-3.7-1.7-5.5-2.6l1.4-2.7c1.7,0.9,3.5,1.8,5.3,2.6
		L120.1,161.2z M220,161.1l-1.2-2.7c1.8-0.8,3.6-1.7,5.3-2.6l1.4,2.7C223.7,159.4,221.8,160.3,220,161.1z M109.3,155.6
		c-1.7-1-3.5-2.1-5.2-3.2l1.6-2.5c1.6,1.1,3.3,2.1,5,3.1L109.3,155.6z M230.8,155.6l-1.5-2.6c1.7-1,3.4-2,5-3.1l1.6,2.5
		C234.2,153.5,232.5,154.6,230.8,155.6z M99.1,149.1c-1.6-1.2-3.3-2.4-4.8-3.7l1.9-2.3c1.5,1.2,3.1,2.4,4.7,3.6L99.1,149.1z
		 M240.9,149l-1.8-2.4c1.6-1.1,3.2-2.3,4.7-3.6l1.9,2.3C244.2,146.7,242.5,147.9,240.9,149z M89.6,141.5c-1.5-1.3-3-2.7-4.4-4.1
		l2.1-2.1c1.4,1.4,2.9,2.7,4.3,4L89.6,141.5z M250.4,141.5l-2-2.2c1.5-1.3,2.9-2.7,4.3-4l2.1,2.1
		C253.4,138.8,251.9,140.2,250.4,141.5z M81,133c-1.4-1.5-2.7-3-4-4.5l2.3-1.9c1.3,1.5,2.6,3,3.9,4.4L81,133z M259,133l-2.2-2
		c1.3-1.4,2.7-2.9,3.9-4.4l2.3,1.9C261.8,130,260.4,131.6,259,133z M73.2,123.8c-1.2-1.6-2.4-3.3-3.5-4.9l2.5-1.7
		c1.1,1.6,2.3,3.2,3.5,4.8L73.2,123.8z M266.8,123.8l-2.4-1.8c1.2-1.6,2.4-3.2,3.5-4.8l2.5,1.7C269.2,120.5,268.1,122.2,266.8,123.8
		z M66.3,113.8c-1.1-1.7-2.1-3.5-3-5.2l2.6-1.4c0.9,1.7,1.9,3.4,3,5.1L66.3,113.8z M273.7,113.8l-2.6-1.6c1-1.7,2-3.4,3-5.1l2.6,1.4
		C275.8,110.3,274.7,112,273.7,113.8z M60.5,103.2c-0.9-1.8-1.7-3.7-2.5-5.5l2.8-1.2c0.8,1.8,1.6,3.6,2.4,5.4L60.5,103.2z
		 M279.5,103.1l-2.7-1.3c0.9-1.8,1.7-3.6,2.4-5.4l2.8,1.2C281.2,99.4,280.4,101.3,279.5,103.1z M55.8,92.1c-0.7-1.9-1.3-3.8-1.9-5.7
		l2.9-0.9c0.6,1.9,1.2,3.8,1.9,5.6L55.8,92.1z M284.2,91.9l-2.8-1c0.7-1.8,1.3-3.7,1.9-5.6l2.9,0.9C285.5,88.1,284.9,90,284.2,91.9z
		 M52.3,80.5c-0.5-1.9-1-3.9-1.3-5.9l2.9-0.6c0.4,1.9,0.8,3.9,1.3,5.8L52.3,80.5z M287.8,80.4l-2.9-0.7c0.5-1.9,0.9-3.8,1.3-5.8
		l2.9,0.6C288.7,76.4,288.3,78.4,287.8,80.4z M49.9,68.6c-0.3-2-0.6-4-0.8-6l3-0.3c0.2,2,0.4,3.9,0.7,5.9L49.9,68.6z M290.2,68.5
		l-3-0.4c0.3-1.9,0.5-3.9,0.7-5.9l3,0.3C290.7,64.5,290.5,66.5,290.2,68.5z M48.7,56.6c-0.1-2-0.2-4-0.2-6.1h3c0,2,0.1,4,0.2,5.9
		L48.7,56.6z M291.4,56.4l-3-0.1c0.1-1.9,0.1-3.9,0.1-5.9v-0.3h3v0.2C291.5,52.4,291.5,54.4,291.4,56.4z M51.6,44.6l-3-0.1
		c0.1-2,0.2-4,0.4-6l3,0.3C51.9,40.7,51.7,42.6,51.6,44.6z M288.3,44.2c-0.1-2-0.3-3.9-0.4-5.9l3-0.3c0.2,2,0.4,4,0.5,6L288.3,44.2z
		 M52.8,32.8l-3-0.4c0.3-2,0.6-4,1-6l2.9,0.6C53.4,29,53.1,30.9,52.8,32.8z M287.2,32.5c-0.3-1.9-0.6-3.9-1-5.8l2.9-0.6
		c0.4,2,0.8,4,1.1,6L287.2,32.5z M55.1,21.3l-2.9-0.7c0.5-1.9,1-3.9,1.6-5.8l2.9,0.9C56.1,17.5,55.6,19.4,55.1,21.3z M284.8,20.9
		c-0.5-1.9-1-3.8-1.6-5.7l2.9-0.9c0.6,1.9,1.1,3.9,1.6,5.8L284.8,20.9z M58.6,10l-2.8-1c0.7-1.9,1.4-3.8,2.2-5.7l2.8,1.2
		C60,6.3,59.2,8.1,58.6,10z M281.3,9.6c-0.7-1.8-1.4-3.7-2.2-5.5l2.8-1.2c0.8,1.8,1.5,3.7,2.2,5.6L281.3,9.6z M63.2-0.9l-2.7-1.3
		c0.9-1.8,1.8-3.6,2.8-5.4l2.6,1.4C64.9-4.5,64-2.7,63.2-0.9z M276.7-1.2c-0.9-1.8-1.8-3.5-2.7-5.2l2.6-1.4c1,1.8,1.9,3.6,2.8,5.4
		L276.7-1.2z M68.8-11.3l-2.6-1.6c1-1.7,2.2-3.4,3.3-5.1l2.5,1.7C70.9-14.7,69.8-13,68.8-11.3z M271-11.6c-1-1.7-2.1-3.3-3.2-4.9
		l2.5-1.7c1.1,1.6,2.2,3.4,3.3,5.1L271-11.6z M75.5-21.1l-2.4-1.8c1.2-1.6,2.5-3.2,3.8-4.7l2.3,1.9C77.9-24.2,76.7-22.7,75.5-21.1z
		 M264.4-21.3c-1.2-1.6-2.4-3.1-3.7-4.6l2.3-1.9c1.3,1.5,2.6,3.1,3.8,4.7L264.4-21.3z M83.1-30.1l-2.2-2c1.4-1.5,2.8-2.9,4.2-4.3
		l2.1,2.1C85.8-33,84.4-31.6,83.1-30.1z M256.8-30.3c-1.3-1.4-2.7-2.9-4.1-4.2l2.1-2.2c1.4,1.4,2.9,2.9,4.2,4.3L256.8-30.3z
		 M91.5-38.4l-2-2.2c1.5-1.3,3.1-2.6,4.6-3.9l1.9,2.3C94.5-41,93-39.7,91.5-38.4z M248.3-38.6c-1.5-1.3-3-2.6-4.5-3.8l1.9-2.3
		c1.6,1.2,3.1,2.6,4.6,3.9L248.3-38.6z M100.7-45.8l-1.8-2.4c1.6-1.2,3.3-2.3,5-3.4l1.6,2.5C104-48,102.3-46.9,100.7-45.8z
		 M239-45.9c-1.6-1.1-3.2-2.3-4.9-3.3l1.6-2.5c1.7,1.1,3.4,2.2,5,3.4L239-45.9z M110.6-52.2l-1.5-2.6c1.7-1,3.5-2,5.3-2.9l1.4,2.7
		C114.1-54.1,112.3-53.2,110.6-52.2z M229.1-52.3c-1.7-1-3.4-1.9-5.2-2.8l1.4-2.7c1.8,0.9,3.6,1.9,5.3,2.9L229.1-52.3z M121.1-57.6
		l-1.2-2.7c1.8-0.8,3.7-1.6,5.6-2.4l1.1,2.8C124.7-59.2,122.9-58.4,121.1-57.6z M218.6-57.7c-1.8-0.8-3.6-1.6-5.5-2.3l1.1-2.8
		c1.9,0.7,3.8,1.5,5.6,2.4L218.6-57.7z M132.1-61.9l-1-2.8c1.9-0.6,3.9-1.2,5.8-1.8l0.8,2.9C135.8-63.1,133.9-62.6,132.1-61.9z
		 M207.6-62c-1.9-0.6-3.8-1.2-5.6-1.7l0.8-2.9c1.9,0.5,3.9,1.1,5.8,1.8L207.6-62z M143.5-65.1l-0.7-2.9c2-0.4,4-0.9,5.9-1.2l0.5,3
		C147.3-66,145.4-65.6,143.5-65.1z M196.2-65.2c-1.9-0.4-3.9-0.8-5.8-1.2l0.5-3c2,0.3,4,0.7,5.9,1.2L196.2-65.2z M155.1-67.2l-0.4-3
		c2-0.2,4-0.5,6-0.6l0.2,3C159-67.6,157-67.4,155.1-67.2z M184.5-67.2c-1.9-0.2-3.9-0.4-5.9-0.6l0.2-3c2,0.1,4,0.3,6,0.6L184.5-67.2
		z M166.9-68.1l-0.1-3c2-0.1,4-0.1,6.1,0l-0.1,3C170.8-68.1,168.8-68.1,166.9-68.1z"/>
</g>
<g>
	<path class="st0" d="M186-125.8c0.5,0,1-0.4,1-1v-6c0-0.6-0.5-1-1-1s-1,0.4-1,1v6C185-126.2,185.5-125.8,186-125.8z"/>
	<path class="st0" d="M202-133.8c-0.5,0-1,0.4-1,1v6c0,0.6,0.5,1,1,1s1-0.4,1-1v-6C203-133.4,202.5-133.8,202-133.8z"/>
	<path class="st0" d="M202-141.8c-3.5,0-6.5,2-8,4.9c-1.5-2.9-4.5-4.9-8-4.9s-6.5,2-8,4.9c-1.5-2.9-4.5-4.9-8-4.9s-6.5,2-8,4.9
		c-1.5-2.9-4.5-4.9-8-4.9s-6.5,2-8,4.9c-1.5-2.9-4.5-4.9-8-4.9c-5,0-9,4.1-9,9v18c0,4.9,4,9,9,9c2.9,0,5.4-1.3,7-3.3v9.3
		c0,2.8,2.2,5,5,5s5-2.2,5-5v-6.1c3-0.3,5.6-2.2,7-4.8c1.5,2.9,4.5,4.9,8,4.9s6.5-2,8-4.9c1.5,2.9,4.5,4.9,8,4.9s6.5-2,8-4.9
		c1.5,2.9,4.5,4.9,8,4.9c5,0,9-4,9-9v-18C211-137.7,207-141.8,202-141.8z M138-107.8c-3.9,0-7-3.2-7-7v-18c0-3.8,3.1-7,7-7
		s7,3.2,7,7l0,0v18l0,0C145-111,141.9-107.8,138-107.8z M154-107.8c-0.4,0-0.6-0.1-1-0.1v8.1c0,1.7-1.4,3-3,3s-3-1.3-3-3v-15v-18
		c0-3.8,3.1-7,7-7s7,3.2,7,7l0,0v18l0,0C161-111,157.9-107.8,154-107.8z M169.6-107.8c-3.8-0.2-6.6-3.4-6.6-7.2v-2.8
		c0-0.6,0.5-1,1-1h4c0.5,0,1,0.4,1,1v2.9c0,0.5,0.4,1,0.9,1.1c0.6,0.1,1.1-0.4,1.1-1v-3c0-1.7-1.4-3-3-3h-0.5c-2.5,0-4.5-2-4.5-4.5
		v-7.3c0-3.8,2.9-7,6.6-7.2c4-0.2,7.4,3,7.4,7l0,0v3c0,0.6-0.5,1-1,1h-4c-0.5,0-1-0.4-1-1v-2.9c0-0.5-0.4-1-0.9-1.1
		c-0.6-0.1-1.1,0.4-1.1,1v3c0,1.7,1.4,3,3,3h0.5c2.5,0,4.5,2,4.5,4.5v7.5l0,0C177-110.8,173.6-107.6,169.6-107.8z M185.6-107.8
		c-3.8-0.2-6.6-3.4-6.6-7.2v-17.6c0-3.8,2.9-7,6.6-7.2c4-0.2,7.4,3,7.4,7l0,0v12c0,0.6-0.5,1-1,1h-4c-1.6,0-3,1.3-3,3v1.9
		c0,0.5,0.4,1,0.9,1.1c0.6,0.1,1.1-0.4,1.1-1v-2.3c0-0.5,0.5-1,1-1h4c0.5,0,1,0.5,1,1v2.3l0,0C193-110.8,189.6-107.6,185.6-107.8z
		 M209-120.8c0,0.6-0.5,1-1,1h-4c-1.6,0-3,1.3-3,3v1.9c0,0.5,0.4,1,0.9,1.1c0.6,0.1,1.1-0.4,1.1-1v-2.3c0-0.5,0.5-1,1-1h4
		c0.5,0,1,0.5,1,1v2.3c0,4-3.4,7.2-7.4,7c-3.8-0.2-6.6-3.4-6.6-7.2v-17.6c0-3.8,2.9-7,6.6-7.2c4-0.2,7.4,3,7.4,7V-120.8z"/>
	<path class="st0" d="M154-133.8c-0.5,0-1,0.4-1,1v18c0,0.6,0.5,1,1,1s1-0.4,1-1v-18C155-133.4,154.5-133.8,154-133.8z"/>
	<path class="st0" d="M138-133.8c-0.5,0-1,0.4-1,1v18c0,0.6,0.5,1,1,1s1-0.4,1-1v-18C139-133.4,138.5-133.8,138-133.8z"/>
</g>
<g>
	<path class="st0" d="M140.6,129.4h-1.1v-3.9l-4.1-5.9h1.3l3.3,4.9l3.3-4.9h1.3l-4.1,5.9v3.9H140.6z"/>
	<path class="st0" d="M148,129.6c-2.2,0-3.8-1.7-3.8-3.8s1.6-3.8,3.8-3.8c2.2,0,3.8,1.7,3.8,3.8S150.2,129.6,148,129.6z M148,123
		c-1.6,0-2.6,1.2-2.6,2.8s1.1,2.8,2.7,2.8s2.7-1.2,2.7-2.8C150.7,124.2,149.5,123,148,123z"/>
	<path class="st0" d="M158.9,122.2h1.1v7.2h-1.1v-1.2c-0.5,0.8-1.2,1.4-2.5,1.4c-1.8,0-2.8-1.2-2.8-2.9v-4.5h1.1v4.2
		c0,1.3,0.7,2.2,2,2.2c1.2,0,2.2-0.9,2.2-2.3L158.9,122.2L158.9,122.2z"/>
	<path class="st0" d="M163.4,129.4h-1.1v-7.2h1.1v1.9c0.5-1.2,1.6-2.1,3-2v1.2h-0.1c-1.6,0-2.9,1.1-2.9,3.3V129.4z"/>
	<path class="st0" d="M181.5,129.4h-1.2l-1.1-2.6h-5.3l-1.2,2.6h-1.1l4.5-9.9h1L181.5,129.4z M176.5,120.8l-2.2,5h4.5L176.5,120.8z"
		/>
	<path class="st0" d="M188.1,119.6h0.9l2.7,8.2l2.8-8.2h1.2l-3.5,9.9h-0.9l-2.7-8l-2.7,8H185l-3.5-9.9h1.2l2.8,8.2L188.1,119.6z"/>
	<path class="st0" d="M201,124c2.2,0.5,3.2,1.3,3.2,2.8c0,1.7-1.4,2.8-3.3,2.8c-1.6,0-2.8-0.5-4-1.6l0.7-0.8c1,0.9,2,1.4,3.4,1.4
		c1.3,0,2.2-0.7,2.2-1.7c0-0.9-0.5-1.4-2.5-1.9c-2.3-0.5-3.3-1.2-3.3-2.8s1.4-2.7,3.2-2.7c1.4,0,2.5,0.4,3.4,1.2l-0.6,0.9
		c-0.9-0.7-1.8-1.1-2.8-1.1c-1.3,0-2.1,0.7-2.1,1.6C198.3,123,198.8,123.5,201,124z"/>
	<path class="st0" d="M130.4,145.4c1,0,1.7-0.4,2.3-1l0.7,0.6c-0.7,0.8-1.6,1.4-3,1.4c-2,0-3.6-1.5-3.6-3.8c0-2.1,1.5-3.8,3.5-3.8
		c2.1,0,3.4,1.7,3.4,3.8c0,0.1,0,0.2,0,0.3H128C128,144.6,129.1,145.4,130.4,145.4z M132.5,142.2c-0.1-1.3-0.9-2.5-2.3-2.5
		c-1.3,0-2.2,1.1-2.4,2.5H132.5z"/>
	<path class="st0" d="M136.6,146.2h-1.1V139h1.1v1.3c0.5-0.8,1.2-1.4,2.5-1.4c1.8,0,2.8,1.2,2.8,2.9v4.5h-1.1v-4.2
		c0-1.3-0.7-2.2-2-2.2c-1.2,0-2.2,0.9-2.2,2.3L136.6,146.2L136.6,146.2z"/>
	<path class="st0" d="M149.5,139h1.2l-3.2,7.3h-1l-3.1-7.3h1.2l2.4,6L149.5,139z"/>
	<path class="st0" d="M152.3,137.4v-1.2h1.2v1.2H152.3z M152.4,146.2V139h1.1v7.2H152.4z"/>
	<path class="st0" d="M157.1,146.2H156V139h1.1v1.9c0.5-1.2,1.6-2.1,3-2v1.2H160c-1.6,0-2.9,1.1-2.9,3.3V146.2z"/>
	<path class="st0" d="M165,146.4c-2.2,0-3.8-1.7-3.8-3.8s1.6-3.8,3.8-3.8c2.2,0,3.8,1.7,3.8,3.8S167.2,146.4,165,146.4z M165,139.8
		c-1.6,0-2.6,1.2-2.6,2.8s1.1,2.8,2.7,2.8s2.7-1.2,2.7-2.8C167.7,141,166.5,139.8,165,139.8z"/>
	<path class="st0" d="M171.8,146.2h-1.1V139h1.1v1.3c0.5-0.8,1.2-1.4,2.5-1.4c1.8,0,2.8,1.2,2.8,2.9v4.5H176v-4.2
		c0-1.3-0.7-2.2-2-2.2c-1.2,0-2.2,0.9-2.2,2.3V146.2z"/>
	<path class="st0" d="M187.6,138.8c1.7,0,2.7,1.1,2.7,2.9v4.5h-1.1V142c0-1.4-0.7-2.2-1.9-2.2c-1.1,0-2,0.8-2,2.2v4.2h-1.1v-4.3
		c0-1.4-0.7-2.2-1.9-2.2c-1.1,0-2,1-2,2.3v4.1h-1.1v-7.2h1.1v1.2c0.5-0.7,1.1-1.4,2.3-1.4c1.2,0,1.9,0.6,2.3,1.4
		C185.6,139.5,186.4,138.8,187.6,138.8z"/>
	<path class="st0" d="M195.8,145.4c1,0,1.7-0.4,2.3-1l0.7,0.6c-0.7,0.8-1.6,1.4-3,1.4c-2,0-3.6-1.5-3.6-3.8c0-2.1,1.5-3.8,3.5-3.8
		c2.1,0,3.4,1.7,3.4,3.8c0,0.1,0,0.2,0,0.3h-5.7C193.5,144.6,194.6,145.4,195.8,145.4z M198,142.2c-0.1-1.3-0.9-2.5-2.3-2.5
		c-1.3,0-2.2,1.1-2.4,2.5H198z"/>
	<path class="st0" d="M202,146.2h-1.1V139h1.1v1.3c0.5-0.8,1.2-1.4,2.5-1.4c1.8,0,2.8,1.2,2.8,2.9v4.5h-1.1v-4.2
		c0-1.3-0.7-2.2-2-2.2c-1.2,0-2.2,0.9-2.2,2.3L202,146.2L202,146.2z"/>
	<path class="st0" d="M211,144.2c0,0.9,0.5,1.2,1.2,1.2c0.4,0,0.7-0.1,1.1-0.3v0.9c-0.4,0.2-0.8,0.3-1.3,0.3c-1.2,0-2-0.6-2-2v-4.4
		h-1v-1h1v-2.2h1.1v2.2h2.3v1H211V144.2z"/>
</g>
<circle class="st1" cx="170.3" cy="29" r="18"/>
<polygon class="st0" points="180.4,-24.2 172,-15.2 172,-89.8 169,-89.8 169,-14.8 160.2,-24.2 158,-22.1 170.3,-9 182.6,-22.1 "/>
<g>
	<path class="st1" d="M136.9,67.4c-3,0-5.2-2.3-5.2-5v0c0-2.8,2.2-5.1,5.2-5.1c3,0,5.2,2.3,5.2,5v0
		C142.1,65.1,139.9,67.4,136.9,67.4z M139.8,62.3c0-1.7-1.2-3.1-3-3.1c-1.7,0-2.9,1.4-2.9,3.1v0c0,1.7,1.2,3.1,3,3.1
		C138.6,65.4,139.8,64,139.8,62.3L139.8,62.3z"/>
	<path class="st1" d="M148.2,67.4c-1.1,0-1.8-0.5-2.3-1.1v3.2h-2.1v-9.7h2.1v1.1c0.5-0.7,1.2-1.2,2.3-1.2c1.8,0,3.4,1.4,3.4,3.9v0
		C151.7,66,150,67.4,148.2,67.4z M149.5,63.5c0-1.2-0.8-2.1-1.8-2.1c-1,0-1.8,0.8-1.8,2.1v0c0,1.2,0.8,2.1,1.8,2.1
		C148.7,65.6,149.5,64.7,149.5,63.5L149.5,63.5z"/>
	<path class="st1" d="M155.8,67.4c-1.1,0-2.2-0.3-3.2-1.1l0.9-1.4c0.8,0.6,1.7,0.9,2.4,0.9c0.6,0,0.9-0.2,0.9-0.6v0
		c0-0.5-0.7-0.6-1.6-0.9c-1.1-0.3-2.2-0.8-2.2-2.3v0c0-1.5,1.2-2.4,2.7-2.4c1,0,2,0.3,2.8,0.9l-0.8,1.5c-0.7-0.4-1.5-0.7-2-0.7
		c-0.5,0-0.8,0.2-0.8,0.5v0c0,0.4,0.7,0.6,1.5,0.9c1.1,0.3,2.3,0.9,2.3,2.2v0C158.7,66.6,157.5,67.4,155.8,67.4z"/>
	<path class="st1" d="M167.2,64.2H162c0.2,1,0.9,1.5,1.8,1.5c0.7,0,1.2-0.2,1.8-0.8l1.2,1.1c-0.7,0.9-1.7,1.4-3.1,1.4
		c-2.3,0-3.9-1.6-3.9-3.9v0c0-2.1,1.5-3.9,3.7-3.9c2.5,0,3.7,1.9,3.7,4.1v0C167.2,63.9,167.2,64,167.2,64.2z M163.6,61.3
		c-0.9,0-1.5,0.6-1.6,1.6h3.2C165,61.9,164.5,61.3,163.6,61.3z"/>
	<path class="st1" d="M175.8,64.2h-5.2c0.2,1,0.9,1.5,1.8,1.5c0.7,0,1.2-0.2,1.8-0.8l1.2,1.1c-0.7,0.9-1.7,1.4-3.1,1.4
		c-2.3,0-3.9-1.6-3.9-3.9v0c0-2.1,1.5-3.9,3.7-3.9c2.5,0,3.7,1.9,3.7,4.1v0C175.8,63.9,175.8,64,175.8,64.2z M172.2,61.3
		c-0.9,0-1.5,0.6-1.6,1.6h3.2C173.6,61.9,173.1,61.3,172.2,61.3z"/>
	<path class="st1" d="M181.8,67.2v-9.8h7.4v1.9H184v2h4.6v1.9H184v2.1h5.3v1.9H181.8z"/>
	<path class="st1" d="M195.8,67.4c-2.9,0-5-2.2-5-5v0c0-2.8,2.1-5.1,5.1-5.1c1.8,0,3,0.6,3.9,1.5l-1.4,1.6c-0.8-0.7-1.5-1.1-2.5-1.1
		c-1.7,0-2.8,1.4-2.8,3.1v0c0,1.7,1.2,3.1,2.8,3.1c1.1,0,1.8-0.4,2.6-1.1l1.4,1.4C198.8,66.7,197.7,67.4,195.8,67.4z"/>
	<path class="st1" d="M202.7,60.5l-1.5-1.2c1-1.3,1.9-2,3.7-2c2.1,0,3.4,1.2,3.4,3c0,1.6-0.8,2.5-2.6,3.8l-1.6,1.2h4.3v1.9h-7.3
		v-1.7l3.3-2.7c1.2-1,1.7-1.5,1.7-2.4c0-0.8-0.5-1.3-1.3-1.3C203.9,59.2,203.4,59.6,202.7,60.5z"/>
	<path class="st1" d="M141.5,84v-9.8h2.2V84H141.5z"/>
	<path class="st1" d="M150.7,84v-4.2c0-1-0.5-1.5-1.3-1.5s-1.3,0.5-1.3,1.5V84h-2.1v-7.5h2.1v1.1c0.5-0.6,1.1-1.2,2.2-1.2
		c1.6,0,2.5,1.1,2.5,2.8V84H150.7z"/>
	<path class="st1" d="M157.3,84.2c-1.1,0-2.2-0.3-3.2-1.1l0.9-1.4c0.8,0.6,1.7,0.9,2.4,0.9c0.6,0,0.9-0.2,0.9-0.6v0
		c0-0.5-0.7-0.6-1.6-0.9c-1.1-0.3-2.2-0.8-2.2-2.3v0c0-1.5,1.2-2.4,2.7-2.4c1,0,2,0.3,2.8,0.9l-0.8,1.5c-0.7-0.4-1.5-0.7-2-0.7
		c-0.5,0-0.8,0.2-0.8,0.5v0c0,0.4,0.7,0.6,1.5,0.9c1.1,0.3,2.3,0.9,2.3,2.2v0C160.1,83.4,158.9,84.2,157.3,84.2z"/>
	<path class="st1" d="M164.1,84.1c-1.3,0-2.2-0.5-2.2-2.3v-3.6H161v-1.8h0.9v-1.9h2.1v1.9h1.8v1.8H164v3.2c0,0.5,0.2,0.7,0.7,0.7
		c0.4,0,0.7-0.1,1.1-0.3v1.7C165.3,84,164.8,84.1,164.1,84.1z"/>
	<path class="st1" d="M171.7,84v-0.8c-0.5,0.6-1.2,1-2.3,1c-1.4,0-2.6-0.8-2.6-2.3v0c0-1.6,1.2-2.4,3-2.4c0.8,0,1.3,0.1,1.8,0.3
		v-0.1c0-0.9-0.5-1.4-1.6-1.4c-0.8,0-1.4,0.2-2.1,0.4l-0.5-1.6c0.8-0.4,1.6-0.6,2.9-0.6c2.3,0,3.3,1.2,3.3,3.2V84H171.7z M171.8,81
		c-0.4-0.2-0.8-0.3-1.4-0.3c-0.9,0-1.5,0.4-1.5,1v0c0,0.6,0.5,0.9,1.2,0.9c1,0,1.7-0.5,1.7-1.3V81z"/>
	<path class="st1" d="M180.4,84v-4.2c0-1-0.5-1.5-1.3-1.5s-1.3,0.5-1.3,1.5V84h-2.1v-7.5h2.1v1.1c0.5-0.6,1.1-1.2,2.2-1.2
		c1.6,0,2.5,1.1,2.5,2.8V84H180.4z"/>
	<path class="st1" d="M187.9,84.2c-2.3,0-3.9-1.7-3.9-3.9v0c0-2.1,1.6-3.9,3.9-3.9c1.4,0,2.3,0.5,3,1.3l-1.3,1.4
		c-0.5-0.5-1-0.8-1.7-0.8c-1.1,0-1.8,0.9-1.8,2v0c0,1.1,0.7,2.1,1.9,2.1c0.7,0,1.2-0.3,1.7-0.8l1.2,1.3
		C190.2,83.6,189.4,84.2,187.9,84.2z"/>
	<path class="st1" d="M199.1,81h-5.2c0.2,1,0.9,1.5,1.8,1.5c0.7,0,1.2-0.2,1.8-0.8l1.2,1.1c-0.7,0.9-1.7,1.4-3.1,1.4
		c-2.3,0-3.9-1.6-3.9-3.9v0c0-2.1,1.5-3.9,3.7-3.9c2.5,0,3.7,1.9,3.7,4.1v0C199.1,80.7,199.1,80.8,199.1,81z M195.5,78.1
		c-0.9,0-1.5,0.6-1.6,1.6h3.2C196.9,78.7,196.4,78.1,195.5,78.1z"/>
</g>
</svg>
