<?xml version="1.0" encoding="utf-8"?>
<!-- Generator: Adobe Illustrator 19.1.0, SVG Export Plug-In . SVG Version: 6.00 Build 0)  -->
<svg version="1.1" id="Layer_1" xmlns="http://www.w3.org/2000/svg" xmlns:xlink="http://www.w3.org/1999/xlink" x="0px" y="0px"
	 viewBox="301 -226 650 500" style="enable-background:new 301 -226 650 500;" xml:space="preserve">
<style type="text/css">
	.st0{fill:none;stroke:#5D89FB;stroke-width:3;stroke-miterlimit:10;}
	.st1{display:none;}
	.st2{display:inline;fill:none;stroke:#BDBCBC;stroke-width:3;stroke-linecap:round;stroke-miterlimit:10;}
	.st3{fill:#616262;}
	.st4{fill:#5D89FB;}
	.st5{fill:none;stroke:#5D89FB;stroke-width:3;stroke-linecap:round;stroke-miterlimit:10;}
	.st6{fill:#FFFFFF;}
</style>
<title>illust_checks</title>
<circle class="st0" cx="457.2" cy="-51.3" r="43.7"/>
<polyline class="st0" points="474.1,-66.6 453.2,-36 440.2,-49 "/>
<circle class="st0" cx="457.2" cy="61.7" r="43.7"/>
<polyline class="st0" points="474.1,46.4 453.2,77.1 440.2,64 "/>
<circle class="st0" cx="457.2" cy="173.3" r="43.7"/>
<polyline class="st0" points="474.1,158 453.2,188.7 440.2,175.6 "/>
<g id="sparkles" class="st1">
	<line class="st2" x1="372" y1="-236.9" x2="372" y2="-212.9"/>
	<line class="st2" x1="360" y1="-224.9" x2="384" y2="-224.9"/>
	<line class="st2" x1="364" y1="104.4" x2="364" y2="120.4"/>
	<line class="st2" x1="356" y1="112.4" x2="372" y2="112.4"/>
	<line class="st2" x1="874" y1="-116.6" x2="874" y2="-100.6"/>
	<line class="st2" x1="866" y1="-108.6" x2="882" y2="-108.6"/>
	<circle class="st2" cx="827" cy="32.9" r="7.7"/>
	<circle class="st2" cx="414" cy="140.7" r="7.7"/>
</g>
<path class="st3" d="M521.6-41.3c-0.2,0-0.4-0.2-0.5-0.4v-0.1v-22.8c-0.1-0.2,0.1-0.5,0.3-0.5c0.1,0,0.1,0,0.2,0h11.9
	c0.2,0,0.5,0.1,0.5,0.4c0,0.1,0,0.1,0,0.2v1.1c0,0.2-0.1,0.5-0.4,0.5c-0.1,0-0.1,0-0.2,0h-10v8.2h9.4c0.2-0.1,0.5,0.1,0.5,0.3
	c0,0.1,0,0.1,0,0.2v1c0.1,0.2-0.1,0.5-0.3,0.5c-0.1,0-0.1,0-0.2,0h-9.4v9.3H534c0.2,0,0.5,0.1,0.5,0.3v0.1v1.1
	c0,0.2-0.1,0.5-0.4,0.5c-0.1,0-0.1,0-0.2,0L521.6-41.3L521.6-41.3z"/>
<path class="st3" d="M541.5-41.8c0,0.2-0.1,0.5-0.3,0.5h-0.1h-1.4c-0.2,0-0.5-0.1-0.5-0.4c0-0.1,0-0.1,0-0.2v-23.4
	c0-0.2,0.1-0.5,0.4-0.5c0.1,0,0.1,0,0.2,0h1.4c0.2,0,0.5,0.1,0.5,0.4c0,0.1,0,0.1,0,0.2L541.5-41.8L541.5-41.8z"/>
<path class="st3" d="M546.8-54.4c0-2.6,1.6-4.4,6.3-4.4c4.7,0,6.3,1.8,6.3,4.4v12.6c0,0.2-0.1,0.5-0.3,0.5H559h-1.3
	c-0.3,0-0.5-0.1-0.5-0.4v-0.1l-0.1-1.2c-1.6,1.3-3.7,2.1-5.8,2.1c-3.3,0-4.8-1.9-4.8-4.1v-1.8c0-2.3,1.5-4.1,4.6-4.1h6V-54
	c0-1.6-0.8-2.7-4-2.7c-3.2,0-4,1.1-4,2.6v0.4c0.1,0.2-0.1,0.5-0.3,0.6c-0.1,0-0.1,0-0.2,0h-1.3c-0.2,0-0.5-0.1-0.5-0.4
	c0-0.1,0-0.1,0-0.2V-54.4L546.8-54.4z M557.1-45v-4.1h-5.6c-1.9,0-2.7,1-2.7,2.5v1.1c0,1.5,0.9,2.4,3,2.4
	C553.8-43.1,555.6-43.8,557.1-45z"/>
<path class="st3" d="M574.1-54.9c0-1.4-1.3-2.2-3.9-2.2s-3.8,0.8-3.8,2.2v0.9c0.1,1,0.8,1.7,1.8,1.9l5.4,1.8c1.8,0.6,3,1.7,3,3.3v2
	c0,2.1-1.9,4-6.4,4s-6.3-1.9-6.3-4v-0.9c0-0.2,0.1-0.5,0.4-0.5h0.1h1.3c0.2,0,0.4,0.1,0.5,0.3c0,0.1,0,0.1,0,0.2v0.9
	c0,1.4,1.4,2.2,4.1,2.2c2.7,0,4.1-0.8,4.1-2.2v-1.3c0-1-0.9-1.6-2.1-2l-5.4-1.8c-1.5-0.5-2.6-1.8-2.7-3.4v-1.4c0-2.1,1.6-4,6.1-4
	s6.1,1.9,6.1,4v1c0,0.2-0.1,0.4-0.3,0.5H576h-1.3c-0.2,0-0.4-0.1-0.5-0.3c0-0.1,0-0.1,0-0.2v-1H574.1z"/>
<path class="st3" d="M588.1-58.5c0.2,0,0.5,0.1,0.5,0.3v0.1v1c0,0.3-0.1,0.5-0.4,0.5h-0.1h-3.9V-46c0,1.6,0.9,2.7,4.1,2.7h0.6
	c0.2,0,0.5,0.1,0.5,0.4c0,0.1,0,0.1,0,0.2v1c0,0.2-0.1,0.5-0.4,0.5c-0.1,0-0.1,0-0.2,0H588c-4.8,0-6.2-1.7-6.2-4.5v-10.7h-2.1
	c-0.2,0-0.5-0.1-0.5-0.4v-0.1v-0.8c0-0.2,0.1-0.5,0.4-0.5h0.1l1.8-0.1h0.3V-62c0-0.3,0.1-0.5,0.4-0.5h0.1h1.4c0.2,0,0.5,0.1,0.5,0.4
	v0.1v3.7L588.1-58.5L588.1-58.5z"/>
<path class="st3" d="M595.6-62c0,0.2-0.1,0.5-0.3,0.5h-0.1h-1.4c-0.2,0-0.5-0.1-0.5-0.4c0-0.1,0-0.1,0-0.2v-3.2
	c0-0.2,0.1-0.5,0.4-0.5c0.1,0,0.1,0,0.2,0h1.4c0.2,0,0.5,0.1,0.5,0.4c0,0.1,0,0.1,0,0.2v3.2H595.6z M595.6-41.8
	c0,0.2-0.1,0.5-0.3,0.5h-0.1h-1.4c-0.2,0-0.5-0.1-0.5-0.4c0-0.1,0-0.1,0-0.2V-58c0-0.2,0.1-0.5,0.4-0.5c0.1,0,0.1,0,0.2,0h1.4
	c0.2,0,0.5,0.1,0.5,0.4c0,0.1,0,0.1,0,0.2v16.1H595.6z"/>
<path class="st3" d="M613.5-54.4v0.7c0,0.2-0.1,0.5-0.4,0.5c-0.1,0-0.1,0-0.2,0h-1.3c-0.2,0-0.5-0.1-0.5-0.4c0-0.1,0-0.1,0-0.2v-0.5
	c0-1.6-0.9-2.7-4-2.7c-3.1,0-4,1.1-4,2.7v8.5c0,1.6,0.9,2.7,4,2.7c3.1,0,4-1,4-2.7v-0.8c0-0.2,0.1-0.5,0.3-0.5c0.1,0,0.1,0,0.2,0
	h1.3c0.2,0,0.5,0.1,0.5,0.3c0,0.1,0,0.1,0,0.2v0.9c0,2.7-1.6,4.5-6.4,4.5s-6.3-1.8-6.3-4.5v-8.8c0-2.7,1.6-4.5,6.4-4.5
	C611.9-59,613.5-57,613.5-54.4z"/>
<path class="st3" d="M628.7-43.4h9.8c0.2,0,0.4,0.1,0.5,0.3c0,0.1,0,0.1,0,0.2v1.1c0.1,0.2-0.1,0.5-0.3,0.5c-0.1,0-0.1,0-0.2,0
	h-11.9c-0.2,0-0.4-0.2-0.4-0.4v-0.1v-22.8c-0.1-0.2,0.1-0.5,0.3-0.5c0.1,0,0.1,0,0.2,0h1.5c0.2,0,0.5,0.1,0.5,0.4c0,0.1,0,0.1,0,0.2
	V-43.4L628.7-43.4z"/>
<path class="st3" d="M642.3-54.4c0-2.7,1.8-4.5,6.6-4.5c4.8,0,6.6,1.8,6.6,4.5v8.8c0,2.7-1.8,4.5-6.6,4.5c-4.8,0-6.6-1.8-6.6-4.5
	V-54.4z M653.1-54.2c0-1.6-1.1-2.7-4.2-2.7c-3.1,0-4.2,1.1-4.2,2.7v8.5c0,1.6,1.1,2.7,4.2,2.7c3.1,0,4.2-1,4.2-2.7V-54.2z"/>
<path class="st3" d="M660.4-54.4c0-2.6,1.6-4.4,6.3-4.4c4.7,0,6.3,1.8,6.3,4.4v12.6c0,0.2-0.1,0.5-0.3,0.5h-0.1h-1.3
	c-0.3,0-0.5-0.1-0.5-0.4v-0.1l-0.1-1.2c-1.6,1.3-3.7,2.1-5.8,2.1c-3.3,0-4.8-1.9-4.8-4.1v-1.8c0-2.3,1.5-4.1,4.5-4.1h6V-54
	c0-1.6-0.8-2.7-4-2.7c-3.2,0-4,1.1-4,2.6v0.4c0.1,0.2-0.1,0.5-0.3,0.6c-0.1,0-0.1,0-0.2,0h-1.3c-0.2,0-0.5-0.1-0.5-0.4
	c0-0.1,0-0.1,0-0.2L660.4-54.4L660.4-54.4z M670.6-45v-4.1H665c-1.9,0-2.7,1-2.7,2.5v1.1c0,1.5,1,2.4,3,2.4S669.1-43.8,670.6-45z"/>
<path class="st3" d="M688.7-43.1c-1.7,1.4-3.8,2.1-6,2.1c-3.4,0-4.9-1.8-4.9-4.5v-8.9c0-2.7,1.5-4.5,4.9-4.5c2.1,0,4.2,0.7,5.9,2.1
	v-8.4c-0.1-0.2,0.1-0.5,0.3-0.5c0.1,0,0.1,0,0.2,0h1.4c0.2,0,0.5,0.1,0.5,0.4c0,0.1,0,0.1,0,0.2v23.4c0,0.2-0.1,0.5-0.4,0.5
	c-0.1,0-0.1,0-0.2,0h-1.3c-0.3,0-0.5-0.1-0.5-0.4v-0.1L688.7-43.1z M680.3-45.9c0,1.4,0.8,2.6,3.1,2.6c1.9-0.1,3.8-0.8,5.3-2v-9.5
	c-1.5-1.2-3.4-1.9-5.3-2c-2.2,0-3.1,1.2-3.1,2.6V-45.9L680.3-45.9z"/>
<path class="st3" d="M705.4-41.3c-0.2,0-0.5-0.1-0.5-0.4v-0.1v-22.8c-0.1-0.2,0.1-0.5,0.3-0.5c0.1,0,0.1,0,0.2,0h6
	c5.8,0,7.6,2.1,7.6,4.9v2.3c0.1,2-1.2,3.7-3.1,4.1c2.8,0.6,4.1,2.2,4.1,4.3v3.1c0,2.8-1.8,5-7.6,5L705.4-41.3L705.4-41.3z M707.4-63
	v8.5h4.4c3.4,0,4.8-1.4,4.8-3.4v-1.9c0-2.1-1.4-3.2-5.1-3.2L707.4-63L707.4-63z M707.4-52.6v9.2h5c3.8,0,5.1-1.3,5.1-3.4v-2.6
	c0-1.9-1.4-3.3-5.1-3.3L707.4-52.6L707.4-52.6z"/>
<path class="st3" d="M724.6-54.4c0-2.6,1.6-4.4,6.3-4.4c4.7,0,6.3,1.8,6.3,4.4v12.6c0,0.2-0.1,0.5-0.3,0.5h-0.1h-1.3
	c-0.3,0-0.5-0.1-0.5-0.4v-0.1l-0.1-1.2c-1.6,1.3-3.7,2.1-5.8,2.1c-3.3,0-4.8-1.9-4.8-4.1v-1.8c0-2.3,1.5-4.1,4.5-4.1h6V-54
	c0-1.6-0.8-2.7-4-2.7c-3.2,0-4,1.1-4,2.6v0.4c0.1,0.2-0.1,0.5-0.3,0.6c-0.1,0-0.1,0-0.2,0H725c-0.2,0-0.5-0.1-0.5-0.4
	c0-0.1,0-0.1,0-0.2L724.6-54.4L724.6-54.4z M734.8-45v-4.1h-5.6c-1.9,0-2.7,1-2.7,2.5v1.1c0,1.5,1,2.4,3,2.4S733.3-43.8,734.8-45z"
	/>
<path class="st3" d="M744.9-41.8c0,0.2-0.1,0.5-0.3,0.5h-0.1H743c-0.2,0-0.5-0.1-0.5-0.4c0-0.1,0-0.1,0-0.2v-23.4
	c0-0.2,0.1-0.5,0.4-0.5c0.1,0,0.1,0,0.2,0h1.4c0.2,0,0.5,0.1,0.5,0.4c0,0.1,0,0.1,0,0.2L744.9-41.8L744.9-41.8z"/>
<path class="st3" d="M750.3-54.4c0-2.6,1.6-4.4,6.3-4.4s6.3,1.8,6.3,4.4v12.6c0,0.2-0.1,0.5-0.3,0.5h-0.1h-1.3
	c-0.3,0-0.5-0.1-0.5-0.4v-0.1l-0.1-1.2c-1.6,1.3-3.7,2.1-5.8,2.1c-3.3,0-4.8-1.9-4.8-4.1v-1.8c0-2.3,1.5-4.1,4.5-4.1h6V-54
	c0-1.6-0.8-2.7-4-2.7s-4,1.1-4,2.6v0.4c0.1,0.2-0.1,0.5-0.3,0.6c-0.1,0-0.1,0-0.2,0h-1.3c-0.2,0-0.5-0.1-0.5-0.4c0-0.1,0-0.1,0-0.2
	L750.3-54.4L750.3-54.4z M760.5-45v-4.1h-5.6c-1.9,0-2.7,1-2.7,2.5v1.1c0,1.5,1,2.4,3,2.4C757.2-43.1,759-43.8,760.5-45z"/>
<path class="st3" d="M770.5-58l0.1,1.3c1.7-1.4,3.8-2.2,6-2.1c3.3,0,4.8,1.8,4.8,4.3v12.7c0,0.2-0.1,0.5-0.3,0.5H781h-1.4
	c-0.3,0-0.5-0.1-0.5-0.4v-0.1V-54c0-1.6-0.8-2.7-3.1-2.7c-1.9,0.1-3.8,0.8-5.3,2v12.9c0,0.2-0.1,0.5-0.3,0.5h-0.1h-1.4
	c-0.2,0-0.5-0.1-0.5-0.4c0-0.1,0-0.1,0-0.2V-58c0-0.2,0.1-0.5,0.4-0.5c0.1,0,0.1,0,0.2,0h1.3c0.3,0,0.5,0.2,0.5,0.4
	C770.5-58.1,770.5-58.1,770.5-58z"/>
<path class="st3" d="M799-54.4v0.7c0,0.2-0.1,0.5-0.4,0.5c-0.1,0-0.1,0-0.2,0h-1.3c-0.2,0-0.5-0.1-0.5-0.4c0-0.1,0-0.1,0-0.2v-0.5
	c0-1.6-0.9-2.7-4-2.7c-3.1,0-4,1.1-4,2.7v8.5c0,1.6,0.9,2.7,4,2.7c3.1,0,4-1,4-2.7v-0.8c-0.1-0.2,0.1-0.5,0.3-0.5c0.1,0,0.1,0,0.2,0
	h1.3c0.2-0.1,0.5,0.1,0.5,0.3c0,0.1,0,0.1,0,0.2v0.9c0,2.7-1.6,4.5-6.4,4.5s-6.3-1.8-6.3-4.5v-8.8c0-2.7,1.6-4.5,6.4-4.5
	C797.4-59,799-57,799-54.4z"/>
<path class="st3" d="M815.8-50c0,0.2-0.1,0.5-0.4,0.5h-0.1h-9.9v3.9c0,1.6,0.8,2.7,4.1,2.7s4.1-1.1,4.1-2.7v-0.6
	c0-0.2,0.1-0.4,0.3-0.5c0.1,0,0.1,0,0.2,0h1.3c0.2,0,0.5,0.1,0.5,0.3v0.1v0.7c0,2.7-1.6,4.5-6.4,4.5c-4.8,0-6.4-1.8-6.4-4.5v-8.8
	c0-2.7,1.6-4.5,6.4-4.5c4.8,0,6.3,1.8,6.3,4.5V-50L815.8-50z M805.4-51.4h8.1v-2.8c0-1.6-1-2.7-4.1-2.7c-3.1,0-4.1,1.1-4.1,2.7
	L805.4-51.4L805.4-51.4z"/>
<path class="st3" d="M829.4-58.4v1.2c0,0.3-0.2,0.5-0.5,0.5h-0.1c-2.1,0.2-4.1,1-5.7,2.4v12.5c0,0.2-0.1,0.5-0.3,0.5h-0.1h-1.4
	c-0.2,0-0.5-0.1-0.5-0.4c0-0.1,0-0.1,0-0.2V-58c0-0.2,0.1-0.5,0.4-0.5c0.1,0,0.1,0,0.2,0h1.3c0.3,0,0.5,0.1,0.5,0.4v0.1l0.1,1.7
	c1.5-1.5,3.6-2.4,5.7-2.5C829.1-58.9,829.3-58.7,829.4-58.4L829.4-58.4z"/>
<path class="st3" d="M528,55.1c-3.7,0-4.8,1.3-4.8,3.3v1c0,1.3,0.8,2.4,2,2.7l6.6,2.5c1.9,0.7,3.6,2.1,3.6,4.5v3
	c0,2.8-1.8,5.1-7.5,5.1c-5.7,0-7.5-2.3-7.5-5.1v-1.9c-0.1-0.2,0.1-0.5,0.3-0.5c0.1,0,0.1,0,0.2,0h1.4c0.2,0,0.5,0.1,0.5,0.4
	c0,0.1,0,0.1,0,0.2V72c0,2,1.3,3.3,5,3.3S533,74,533,72v-2.2c0-1.8-1.5-2.6-2.9-3.1l-6.3-2.4c-1.8-0.7-3-2.3-3-4.2v-2
	c0-2.8,1.6-5.1,7.2-5.1s7.3,2.3,7.3,5.1v1.6c0,0.2-0.1,0.5-0.4,0.5c-0.1,0-0.1,0-0.2,0h-1.4c-0.2,0-0.5-0.1-0.5-0.4v-0.1v-1.3
	C532.8,56.4,531.7,55.1,528,55.1z"/>
<path class="st3" d="M552.9,68.3c0,0.2-0.1,0.5-0.4,0.5h-0.1h-9.9v3.9c0,1.6,0.8,2.7,4.1,2.7c3.3,0,4.1-1.1,4.1-2.7v-0.6
	c0-0.2,0.1-0.4,0.3-0.5c0.1,0,0.1,0,0.2,0h1.3c0.2-0.1,0.5,0.1,0.5,0.3c0,0.1,0,0.1,0,0.2v0.7c0,2.7-1.6,4.5-6.4,4.5
	s-6.4-1.8-6.4-4.5V64c0-2.7,1.6-4.5,6.4-4.5s6.3,1.8,6.3,4.5V68.3L552.9,68.3z M542.5,67h8.1v-2.8c0-1.6-1-2.7-4.1-2.7
	s-4.1,1.1-4.1,2.7L542.5,67L542.5,67z"/>
<path class="st3" d="M570.1,64v0.7c0,0.2-0.1,0.5-0.4,0.5c-0.1,0-0.1,0-0.2,0h-1.3c-0.2,0-0.5-0.1-0.5-0.4c0-0.1,0-0.1,0-0.2v-0.5
	c0-1.6-0.9-2.7-4-2.7s-4,1-4,2.7v8.5c0,1.6,0.9,2.7,4,2.7s4-1,4-2.7v-0.8c0-0.2,0.1-0.5,0.3-0.5c0.1,0,0.1,0,0.2,0h1.3
	c0.2,0,0.5,0.1,0.5,0.3c0,0.1,0,0.1,0,0.2v1c0,2.7-1.6,4.5-6.4,4.5c-4.8,0-6.3-1.8-6.3-4.5V64c0-2.7,1.6-4.5,6.4-4.5
	S570.1,61.3,570.1,64z"/>
<path class="st3" d="M584.9,75.3c-1.6,1.4-3.6,2.1-5.7,2.1c-3.3,0-4.9-1.8-4.9-4.3V60.3c-0.1-0.2,0.1-0.5,0.3-0.5c0.1,0,0.1,0,0.2,0
	h1.4c0.2,0,0.5,0.1,0.5,0.4c0,0.1,0,0.1,0,0.2v12.2c0,1.6,0.9,2.7,3.1,2.7c1.8,0,3.6-0.7,5-1.9v-13c-0.1-0.2,0.1-0.5,0.3-0.5
	c0.1,0,0.1,0,0.2,0h1.4c0.2,0,0.5,0.1,0.5,0.4c0,0.1,0,0.1,0,0.2v16.2c0.1,0.2-0.1,0.5-0.3,0.5c-0.1,0-0.1,0-0.2,0h-1.3
	c-0.2,0-0.5-0.1-0.5-0.4c0-0.1,0-0.1,0-0.2V75.3z"/>
<path class="st3" d="M601.5,60v1.2c0,0.3-0.2,0.5-0.5,0.5h-0.1c-2.1,0.2-4.1,1-5.7,2.4v12.5c0,0.2-0.1,0.5-0.3,0.5h-0.1h-1.4
	c-0.2,0-0.5-0.1-0.5-0.4c0-0.1,0-0.1,0-0.2V60.3c0-0.2,0.1-0.5,0.4-0.5c0.1,0,0.1,0,0.2,0h1.3c0.3,0,0.5,0.1,0.5,0.4
	c0,0.1,0,0.1,0,0.2l0.1,1.7c1.5-1.5,3.6-2.4,5.7-2.5c0.3,0,0.5,0.1,0.6,0.4C601.5,59.9,601.5,60,601.5,60z"/>
<path class="st3" d="M607.3,56.4c0,0.2-0.1,0.5-0.3,0.5h-0.1h-1.4c-0.2,0-0.5-0.1-0.5-0.4c0-0.1,0-0.1,0-0.2V53
	c0-0.2,0.1-0.5,0.4-0.5c0.1,0,0.1,0,0.2,0h1.4c0.2,0,0.5,0.1,0.5,0.4c0,0.1,0,0.1,0,0.2v3.3H607.3z M607.3,76.5
	c0,0.2-0.1,0.5-0.3,0.5h-0.1h-1.4c-0.2,0-0.5-0.1-0.5-0.4c0-0.1,0-0.1,0-0.2V60.2c0-0.2,0.1-0.5,0.4-0.5c0.1,0,0.1,0,0.2,0h1.4
	c0.2,0,0.5,0.1,0.5,0.4c0,0.1,0,0.1,0,0.2v16.2H607.3z"/>
<path class="st3" d="M620,59.9c0.2,0,0.5,0.1,0.5,0.3v0.1v1c0,0.3-0.1,0.5-0.4,0.5H620h-3.9v10.5c0,1.6,0.9,2.7,4.1,2.7h0.6
	c0.2,0,0.5,0.1,0.5,0.4c0,0.1,0,0.1,0,0.2v1c0,0.2-0.1,0.5-0.4,0.5c-0.1,0-0.1,0-0.2,0h-0.9c-4.8,0-6.2-1.7-6.2-4.5V61.9h-2.1
	c-0.2,0-0.5-0.1-0.5-0.4v-0.1v-0.8c0-0.2,0.1-0.5,0.4-0.5h0.1l1.8-0.1h0.3v-3.7c0-0.3,0.1-0.5,0.4-0.5h0.1h1.4
	c0.2,0,0.5,0.1,0.5,0.4v0.1V60L620,59.9L620,59.9z"/>
<path class="st3" d="M629.3,72c0.2,0.7,0.4,1.4,0.5,2.1c0-0.1,0.3-1.3,0.6-2l4-11.7c0-0.3,0.3-0.5,0.6-0.5h1.3
	c0.4,0,0.6,0.2,0.5,0.5l-8,23.5c0,0.3-0.3,0.5-0.6,0.5h-1.1c-0.2,0-0.4-0.1-0.4-0.3c0-0.1,0-0.2,0-0.2l2.1-6.6l-5.9-16.9
	c-0.1-0.2,0-0.4,0.2-0.5c0.1,0,0.1,0,0.2,0h1.4c0.3,0,0.6,0.2,0.6,0.5L629.3,72z"/>
<path class="st3" d="M647.6,72.9V64c0-2.7,1.5-4.5,4.9-4.5c2.2,0,4.3,0.7,6,2.1l0.1-1.3c0-0.3,0.1-0.5,0.4-0.5h0.1h1.3
	c0.2,0,0.5,0.1,0.5,0.4c0,0.1,0,0.1,0,0.2v19.5c0,2.7-1.8,4.5-6.5,4.5h-4.8c-0.2,0.1-0.5-0.1-0.5-0.3c0-0.1,0-0.1,0-0.2v-1
	c0-0.2,0.1-0.5,0.4-0.5c0.1,0,0.1,0,0.2,0h4.8c3.1,0,4.1-1.1,4.1-2.7v-4.2c-1.7,1.3-3.8,2-5.9,2C649.1,77.4,647.6,75.5,647.6,72.9z
	 M650,72.5c0,1.4,0.8,2.6,3.1,2.6c1.9-0.1,3.8-0.8,5.3-2v-9.5c-1.5-1.2-3.4-1.9-5.3-2c-2.2,0-3.1,1.2-3.1,2.6V72.5L650,72.5z"/>
<path class="st3" d="M675,60v1.2c0,0.3-0.2,0.5-0.5,0.5h-0.1c-2.1,0.2-4.1,1-5.7,2.4v12.5c0,0.2-0.1,0.5-0.3,0.5h-0.1h-1.4
	c-0.2,0-0.5-0.1-0.5-0.4c0-0.1,0-0.1,0-0.2V60.3c0-0.2,0.1-0.5,0.4-0.5c0.1,0,0.1,0,0.2,0h1.3c0.3,0,0.5,0.1,0.5,0.4v0.1l0.1,1.7
	c1.5-1.5,3.6-2.4,5.7-2.5c0.3,0,0.5,0.1,0.6,0.4C675,59.9,675,60,675,60z"/>
<path class="st3" d="M678,64c0-2.7,1.8-4.5,6.6-4.5c4.8,0,6.6,1.8,6.6,4.5v8.8c0,2.7-1.8,4.5-6.6,4.5c-4.8,0-6.6-1.8-6.6-4.5V64z
	 M688.8,64.2c0-1.6-1.1-2.7-4.2-2.7s-4.2,1-4.2,2.7v8.5c0,1.6,1.1,2.7,4.2,2.7s4.2-1,4.2-2.7V64.2z"/>
<path class="st3" d="M706.8,75.3c-1.6,1.4-3.6,2.1-5.8,2.1c-3.3,0-4.9-1.8-4.9-4.3V60.3c-0.1-0.2,0.1-0.5,0.3-0.5c0.1,0,0.1,0,0.2,0
	h1.4c0.2,0,0.5,0.1,0.5,0.4c0,0.1,0,0.1,0,0.2v12.2c0,1.6,0.9,2.7,3.1,2.7c1.8,0,3.6-0.7,5-1.9v-13c-0.1-0.2,0.1-0.5,0.3-0.5
	c0.1,0,0.1,0,0.2,0h1.4c0.2,0,0.5,0.1,0.5,0.4c0,0.1,0,0.1,0,0.2v16.2c0.1,0.2-0.1,0.5-0.3,0.5c-0.1,0-0.1,0-0.2,0h-1.3
	c-0.2,0-0.5-0.1-0.5-0.4c0-0.1,0-0.1,0-0.2L706.8,75.3z"/>
<path class="st3" d="M717,60.3l0.1,1.3c1.7-1.4,3.8-2.2,6-2.1c3.3,0,4.8,1.8,4.8,4.5v8.9c0,2.7-1.5,4.5-4.8,4.5c-2.2,0-4.3-0.7-6-2
	v8.5c0,0.2-0.1,0.4-0.3,0.5c-0.1,0-0.1,0-0.2,0h-1.4c-0.2,0.1-0.5-0.1-0.5-0.3c0-0.1,0-0.1,0-0.2V60.4c0-0.2,0.1-0.5,0.4-0.5
	c0.1,0,0.1,0,0.2,0h1.3c0.2-0.1,0.5,0.1,0.6,0.3C717,60.2,717,60.2,717,60.3z M725.5,64.3c0-1.4-0.8-2.6-3.1-2.6
	c-1.9,0-3.8,0.8-5.3,2v9.5c1.5,1.2,3.4,1.9,5.3,2c2.3,0,3.1-1.2,3.1-2.6V64.3L725.5,64.3z"/>
<path class="st3" d="M523.6,179v9.2c0.1,0.2-0.1,0.5-0.3,0.5c-0.1,0-0.1,0-0.2,0h-1.5c-0.2,0-0.5-0.1-0.5-0.4c0-0.1,0-0.1,0-0.2
	v-22.7c-0.1-0.2,0.1-0.5,0.3-0.5h0.1h6.9c5.8,0,7.6,2.3,7.6,5.1v3.9c0,2.2-1.1,4.1-4.3,4.8l4.6,9.5c0.1,0.3-0.1,0.5-0.5,0.5h-1.5
	c-0.3,0-0.6-0.2-0.6-0.5l-4.3-9.2L523.6,179L523.6,179z M523.6,167v9.9h4.9c3.8,0,5.1-1.3,5.1-3.4v-3.1c0-2-1.4-3.4-5.1-3.4H523.6
	L523.6,167z"/>
<path class="st3" d="M542.3,188.7c-0.3,0-0.4-0.2-0.4-0.5v-22.8c-0.1-0.2,0.1-0.5,0.3-0.5h0.1h7.1c5.8,0,7.6,2.3,7.6,5.1v13.6
	c0,2.8-1.8,5.1-7.6,5.1L542.3,188.7L542.3,188.7z M544.3,167v19.5h5.1c3.8,0,5.1-1.3,5.1-3.4v-12.8c0-2-1.4-3.4-5.1-3.4L544.3,167
	L544.3,167z"/>
<path class="st3" d="M569.8,166.7c-3.7,0-4.8,1.3-4.8,3.3v1c0,1.3,0.8,2.4,2,2.7l6.6,2.5c1.9,0.7,3.6,2.1,3.6,4.5v3
	c0,2.8-1.8,5.1-7.5,5.1s-7.5-2.3-7.5-5.1V182c-0.1-0.2,0.1-0.5,0.3-0.5c0.1,0,0.1,0,0.2,0h1.4c0.2,0,0.5,0.1,0.5,0.4
	c0,0.1,0,0.1,0,0.2v1.6c0,2,1.3,3.3,5,3.3c3.7,0,5.1-1.3,5.1-3.3v-2.2c0-1.8-1.5-2.6-2.9-3.1l-6.3-2.4c-1.8-0.7-3-2.3-3-4.2v-2
	c0-2.8,1.6-5.1,7.2-5.1c5.6,0,7.3,2.3,7.3,5.1v1.6c0,0.2-0.1,0.5-0.4,0.5c-0.1,0-0.1,0-0.2,0H575c-0.2,0-0.5-0.1-0.5-0.4
	c0-0.1,0-0.1,0-0.2V170C574.6,168,573.4,166.7,569.8,166.7z"/>
<path class="st3" d="M590.9,188.7c-0.3,0-0.4-0.2-0.4-0.5v-22.8c-0.1-0.2,0.1-0.5,0.3-0.5h0.1h7c5.8,0,7.6,2.3,7.6,5.1v13.6
	c0,2.8-1.8,5.1-7.6,5.1L590.9,188.7L590.9,188.7z M593,167v19.5h5c3.8,0,5.1-1.3,5.1-3.4v-12.8c0-2-1.4-3.4-5.1-3.4L593,167L593,167
	z"/>
<path class="st3" d="M610.9,175.5c0-2.6,1.6-4.5,6.3-4.5c4.7,0,6.3,1.8,6.3,4.5v12.6c0.1,0.2-0.1,0.5-0.3,0.5c-0.1,0-0.1,0-0.2,0
	h-1.3c-0.3,0-0.5-0.1-0.5-0.4c0-0.1,0-0.1,0-0.2l-0.1-1.3c-1.6,1.3-3.7,2.1-5.8,2.1c-3.2,0-4.8-1.9-4.8-4.1v-1.8
	c0-2.3,1.5-4.1,4.5-4.1h6v-3.1c0-1.6-0.8-2.7-4-2.7s-4,1-4,2.6v0.4c0.1,0.2-0.1,0.5-0.3,0.6c-0.1,0-0.1,0-0.2,0h-1.3
	c-0.2,0-0.5-0.1-0.5-0.4c0-0.1,0-0.1,0-0.2L610.9,175.5L610.9,175.5z M621.1,185v-4.1h-5.6c-1.9,0-2.7,1-2.7,2.5v1.1
	c0,1.5,0.9,2.4,3,2.4C617.8,186.9,619.7,186.2,621.1,185z"/>
<path class="st3" d="M636,171.5c0.2-0.1,0.5,0.1,0.5,0.3c0,0.1,0,0.1,0,0.2v1c0,0.3-0.1,0.5-0.4,0.5c-0.1,0-0.1,0-0.2,0h-4V184
	c0,1.6,1,2.7,4.1,2.7h0.6c0.2,0,0.5,0.1,0.5,0.4c0,0.1,0,0.1,0,0.2v1c0,0.2-0.1,0.5-0.4,0.5c-0.1,0-0.1,0-0.2,0h-0.9
	c-4.8,0-6.2-1.7-6.2-4.5v-10.8h-2.1c-0.2,0-0.4-0.2-0.4-0.4c0,0,0,0,0-0.1v-0.8c0-0.2,0.1-0.5,0.4-0.5h0.1l1.8-0.1h0.3v-3.7
	c0-0.3,0.1-0.5,0.4-0.5h0.1h1.4c0.2,0,0.5,0.1,0.5,0.4v0.1v3.7L636,171.5L636,171.5z"/>
<path class="st3" d="M640.7,175.5c0-2.6,1.6-4.5,6.3-4.5s6.3,1.8,6.3,4.5v12.6c0.1,0.2-0.1,0.5-0.3,0.5c-0.1,0-0.1,0-0.2,0h-1.3
	c-0.3,0-0.5-0.1-0.5-0.4v-0.1l-0.1-1.3c-1.6,1.3-3.7,2.1-5.8,2.1c-3.3,0-4.8-1.9-4.8-4.1V183c0-2.3,1.5-4.1,4.5-4.1h6v-3.1
	c0-1.6-0.8-2.7-4-2.7c-3.2,0-4,1-4,2.6v0.4c0.1,0.2-0.1,0.5-0.3,0.6c-0.1,0-0.1,0-0.2,0H641c-0.2,0-0.5-0.1-0.5-0.4
	c0-0.1,0-0.1,0-0.2L640.7,175.5L640.7,175.5z M651,185v-4.1h-5.6c-1.9,0-2.7,1-2.7,2.5v1.1c0,1.5,1,2.4,3,2.4
	C647.7,186.9,649.5,186.2,651,185z"/>
<path class="st3" d="M659.2,188.7c-0.2,0-0.5-0.1-0.5-0.4c0-0.1,0-0.1,0-0.2v-23.4c0-0.2,0.1-0.5,0.4-0.5c0.1,0,0.1,0,0.2,0h1.4
	c0.2,0,0.5,0.1,0.5,0.4c0,0.1,0,0.1,0,0.2v8.4c1.7-1.4,3.8-2.1,6-2.1c3.3,0,4.8,1.8,4.8,4.5v8.9c0,2.7-1.5,4.5-4.8,4.5
	c-2.2,0-4.3-0.7-6-2.1l-0.1,1.3c0,0.3-0.1,0.5-0.4,0.5h-0.1L659.2,188.7L659.2,188.7z M669.4,176c0-1.4-0.8-2.6-3.1-2.6
	c-1.9,0-3.8,0.8-5.3,2v9.5c1.5,1.2,3.4,1.9,5.3,2c2.3,0,3.1-1.2,3.1-2.6V176z"/>
<path class="st3" d="M676.8,175.5c0-2.6,1.6-4.5,6.3-4.5s6.3,1.8,6.3,4.5v12.6c0.1,0.2-0.1,0.5-0.3,0.5c-0.1,0-0.1,0-0.2,0h-1.3
	c-0.3,0-0.5-0.1-0.5-0.4v-0.1l-0.1-1.3c-1.6,1.3-3.7,2.1-5.8,2.1c-3.3,0-4.8-1.9-4.8-4.1V183c0-2.3,1.5-4.1,4.5-4.1h6v-3.1
	c0-1.6-0.8-2.7-4-2.7c-3.2,0-4,1-4,2.6v0.4c0.1,0.2-0.1,0.5-0.3,0.6c-0.1,0-0.1,0-0.2,0h-1.3c-0.2,0-0.5-0.1-0.5-0.4
	c0-0.1,0-0.1,0-0.2v-0.6L676.8,175.5L676.8,175.5z M687,185v-4.1h-5.6c-1.9,0-2.7,1-2.7,2.5v1.1c0,1.5,1,2.4,3,2.4
	C683.7,186.9,685.5,186.2,687,185z"/>
<path class="st3" d="M704.1,175.1c0-1.4-1.3-2.2-3.9-2.2s-3.8,0.8-3.8,2.2v0.9c0.1,1,0.8,1.7,1.8,1.9l5.4,1.8c1.8,0.6,3,1.7,3,3.3v2
	c0,2.1-1.9,4-6.4,4s-6.3-1.9-6.3-4v-0.9c0-0.2,0.1-0.5,0.4-0.5h0.1h1.3c0.2,0,0.4,0.1,0.5,0.3c0,0.1,0,0.1,0,0.2v0.8
	c0,1.4,1.4,2.2,4.1,2.2c2.7,0,4.1-0.8,4.1-2.2v-1.3c0-1-0.9-1.6-2.1-2l-5.4-1.8c-1.5-0.5-2.6-1.8-2.7-3.4V175c0-2.1,1.6-4,6.1-4
	s6.1,1.9,6.1,4v1c0,0.2-0.1,0.4-0.3,0.5H706h-1.3c-0.2,0-0.4-0.1-0.5-0.3c0-0.1,0-0.1,0-0.2L704.1,175.1L704.1,175.1z"/>
<path class="st3" d="M723.3,180c0,0.2-0.1,0.5-0.4,0.5h-0.1h-9.9v3.9c0,1.6,0.8,2.7,4.1,2.7s4.1-1.1,4.1-2.7v-0.6
	c0-0.2,0.1-0.4,0.3-0.5c0.1,0,0.1,0,0.2,0h1.3c0.2,0,0.5,0.1,0.5,0.3v0.1v0.7c0,2.7-1.6,4.5-6.4,4.5s-6.4-1.8-6.4-4.5v-8.8
	c0-2.7,1.6-4.5,6.4-4.5s6.3,1.8,6.3,4.5V180L723.3,180z M712.9,178.6h8.1v-2.8c0-1.6-1-2.7-4.1-2.7c-3.1,0-4.1,1.1-4.1,2.7v2.8
	H712.9z"/>
<g>
	<circle class="st4" cx="842" cy="43.2" r="33.5"/>
	<path class="st5" d="M841.4,70.9c0,0,0,118,0,163.1c-0.5,0-0.7,0-0.7,0h-261v38"/>
	<g>
		<path class="st6" d="M847.5,51c0.3,0,0.5,0.1,0.5,0.4v1c0,0.3-0.1,0.5-0.5,0.5h-11.1c-0.3,0-0.4-0.1-0.4-0.5v-5.8
			c0-1.8,1.6-2.4,2.5-2.7L844,42c0.6-0.2,1.7-0.7,1.7-2.1v-3c0-1.8-0.8-2.9-4-2.9c-3.1,0-4,1.1-4,2.9v1.4c0,0.3-0.1,0.5-0.4,0.5
			h-1.2c-0.3,0-0.5-0.2-0.5-0.5v-1.7c0-2.4,1.2-4.4,6.1-4.4c4.9,0,6.1,2,6.1,4.4v3.3c0,2.4-1.7,3.4-2.7,3.7l-5.1,1.6
			c-0.7,0.2-2,0.7-2,2V51H847.5z"/>
	</g>
</g>
</svg>
