<?xml version="1.0" encoding="utf-8"?>
<!-- Generator: Adobe Illustrator 19.1.0, SVG Export Plug-In . SVG Version: 6.00 Build 0)  -->
<svg version="1.1" id="Layer_2" xmlns="http://www.w3.org/2000/svg" xmlns:xlink="http://www.w3.org/1999/xlink" x="0px" y="0px"
	 viewBox="301 -226 650 500" style="enable-background:new 301 -226 650 500;" xml:space="preserve">
<style type="text/css">
	.st0{fill:#FFFFFF;}
	.st1{fill:none;stroke:#616161;stroke-width:3;stroke-miterlimit:10;}
	.st2{fill:#5D89FB;}
	.st3{fill:none;stroke:#5D89FB;stroke-width:3;stroke-linecap:round;stroke-miterlimit:10;}
	.st4{fill:#616161;}
	.st5{fill:none;stroke:#616161;stroke-width:3;stroke-linecap:round;stroke-miterlimit:10;}
	.st6{fill:#FFFFFF;stroke:#616161;stroke-width:3;stroke-linecap:round;stroke-miterlimit:10;}
	.st7{display:none;}
	.st8{display:inline;fill:none;stroke:#BDBDBD;stroke-width:3;stroke-linecap:round;stroke-miterlimit:10;}
	.st9{fill:#BDBDBD;}
</style>
<title>illust_browsers</title>
<g id="browser">
	<path class="st0" d="M537,32V-88c0-5.5,4.5-10,10-10h258.9c5.5,0,10,4.5,10,10v279.5c0,5.5-4.5,10-10,10H537"/>
	<path class="st1" d="M537,32V-88c0-5.5,4.5-10,10-10h258.9c5.5,0,10,4.5,10,10v279.5c0,5.5-4.5,10-10,10H537"/>
	<line class="st1" x1="537" y1="-61" x2="815.9" y2="-61"/>
	<g id="browser-fill-bar">
		<path class="st2" d="M614.3,53.4h110.9c5.5,0,10,4.5,10,10v1.1c0,5.5-4.5,10-10,10H614.3c-5.5,0-10-4.5-10-10v-1.1
			C604.3,57.9,608.8,53.4,614.3,53.4z"/>
	</g>
	<g id="browser-fill-stroke">
		<path class="st3" d="M614.3,53.4h146.3c5.5,0,10,4.5,10,10v1.1c0,5.5-4.5,10-10,10H614.3c-5.5,0-10-4.5-10-10v-1.1
			C604.3,57.9,608.8,53.4,614.3,53.4z"/>
	</g>
	<g id="pips">
		<circle class="st4" cx="555.9" cy="-81.1" r="3.9"/>
		<circle class="st4" cx="569.9" cy="-81.1" r="3.9"/>
		<circle class="st4" cx="583.9" cy="-81.1" r="3.9"/>
	</g>
</g>
<g id="phone">
	<path class="st0" d="M472,37.6h85.2c5.5,0,10,4.5,10,10v167.2c0,5.5-4.5,10-10,10H472c-5.5,0-10-4.5-10-10V47.6
		C462,42.1,466.5,37.6,472,37.6z"/>
	<path class="st5" d="M472,37.6h85.2c5.5,0,10,4.5,10,10v167.2c0,5.5-4.5,10-10,10H472c-5.5,0-10-4.5-10-10V47.6
		C462,42.1,466.5,37.6,472,37.6z"/>
	<line class="st5" x1="463" y1="74" x2="567.1" y2="74"/>
	<line class="st5" x1="498" y1="55" x2="528" y2="55"/>
	<line class="st5" x1="463" y1="183" x2="564.7" y2="183"/>
	<circle class="st6" cx="515" cy="201.3" r="7.7"/>
	<g id="phone-fill-bar">
		<path class="st2" d="M534,121.1c0,5.1-4.5,9.3-10,9.3h-36.9c-5.5,0-10-4.2-10-9.3s4.5-9.3,10-9.3H524
			C529.5,111.9,534,116,534,121.1z"/>
	</g>
	<g id="phone-fill-stroke">
		<path class="st3" d="M552.5,121.1c0,5.1-4.5,9.3-10,9.3h-55.3c-5.5,0-10-4.2-10-9.3s4.5-9.3,10-9.3h55.3
			C548,111.9,552.5,116,552.5,121.1z"/>
	</g>
</g>
<g id="sparkles" class="st7">
	<line class="st8" x1="436" y1="-101" x2="436" y2="-77"/>
	<line class="st8" x1="424" y1="-89" x2="448" y2="-89"/>
	<line class="st8" x1="366.3" y1="46" x2="366.3" y2="70"/>
	<line class="st8" x1="354.3" y1="58" x2="378.3" y2="58"/>
	<circle class="st8" cx="401" cy="-64.1" r="7.7"/>
	<line class="st8" x1="863.9" y1="104.8" x2="863.9" y2="128.8"/>
	<line class="st8" x1="851.9" y1="116.8" x2="875.9" y2="116.8"/>
	<circle class="st8" cx="819.7" cy="-108.9" r="7.7"/>
</g>
<g id="logo">
	<path class="st9" d="M688,6.8c0.5,0,0.9-0.4,0.9-0.9V0.7c0-0.5-0.4-0.9-0.9-0.9s-0.9,0.4-0.9,0.9v5.2C687.1,6.4,687.5,6.8,688,6.8z
		"/>
	<path class="st9" d="M701.8-0.1c-0.5,0-0.9,0.4-0.9,0.9V6c0,0.5,0.4,0.9,0.9,0.9s0.9-0.4,0.9-0.9V0.8
		C702.6,0.3,702.2-0.1,701.8-0.1z"/>
	<path class="st9" d="M701.8-7c-2.9,0-5.6,1.6-6.9,4.2c-1.9-3.8-6.6-5.3-10.4-3.4c-1.5,0.7-2.7,1.9-3.4,3.4
		c-1.9-3.8-6.6-5.3-10.4-3.4c-1.5,0.7-2.7,1.9-3.4,3.4c-1.9-3.8-6.6-5.3-10.4-3.4c-1.5,0.7-2.7,1.9-3.4,3.4
		c-1.9-3.8-6.6-5.3-10.4-3.4c-2.6,1.3-4.3,4-4.2,6.9v15.5c0,4.3,3.5,7.8,7.8,7.8c2.3,0,4.5-1.1,6-2.9v8.1c0.1,2.4,2.1,4.2,4.5,4.1
		c2.2-0.1,4-1.9,4.1-4.1V24c2.6-0.3,4.8-1.9,6-4.2c1.9,3.8,6.6,5.3,10.4,3.4c1.5-0.7,2.7-1.9,3.4-3.4c1.9,3.8,6.6,5.3,10.4,3.4
		c1.5-0.7,2.7-1.9,3.4-3.4c1.9,3.8,6.6,5.3,10.4,3.4c2.6-1.3,4.3-4,4.2-6.9V0.8C709.4-3.5,706-6.9,701.8-7z M646.5,22.4
		c-3.3,0-6-2.7-6-6V0.8c0-3.3,2.7-6,6-6s6,2.7,6,6l0,0v15.5l0,0C652.6,19.7,649.9,22.4,646.5,22.4L646.5,22.4L646.5,22.4z
		 M660.3,22.4c-0.3,0-0.6,0-0.9-0.1v7c0,1.4-1.2,2.6-2.6,2.6s-2.6-1.2-2.6-2.6l0,0V0.8c0-3.3,2.7-6,6-6c3.3,0,6,2.7,6,6l0,0v15.5
		l0,0C666.4,19.6,663.7,22.4,660.3,22.4L660.3,22.4z M673.8,22.4c-3.3-0.2-5.8-3-5.7-6.2v-2.4c0-0.5,0.4-0.9,0.9-0.9h3.5
		c0.5,0,0.9,0.4,0.9,0.9v2.6c0,0.4,0.3,0.8,0.7,0.9c0.5,0.1,0.9-0.2,1-0.7c0-0.1,0-0.1,0-0.2v-2.6c0-1.4-1.2-2.6-2.6-2.6H672
		c-2.1,0-3.9-1.7-3.9-3.8l0,0V1c0-3.3,2.5-6,5.7-6.2c3.3-0.2,6.2,2.4,6.3,5.7c0,0.1,0,0.2,0,0.3l0,0v2.6c0,0.5-0.4,0.9-0.9,0.9h-3.5
		c-0.5,0-0.9-0.4-0.9-0.9V0.8c0-0.4-0.3-0.8-0.7-0.9c-0.5-0.1-0.9,0.2-1,0.7c0,0.1,0,0.1,0,0.2v2.6c0,1.4,1.2,2.6,2.6,2.6h0.4
		c2.1,0,3.9,1.7,3.9,3.8l0,0v6.5l0,0c0,3.3-2.7,6.1-6,6.1C674.1,22.4,674,22.4,673.8,22.4L673.8,22.4z M687.7,22.4
		c-3.3-0.2-5.8-3-5.7-6.2V1c0-3.3,2.5-6,5.7-6.2c3.3-0.2,6.2,2.4,6.3,5.7c0,0.1,0,0.2,0,0.3l0,0v10.4c0,0.5-0.4,0.9-0.9,0.9h-3.5
		c-1.4,0-2.6,1.2-2.6,2.6v1.7c0,0.4,0.3,0.8,0.7,0.9c0.5,0.1,0.9-0.2,1-0.7c0-0.1,0-0.1,0-0.2v-2c0-0.5,0.4-0.9,0.9-0.9h3.5
		c0.5,0,0.9,0.4,0.9,0.9v2l0,0c0,3.3-2.7,6.1-6,6.1C687.9,22.4,687.8,22.4,687.7,22.4L687.7,22.4z M707.8,11.1
		c0,0.5-0.4,0.9-0.9,0.9h-3.5c-1.4,0-2.6,1.2-2.6,2.6v1.7c0,0.4,0.3,0.8,0.7,0.9c0.5,0.1,0.9-0.2,1-0.7c0-0.1,0-0.1,0-0.2v-2
		c0-0.5,0.4-0.9,0.9-0.9h3.5c0.5,0,0.9,0.4,0.9,0.9v2c0,3.3-2.8,6-6.1,6c-0.1,0-0.2,0-0.3,0c-3.3-0.2-5.8-3-5.7-6.2V0.9
		c0-3.3,2.5-6,5.7-6.2c3.3-0.2,6.2,2.4,6.3,5.7c0,0.1,0,0.2,0,0.3V11v0.1H707.8z"/>
	<path class="st9" d="M660.3-0.1c-0.5,0-0.9,0.4-0.9,0.9v15.5c0,0.5,0.4,0.9,0.9,0.9s0.9-0.4,0.9-0.9V0.8
		C661.2,0.3,660.8-0.1,660.3-0.1L660.3-0.1z"/>
	<path class="st9" d="M646.5-0.1c-0.5,0-0.9,0.4-0.9,0.9v15.5c0,0.5,0.4,0.9,0.9,0.9s0.9-0.4,0.9-0.9V0.8
		C647.4,0.3,647-0.1,646.5-0.1L646.5-0.1z"/>
</g>
<circle class="st2" cx="411" cy="-51.5" r="33.5"/>
<g>
	<path class="st0" d="M412-62c0.2,0,0.4,0,0.4,0.4v18.3h4.7c0.3,0,0.5,0.1,0.5,0.4v1c0,0.3-0.2,0.5-0.5,0.5h-11.7
		c-0.3,0-0.5-0.1-0.5-0.5v-1c0-0.3,0.2-0.4,0.5-0.4h4.8v-16.3l-4.8,1.1c-0.3,0.1-0.5-0.1-0.5-0.4v-1c0-0.3,0.2-0.4,0.5-0.5L412-62z"
		/>
</g>
<line class="st3" x1="411" y1="-17.4" x2="411" y2="250.3"/>
<path class="st3" d="M637.8,250.3H411"/>
<line class="st3" x1="637.8" y1="250.3" x2="637.8" y2="271.9"/>
</svg>
