<?xml version="1.0" encoding="utf-8"?>
<!-- Generator: Adobe Illustrator 19.2.1, SVG Export Plug-In . SVG Version: 6.00 Build 0)  -->
<svg version="1.1" id="key" xmlns="http://www.w3.org/2000/svg" xmlns:xlink="http://www.w3.org/1999/xlink" x="0px" y="0px"
	 viewBox="0 0 650 420" style="enable-background:new 0 0 650 420;" xml:space="preserve">
<style type="text/css">
	.st0{fill:none;stroke:#4C4C4C;stroke-width:5;stroke-miterlimit:10;}
	.st1{fill:#9B9B9B;}
	.st2{fill:none;stroke:#9B9B9B;stroke-width:5;stroke-miterlimit:10;}
	.st3{fill:none;stroke:#F4AB0B;stroke-width:5;stroke-miterlimit:10;}
	.st4{fill:none;stroke:#C9C9C9;stroke-width:5;stroke-linecap:round;stroke-miterlimit:10;}
</style>
<title>illust_aws_key</title>
<g id="tag">
	<path class="st0" d="M37.1,274c0,2.2,1.8,4,4,4h184.4c2.6-0.1,5.1-0.9,7.2-2.4l48-35.3c1.9-1.6,3.1-3.9,3.2-6.4v-54
		c-0.1-2.5-1.4-4.7-3.3-6.2l-47.2-31c-2.2-1.3-4.8-2.1-7.3-2.2H41c-2.2,0-4,1.8-4,4L37.1,274L37.1,274z"/>
	<path id="keychain_round_2" class="st1" d="M271.5,211.4h-10.1l0,0v-5l0,0h10.1c1.4,0,2.5,1.1,2.5,2.5l0,0
		C274,210.3,272.9,211.4,271.5,211.4z"/>
	<circle class="st2" cx="246.7" cy="207.7" r="14.7"/>
</g>
<g id="key-2">
	<path id="keychain_round_" class="st1" d="M295.9,206.8H345l0,0v5l0,0h-49.1c-1.4,0-2.5-1.1-2.5-2.5l0,0
		C293.4,208,294.5,206.8,295.9,206.8z"/>
	<circle class="st2" cx="367.8" cy="208.9" r="23"/>
	<path class="st0" d="M599,191.7H468.6c-0.6,0-1-0.4-1-1v-11.5c0-0.6-0.4-1-1-1h-10.9c-0.4,0-0.7-0.2-0.9-0.6
		c-12.4-26.8-39.3-43.8-68.8-43.4c-40.8,0.5-74,34.3-73.8,75.1c0.2,41.3,33.9,74.5,75.1,74.3c27.2-0.1,52.2-15.1,65.2-38.9
		c0.2-0.3,0.5-0.5,0.9-0.5h13.1c0.6,0,1-0.4,1-1V231c0-0.6,0.4-1,1-1h59.2l17.9,17.9c0.4,0.4,1,0.4,1.4,0l0,0l15.6-17.1
		c0.4-0.4,1-0.4,1.4,0l0,0l16.9,17.1c0.4,0.4,1,0.4,1.4,0l0,0l34-36.1c0.4-0.4,0.4-1,0-1.4L599.7,192
		C599.5,191.8,599.2,191.7,599,191.7z"/>
	<path class="st1" d="M590.1,208.9c-0.2,1.5-1.5,2.6-3,2.5h-83.5c-1.4,0.2-2.7-0.7-2.9-2.1c-0.2-1.4,0.7-2.7,2.1-2.9
		c0.3-0.1,0.6-0.1,0.9,0h83.5C588.6,206.3,589.9,207.4,590.1,208.9z"/>
</g>
<path class="st3" d="M88.3,194.1c0.5-0.3,1.2-0.3,1.7,0l13.6,7.9c0.5,0.3,0.8,0.9,0.9,1.5v15.7c0,0.6-0.4,1.2-0.9,1.5L90,228.6
	c-0.5,0.3-1.2,0.3-1.7,0l-13.6-7.9c-0.5-0.3-0.8-0.9-0.9-1.5v-15.7c0-0.6,0.4-1.2,0.9-1.5L88.3,194.1z"/>
<path class="st3" d="M127.9,194.1c0.5-0.3,1.2-0.3,1.7,0l13.6,7.9c0.5,0.3,0.8,0.9,0.9,1.5v15.7c0,0.6-0.4,1.2-0.9,1.5l-13.6,7.9
	c-0.5,0.3-1.2,0.3-1.7,0l-13.6-7.9c-0.5-0.3-0.8-0.9-0.9-1.5v-15.7c0-0.6,0.4-1.2,0.9-1.5L127.9,194.1z"/>
<path class="st3" d="M108.1,227.4c0.5-0.3,1.2-0.3,1.7,0l13.6,7.9c0.5,0.3,0.8,0.9,0.9,1.5v15.7c0,0.6-0.4,1.2-0.9,1.5l-13.6,7.9
	c-0.5,0.3-1.2,0.3-1.7,0L94.5,254c-0.5-0.3-0.8-0.9-0.9-1.5v-15.7c0-0.6,0.4-1.2,0.9-1.5L108.1,227.4z"/>
<path class="st3" d="M148.6,161.7c0.5-0.3,1.2-0.3,1.7,0l13.7,7.9c0.5,0.3,0.8,0.9,0.9,1.5v15.7c0,0.6-0.4,1.2-0.9,1.5l-13.6,7.9
	c-0.5,0.3-1.2,0.3-1.7,0l-13.7-7.8c-0.5-0.3-0.8-0.9-0.9-1.5v-15.7c0-0.6,0.4-1.2,0.9-1.5L148.6,161.7z"/>
<path class="st3" d="M187.3,161.7c0.5-0.3,1.2-0.3,1.7,0l13.6,7.9c0.5,0.3,0.8,0.9,0.9,1.5v15.7c0,0.6-0.4,1.2-0.9,1.5l-13.7,7.9
	c-0.5,0.3-1.2,0.3-1.7,0l-13.6-7.9c-0.5-0.3-0.8-0.9-0.9-1.5v-15.7c0-0.6,0.4-1.2,0.9-1.5L187.3,161.7z"/>
<line class="st4" x1="59.2" y1="72.4" x2="59.2" y2="96.4"/>
<line class="st4" x1="47.2" y1="84.4" x2="71.2" y2="84.4"/>
<circle class="st4" cx="74.2" cy="309.3" r="7.7"/>
<line class="st4" x1="342" y1="317.4" x2="342" y2="341.4"/>
<line class="st4" x1="330" y1="329.4" x2="354" y2="329.4"/>
<line class="st4" x1="299" y1="303.4" x2="299" y2="319.4"/>
<line class="st4" x1="291" y1="311.4" x2="307" y2="311.4"/>
<line class="st4" x1="539" y1="105.4" x2="539" y2="121.4"/>
<line class="st4" x1="531" y1="113.4" x2="547" y2="113.4"/>
<circle class="st4" cx="588.2" cy="153.3" r="7.7"/>
</svg>
