<?xml version="1.0" encoding="utf-8"?>
<!-- Generator: Adobe Illustrator 19.2.1, SVG Export Plug-In . SVG Version: 6.00 Build 0)  -->
<svg version="1.1" id="Layer_1" xmlns="http://www.w3.org/2000/svg" xmlns:xlink="http://www.w3.org/1999/xlink" x="0px" y="0px"
	 viewBox="0 0 650 650" style="enable-background:new 0 0 650 650;" xml:space="preserve">
<style type="text/css">
	.st0{fill:none;stroke:#5D89FB;stroke-width:3;stroke-miterlimit:10;}
	.st1{display:none;}
	.st2{display:inline;fill:none;stroke:#BDBCBC;stroke-width:3;stroke-linecap:round;stroke-miterlimit:10;}
	.st3{fill:#616262;}
	.st4{fill:#5D89FB;}
	.st5{fill:#FFFFFF;}
	.st6{font-family:'Geogrotesque-Bold';}
	.st7{font-size:30px;}
	.st8{fill:none;stroke:#5D89FB;stroke-width:3;stroke-linecap:round;stroke-miterlimit:10;}
</style>
<title>illust_checks</title>
<circle class="st0" cx="156.2" cy="204.7" r="43.7"/>
<polyline class="st0" points="173.1,189.4 152.2,220.1 139.2,207 "/>
<circle class="st0" cx="156.2" cy="317.8" r="43.7"/>
<polyline class="st0" points="173.1,302.5 152.2,333.1 139.2,320.1 "/>
<circle class="st0" cx="156.2" cy="429.4" r="43.7"/>
<polyline class="st0" points="173.1,414.1 152.2,444.7 139.2,431.7 "/>
<g id="sparkles" class="st1">
	<line class="st2" x1="71" y1="139.1" x2="71" y2="163.1"/>
	<line class="st2" x1="59" y1="151.1" x2="83" y2="151.1"/>
	<line class="st2" x1="63" y1="480.4" x2="63" y2="496.4"/>
	<line class="st2" x1="55" y1="488.4" x2="71" y2="488.4"/>
	<line class="st2" x1="573" y1="259.4" x2="573" y2="275.4"/>
	<line class="st2" x1="565" y1="267.4" x2="581" y2="267.4"/>
	<circle class="st2" cx="526" cy="408.9" r="7.7"/>
	<circle class="st2" cx="113" cy="516.7" r="7.7"/>
</g>
<path class="st3" d="M220.6,214.7c-0.2,0-0.4-0.2-0.5-0.4c0,0,0-0.1,0-0.1v-22.8c-0.1-0.2,0.1-0.5,0.3-0.5c0.1,0,0.1,0,0.2,0h11.9
	c0.2,0,0.5,0.1,0.5,0.4c0,0.1,0,0.1,0,0.2v1.1c0,0.2-0.1,0.5-0.4,0.5c-0.1,0-0.1,0-0.2,0h-10v8.2h9.4c0.2-0.1,0.5,0.1,0.5,0.3
	c0,0.1,0,0.1,0,0.2v1c0.1,0.2-0.1,0.5-0.3,0.5c-0.1,0-0.1,0-0.2,0h-9.4v9.3H233c0.2,0,0.5,0.1,0.5,0.3c0,0,0,0.1,0,0.1v1.1
	c0,0.2-0.1,0.5-0.4,0.5c-0.1,0-0.1,0-0.2,0L220.6,214.7L220.6,214.7z"/>
<path class="st3" d="M240.5,214.2c0,0.2-0.1,0.5-0.3,0.5c0,0-0.1,0-0.1,0h-1.4c-0.2,0-0.5-0.1-0.5-0.4c0-0.1,0-0.1,0-0.2v-23.4
	c0-0.2,0.1-0.5,0.4-0.5c0.1,0,0.1,0,0.2,0h1.4c0.2,0,0.5,0.1,0.5,0.4c0,0.1,0,0.1,0,0.2L240.5,214.2L240.5,214.2z"/>
<path class="st3" d="M245.8,201.6c0-2.6,1.6-4.4,6.3-4.4s6.3,1.8,6.3,4.4v12.6c0,0.2-0.1,0.5-0.3,0.5c0,0-0.1,0-0.1,0h-1.3
	c-0.3,0-0.5-0.1-0.5-0.4c0,0,0-0.1,0-0.1l-0.1-1.2c-1.6,1.3-3.7,2.1-5.8,2.1c-3.3,0-4.8-1.9-4.8-4.1v-1.8c0-2.3,1.5-4.1,4.6-4.1h6
	v-3.1c0-1.6-0.8-2.7-4-2.7s-4,1.1-4,2.6v0.4c0.1,0.2-0.1,0.5-0.3,0.6c-0.1,0-0.1,0-0.2,0h-1.3c-0.2,0-0.5-0.1-0.5-0.4
	c0-0.1,0-0.1,0-0.2L245.8,201.6L245.8,201.6z M256.1,211v-4.1h-5.6c-1.9,0-2.7,1-2.7,2.5v1.1c0,1.5,0.9,2.4,3,2.4
	C252.8,212.9,254.6,212.2,256.1,211z"/>
<path class="st3" d="M273.1,201.2c0-1.4-1.3-2.2-3.9-2.2s-3.8,0.8-3.8,2.2v0.9c0.1,1,0.8,1.7,1.8,1.9l5.4,1.8c1.8,0.6,3,1.7,3,3.3v2
	c0,2.1-1.9,4-6.4,4s-6.3-1.9-6.3-4v-0.9c0-0.2,0.1-0.5,0.4-0.5c0,0,0.1,0,0.1,0h1.3c0.2,0,0.4,0.1,0.5,0.3c0,0.1,0,0.1,0,0.2v0.9
	c0,1.4,1.4,2.2,4.1,2.2s4.1-0.8,4.1-2.2v-1.3c0-1-0.9-1.6-2.1-2l-5.4-1.8c-1.5-0.5-2.6-1.8-2.7-3.4v-1.4c0-2.1,1.6-4,6.1-4
	s6.1,1.9,6.1,4v1c0,0.2-0.1,0.4-0.3,0.5c0,0-0.1,0-0.1,0h-1.3c-0.2,0-0.4-0.1-0.5-0.3c0-0.1,0-0.1,0-0.2V201.2L273.1,201.2z"/>
<path class="st3" d="M287.1,197.5c0.2,0,0.5,0.1,0.5,0.3c0,0,0,0.1,0,0.1v1c0,0.3-0.1,0.5-0.4,0.5c0,0-0.1,0-0.1,0h-3.9V210
	c0,1.6,0.9,2.7,4.1,2.7h0.6c0.2,0,0.5,0.1,0.5,0.4c0,0.1,0,0.1,0,0.2v1c0,0.2-0.1,0.5-0.4,0.5c-0.1,0-0.1,0-0.2,0H287
	c-4.8,0-6.2-1.7-6.2-4.5v-10.7h-2.1c-0.2,0-0.5-0.1-0.5-0.4c0,0,0-0.1,0-0.1v-0.8c0-0.2,0.1-0.5,0.4-0.5c0,0,0.1,0,0.1,0l1.8-0.1
	h0.3v-3.7c0-0.3,0.1-0.5,0.4-0.5c0,0,0.1,0,0.1,0h1.4c0.2,0,0.5,0.1,0.5,0.4c0,0,0,0.1,0,0.1v3.7L287.1,197.5L287.1,197.5z"/>
<path class="st3" d="M294.6,194.1c0,0.2-0.1,0.5-0.3,0.5c0,0-0.1,0-0.1,0h-1.4c-0.2,0-0.5-0.1-0.5-0.4c0-0.1,0-0.1,0-0.2v-3.2
	c0-0.2,0.1-0.5,0.4-0.5c0.1,0,0.1,0,0.2,0h1.4c0.2,0,0.5,0.1,0.5,0.4c0,0.1,0,0.1,0,0.2V194.1L294.6,194.1z M294.6,214.2
	c0,0.2-0.1,0.5-0.3,0.5c0,0-0.1,0-0.1,0h-1.4c-0.2,0-0.5-0.1-0.5-0.4c0-0.1,0-0.1,0-0.2V198c0-0.2,0.1-0.5,0.4-0.5
	c0.1,0,0.1,0,0.2,0h1.4c0.2,0,0.5,0.1,0.5,0.4c0,0.1,0,0.1,0,0.2V214.2L294.6,214.2z"/>
<path class="st3" d="M312.5,201.7v0.7c0,0.2-0.1,0.5-0.4,0.5c-0.1,0-0.1,0-0.2,0h-1.3c-0.2,0-0.5-0.1-0.5-0.4c0-0.1,0-0.1,0-0.2
	v-0.5c0-1.6-0.9-2.7-4-2.7s-4,1.1-4,2.7v8.5c0,1.6,0.9,2.7,4,2.7s4-1,4-2.7v-0.8c0-0.2,0.1-0.5,0.3-0.5c0.1,0,0.1,0,0.2,0h1.3
	c0.2,0,0.5,0.1,0.5,0.3c0,0.1,0,0.1,0,0.2v0.9c0,2.7-1.6,4.5-6.4,4.5s-6.3-1.8-6.3-4.5v-8.8c0-2.7,1.6-4.5,6.4-4.5
	S312.5,199,312.5,201.7z"/>
<path class="st3" d="M327.7,212.6h9.8c0.2,0,0.4,0.1,0.5,0.3c0,0.1,0,0.1,0,0.2v1.1c0.1,0.2-0.1,0.5-0.3,0.5c-0.1,0-0.1,0-0.2,0
	h-11.9c-0.2,0-0.4-0.2-0.4-0.4c0,0,0-0.1,0-0.1v-22.8c-0.1-0.2,0.1-0.5,0.3-0.5c0.1,0,0.1,0,0.2,0h1.5c0.2,0,0.5,0.1,0.5,0.4
	c0,0.1,0,0.1,0,0.2L327.7,212.6L327.7,212.6z"/>
<path class="st3" d="M341.3,201.7c0-2.7,1.8-4.5,6.6-4.5s6.6,1.8,6.6,4.5v8.8c0,2.7-1.8,4.5-6.6,4.5s-6.6-1.8-6.6-4.5V201.7z
	 M352.1,201.9c0-1.6-1.1-2.7-4.2-2.7s-4.2,1.1-4.2,2.7v8.5c0,1.6,1.1,2.7,4.2,2.7s4.2-1,4.2-2.7V201.9z"/>
<path class="st3" d="M359.4,201.6c0-2.6,1.6-4.4,6.3-4.4s6.3,1.8,6.3,4.4v12.6c0,0.2-0.1,0.5-0.3,0.5c0,0-0.1,0-0.1,0h-1.3
	c-0.3,0-0.5-0.1-0.5-0.4c0,0,0-0.1,0-0.1l-0.1-1.2c-1.6,1.3-3.7,2.1-5.8,2.1c-3.3,0-4.8-1.9-4.8-4.1v-1.8c0-2.3,1.5-4.1,4.5-4.1h6
	v-3.1c0-1.6-0.8-2.7-4-2.7s-4,1.1-4,2.6v0.4c0.1,0.2-0.1,0.5-0.3,0.6c-0.1,0-0.1,0-0.2,0h-1.3c-0.2,0-0.5-0.1-0.5-0.4
	c0-0.1,0-0.1,0-0.2L359.4,201.6L359.4,201.6z M369.6,211v-4.1H364c-1.9,0-2.7,1-2.7,2.5v1.1c0,1.5,1,2.4,3,2.4
	C366.3,212.9,368.1,212.2,369.6,211z"/>
<path class="st3" d="M387.7,212.9c-1.7,1.4-3.8,2.1-6,2.1c-3.4,0-4.9-1.8-4.9-4.5v-8.9c0-2.7,1.5-4.5,4.9-4.5c2.1,0,4.2,0.7,5.9,2.1
	v-8.4c-0.1-0.2,0.1-0.5,0.3-0.5c0.1,0,0.1,0,0.2,0h1.4c0.2,0,0.5,0.1,0.5,0.4c0,0.1,0,0.1,0,0.2v23.4c0,0.2-0.1,0.5-0.4,0.5
	c-0.1,0-0.1,0-0.2,0h-1.3c-0.3,0-0.5-0.1-0.5-0.4c0,0,0-0.1,0-0.1L387.7,212.9z M379.3,210.2c0,1.4,0.8,2.6,3.1,2.6
	c1.9-0.1,3.8-0.8,5.3-2v-9.5c-1.5-1.2-3.4-1.9-5.3-2c-2.2,0-3.1,1.2-3.1,2.6V210.2L379.3,210.2z"/>
<path class="st3" d="M404.4,214.7c-0.2,0-0.5-0.1-0.5-0.4c0,0,0-0.1,0-0.1v-22.8c-0.1-0.2,0.1-0.5,0.3-0.5c0.1,0,0.1,0,0.2,0h6
	c5.8,0,7.6,2.1,7.6,4.9v2.3c0.1,2-1.2,3.7-3.1,4.1c2.8,0.6,4.1,2.2,4.1,4.3v3.1c0,2.8-1.8,5-7.6,5L404.4,214.7L404.4,214.7z
	 M406.4,193v8.5h4.4c3.4,0,4.8-1.4,4.8-3.4v-1.9c0-2.1-1.4-3.2-5.1-3.2H406.4L406.4,193z M406.4,203.5v9.2h5c3.8,0,5.1-1.3,5.1-3.4
	v-2.6c0-1.9-1.4-3.3-5.1-3.3L406.4,203.5L406.4,203.5z"/>
<path class="st3" d="M423.6,201.6c0-2.6,1.6-4.4,6.3-4.4s6.3,1.8,6.3,4.4v12.6c0,0.2-0.1,0.5-0.3,0.5c0,0-0.1,0-0.1,0h-1.3
	c-0.3,0-0.5-0.1-0.5-0.4c0,0,0-0.1,0-0.1l-0.1-1.2c-1.6,1.3-3.7,2.1-5.8,2.1c-3.3,0-4.8-1.9-4.8-4.1v-1.8c0-2.3,1.5-4.1,4.5-4.1h6
	v-3.1c0-1.6-0.8-2.7-4-2.7s-4,1.1-4,2.6v0.4c0.1,0.2-0.1,0.5-0.3,0.6c-0.1,0-0.1,0-0.2,0H424c-0.2,0-0.5-0.1-0.5-0.4
	c0-0.1,0-0.1,0-0.2L423.6,201.6L423.6,201.6z M433.8,211v-4.1h-5.6c-1.9,0-2.7,1-2.7,2.5v1.1c0,1.5,1,2.4,3,2.4
	C430.5,212.9,432.3,212.2,433.8,211z"/>
<path class="st3" d="M443.9,214.2c0,0.2-0.1,0.5-0.3,0.5c0,0-0.1,0-0.1,0H442c-0.2,0-0.5-0.1-0.5-0.4c0-0.1,0-0.1,0-0.2v-23.4
	c0-0.2,0.1-0.5,0.4-0.5c0.1,0,0.1,0,0.2,0h1.4c0.2,0,0.5,0.1,0.5,0.4c0,0.1,0,0.1,0,0.2L443.9,214.2L443.9,214.2z"/>
<path class="st3" d="M449.3,201.6c0-2.6,1.6-4.4,6.3-4.4s6.3,1.8,6.3,4.4v12.6c0,0.2-0.1,0.5-0.3,0.5c0,0-0.1,0-0.1,0h-1.3
	c-0.3,0-0.5-0.1-0.5-0.4c0,0,0-0.1,0-0.1l-0.1-1.2c-1.6,1.3-3.7,2.1-5.8,2.1c-3.3,0-4.8-1.9-4.8-4.1v-1.8c0-2.3,1.5-4.1,4.5-4.1h6
	v-3.1c0-1.6-0.8-2.7-4-2.7s-4,1.1-4,2.6v0.4c0.1,0.2-0.1,0.5-0.3,0.6c-0.1,0-0.1,0-0.2,0h-1.3c-0.2,0-0.5-0.1-0.5-0.4
	c0-0.1,0-0.1,0-0.2L449.3,201.6L449.3,201.6z M459.5,211v-4.1h-5.6c-1.9,0-2.7,1-2.7,2.5v1.1c0,1.5,1,2.4,3,2.4
	C456.2,212.9,458,212.2,459.5,211z"/>
<path class="st3" d="M469.5,198l0.1,1.3c1.7-1.4,3.8-2.2,6-2.1c3.3,0,4.8,1.8,4.8,4.3v12.7c0,0.2-0.1,0.5-0.3,0.5c0,0-0.1,0-0.1,0
	h-1.4c-0.3,0-0.5-0.1-0.5-0.4c0,0,0-0.1,0-0.1V202c0-1.6-0.8-2.7-3.1-2.7c-1.9,0.1-3.8,0.8-5.3,2v12.9c0,0.2-0.1,0.5-0.3,0.5
	c0,0-0.1,0-0.1,0h-1.4c-0.2,0-0.5-0.1-0.5-0.4c0-0.1,0-0.1,0-0.2V198c0-0.2,0.1-0.5,0.4-0.5c0.1,0,0.1,0,0.2,0h1.3
	c0.3,0,0.5,0.2,0.5,0.4C469.5,197.9,469.5,198,469.5,198z"/>
<path class="st3" d="M498,201.7v0.7c0,0.2-0.1,0.5-0.4,0.5c-0.1,0-0.1,0-0.2,0h-1.3c-0.2,0-0.5-0.1-0.5-0.4c0-0.1,0-0.1,0-0.2v-0.5
	c0-1.6-0.9-2.7-4-2.7s-4,1.1-4,2.7v8.5c0,1.6,0.9,2.7,4,2.7s4-1,4-2.7v-0.8c-0.1-0.2,0.1-0.5,0.3-0.5c0.1,0,0.1,0,0.2,0h1.3
	c0.2-0.1,0.5,0.1,0.5,0.3c0,0.1,0,0.1,0,0.2v0.9c0,2.7-1.6,4.5-6.4,4.5s-6.3-1.8-6.3-4.5v-8.8c0-2.7,1.6-4.5,6.4-4.5
	S498,199,498,201.7z"/>
<path class="st3" d="M514.8,206c0,0.2-0.1,0.5-0.4,0.5c0,0-0.1,0-0.1,0h-9.9v3.9c0,1.6,0.8,2.7,4.1,2.7s4.1-1.1,4.1-2.7v-0.6
	c0-0.2,0.1-0.4,0.3-0.5c0.1,0,0.1,0,0.2,0h1.3c0.2,0,0.5,0.1,0.5,0.3c0,0,0,0.1,0,0.1v0.7c0,2.7-1.6,4.5-6.4,4.5s-6.4-1.8-6.4-4.5
	v-8.8c0-2.7,1.6-4.5,6.4-4.5c4.8,0,6.3,1.8,6.3,4.5L514.8,206L514.8,206z M504.4,204.6h8.1v-2.8c0-1.6-1-2.7-4.1-2.7
	s-4.1,1.1-4.1,2.7L504.4,204.6L504.4,204.6z"/>
<path class="st3" d="M528.4,197.7v1.2c0,0.3-0.2,0.5-0.5,0.5c0,0-0.1,0-0.1,0c-2.1,0.2-4.1,1-5.7,2.4v12.5c0,0.2-0.1,0.5-0.3,0.5
	c0,0-0.1,0-0.1,0h-1.4c-0.2,0-0.5-0.1-0.5-0.4c0-0.1,0-0.1,0-0.2V198c0-0.2,0.1-0.5,0.4-0.5c0.1,0,0.1,0,0.2,0h1.3
	c0.3,0,0.5,0.1,0.5,0.4c0,0,0,0.1,0,0.1l0.1,1.7c1.5-1.5,3.6-2.4,5.7-2.5C528.1,197.2,528.3,197.3,528.4,197.7
	C528.4,197.6,528.4,197.7,528.4,197.7z"/>
<path class="st3" d="M227,311.1c-3.7,0-4.8,1.3-4.8,3.3v1c0,1.3,0.8,2.4,2,2.7l6.6,2.5c1.9,0.7,3.6,2.1,3.6,4.5v3
	c0,2.8-1.8,5.1-7.5,5.1s-7.5-2.3-7.5-5.1v-1.9c-0.1-0.2,0.1-0.5,0.3-0.5c0.1,0,0.1,0,0.2,0h1.4c0.2,0,0.5,0.1,0.5,0.4
	c0,0.1,0,0.1,0,0.2v1.7c0,2,1.3,3.3,5,3.3s5.2-1.3,5.2-3.3v-2.2c0-1.8-1.5-2.6-2.9-3.1l-6.3-2.4c-1.8-0.7-3-2.3-3-4.2v-2
	c0-2.8,1.6-5.1,7.2-5.1s7.3,2.3,7.3,5.1v1.6c0,0.2-0.1,0.5-0.4,0.5c-0.1,0-0.1,0-0.2,0h-1.4c-0.2,0-0.5-0.1-0.5-0.4c0,0,0-0.1,0-0.1
	v-1.3C231.8,312.4,230.7,311.1,227,311.1z"/>
<path class="st3" d="M251.9,324.4c0,0.2-0.1,0.5-0.4,0.5c0,0-0.1,0-0.1,0h-9.9v3.9c0,1.6,0.8,2.7,4.1,2.7s4.1-1.1,4.1-2.7v-0.6
	c0-0.2,0.1-0.4,0.3-0.5c0.1,0,0.1,0,0.2,0h1.3c0.2-0.1,0.5,0.1,0.5,0.3c0,0.1,0,0.1,0,0.2v0.7c0,2.7-1.6,4.5-6.4,4.5
	s-6.4-1.8-6.4-4.5v-8.8c0-2.7,1.6-4.5,6.4-4.5s6.3,1.8,6.3,4.5L251.9,324.4L251.9,324.4z M241.5,323h8.1v-2.8c0-1.6-1-2.7-4.1-2.7
	s-4.1,1.1-4.1,2.7V323z"/>
<path class="st3" d="M269.1,320.1v0.7c0,0.2-0.1,0.5-0.4,0.5c-0.1,0-0.1,0-0.2,0h-1.3c-0.2,0-0.5-0.1-0.5-0.4c0-0.1,0-0.1,0-0.2
	v-0.5c0-1.6-0.9-2.7-4-2.7s-4,1-4,2.7v8.5c0,1.6,0.9,2.7,4,2.7s4-1,4-2.7v-0.8c0-0.2,0.1-0.5,0.3-0.5c0.1,0,0.1,0,0.2,0h1.3
	c0.2,0,0.5,0.1,0.5,0.3c0,0.1,0,0.1,0,0.2v1c0,2.7-1.6,4.5-6.4,4.5s-6.3-1.8-6.3-4.5v-8.8c0-2.7,1.6-4.5,6.4-4.5
	S269.1,317.4,269.1,320.1z"/>
<path class="st3" d="M283.9,331.3c-1.6,1.4-3.6,2.1-5.7,2.1c-3.3,0-4.9-1.8-4.9-4.3v-12.8c-0.1-0.2,0.1-0.5,0.3-0.5
	c0.1,0,0.1,0,0.2,0h1.4c0.2,0,0.5,0.1,0.5,0.4c0,0.1,0,0.1,0,0.2v12.2c0,1.6,0.9,2.7,3.1,2.7c1.8,0,3.6-0.7,5-1.9v-13
	c-0.1-0.2,0.1-0.5,0.3-0.5c0.1,0,0.1,0,0.2,0h1.4c0.2,0,0.5,0.1,0.5,0.4c0,0.1,0,0.1,0,0.2v16.2c0.1,0.2-0.1,0.5-0.3,0.5
	c-0.1,0-0.1,0-0.2,0h-1.3c-0.2,0-0.5-0.1-0.5-0.4c0-0.1,0-0.1,0-0.2L283.9,331.3z"/>
<path class="st3" d="M300.5,316.1v1.2c0,0.3-0.2,0.5-0.5,0.5c0,0-0.1,0-0.1,0c-2.1,0.2-4.1,1-5.7,2.4v12.5c0,0.2-0.1,0.5-0.3,0.5
	c0,0-0.1,0-0.1,0h-1.4c-0.2,0-0.5-0.1-0.5-0.4c0-0.1,0-0.1,0-0.2v-16.2c0-0.2,0.1-0.5,0.4-0.5c0.1,0,0.1,0,0.2,0h1.3
	c0.3,0,0.5,0.1,0.5,0.4c0,0.1,0,0.1,0,0.2l0.1,1.7c1.5-1.5,3.6-2.4,5.7-2.5c0.3,0,0.5,0.1,0.6,0.4C300.5,316,300.5,316,300.5,316.1z
	"/>
<path class="st3" d="M306.3,312.4c0,0.2-0.1,0.5-0.3,0.5c0,0-0.1,0-0.1,0h-1.4c-0.2,0-0.5-0.1-0.5-0.4c0-0.1,0-0.1,0-0.2v-3.3
	c0-0.2,0.1-0.5,0.4-0.5c0.1,0,0.1,0,0.2,0h1.4c0.2,0,0.5,0.1,0.5,0.4c0,0.1,0,0.1,0,0.2V312.4z M306.3,332.6c0,0.2-0.1,0.5-0.3,0.5
	c0,0-0.1,0-0.1,0h-1.4c-0.2,0-0.5-0.1-0.5-0.4c0-0.1,0-0.1,0-0.2v-16.2c0-0.2,0.1-0.5,0.4-0.5c0.1,0,0.1,0,0.2,0h1.4
	c0.2,0,0.5,0.1,0.5,0.4c0,0.1,0,0.1,0,0.2V332.6z"/>
<path class="st3" d="M319,315.9c0.2,0,0.5,0.1,0.5,0.3c0,0,0,0.1,0,0.1v1c0,0.3-0.1,0.5-0.4,0.5c0,0-0.1,0-0.1,0h-3.9v10.5
	c0,1.6,0.9,2.7,4.1,2.7h0.6c0.2,0,0.5,0.1,0.5,0.4c0,0.1,0,0.1,0,0.2v1c0,0.2-0.1,0.5-0.4,0.5c-0.1,0-0.1,0-0.2,0h-0.9
	c-4.8,0-6.2-1.7-6.2-4.5v-10.7h-2.1c-0.2,0-0.5-0.1-0.5-0.4c0,0,0-0.1,0-0.1v-0.8c0-0.2,0.1-0.5,0.4-0.5c0,0,0.1,0,0.1,0l1.8-0.1
	h0.3v-3.7c0-0.3,0.1-0.5,0.4-0.5c0,0,0.1,0,0.1,0h1.4c0.2,0,0.5,0.1,0.5,0.4c0,0,0,0.1,0,0.1v3.7L319,315.9L319,315.9z"/>
<path class="st3" d="M328.3,328c0.2,0.7,0.4,1.4,0.5,2.1c0-0.1,0.3-1.3,0.6-2l4-11.7c0-0.3,0.3-0.5,0.6-0.5h1.3
	c0.4,0,0.6,0.2,0.5,0.5l-8,23.5c0,0.3-0.3,0.5-0.6,0.5h-1.1c-0.2,0-0.4-0.1-0.4-0.3c0-0.1,0-0.2,0-0.2l2.1-6.6l-5.9-16.9
	c-0.1-0.2,0-0.4,0.2-0.5c0.1,0,0.1,0,0.2,0h1.4c0.3,0,0.6,0.2,0.6,0.5L328.3,328z"/>
<path class="st3" d="M346.6,328.9V320c0-2.7,1.5-4.5,4.9-4.5c2.2,0,4.3,0.7,6,2.1l0.1-1.3c0-0.3,0.1-0.5,0.4-0.5c0,0,0.1,0,0.1,0
	h1.3c0.2,0,0.5,0.1,0.5,0.4c0,0.1,0,0.1,0,0.2v19.5c0,2.7-1.8,4.5-6.5,4.5h-4.8c-0.2,0.1-0.5-0.1-0.5-0.3c0-0.1,0-0.1,0-0.2v-1
	c0-0.2,0.1-0.5,0.4-0.5c0.1,0,0.1,0,0.2,0h4.8c3.1,0,4.1-1.1,4.1-2.7v-4.2c-1.7,1.3-3.8,2-5.9,2
	C348.1,333.4,346.6,331.6,346.6,328.9z M349,328.6c0,1.4,0.8,2.6,3.1,2.6c1.9-0.1,3.8-0.8,5.3-2v-9.5c-1.5-1.2-3.4-1.9-5.3-2
	c-2.2,0-3.1,1.2-3.1,2.6V328.6L349,328.6z"/>
<path class="st3" d="M374,316.1v1.2c0,0.3-0.2,0.5-0.5,0.5c0,0-0.1,0-0.1,0c-2.1,0.2-4.1,1-5.7,2.4v12.5c0,0.2-0.1,0.5-0.3,0.5
	c0,0-0.1,0-0.1,0h-1.4c-0.2,0-0.5-0.1-0.5-0.4c0-0.1,0-0.1,0-0.2v-16.2c0-0.2,0.1-0.5,0.4-0.5c0.1,0,0.1,0,0.2,0h1.3
	c0.3,0,0.5,0.1,0.5,0.4c0,0,0,0.1,0,0.1l0.1,1.7c1.5-1.5,3.6-2.4,5.7-2.5c0.3,0,0.5,0.1,0.6,0.4C374,316,374,316,374,316.1z"/>
<path class="st3" d="M377,320.1c0-2.7,1.8-4.5,6.6-4.5s6.6,1.8,6.6,4.5v8.8c0,2.7-1.8,4.5-6.6,4.5s-6.6-1.8-6.6-4.5V320.1z
	 M387.8,320.2c0-1.6-1.1-2.7-4.2-2.7s-4.2,1-4.2,2.7v8.5c0,1.6,1.1,2.7,4.2,2.7s4.2-1,4.2-2.7V320.2z"/>
<path class="st3" d="M405.8,331.3c-1.6,1.4-3.6,2.1-5.8,2.1c-3.3,0-4.9-1.8-4.9-4.3v-12.8c-0.1-0.2,0.1-0.5,0.3-0.5
	c0.1,0,0.1,0,0.2,0h1.4c0.2,0,0.5,0.1,0.5,0.4c0,0.1,0,0.1,0,0.2v12.2c0,1.6,0.9,2.7,3.1,2.7c1.8,0,3.6-0.7,5-1.9v-13
	c-0.1-0.2,0.1-0.5,0.3-0.5c0.1,0,0.1,0,0.2,0h1.4c0.2,0,0.5,0.1,0.5,0.4c0,0.1,0,0.1,0,0.2v16.2c0.1,0.2-0.1,0.5-0.3,0.5
	c-0.1,0-0.1,0-0.2,0h-1.3c-0.2,0-0.5-0.1-0.5-0.4c0-0.1,0-0.1,0-0.2L405.8,331.3z"/>
<path class="st3" d="M416,316.4l0.1,1.3c1.7-1.4,3.8-2.2,6-2.1c3.3,0,4.8,1.8,4.8,4.5v8.9c0,2.7-1.5,4.5-4.8,4.5c-2.2,0-4.3-0.7-6-2
	v8.5c0,0.2-0.1,0.4-0.3,0.5c-0.1,0-0.1,0-0.2,0h-1.4c-0.2,0.1-0.5-0.1-0.5-0.3c0-0.1,0-0.1,0-0.2v-23.5c0-0.2,0.1-0.5,0.4-0.5
	c0.1,0,0.1,0,0.2,0h1.3c0.2-0.1,0.5,0.1,0.6,0.3C416,316.2,416,316.3,416,316.4z M424.5,320.4c0-1.4-0.8-2.6-3.1-2.6
	c-1.9,0-3.8,0.8-5.3,2v9.5c1.5,1.2,3.4,1.9,5.3,2c2.3,0,3.1-1.2,3.1-2.6V320.4L424.5,320.4z"/>
<path class="st3" d="M222.6,435v9.2c0.1,0.2-0.1,0.5-0.3,0.5c-0.1,0-0.1,0-0.2,0h-1.5c-0.2,0-0.5-0.1-0.5-0.4c0-0.1,0-0.1,0-0.2
	v-22.7c-0.1-0.2,0.1-0.5,0.3-0.5c0,0,0.1,0,0.1,0h6.9c5.8,0,7.6,2.3,7.6,5.1v3.9c0,2.2-1.1,4.1-4.3,4.8l4.6,9.5
	c0.1,0.3-0.1,0.5-0.5,0.5h-1.5c-0.3,0-0.6-0.2-0.6-0.5l-4.3-9.2H222.6z M222.6,423v9.9h4.9c3.8,0,5.1-1.3,5.1-3.4v-3.1
	c0-2-1.4-3.4-5.1-3.4L222.6,423L222.6,423z"/>
<path class="st3" d="M241.3,444.7c-0.3,0-0.4-0.2-0.4-0.5v-22.8c-0.1-0.2,0.1-0.5,0.3-0.5c0,0,0.1,0,0.1,0h7.1
	c5.8,0,7.6,2.3,7.6,5.1v13.6c0,2.8-1.8,5.1-7.6,5.1L241.3,444.7L241.3,444.7z M243.3,423v19.5h5.1c3.8,0,5.1-1.3,5.1-3.4v-12.8
	c0-2-1.4-3.4-5.1-3.4L243.3,423L243.3,423z"/>
<path class="st3" d="M268.8,422.7c-3.7,0-4.8,1.3-4.8,3.3v1c0,1.3,0.8,2.4,2,2.7l6.6,2.5c1.9,0.7,3.6,2.1,3.6,4.5v3
	c0,2.8-1.8,5.1-7.5,5.1s-7.5-2.3-7.5-5.1V438c-0.1-0.2,0.1-0.5,0.3-0.5c0.1,0,0.1,0,0.2,0h1.4c0.2,0,0.5,0.1,0.5,0.4
	c0,0.1,0,0.1,0,0.2v1.6c0,2,1.3,3.3,5,3.3s5.1-1.3,5.1-3.3v-2.2c0-1.8-1.5-2.6-2.9-3.1l-6.3-2.4c-1.8-0.7-3-2.3-3-4.2v-2
	c0-2.8,1.6-5.1,7.2-5.1s7.3,2.3,7.3,5.1v1.6c0,0.2-0.1,0.5-0.4,0.5c-0.1,0-0.1,0-0.2,0H274c-0.2,0-0.5-0.1-0.5-0.4
	c0-0.1,0-0.1,0-0.2V426C273.6,424,272.4,422.7,268.8,422.7z"/>
<path class="st3" d="M289.9,444.7c-0.3,0-0.4-0.2-0.4-0.5v-22.8c-0.1-0.2,0.1-0.5,0.3-0.5c0,0,0.1,0,0.1,0h7c5.8,0,7.6,2.3,7.6,5.1
	v13.6c0,2.8-1.8,5.1-7.6,5.1L289.9,444.7L289.9,444.7z M292,423v19.5h5c3.8,0,5.1-1.3,5.1-3.4v-12.8c0-2-1.4-3.4-5.1-3.4L292,423
	L292,423z"/>
<path class="st3" d="M309.9,431.6c0-2.6,1.6-4.5,6.3-4.5s6.3,1.8,6.3,4.5v12.6c0.1,0.2-0.1,0.5-0.3,0.5c-0.1,0-0.1,0-0.2,0h-1.3
	c-0.3,0-0.5-0.1-0.5-0.4c0-0.1,0-0.1,0-0.2l-0.1-1.3c-1.6,1.3-3.7,2.1-5.8,2.1c-3.2,0-4.8-1.9-4.8-4.1v-1.8c0-2.3,1.5-4.1,4.5-4.1h6
	v-3.1c0-1.6-0.8-2.7-4-2.7s-4,1-4,2.6v0.4c0.1,0.2-0.1,0.5-0.3,0.6c-0.1,0-0.1,0-0.2,0h-1.3c-0.2,0-0.5-0.1-0.5-0.4
	c0-0.1,0-0.1,0-0.2L309.9,431.6L309.9,431.6z M320.1,441v-4.1h-5.6c-1.9,0-2.7,1-2.7,2.5v1.1c0,1.5,0.9,2.4,3,2.4
	C316.8,442.9,318.7,442.2,320.1,441z"/>
<path class="st3" d="M335,427.5c0.2-0.1,0.5,0.1,0.5,0.3c0,0.1,0,0.1,0,0.2v1c0,0.3-0.1,0.5-0.4,0.5c-0.1,0-0.1,0-0.2,0h-4V440
	c0,1.6,1,2.7,4.1,2.7h0.6c0.2,0,0.5,0.1,0.5,0.4c0,0.1,0,0.1,0,0.2v1c0,0.2-0.1,0.5-0.4,0.5c-0.1,0-0.1,0-0.2,0h-0.9
	c-4.8,0-6.2-1.7-6.2-4.5v-10.8h-2.1c-0.2,0-0.4-0.2-0.4-0.4c0,0,0,0,0-0.1v-0.8c0-0.2,0.1-0.5,0.4-0.5c0,0,0.1,0,0.1,0l1.8-0.1h0.3
	v-3.7c0-0.3,0.1-0.5,0.4-0.5c0,0,0.1,0,0.1,0h1.4c0.2,0,0.5,0.1,0.5,0.4c0,0,0,0.1,0,0.1v3.7L335,427.5L335,427.5z"/>
<path class="st3" d="M339.7,431.6c0-2.6,1.6-4.5,6.3-4.5s6.3,1.8,6.3,4.5v12.6c0.1,0.2-0.1,0.5-0.3,0.5c-0.1,0-0.1,0-0.2,0h-1.3
	c-0.3,0-0.5-0.1-0.5-0.4c0,0,0-0.1,0-0.1l-0.1-1.3c-1.6,1.3-3.7,2.1-5.8,2.1c-3.3,0-4.8-1.9-4.8-4.1v-1.8c0-2.3,1.5-4.1,4.5-4.1h6
	v-3.1c0-1.6-0.8-2.7-4-2.7s-4,1-4,2.6v0.4c0.1,0.2-0.1,0.5-0.3,0.6c-0.1,0-0.1,0-0.2,0h-1.3c-0.2,0-0.5-0.1-0.5-0.4
	c0-0.1,0-0.1,0-0.2L339.7,431.6L339.7,431.6z M350,441v-4.1h-5.6c-1.9,0-2.7,1-2.7,2.5v1.1c0,1.5,1,2.4,3,2.4
	C346.7,442.9,348.5,442.2,350,441z"/>
<path class="st3" d="M358.2,444.7c-0.2,0-0.5-0.1-0.5-0.4c0-0.1,0-0.1,0-0.2v-23.4c0-0.2,0.1-0.5,0.4-0.5c0.1,0,0.1,0,0.2,0h1.4
	c0.2,0,0.5,0.1,0.5,0.4c0,0.1,0,0.1,0,0.2v8.4c1.7-1.4,3.8-2.1,6-2.1c3.3,0,4.8,1.8,4.8,4.5v8.9c0,2.7-1.5,4.5-4.8,4.5
	c-2.2,0-4.3-0.7-6-2.1l-0.1,1.3c0,0.3-0.1,0.5-0.4,0.5c0,0-0.1,0-0.1,0H358.2L358.2,444.7z M368.4,432c0-1.4-0.8-2.6-3.1-2.6
	c-1.9,0-3.8,0.8-5.3,2v9.5c1.5,1.2,3.4,1.9,5.3,2c2.3,0,3.1-1.2,3.1-2.6V432z"/>
<path class="st3" d="M375.8,431.6c0-2.6,1.6-4.5,6.3-4.5s6.3,1.8,6.3,4.5v12.6c0.1,0.2-0.1,0.5-0.3,0.5c-0.1,0-0.1,0-0.2,0h-1.3
	c-0.3,0-0.5-0.1-0.5-0.4c0,0,0-0.1,0-0.1l-0.1-1.3c-1.6,1.3-3.7,2.1-5.8,2.1c-3.3,0-4.8-1.9-4.8-4.1v-1.8c0-2.3,1.5-4.1,4.5-4.1h6
	v-3.1c0-1.6-0.8-2.7-4-2.7s-4,1-4,2.6v0.4c0.1,0.2-0.1,0.5-0.3,0.6c-0.1,0-0.1,0-0.2,0h-1.3c-0.2,0-0.5-0.1-0.5-0.4
	c0-0.1,0-0.1,0-0.2v-0.6L375.8,431.6z M386,441v-4.1h-5.6c-1.9,0-2.7,1-2.7,2.5v1.1c0,1.5,1,2.4,3,2.4
	C382.7,442.9,384.5,442.2,386,441z"/>
<path class="st3" d="M403.1,431.1c0-1.4-1.3-2.2-3.9-2.2s-3.8,0.8-3.8,2.2v0.9c0.1,1,0.8,1.7,1.8,1.9l5.4,1.8c1.8,0.6,3,1.7,3,3.3v2
	c0,2.1-1.9,4-6.4,4s-6.3-1.9-6.3-4v-0.9c0-0.2,0.1-0.5,0.4-0.5c0,0,0.1,0,0.1,0h1.3c0.2,0,0.4,0.1,0.5,0.3c0,0.1,0,0.1,0,0.2v0.8
	c0,1.4,1.4,2.2,4.1,2.2s4.1-0.8,4.1-2.2v-1.3c0-1-0.9-1.6-2.1-2l-5.4-1.8c-1.5-0.5-2.6-1.8-2.7-3.4v-1.4c0-2.1,1.6-4,6.1-4
	s6.1,1.9,6.1,4v1c0,0.2-0.1,0.4-0.3,0.5c0,0-0.1,0-0.1,0h-1.3c-0.2,0-0.4-0.1-0.5-0.3c0-0.1,0-0.1,0-0.2L403.1,431.1L403.1,431.1z"
	/>
<path class="st3" d="M422.3,436c0,0.2-0.1,0.5-0.4,0.5c0,0-0.1,0-0.1,0h-9.9v3.9c0,1.6,0.8,2.7,4.1,2.7s4.1-1.1,4.1-2.7v-0.6
	c0-0.2,0.1-0.4,0.3-0.5c0.1,0,0.1,0,0.2,0h1.3c0.2,0,0.5,0.1,0.5,0.3c0,0,0,0.1,0,0.1v0.7c0,2.7-1.6,4.5-6.4,4.5s-6.4-1.8-6.4-4.5
	v-8.8c0-2.7,1.6-4.5,6.4-4.5s6.3,1.8,6.3,4.5L422.3,436L422.3,436z M411.9,434.6h8.1v-2.8c0-1.6-1-2.7-4.1-2.7s-4.1,1.1-4.1,2.7
	V434.6z"/>
<circle class="st4" cx="481" cy="89.2" r="33.5"/>
<text transform="matrix(1 0 0 1 472.46 99.12)" class="st5 st6 st7">3</text>
<polyline class="st8" points="479.5,490 278.3,490 278.3,528 "/>
<line class="st8" x1="480.4" y1="178" x2="480.4" y2="114.2"/>
<line class="st8" x1="480.4" y1="232.7" x2="479.5" y2="490"/>
</svg>
