<?xml version="1.0" encoding="utf-8"?>
<!-- Generator: Adobe Illustrator 19.1.0, SVG Export Plug-In . SVG Version: 6.00 Build 0)  -->
<svg version="1.1" id="Layer_2" xmlns="http://www.w3.org/2000/svg" xmlns:xlink="http://www.w3.org/1999/xlink" x="0px" y="0px"
	 viewBox="165 -90 650 500" style="enable-background:new 165 -90 650 500;" xml:space="preserve">
<style type="text/css">
	.st0{display:none;}
	.st1{display:inline;fill:none;stroke:#BDBDBD;stroke-width:3;stroke-linecap:round;stroke-miterlimit:10;}
	.st2{fill:#5D89FB;}
	.st3{fill:#626262;}
	.st4{fill:#7CB342;}
	.st5{fill-rule:evenodd;clip-rule:evenodd;fill:#5D89FB;}
</style>
<title>illust_browsers</title>
<g id="sparkles" class="st0">
	<line class="st1" x1="601" y1="-191" x2="601" y2="-167"/>
	<line class="st1" x1="589" y1="-179" x2="613" y2="-179"/>
	<line class="st1" x1="531.3" y1="-44" x2="531.3" y2="-20"/>
	<line class="st1" x1="519.3" y1="-32" x2="543.3" y2="-32"/>
	<circle class="st1" cx="566" cy="-154.1" r="7.7"/>
	<line class="st1" x1="1028.9" y1="14.8" x2="1028.9" y2="38.8"/>
	<line class="st1" x1="1016.9" y1="26.8" x2="1040.9" y2="26.8"/>
	<circle class="st1" cx="984.7" cy="-198.9" r="7.7"/>
</g>
<g>
	<path class="st2" d="M413,48.7c0-2.9,1.9-5.3,7.8-5.3c6,0,7.8,2.4,7.8,5.3v14.5c0,2.9-1.8,5.3-7.8,5.3c-5.9,0-7.8-2.4-7.8-5.3V48.7
		z M426,49c0-2.1-1.4-3.5-5.3-3.5c-3.8,0-5.2,1.4-5.2,3.5v13.8c0,2.1,1.4,3.5,5.2,3.5c3.8,0,5.3-1.4,5.3-3.5V49z"/>
	<path class="st2" d="M436.7,50.9l0.1,1.4c1-0.8,3.1-2.2,6.2-2.2c3.4,0,5,1.9,5,4.6v9.1c0,2.7-1.5,4.6-5,4.6c-3,0-5.1-1.3-6.1-2.1
		v8.7c0,0.4-0.1,0.5-0.5,0.5h-1.4c-0.4,0-0.5-0.1-0.5-0.5V50.9c0-0.4,0.1-0.5,0.5-0.5h1.3C436.5,50.4,436.6,50.6,436.7,50.9z
		 M445.4,55.1c0-1.5-0.8-2.7-3.2-2.7c-2.7,0-4.6,1.4-5.4,2.1v9.8c0.8,0.6,2.7,2,5.4,2c2.3,0,3.2-1.2,3.2-2.7V55.1z"/>
	<path class="st2" d="M462.8,54.2c0-1.4-1.3-2.2-4-2.2c-2.7,0-3.9,0.8-3.9,2.2v0.9c0,1.1,1,1.7,1.8,2l5.5,1.8
		c1.8,0.6,3.1,1.7,3.1,3.4v2.1c0,2.2-1.9,4.1-6.6,4.1c-4.6,0-6.5-1.9-6.5-4.1v-1c0-0.3,0.1-0.5,0.5-0.5h1.3c0.4,0,0.5,0.2,0.5,0.5
		v0.9c0,1.4,1.4,2.3,4.2,2.3c2.7,0,4.2-0.8,4.2-2.3v-1.3c0-1.1-0.9-1.6-2.1-2l-5.5-1.8c-1.3-0.4-2.8-1.7-2.8-3.5v-1.4
		c0-2.2,1.6-4.1,6.2-4.1c4.6,0,6.3,1.9,6.3,4.1v1c0,0.3-0.1,0.5-0.5,0.5h-1.3c-0.3,0-0.5-0.1-0.5-0.5V54.2z"/>
	<path class="st2" d="M482.6,59.2c0,0.3-0.1,0.5-0.5,0.5h-10.2v4c0,1.7,0.9,2.8,4.2,2.8s4.2-1.1,4.2-2.8v-0.6c0-0.4,0.1-0.5,0.5-0.5
		h1.3c0.4,0,0.5,0.1,0.5,0.5v0.8c0,2.8-1.6,4.6-6.6,4.6c-4.9,0-6.6-1.9-6.6-4.6v-9.1c0-2.8,1.7-4.6,6.6-4.6c4.9,0,6.5,1.9,6.5,4.6
		V59.2z M471.9,57.8h8.4v-2.9c0-1.6-1-2.8-4.2-2.8c-3.2,0-4.2,1.2-4.2,2.8V57.8z"/>
	<path class="st2" d="M500.3,59.2c0,0.3-0.1,0.5-0.5,0.5h-10.2v4c0,1.7,0.9,2.8,4.2,2.8s4.2-1.1,4.2-2.8v-0.6c0-0.4,0.1-0.5,0.5-0.5
		h1.3c0.4,0,0.5,0.1,0.5,0.5v0.8c0,2.8-1.6,4.6-6.6,4.6c-4.9,0-6.6-1.9-6.6-4.6v-9.1c0-2.8,1.7-4.6,6.6-4.6c4.9,0,6.5,1.9,6.5,4.6
		V59.2z M489.6,57.8h8.4v-2.9c0-1.6-1-2.8-4.2-2.8c-3.2,0-4.2,1.2-4.2,2.8V57.8z"/>
	<path class="st2" d="M514.3,68.2c-0.3,0-0.5-0.2-0.5-0.5V44.2c0-0.4,0.1-0.5,0.5-0.5h12.3c0.4,0,0.5,0.1,0.5,0.5v1.1
		c0,0.4-0.2,0.5-0.5,0.5h-10.3v8.4h9.6c0.4,0,0.5,0.1,0.5,0.5v1c0,0.4-0.1,0.5-0.5,0.5h-9.6V66H527c0.4,0,0.5,0.1,0.5,0.5v1.2
		c0,0.4-0.2,0.5-0.5,0.5H514.3z"/>
	<path class="st2" d="M547.4,63.2c0,2.9-1.7,5.3-7.6,5.3s-7.6-2.4-7.6-5.3V48.7c0-2.9,1.7-5.3,7.6-5.3s7.6,2.4,7.6,5.3v1.8
		c0,0.4-0.1,0.6-0.5,0.6h-1.4c-0.4,0-0.5-0.2-0.5-0.6V49c0-2.1-1.3-3.5-5.1-3.5s-5.1,1.4-5.1,3.5v13.8c0,2.1,1.3,3.5,5.1,3.5
		s5.1-1.4,5.1-3.5v-1.9c0-0.4,0.1-0.5,0.5-0.5h1.4c0.4,0,0.5,0.2,0.5,0.5V63.2z"/>
	<path class="st2" d="M566.1,66c0.4,0,0.5,0.1,0.5,0.5v1.2c0,0.4-0.2,0.5-0.5,0.5h-13.4c-0.4,0-0.5-0.1-0.5-0.5v-6.9
		c0-2.2,2-2.9,3-3.2l6.7-2.2c0.7-0.2,2.1-0.9,2.1-2.5V49c0-2.1-1-3.5-4.8-3.5c-3.7,0-4.8,1.4-4.8,3.5v1.7c0,0.4-0.1,0.6-0.5,0.6
		h-1.4c-0.4,0-0.5-0.2-0.5-0.6v-2.1c0-2.9,1.5-5.3,7.3-5.3c5.8,0,7.4,2.4,7.4,5.3v4c0,2.9-2.1,4.1-3.2,4.4l-6.1,1.9
		c-0.9,0.3-2.4,0.8-2.4,2.4V66H566.1z"/>
	<path class="st2" d="M430.5,107.6c0,0.4-0.1,0.5-0.5,0.5h-1.5c-0.4,0-0.5-0.2-0.5-0.5V84.2c0-0.4,0.1-0.5,0.5-0.5h1.5
		c0.4,0,0.5,0.2,0.5,0.5V107.6z"/>
	<path class="st2" d="M439,90.9l0.1,1.4c1-0.9,3.1-2.2,6.2-2.2c3.3,0,5,1.9,5,4.4v13.1c0,0.4-0.1,0.5-0.5,0.5h-1.4
		c-0.4,0-0.5-0.2-0.5-0.5V95.1c0-1.6-0.9-2.7-3.2-2.7c-2.7,0-4.6,1.4-5.4,2v13.3c0,0.4-0.1,0.5-0.5,0.5h-1.4c-0.4,0-0.5-0.2-0.5-0.5
		V90.9c0-0.4,0.1-0.5,0.5-0.5h1.3C438.9,90.4,439,90.6,439,90.9z"/>
	<path class="st2" d="M465.3,94.2c0-1.4-1.3-2.2-4-2.2c-2.7,0-3.9,0.8-3.9,2.2v0.9c0,1.1,1,1.7,1.8,2l5.5,1.8
		c1.8,0.6,3.1,1.7,3.1,3.4v2.1c0,2.2-1.9,4.1-6.6,4.1c-4.6,0-6.5-1.9-6.5-4.1v-1c0-0.3,0.1-0.5,0.5-0.5h1.3c0.4,0,0.5,0.2,0.5,0.5
		v0.9c0,1.4,1.4,2.3,4.2,2.3c2.7,0,4.2-0.8,4.2-2.3v-1.3c0-1.1-0.9-1.6-2.1-2l-5.5-1.8c-1.3-0.4-2.8-1.7-2.8-3.5v-1.4
		c0-2.2,1.6-4.1,6.2-4.1c4.6,0,6.3,1.9,6.3,4.1v1c0,0.3-0.1,0.5-0.5,0.5h-1.3c-0.3,0-0.5-0.1-0.5-0.5V94.2z"/>
	<path class="st2" d="M479.7,90.5c0.4,0,0.5,0.1,0.5,0.5v1c0,0.4-0.2,0.5-0.5,0.5h-4v10.8c0,1.7,1,2.8,4.2,2.8h0.6
		c0.4,0,0.5,0.1,0.5,0.5v1c0,0.4-0.2,0.5-0.5,0.5h-0.9c-4.9,0-6.4-1.7-6.4-4.6v-11H471c-0.4,0-0.5-0.2-0.5-0.5v-0.9
		c0-0.4,0.1-0.5,0.5-0.5l1.9-0.1h0.3v-3.8c0-0.4,0.2-0.5,0.5-0.5h1.5c0.4,0,0.5,0.2,0.5,0.5v3.8H479.7z"/>
	<path class="st2" d="M484.6,94.7c0-2.7,1.6-4.6,6.5-4.6c4.9,0,6.5,1.9,6.5,4.6v13c0,0.4-0.1,0.5-0.5,0.5h-1.3
		c-0.4,0-0.5-0.2-0.5-0.5l-0.1-1.3c-1,0.8-3.1,2.1-5.9,2.1c-3.3,0-5-1.9-5-4.2v-1.8c0-2.3,1.5-4.2,4.7-4.2h6.2v-3.2
		c0-1.6-0.9-2.8-4.1-2.8c-3.2,0-4.1,1.1-4.1,2.7v0.4c0,0.4-0.1,0.6-0.5,0.6h-1.3c-0.4,0-0.5-0.2-0.5-0.6V94.7z M495.2,104.3v-4.2
		h-5.7c-1.9,0-2.7,1-2.7,2.6v1.2c0,1.6,1,2.5,3.1,2.5C492.4,106.4,494.3,105,495.2,104.3z"/>
	<path class="st2" d="M505.5,90.9l0.1,1.4c1-0.9,3.1-2.2,6.2-2.2c3.3,0,5,1.9,5,4.4v13.1c0,0.4-0.1,0.5-0.5,0.5h-1.4
		c-0.4,0-0.5-0.2-0.5-0.5V95.1c0-1.6-0.9-2.7-3.2-2.7c-2.7,0-4.6,1.4-5.4,2v13.3c0,0.4-0.1,0.5-0.5,0.5h-1.4c-0.4,0-0.5-0.2-0.5-0.5
		V90.9c0-0.4,0.1-0.5,0.5-0.5h1.3C505.3,90.4,505.4,90.6,505.5,90.9z"/>
	<path class="st2" d="M534.8,94.7v0.7c0,0.4-0.1,0.5-0.5,0.5H533c-0.4,0-0.5-0.2-0.5-0.5v-0.5c0-1.7-0.9-2.7-4.1-2.7
		c-3.2,0-4.1,1.1-4.1,2.7v8.7c0,1.7,0.9,2.8,4.1,2.8c3.2,0,4.1-1.1,4.1-2.8v-0.8c0-0.4,0.1-0.5,0.5-0.5h1.3c0.4,0,0.5,0.1,0.5,0.5v1
		c0,2.8-1.7,4.6-6.6,4.6s-6.5-1.9-6.5-4.6v-9.1c0-2.8,1.6-4.6,6.6-4.6S534.8,92,534.8,94.7z"/>
	<path class="st2" d="M552.1,99.2c0,0.3-0.1,0.5-0.5,0.5h-10.2v4c0,1.7,0.9,2.8,4.2,2.8s4.2-1.1,4.2-2.8v-0.6c0-0.4,0.1-0.5,0.5-0.5
		h1.3c0.4,0,0.5,0.1,0.5,0.5v0.8c0,2.8-1.6,4.6-6.6,4.6c-4.9,0-6.6-1.9-6.6-4.6v-9.1c0-2.8,1.7-4.6,6.6-4.6c4.9,0,6.5,1.9,6.5,4.6
		V99.2z M541.4,97.8h8.4v-2.9c0-1.6-1-2.8-4.2-2.8c-3.2,0-4.2,1.2-4.2,2.8V97.8z"/>
</g>
<g>
	<path class="st3" d="M468.9,324.2l6.4,20.8c0.1,0.3,0,0.5-0.4,0.5h-1.4c-0.3,0-0.5-0.2-0.6-0.5l-1.8-5.7h-7.3l-1.7,5.7
		c-0.1,0.3-0.2,0.5-0.5,0.5h-1.3c-0.3,0-0.4-0.2-0.4-0.5l6.4-20.8c0.1-0.3,0.3-0.5,0.6-0.5h1.4C468.6,323.7,468.8,323.9,468.9,324.2
		z M468.4,330c-0.3-1-0.7-3.5-0.8-3.9c0,0.2-0.4,2.6-0.8,3.8l-2.4,7.6h6.3L468.4,330z"/>
	<path class="st3" d="M493.9,339.2c0.3,1.1,0.5,2.3,0.5,2.5c0-0.2,0.1-1.1,0.5-2.5l3.8-15c0.1-0.3,0.2-0.5,0.6-0.5h1.2
		c0.3,0,0.4,0.2,0.4,0.5l-5.3,20.8c-0.1,0.3-0.3,0.5-0.6,0.5h-1.3c-0.3,0-0.5-0.2-0.6-0.5l-3.9-15.3c-0.3-1-0.4-2-0.4-2.2
		c0,0.2-0.3,1.4-0.4,2.2l-3.9,15.3c-0.1,0.3-0.3,0.5-0.6,0.5h-1.3c-0.3,0-0.4-0.2-0.5-0.5l-5.3-20.8c-0.1-0.3,0-0.5,0.4-0.5h1.4
		c0.3,0,0.4,0.2,0.5,0.5l3.8,15c0.2,0.9,0.5,2.4,0.5,2.4s0.2-1,0.5-2.4l3.8-15c0.1-0.3,0.2-0.5,0.6-0.5h1.3c0.3,0,0.4,0.2,0.5,0.5
		L493.9,339.2z"/>
	<path class="st3" d="M510.8,325.4c-3.4,0-4.4,1.2-4.4,3v1c0,1.6,1.1,2.2,1.9,2.5l6,2.3c1.7,0.6,3.3,1.9,3.3,4.2v2.8
		c0,2.6-1.7,4.7-6.8,4.7s-6.8-2.1-6.8-4.7v-1.8c0-0.4,0.1-0.5,0.4-0.5h1.3c0.3,0,0.4,0.1,0.4,0.5v1.5c0,1.9,1.2,3,4.6,3
		c3.4,0,4.6-1.2,4.6-3v-2c0-1.7-1.4-2.3-2.7-2.8l-5.7-2.2c-1.3-0.5-2.8-1.9-2.8-3.8v-1.8c0-2.6,1.5-4.7,6.6-4.7s6.7,2.1,6.7,4.7v1.5
		c0,0.3-0.1,0.5-0.5,0.5h-1.3c-0.3,0-0.4-0.2-0.4-0.5v-1.2C515.2,326.6,514.2,325.4,510.8,325.4z"/>
	<path class="st3" d="M419.1,366.5c0,0.3-0.1,0.4-0.4,0.4h-9.1v3.6c0,1.5,0.8,2.5,3.7,2.5s3.7-1,3.7-2.5v-0.5c0-0.3,0.1-0.4,0.4-0.4
		h1.2c0.3,0,0.5,0.1,0.5,0.4v0.7c0,2.5-1.4,4.1-5.9,4.1c-4.4,0-5.8-1.7-5.8-4.1v-8.1c0-2.5,1.5-4.1,5.9-4.1c4.4,0,5.8,1.7,5.8,4.1
		V366.5z M409.6,365.2h7.4v-2.6c0-1.4-0.9-2.5-3.7-2.5c-2.9,0-3.7,1-3.7,2.5V365.2z"/>
	<path class="st3" d="M425.7,359.2l0.1,1.2c0.9-0.8,2.8-2,5.5-2c3,0,4.4,1.7,4.4,3.9V374c0,0.3-0.1,0.5-0.4,0.5h-1.3
		c-0.3,0-0.5-0.2-0.5-0.5v-11.2c0-1.4-0.8-2.4-2.8-2.4c-2.4,0-4.1,1.2-4.8,1.8V374c0,0.3-0.1,0.5-0.4,0.5H424
		c-0.4,0-0.5-0.2-0.5-0.5v-14.8c0-0.3,0.1-0.5,0.5-0.5h1.2C425.5,358.7,425.6,358.8,425.7,359.2z"/>
	<path class="st3" d="M444.1,374.5c-0.3,0-0.4-0.1-0.5-0.4l-5.1-14.9c-0.1-0.3,0.1-0.5,0.4-0.5h1.4c0.3,0,0.4,0.2,0.5,0.5l3.6,10.6
		c0.2,0.6,0.4,1.8,0.4,2c0-0.2,0.2-1.2,0.5-2l3.6-10.6c0.1-0.3,0.2-0.5,0.5-0.5h1.2c0.4,0,0.5,0.2,0.4,0.5L446,374
		c-0.1,0.3-0.2,0.4-0.5,0.4H444.1z"/>
	<path class="st3" d="M456.5,355.6c0,0.3-0.1,0.5-0.4,0.5h-1.3c-0.4,0-0.5-0.2-0.5-0.5v-3c0-0.3,0.1-0.5,0.5-0.5h1.3
		c0.3,0,0.4,0.2,0.4,0.5V355.6z M456.5,374c0,0.3-0.1,0.5-0.4,0.5h-1.3c-0.4,0-0.5-0.2-0.5-0.5v-14.8c0-0.3,0.1-0.5,0.5-0.5h1.3
		c0.3,0,0.4,0.2,0.4,0.5V374z"/>
	<path class="st3" d="M469.5,358.9v1.1c0,0.3-0.2,0.5-0.5,0.5c-2.4,0.1-4.4,1.5-5.2,2.1V374c0,0.3-0.1,0.5-0.4,0.5h-1.3
		c-0.4,0-0.5-0.2-0.5-0.5v-14.8c0-0.3,0.1-0.5,0.5-0.5h1.2c0.4,0,0.4,0.2,0.5,0.5l0.1,1.6c0.9-0.8,2.8-2.3,5.2-2.3
		C469.3,358.4,469.5,358.6,469.5,358.9z"/>
	<path class="st3" d="M472.3,362.5c0-2.5,1.6-4.1,6-4.1s6,1.7,6,4.1v8.1c0,2.5-1.7,4.1-6,4.1s-6-1.7-6-4.1V362.5z M482.1,362.7
		c0-1.5-1-2.5-3.8-2.5c-2.8,0-3.8,1-3.8,2.5v7.7c0,1.5,1,2.5,3.8,2.5c2.8,0,3.8-1,3.8-2.5V362.7z"/>
	<path class="st3" d="M491.2,359.2l0.1,1.2c0.9-0.8,2.8-2,5.5-2c3,0,4.4,1.7,4.4,3.9V374c0,0.3-0.1,0.5-0.4,0.5h-1.3
		c-0.3,0-0.5-0.2-0.5-0.5v-11.2c0-1.4-0.8-2.4-2.8-2.4c-2.4,0-4.1,1.2-4.8,1.8V374c0,0.3-0.1,0.5-0.4,0.5h-1.3
		c-0.4,0-0.5-0.2-0.5-0.5v-14.8c0-0.3,0.1-0.5,0.5-0.5h1.2C491,358.7,491.1,358.8,491.2,359.2z"/>
	<path class="st3" d="M507.6,358.7c0.4,0,0.5,0.2,0.5,0.5l0,1.2c0.9-0.7,2.6-1.9,5.3-1.9c2.1,0,3.5,0.9,4.1,2.2
		c0.8-0.7,2.5-2.2,5.6-2.2c3,0,4.4,1.7,4.4,3.9V374c0,0.3-0.2,0.5-0.5,0.5h-1.3c-0.3,0-0.5-0.2-0.5-0.5v-11.2c0-1.4-0.8-2.4-2.8-2.4
		c-2.5,0-4.1,1.3-4.7,1.9c0,0.2,0,0.4,0,0.6V374c0,0.3-0.1,0.5-0.4,0.5h-1.3c-0.3,0-0.5-0.2-0.5-0.5v-11.2c0-1.4-0.8-2.4-2.8-2.4
		c-2.4,0-4,1.2-4.6,1.8V374c0,0.3-0.1,0.5-0.4,0.5h-1.3c-0.4,0-0.5-0.2-0.5-0.5v-14.8c0-0.3,0.1-0.5,0.5-0.5H507.6z"/>
	<path class="st3" d="M543.7,366.5c0,0.3-0.1,0.4-0.4,0.4h-9.1v3.6c0,1.5,0.8,2.5,3.7,2.5s3.7-1,3.7-2.5v-0.5c0-0.3,0.1-0.4,0.4-0.4
		h1.2c0.3,0,0.5,0.1,0.5,0.4v0.7c0,2.5-1.4,4.1-5.9,4.1c-4.4,0-5.8-1.7-5.8-4.1v-8.1c0-2.5,1.5-4.1,5.9-4.1c4.4,0,5.8,1.7,5.8,4.1
		V366.5z M534.2,365.2h7.4v-2.6c0-1.4-0.9-2.5-3.7-2.5c-2.9,0-3.7,1-3.7,2.5V365.2z"/>
	<path class="st3" d="M550.3,359.2l0.1,1.2c0.9-0.8,2.8-2,5.5-2c3,0,4.4,1.7,4.4,3.9V374c0,0.3-0.1,0.5-0.4,0.5h-1.3
		c-0.3,0-0.5-0.2-0.5-0.5v-11.2c0-1.4-0.8-2.4-2.8-2.4c-2.4,0-4.1,1.2-4.8,1.8V374c0,0.3-0.1,0.5-0.4,0.5h-1.3
		c-0.4,0-0.5-0.2-0.5-0.5v-14.8c0-0.3,0.1-0.5,0.5-0.5h1.2C550.1,358.7,550.2,358.8,550.3,359.2z"/>
	<path class="st3" d="M571.6,358.7c0.3,0,0.5,0.1,0.5,0.4v0.9c0,0.3-0.2,0.5-0.5,0.5H568v9.6c0,1.5,0.9,2.5,3.7,2.5h0.5
		c0.3,0,0.5,0.1,0.5,0.5v0.9c0,0.4-0.2,0.5-0.5,0.5h-0.8c-4.4,0-5.7-1.5-5.7-4.1v-9.8h-1.9c-0.3,0-0.4-0.2-0.4-0.5v-0.8
		c0-0.3,0.1-0.4,0.4-0.5l1.7-0.1h0.3v-3.4c0-0.3,0.2-0.5,0.5-0.5h1.3c0.3,0,0.4,0.2,0.4,0.5v3.4H571.6z"/>
</g>
<g>
	<path class="st4" d="M316.6,218.7c-0.3,0-0.5-0.2-0.5-0.5v-23.4c0-0.4,0.1-0.5,0.5-0.5h12.3c0.4,0,0.5,0.1,0.5,0.5v1.1
		c0,0.4-0.2,0.5-0.5,0.5h-10.3v8.4h9.6c0.4,0,0.5,0.1,0.5,0.5v1c0,0.4-0.1,0.5-0.5,0.5h-9.6v9.6h10.7c0.4,0,0.5,0.1,0.5,0.5v1.2
		c0,0.4-0.2,0.5-0.5,0.5H316.6z"/>
	<path class="st4" d="M349.8,213.7c0,2.9-1.7,5.3-7.6,5.3c-5.9,0-7.6-2.4-7.6-5.3v-14.5c0-2.9,1.7-5.3,7.6-5.3
		c5.9,0,7.6,2.4,7.6,5.3v1.8c0,0.4-0.1,0.6-0.5,0.6h-1.4c-0.4,0-0.5-0.2-0.5-0.6v-1.4c0-2.1-1.3-3.5-5.1-3.5s-5.1,1.4-5.1,3.5v13.8
		c0,2.1,1.3,3.5,5.1,3.5s5.1-1.4,5.1-3.5v-1.9c0-0.4,0.1-0.5,0.5-0.5h1.4c0.4,0,0.5,0.2,0.5,0.5V213.7z"/>
	<path class="st4" d="M368.5,216.5c0.4,0,0.5,0.1,0.5,0.5v1.2c0,0.4-0.2,0.5-0.5,0.5h-13.4c-0.4,0-0.5-0.1-0.5-0.5v-6.9
		c0-2.2,2-2.9,3-3.2l6.7-2.2c0.7-0.2,2.1-0.9,2.1-2.5v-3.6c0-2.1-1-3.5-4.8-3.5c-3.7,0-4.8,1.4-4.8,3.5v1.7c0,0.4-0.1,0.6-0.5,0.6
		h-1.4c-0.4,0-0.5-0.2-0.5-0.6v-2.1c0-2.9,1.5-5.3,7.3-5.3c5.8,0,7.4,2.4,7.4,5.3v4c0,2.9-2.1,4.1-3.2,4.4l-6.1,1.9
		c-0.9,0.3-2.4,0.8-2.4,2.4v4.6H368.5z"/>
</g>
<g>
	<path class="st4" d="M464.9,269.7v9.4c0,0.4-0.1,0.5-0.5,0.5h-1.5c-0.4,0-0.5-0.2-0.5-0.5v-23.4c0-0.4,0.1-0.5,0.5-0.5h7.1
		c6,0,7.8,2.4,7.8,5.3v4c0,2.2-1.1,4.2-4.5,4.9l4.7,9.8c0.1,0.3-0.1,0.5-0.5,0.5H476c-0.4,0-0.5-0.2-0.6-0.5l-4.5-9.4h-0.9H464.9z
		 M464.9,257.4v10.2h5.1c3.9,0,5.3-1.4,5.3-3.5v-3.2c0-2.1-1.4-3.5-5.3-3.5H464.9z"/>
	<path class="st4" d="M484,279.7c-0.3,0-0.4-0.2-0.4-0.5v-23.4c0-0.4,0.1-0.5,0.5-0.5h7.3c5.9,0,7.8,2.4,7.8,5.3v14
		c0,2.9-1.9,5.3-7.8,5.3H484z M486.1,257.4v20.1h5.2c3.9,0,5.3-1.4,5.3-3.5v-13.2c0-2.1-1.4-3.5-5.3-3.5H486.1z"/>
	<path class="st4" d="M512.3,257.1c-3.8,0-5,1.3-5,3.4v1.1c0,1.8,1.2,2.4,2.1,2.8l6.8,2.6c1.9,0.7,3.7,2.2,3.7,4.7v3.1
		c0,2.9-1.9,5.3-7.7,5.3s-7.7-2.4-7.7-5.3v-2c0-0.4,0.1-0.5,0.5-0.5h1.5c0.4,0,0.5,0.1,0.5,0.5v1.7c0,2.1,1.4,3.4,5.2,3.4
		c3.9,0,5.2-1.3,5.2-3.4v-2.2c0-1.9-1.6-2.6-3-3.2l-6.4-2.5c-1.5-0.6-3.1-2.1-3.1-4.3v-2c0-2.9,1.7-5.3,7.4-5.3
		c5.7,0,7.5,2.4,7.5,5.3v1.7c0,0.4-0.1,0.5-0.5,0.5h-1.5c-0.4,0-0.5-0.2-0.5-0.5v-1.4C517.2,258.4,516.1,257.1,512.3,257.1z"/>
</g>
<g>
	<path class="st4" d="M613.2,217.7c-0.3,0-0.5-0.2-0.5-0.5v-23.4c0-0.4,0.1-0.5,0.5-0.5h12.3c0.4,0,0.5,0.1,0.5,0.5v1.1
		c0,0.4-0.2,0.5-0.5,0.5h-10.3v8.4h9.6c0.4,0,0.5,0.1,0.5,0.5v1c0,0.4-0.1,0.5-0.5,0.5h-9.6v9.6H626c0.4,0,0.5,0.1,0.5,0.5v1.2
		c0,0.4-0.2,0.5-0.5,0.5H613.2z"/>
	<path class="st4" d="M646.4,212.7c0,2.9-1.7,5.3-7.6,5.3c-5.9,0-7.6-2.4-7.6-5.3v-14.5c0-2.9,1.7-5.3,7.6-5.3
		c5.9,0,7.6,2.4,7.6,5.3v1.8c0,0.4-0.1,0.6-0.5,0.6h-1.4c-0.4,0-0.5-0.2-0.5-0.6v-1.4c0-2.1-1.3-3.5-5.1-3.5s-5.1,1.4-5.1,3.5v13.8
		c0,2.1,1.3,3.5,5.1,3.5s5.1-1.4,5.1-3.5v-1.9c0-0.4,0.1-0.5,0.5-0.5h1.4c0.4,0,0.5,0.2,0.5,0.5V212.7z"/>
	<path class="st4" d="M658.6,195.1c-3.8,0-5,1.3-5,3.4v1.1c0,1.8,1.2,2.4,2.1,2.8l6.8,2.6c1.9,0.7,3.7,2.2,3.7,4.7v3.1
		c0,2.9-1.9,5.3-7.7,5.3s-7.7-2.4-7.7-5.3v-2c0-0.4,0.1-0.5,0.5-0.5h1.5c0.4,0,0.5,0.1,0.5,0.5v1.7c0,2.1,1.4,3.4,5.2,3.4
		c3.9,0,5.2-1.3,5.2-3.4v-2.2c0-1.9-1.6-2.6-3-3.2l-6.4-2.5c-1.5-0.6-3.1-2.1-3.1-4.3v-2c0-2.9,1.7-5.3,7.4-5.3
		c5.7,0,7.5,2.4,7.5,5.3v1.7c0,0.4-0.1,0.5-0.5,0.5H664c-0.4,0-0.5-0.2-0.5-0.5v-1.4C663.5,196.4,662.3,195.1,658.6,195.1z"/>
</g>
<g>
	<circle class="st5" cx="490" cy="-10" r="43"/>
</g>
<g>
	<path class="st3" d="M490,399.8c-64.5,0-125.2-25.1-170.8-70.7s-70.7-106.3-70.7-170.8c0-64.5,25.1-125.2,70.7-170.8
		S425.5-83.2,490-83.2S615.2-58,660.8-12.4s70.7,106.3,70.7,170.8c0,64.5-25.1,125.2-70.7,170.8S554.5,399.8,490,399.8z M490-80.2
		c-63.7,0-123.6,24.8-168.6,69.9s-69.9,104.9-69.9,168.6s24.8,123.6,69.9,168.6c45,45,104.9,69.9,168.6,69.9
		c63.7,0,123.6-24.8,168.6-69.9c45-45,69.9-104.9,69.9-168.6S703.7,34.7,658.6-10.3C613.6-55.4,553.7-80.2,490-80.2z"/>
</g>
<g>
	<g>
		<g>
			<path class="st4" d="M490.7,244.5c-24.5,0-44.5-20-44.5-44.5s20-44.5,44.5-44.5c24.5,0,44.5,20,44.5,44.5
				S515.2,244.5,490.7,244.5z M490.7,158.5c-22.9,0-41.5,18.6-41.5,41.5s18.6,41.5,41.5,41.5c22.9,0,41.5-18.6,41.5-41.5
				S513.6,158.5,490.7,158.5z"/>
		</g>
	</g>
	<g>
		<g>
			<polygon class="st4" points="486.9,217.2 472.6,203 474.8,200.8 486.5,212.6 506.4,183.5 508.8,185.1 			"/>
		</g>
	</g>
</g>
<g>
	<g>
		<g>
			<path class="st4" d="M342,183.5c-24.5,0-44.5-20-44.5-44.5c0-24.5,20-44.5,44.5-44.5s44.5,20,44.5,44.5
				C386.5,163.5,366.5,183.5,342,183.5z M342,97.5c-22.9,0-41.5,18.6-41.5,41.5c0,22.9,18.6,41.5,41.5,41.5s41.5-18.6,41.5-41.5
				C383.5,116.1,364.9,97.5,342,97.5z"/>
		</g>
	</g>
	<g>
		<g>
			<polygon class="st4" points="338.2,156.2 323.9,141.9 326.1,139.8 337.8,151.5 357.7,122.4 360.1,124.1 			"/>
		</g>
	</g>
</g>
<g>
	<g>
		<g>
			<path class="st4" d="M639,182.5c-24.5,0-44.5-20-44.5-44.5s20-44.5,44.5-44.5s44.5,20,44.5,44.5S663.5,182.5,639,182.5z
				 M639,96.5c-22.9,0-41.5,18.6-41.5,41.5s18.6,41.5,41.5,41.5s41.5-18.6,41.5-41.5S661.9,96.5,639,96.5z"/>
		</g>
	</g>
	<g>
		<g>
			<polygon class="st4" points="635.2,155.2 620.9,141 623,138.8 634.8,150.6 654.6,121.5 657.1,123.1 			"/>
		</g>
	</g>
</g>
</svg>
