<?xml version="1.0" encoding="utf-8"?>
<!-- Generator: Adobe Illustrator 19.2.1, SVG Export Plug-In . SVG Version: 6.00 Build 0)  -->
<svg version="1.1" id="Layer_1" xmlns="http://www.w3.org/2000/svg" xmlns:xlink="http://www.w3.org/1999/xlink" x="0px" y="0px"
	 viewBox="0 0 650 440" style="enable-background:new 0 0 650 440;" xml:space="preserve">
<style type="text/css">
	.st0{fill:#5D89FB;}
	.st1{fill:none;stroke:#FFFFFF;stroke-width:5;stroke-miterlimit:10;}
	.st2{fill:#4C4C4C;}
	.st3{fill:none;stroke:#C9C9C9;stroke-width:5;stroke-linecap:round;stroke-miterlimit:10;}
</style>
<title>illust_checks</title>
<circle class="st0" cx="146.2" cy="99.7" r="43.7"/>
<polyline class="st1" points="163.1,84.4 142.2,115.1 129.2,102 "/>
<circle class="st0" cx="146.2" cy="212.8" r="43.7"/>
<polyline class="st1" points="163.1,197.5 142.2,228.1 129.2,215.1 "/>
<circle class="st0" cx="146.2" cy="324.4" r="43.7"/>
<polyline class="st1" points="163.1,309.1 142.2,339.7 129.2,326.7 "/>
<path class="st2" d="M225,115.1c-0.6,0.1-1.2-0.3-1.3-0.9c0-0.2,0-0.3,0-0.5V79.8c-0.2-0.6,0.2-1.2,0.8-1.4c0.2,0,0.3,0,0.5,0h18.5
	c0.6-0.1,1.2,0.2,1.3,0.8c0,0.2,0,0.3,0,0.5V83c0.1,0.6-0.3,1.2-0.9,1.4c-0.1,0-0.3,0-0.4,0H231v8.8h11.6c0.6-0.2,1.2,0.2,1.4,0.8
	c0,0.2,0,0.3,0,0.5v3.2c0.1,0.6-0.3,1.2-1,1.3c-0.1,0-0.3,0-0.4,0H231v10h13c0.6-0.1,1.2,0.2,1.3,0.8c0,0.2,0,0.3,0,0.5v3.4
	c0.1,0.6-0.3,1.2-0.9,1.4c-0.2,0-0.3,0-0.5,0L225,115.1L225,115.1z"/>
<path class="st2" d="M258.6,109h12c0.6-0.1,1.2,0.2,1.3,0.8c0,0.2,0,0.3,0,0.5v3.4c0.1,0.6-0.3,1.2-0.9,1.4c-0.1,0-0.3,0-0.4,0
	h-18.2c-0.8,0-1.1-0.5-1.1-1.4V79.8c-0.2-0.6,0.2-1.2,0.8-1.4c0.2,0,0.3,0,0.5,0h4.7c0.6-0.1,1.2,0.3,1.3,0.9c0,0.2,0,0.3,0,0.5V109
	L258.6,109z"/>
<path class="st2" d="M278.4,115.1c-0.6,0.1-1.2-0.3-1.3-0.9c0-0.2,0-0.3,0-0.5V79.8c-0.2-0.6,0.2-1.2,0.8-1.4c0.2,0,0.3,0,0.5,0h9.9
	c9.8,0,13.1,3.6,13.1,8.1v3.2c0.1,2.7-1.6,5.1-4,6c3.7,1.3,5.7,3.6,5.7,6.5v4.3c0,4.5-3.3,8.5-13.1,8.5L278.4,115.1L278.4,115.1z
	 M284.4,84.2v9.4h4c3.5,0,5.7-1.3,5.7-4v-1.9c0-2.7-2.2-3.5-5.8-3.5H284.4L284.4,84.2z M284.4,99.1v10.1h5.6c3.6,0,5.9-1.3,5.9-4
	v-2.4c0-2.3-2.3-3.7-5.9-3.7H284.4L284.4,99.1z"/>
<path class="st2" d="M240.9,200.7c0-2.6-1.8-3.9-5.2-3.9s-5.3,1.2-5.3,3.9v0.8c0,1.4,0.9,2.6,2.2,2.9l9.4,3.4
	c3.7,1.3,6.4,3.8,6.4,7.8v4.2c0,4.5-3.2,8.8-12.9,8.8s-12.9-4.3-12.9-8.8v-3.4c-0.1-0.6,0.3-1.2,0.9-1.4c0.1,0,0.3,0,0.4,0h4.5
	c0.6-0.1,1.2,0.3,1.3,0.9c0,0.2,0,0.3,0,0.5v2.4c0,2.6,2.1,3.9,5.7,3.9s5.7-1.2,5.7-3.9V217c0-2.2-2.2-3.1-4.6-4l-8.4-3.1
	c-2.9-1.1-4.8-3.9-4.9-7v-3.2c0-4.5,2.8-8.8,12.3-8.8s12.5,4.3,12.5,8.8v2.3c0.1,0.6-0.3,1.2-0.9,1.4c-0.1,0-0.3,0-0.4,0h-4.5
	c-0.6,0.1-1.2-0.3-1.3-0.9c0-0.1,0-0.3,0-0.4V200.7L240.9,200.7z"/>
<path class="st2" d="M275.3,215c0.1,0.5-0.2,1.1-0.7,1.2c-0.2,0-0.3,0-0.5,0h-13.8v4c0,1.9,1,3,4.2,3s4.2-1.1,4.2-3V220
	c-0.1-0.6,0.3-1.2,0.9-1.4c0.1,0,0.3,0,0.4,0h3.8c0.6-0.1,1.2,0.3,1.4,1c0,0.1,0,0.2,0,0.4v0.6c0,4.9-2.8,8-10.8,8s-11.1-3.1-11.1-8
	v-11.9c0-4.8,3.2-7.9,11.1-7.9s10.8,3.1,10.8,7.9L275.3,215L275.3,215z M260.3,211.5h8.4v-2.4c0-1.9-1.2-3-4.2-3s-4.2,1.1-4.2,3
	L260.3,211.5L260.3,211.5z"/>
<path class="st2" d="M302.5,208.7v0.9c0.1,0.6-0.2,1.2-0.8,1.3c-0.2,0-0.3,0-0.5,0H297c-0.6,0.1-1.2-0.2-1.3-0.8c0-0.2,0-0.3,0-0.5
	v-0.4c0-2-1.1-2.9-4.2-2.9s-4.2,0.9-4.2,2.9V220c0,2,1.1,2.9,4.2,2.9s4.2-0.9,4.2-2.9v-0.8c-0.1-0.6,0.3-1.2,0.9-1.4
	c0.2,0,0.3,0,0.5,0h4.2c0.6-0.1,1.2,0.3,1.3,0.9c0,0.2,0,0.3,0,0.5v1.4c0,4.9-3.2,8-11.1,8s-11.1-3.1-11.1-8v-11.8
	c0-4.8,3.2-7.9,11.1-7.9S302.5,203.9,302.5,208.7z"/>
<path class="st2" d="M323.3,225.6c-2.3,2-5.3,3.1-8.3,3c-4.9,0-7.8-3-7.8-7.2v-18.8c-0.1-0.6,0.2-1.2,0.8-1.3c0.2,0,0.3,0,0.5,0h4.4
	c0.6-0.1,1.2,0.3,1.4,0.9c0,0.1,0,0.3,0,0.4v17c0,1.9,0.6,2.9,2.9,2.9c2.2-0.1,4.3-1,5.9-2.4v-17.5c-0.1-0.6,0.2-1.2,0.8-1.3
	c0.2,0,0.3,0,0.5,0h4.5c0.6-0.1,1.2,0.3,1.3,0.9c0,0.2,0,0.3,0,0.5v24.2c0.1,0.6-0.2,1.2-0.8,1.3c-0.2,0-0.3,0-0.5,0h-4.2
	c-1,0-1.2-0.4-1.4-1.4L323.3,225.6z"/>
<path class="st2" d="M352.8,202.1v3.5c0.1,0.7-0.4,1.3-1,1.4c-0.1,0-0.2,0-0.4,0c-2.9,0.2-5.6,1.3-7.8,3.2v16.6c0,1-0.3,1.4-1.2,1.4
	h-4.5c-0.6,0.1-1.3-0.3-1.4-1c0-0.1,0-0.3,0-0.4v-24.2c-0.1-0.6,0.3-1.2,0.9-1.3c0.2,0,0.3,0,0.5,0h4.2c0.6-0.1,1.2,0.3,1.3,0.9
	c0,0.1,0,0.3,0,0.4l0.2,1.9c2-2.3,4.9-3.6,7.9-3.6c0.6-0.1,1.2,0.3,1.4,0.9C352.8,201.8,352.8,202,352.8,202.1z"/>
<path class="st2" d="M363.7,196.4c0.1,0.6-0.2,1.2-0.8,1.3c-0.1,0-0.3,0-0.4,0H358c-0.6,0.1-1.2-0.2-1.3-0.8c0-0.2,0-0.3,0-0.5v-4.6
	c-0.1-0.6,0.3-1.3,0.9-1.4c0.1,0,0.3,0,0.4,0h4.5c0.9,0,1.2,0.4,1.2,1.4V196.4L363.7,196.4z M363.7,226.7c0,1-0.3,1.4-1.2,1.4H358
	c-0.6,0.1-1.3-0.3-1.4-1c0-0.1,0-0.3,0-0.4v-24.1c-0.1-0.6,0.3-1.2,0.9-1.4c0.2,0,0.3,0,0.5,0h4.5c0.6-0.1,1.2,0.3,1.3,0.9
	c0,0.2,0,0.3,0,0.5L363.7,226.7L363.7,226.7z"/>
<path class="st2" d="M383.7,201.3c0.6-0.1,1.2,0.2,1.3,0.8c0,0.1,0,0.3,0,0.4v3c0.1,0.6-0.3,1.2-0.9,1.4c-0.1,0-0.3,0-0.4,0h-4.9
	v12.4c0,2,1.3,2.9,4.3,2.9h1.2c0.6-0.1,1.2,0.3,1.4,0.9c0,0.2,0,0.3,0,0.5v3.1c0.1,0.6-0.3,1.2-0.9,1.4c-0.2,0-0.3,0-0.5,0H382
	c-7.9,0-10.4-2.7-10.4-8V207H369c-0.6,0.1-1.2-0.3-1.3-0.9c0-0.2,0-0.3,0-0.5v-2.7c0-0.9,0.4-1.2,1.3-1.3l2.5-0.3h0.2v-5.2
	c-0.1-0.6,0.3-1.2,0.9-1.4c0.2,0,0.3,0,0.5,0h4.5c0.6-0.1,1.2,0.3,1.3,0.9c0,0.2,0,0.3,0,0.5v5.2H383.7L383.7,201.3z"/>
<path class="st2" d="M398.7,214.9c0.4,1.5,0.7,3,0.9,4.5c0.3-1.5,0.7-2.9,1.1-4.3l4.3-12.6c0.3-0.9,0.5-1.4,1.5-1.4h4.1
	c1,0,1.6,0.5,1.3,1.4l-11.9,35c-0.1,0.8-0.7,1.4-1.5,1.4h-3.2c-1,0-1.6-0.4-1.3-1.4l2.6-8.8l-9.1-26.2c-0.3-0.9,0.3-1.4,1.2-1.4h4.5
	c1,0,1.2,0.5,1.5,1.4L398.7,214.9z"/>
<path class="st2" d="M425.5,220.7v-12c0-4.8,2.5-7.9,7.8-7.9c3.2,0,6.2,1.1,8.6,3.1l0.1-1.4c0.1-1,0.3-1.4,1.3-1.4h4.2
	c0.6-0.1,1.2,0.3,1.3,0.9c0,0.2,0,0.3,0,0.5V231c0,4.8-3.6,7.9-11.5,7.9h-7.6c-0.6,0.1-1.2-0.2-1.3-0.8c0-0.2,0-0.3,0-0.5v-3.1
	c-0.1-0.6,0.3-1.3,0.9-1.4c0.1,0,0.3,0,0.4,0h7.6c3,0,4.5-0.9,4.5-2.9v-4.5c-2.4,1.9-5.4,2.9-8.4,2.9
	C428,228.5,425.5,225.5,425.5,220.7z M432.6,219.5c0,1.5,0.4,2.9,3,2.9c2.3-0.2,4.4-1,6.2-2.5v-10.5c-1.8-1.5-3.9-2.3-6.2-2.5
	c-2.5,0-3,1.4-3,2.8V219.5L432.6,219.5z"/>
<path class="st2" d="M471.5,202.1v3.5c0.1,0.7-0.4,1.3-1,1.4c-0.1,0-0.2,0-0.4,0c-2.9,0.2-5.6,1.3-7.8,3.2v16.6c0,1-0.3,1.4-1.2,1.4
	h-4.5c-0.6,0.1-1.3-0.3-1.4-1c0-0.1,0-0.3,0-0.4v-24.2c-0.1-0.6,0.3-1.2,0.9-1.3c0.2,0,0.3,0,0.5,0h4.2c0.6-0.1,1.2,0.3,1.3,0.9
	c0,0.1,0,0.3,0,0.4l0.2,1.9c2-2.3,4.9-3.6,7.9-3.6c0.6-0.1,1.2,0.3,1.4,0.9C471.5,201.8,471.5,202,471.5,202.1z"/>
<path class="st2" d="M474.7,208.7c0-4.8,3.7-7.9,11.7-7.9s11.6,3.1,11.6,7.9v11.8c0,4.9-3.7,8-11.7,8s-11.7-3.1-11.7-8L474.7,208.7
	L474.7,208.7z M491,209.3c0-2-1.6-2.9-4.6-2.9s-4.6,0.9-4.6,2.9V220c0,2,1.6,3,4.6,3s4.6-0.9,4.6-3V209.3L491,209.3z"/>
<path class="st2" d="M519.7,225.6c-2.3,2-5.3,3.1-8.3,3c-4.9,0-7.8-3-7.8-7.2v-18.8c-0.1-0.6,0.2-1.2,0.8-1.3c0.2,0,0.3,0,0.5,0h4.4
	c0.6-0.1,1.2,0.3,1.4,0.9c0,0.1,0,0.3,0,0.4v17c0,1.9,0.6,2.9,2.9,2.9c2.2-0.1,4.3-1,5.9-2.4v-17.5c-0.1-0.6,0.2-1.2,0.8-1.3
	c0.2,0,0.3,0,0.5,0h4.5c0.6-0.1,1.2,0.3,1.3,0.9c0,0.2,0,0.3,0,0.5v24.2c0.1,0.6-0.2,1.2-0.8,1.3c-0.2,0-0.3,0-0.5,0h-4.2
	c-1,0-1.2-0.4-1.3-1.4L519.7,225.6z"/>
<path class="st2" d="M538.5,201.2c1,0,1.2,0.4,1.3,1.4l0.1,1.3c2.4-2,5.5-3.1,8.6-3.1c5.3,0,7.8,3.1,7.8,7.9v12
	c0,4.8-2.5,7.9-7.8,7.9c-3.1,0-6-1-8.5-2.9v11.9c0.2,0.6-0.2,1.2-0.8,1.3c-0.2,0-0.3,0-0.5,0h-4.5c-0.6,0.1-1.2-0.3-1.3-0.9
	c0-0.2,0-0.3,0-0.5v-35c-0.1-0.6,0.3-1.2,0.9-1.4c0.2,0,0.3,0,0.5,0L538.5,201.2L538.5,201.2z M549.2,209.8c0-1.4-0.4-2.8-2.9-2.8
	c-2.3,0.1-4.5,1-6.3,2.5V220c1.8,1.5,4,2.3,6.3,2.5c2.5,0,2.9-1.4,2.9-2.9V209.8L549.2,209.8z"/>
<path class="st2" d="M230.9,325.7v12.6c0.2,0.6-0.2,1.2-0.8,1.4c-0.2,0-0.3,0-0.5,0H225c-0.6,0.1-1.2-0.3-1.3-0.9c0-0.2,0-0.3,0-0.5
	v-33.9c-0.2-0.6,0.2-1.2,0.8-1.4c0.2,0,0.3,0,0.5,0h11.3c9.8,0,13.1,4.3,13.1,8.8v5.1c0,3.2-1.6,6.2-5.9,7.8l5.8,13.6
	c0.4,0.9-0.3,1.4-1.2,1.4h-4.8c-0.8,0-1-0.5-1.4-1.4l-5.3-12.6H230.9L230.9,325.7z M230.9,309v10.6h5.4c3.6,0,5.8-1.4,5.8-4V313
	c0-2.7-2.2-4-5.8-4H230.9L230.9,309z"/>
<path class="st2" d="M257.2,339.7c-0.9,0-1.1-0.5-1.1-1.4v-33.9c-0.2-0.6,0.2-1.2,0.8-1.4c0.2,0,0.3,0,0.5,0h11.8
	c9.8,0,13.2,4.3,13.2,8.8v19.1c0,4.5-3.4,8.8-13.2,8.8H257.2L257.2,339.7z M263.4,309v24.6h5.8c3.7,0,5.9-1.4,5.9-4v-16.5
	c0-2.7-2.2-4-5.9-4L263.4,309L263.4,309z"/>
<path class="st2" d="M306.5,312.3c0-2.6-1.8-3.9-5.2-3.9s-5.3,1.2-5.3,3.9v0.8c0,1.4,0.9,2.6,2.2,2.9l9.4,3.4
	c3.7,1.3,6.4,3.8,6.4,7.8v4.2c0,4.5-3.2,8.8-12.9,8.8s-12.9-4.3-12.9-8.8V328c-0.1-0.6,0.3-1.2,0.9-1.4c0.1,0,0.3,0,0.4,0h4.5
	c0.6-0.1,1.2,0.3,1.3,0.9c0,0.2,0,0.3,0,0.5v2.4c0,2.6,2,3.9,5.7,3.9s5.7-1.2,5.7-3.9v-1.7c0-2.2-2.2-3.1-4.6-4l-8.4-3.1
	c-2.9-1.1-4.8-3.9-4.9-7v-3.2c0-4.5,2.8-8.8,12.3-8.8s12.5,4.3,12.5,8.8v2.2c0.1,0.6-0.3,1.2-0.9,1.4c-0.1,0-0.3,0-0.4,0h-4.5
	c-0.6,0.1-1.2-0.3-1.3-0.9c0-0.1,0-0.3,0-0.4L306.5,312.3L306.5,312.3z"/>
<path class="st2" d="M345.9,337.1c-2.4,2-5.5,3-8.6,3c-5.4,0-7.8-3.1-7.8-7.9v-12c0-4.8,2.5-7.9,7.8-7.9c3.1,0,6,1,8.4,2.9v-11.9
	c-0.1-0.6,0.2-1.2,0.9-1.4c0.1,0,0.3,0,0.4,0h4.5c0.6-0.1,1.2,0.3,1.3,1c0,0.1,0,0.3,0,0.4v34.9c0.1,0.6-0.3,1.2-0.9,1.4
	c-0.1,0-0.3,0-0.4,0h-4.2c-1,0-1.2-0.4-1.4-1.4L345.9,337.1z M336.6,331.1c0,1.5,0.4,2.9,3,2.9c2.3-0.2,4.4-1,6.2-2.5V321
	c-1.8-1.5-3.9-2.3-6.2-2.5c-2.5,0-3,1.4-3,2.8V331.1L336.6,331.1z"/>
<path class="st2" d="M359.2,320.2c0-4.8,3.2-7.8,10.9-7.8c7.9,0,10.9,3,10.9,7.8v18.1c0.1,0.6-0.3,1.2-0.9,1.4c-0.1,0-0.3,0-0.4,0
	h-4c-1,0-1.2-0.4-1.3-1.4l-0.1-1.1c-2.2,1.9-5.1,3-8,3c-5.3,0-7.8-3.2-7.8-6.8V331c0-3.6,2.8-6.8,8.1-6.8h7.4v-3.5c0-1.9-0.9-3-4-3
	s-4.2,0.9-4.2,2.8v0.4c0.1,0.6-0.2,1.2-0.8,1.3c-0.2,0-0.3,0-0.5,0h-4c-0.6,0.1-1.2-0.3-1.3-0.9c0-0.2,0-0.3,0-0.5L359.2,320.2
	L359.2,320.2z M374,332.2v-3.1h-6c-2.1,0-2.6,1-2.6,2.4v0.9c0,1.6,1.1,2.1,2.7,2.1C370.3,334.3,372.3,333.5,374,332.2L374,332.2z"/>
<path class="st2" d="M400.7,312.9c0.6-0.1,1.2,0.2,1.3,0.8c0,0.1,0,0.3,0,0.4v3c0.1,0.6-0.3,1.2-0.9,1.4c-0.1,0-0.3,0-0.4,0h-4.9
	V331c0,2,1.3,2.9,4.3,2.9h1.2c0.6-0.1,1.2,0.3,1.4,0.9c0,0.2,0,0.3,0,0.5v3.1c0.1,0.6-0.3,1.2-0.9,1.4c-0.2,0-0.3,0-0.5,0H399
	c-7.9,0-10.4-2.7-10.4-8v-13.2H386c-0.6,0.1-1.2-0.3-1.3-0.9c0-0.2,0-0.3,0-0.5v-2.7c0-0.9,0.4-1.2,1.3-1.3l2.5-0.3h0.2v-5.2
	c-0.1-0.6,0.3-1.2,0.9-1.4c0.2,0,0.3,0,0.5,0h4.5c0.6-0.1,1.2,0.3,1.3,0.9c0,0.2,0,0.3,0,0.5v5.2H400.7L400.7,312.9z"/>
<path class="st2" d="M406.8,320.2c0-4.8,3.2-7.8,10.9-7.8c7.9,0,10.9,3,10.9,7.8v18.1c0.1,0.6-0.3,1.2-0.9,1.4c-0.1,0-0.3,0-0.4,0
	h-4c-1,0-1.2-0.4-1.3-1.4l-0.1-1.1c-2.2,1.9-5.1,3-8,3c-5.3,0-7.8-3.2-7.8-6.8V331c0-3.6,2.8-6.8,8.1-6.8h7.5v-3.5c0-1.9-0.9-3-4-3
	s-4.2,0.9-4.2,2.8v0.4c0.1,0.6-0.2,1.2-0.8,1.3c-0.2,0-0.3,0-0.5,0h-4c-0.6,0.1-1.2-0.3-1.3-0.9c0-0.2,0-0.3,0-0.5L406.8,320.2
	L406.8,320.2z M421.6,332.2v-3.1h-6c-2.1,0-2.6,1-2.6,2.4v0.9c0,1.6,1.1,2.1,2.7,2.1C417.8,334.3,419.9,333.6,421.6,332.2
	L421.6,332.2z"/>
<path class="st2" d="M436,339.7c-0.6,0.1-1.3-0.3-1.4-1c0-0.1,0-0.3,0-0.4v-34.9c-0.1-0.6,0.3-1.3,0.9-1.4c0.1,0,0.3,0,0.4,0h4.5
	c0.9,0,1.2,0.4,1.2,1.4v11.9c2.4-1.9,5.4-2.9,8.5-2.9c5.4,0,7.8,3.1,7.8,7.9v12c0,4.8-2.5,7.9-7.8,7.9c-3.1,0.1-6.2-1-8.6-3
	l-0.1,1.2c-0.1,1-0.3,1.4-1.3,1.4L436,339.7L436,339.7z M450.9,321.4c0-1.4-0.4-2.8-2.9-2.8c-2.3,0.1-4.5,1-6.3,2.5v10.5
	c1.8,1.5,4,2.4,6.3,2.5c2.5,0,2.9-1.4,2.9-2.9V321.4L450.9,321.4z"/>
<path class="st2" d="M463.8,320.2c0-4.8,3.2-7.8,10.9-7.8c7.9,0,10.9,3,10.9,7.8v18.1c0.1,0.6-0.3,1.2-0.9,1.4c-0.1,0-0.3,0-0.4,0
	h-4c-1,0-1.2-0.4-1.3-1.4l-0.1-1.1c-2.2,1.9-5.1,3-8,3c-5.3,0-7.8-3.2-7.8-6.8V331c0-3.6,2.8-6.8,8.1-6.8h7.5v-3.5c0-1.9-0.9-3-4-3
	s-4.2,0.9-4.2,2.8v0.4c0.1,0.6-0.2,1.2-0.8,1.3c-0.2,0-0.3,0-0.5,0h-4c-0.6,0.1-1.2-0.3-1.3-0.9c0-0.2,0-0.3,0-0.5L463.8,320.2
	L463.8,320.2z M478.6,332.2v-3.1h-6c-2.1,0-2.6,1-2.6,2.4v0.9c0,1.6,1.1,2.1,2.7,2.1C474.9,334.4,477,333.6,478.6,332.2L478.6,332.2
	z"/>
<path class="st2" d="M505.5,319.6c0-1.7-1.6-2.2-3.9-2.2s-3.9,0.5-3.9,2.2v0.6c0.1,0.9,0.8,1.7,1.7,1.9l7.8,2.8
	c3.4,1.2,5.2,3,5.2,5.6v2.8c0,3.5-3.1,7-10.9,7s-10.8-3.5-10.8-7v-1.2c-0.1-0.6,0.2-1.1,0.8-1.2c0.1,0,0.3,0,0.4,0h4
	c0.6-0.1,1.1,0.2,1.2,0.8c0,0.1,0,0.3,0,0.4v0.9c0,1.7,1.9,2.3,4.3,2.3s4.4-0.6,4.4-2.3v-0.9c0-0.9-0.7-1.4-2.4-2l-7.8-2.9
	c-2-0.8-4.3-3-4.3-5.7v-1.7c0-3.5,2.5-7.2,10.4-7.2s10.3,3.7,10.3,7.2v1c0.2,0.5-0.1,1.1-0.7,1.2c-0.2,0.1-0.4,0.1-0.6,0h-4
	c-0.5,0.1-1.1-0.2-1.2-0.7c0-0.2,0-0.3,0-0.5L505.5,319.6L505.5,319.6z"/>
<path class="st2" d="M538.6,326.6c0.1,0.5-0.2,1.1-0.7,1.2c-0.2,0-0.3,0-0.5,0h-13.8v4c0,1.9,1,3,4.2,3s4.2-1.1,4.2-3v-0.3
	c-0.1-0.6,0.3-1.2,0.9-1.4c0.1,0,0.3,0,0.4,0h3.8c0.6-0.1,1.2,0.3,1.3,1c0,0.1,0,0.2,0,0.4v0.6c0,4.9-2.8,8-10.8,8s-11.1-3.1-11.1-8
	v-11.8c0-4.8,3.2-7.9,11.1-7.9s10.8,3.1,10.8,7.9L538.6,326.6L538.6,326.6z M523.6,323.1h8.4v-2.4c0-1.9-1.2-3-4.2-3s-4.2,1.1-4.2,3
	V323.1L523.6,323.1z"/>
<line class="st3" x1="71" y1="34.1" x2="71" y2="58.1"/>
<line class="st3" x1="59" y1="46.1" x2="83" y2="46.1"/>
<line class="st3" x1="63" y1="375.4" x2="63" y2="391.4"/>
<line class="st3" x1="55" y1="383.4" x2="71" y2="383.4"/>
<line class="st3" x1="546" y1="379.4" x2="546" y2="403.4"/>
<line class="st3" x1="534" y1="391.4" x2="558" y2="391.4"/>
<line class="st3" x1="463" y1="45.4" x2="463" y2="61.4"/>
<line class="st3" x1="455" y1="53.4" x2="471" y2="53.4"/>
<circle class="st3" cx="496" cy="93.9" r="7.7"/>
<circle class="st3" cx="113" cy="411.7" r="7.7"/>
</svg>
