<svg id="Layer_2" data-name="Layer 2" xmlns="http://www.w3.org/2000/svg" viewBox="0 0 650 454"><title>illust_browsers</title><g id="browser"><path d="M206,195V75a10,10,0,0,1,10-10H474.89a10,10,0,0,1,10,10V354.5a10,10,0,0,1-10,10H206" style="fill:#fff"/><path d="M206,195V75a10,10,0,0,1,10-10H474.89a10,10,0,0,1,10,10V354.5a10,10,0,0,1-10,10H206" style="fill:none;stroke:#616161;stroke-miterlimit:10;stroke-width:3px"/><line x1="206" y1="102" x2="484.89" y2="102" style="fill:#fff;stroke:#616161;stroke-miterlimit:10;stroke-width:3px"/><g id="browser-fill-bar"><rect x="273.28" y="216.44" width="130.91" height="21.12" rx="10" ry="10" style="fill:#5d89fb"/></g><g id="browser-fill-stroke"><rect x="273.28" y="216.44" width="166.33" height="21.12" rx="10" ry="10" style="fill:none;stroke:#5d89fb;stroke-linecap:round;stroke-miterlimit:10;stroke-width:3px"/></g><g id="pips"><circle cx="224.92" cy="81.92" r="3.92" style="fill:#616161"/><circle cx="238.92" cy="81.92" r="3.92" style="fill:#616161"/><circle cx="252.92" cy="81.92" r="3.92" style="fill:#616161"/></g></g><g id="phone"><rect x="130.98" y="200.64" width="105.18" height="187.18" rx="10" ry="10" style="fill:#fff"/><rect x="130.98" y="200.64" width="105.18" height="187.18" rx="10" ry="10" style="fill:none;stroke:#616161;stroke-linecap:round;stroke-miterlimit:10;stroke-width:3px"/><line x1="131.98" y1="237" x2="236.15" y2="237" style="fill:none;stroke:#616161;stroke-linecap:round;stroke-miterlimit:10;stroke-width:3px"/><line x1="167" y1="218" x2="197" y2="218" style="fill:none;stroke:#616161;stroke-linecap:round;stroke-miterlimit:10;stroke-width:3px"/><line x1="131.98" y1="346" x2="233.67" y2="346" style="fill:none;stroke:#616161;stroke-linecap:round;stroke-miterlimit:10;stroke-width:3px"/><circle cx="184" cy="364.33" r="7.67" style="fill:#fff;stroke:#616161;stroke-linecap:round;stroke-miterlimit:10;stroke-width:3px"/><g id="phone-fill-bar"><path d="M203,284.11c0,5.1-4.5,9.26-10,9.26H156.15c-5.5,0-10-4.17-10-9.26s4.5-9.26,10-9.26H193C198.47,274.85,203,279,203,284.11Z" style="fill:#5d89fb"/></g><g id="phone-fill-stroke"><path d="M221.49,284.11c0,5.1-4.5,9.26-10,9.26H156.15c-5.5,0-10-4.17-10-9.26s4.5-9.26,10-9.26h55.33C217,274.85,221.49,279,221.49,284.11Z" style="fill:none;stroke:#5d89fb;stroke-linecap:round;stroke-miterlimit:10;stroke-width:3px"/></g></g><g id="sparkles"><line x1="155" y1="102" x2="155" y2="126" style="fill:none;stroke:#bdbdbd;stroke-linecap:round;stroke-miterlimit:10;stroke-width:3px"/><line x1="143" y1="114" x2="167" y2="114" style="fill:none;stroke:#bdbdbd;stroke-linecap:round;stroke-miterlimit:10;stroke-width:3px"/><line x1="85.33" y1="249" x2="85.33" y2="273" style="fill:none;stroke:#bdbdbd;stroke-linecap:round;stroke-miterlimit:10;stroke-width:3px"/><line x1="73.33" y1="261" x2="97.33" y2="261" style="fill:none;stroke:#bdbdbd;stroke-linecap:round;stroke-miterlimit:10;stroke-width:3px"/><circle cx="119.97" cy="138.91" r="7.67" style="fill:none;stroke:#bdbdbd;stroke-linecap:round;stroke-miterlimit:10;stroke-width:3px"/><line x1="472.89" y1="387.82" x2="472.89" y2="411.82" style="fill:none;stroke:#bdbdbd;stroke-linecap:round;stroke-miterlimit:10;stroke-width:3px"/><line x1="460.89" y1="399.82" x2="484.89" y2="399.82" style="fill:none;stroke:#bdbdbd;stroke-linecap:round;stroke-miterlimit:10;stroke-width:3px"/><circle cx="528.74" cy="324.05" r="7.67" style="fill:none;stroke:#bdbdbd;stroke-linecap:round;stroke-miterlimit:10;stroke-width:3px"/></g><g id="logo"><path d="M357,169.81a0.87,0.87,0,0,0,.86-0.86v-5.18a0.86,0.86,0,1,0-1.73,0v5.18A0.87,0.87,0,0,0,357,169.81Z" style="fill:#bdbdbd"/><path d="M370.77,162.9a0.87,0.87,0,0,0-.86.86v5.18a0.86,0.86,0,0,0,1.73,0v-5.18A0.87,0.87,0,0,0,370.77,162.9Z" style="fill:#bdbdbd"/><path d="M370.77,156a7.77,7.77,0,0,0-6.91,4.23,7.75,7.75,0,0,0-13.82,0,7.75,7.75,0,0,0-13.82,0,7.75,7.75,0,0,0-13.82,0,7.76,7.76,0,0,0-14.68,3.54v15.54a7.79,7.79,0,0,0,7.77,7.77,7.7,7.7,0,0,0,6-2.89v8.07a4.32,4.32,0,0,0,8.63,0V187a7.76,7.76,0,0,0,6-4.19,7.75,7.75,0,0,0,13.82,0,7.75,7.75,0,0,0,13.82,0,7.76,7.76,0,0,0,14.68-3.54V163.77A7.79,7.79,0,0,0,370.77,156Zm-55.26,29.36a6.06,6.06,0,0,1-6-6V163.77a6,6,0,1,1,12.09,0h0v15.54h0A6.06,6.06,0,0,1,315.51,185.35Zm13.82,0a5.85,5.85,0,0,1-.86-0.09v7a2.59,2.59,0,1,1-5.18,0V163.77a6,6,0,1,1,12.09,0h0v15.54h0A6.06,6.06,0,0,1,329.32,185.35Zm13.51,0a6.19,6.19,0,0,1-5.74-6.22v-2.42a0.87,0.87,0,0,1,.86-0.86h3.45a0.87,0.87,0,0,1,.86.86v2.55a0.92,0.92,0,0,0,.73.91,0.85,0.85,0,0,0,1-.86v-2.59a2.6,2.6,0,0,0-2.59-2.59H341a3.87,3.87,0,0,1-3.89-3.89v-6.3a6.19,6.19,0,0,1,5.74-6.22,6.05,6.05,0,0,1,6.35,6h0v2.59a0.87,0.87,0,0,1-.86.86h-3.45a0.87,0.87,0,0,1-.86-0.86v-2.55a0.92,0.92,0,0,0-.73-0.91,0.85,0.85,0,0,0-1,.86v2.59a2.6,2.6,0,0,0,2.59,2.59h0.43a3.87,3.87,0,0,1,3.89,3.89v6.48h0A6.05,6.05,0,0,1,342.83,185.35Zm13.82,0a6.19,6.19,0,0,1-5.74-6.22v-15.2a6.19,6.19,0,0,1,5.74-6.22,6.05,6.05,0,0,1,6.35,6h0v10.36a0.87,0.87,0,0,1-.86.86h-3.45a2.6,2.6,0,0,0-2.59,2.59v1.68a0.92,0.92,0,0,0,.73.91,0.85,0.85,0,0,0,1-.86v-2a0.87,0.87,0,0,1,.86-0.86h3.45a0.87,0.87,0,0,1,.86.86v2h0A6.05,6.05,0,0,1,356.65,185.35Zm20.16-11.22a0.87,0.87,0,0,1-.86.86h-3.45a2.6,2.6,0,0,0-2.59,2.59v1.68a0.92,0.92,0,0,0,.73.91,0.85,0.85,0,0,0,1-.86v-2a0.87,0.87,0,0,1,.86-0.86h3.45a0.87,0.87,0,0,1,.86.86v2a6.05,6.05,0,0,1-6.35,6,6.19,6.19,0,0,1-5.74-6.22v-15.2a6.19,6.19,0,0,1,5.74-6.22,6.05,6.05,0,0,1,6.35,6v10.36Z" style="fill:#bdbdbd"/><path d="M329.32,162.9a0.87,0.87,0,0,0-.86.86v15.54a0.86,0.86,0,1,0,1.73,0V163.77A0.87,0.87,0,0,0,329.32,162.9Z" style="fill:#bdbdbd"/><path d="M315.51,162.9a0.87,0.87,0,0,0-.86.86v15.54a0.86,0.86,0,0,0,1.73,0V163.77A0.87,0.87,0,0,0,315.51,162.9Z" style="fill:#bdbdbd"/></g></svg>