<?xml version="1.0" encoding="utf-8"?>
<!-- Generator: Adobe Illustrator 19.2.1, SVG Export Plug-In . SVG Version: 6.00 Build 0)  -->
<svg version="1.1" id="key" xmlns="http://www.w3.org/2000/svg" xmlns:xlink="http://www.w3.org/1999/xlink" x="0px" y="0px"
	 viewBox="0 0 650 650" style="enable-background:new 0 0 650 650;" xml:space="preserve">
<style type="text/css">
	.st0{fill:none;stroke:#616262;stroke-width:3;stroke-miterlimit:10;}
	.st1{fill:#616262;}
	.st2{fill:none;stroke:#F7941E;stroke-width:3;stroke-miterlimit:10;}
	.st3{fill:none;stroke:#BDBDBD;stroke-width:3;stroke-linecap:round;stroke-miterlimit:10;}
	.st4{fill:#5D89FB;}
	.st5{fill:#FFFFFF;}
	.st6{font-family:'Geogrotesque-SemiBold';}
	.st7{font-size:30px;}
	.st8{fill:none;stroke:#5D89FB;stroke-width:3;stroke-miterlimit:10;}
</style>
<title>illust_aws_key</title>
<g id="tag">
	<path class="st0" d="M37.1,389c0,2.2,1.8,4,4,4h184.4c2.6-0.1,5.1-0.9,7.2-2.4l48-35.3c1.9-1.6,3.1-3.9,3.2-6.4v-54
		c-0.1-2.5-1.4-4.7-3.3-6.2l-47.2-31c-2.2-1.3-4.8-2.1-7.3-2.2H41c-2.2,0-4,1.8-4,4L37.1,389L37.1,389z"/>
	<circle class="st0" cx="246.7" cy="322.7" r="14.7"/>
</g>
<path id="keychain_round_" class="st1" d="M292.9,322.4h53.2l0,0v3l0,0h-53.2c-0.8,0-1.5-0.7-1.5-1.5l0,0
	C291.4,323.1,292.1,322.4,292.9,322.4z"/>
<g id="key-2">
	<circle class="st0" cx="367.8" cy="323.9" r="23"/>
	<path class="st0" d="M599,306.7H468.6c-0.6,0-1-0.4-1-1v-11.5c0-0.6-0.4-1-1-1h-10.9c-0.4,0-0.7-0.2-0.9-0.6
		c-12.4-26.8-39.3-43.8-68.8-43.4c-40.8,0.5-74,34.3-73.8,75.1c0.2,41.3,33.9,74.5,75.1,74.3c27.2-0.1,52.2-15.1,65.2-38.9
		c0.2-0.3,0.5-0.5,0.9-0.5h13.1c0.6,0,1-0.4,1-1V346c0-0.6,0.4-1,1-1h59.2l17.9,17.9c0.4,0.4,1,0.4,1.4,0c0,0,0,0,0,0l15.6-17.1
		c0.4-0.4,1-0.4,1.4,0c0,0,0,0,0,0l16.9,17.1c0.4,0.4,1,0.4,1.4,0c0,0,0,0,0,0l34-36.1c0.4-0.4,0.4-1,0-1.4L599.7,307
		C599.5,306.8,599.2,306.7,599,306.7z"/>
	<path class="st1" d="M572.2,323.9c0,0.8-1.3,1.5-3,1.5h-47.7c-1.7,0-3-0.7-3-1.5s1.3-1.5,3-1.5h47.7
		C570.8,322.4,572.2,323.1,572.2,323.9z"/>
</g>
<path class="st2" d="M88.3,309.1c0.5-0.3,1.2-0.3,1.7,0l13.6,7.9c0.5,0.3,0.8,0.9,0.9,1.5v15.7c0,0.6-0.4,1.2-0.9,1.5L90,343.6
	c-0.5,0.3-1.2,0.3-1.7,0l-13.6-7.9c-0.5-0.3-0.8-0.9-0.9-1.5v-15.7c0-0.6,0.4-1.2,0.9-1.5L88.3,309.1z"/>
<path class="st2" d="M127.9,309.1c0.5-0.3,1.2-0.3,1.7,0l13.6,7.9c0.5,0.3,0.8,0.9,0.9,1.5v15.7c0,0.6-0.4,1.2-0.9,1.5l-13.6,7.9
	c-0.5,0.3-1.2,0.3-1.7,0l-13.6-7.9c-0.5-0.3-0.8-0.9-0.9-1.5v-15.7c0-0.6,0.4-1.2,0.9-1.5L127.9,309.1z"/>
<path class="st2" d="M108.1,342.4c0.5-0.3,1.2-0.3,1.7,0l13.6,7.9c0.5,0.3,0.8,0.9,0.9,1.5v15.7c0,0.6-0.4,1.2-0.9,1.5l-13.6,7.9
	c-0.5,0.3-1.2,0.3-1.7,0L94.5,369c-0.5-0.3-0.8-0.9-0.9-1.5v-15.7c0-0.6,0.4-1.2,0.9-1.5L108.1,342.4z"/>
<path class="st2" d="M148.6,276.7c0.5-0.3,1.2-0.3,1.7,0l13.7,7.9c0.5,0.3,0.8,0.9,0.9,1.5v15.7c0,0.6-0.4,1.2-0.9,1.5l-13.6,7.9
	c-0.5,0.3-1.2,0.3-1.7,0l-13.7-7.8c-0.5-0.3-0.8-0.9-0.9-1.5v-15.7c0-0.6,0.4-1.2,0.9-1.5L148.6,276.7z"/>
<path class="st2" d="M187.3,276.7c0.5-0.3,1.2-0.3,1.7,0l13.6,7.9c0.5,0.3,0.8,0.9,0.9,1.5v15.7c0,0.6-0.4,1.2-0.9,1.5l-13.7,7.9
	c-0.5,0.3-1.2,0.3-1.7,0l-13.6-7.9c-0.5-0.3-0.8-0.9-0.9-1.5v-15.7c0-0.6,0.4-1.2,0.9-1.5L187.3,276.7z"/>
<path id="keychain_round_2" class="st1" d="M270,325.4h-10.1l0,0v-3l0,0H270c0.8,0,1.5,0.7,1.5,1.5l0,0
	C271.5,324.7,270.8,325.4,270,325.4z"/>
<g id="sparkles">
	<line class="st3" x1="59.2" y1="187.4" x2="59.2" y2="211.4"/>
	<line class="st3" x1="47.2" y1="199.4" x2="71.2" y2="199.4"/>
	<circle class="st3" cx="74.2" cy="424.3" r="7.7"/>
	<line class="st3" x1="199" y1="438.4" x2="199" y2="454.4"/>
	<line class="st3" x1="191" y1="446.4" x2="207" y2="446.4"/>
	<line class="st3" x1="539" y1="220.4" x2="539" y2="236.4"/>
	<line class="st3" x1="531" y1="228.4" x2="547" y2="228.4"/>
	<circle class="st3" cx="588.2" cy="268.3" r="7.7"/>
</g>
<g>
	<circle class="st4" cx="265.5" cy="156.8" r="33.5"/>
	<text transform="matrix(1 0 0 1 257 166.6935)" class="st5 st6 st7">1</text>
</g>
<path class="st8" d="M265.5,190.3c0,0,0,30.8,0,42c0,0,222.8,0,222.8,0"/>
<polyline class="st8" points="488.3,232.5 507,232.5 507,299.6 "/>
<line class="st8" x1="507" y1="354.2" x2="507" y2="472.3"/>
<line class="st8" x1="291" y1="472.3" x2="507" y2="472.3"/>
<line class="st8" x1="291.4" y1="553" x2="291.4" y2="472.3"/>
</svg>
