<svg id="key" xmlns="http://www.w3.org/2000/svg" viewBox="0 0 650 650"><title>illust_aws_key</title><g id="tag"><path d="M37.06,389a4,4,0,0,0,4,4H225.47a14.3,14.3,0,0,0,7.22-2.37l48-35.26a8.92,8.92,0,0,0,3.22-6.37V295a8.29,8.29,0,0,0-3.34-6.19l-47.19-30.95a15.79,15.79,0,0,0-7.34-2.19h-185a4,4,0,0,0-4,4V389Z" style="fill:none;stroke:#333132;stroke-miterlimit:10;stroke-width:3px"/><circle cx="246.73" cy="322.7" r="14.66" style="fill:none;stroke:#333132;stroke-miterlimit:10;stroke-width:3px"/></g><path id="keychain_round_" data-name="keychain (round)" d="M292.89,322.41h53.18a0,0,0,0,1,0,0v3a0,0,0,0,1,0,0H292.89a1.5,1.5,0,0,1-1.5-1.5v0A1.5,1.5,0,0,1,292.89,322.41Z" style="fill:#231f20"/><g id="key-2" data-name="key"><circle cx="367.75" cy="323.91" r="23.02" style="fill:none;stroke:#333132;stroke-miterlimit:10;stroke-width:3px"/><path d="M598.95,306.68H468.56a1,1,0,0,1-1-1v-11.5a1,1,0,0,0-1-1H455.69a1,1,0,0,1-.9-0.58A74.72,74.72,0,0,0,386,249.2c-40.81.5-74,34.29-73.79,75.1a74.72,74.72,0,0,0,140.31,35.39,1,1,0,0,1,.87-0.52h13.15a1,1,0,0,0,1-1V346a1,1,0,0,1,1-1h59.17l17.93,17.93a1,1,0,0,0,1.45,0l15.58-17.11a1,1,0,0,1,1.45,0L581,362.93a1,1,0,0,0,1.44,0l34-36.07a1,1,0,0,0,0-1.36L599.69,307A1,1,0,0,0,598.95,306.68Z" style="fill:none;stroke:#333132;stroke-miterlimit:10;stroke-width:3px"/><path d="M572.16,323.91c0,0.82-1.35,1.5-3,1.5h-47.7c-1.65,0-3-.68-3-1.5s1.35-1.5,3-1.5h47.7C570.81,322.41,572.16,323.09,572.16,323.91Z" style="fill:#231f20"/></g><path d="M88.31,309.12a1.92,1.92,0,0,1,1.73,0L103.66,317a1.92,1.92,0,0,1,.87,1.5v15.72a1.92,1.92,0,0,1-.87,1.5L90,343.57a1.92,1.92,0,0,1-1.73,0l-13.62-7.86a1.92,1.92,0,0,1-.87-1.5V318.48a1.92,1.92,0,0,1,.87-1.5Z" style="fill:none;stroke:#f7941e;stroke-miterlimit:10;stroke-width:3px"/><path d="M127.91,309.12a1.92,1.92,0,0,1,1.73,0L143.26,317a1.92,1.92,0,0,1,.87,1.5v15.72a1.92,1.92,0,0,1-.87,1.5l-13.62,7.86a1.92,1.92,0,0,1-1.73,0l-13.62-7.86a1.92,1.92,0,0,1-.87-1.5V318.48a1.92,1.92,0,0,1,.87-1.5Z" style="fill:none;stroke:#f7941e;stroke-miterlimit:10;stroke-width:3px"/><path d="M108.11,342.42a1.92,1.92,0,0,1,1.73,0l13.62,7.86a1.92,1.92,0,0,1,.87,1.5v15.72a1.92,1.92,0,0,1-.87,1.5l-13.62,7.86a1.92,1.92,0,0,1-1.73,0L94.49,369a1.92,1.92,0,0,1-.87-1.5V351.78a1.92,1.92,0,0,1,.87-1.5Z" style="fill:none;stroke:#f7941e;stroke-miterlimit:10;stroke-width:3px"/><path d="M148.61,276.72a1.92,1.92,0,0,1,1.73,0L164,284.58a1.92,1.92,0,0,1,.87,1.5v15.72a1.92,1.92,0,0,1-.87,1.5l-13.62,7.86a1.92,1.92,0,0,1-1.73,0L135,303.31a1.92,1.92,0,0,1-.87-1.5V286.08a1.92,1.92,0,0,1,.87-1.5Z" style="fill:none;stroke:#f7941e;stroke-miterlimit:10;stroke-width:3px"/><path d="M187.31,276.72a1.92,1.92,0,0,1,1.73,0l13.62,7.86a1.92,1.92,0,0,1,.87,1.5v15.72a1.92,1.92,0,0,1-.87,1.5L189,311.17a1.92,1.92,0,0,1-1.73,0l-13.62-7.86a1.92,1.92,0,0,1-.87-1.5V286.08a1.92,1.92,0,0,1,.87-1.5Z" style="fill:none;stroke:#f7941e;stroke-miterlimit:10;stroke-width:3px"/><path id="keychain_round_2" data-name="keychain (round)" d="M261.39,322.41h10.07a0,0,0,0,1,0,0v3a0,0,0,0,1,0,0H261.39a1.5,1.5,0,0,1-1.5-1.5v0A1.5,1.5,0,0,1,261.39,322.41Z" transform="translate(531.35 647.82) rotate(180)" style="fill:#231f20"/><g id="sparkles"><line x1="59.24" y1="187.36" x2="59.24" y2="211.36" style="fill:none;stroke:#231f20;stroke-linecap:round;stroke-miterlimit:10;stroke-width:3px"/><line x1="47.24" y1="199.36" x2="71.24" y2="199.36" style="fill:none;stroke:#231f20;stroke-linecap:round;stroke-miterlimit:10;stroke-width:3px"/><circle cx="74.21" cy="424.27" r="7.67" style="fill:none;stroke:#231f20;stroke-linecap:round;stroke-miterlimit:10;stroke-width:3px"/><line x1="342" y1="432.36" x2="342" y2="456.36" style="fill:none;stroke:#231f20;stroke-linecap:round;stroke-miterlimit:10;stroke-width:3px"/><line x1="330" y1="444.36" x2="354" y2="444.36" style="fill:none;stroke:#231f20;stroke-linecap:round;stroke-miterlimit:10;stroke-width:3px"/><line x1="299" y1="418.36" x2="299" y2="434.36" style="fill:none;stroke:#231f20;stroke-linecap:round;stroke-miterlimit:10;stroke-width:3px"/><line x1="291" y1="426.36" x2="307" y2="426.36" style="fill:none;stroke:#231f20;stroke-linecap:round;stroke-miterlimit:10;stroke-width:3px"/><line x1="539" y1="220.36" x2="539" y2="236.36" style="fill:none;stroke:#231f20;stroke-linecap:round;stroke-miterlimit:10;stroke-width:3px"/><line x1="531" y1="228.36" x2="547" y2="228.36" style="fill:none;stroke:#231f20;stroke-linecap:round;stroke-miterlimit:10;stroke-width:3px"/><circle cx="588.21" cy="268.27" r="7.67" style="fill:none;stroke:#231f20;stroke-linecap:round;stroke-miterlimit:10;stroke-width:3px"/></g></svg>