<svg id="Layer_1" data-name="Layer 1" xmlns="http://www.w3.org/2000/svg" viewBox="0 0 650 650"><title>illust_checks</title><circle cx="156.17" cy="204.74" r="43.7" style="fill:none;stroke:#5d89fb;stroke-miterlimit:10;stroke-width:3px"/><polyline points="173.12 189.42 152.25 220.07 139.21 207.02" style="fill:none;stroke:#5d89fb;stroke-miterlimit:10;stroke-width:3px"/><circle cx="156.17" cy="317.79" r="43.7" style="fill:none;stroke:#5d89fb;stroke-miterlimit:10;stroke-width:3px"/><polyline points="173.12 302.46 152.25 333.12 139.21 320.07" style="fill:none;stroke:#5d89fb;stroke-miterlimit:10;stroke-width:3px"/><circle cx="156.17" cy="429.39" r="43.7" style="fill:none;stroke:#5d89fb;stroke-miterlimit:10;stroke-width:3px"/><polyline points="173.12 414.06 152.25 444.72 139.21 431.67" style="fill:none;stroke:#5d89fb;stroke-miterlimit:10;stroke-width:3px"/><g id="sparkles"><line x1="71" y1="139.05" x2="71" y2="163.05" style="fill:none;stroke:#bdbcbc;stroke-linecap:round;stroke-miterlimit:10;stroke-width:3px"/><line x1="59" y1="151.05" x2="83" y2="151.05" style="fill:none;stroke:#bdbcbc;stroke-linecap:round;stroke-miterlimit:10;stroke-width:3px"/><line x1="63" y1="480.36" x2="63" y2="496.36" style="fill:none;stroke:#bdbcbc;stroke-linecap:round;stroke-miterlimit:10;stroke-width:3px"/><line x1="55" y1="488.36" x2="71" y2="488.36" style="fill:none;stroke:#bdbcbc;stroke-linecap:round;stroke-miterlimit:10;stroke-width:3px"/><line x1="573" y1="259.36" x2="573" y2="275.36" style="fill:none;stroke:#bdbcbc;stroke-linecap:round;stroke-miterlimit:10;stroke-width:3px"/><line x1="565" y1="267.36" x2="581" y2="267.36" style="fill:none;stroke:#bdbcbc;stroke-linecap:round;stroke-miterlimit:10;stroke-width:3px"/><circle cx="505.97" cy="478.91" r="7.67" style="fill:none;stroke:#bdbcbc;stroke-linecap:round;stroke-miterlimit:10;stroke-width:3px"/><circle cx="113" cy="516.72" r="7.67" style="fill:none;stroke:#bdbcbc;stroke-linecap:round;stroke-miterlimit:10;stroke-width:3px"/></g><path d="M220.64,214.74a0.43,0.43,0,0,1-.46-0.52V191.46a0.44,0.44,0,0,1,.49-0.53h11.94a0.45,0.45,0,0,1,.52.53v1.08a0.45,0.45,0,0,1-.52.52h-10v8.16H232a0.44,0.44,0,0,1,.53.52v1a0.44,0.44,0,0,1-.53.52h-9.35v9.31H233a0.44,0.44,0,0,1,.52.49v1.12a0.45,0.45,0,0,1-.52.52H220.64Z" style="fill:#616262"/><path d="M240.52,214.22a0.44,0.44,0,0,1-.49.52h-1.4a0.45,0.45,0,0,1-.53-0.52V190.8a0.45,0.45,0,0,1,.53-0.53H240a0.44,0.44,0,0,1,.49.53v23.42Z" style="fill:#616262"/><path d="M245.84,201.62c0-2.62,1.57-4.45,6.3-4.45s6.3,1.82,6.3,4.45v12.6a0.44,0.44,0,0,1-.49.52h-1.26a0.46,0.46,0,0,1-.53-0.52L256.1,213a9.22,9.22,0,0,1-5.78,2.07c-3.26,0-4.83-1.86-4.83-4.13v-1.75c0-2.28,1.5-4.13,4.55-4.13h6v-3.15c0-1.58-.84-2.7-4-2.7s-4,1.05-4,2.63v0.42a0.46,0.46,0,0,1-.52.56h-1.26a0.45,0.45,0,0,1-.49-0.56v-0.6ZM256.06,211v-4.1H250.5c-1.89,0-2.66,1-2.66,2.52v1.12c0,1.54.94,2.42,3,2.42A8.49,8.49,0,0,0,256.06,211Z" style="fill:#616262"/><path d="M273.14,201.16c0-1.37-1.26-2.17-3.89-2.17s-3.82.8-3.82,2.17v0.91a2.24,2.24,0,0,0,1.79,1.93l5.39,1.75c1.75,0.56,3,1.68,3,3.33v2c0,2.1-1.89,4-6.37,4s-6.34-1.86-6.34-4v-0.95a0.43,0.43,0,0,1,.49-0.49h1.3a0.4,0.4,0,0,1,.46.49V211c0,1.4,1.4,2.21,4.1,2.21s4.13-.81,4.13-2.21v-1.3c0-1-.87-1.58-2.06-2l-5.39-1.79a3.84,3.84,0,0,1-2.7-3.4v-1.37c0-2.1,1.58-4,6.06-4s6.09,1.89,6.09,4v1a0.41,0.41,0,0,1-.49.46H273.6a0.39,0.39,0,0,1-.46-0.46v-1Z" style="fill:#616262"/><path d="M287.14,197.52a0.44,0.44,0,0,1,.52.49v1a0.46,0.46,0,0,1-.52.52h-3.92V210c0,1.65.94,2.7,4.06,2.7h0.59a0.45,0.45,0,0,1,.53.53v1a0.45,0.45,0,0,1-.53.52H287c-4.8,0-6.2-1.68-6.2-4.52V199.52h-2.1a0.44,0.44,0,0,1-.49-0.52v-0.84a0.45,0.45,0,0,1,.49-0.52l1.82-.1h0.28v-3.71a0.46,0.46,0,0,1,.52-0.52h1.44a0.44,0.44,0,0,1,.49.52v3.71h3.92Z" style="fill:#616262"/><path d="M294.59,194.05a0.44,0.44,0,0,1-.49.52h-1.4a0.45,0.45,0,0,1-.53-0.52V190.8a0.45,0.45,0,0,1,.53-0.53h1.4a0.44,0.44,0,0,1,.49.53v3.26Zm0,20.16a0.44,0.44,0,0,1-.49.52h-1.4a0.45,0.45,0,0,1-.53-0.52V198a0.45,0.45,0,0,1,.53-0.53h1.4a0.44,0.44,0,0,1,.49.53v16.24Z" style="fill:#616262"/><path d="M312.51,201.69v0.67a0.45,0.45,0,0,1-.52.52h-1.3a0.45,0.45,0,0,1-.52-0.52v-0.53c0-1.61-.87-2.66-4-2.66s-4,1.05-4,2.66v8.51c0,1.65.88,2.7,4,2.7s4-1,4-2.7v-0.77a0.44,0.44,0,0,1,.52-0.52H312a0.44,0.44,0,0,1,.52.52v0.95c0,2.7-1.61,4.52-6.41,4.52s-6.34-1.82-6.34-4.52v-8.82c0-2.7,1.58-4.52,6.37-4.52S312.51,199,312.51,201.69Z" style="fill:#616262"/><path d="M327.67,212.61h9.8a0.42,0.42,0,0,1,.49.49v1.12a0.43,0.43,0,0,1-.49.52H325.6a0.42,0.42,0,0,1-.42-0.52V191.46a0.44,0.44,0,0,1,.49-0.53h1.5a0.44,0.44,0,0,1,.49.53v21.14Z" style="fill:#616262"/><path d="M341.28,201.69c0-2.7,1.79-4.52,6.58-4.52s6.62,1.82,6.62,4.52v8.82c0,2.7-1.82,4.52-6.62,4.52s-6.58-1.82-6.58-4.52v-8.82Zm10.78,0.17c0-1.65-1.08-2.7-4.2-2.7s-4.17,1.05-4.17,2.7v8.47c0,1.65,1.08,2.7,4.17,2.7s4.2-1,4.2-2.7v-8.47Z" style="fill:#616262"/><path d="M359.38,201.62c0-2.62,1.58-4.45,6.3-4.45s6.3,1.82,6.3,4.45v12.6a0.44,0.44,0,0,1-.49.52h-1.26a0.46,0.46,0,0,1-.52-0.52L369.63,213a9.22,9.22,0,0,1-5.78,2.07c-3.26,0-4.83-1.86-4.83-4.13v-1.75c0-2.28,1.51-4.13,4.55-4.13h6v-3.15c0-1.58-.84-2.7-4-2.7s-4,1.05-4,2.63v0.42a0.46,0.46,0,0,1-.53.56h-1.26a0.45,0.45,0,0,1-.49-0.56v-0.6ZM369.6,211v-4.1H364c-1.89,0-2.66,1-2.66,2.52v1.12c0,1.54.95,2.42,3,2.42A8.49,8.49,0,0,0,369.6,211Z" style="fill:#616262"/><path d="M387.73,212.92a9.44,9.44,0,0,1-6,2.1c-3.36,0-4.87-1.82-4.87-4.48v-8.89c0-2.66,1.51-4.48,4.87-4.48a9.73,9.73,0,0,1,5.92,2.06V190.8a0.43,0.43,0,0,1,.49-0.53h1.4a0.45,0.45,0,0,1,.52.53v23.42a0.45,0.45,0,0,1-.52.52h-1.26a0.46,0.46,0,0,1-.52-0.52Zm-8.4-2.73c0,1.44.84,2.63,3.08,2.63a8.88,8.88,0,0,0,5.29-2v-9.49a8.64,8.64,0,0,0-5.29-2c-2.24,0-3.08,1.19-3.08,2.63v8.19Z" style="fill:#616262"/><path d="M404.39,214.74a0.44,0.44,0,0,1-.49-0.52V191.46a0.44,0.44,0,0,1,.49-0.53h6c5.78,0,7.56,2.14,7.56,4.9v2.31a4,4,0,0,1-3.15,4.13c2.83,0.63,4.13,2.17,4.13,4.31v3.12c0,2.8-1.79,5-7.6,5h-7Zm2-21.74v8.51h4.41c3.4,0,4.76-1.37,4.76-3.4v-1.89c0-2.06-1.4-3.22-5.11-3.22h-4.06Zm0,10.47v9.21h5c3.75,0,5.11-1.33,5.11-3.36v-2.59c0-1.93-1.37-3.26-5.11-3.26h-5Z" style="fill:#616262"/><path d="M423.6,201.62c0-2.62,1.58-4.45,6.3-4.45s6.3,1.82,6.3,4.45v12.6a0.44,0.44,0,0,1-.49.52h-1.26a0.46,0.46,0,0,1-.52-0.52L433.86,213a9.22,9.22,0,0,1-5.78,2.07c-3.26,0-4.83-1.86-4.83-4.13v-1.75c0-2.28,1.51-4.13,4.55-4.13h6v-3.15c0-1.58-.84-2.7-4-2.7s-4,1.05-4,2.63v0.42a0.46,0.46,0,0,1-.53.56h-1.26a0.45,0.45,0,0,1-.49-0.56v-0.6ZM433.82,211v-4.1h-5.57c-1.89,0-2.66,1-2.66,2.52v1.12c0,1.54.95,2.42,3,2.42A8.49,8.49,0,0,0,433.82,211Z" style="fill:#616262"/><path d="M443.94,214.22a0.44,0.44,0,0,1-.49.52H442a0.45,0.45,0,0,1-.52-0.52V190.8a0.45,0.45,0,0,1,.52-0.53h1.4a0.44,0.44,0,0,1,.49.53v23.42Z" style="fill:#616262"/><path d="M449.26,201.62c0-2.62,1.58-4.45,6.3-4.45s6.3,1.82,6.3,4.45v12.6a0.44,0.44,0,0,1-.49.52h-1.26a0.46,0.46,0,0,1-.52-0.52L459.51,213a9.22,9.22,0,0,1-5.78,2.07c-3.26,0-4.83-1.86-4.83-4.13v-1.75c0-2.28,1.51-4.13,4.55-4.13h6v-3.15c0-1.58-.84-2.7-4-2.7s-4,1.05-4,2.63v0.42a0.46,0.46,0,0,1-.53.56h-1.26a0.45,0.45,0,0,1-.49-0.56v-0.6ZM459.48,211v-4.1h-5.57c-1.89,0-2.66,1-2.66,2.52v1.12c0,1.54.95,2.42,3,2.42A8.49,8.49,0,0,0,459.48,211Z" style="fill:#616262"/><path d="M469.49,198l0.07,1.33a9.18,9.18,0,0,1,6-2.14c3.26,0,4.83,1.82,4.83,4.31v12.74a0.44,0.44,0,0,1-.49.52h-1.4a0.46,0.46,0,0,1-.52-0.52V202c0-1.58-.84-2.66-3.08-2.66a8.66,8.66,0,0,0-5.29,2v12.92a0.44,0.44,0,0,1-.49.52h-1.4a0.45,0.45,0,0,1-.52-0.52V198a0.45,0.45,0,0,1,.52-0.53H469A0.46,0.46,0,0,1,469.49,198Z" style="fill:#616262"/><path d="M498,201.69v0.67a0.45,0.45,0,0,1-.53.52h-1.29a0.45,0.45,0,0,1-.53-0.52v-0.53c0-1.61-.87-2.66-4-2.66s-4,1.05-4,2.66v8.51c0,1.65.88,2.7,4,2.7s4-1,4-2.7v-0.77a0.44,0.44,0,0,1,.53-0.52h1.29a0.44,0.44,0,0,1,.53.52v0.95c0,2.7-1.61,4.52-6.41,4.52s-6.34-1.82-6.34-4.52v-8.82c0-2.7,1.58-4.52,6.37-4.52S498,199,498,201.69Z" style="fill:#616262"/><path d="M514.85,206a0.43,0.43,0,0,1-.49.49h-9.91v3.89c0,1.61.84,2.7,4.06,2.7s4.06-1.08,4.06-2.7v-0.6a0.42,0.42,0,0,1,.49-0.49h1.26a0.44,0.44,0,0,1,.52.49v0.74c0,2.7-1.58,4.52-6.41,4.52s-6.37-1.82-6.37-4.52v-8.82c0-2.7,1.61-4.52,6.44-4.52s6.33,1.82,6.33,4.52V206Zm-10.4-1.37h8.12v-2.8c0-1.58-1-2.7-4.06-2.7s-4.06,1.12-4.06,2.7v2.8Z" style="fill:#616262"/><path d="M528.36,197.69v1.16a0.49,0.49,0,0,1-.56.52,10.25,10.25,0,0,0-5.71,2.35v12.5a0.44,0.44,0,0,1-.49.52h-1.4a0.45,0.45,0,0,1-.52-0.52V198a0.45,0.45,0,0,1,.52-0.53h1.26a0.46,0.46,0,0,1,.52.53l0.11,1.71a8.88,8.88,0,0,1,5.71-2.52A0.49,0.49,0,0,1,528.36,197.69Z" style="fill:#616262"/><path d="M227,311.13c-3.68,0-4.83,1.3-4.83,3.33v1a2.8,2.8,0,0,0,2,2.73l6.58,2.49c1.89,0.7,3.64,2.1,3.64,4.55v3c0,2.8-1.82,5.11-7.49,5.11s-7.49-2.31-7.49-5.11v-1.93a0.43,0.43,0,0,1,.49-0.52h1.44a0.43,0.43,0,0,1,.49.52V328c0,2,1.33,3.33,5,3.33S232,330,232,328V325.8c0-1.82-1.54-2.56-2.91-3.08l-6.27-2.42a4.59,4.59,0,0,1-3-4.2v-2c0-2.8,1.65-5.11,7.21-5.11s7.28,2.31,7.28,5.11v1.65a0.45,0.45,0,0,1-.53.52h-1.44a0.44,0.44,0,0,1-.49-0.52v-1.33C231.84,312.43,230.69,311.13,227,311.13Z" style="fill:#616262"/><path d="M251.93,324.37a0.43,0.43,0,0,1-.49.49h-9.91v3.89c0,1.61.84,2.7,4.06,2.7s4.06-1.08,4.06-2.7v-0.6a0.42,0.42,0,0,1,.49-0.49h1.26a0.44,0.44,0,0,1,.53.49v0.74c0,2.7-1.58,4.52-6.41,4.52s-6.37-1.82-6.37-4.52v-8.82c0-2.7,1.61-4.52,6.44-4.52s6.34,1.82,6.34,4.52v4.31ZM241.54,323h8.12v-2.8c0-1.58-1-2.7-4.06-2.7s-4.06,1.12-4.06,2.7V323Z" style="fill:#616262"/><path d="M269.12,320.06v0.67a0.45,0.45,0,0,1-.52.52h-1.3a0.45,0.45,0,0,1-.52-0.52V320.2c0-1.61-.87-2.66-4-2.66s-4,1.05-4,2.66v8.51c0,1.65.88,2.7,4,2.7s4-1,4-2.7v-0.77a0.44,0.44,0,0,1,.52-0.52h1.3a0.44,0.44,0,0,1,.52.52v0.95c0,2.7-1.61,4.52-6.41,4.52s-6.34-1.82-6.34-4.52v-8.82c0-2.7,1.58-4.52,6.37-4.52S269.12,317.37,269.12,320.06Z" style="fill:#616262"/><path d="M283.92,331.33a8.61,8.61,0,0,1-5.74,2.07c-3.26,0-4.87-1.79-4.87-4.27V316.35a0.44,0.44,0,0,1,.49-0.53h1.44a0.44,0.44,0,0,1,.49.53v12.22c0,1.61.88,2.66,3.12,2.66a7.85,7.85,0,0,0,5-1.93v-13a0.44,0.44,0,0,1,.49-0.53h1.44a0.44,0.44,0,0,1,.49.53v16.24a0.43,0.43,0,0,1-.49.52h-1.3a0.45,0.45,0,0,1-.52-0.52Z" style="fill:#616262"/><path d="M300.51,316.07v1.16a0.49,0.49,0,0,1-.56.52,10.25,10.25,0,0,0-5.71,2.35v12.5a0.44,0.44,0,0,1-.49.52h-1.4a0.45,0.45,0,0,1-.53-0.52V316.35a0.45,0.45,0,0,1,.53-0.53h1.26a0.46,0.46,0,0,1,.53.53l0.1,1.71a8.88,8.88,0,0,1,5.71-2.52A0.49,0.49,0,0,1,300.51,316.07Z" style="fill:#616262"/><path d="M306.32,312.43a0.44,0.44,0,0,1-.49.52h-1.4a0.45,0.45,0,0,1-.53-0.52v-3.26a0.45,0.45,0,0,1,.53-0.53h1.4a0.44,0.44,0,0,1,.49.53v3.26Zm0,20.16a0.44,0.44,0,0,1-.49.52h-1.4a0.45,0.45,0,0,1-.53-0.52V316.35a0.45,0.45,0,0,1,.53-0.53h1.4a0.44,0.44,0,0,1,.49.53v16.24Z" style="fill:#616262"/><path d="M319,315.9a0.44,0.44,0,0,1,.52.49v1a0.46,0.46,0,0,1-.52.52h-3.92v10.47c0,1.65.94,2.7,4.06,2.7h0.59a0.45,0.45,0,0,1,.53.53v1a0.45,0.45,0,0,1-.53.52h-0.91c-4.8,0-6.2-1.68-6.2-4.52V317.89h-2.1a0.44,0.44,0,0,1-.49-0.52v-0.84a0.45,0.45,0,0,1,.49-0.52l1.82-.1h0.28v-3.71a0.46,0.46,0,0,1,.52-0.52h1.44a0.44,0.44,0,0,1,.49.52v3.71H319Z" style="fill:#616262"/><path d="M328.33,328a18.83,18.83,0,0,1,.49,2.1c0-.14.32-1.29,0.56-2l4-11.69a0.6,0.6,0,0,1,.59-0.53h1.33c0.39,0,.56.21,0.46,0.53l-8,23.49a0.63,0.63,0,0,1-.59.53h-1.08a0.38,0.38,0,0,1-.42-0.53l2.1-6.58-5.85-16.91a0.4,0.4,0,0,1,.46-0.53h1.44a0.6,0.6,0,0,1,.59.53Z" style="fill:#616262"/><path d="M346.6,328.92V320c0-2.66,1.51-4.48,4.87-4.48a9.34,9.34,0,0,1,6,2.14l0.07-1.33a0.46,0.46,0,0,1,.52-0.53h1.26a0.45,0.45,0,0,1,.52.53v19.46c0,2.7-1.75,4.52-6.54,4.52h-4.76a0.44,0.44,0,0,1-.53-0.49v-1a0.44,0.44,0,0,1,.53-0.49h4.76c3.12,0,4.13-1.08,4.13-2.7v-4.24a9.74,9.74,0,0,1-5.92,2C348.11,333.4,346.6,331.58,346.6,328.92Zm2.42-.35c0,1.43.84,2.63,3.08,2.63a8.88,8.88,0,0,0,5.29-2v-9.49a8.64,8.64,0,0,0-5.29-2c-2.24,0-3.08,1.19-3.08,2.63v8.19Z" style="fill:#616262"/><path d="M374,316.07v1.16a0.49,0.49,0,0,1-.56.52,10.25,10.25,0,0,0-5.71,2.35v12.5a0.44,0.44,0,0,1-.49.52h-1.4a0.45,0.45,0,0,1-.52-0.52V316.35a0.45,0.45,0,0,1,.52-0.53h1.26a0.46,0.46,0,0,1,.52.53l0.11,1.71a8.88,8.88,0,0,1,5.71-2.52A0.49,0.49,0,0,1,374,316.07Z" style="fill:#616262"/><path d="M377,320.06c0-2.7,1.79-4.52,6.58-4.52s6.62,1.82,6.62,4.52v8.82c0,2.7-1.82,4.52-6.62,4.52s-6.58-1.82-6.58-4.52v-8.82Zm10.78,0.17c0-1.65-1.08-2.7-4.2-2.7s-4.17,1.05-4.17,2.7v8.47c0,1.65,1.08,2.7,4.17,2.7s4.2-1,4.2-2.7v-8.47Z" style="fill:#616262"/><path d="M405.75,331.33A8.61,8.61,0,0,1,400,333.4c-3.26,0-4.87-1.79-4.87-4.27V316.35a0.44,0.44,0,0,1,.49-0.53h1.44a0.44,0.44,0,0,1,.49.53v12.22c0,1.61.88,2.66,3.12,2.66a7.85,7.85,0,0,0,5-1.93v-13a0.44,0.44,0,0,1,.49-0.53h1.44a0.44,0.44,0,0,1,.49.53v16.24a0.43,0.43,0,0,1-.49.52h-1.29a0.45,0.45,0,0,1-.53-0.52Z" style="fill:#616262"/><path d="M416,316.35l0.07,1.33a9.29,9.29,0,0,1,6-2.14c3.33,0,4.83,1.82,4.83,4.48v8.89c0,2.66-1.51,4.48-4.83,4.48a9.68,9.68,0,0,1-6-2v8.47a0.42,0.42,0,0,1-.49.49h-1.4a0.43,0.43,0,0,1-.52-0.49V316.35a0.45,0.45,0,0,1,.52-0.53h1.26A0.46,0.46,0,0,1,416,316.35Zm8.47,4c0-1.44-.81-2.63-3.08-2.63a8.55,8.55,0,0,0-5.29,2v9.49a8.78,8.78,0,0,0,5.29,2c2.28,0,3.08-1.19,3.08-2.62v-8.19Z" style="fill:#616262"/><path d="M222.64,435v9.17a0.43,0.43,0,0,1-.49.53h-1.47a0.44,0.44,0,0,1-.49-0.53V421.44a0.43,0.43,0,0,1,.46-0.53h6.93c5.81,0,7.6,2.31,7.6,5.11v3.92c0,2.17-1.08,4.06-4.34,4.76l4.55,9.49c0.14,0.32-.1.53-0.49,0.53h-1.47a0.67,0.67,0,0,1-.63-0.53L228.45,435h-5.81Zm0-12v9.87h4.94c3.75,0,5.11-1.33,5.11-3.4v-3.12c0-2-1.37-3.36-5.11-3.36h-4.94Z" style="fill:#616262"/><path d="M241.26,444.72c-0.31,0-.42-0.17-0.42-0.53V421.44a0.43,0.43,0,0,1,.45-0.53h7.07c5.78,0,7.6,2.31,7.6,5.11v13.58c0,2.8-1.82,5.11-7.6,5.11h-7.11Zm2-21.67v19.53h5.08c3.75,0,5.11-1.33,5.11-3.36V426.41c0-2-1.37-3.36-5.11-3.36h-5.08Z" style="fill:#616262"/><path d="M268.77,422.73c-3.68,0-4.83,1.29-4.83,3.33v1.05a2.8,2.8,0,0,0,2,2.73l6.58,2.49c1.89,0.7,3.64,2.1,3.64,4.55v3c0,2.8-1.82,5.11-7.49,5.11s-7.49-2.31-7.49-5.11V438a0.43,0.43,0,0,1,.49-0.53h1.44a0.43,0.43,0,0,1,.49.53v1.61c0,2,1.33,3.33,5,3.33s5.08-1.29,5.08-3.33V437.4c0-1.82-1.54-2.56-2.91-3.08l-6.27-2.42a4.59,4.59,0,0,1-3-4.2v-2c0-2.8,1.65-5.11,7.21-5.11s7.28,2.31,7.28,5.11v1.64a0.45,0.45,0,0,1-.53.53h-1.44a0.44,0.44,0,0,1-.49-0.53v-1.33C273.56,424,272.41,422.73,268.77,422.73Z" style="fill:#616262"/><path d="M289.94,444.72c-0.31,0-.42-0.17-0.42-0.53V421.44a0.43,0.43,0,0,1,.46-0.53H297c5.78,0,7.6,2.31,7.6,5.11v13.58c0,2.8-1.82,5.11-7.6,5.11h-7.11ZM292,423v19.53H297c3.75,0,5.11-1.33,5.11-3.36V426.41c0-2-1.37-3.36-5.11-3.36H292Z" style="fill:#616262"/><path d="M309.92,431.59c0-2.63,1.58-4.45,6.3-4.45s6.3,1.82,6.3,4.45v12.6a0.44,0.44,0,0,1-.49.53h-1.26a0.46,0.46,0,0,1-.53-0.53l-0.07-1.26A9.22,9.22,0,0,1,314.4,445c-3.25,0-4.83-1.86-4.83-4.13v-1.75c0-2.28,1.5-4.13,4.55-4.13h6v-3.15c0-1.58-.84-2.7-4-2.7s-4,1-4,2.63v0.42a0.46,0.46,0,0,1-.52.56h-1.26a0.45,0.45,0,0,1-.49-0.56v-0.59ZM320.15,441v-4.1h-5.57c-1.89,0-2.66,1-2.66,2.52v1.12c0,1.54.94,2.42,3,2.42A8.49,8.49,0,0,0,320.15,441Z" style="fill:#616262"/><path d="M334.95,427.5a0.44,0.44,0,0,1,.53.49v1a0.46,0.46,0,0,1-.53.53H331V440c0,1.65.95,2.7,4.06,2.7h0.59a0.45,0.45,0,0,1,.53.53v1a0.45,0.45,0,0,1-.53.53h-0.91c-4.8,0-6.2-1.68-6.2-4.52V429.49h-2.1A0.44,0.44,0,0,1,326,429v-0.84a0.45,0.45,0,0,1,.49-0.53l1.82-.1h0.28v-3.71a0.46,0.46,0,0,1,.52-0.52h1.44a0.44,0.44,0,0,1,.49.52v3.71h3.92Z" style="fill:#616262"/><path d="M339.74,431.59c0-2.63,1.58-4.45,6.3-4.45s6.3,1.82,6.3,4.45v12.6a0.44,0.44,0,0,1-.49.53h-1.26a0.46,0.46,0,0,1-.52-0.53L350,442.93a9.22,9.22,0,0,1-5.78,2.07c-3.26,0-4.83-1.86-4.83-4.13v-1.75c0-2.28,1.51-4.13,4.55-4.13h6v-3.15c0-1.58-.84-2.7-4-2.7s-4,1-4,2.63v0.42a0.46,0.46,0,0,1-.53.56h-1.26a0.45,0.45,0,0,1-.49-0.56v-0.59ZM350,441v-4.1H344.4c-1.89,0-2.66,1-2.66,2.52v1.12c0,1.54.95,2.42,3,2.42A8.49,8.49,0,0,0,350,441Z" style="fill:#616262"/><path d="M358.19,444.72a0.45,0.45,0,0,1-.52-0.53V420.77a0.45,0.45,0,0,1,.52-0.53h1.4a0.44,0.44,0,0,1,.49.53v8.44a9.58,9.58,0,0,1,6-2.07c3.33,0,4.83,1.82,4.83,4.48v8.89c0,2.66-1.51,4.48-4.83,4.48a9.3,9.3,0,0,1-6-2.1L360,444.19a0.46,0.46,0,0,1-.52.53h-1.26ZM368.44,432c0-1.44-.81-2.62-3.08-2.62a8.54,8.54,0,0,0-5.29,2v9.49a8.78,8.78,0,0,0,5.29,2c2.28,0,3.08-1.19,3.08-2.63V432Z" style="fill:#616262"/><path d="M375.76,431.59c0-2.63,1.58-4.45,6.3-4.45s6.3,1.82,6.3,4.45v12.6a0.44,0.44,0,0,1-.49.53h-1.26a0.46,0.46,0,0,1-.52-0.53L386,442.93a9.23,9.23,0,0,1-5.78,2.07c-3.26,0-4.83-1.86-4.83-4.13v-1.75c0-2.28,1.51-4.13,4.55-4.13h6v-3.15c0-1.58-.84-2.7-4-2.7s-4,1-4,2.63v0.42a0.46,0.46,0,0,1-.53.56h-1.26a0.45,0.45,0,0,1-.49-0.56v-0.59ZM386,441v-4.1h-5.57c-1.89,0-2.66,1-2.66,2.52v1.12c0,1.54.95,2.42,3,2.42A8.49,8.49,0,0,0,386,441Z" style="fill:#616262"/><path d="M403.06,431.14c0-1.37-1.26-2.17-3.89-2.17s-3.82.81-3.82,2.17V432a2.24,2.24,0,0,0,1.79,1.92l5.39,1.75c1.75,0.56,3,1.68,3,3.33v2c0,2.1-1.89,4-6.37,4s-6.34-1.86-6.34-4V440.1a0.43,0.43,0,0,1,.49-0.49h1.29a0.4,0.4,0,0,1,.46.49v0.84c0,1.4,1.4,2.21,4.1,2.21s4.13-.8,4.13-2.21v-1.29c0-1.05-.87-1.58-2.07-2l-5.39-1.79a3.83,3.83,0,0,1-2.7-3.39v-1.37c0-2.1,1.58-4,6.06-4s6.09,1.89,6.09,4v1a0.41,0.41,0,0,1-.49.46h-1.29a0.39,0.39,0,0,1-.46-0.46v-1Z" style="fill:#616262"/><path d="M422.34,436a0.43,0.43,0,0,1-.49.49h-9.91v3.89c0,1.61.84,2.7,4.06,2.7s4.06-1.09,4.06-2.7v-0.6a0.42,0.42,0,0,1,.49-0.49h1.26a0.44,0.44,0,0,1,.52.49v0.74c0,2.7-1.58,4.52-6.41,4.52s-6.37-1.82-6.37-4.52v-8.82c0-2.7,1.61-4.52,6.44-4.52s6.33,1.82,6.33,4.52V436Zm-10.4-1.37h8.12v-2.8c0-1.58-1-2.7-4.06-2.7s-4.06,1.12-4.06,2.7v2.8Z" style="fill:#616262"/></svg>