<?xml version="1.0" encoding="utf-8"?>
<!-- Generator: Adobe Illustrator 19.2.1, SVG Export Plug-In . SVG Version: 6.00 Build 0)  -->
<svg version="1.1" id="Layer_2" xmlns="http://www.w3.org/2000/svg" xmlns:xlink="http://www.w3.org/1999/xlink" x="0px" y="0px"
	 viewBox="0 0 650 500" style="enable-background:new 0 0 650 500;" xml:space="preserve">
<style type="text/css">
	.st0{fill:#FFFFFF;}
	.st1{fill:none;stroke:#616161;stroke-width:3;stroke-miterlimit:10;}
	.st2{fill:#5D89FB;}
	.st3{fill:none;stroke:#5D89FB;stroke-width:3;stroke-linecap:round;stroke-miterlimit:10;}
	.st4{fill:#616161;}
	.st5{fill:none;stroke:#616161;stroke-width:3;stroke-linecap:round;stroke-miterlimit:10;}
	.st6{fill:#FFFFFF;stroke:#616161;stroke-width:3;stroke-linecap:round;stroke-miterlimit:10;}
	.st7{display:none;}
	.st8{display:inline;fill:none;stroke:#BDBDBD;stroke-width:3;stroke-linecap:round;stroke-miterlimit:10;}
	.st9{fill:#BDBDBD;}
	.st10{font-family:'Geogrotesque-Bold';}
	.st11{font-size:30px;}
</style>
<title>illust_browsers</title>
<g id="browser">
	<path class="st0" d="M186,258V138c0-5.5,4.5-10,10-10h258.9c5.5,0,10,4.5,10,10v279.5c0,5.5-4.5,10-10,10H186"/>
	<path class="st1" d="M186,258V138c0-5.5,4.5-10,10-10h258.9c5.5,0,10,4.5,10,10v279.5c0,5.5-4.5,10-10,10H186"/>
	<line class="st1" x1="186" y1="165" x2="464.9" y2="165"/>
	<g id="browser-fill-bar">
		<path class="st2" d="M263.3,279.4h110.9c5.5,0,10,4.5,10,10v1.1c0,5.5-4.5,10-10,10H263.3c-5.5,0-10-4.5-10-10v-1.1
			C253.3,283.9,257.8,279.4,263.3,279.4z"/>
	</g>
	<g id="browser-fill-stroke">
		<path class="st3" d="M263.3,279.4h146.3c5.5,0,10,4.5,10,10v1.1c0,5.5-4.5,10-10,10H263.3c-5.5,0-10-4.5-10-10v-1.1
			C253.3,283.9,257.8,279.4,263.3,279.4z"/>
	</g>
	<g id="pips">
		<circle class="st4" cx="204.9" cy="144.9" r="3.9"/>
		<circle class="st4" cx="218.9" cy="144.9" r="3.9"/>
		<circle class="st4" cx="232.9" cy="144.9" r="3.9"/>
	</g>
</g>
<g id="phone">
	<path class="st0" d="M121,263.6h85.2c5.5,0,10,4.5,10,10v167.2c0,5.5-4.5,10-10,10H121c-5.5,0-10-4.5-10-10V273.6
		C111,268.1,115.5,263.6,121,263.6z"/>
	<path class="st5" d="M121,263.6h85.2c5.5,0,10,4.5,10,10v167.2c0,5.5-4.5,10-10,10H121c-5.5,0-10-4.5-10-10V273.6
		C111,268.1,115.5,263.6,121,263.6z"/>
	<line class="st5" x1="112" y1="300" x2="216.1" y2="300"/>
	<line class="st5" x1="147" y1="281" x2="177" y2="281"/>
	<line class="st5" x1="112" y1="409" x2="213.7" y2="409"/>
	<circle class="st6" cx="164" cy="427.3" r="7.7"/>
	<g id="phone-fill-bar">
		<path class="st2" d="M183,347.1c0,5.1-4.5,9.3-10,9.3h-36.9c-5.5,0-10-4.2-10-9.3s4.5-9.3,10-9.3H173
			C178.5,337.9,183,342,183,347.1z"/>
	</g>
	<g id="phone-fill-stroke">
		<path class="st3" d="M201.5,347.1c0,5.1-4.5,9.3-10,9.3h-55.3c-5.5,0-10-4.2-10-9.3s4.5-9.3,10-9.3h55.3
			C197,337.9,201.5,342,201.5,347.1z"/>
	</g>
</g>
<g id="sparkles" class="st7">
	<line class="st8" x1="135" y1="125" x2="135" y2="149"/>
	<line class="st8" x1="123" y1="137" x2="147" y2="137"/>
	<line class="st8" x1="65.3" y1="272" x2="65.3" y2="296"/>
	<line class="st8" x1="53.3" y1="284" x2="77.3" y2="284"/>
	<circle class="st8" cx="100" cy="161.9" r="7.7"/>
	<line class="st8" x1="562.9" y1="330.8" x2="562.9" y2="354.8"/>
	<line class="st8" x1="550.9" y1="342.8" x2="574.9" y2="342.8"/>
	<circle class="st8" cx="518.7" cy="117.1" r="7.7"/>
</g>
<g id="logo">
	<path class="st9" d="M337,232.8c0.5,0,0.9-0.4,0.9-0.9v-5.2c0-0.5-0.4-0.9-0.9-0.9c-0.5,0-0.9,0.4-0.9,0.9v5.2
		C336.1,232.4,336.5,232.8,337,232.8z"/>
	<path class="st9" d="M350.8,225.9c-0.5,0-0.9,0.4-0.9,0.9v5.2c0,0.5,0.4,0.9,0.9,0.9c0.5,0,0.9-0.4,0.9-0.9v-5.2
		C351.6,226.3,351.2,225.9,350.8,225.9z"/>
	<path class="st9" d="M350.8,219c-2.9,0-5.6,1.6-6.9,4.2c-1.9-3.8-6.6-5.3-10.4-3.4c-1.5,0.7-2.7,1.9-3.4,3.4
		c-1.9-3.8-6.6-5.3-10.4-3.4c-1.5,0.7-2.7,1.9-3.4,3.4c-1.9-3.8-6.6-5.3-10.4-3.4c-1.5,0.7-2.7,1.9-3.4,3.4
		c-1.9-3.8-6.6-5.3-10.4-3.4c-2.6,1.3-4.3,4-4.2,6.9v15.5c0,4.3,3.5,7.8,7.8,7.8c2.3,0,4.5-1.1,6-2.9v8.1c0.1,2.4,2.1,4.2,4.5,4.1
		c2.2-0.1,4-1.9,4.1-4.1V250c2.6-0.3,4.8-1.9,6-4.2c1.9,3.8,6.6,5.3,10.4,3.4c1.5-0.7,2.7-1.9,3.4-3.4c1.9,3.8,6.6,5.3,10.4,3.4
		c1.5-0.7,2.7-1.9,3.4-3.4c1.9,3.8,6.6,5.3,10.4,3.4c2.6-1.3,4.3-4,4.2-6.9v-15.5C358.4,222.5,355,219.1,350.8,219z M295.5,248.4
		c-3.3,0-6-2.7-6-6v-15.6c0-3.3,2.7-6,6-6c3.3,0,6,2.7,6,6l0,0v15.5l0,0C301.6,245.7,298.9,248.4,295.5,248.4
		C295.5,248.4,295.5,248.4,295.5,248.4L295.5,248.4z M309.3,248.4c-0.3,0-0.6,0-0.9-0.1v7c0,1.4-1.2,2.6-2.6,2.6s-2.6-1.2-2.6-2.6
		c0,0,0,0,0,0v-28.5c0-3.3,2.7-6,6-6c3.3,0,6,2.7,6,6l0,0v15.5l0,0C315.4,245.6,312.7,248.4,309.3,248.4L309.3,248.4z M322.8,248.4
		c-3.3-0.2-5.8-3-5.7-6.2v-2.4c0-0.5,0.4-0.9,0.9-0.9h3.5c0.5,0,0.9,0.4,0.9,0.9v2.6c0,0.4,0.3,0.8,0.7,0.9c0.5,0.1,0.9-0.2,1-0.7
		c0-0.1,0-0.1,0-0.2v-2.6c0-1.4-1.2-2.6-2.6-2.6H321c-2.1,0-3.9-1.7-3.9-3.8c0,0,0,0,0,0V227c0-3.3,2.5-6,5.7-6.2
		c3.3-0.2,6.2,2.4,6.3,5.7c0,0.1,0,0.2,0,0.3l0,0v2.6c0,0.5-0.4,0.9-0.9,0.9h-3.5c-0.5,0-0.9-0.4-0.9-0.9v-2.6
		c0-0.4-0.3-0.8-0.7-0.9c-0.5-0.1-0.9,0.2-1,0.7c0,0.1,0,0.1,0,0.2v2.6c0,1.4,1.2,2.6,2.6,2.6h0.4c2.1,0,3.9,1.7,3.9,3.8
		c0,0,0,0,0,0v6.5l0,0c0,3.3-2.7,6.1-6,6.1C323.1,248.4,323,248.4,322.8,248.4L322.8,248.4z M336.7,248.4c-3.3-0.2-5.8-3-5.7-6.2
		v-15.2c0-3.3,2.5-6,5.7-6.2c3.3-0.2,6.2,2.4,6.3,5.7c0,0.1,0,0.2,0,0.3l0,0v10.4c0,0.5-0.4,0.9-0.9,0.9h-3.5
		c-1.4,0-2.6,1.2-2.6,2.6v1.7c0,0.4,0.3,0.8,0.7,0.9c0.5,0.1,0.9-0.2,1-0.7c0-0.1,0-0.1,0-0.2v-2c0-0.5,0.4-0.9,0.9-0.9h3.5
		c0.5,0,0.9,0.4,0.9,0.9v2l0,0c0,3.3-2.7,6.1-6,6.1C336.9,248.4,336.8,248.4,336.7,248.4L336.7,248.4z M356.8,237.1
		c0,0.5-0.4,0.9-0.9,0.9h-3.5c-1.4,0-2.6,1.2-2.6,2.6v1.7c0,0.4,0.3,0.8,0.7,0.9c0.5,0.1,0.9-0.2,1-0.7c0-0.1,0-0.1,0-0.2v-2
		c0-0.5,0.4-0.9,0.9-0.9h3.5c0.5,0,0.9,0.4,0.9,0.9v2c0,3.3-2.8,6-6.1,6c-0.1,0-0.2,0-0.3,0c-3.3-0.2-5.8-3-5.7-6.2v-15.2
		c0-3.3,2.5-6,5.7-6.2c3.3-0.2,6.2,2.4,6.3,5.7c0,0.1,0,0.2,0,0.3V237V237.1z"/>
	<path class="st9" d="M309.3,225.9c-0.5,0-0.9,0.4-0.9,0.9v15.5c0,0.5,0.4,0.9,0.9,0.9c0.5,0,0.9-0.4,0.9-0.9v-15.5
		C310.2,226.3,309.8,225.9,309.3,225.9L309.3,225.9z"/>
	<path class="st9" d="M295.5,225.9c-0.5,0-0.9,0.4-0.9,0.9v15.5c0,0.5,0.4,0.9,0.9,0.9c0.5,0,0.9-0.4,0.9-0.9v-15.5
		C296.4,226.3,296,225.9,295.5,225.9L295.5,225.9z"/>
</g>
<circle class="st2" cx="530" cy="234.5" r="33.5"/>
<text transform="matrix(1 0 0 1 521.5 244.41)" class="st0 st10 st11">2</text>
<line class="st3" x1="530" y1="268" x2="530" y2="462.8"/>
<path class="st3" d="M530,462.8H303.3v34.8"/>
</svg>
