<svg id="Layer_1" data-name="Layer 1" xmlns="http://www.w3.org/2000/svg" viewBox="0 0 650 650"><title>illust_checks</title><circle cx="156.17" cy="204.74" r="43.7" style="fill:none;stroke:#6682c1;stroke-miterlimit:10;stroke-width:3px"/><polyline points="173.12 189.42 152.25 220.07 139.21 207.02" style="fill:none;stroke:#6682c1;stroke-miterlimit:10;stroke-width:3px"/><circle cx="156.17" cy="317.79" r="43.7" style="fill:none;stroke:#6682c1;stroke-miterlimit:10;stroke-width:3px"/><polyline points="173.12 302.46 152.25 333.12 139.21 320.07" style="fill:none;stroke:#6682c1;stroke-miterlimit:10;stroke-width:3px"/><circle cx="156.17" cy="429.39" r="43.7" style="fill:none;stroke:#6682c1;stroke-miterlimit:10;stroke-width:3px"/><polyline points="173.12 414.06 152.25 444.72 139.21 431.67" style="fill:none;stroke:#6682c1;stroke-miterlimit:10;stroke-width:3px"/><g id="sparkles"><line x1="71" y1="139.05" x2="71" y2="163.05" style="fill:none;stroke:#231f20;stroke-linecap:round;stroke-miterlimit:10;stroke-width:3px"/><line x1="59" y1="151.05" x2="83" y2="151.05" style="fill:none;stroke:#231f20;stroke-linecap:round;stroke-miterlimit:10;stroke-width:3px"/><line x1="63" y1="480.36" x2="63" y2="496.36" style="fill:none;stroke:#231f20;stroke-linecap:round;stroke-miterlimit:10;stroke-width:3px"/><line x1="55" y1="488.36" x2="71" y2="488.36" style="fill:none;stroke:#231f20;stroke-linecap:round;stroke-miterlimit:10;stroke-width:3px"/><line x1="546" y1="484.36" x2="546" y2="508.36" style="fill:none;stroke:#231f20;stroke-linecap:round;stroke-miterlimit:10;stroke-width:3px"/><line x1="534" y1="496.36" x2="558" y2="496.36" style="fill:none;stroke:#231f20;stroke-linecap:round;stroke-miterlimit:10;stroke-width:3px"/><line x1="523" y1="89.36" x2="523" y2="105.36" style="fill:none;stroke:#231f20;stroke-linecap:round;stroke-miterlimit:10;stroke-width:3px"/><line x1="515" y1="97.36" x2="531" y2="97.36" style="fill:none;stroke:#231f20;stroke-linecap:round;stroke-miterlimit:10;stroke-width:3px"/><circle cx="555.97" cy="138.91" r="7.67" style="fill:none;stroke:#231f20;stroke-linecap:round;stroke-miterlimit:10;stroke-width:3px"/><circle cx="113" cy="516.72" r="7.67" style="fill:none;stroke:#231f20;stroke-linecap:round;stroke-miterlimit:10;stroke-width:3px"/></g><text transform="translate(217 204.74)" style="font-size:35px;fill:#231f20;font-family:Geogrotesque">Elastic <tspan x="105" y="0">L</tspan><tspan x="121.9" y="0">oad Balancer</tspan></text><text transform="translate(217 333.12)" style="font-size:35px;fill:#231f20;font-family:Geogrotesque">Security group</text><text transform="translate(217 444.72)" style="font-size:35px;fill:#231f20;font-family:Geogrotesque">RDS Database</text></svg>