<?xml version="1.0" encoding="utf-8"?>
<!-- Generator: Adobe Illustrator 19.1.0, SVG Export Plug-In . SVG Version: 6.00 Build 0)  -->
<svg version="1.1" id="Layer_1" xmlns="http://www.w3.org/2000/svg" xmlns:xlink="http://www.w3.org/1999/xlink" x="0px" y="0px"
	 viewBox="313 262 650 500" style="enable-background:new 313 262 650 500;" xml:space="preserve">
<style type="text/css">
	.st0{display:none;}
	.st1{display:inline;fill:#616262;}
	.st2{display:inline;fill:none;stroke:#BDBCBC;stroke-width:3;stroke-linecap:round;stroke-miterlimit:10;}
	.st3{fill:#FF9F36;}
	.st4{fill-rule:evenodd;clip-rule:evenodd;}
	.st5{fill:#231F20;}
	.st6{fill:#5A5B5E;}
	.st7{fill:#9D5025;}
	.st8{fill:#F58536;}
	.st9{fill:#6B3A19;}
	.st10{fill:#FBBF93;}
	.st11{fill:#2E73B8;}
	.st12{fill:#5294CF;}
	.st13{fill:#205B99;}
	.st14{fill:#19486F;}
	.st15{fill:#B7CA9D;}
	.st16{fill:#4B612C;}
	.st17{fill:#759C3E;}
</style>
<g id="old_text" class="st0">
	<path class="st1" d="M1020.1-431.3c-0.2,0-0.4-0.2-0.5-0.4v-0.1v-22.8c-0.1-0.2,0.1-0.5,0.3-0.5c0.1,0,0.1,0,0.2,0h11.9
		c0.2,0,0.5,0.1,0.5,0.4c0,0.1,0,0.1,0,0.2v1.1c0,0.2-0.1,0.5-0.4,0.5c-0.1,0-0.1,0-0.2,0h-10v8.2h9.4c0.2-0.1,0.5,0.1,0.5,0.3
		c0,0.1,0,0.1,0,0.2v1c0.1,0.2-0.1,0.5-0.3,0.5c-0.1,0-0.1,0-0.2,0h-9.4v9.3h10.6c0.2,0,0.5,0.1,0.5,0.3v0.1v1.1
		c0,0.2-0.1,0.5-0.4,0.5c-0.1,0-0.1,0-0.2,0L1020.1-431.3L1020.1-431.3z"/>
	<path class="st1" d="M1040-431.8c0,0.2-0.1,0.5-0.3,0.5h-0.1h-1.4c-0.2,0-0.5-0.1-0.5-0.4c0-0.1,0-0.1,0-0.2v-23.4
		c0-0.2,0.1-0.5,0.4-0.5c0.1,0,0.1,0,0.2,0h1.4c0.2,0,0.5,0.1,0.5,0.4c0,0.1,0,0.1,0,0.2L1040-431.8L1040-431.8z"/>
	<path class="st1" d="M1045.3-444.4c0-2.6,1.6-4.4,6.3-4.4s6.3,1.8,6.3,4.4v12.6c0,0.2-0.1,0.5-0.3,0.5h-0.1h-1.3
		c-0.3,0-0.5-0.1-0.5-0.4v-0.1l-0.1-1.2c-1.6,1.3-3.7,2.1-5.8,2.1c-3.3,0-4.8-1.9-4.8-4.1v-1.8c0-2.3,1.5-4.1,4.6-4.1h6v-3.1
		c0-1.6-0.8-2.7-4-2.7c-3.2,0-4,1.1-4,2.6v0.4c0.1,0.2-0.1,0.5-0.3,0.6c-0.1,0-0.1,0-0.2,0h-1.3c-0.2,0-0.5-0.1-0.5-0.4
		c0-0.1,0-0.1,0-0.2V-444.4L1045.3-444.4z M1055.6-435v-4.1h-5.6c-1.9,0-2.7,1-2.7,2.5v1.1c0,1.5,0.9,2.4,3,2.4
		C1052.3-433.1,1054.1-433.8,1055.6-435z"/>
	<path class="st1" d="M1072.6-444.9c0-1.4-1.3-2.2-3.9-2.2s-3.8,0.8-3.8,2.2v0.9c0.1,1,0.8,1.7,1.8,1.9l5.4,1.8c1.8,0.6,3,1.7,3,3.3
		v2c0,2.1-1.9,4-6.4,4s-6.3-1.9-6.3-4v-0.9c0-0.2,0.1-0.5,0.4-0.5h0.1h1.3c0.2,0,0.4,0.1,0.5,0.3c0,0.1,0,0.1,0,0.2v0.9
		c0,1.4,1.4,2.2,4.1,2.2c2.7,0,4.1-0.8,4.1-2.2v-1.3c0-1-0.9-1.6-2.1-2l-5.4-1.8c-1.5-0.5-2.6-1.8-2.7-3.4v-1.4c0-2.1,1.6-4,6.1-4
		s6.1,1.9,6.1,4v1c0,0.2-0.1,0.4-0.3,0.5h-0.1h-1.3c-0.2,0-0.4-0.1-0.5-0.3c0-0.1,0-0.1,0-0.2L1072.6-444.9
		C1072.7-444.9,1072.6-444.9,1072.6-444.9z"/>
	<path class="st1" d="M1086.6-448.5c0.2,0,0.5,0.1,0.5,0.3v0.1v1c0,0.3-0.1,0.5-0.4,0.5h-0.1h-3.9v10.6c0,1.6,0.9,2.7,4.1,2.7h0.6
		c0.2,0,0.5,0.1,0.5,0.4c0,0.1,0,0.1,0,0.2v1c0,0.2-0.1,0.5-0.4,0.5c-0.1,0-0.1,0-0.2,0h-0.8c-4.8,0-6.2-1.7-6.2-4.5v-10.7h-2.1
		c-0.2,0-0.5-0.1-0.5-0.4v-0.1v-0.8c0-0.2,0.1-0.5,0.4-0.5h0.1l1.8-0.1h0.3v-3.7c0-0.3,0.1-0.5,0.4-0.5h0.1h1.4
		c0.2,0,0.5,0.1,0.5,0.4v0.1v3.7L1086.6-448.5L1086.6-448.5z"/>
	<path class="st1" d="M1094.1-452c0,0.2-0.1,0.5-0.3,0.5h-0.1h-1.4c-0.2,0-0.5-0.1-0.5-0.4c0-0.1,0-0.1,0-0.2v-3.2
		c0-0.2,0.1-0.5,0.4-0.5c0.1,0,0.1,0,0.2,0h1.4c0.2,0,0.5,0.1,0.5,0.4c0,0.1,0,0.1,0,0.2v3.2C1094.3-452,1094.1-452,1094.1-452z
		 M1094.1-431.8c0,0.2-0.1,0.5-0.3,0.5h-0.1h-1.4c-0.2,0-0.5-0.1-0.5-0.4c0-0.1,0-0.1,0-0.2V-448c0-0.2,0.1-0.5,0.4-0.5
		c0.1,0,0.1,0,0.2,0h1.4c0.2,0,0.5,0.1,0.5,0.4c0,0.1,0,0.1,0,0.2v16.1C1094.3-431.8,1094.1-431.8,1094.1-431.8z"/>
	<path class="st1" d="M1112-444.4v0.7c0,0.2-0.1,0.5-0.4,0.5c-0.1,0-0.1,0-0.2,0h-1.3c-0.2,0-0.5-0.1-0.5-0.4c0-0.1,0-0.1,0-0.2
		v-0.5c0-1.6-0.9-2.7-4-2.7s-4,1.1-4,2.7v8.5c0,1.6,0.9,2.7,4,2.7s4-1,4-2.7v-0.8c0-0.2,0.1-0.5,0.3-0.5c0.1,0,0.1,0,0.2,0h1.3
		c0.2,0,0.5,0.1,0.5,0.3c0,0.1,0,0.1,0,0.2v0.9c0,2.7-1.6,4.5-6.4,4.5s-6.3-1.8-6.3-4.5v-8.8c0-2.7,1.6-4.5,6.4-4.5
		S1112-447,1112-444.4z"/>
	<path class="st1" d="M1127.2-433.4h9.8c0.2,0,0.4,0.1,0.5,0.3c0,0.1,0,0.1,0,0.2v1.1c0.1,0.2-0.1,0.5-0.3,0.5c-0.1,0-0.1,0-0.2,0
		h-11.9c-0.2,0-0.4-0.2-0.4-0.4v-0.1v-22.8c-0.1-0.2,0.1-0.5,0.3-0.5c0.1,0,0.1,0,0.2,0h1.5c0.2,0,0.5,0.1,0.5,0.4
		c0,0.1,0,0.1,0,0.2V-433.4L1127.2-433.4z"/>
	<path class="st1" d="M1140.8-444.4c0-2.7,1.8-4.5,6.6-4.5c4.8,0,6.6,1.8,6.6,4.5v8.8c0,2.7-1.8,4.5-6.6,4.5c-4.8,0-6.6-1.8-6.6-4.5
		V-444.4z M1151.6-444.2c0-1.6-1.1-2.7-4.2-2.7c-3.1,0-4.2,1.1-4.2,2.7v8.5c0,1.6,1.1,2.7,4.2,2.7c3.1,0,4.2-1,4.2-2.7V-444.2z"/>
	<path class="st1" d="M1158.9-444.4c0-2.6,1.6-4.4,6.3-4.4c4.7,0,6.3,1.8,6.3,4.4v12.6c0,0.2-0.1,0.5-0.3,0.5h-0.1h-1.3
		c-0.3,0-0.5-0.1-0.5-0.4v-0.1l-0.1-1.2c-1.6,1.3-3.7,2.1-5.8,2.1c-3.3,0-4.8-1.9-4.8-4.1v-1.8c0-2.3,1.5-4.1,4.5-4.1h6v-3.1
		c0-1.6-0.8-2.7-4-2.7s-4,1.1-4,2.6v0.4c0.1,0.2-0.1,0.5-0.3,0.6c-0.1,0-0.1,0-0.2,0h-1.3c-0.2,0-0.5-0.1-0.5-0.4c0-0.1,0-0.1,0-0.2
		L1158.9-444.4L1158.9-444.4z M1169.1-435v-4.1h-5.6c-1.9,0-2.7,1-2.7,2.5v1.1c0,1.5,1,2.4,3,2.4S1167.6-433.8,1169.1-435z"/>
	<path class="st1" d="M1187.2-433.1c-1.7,1.4-3.8,2.1-6,2.1c-3.4,0-4.9-1.8-4.9-4.5v-8.9c0-2.7,1.5-4.5,4.9-4.5
		c2.1,0,4.2,0.7,5.9,2.1v-8.4c-0.1-0.2,0.1-0.5,0.3-0.5c0.1,0,0.1,0,0.2,0h1.4c0.2,0,0.5,0.1,0.5,0.4c0,0.1,0,0.1,0,0.2v23.4
		c0,0.2-0.1,0.5-0.4,0.5c-0.1,0-0.1,0-0.2,0h-1.3c-0.3,0-0.5-0.1-0.5-0.4v-0.1L1187.2-433.1z M1178.8-435.9c0,1.4,0.8,2.6,3.1,2.6
		c1.9-0.1,3.8-0.8,5.3-2v-9.5c-1.5-1.2-3.4-1.9-5.3-2c-2.2,0-3.1,1.2-3.1,2.6V-435.9L1178.8-435.9z"/>
	<path class="st1" d="M1203.9-431.3c-0.2,0-0.5-0.1-0.5-0.4v-0.1v-22.8c-0.1-0.2,0.1-0.5,0.3-0.5c0.1,0,0.1,0,0.2,0h6
		c5.8,0,7.6,2.1,7.6,4.9v2.3c0.1,2-1.2,3.7-3.1,4.1c2.8,0.6,4.1,2.2,4.1,4.3v3.1c0,2.8-1.8,5-7.6,5L1203.9-431.3L1203.9-431.3z
		 M1205.9-453v8.5h4.4c3.4,0,4.8-1.4,4.8-3.4v-1.9c0-2.1-1.4-3.2-5.1-3.2H1205.9L1205.9-453z M1205.9-442.6v9.2h5
		c3.8,0,5.1-1.3,5.1-3.4v-2.6c0-1.9-1.4-3.3-5.1-3.3L1205.9-442.6L1205.9-442.6z"/>
	<path class="st1" d="M1223.1-444.4c0-2.6,1.6-4.4,6.3-4.4c4.7,0,6.3,1.8,6.3,4.4v12.6c0,0.2-0.1,0.5-0.3,0.5h-0.1h-1.3
		c-0.3,0-0.5-0.1-0.5-0.4v-0.1l-0.1-1.2c-1.6,1.3-3.7,2.1-5.8,2.1c-3.3,0-4.8-1.9-4.8-4.1v-1.8c0-2.3,1.5-4.1,4.5-4.1h6v-3.1
		c0-1.6-0.8-2.7-4-2.7s-4,1.1-4,2.6v0.4c0.1,0.2-0.1,0.5-0.3,0.6c-0.1,0-0.1,0-0.2,0h-1.3c-0.2,0-0.5-0.1-0.5-0.4c0-0.1,0-0.1,0-0.2
		L1223.1-444.4L1223.1-444.4z M1233.3-435v-4.1h-5.6c-1.9,0-2.7,1-2.7,2.5v1.1c0,1.5,1,2.4,3,2.4S1231.8-433.8,1233.3-435z"/>
	<path class="st1" d="M1243.4-431.8c0,0.2-0.1,0.5-0.3,0.5h-0.1h-1.5c-0.2,0-0.5-0.1-0.5-0.4c0-0.1,0-0.1,0-0.2v-23.4
		c0-0.2,0.1-0.5,0.4-0.5c0.1,0,0.1,0,0.2,0h1.4c0.2,0,0.5,0.1,0.5,0.4c0,0.1,0,0.1,0,0.2L1243.4-431.8L1243.4-431.8z"/>
	<path class="st1" d="M1248.8-444.4c0-2.6,1.6-4.4,6.3-4.4s6.3,1.8,6.3,4.4v12.6c0,0.2-0.1,0.5-0.3,0.5h-0.1h-1.3
		c-0.3,0-0.5-0.1-0.5-0.4v-0.1l-0.1-1.2c-1.6,1.3-3.7,2.1-5.8,2.1c-3.3,0-4.8-1.9-4.8-4.1v-1.8c0-2.3,1.5-4.1,4.5-4.1h6v-3.1
		c0-1.6-0.8-2.7-4-2.7c-3.2,0-4,1.1-4,2.6v0.4c0.1,0.2-0.1,0.5-0.3,0.6c-0.1,0-0.1,0-0.2,0h-1.3c-0.2,0-0.5-0.1-0.5-0.4
		c0-0.1,0-0.1,0-0.2L1248.8-444.4L1248.8-444.4z M1259-435v-4.1h-5.6c-1.9,0-2.7,1-2.7,2.5v1.1c0,1.5,1,2.4,3,2.4
		S1257.5-433.8,1259-435z"/>
	<path class="st1" d="M1269-448l0.1,1.3c1.7-1.4,3.8-2.2,6-2.1c3.3,0,4.8,1.8,4.8,4.3v12.7c0,0.2-0.1,0.5-0.3,0.5h-0.1h-1.4
		c-0.3,0-0.5-0.1-0.5-0.4v-0.1V-444c0-1.6-0.8-2.7-3.1-2.7c-1.9,0.1-3.8,0.8-5.3,2v12.9c0,0.2-0.1,0.5-0.3,0.5h-0.1h-1.4
		c-0.2,0-0.5-0.1-0.5-0.4c0-0.1,0-0.1,0-0.2V-448c0-0.2,0.1-0.5,0.4-0.5c0.1,0,0.1,0,0.2,0h1.3c0.3,0,0.5,0.2,0.5,0.4
		C1269-448.1,1269-448.1,1269-448z"/>
	<path class="st1" d="M1297.5-444.4v0.7c0,0.2-0.1,0.5-0.4,0.5c-0.1,0-0.1,0-0.2,0h-1.3c-0.2,0-0.5-0.1-0.5-0.4c0-0.1,0-0.1,0-0.2
		v-0.5c0-1.6-0.9-2.7-4-2.7s-4,1.1-4,2.7v8.5c0,1.6,0.9,2.7,4,2.7s4-1,4-2.7v-0.8c-0.1-0.2,0.1-0.5,0.3-0.5c0.1,0,0.1,0,0.2,0h1.3
		c0.2-0.1,0.5,0.1,0.5,0.3c0,0.1,0,0.1,0,0.2v0.9c0,2.7-1.6,4.5-6.4,4.5s-6.3-1.8-6.3-4.5v-8.8c0-2.7,1.6-4.5,6.4-4.5
		S1297.5-447,1297.5-444.4z"/>
	<path class="st1" d="M1314.3-440c0,0.2-0.1,0.5-0.4,0.5h-0.1h-9.9v3.9c0,1.6,0.8,2.7,4.1,2.7c3.3,0,4.1-1.1,4.1-2.7v-0.6
		c0-0.2,0.1-0.4,0.3-0.5c0.1,0,0.1,0,0.2,0h1.3c0.2,0,0.5,0.1,0.5,0.3v0.1v0.7c0,2.7-1.6,4.5-6.4,4.5c-4.8,0-6.4-1.8-6.4-4.5v-8.8
		c0-2.7,1.6-4.5,6.4-4.5c4.8,0,6.3,1.8,6.3,4.5L1314.3-440L1314.3-440z M1303.9-441.4h8.1v-2.8c0-1.6-1-2.7-4.1-2.7
		s-4.1,1.1-4.1,2.7L1303.9-441.4L1303.9-441.4z"/>
	<path class="st1" d="M1327.9-448.4v1.2c0,0.3-0.2,0.5-0.5,0.5h-0.1c-2.1,0.2-4.1,1-5.7,2.4v12.5c0,0.2-0.1,0.5-0.3,0.5h-0.1h-1.4
		c-0.2,0-0.5-0.1-0.5-0.4c0-0.1,0-0.1,0-0.2V-448c0-0.2,0.1-0.5,0.4-0.5c0.1,0,0.1,0,0.2,0h1.3c0.3,0,0.5,0.1,0.5,0.4v0.1l0.1,1.7
		c1.5-1.5,3.6-2.4,5.7-2.5C1327.6-448.9,1327.8-448.7,1327.9-448.4L1327.9-448.4z"/>
	<path class="st1" d="M1026.5-334.9c-3.7,0-4.8,1.3-4.8,3.3v1c0,1.3,0.8,2.4,2,2.7l6.6,2.5c1.9,0.7,3.6,2.1,3.6,4.5v3
		c0,2.8-1.8,5.1-7.5,5.1c-5.7,0-7.5-2.3-7.5-5.1v-1.9c-0.1-0.2,0.1-0.5,0.3-0.5c0.1,0,0.1,0,0.2,0h1.4c0.2,0,0.5,0.1,0.5,0.4
		c0,0.1,0,0.1,0,0.2v1.7c0,2,1.3,3.3,5,3.3c3.7,0,5.2-1.3,5.2-3.3v-2.2c0-1.8-1.5-2.6-2.9-3.1l-6.3-2.4c-1.8-0.7-3-2.3-3-4.2v-2
		c0-2.8,1.6-5.1,7.2-5.1c5.6,0,7.3,2.3,7.3,5.1v1.6c0,0.2-0.1,0.5-0.4,0.5c-0.1,0-0.1,0-0.2,0h-1.4c-0.2,0-0.5-0.1-0.5-0.4v-0.1
		v-1.3C1031.3-333.6,1030.2-334.9,1026.5-334.9z"/>
	<path class="st1" d="M1051.4-321.7c0,0.2-0.1,0.5-0.4,0.5h-0.1h-9.9v3.9c0,1.6,0.8,2.7,4.1,2.7s4.1-1.1,4.1-2.7v-0.6
		c0-0.2,0.1-0.4,0.3-0.5c0.1,0,0.1,0,0.2,0h1.3c0.2-0.1,0.5,0.1,0.5,0.3c0,0.1,0,0.1,0,0.2v0.7c0,2.7-1.6,4.5-6.4,4.5
		c-4.8,0-6.4-1.8-6.4-4.5v-8.8c0-2.7,1.6-4.5,6.4-4.5s6.3,1.8,6.3,4.5L1051.4-321.7L1051.4-321.7z M1041-323h8.1v-2.8
		c0-1.6-1-2.7-4.1-2.7s-4.1,1.1-4.1,2.7L1041-323L1041-323z"/>
	<path class="st1" d="M1068.6-326v0.7c0,0.2-0.1,0.5-0.4,0.5c-0.1,0-0.1,0-0.2,0h-1.3c-0.2,0-0.5-0.1-0.5-0.4c0-0.1,0-0.1,0-0.2
		v-0.5c0-1.6-0.9-2.7-4-2.7s-4,1-4,2.7v8.5c0,1.6,0.9,2.7,4,2.7s4-1,4-2.7v-0.8c0-0.2,0.1-0.5,0.3-0.5c0.1,0,0.1,0,0.2,0h1.3
		c0.2,0,0.5,0.1,0.5,0.3c0,0.1,0,0.1,0,0.2v1c0,2.7-1.6,4.5-6.4,4.5c-4.8,0-6.3-1.8-6.3-4.5v-8.8c0-2.7,1.6-4.5,6.4-4.5
		S1068.6-328.7,1068.6-326z"/>
	<path class="st1" d="M1083.4-314.7c-1.6,1.4-3.6,2.1-5.7,2.1c-3.3,0-4.9-1.8-4.9-4.3v-12.8c-0.1-0.2,0.1-0.5,0.3-0.5
		c0.1,0,0.1,0,0.2,0h1.4c0.2,0,0.5,0.1,0.5,0.4c0,0.1,0,0.1,0,0.2v12.2c0,1.6,0.9,2.7,3.1,2.7c1.8,0,3.6-0.7,5-1.9v-13
		c-0.1-0.2,0.1-0.5,0.3-0.5c0.1,0,0.1,0,0.2,0h1.4c0.2,0,0.5,0.1,0.5,0.4c0,0.1,0,0.1,0,0.2v16.2c0.1,0.2-0.1,0.5-0.3,0.5
		c-0.1,0-0.1,0-0.2,0h-1.3c-0.2,0-0.5-0.1-0.5-0.4c0-0.1,0-0.1,0-0.2V-314.7z"/>
	<path class="st1" d="M1100-330v1.2c0,0.3-0.2,0.5-0.5,0.5h-0.1c-2.1,0.2-4.1,1-5.7,2.4v12.5c0,0.2-0.1,0.5-0.3,0.5h-0.1h-1.4
		c-0.2,0-0.5-0.1-0.5-0.4c0-0.1,0-0.1,0-0.2v-16.2c0-0.2,0.1-0.5,0.4-0.5c0.1,0,0.1,0,0.2,0h1.3c0.3,0,0.5,0.1,0.5,0.4
		c0,0.1,0,0.1,0,0.2l0.1,1.7c1.5-1.5,3.6-2.4,5.7-2.5c0.3,0,0.5,0.1,0.6,0.4C1100-330.1,1100-330,1100-330z"/>
	<path class="st1" d="M1105.8-333.6c0,0.2-0.1,0.5-0.3,0.5h-0.1h-1.4c-0.2,0-0.5-0.1-0.5-0.4c0-0.1,0-0.1,0-0.2v-3.3
		c0-0.2,0.1-0.5,0.4-0.5c0.1,0,0.1,0,0.2,0h1.4c0.2,0,0.5,0.1,0.5,0.4c0,0.1,0,0.1,0,0.2v3.3H1105.8z M1105.8-313.5
		c0,0.2-0.1,0.5-0.3,0.5h-0.1h-1.4c-0.2,0-0.5-0.1-0.5-0.4c0-0.1,0-0.1,0-0.2v-16.2c0-0.2,0.1-0.5,0.4-0.5c0.1,0,0.1,0,0.2,0h1.4
		c0.2,0,0.5,0.1,0.5,0.4c0,0.1,0,0.1,0,0.2v16.2H1105.8z"/>
	<path class="st1" d="M1118.5-330.1c0.2,0,0.5,0.1,0.5,0.3v0.1v1c0,0.3-0.1,0.5-0.4,0.5h-0.1h-3.9v10.5c0,1.6,0.9,2.7,4.1,2.7h0.6
		c0.2,0,0.5,0.1,0.5,0.4c0,0.1,0,0.1,0,0.2v1c0,0.2-0.1,0.5-0.4,0.5c-0.1,0-0.1,0-0.2,0h-0.9c-4.8,0-6.2-1.7-6.2-4.5v-10.7h-2.1
		c-0.2,0-0.5-0.1-0.5-0.4v-0.1v-0.8c0-0.2,0.1-0.5,0.4-0.5h0.1l1.8-0.1h0.3v-3.7c0-0.3,0.1-0.5,0.4-0.5h0.1h1.4
		c0.2,0,0.5,0.1,0.5,0.4v0.1v3.7L1118.5-330.1L1118.5-330.1z"/>
	<path class="st1" d="M1127.8-318c0.2,0.7,0.4,1.4,0.5,2.1c0-0.1,0.3-1.3,0.6-2l4-11.7c0-0.3,0.3-0.5,0.6-0.5h1.3
		c0.4,0,0.6,0.2,0.5,0.5l-8,23.5c0,0.3-0.3,0.5-0.6,0.5h-1.1c-0.2,0-0.4-0.1-0.4-0.3c0-0.1,0-0.2,0-0.2l2.1-6.6l-5.9-16.9
		c-0.1-0.2,0-0.4,0.2-0.5c0.1,0,0.1,0,0.2,0h1.4c0.3,0,0.6,0.2,0.6,0.5L1127.8-318z"/>
	<path class="st1" d="M1146.1-317.1v-8.9c0-2.7,1.5-4.5,4.9-4.5c2.2,0,4.3,0.7,6,2.1l0.1-1.3c0-0.3,0.1-0.5,0.4-0.5h0.1h1.3
		c0.2,0,0.5,0.1,0.5,0.4c0,0.1,0,0.1,0,0.2v19.5c0,2.7-1.8,4.5-6.5,4.5h-4.8c-0.2,0.1-0.5-0.1-0.5-0.3c0-0.1,0-0.1,0-0.2v-1
		c0-0.2,0.1-0.5,0.4-0.5c0.1,0,0.1,0,0.2,0h4.8c3.1,0,4.1-1.1,4.1-2.7v-4.2c-1.7,1.3-3.8,2-5.9,2
		C1147.6-312.6,1146.1-314.5,1146.1-317.1z M1148.5-317.5c0,1.4,0.8,2.6,3.1,2.6c1.9-0.1,3.8-0.8,5.3-2v-9.5c-1.5-1.2-3.4-1.9-5.3-2
		c-2.2,0-3.1,1.2-3.1,2.6V-317.5L1148.5-317.5z"/>
	<path class="st1" d="M1173.5-330v1.2c0,0.3-0.2,0.5-0.5,0.5h-0.1c-2.1,0.2-4.1,1-5.7,2.4v12.5c0,0.2-0.1,0.5-0.3,0.5h-0.1h-1.4
		c-0.2,0-0.5-0.1-0.5-0.4c0-0.1,0-0.1,0-0.2v-16.2c0-0.2,0.1-0.5,0.4-0.5c0.1,0,0.1,0,0.2,0h1.3c0.3,0,0.5,0.1,0.5,0.4v0.1l0.1,1.7
		c1.5-1.5,3.6-2.4,5.7-2.5c0.3,0,0.5,0.1,0.6,0.4C1173.5-330.1,1173.5-330,1173.5-330z"/>
	<path class="st1" d="M1176.5-326c0-2.7,1.8-4.5,6.6-4.5s6.6,1.8,6.6,4.5v8.8c0,2.7-1.8,4.5-6.6,4.5s-6.6-1.8-6.6-4.5V-326z
		 M1187.3-325.8c0-1.6-1.1-2.7-4.2-2.7s-4.2,1-4.2,2.7v8.5c0,1.6,1.1,2.7,4.2,2.7s4.2-1,4.2-2.7V-325.8z"/>
	<path class="st1" d="M1205.3-314.7c-1.6,1.4-3.6,2.1-5.8,2.1c-3.3,0-4.9-1.8-4.9-4.3v-12.8c-0.1-0.2,0.1-0.5,0.3-0.5
		c0.1,0,0.1,0,0.2,0h1.4c0.2,0,0.5,0.1,0.5,0.4c0,0.1,0,0.1,0,0.2v12.2c0,1.6,0.9,2.7,3.1,2.7c1.8,0,3.6-0.7,5-1.9v-13
		c-0.1-0.2,0.1-0.5,0.3-0.5c0.1,0,0.1,0,0.2,0h1.4c0.2,0,0.5,0.1,0.5,0.4c0,0.1,0,0.1,0,0.2v16.2c0.1,0.2-0.1,0.5-0.3,0.5
		c-0.1,0-0.1,0-0.2,0h-1.3c-0.2,0-0.5-0.1-0.5-0.4c0-0.1,0-0.1,0-0.2L1205.3-314.7z"/>
	<path class="st1" d="M1215.5-329.7l0.1,1.3c1.7-1.4,3.8-2.2,6-2.1c3.3,0,4.8,1.8,4.8,4.5v8.9c0,2.7-1.5,4.5-4.8,4.5
		c-2.2,0-4.3-0.7-6-2v8.5c0,0.2-0.1,0.4-0.3,0.5c-0.1,0-0.1,0-0.2,0h-1.4c-0.2,0.1-0.5-0.1-0.5-0.3c0-0.1,0-0.1,0-0.2v-23.5
		c0-0.2,0.1-0.5,0.4-0.5c0.1,0,0.1,0,0.2,0h1.3c0.2-0.1,0.5,0.1,0.6,0.3C1215.5-329.8,1215.5-329.8,1215.5-329.7z M1224-325.7
		c0-1.4-0.8-2.6-3.1-2.6c-1.9,0-3.8,0.8-5.3,2v9.5c1.5,1.2,3.4,1.9,5.3,2c2.3,0,3.1-1.2,3.1-2.6V-325.7L1224-325.7z"/>
	<path class="st1" d="M1022.1-211v9.2c0.1,0.2-0.1,0.5-0.3,0.5c-0.1,0-0.1,0-0.2,0h-1.5c-0.2,0-0.5-0.1-0.5-0.4c0-0.1,0-0.1,0-0.2
		v-22.7c-0.1-0.2,0.1-0.5,0.3-0.5h0.1h6.9c5.8,0,7.6,2.3,7.6,5.1v3.9c0,2.2-1.1,4.1-4.3,4.8l4.6,9.5c0.1,0.3-0.1,0.5-0.5,0.5h-1.5
		c-0.3,0-0.6-0.2-0.6-0.5l-4.3-9.2H1022.1L1022.1-211z M1022.1-223v9.9h4.9c3.8,0,5.1-1.3,5.1-3.4v-3.1c0-2-1.4-3.4-5.1-3.4H1022.1
		L1022.1-223z"/>
	<path class="st1" d="M1040.8-201.3c-0.3,0-0.4-0.2-0.4-0.5v-22.8c-0.1-0.2,0.1-0.5,0.3-0.5h0.1h7.1c5.8,0,7.6,2.3,7.6,5.1v13.6
		c0,2.8-1.8,5.1-7.6,5.1H1040.8L1040.8-201.3z M1042.8-223v19.5h5.1c3.8,0,5.1-1.3,5.1-3.4v-12.8c0-2-1.4-3.4-5.1-3.4L1042.8-223
		L1042.8-223z"/>
	<path class="st1" d="M1068.3-223.3c-3.7,0-4.8,1.3-4.8,3.3v1c0,1.3,0.8,2.4,2,2.7l6.6,2.5c1.9,0.7,3.6,2.1,3.6,4.5v3
		c0,2.8-1.8,5.1-7.5,5.1s-7.5-2.3-7.5-5.1v-1.7c-0.1-0.2,0.1-0.5,0.3-0.5c0.1,0,0.1,0,0.2,0h1.4c0.2,0,0.5,0.1,0.5,0.4
		c0,0.1,0,0.1,0,0.2v1.6c0,2,1.3,3.3,5,3.3s5.1-1.3,5.1-3.3v-2.2c0-1.8-1.5-2.6-2.9-3.1l-6.3-2.4c-1.8-0.7-3-2.3-3-4.2v-2
		c0-2.8,1.6-5.1,7.2-5.1c5.6,0,7.3,2.3,7.3,5.1v1.6c0,0.2-0.1,0.5-0.4,0.5c-0.1,0-0.1,0-0.2,0h-1.4c-0.2,0-0.5-0.1-0.5-0.4
		c0-0.1,0-0.1,0-0.2v-1.3C1073.1-222,1071.9-223.3,1068.3-223.3z"/>
	<path class="st1" d="M1089.4-201.3c-0.3,0-0.4-0.2-0.4-0.5v-22.8c-0.1-0.2,0.1-0.5,0.3-0.5h0.1h7c5.8,0,7.6,2.3,7.6,5.1v13.6
		c0,2.8-1.8,5.1-7.6,5.1H1089.4L1089.4-201.3z M1091.5-223v19.5h5c3.8,0,5.1-1.3,5.1-3.4v-12.8c0-2-1.4-3.4-5.1-3.4L1091.5-223
		L1091.5-223z"/>
	<path class="st1" d="M1109.4-214.5c0-2.6,1.6-4.5,6.3-4.5c4.7,0,6.3,1.8,6.3,4.5v12.6c0.1,0.2-0.1,0.5-0.3,0.5c-0.1,0-0.1,0-0.2,0
		h-1.3c-0.3,0-0.5-0.1-0.5-0.4c0-0.1,0-0.1,0-0.2l-0.1-1.3c-1.6,1.3-3.7,2.1-5.8,2.1c-3.2,0-4.8-1.9-4.8-4.1v-1.8
		c0-2.3,1.5-4.1,4.5-4.1h6v-3.1c0-1.6-0.8-2.7-4-2.7c-3.2,0-4,1-4,2.6v0.4c0.1,0.2-0.1,0.5-0.3,0.6c-0.1,0-0.1,0-0.2,0h-1.3
		c-0.2,0-0.5-0.1-0.5-0.4c0-0.1,0-0.1,0-0.2L1109.4-214.5L1109.4-214.5z M1119.6-205v-4.1h-5.6c-1.9,0-2.7,1-2.7,2.5v1.1
		c0,1.5,0.9,2.4,3,2.4C1116.3-203.1,1118.2-203.8,1119.6-205z"/>
	<path class="st1" d="M1134.5-218.5c0.2-0.1,0.5,0.1,0.5,0.3c0,0.1,0,0.1,0,0.2v1c0,0.3-0.1,0.5-0.4,0.5c-0.1,0-0.1,0-0.2,0h-4v10.5
		c0,1.6,1,2.7,4.1,2.7h0.6c0.2,0,0.5,0.1,0.5,0.4c0,0.1,0,0.1,0,0.2v1c0,0.2-0.1,0.5-0.4,0.5c-0.1,0-0.1,0-0.2,0h-0.9
		c-4.8,0-6.2-1.7-6.2-4.5v-10.8h-2.1c-0.2,0-0.4-0.2-0.4-0.4c0,0,0,0,0-0.1v-0.8c0-0.2,0.1-0.5,0.4-0.5h0.1l1.8-0.1h0.3v-3.7
		c0-0.3,0.1-0.5,0.4-0.5h0.1h1.4c0.2,0,0.5,0.1,0.5,0.4v0.1v3.7L1134.5-218.5L1134.5-218.5z"/>
	<path class="st1" d="M1139.2-214.5c0-2.6,1.6-4.5,6.3-4.5s6.3,1.8,6.3,4.5v12.6c0.1,0.2-0.1,0.5-0.3,0.5c-0.1,0-0.1,0-0.2,0h-1.3
		c-0.3,0-0.5-0.1-0.5-0.4v-0.1l-0.1-1.3c-1.6,1.3-3.7,2.1-5.8,2.1c-3.3,0-4.8-1.9-4.8-4.1v-1.8c0-2.3,1.5-4.1,4.5-4.1h6v-3.1
		c0-1.6-0.8-2.7-4-2.7s-4,1-4,2.6v0.4c0.1,0.2-0.1,0.5-0.3,0.6c-0.1,0-0.1,0-0.2,0h-1.3c-0.2,0-0.5-0.1-0.5-0.4c0-0.1,0-0.1,0-0.2
		L1139.2-214.5L1139.2-214.5z M1149.5-205v-4.1h-5.6c-1.9,0-2.7,1-2.7,2.5v1.1c0,1.5,1,2.4,3,2.4S1148-203.8,1149.5-205z"/>
	<path class="st1" d="M1157.7-201.3c-0.2,0-0.5-0.1-0.5-0.4c0-0.1,0-0.1,0-0.2v-23.4c0-0.2,0.1-0.5,0.4-0.5c0.1,0,0.1,0,0.2,0h1.4
		c0.2,0,0.5,0.1,0.5,0.4c0,0.1,0,0.1,0,0.2v8.4c1.7-1.4,3.8-2.1,6-2.1c3.3,0,4.8,1.8,4.8,4.5v8.9c0,2.7-1.5,4.5-4.8,4.5
		c-2.2,0-4.3-0.7-6-2.1l-0.1,1.3c0,0.3-0.1,0.5-0.4,0.5h-0.1H1157.7L1157.7-201.3z M1167.9-214c0-1.4-0.8-2.6-3.1-2.6
		c-1.9,0-3.8,0.8-5.3,2v9.5c1.5,1.2,3.4,1.9,5.3,2c2.3,0,3.1-1.2,3.1-2.6V-214z"/>
	<path class="st1" d="M1175.3-214.5c0-2.6,1.6-4.5,6.3-4.5s6.3,1.8,6.3,4.5v12.6c0.1,0.2-0.1,0.5-0.3,0.5c-0.1,0-0.1,0-0.2,0h-1.3
		c-0.3,0-0.5-0.1-0.5-0.4v-0.1l-0.1-1.3c-1.6,1.3-3.7,2.1-5.8,2.1c-3.3,0-4.8-1.9-4.8-4.1v-1.8c0-2.3,1.5-4.1,4.5-4.1h6v-3.1
		c0-1.6-0.8-2.7-4-2.7s-4,1-4,2.6v0.4c0.1,0.2-0.1,0.5-0.3,0.6c-0.1,0-0.1,0-0.2,0h-1.3c-0.2,0-0.5-0.1-0.5-0.4c0-0.1,0-0.1,0-0.2
		v-0.6H1175.3L1175.3-214.5z M1185.5-205v-4.1h-5.6c-1.9,0-2.7,1-2.7,2.5v1.1c0,1.5,1,2.4,3,2.4S1184-203.8,1185.5-205z"/>
	<path class="st1" d="M1202.6-214.9c0-1.4-1.3-2.2-3.9-2.2s-3.8,0.8-3.8,2.2v0.9c0.1,1,0.8,1.7,1.8,1.9l5.4,1.8c1.8,0.6,3,1.7,3,3.3
		v2c0,2.1-1.9,4-6.4,4s-6.3-1.9-6.3-4v-0.9c0-0.2,0.1-0.5,0.4-0.5h0.1h1.3c0.2,0,0.4,0.1,0.5,0.3c0,0.1,0,0.1,0,0.2v0.8
		c0,1.4,1.4,2.2,4.1,2.2c2.7,0,4.1-0.8,4.1-2.2v-1.3c0-1-0.9-1.6-2.1-2l-5.4-1.8c-1.5-0.5-2.6-1.8-2.7-3.4v-1.4c0-2.1,1.6-4,6.1-4
		s6.1,1.9,6.1,4v1c0,0.2-0.1,0.4-0.3,0.5h-0.1h-1.3c-0.2,0-0.4-0.1-0.5-0.3c0-0.1,0-0.1,0-0.2L1202.6-214.9L1202.6-214.9z"/>
	<path class="st1" d="M1221.8-210c0,0.2-0.1,0.5-0.4,0.5h-0.1h-9.9v3.9c0,1.6,0.8,2.7,4.1,2.7c3.3,0,4.1-1.1,4.1-2.7v-0.6
		c0-0.2,0.1-0.4,0.3-0.5c0.1,0,0.1,0,0.2,0h1.3c0.2,0,0.5,0.1,0.5,0.3v0.1v0.7c0,2.7-1.6,4.5-6.4,4.5s-6.4-1.8-6.4-4.5v-8.8
		c0-2.7,1.6-4.5,6.4-4.5s6.3,1.8,6.3,4.5L1221.8-210L1221.8-210z M1211.4-211.4h8.1v-2.8c0-1.6-1-2.7-4.1-2.7s-4.1,1.1-4.1,2.7
		L1211.4-211.4L1211.4-211.4z"/>
</g>
<title>illust_checks</title>
<g id="sparkles" class="st0">
	<line class="st2" x1="1190" y1="-854.9" x2="1190" y2="-830.9"/>
	<line class="st2" x1="1178" y1="-842.9" x2="1202" y2="-842.9"/>
	<line class="st2" x1="1182" y1="-513.6" x2="1182" y2="-497.6"/>
	<line class="st2" x1="1174" y1="-505.6" x2="1190" y2="-505.6"/>
	<line class="st2" x1="1692" y1="-734.6" x2="1692" y2="-718.6"/>
	<line class="st2" x1="1684" y1="-726.6" x2="1700" y2="-726.6"/>
	<circle class="st2" cx="1645" cy="-585.1" r="7.7"/>
	<circle class="st2" cx="1232" cy="-477.3" r="7.7"/>
</g>
<g>
	<g>
		<g>
			<polygon class="st3" points="518.6,365.3 506.3,361.2 506.3,343.5 518.6,347.1 			"/>
			<polyline class="st3" points="521.8,347.1 534,343.5 534,361.2 521.8,365.3 521.8,347.1 			"/>
			<polyline class="st3" points="531.5,341.6 520.1,338 508.8,341.6 520.1,344.6 531.5,341.6 			"/>
			<polygon class="st3" points="549.4,365.3 537.2,361.2 537.2,343.5 549.4,347.1 			"/>
			<polyline class="st3" points="552.6,347.1 564.9,343.5 564.8,361.2 552.6,365.3 552.6,347.1 			"/>
			<polyline class="st3" points="562.4,341.6 550.9,338 539.7,341.6 551,344.6 562.4,341.6 			"/>
			<polygon class="st3" points="472.3,373.1 460,369.4 460,387.2 472.3,391.3 			"/>
			<polyline class="st3" points="475.5,373.1 487.7,369.4 487.7,387.2 475.5,391.3 475.5,373.1 			"/>
			<polyline class="st3" points="485.2,367.5 473.8,364 462.5,367.5 473.8,370.5 485.2,367.5 			"/>
			<polygon class="st3" points="503.1,391.3 490.9,387.2 490.9,369.4 503.1,373.1 			"/>
			<polyline class="st3" points="506.3,373.1 518.6,369.4 518.5,387.2 506.3,391.3 506.3,373.1 			"/>
			<polyline class="st3" points="516.1,367.5 504.7,364 493.4,367.5 504.7,370.5 516.1,367.5 			"/>
			<polygon class="st3" points="487.7,417.2 475.5,413.1 475.5,395.4 487.7,399 			"/>
			<polyline class="st3" points="490.9,399 503.1,395.4 503.1,413.1 490.9,417.2 490.9,399 			"/>
			<polyline class="st3" points="500.7,393.4 489.2,389.9 478,393.4 489.2,396.5 500.7,393.4 			"/>
		</g>
		<g>
			<path d="M541.9,401.5l-0.9,0c-0.3,0-0.8,0.2-0.9,0.6l-2.7,9.6l-2.7-9.6c-0.1-0.3-0.4-0.6-0.8-0.6h-1.1c-0.4,0-0.7,0.3-0.7,0.6
				l-2.5,9.5l-2.6-9.6c-0.1-0.3-0.5-0.6-0.9-0.6l-1.3,0c-0.3,0-0.5,0.1-0.7,0.3c-0.1,0.1-0.1,0.3-0.1,0.4l4,14.2
				c0.1,0.3,0.3,0.6,0.7,0.6h1.3c0.3,0,0.7-0.3,0.7-0.6l2.5-9.5l2.7,9.5c0.1,0.3,0.3,0.6,0.7,0.6h1.3c0.4,0,0.7-0.2,0.7-0.6
				l3.9-14.2c0-0.1,0-0.3-0.1-0.4C542.4,401.6,542.2,401.5,541.9,401.5z"/>
			<path d="M549.7,401.4c-4.6,0-6.7,4.1-6.7,7.9c0,4.7,2.6,7.8,6.6,7.8c2.9,0,5.1-1.5,6-4c0-0.1,0-0.3,0-0.4
				c-0.1-0.2-0.3-0.3-0.5-0.3l-1.3-0.2c-0.3-0.1-0.7,0.1-0.9,0.4c-0.6,1.4-1.8,2.2-3.2,2.3c-1.4,0-2.6-0.9-3.2-2.1
				c-0.5-1-0.5-2-0.5-3l9.2,0c0.2,0,0.4-0.1,0.5-0.2c0.1-0.1,0.2-0.3,0.2-0.4C556,405.3,554.4,401.4,549.7,401.4z M553,407.6h-6.8
				c0.2-1.9,1.4-3.9,3.5-4C552,403.6,553,405.6,553,407.6z"/>
			<path d="M564.7,401.3h-0.2c-1.5,0-2.7,0.6-3.6,1.9l0-6c0-0.3-0.3-0.6-0.7-0.6h-1.3c-0.3,0-0.7,0.3-0.7,0.6v18.7
				c0,0.3,0.4,0.6,0.7,0.6l0.4,0c0.4,0,0.6-0.3,0.7-0.6l0.4-1.3c1,1.4,2.4,2.2,4,2.2h0.2c4.1,0,5.9-4,5.9-8c0-2-0.5-3.9-1.3-5.2
				C568.1,402.2,566.4,401.3,564.7,401.3z M567.4,409.3c0,0.9-0.2,5.2-3.2,5.3c-1,0-2.1-0.6-2.7-1.5c-0.4-0.7-0.7-1.6-0.7-2.8v-2.6
				c0-2,1.4-4.1,3.4-4.2C567.3,403.6,567.4,408.3,567.4,409.3z"/>
			<path d="M584.9,408.9c-0.9-0.6-1.9-0.8-2.9-1l-2-0.4c-1.4-0.2-2.3-0.6-2.3-1.9c0-1.3,1.4-1.9,2.6-1.9c1.4,0,2.5,0.7,3,1.8
				c0.1,0.3,0.4,0.4,0.7,0.4c0,0,0.1,0,0.1,0l1.2-0.3c0.2,0,0.4-0.2,0.5-0.4c0.1-0.1,0.1-0.3,0-0.4c-0.8-2.2-2.7-3.4-5.6-3.4
				c-2.6,0-5.5,1.2-5.5,4.5c0,2.2,1.4,3.7,4.2,4.2l2.2,0.4c1.2,0.2,2.5,0.7,2.5,2c0,2-2.3,2.2-3,2.2c-1.5,0-3.3-0.7-3.7-2.2
				c-0.1-0.3-0.5-0.5-0.8-0.5l-1.3,0.3c-0.2,0-0.4,0.2-0.5,0.3c-0.1,0.1-0.1,0.3-0.1,0.5c0.7,2.4,3,3.9,6.2,3.9h0.1
				c2.9,0,6-1.2,6-4.7C586.7,410.9,586,409.7,584.9,408.9z"/>
			<path d="M594.8,401.4c-4.6,0-6.7,4.1-6.7,7.9c0,4.7,2.6,7.8,6.6,7.8c2.9,0,5.1-1.5,6-4c0.1-0.1,0-0.3,0-0.4
				c-0.1-0.2-0.3-0.3-0.5-0.3L599,412c-0.3,0-0.7,0.1-0.9,0.4c-0.6,1.4-1.7,2.2-3.2,2.3c-1.4,0-2.6-0.9-3.2-2.1c-0.5-1-0.5-2-0.5-3
				l9.2,0c0.2,0,0.4-0.1,0.5-0.2c0.1-0.1,0.2-0.3,0.2-0.4C601.1,405.3,599.4,401.4,594.8,401.4z M598.1,407.6h-6.8
				c0.2-1.9,1.4-3.9,3.5-4C597,403.7,598.1,405.6,598.1,407.6z"/>
			<path d="M609.9,401.6c-0.2,0-0.4,0-0.5,0c-1.6,0-2.8,0.8-3.7,2.5l0-1.4c0-0.3-0.3-0.6-0.7-0.6h-1.2c-0.4,0-0.7,0.3-0.7,0.6
				l0,13.7c0,0.3,0.3,0.6,0.7,0.6h1.3c0.3,0,0.7-0.3,0.7-0.6l0-6.9c0-1.1,0.1-2,0.6-3c0.8-1.4,1.9-2.2,3.3-2.2
				c0.4,0,0.7-0.3,0.7-0.7v-1.3C610.5,401.9,610.2,401.6,609.9,401.6z"/>
			<path d="M624,401.3h-1.1c-0.3,0-0.8,0.2-0.9,0.6l-3.4,10.9l-3.5-10.8c-0.1-0.4-0.5-0.6-0.9-0.6h-1.5c-0.3,0-0.5,0.1-0.7,0.3
				c-0.1,0.1-0.1,0.3-0.1,0.4l4.8,14.3c0.1,0.3,0.3,0.6,0.7,0.6h1.8c0.3,0,0.6-0.2,0.7-0.6l4.7-14.3c0-0.1,0-0.3-0.1-0.4
				C624.6,401.4,624.3,401.3,624,401.3z"/>
			<path d="M627.5,395.8c-1,0-1.8,0.8-1.8,1.8c0,1,0.8,1.8,1.8,1.8c1,0,1.8-0.8,1.8-1.8C629.3,396.6,628.5,395.8,627.5,395.8z"/>
			<path d="M628.2,401.2h-1.5c-0.4,0-0.8,0.3-0.8,0.7l0,14.6c0,0.2,0.1,0.4,0.2,0.5c0.1,0.1,0.3,0.2,0.5,0.2l1.5,0h0
				c0.4,0,0.8-0.3,0.8-0.7v-14.6C629,401.5,628.6,401.2,628.2,401.2z"/>
			<path d="M641.9,411.1l-1.2,0c-0.3,0-0.6,0.2-0.7,0.6c-0.4,1.9-1.5,2.9-3,3c-3-0.1-3.2-4.2-3.2-5.5c0-2.5,0.9-5.3,3.3-5.3
				c1.5,0,2.6,1.1,2.9,2.8c0.1,0.4,0.3,0.6,0.7,0.7l1.3,0c0.4,0,0.7-0.3,0.7-0.7c-0.5-3.1-2.6-5.1-5.5-5.1l-0.1,0l-0.1,0
				c-4.2,0-6.1,3.9-6.1,7.8c0,3.6,1.6,7.7,6.1,7.7h0.2c2.8,0,4.9-2,5.6-5.2c0-0.2,0-0.3-0.1-0.4
				C642.3,411.2,642.1,411.1,641.9,411.1z"/>
			<path d="M650.6,401.4c-4.6,0-6.7,4.1-6.7,7.9c0,4.7,2.6,7.8,6.6,7.8c2.9,0,5.1-1.5,6-4c0-0.1,0-0.3,0-0.4
				c-0.1-0.2-0.3-0.3-0.5-0.3l-1.3-0.2c-0.3,0-0.7,0.1-0.9,0.4c-0.6,1.4-1.8,2.2-3.2,2.3c-1.4,0-2.6-0.9-3.2-2.1c-0.5-1-0.5-2-0.5-3
				l9.2,0c0.2,0,0.4-0.1,0.5-0.2c0.1-0.1,0.2-0.3,0.2-0.4C656.9,405.3,655.2,401.4,650.6,401.4z M653.9,407.6h-6.8
				c0.2-1.9,1.4-3.9,3.5-4C652.8,403.7,653.8,405.6,653.9,407.6z"/>
			<path d="M668.5,408.9c-0.9-0.6-1.9-0.8-3-1l-2-0.4c-1.4-0.2-2.3-0.6-2.3-1.9c0-1.7,2.1-1.9,2.6-1.9c1.4,0,2.5,0.7,3,1.8
				c0.1,0.3,0.4,0.4,0.7,0.4c0,0,0.1,0,0.1,0l1.2-0.3c0.2,0,0.4-0.2,0.5-0.4c0.1-0.1,0.1-0.3,0.1-0.4c-0.8-2.2-2.7-3.4-5.6-3.4
				c-2.6,0-5.5,1.2-5.5,4.5c0,2.2,1.4,3.7,4.2,4.2l2.2,0.4c1.2,0.2,2.5,0.7,2.5,2c0,2-2.3,2.2-3,2.2c-1.4,0-3.3-0.6-3.7-2.2
				c-0.1-0.3-0.5-0.5-0.8-0.5l-1.3,0.3c-0.2,0-0.4,0.2-0.5,0.3c-0.1,0.1-0.1,0.3-0.1,0.5c0.7,2.4,3,3.9,6.2,3.9h0.1
				c2.9,0,6-1.2,6-4.7C670.2,410.9,669.6,409.7,668.5,408.9z"/>
		</g>
		<g>
			<path class="st4" d="M609.2,373.2v-3.3c0-0.5,0.4-0.8,0.8-0.8h14.8c0.5,0,0.9,0.3,0.9,0.8v2.8c0,0.5-0.4,1.1-1.1,2.1l-7.7,11
				c2.8-0.1,5.9,0.4,8.4,1.8c0.6,0.3,0.7,0.8,0.8,1.3v3.5c0,0.5-0.5,1.1-1.1,0.8c-4.6-2.4-10.6-2.7-15.6,0c-0.5,0.3-1.1-0.3-1.1-0.8
				V389c0-0.5,0-1.5,0.6-2.3l8.9-12.8l-7.7,0C609.6,374,609.2,373.7,609.2,373.2"/>
			<path class="st4" d="M555.2,393.8h-4.5c-0.4,0-0.8-0.3-0.8-0.8l0-23.2c0-0.5,0.4-0.8,0.9-0.8l4.2,0c0.4,0,0.8,0.4,0.8,0.8v3h0.1
				c1.1-2.9,3.2-4.3,5.9-4.3c2.8,0,4.6,1.4,5.8,4.3c1.1-2.9,3.6-4.3,6.2-4.3c1.9,0,3.9,0.8,5.2,2.5c1.4,2,1.1,4.8,1.1,7.3l0,14.6
				c0,0.5-0.4,0.8-0.9,0.8h-4.5c-0.5,0-0.8-0.4-0.8-0.8v-12.3c0-1,0.1-3.4-0.1-4.3c-0.3-1.6-1.3-2-2.6-2c-1.1,0-2.2,0.7-2.7,1.9
				c-0.5,1.2-0.4,3.1-0.4,4.4V393c0,0.5-0.4,0.8-0.9,0.8h-4.5c-0.4,0-0.8-0.4-0.8-0.8l0-12.3c0-2.6,0.4-6.4-2.8-6.4
				c-3.2,0-3.1,3.7-3.1,6.4l0,12.3C556.1,393.5,555.7,393.8,555.2,393.8"/>
			<path class="st4" d="M638.4,368.6c6.7,0,10.3,5.8,10.3,13.1c0,7.1-4,12.7-10.3,12.7c-6.6,0-10.1-5.8-10.1-12.9
				C628.3,374.2,631.9,368.6,638.4,368.6 M638.5,373.3c-3.3,0-3.5,4.5-3.5,7.4c0,2.8,0,8.9,3.5,8.9c3.5,0,3.7-4.9,3.7-7.8
				c0-1.9-0.1-4.3-0.7-6.1C640.9,373.9,639.9,373.3,638.5,373.3z"/>
			<path class="st4" d="M657.4,393.8h-4.5c-0.5,0-0.8-0.4-0.8-0.8l0-23.2c0-0.4,0.4-0.8,0.9-0.8l4.2,0c0.4,0,0.7,0.3,0.8,0.6v3.5
				h0.1c1.3-3.2,3-4.7,6.1-4.7c2,0,4,0.7,5.3,2.7c1.2,1.9,1.2,5,1.2,7.2v14.6c0,0.4-0.4,0.7-0.9,0.7h-4.5c-0.4,0-0.8-0.3-0.8-0.7
				v-12.6c0-2.5,0.3-6.2-2.8-6.2c-1.1,0-2.1,0.7-2.6,1.9c-0.6,1.4-0.7,2.8-0.7,4.4V393C658.3,393.5,657.9,393.8,657.4,393.8"/>
			<path class="st4" d="M597.4,382.8c0,1.8,0,3.2-0.8,4.8c-0.7,1.3-1.9,2.1-3.1,2.1c-1.7,0-2.7-1.3-2.7-3.3c0-3.8,3.4-4.5,6.7-4.5
				V382.8 M602,393.8c-0.3,0.3-0.7,0.3-1.1,0.1c-1.5-1.2-1.8-1.8-2.6-3c-2.5,2.5-4.2,3.3-7.4,3.3c-3.8,0-6.7-2.3-6.7-7
				c0-3.7,2-6.2,4.8-7.4c2.4-1.1,5.9-1.3,8.5-1.6v-0.6c0-1.1,0.1-2.3-0.5-3.3c-0.5-0.8-1.6-1.2-2.5-1.2c-1.7,0-3.2,0.9-3.6,2.7
				c-0.1,0.4-0.4,0.8-0.8,0.8l-4.4-0.5c-0.4-0.1-0.8-0.4-0.7-0.9c1-5.3,5.8-6.9,10.1-6.9c2.2,0,5.1,0.6,6.8,2.2c2.2,2.1,2,4.8,2,7.8
				v7c0,2.1,0.9,3,1.7,4.2c0.3,0.4,0.3,0.9,0,1.2C604.5,391.6,602.9,393,602,393.8L602,393.8z"/>
			<path class="st4" d="M538.4,382.8c0,1.8,0,3.2-0.8,4.8c-0.7,1.3-1.9,2.1-3.1,2.1c-1.7,0-2.7-1.3-2.7-3.3c0-3.8,3.4-4.5,6.7-4.5
				V382.8 M542.9,393.8c-0.3,0.3-0.7,0.3-1.1,0.1c-1.5-1.2-1.8-1.8-2.6-3c-2.5,2.5-4.2,3.3-7.4,3.3c-3.8,0-6.7-2.3-6.7-7
				c0-3.7,2-6.2,4.8-7.4c2.4-1.1,5.9-1.3,8.5-1.6v-0.6c0-1.1,0.1-2.3-0.5-3.3c-0.5-0.8-1.6-1.2-2.5-1.2c-1.7,0-3.2,0.9-3.6,2.7
				c-0.1,0.4-0.4,0.8-0.8,0.8l-4.4-0.5c-0.4-0.1-0.8-0.4-0.7-0.9c1-5.3,5.8-6.9,10.1-6.9c2.2,0,5.1,0.6,6.8,2.2c2.2,2.1,2,4.8,2,7.8
				v7c0,2.1,0.9,3,1.7,4.2c0.3,0.4,0.4,0.9,0,1.2C545.5,391.6,543.8,393,542.9,393.8L542.9,393.8z"/>
		</g>
	</g>
	<g>
		<path class="st5" d="M706.9,397.6h1.8l14.6,19.9h0.1v-19.9h1.4v21.6h-1.7l-14.7-20h-0.1v20h-1.4V397.6z"/>
		<path class="st5" d="M728.7,411.6c-0.1,3.7,2,7,6.1,7c3.1,0,5.4-1.8,6-4.6h1.2c-0.6,3.6-3.2,5.6-7.2,5.6c-4.9,0-7.4-3.6-7.4-7.9
			c-0.1-4.3,2.3-8.4,7.4-8.4c5.2,0,7.6,3.8,7.3,8.3H728.7z M740.9,410.6c-0.1-3.3-2.3-6.3-6.1-6.3c-3.7,0-5.9,3.2-6.1,6.3H740.9z"/>
		<path class="st5" d="M751,404.7h-3.6v10.9c0,2.5,1.3,2.8,3.6,2.7v1c-2.5,0.2-5-0.2-4.8-3.7v-10.9h-3.1v-1h3.1v-4.9h1.2v4.9h3.6
			V404.7z"/>
		<path class="st5" d="M757.6,417.9L757.6,417.9l4.6-14.2h1.7l4.6,14.2h0.1l4.7-14.2h1.4l-5.4,15.6h-1.5l-4.6-14.1H763l-4.6,14.1
			h-1.6l-5.3-15.6h1.3L757.6,417.9z"/>
		<path class="st5" d="M782.6,403.3c4.9,0,7.7,3.7,7.7,8.2c0,4.4-2.8,8.2-7.7,8.2c-4.9,0-7.7-3.7-7.7-8.2
			C775,407,777.7,403.3,782.6,403.3z M782.6,418.6c4.2,0,6.4-3.4,6.4-7.2c0-3.7-2.2-7.2-6.4-7.2c-4.2,0-6.4,3.4-6.4,7.2
			C776.2,415.2,778.4,418.6,782.6,418.6z"/>
		<path class="st5" d="M794.2,407.1L794.2,407.1c0.7-2,3.5-3.7,6.5-3.5v1.2c-1.3-0.2-3.1,0.2-4.6,1.5c-1.2,1.2-1.8,2.2-1.9,4.5v8.5
			H793v-15.6h1.2V407.1z"/>
		<path class="st5" d="M802.1,397.6h1.2V412l10.3-8.3h1.8l-7.3,5.8l7.8,9.8h-1.7l-7.1-8.9l-3.8,3v5.9h-1.2V397.6z"/>
	</g>
	<g>
		<path class="st5" d="M707.1,369.3h9.7c2.6,0,6.6,0.9,6.6,6c0,3.7-2.6,5.8-7.2,5.8h-7.8v9.5h-1.4V369.3z M708.5,380h8
			c4.1,0,5.5-2.5,5.5-4.7c0-1.6-0.8-4.8-5.3-4.8h-8.2V380z"/>
		<path class="st5" d="M737.9,387.8c0,0.9,0,1.9,1.1,1.9c0.2,0,0.5,0,0.9-0.1v1c-0.4,0.1-0.7,0.1-1,0.1c-1.9,0-2.2-1-2.2-2.2v-0.8
			h-0.1c-0.8,1.8-3,3.4-6.1,3.4c-3.1,0-5.5-1.1-5.5-4.3c0-3.6,3.3-4.3,6-4.5c5.4-0.4,5.7-0.7,5.7-3.2c0-0.7-0.8-3-4.6-3
			c-2.9,0-4.9,1.4-5,4.1h-1.2c0.2-3.4,2.4-5.1,6.3-5.1c2.9,0,5.8,0.8,5.8,4V387.8z M736.7,381.9c-1,1-3.6,0.9-5.9,1.2
			c-2.9,0.3-4.5,1.3-4.5,3.6c0,1.9,1.4,3.3,4.3,3.3c5.5,0,6.1-4.4,6.1-5.2V381.9z"/>
		<path class="st5" d="M743,378.7L743,378.7c0.7-2,3.4-3.6,6.4-3.5v1.1c-1.3-0.1-3.1,0.1-4.5,1.5c-1.2,1.2-1.7,2.1-1.9,4.4v8.4h-1.2
			v-15.3h1.2V378.7z"/>
		<path class="st5" d="M757.6,376.3H754V387c0,2.5,1.2,2.7,3.5,2.7v1c-2.5,0.1-4.9-0.2-4.8-3.6v-10.7h-3v-1h3v-4.8h1.2v4.8h3.6
			V376.3z"/>
		<path class="st5" d="M759.9,375.3h1.2v3.3h0.1c0.8-2.3,3.3-3.6,5.9-3.6c5.8,0,5.8,4.3,5.8,6.2v9.5h-1.2V381c0-1.6-0.2-5-4.7-5
			c-3.7,0-5.9,2.7-5.9,6.4v8.3h-1.2V375.3z"/>
		<path class="st5" d="M777,383.1c-0.1,3.6,2,6.9,6,6.9c3.1,0,5.3-1.7,5.9-4.6h1.2c-0.6,3.6-3.2,5.6-7.1,5.6c-4.8,0-7.3-3.5-7.3-7.8
			c-0.1-4.2,2.3-8.3,7.3-8.3c5.1,0,7.4,3.8,7.2,8.2H777z M789.1,382.2c-0.1-3.2-2.2-6.2-6-6.2c-3.6,0-5.8,3.2-6,6.2H789.1z"/>
		<path class="st5" d="M794.4,378.7L794.4,378.7c0.7-2,3.4-3.6,6.4-3.5v1.1c-1.3-0.1-3.1,0.1-4.5,1.5c-1.2,1.2-1.7,2.1-1.9,4.4v8.4
			h-1.2v-15.3h1.2V378.7z"/>
	</g>
	<g>
		<rect x="689.2" y="353" class="st5" width="1.3" height="83.4"/>
	</g>
</g>
<g>
	<path class="st6" d="M534.3,457.1v-1.4h10.2v1.4h-4.3v11.4h-1.7v-11.4H534.3z"/>
	<path class="st6" d="M554.8,455.7v1.4h-7.1v4.1h6.7v1.4h-6.7v4.4h7.2v1.4H546v-12.8H554.8z"/>
	<path class="st6" d="M564.7,457.5c-0.7-0.5-1.4-0.7-2.3-0.7c-0.8,0-1.4,0.1-2,0.4c-0.5,0.3-1,0.7-1.3,1.2c-0.4,0.5-0.6,1-0.8,1.7
		c-0.2,0.6-0.3,1.3-0.3,1.9c0,0.7,0.1,1.4,0.3,2.1c0.2,0.7,0.4,1.2,0.8,1.7c0.4,0.5,0.8,0.9,1.4,1.2c0.5,0.3,1.2,0.4,2,0.4
		c0.6,0,1.1-0.1,1.5-0.3c0.4-0.2,0.8-0.4,1.1-0.8c0.3-0.3,0.6-0.7,0.7-1.2c0.2-0.5,0.3-0.9,0.3-1.5h1.7c-0.2,1.6-0.7,2.9-1.7,3.8
		c-0.9,0.9-2.2,1.3-3.9,1.3c-1,0-1.9-0.2-2.6-0.5c-0.7-0.3-1.4-0.8-1.8-1.4c-0.5-0.6-0.9-1.3-1.1-2.1c-0.2-0.8-0.4-1.7-0.4-2.6
		c0-0.9,0.1-1.8,0.4-2.6c0.3-0.8,0.6-1.5,1.2-2.1c0.5-0.6,1.1-1.1,1.9-1.4c0.8-0.4,1.6-0.5,2.6-0.5c0.7,0,1.3,0.1,1.9,0.3
		c0.6,0.2,1.1,0.4,1.6,0.8c0.5,0.3,0.9,0.8,1.2,1.3c0.3,0.5,0.5,1.1,0.6,1.8h-1.7C565.7,458.6,565.3,458,564.7,457.5z"/>
	<path class="st6" d="M571.6,455.7v5.5h6.7v-5.5h1.7v12.8h-1.7v-5.9h-6.7v5.9h-1.7v-12.8H571.6z"/>
	<path class="st6" d="M584.6,455.7l6.7,10.4h0v-10.4h1.6v12.8h-1.9l-6.7-10.3h0v10.3h-1.6v-12.8H584.6z"/>
	<path class="st6" d="M595.5,459.6c0.3-0.8,0.6-1.5,1.2-2.1c0.5-0.6,1.2-1.1,1.9-1.5c0.8-0.4,1.7-0.6,2.7-0.6c1,0,1.9,0.2,2.7,0.6
		c0.8,0.4,1.4,0.9,1.9,1.5c0.5,0.6,0.9,1.3,1.2,2.1c0.3,0.8,0.4,1.6,0.4,2.5c0,0.9-0.1,1.7-0.4,2.5c-0.3,0.8-0.6,1.5-1.2,2.1
		c-0.5,0.6-1.2,1.1-1.9,1.5c-0.8,0.4-1.7,0.5-2.7,0.5c-1,0-1.9-0.2-2.7-0.5c-0.8-0.4-1.4-0.9-1.9-1.5c-0.5-0.6-0.9-1.3-1.2-2.1
		c-0.3-0.8-0.4-1.6-0.4-2.5C595.1,461.2,595.2,460.4,595.5,459.6z M597,464c0.2,0.6,0.4,1.2,0.8,1.7c0.4,0.5,0.8,0.9,1.4,1.2
		c0.6,0.3,1.2,0.5,2,0.5c0.8,0,1.4-0.2,2-0.5c0.6-0.3,1-0.7,1.4-1.2c0.4-0.5,0.6-1.1,0.8-1.7c0.2-0.6,0.3-1.3,0.3-1.9
		c0-0.6-0.1-1.3-0.3-1.9c-0.2-0.6-0.4-1.2-0.8-1.7s-0.8-0.9-1.4-1.2c-0.6-0.3-1.2-0.5-2-0.5c-0.8,0-1.4,0.2-2,0.5
		c-0.6,0.3-1,0.7-1.4,1.2c-0.4,0.5-0.6,1.1-0.8,1.7c-0.2,0.6-0.3,1.3-0.3,1.9C596.8,462.7,596.9,463.4,597,464z"/>
	<path class="st6" d="M611.1,455.7v11.4h6.8v1.4h-8.5v-12.8H611.1z"/>
	<path class="st6" d="M619.1,459.6c0.3-0.8,0.6-1.5,1.2-2.1c0.5-0.6,1.2-1.1,1.9-1.5c0.8-0.4,1.7-0.6,2.7-0.6c1,0,1.9,0.2,2.7,0.6
		c0.8,0.4,1.4,0.9,1.9,1.5c0.5,0.6,0.9,1.3,1.2,2.1c0.3,0.8,0.4,1.6,0.4,2.5c0,0.9-0.1,1.7-0.4,2.5c-0.3,0.8-0.6,1.5-1.2,2.1
		c-0.5,0.6-1.2,1.1-1.9,1.5c-0.8,0.4-1.7,0.5-2.7,0.5c-1,0-1.9-0.2-2.7-0.5c-0.8-0.4-1.4-0.9-1.9-1.5c-0.5-0.6-0.9-1.3-1.2-2.1
		c-0.3-0.8-0.4-1.6-0.4-2.5C618.7,461.2,618.8,460.4,619.1,459.6z M620.6,464c0.2,0.6,0.4,1.2,0.8,1.7c0.4,0.5,0.8,0.9,1.4,1.2
		c0.6,0.3,1.2,0.5,2,0.5c0.8,0,1.4-0.2,2-0.5c0.6-0.3,1-0.7,1.4-1.2c0.4-0.5,0.6-1.1,0.8-1.7c0.2-0.6,0.3-1.3,0.3-1.9
		c0-0.6-0.1-1.3-0.3-1.9c-0.2-0.6-0.4-1.2-0.8-1.7c-0.4-0.5-0.8-0.9-1.4-1.2c-0.6-0.3-1.2-0.5-2-0.5c-0.8,0-1.4,0.2-2,0.5
		c-0.6,0.3-1,0.7-1.4,1.2c-0.4,0.5-0.6,1.1-0.8,1.7c-0.2,0.6-0.3,1.3-0.3,1.9C620.4,462.7,620.5,463.4,620.6,464z"/>
	<path class="st6" d="M640.7,468.3c-0.7,0.3-1.5,0.4-2.2,0.4c-1,0-1.8-0.2-2.6-0.5c-0.8-0.4-1.4-0.8-1.9-1.4
		c-0.5-0.6-0.9-1.3-1.2-2.1c-0.3-0.8-0.4-1.6-0.4-2.4c0-0.9,0.1-1.8,0.4-2.7c0.3-0.8,0.6-1.6,1.1-2.2c0.5-0.6,1.1-1.1,1.9-1.5
		c0.8-0.4,1.6-0.6,2.7-0.6c0.7,0,1.3,0.1,2,0.2c0.6,0.2,1.2,0.4,1.7,0.8c0.5,0.3,0.9,0.8,1.2,1.3c0.3,0.5,0.6,1.2,0.7,1.9h-1.7
		c-0.1-0.5-0.2-0.9-0.5-1.3c-0.2-0.4-0.5-0.6-0.8-0.9c-0.3-0.2-0.7-0.4-1.1-0.5c-0.4-0.1-0.9-0.2-1.4-0.2c-0.8,0-1.4,0.2-2,0.5
		c-0.6,0.3-1,0.7-1.4,1.2c-0.4,0.5-0.6,1.1-0.8,1.7c-0.2,0.7-0.3,1.3-0.3,2c0,0.7,0.1,1.3,0.3,1.9c0.2,0.6,0.5,1.2,0.8,1.6
		c0.4,0.5,0.8,0.8,1.4,1.1c0.5,0.3,1.2,0.4,1.9,0.4c0.7,0,1.3-0.1,1.8-0.3c0.5-0.2,0.9-0.5,1.3-0.9c0.4-0.4,0.6-0.8,0.8-1.3
		c0.2-0.5,0.3-1.1,0.2-1.6h-4.1v-1.4h5.6v6.7H643l-0.4-1.6C642.1,467.6,641.5,468.1,640.7,468.3z"/>
	<path class="st6" d="M651.9,468.5h-1.7v-5.2l-4.9-7.6h2l3.8,6.1l3.7-6.1h1.9l-4.9,7.6V468.5z"/>
	<path class="st6" d="M668.8,455.7c1.3,0,2.3,0.3,2.9,1c0.7,0.7,1,1.6,1,2.8c0,1.2-0.3,2.1-1,2.8c-0.7,0.7-1.6,1-2.9,1h-3.9v5.2
		h-1.7v-12.8H668.8z M668.3,461.8c1,0,1.7-0.2,2.1-0.6c0.4-0.4,0.7-1,0.7-1.8c0-0.8-0.2-1.3-0.7-1.7c-0.4-0.4-1.2-0.6-2.1-0.6h-3.3
		v4.7H668.3z"/>
	<path class="st6" d="M678.9,455.7l5,12.8H682l-1.4-3.9h-5.4l-1.4,3.9H672l5-12.8H678.9z M680.1,463.2l-2.1-6h0l-2.2,6H680.1z"/>
	<path class="st6" d="M691.2,455.7c1.2,0,2.2,0.3,2.9,0.9c0.7,0.6,1,1.4,1,2.5c0,0.8-0.2,1.5-0.5,2c-0.4,0.6-0.9,1-1.7,1.2v0
		c0.4,0.1,0.7,0.2,0.9,0.4s0.4,0.4,0.6,0.6c0.1,0.2,0.2,0.5,0.3,0.8c0.1,0.3,0.1,0.6,0.2,0.9c0,0.3,0,0.6,0.1,1c0,0.3,0,0.6,0.1,1
		c0,0.3,0.1,0.6,0.2,0.9c0.1,0.3,0.2,0.5,0.4,0.7h-1.9c-0.1-0.1-0.2-0.3-0.2-0.5c0-0.2-0.1-0.5-0.1-0.8c0-0.3,0-0.6,0-0.9
		c0-0.3,0-0.6-0.1-1c0-0.3-0.1-0.6-0.2-0.9c-0.1-0.3-0.2-0.5-0.3-0.7c-0.2-0.2-0.4-0.4-0.6-0.5s-0.6-0.2-1-0.2h-4.2v5.5h-1.7v-12.8
		H691.2z M691.5,461.5c0.4-0.1,0.7-0.2,0.9-0.3c0.3-0.2,0.5-0.4,0.6-0.7c0.2-0.3,0.2-0.7,0.2-1.1c0-0.6-0.2-1.2-0.5-1.6
		c-0.4-0.4-0.9-0.6-1.7-0.6h-4.2v4.5h3.6C690.8,461.6,691.2,461.6,691.5,461.5z"/>
	<path class="st6" d="M695.7,457.1v-1.4H706v1.4h-4.3v11.4H700v-11.4H695.7z"/>
	<path class="st6" d="M709.2,455.7l6.7,10.4h0v-10.4h1.6v12.8h-1.9l-6.7-10.3h0v10.3h-1.6v-12.8H709.2z"/>
	<path class="st6" d="M729.2,455.7v1.4h-7.1v4.1h6.7v1.4h-6.7v4.4h7.2v1.4h-8.9v-12.8H729.2z"/>
	<path class="st6" d="M737.3,455.7c1.2,0,2.2,0.3,2.9,0.9c0.7,0.6,1,1.4,1,2.5c0,0.8-0.2,1.5-0.5,2c-0.4,0.6-0.9,1-1.7,1.2v0
		c0.4,0.1,0.7,0.2,0.9,0.4c0.2,0.2,0.4,0.4,0.6,0.6c0.1,0.2,0.2,0.5,0.3,0.8c0.1,0.3,0.1,0.6,0.2,0.9c0,0.3,0,0.6,0.1,1
		c0,0.3,0,0.6,0.1,1c0,0.3,0.1,0.6,0.2,0.9c0.1,0.3,0.2,0.5,0.4,0.7h-1.9c-0.1-0.1-0.2-0.3-0.2-0.5c0-0.2-0.1-0.5-0.1-0.8
		c0-0.3,0-0.6,0-0.9c0-0.3,0-0.6-0.1-1c0-0.3-0.1-0.6-0.2-0.9c-0.1-0.3-0.2-0.5-0.3-0.7c-0.2-0.2-0.4-0.4-0.6-0.5s-0.6-0.2-1-0.2
		H733v5.5h-1.7v-12.8H737.3z M737.7,461.5c0.4-0.1,0.7-0.2,0.9-0.3c0.3-0.2,0.5-0.4,0.6-0.7c0.2-0.3,0.2-0.7,0.2-1.1
		c0-0.6-0.2-1.2-0.5-1.6c-0.4-0.4-0.9-0.6-1.7-0.6H733v4.5h3.6C737,461.6,737.3,461.6,737.7,461.5z"/>
</g>
<g>
	<path class="st6" d="M838,480.2c0,6.5-5.3,11.8-11.8,11.8H449.8c-6.5,0-11.8-5.3-11.8-11.8V329.8c0-6.5,5.3-11.8,11.8-11.8h376.3
		c6.5,0,11.8,5.3,11.8,11.8V480.2z M836,330.6c0-5.8-4.7-10.6-10.6-10.6H450.6c-5.8,0-10.6,4.7-10.6,10.6v148.8
		c0,5.8,4.7,10.6,10.6,10.6h374.8c5.8,0,10.6-4.7,10.6-10.6V330.6z"/>
</g>
<path d="M359.9,705.6V687h14v3.6h-10v3.8h8.8v3.6h-8.8v3.9H374v3.6L359.9,705.6L359.9,705.6z"/>
<path d="M386.4,705.9c-5.2,0.1-9.4-4.1-9.5-9.2c0-0.1,0-0.2,0-0.3l0,0c-0.1-5.2,4.1-9.5,9.3-9.6c0.1,0,0.3,0,0.4,0
	c2.8-0.2,5.4,0.9,7.4,2.9l-2.6,3c-1.2-1.3-3-2-4.7-2.1c-3,0.1-5.5,2.6-5.4,5.6c0,0.1,0,0.1,0,0.2l0,0c-0.2,3,2.1,5.7,5.1,5.9
	c0.1,0,0.2,0,0.3,0c1.9,0,3.6-0.8,4.9-2.2l2.6,2.6C392.1,704.9,389.3,706.1,386.4,705.9z"/>
<path d="M403.9,705.9c-2.9,0-5.7-1-7.9-3l2.4-3c1.5,1.4,3.5,2.2,5.6,2.3c1.7,0,2.7-0.7,2.7-1.8l0,0c0-1-0.6-1.6-3.7-2.4
	c-3.7-1-6.2-2-6.2-5.7l0,0c0-3.4,2.7-5.6,6.5-5.6c2.5,0,4.9,0.8,6.9,2.4l-2.1,3.1c-1.4-1.1-3.1-1.7-4.8-1.8c-1.6,0-2.4,0.7-2.4,1.6
	l0,0c0,1.2,0.8,1.6,4,2.4c3.8,1,5.9,2.3,5.9,5.6l0,0C410.8,703.8,408,705.9,403.9,705.9z"/>
<g id="Layer_1-2">
	<polygon class="st7" points="343,572.9 338,575.5 338,646.3 343,648.8 362.8,612.3 	"/>
	<polygon class="st7" points="358.4,585.6 365.7,575.2 398.9,589.9 391.1,591.2 	"/>
	<polygon class="st7" points="352.6,636.8 360.7,648 398.9,631.5 391.5,630.3 	"/>
	<polygon class="st8" points="354.7,646.1 343,648.8 343,572.9 354.7,575.6 	"/>
	<polygon class="st7" points="348.5,570.1 354.7,567 366.3,615.7 354.7,654.7 348.5,651.6 	"/>
	<polygon class="st7" points="391.1,630.3 398.9,631.5 406,611.6 398.9,589.9 391.1,591.2 	"/>
	<polygon class="st8" points="366.6,651.3 354.7,654.7 354.7,567 366.6,570.4 	"/>
	<polygon class="st8" points="407,630 354.7,639.8 354.7,654.7 407,639.9 	"/>
	<polygon class="st8" points="407.2,591.5 354.7,581.5 354.7,567 407.2,581.9 	"/>
	<polygon class="st8" points="398.9,579.6 407.3,581.9 407.3,639.9 398.9,642.3 	"/>
	<polygon class="st9" points="431.8,603.2 409.4,604.2 401.4,603.8 424.1,585.3 	"/>
	<polygon class="st7" points="401.4,603.8 424.1,602.4 424.1,585.3 401.4,589 	"/>
	<polygon class="st9" points="380,602.3 403,579 414.7,601.4 390.8,603 	"/>
	<polygon class="st7" points="380,602.3 403,600.4 403,579 380,584.5 	"/>
	<polygon class="st7" points="401.4,618.2 431.8,618.8 424.1,636.7 401.4,633 	"/>
	<polygon class="st7" points="380,619.7 414.7,620.6 403,643 380,637.6 	"/>
	<polygon class="st10" points="380,619.7 403,621.8 414.7,620.6 390.8,619 	"/>
	<polygon class="st10" points="431.8,618.8 409.4,617.8 401.4,618.2 424.1,619.6 	"/>
	<polygon class="st8" points="424.1,602.4 431.8,603.2 431.8,587.7 424.1,585.3 	"/>
	<polygon class="st8" points="414.7,601.4 403,600.4 403,579 414.7,582.5 	"/>
	<polygon class="st8" points="424.1,619.6 431.8,618.8 431.8,634.3 424.1,636.7 	"/>
	<polygon class="st8" points="414.7,620.6 403,621.8 403,643 414.7,639.5 	"/>
</g>
<path d="M507.7,705.6V687h14v3.6h-9.9v3.8h8.8v3.6h-8.8v3.9h10.1v3.6L507.7,705.6L507.7,705.6z"/>
<path d="M534.2,705.9c-5.2,0.1-9.4-4.1-9.5-9.2c0-0.1,0-0.2,0-0.3l0,0c-0.1-5.2,4.1-9.5,9.3-9.6c0.1,0,0.3,0,0.4,0
	c2.8-0.2,5.4,0.9,7.4,2.9l-2.6,3c-1.2-1.3-3-2-4.7-2.1c-3,0.1-5.5,2.6-5.4,5.6c0,0.1,0,0.1,0,0.2l0,0c-0.2,3,2.1,5.7,5.1,5.9
	c0.1,0,0.2,0,0.3,0c1.9,0,3.6-0.8,4.9-2.2l2.6,2.6C539.9,704.9,537.1,706.1,534.2,705.9z"/>
<path d="M547.2,692.9l-2.9-2.3c1.8-2.5,3.6-3.8,6.9-3.8c4,0,6.4,2.3,6.4,5.8c0,3.1-1.6,4.7-4.9,7.2l-3,2.3h8.1v3.5H544v-3.2l6.2-5.1
	c2.3-1.9,3.2-3,3.2-4.4c0.1-1.3-0.9-2.3-2.1-2.4c-0.1,0-0.2,0-0.4,0C549.6,690.4,548.6,691.2,547.2,692.9z"/>
<g id="Layer_1-3">
	<polygon class="st7" points="487.1,572.8 482.1,575.3 482.1,646.4 487.1,648.9 507.6,612.8 	"/>
	<polygon class="st8" points="498.9,646.3 487.1,648.9 487.1,572.8 498.9,575.5 	"/>
	<polygon class="st7" points="492.7,570 498.9,566.9 528.4,614.1 498.9,654.8 492.7,651.7 	"/>
	<polygon class="st8" points="513.5,650.7 498.9,654.8 498.9,566.9 513.5,571 	"/>
	<polygon class="st7" points="505.9,563.4 513.5,559.5 557,619.3 513.5,662.2 505.9,658.4 	"/>
	<polygon class="st8" points="532.4,655.3 513.5,662.2 513.5,559.5 532.4,566.5 	"/>
	<polygon class="st7" points="522.4,555.1 532.4,550.1 579.3,614.2 532.4,671.6 522.4,666.6 	"/>
	<polygon class="st8" points="582.7,646.4 532.4,671.6 532.4,550.1 582.7,575.3 	"/>
</g>
<path d="M665.2,705.6l-4-5.9H658v5.9h-4.2V687h8.5c4.4,0,7,2.3,7,6.1l0,0c0.1,2.6-1.5,5-4,5.8l4.5,6.6L665.2,705.6L665.2,705.6z
	 M665.2,693.4c0-1.8-1.2-2.7-3.2-2.7h-4.1v5.3h4.1C664.1,696.1,665.3,695,665.2,693.4L665.2,693.4L665.2,693.4z"/>
<path d="M680.3,705.6H673V687h7.3c5.9,0,9.9,4,9.9,9.2l0,0C690.1,701.6,686.1,705.6,680.3,705.6z M685.9,696.3
	c0.2-2.9-2.1-5.5-5.1-5.6c-0.2,0-0.4,0-0.5,0h-3.2V702h3.2c2.9,0.2,5.4-2.1,5.6-5C685.9,696.8,685.9,696.6,685.9,696.3L685.9,696.3
	L685.9,696.3z"/>
<path d="M700.1,705.9c-2.9,0-5.7-1-7.9-3l2.4-3c1.5,1.4,3.5,2.2,5.5,2.3c1.7,0,2.7-0.7,2.7-1.8l0,0c0-1-0.6-1.6-3.7-2.4
	c-3.7-1-6.2-2-6.2-5.7l0,0c0-3.4,2.7-5.6,6.5-5.6c2.5,0,4.9,0.8,6.9,2.4l-2.1,3.1c-1.4-1.1-3.1-1.7-4.8-1.8c-1.6,0-2.4,0.7-2.4,1.6
	l0,0c0,1.2,0.8,1.6,4,2.4c3.8,1,5.9,2.3,5.9,5.6l0,0C706.9,703.8,704.1,705.9,700.1,705.9z"/>
<g id="Layer_1-4">
	<polygon class="st11" points="727.1,581.2 715.3,568.2 698.6,610.9 715.3,653.5 727.1,640.5 	"/>
	<polygon class="st12" points="694.7,664 715.3,653.5 715.3,568.2 694.7,557.8 670.2,610.9 	"/>
	<polygon class="st11" points="665.2,664 694.7,664 694.7,557.8 665.2,557.8 647.5,610.9 	"/>
	<polygon class="st13" points="644.5,653.5 665.2,664 665.2,557.8 644.5,568.2 635.4,610.9 	"/>
	<polygon class="st14" points="632.7,640.5 644.5,653.5 644.5,568.2 632.7,581.2 	"/>
</g>
<path d="M785.1,705.9c-5.2,0.1-9.4-4.1-9.5-9.2c0-0.1,0-0.2,0-0.3l0,0c-0.1-5.2,4.1-9.5,9.3-9.6c0.1,0,0.3,0,0.4,0
	c2.8-0.2,5.4,0.9,7.4,2.9l-2.6,3c-1.2-1.3-3-2-4.7-2.1c-3,0.1-5.5,2.6-5.4,5.6c0,0.1,0,0.1,0,0.2l0,0c-0.2,3,2.1,5.7,5.1,5.9
	c0.1,0,0.2,0,0.3,0c1.9,0,3.6-0.8,4.9-2.2l2.6,2.6C790.8,704.9,788,706.1,785.1,705.9z"/>
<path d="M795.7,705.6v-19.4h4v19.4H795.7L795.7,705.6z"/>
<path d="M810.6,705.9c-4.1,0.2-7.5-3-7.7-7.1c0-0.1,0-0.2,0-0.3l0,0c0.3-4.3,3.9-7.5,8.2-7.2c3.9,0.2,7,3.3,7.2,7.2l0,0
	c0,4.1-3.4,7.4-7.5,7.4C810.7,706,810.6,706,810.6,705.9z M814.3,698.6c0.1-2.1-1.5-3.8-3.6-3.9h-0.1c-2,0-3.7,1.6-3.7,3.6
	c0,0.1,0,0.2,0,0.3l0,0c-0.1,2.1,1.5,3.8,3.6,3.9h0.1c2,0,3.7-1.6,3.7-3.6C814.3,698.8,814.3,698.7,814.3,698.6L814.3,698.6z"/>
<path d="M830.1,705.6v-2c-0.9,1.4-2.5,2.3-4.2,2.3c-3.1,0-4.8-2-4.8-5.3v-9.2h4v7.9c0,1.9,0.9,3,2.4,3c1.4,0,2.5-1,2.6-2.4
	c0-0.2,0-0.4,0-0.6v-7.9h4v14.2H830.1z"/>
<path d="M848.1,705.6v-2.1c-1,1.5-2.7,2.3-4.4,2.3c-3.3,0-6.5-2.6-6.5-7.4l0,0c0-4.7,3.1-7.4,6.5-7.4c1.7,0,3.4,0.8,4.4,2.1v-7h4
	v19.4L848.1,705.6L848.1,705.6z M848.1,698.5c0.3-1.9-1.1-3.7-3-3.9c-1.9-0.3-3.7,1.1-3.9,3c0,0.3,0,0.6,0,0.9l0,0
	c-0.3,1.9,1.1,3.7,3,3.9c1.9,0.3,3.7-1.1,3.9-3C848.1,699.1,848.1,698.8,848.1,698.5L848.1,698.5z"/>
<path d="M876.5,705.7H873l-4.2-12.1l-4.2,12.1H861l-6.3-18.7h4.4l3.8,12.6l4.2-12.6h3.5l4.2,12.6l3.8-12.6h4.3L876.5,705.7z"/>
<path d="M891.9,705.6v-1.5c-1.1,1.2-2.7,1.9-4.3,1.8c-2.7,0-4.9-1.5-4.9-4.4l0,0c0-3.1,2.4-4.5,5.7-4.5c1.2,0,2.4,0.2,3.5,0.6v-0.2
	c0-1.7-1-2.6-3.1-2.6c-1.3,0-2.7,0.3-3.9,0.8l-1-3.1c1.7-0.8,3.6-1.2,5.5-1.1c4.4,0,6.3,2.3,6.3,6.1v8.3L891.9,705.6L891.9,705.6z
	 M892,699.9c-0.8-0.4-1.7-0.5-2.6-0.5c-1.7,0-2.8,0.7-2.8,2l0,0c0.1,1,1,1.8,2,1.8c0.1,0,0.1,0,0.2,0c1.9,0,3.2-1,3.2-2.5V699.9
	L892,699.9z"/>
<path d="M904,705.9c-2.5,0-4.1-1-4.1-4.3v-6.7h-1.7v-3.5h1.7v-3.6h4v3.6h3.3v3.5h-3.3v6.1c-0.1,0.6,0.3,1.2,0.9,1.4
	c0.1,0,0.3,0,0.4,0c0.7,0,1.4-0.2,2-0.5v3.2C906.2,705.6,905.1,705.9,904,705.9z"/>
<path d="M916.5,705.9c-4,0.1-7.3-3.2-7.4-7.2c0-0.1,0-0.1,0-0.2l0,0c0-4.1,3.3-7.4,7.4-7.4h0.1c2.2-0.1,4.3,0.8,5.7,2.4l-2.5,2.7
	c-0.8-1-2-1.6-3.2-1.6c-2,0.1-3.6,1.8-3.5,3.8c0,0,0,0,0,0.1l0,0c-0.2,2,1.3,3.8,3.3,3.9c0.1,0,0.2,0,0.3,0c1.2,0,2.4-0.6,3.3-1.5
	l2.4,2.4C920.9,705.1,918.7,706.1,916.5,705.9z"/>
<path d="M934,705.6v-7.9c0-1.9-0.9-3-2.4-3c-1.4,0-2.5,1-2.6,2.4c0,0.2,0,0.4,0,0.6v7.9h-4v-19.4h4v7.2c0.9-1.4,2.5-2.3,4.2-2.3
	c3.1,0,4.8,2,4.8,5.3v9.2H934L934,705.6z"/>
<polygon class="st15" points="910.6,633.7 856.9,625.8 803.2,633.7 856.9,671.6 "/>
<polygon class="st16" points="814,632.8 823,635.5 844.4,602.9 823,570.1 814,573.5 "/>
<polygon class="st17" points="855.1,630 823,635.6 823,570.1 855.1,577.4 "/>
<polygon class="st16" points="840.8,640.9 828.3,637.3 828.3,556.4 840.8,550.1 878,598 "/>
<polygon class="st17" points="883.8,631.1 840.8,641.1 840.8,550.1 883.8,566.9 "/>
<polygon class="st16" points="856.9,652.7 803.2,633.7 803.2,644.8 856.9,671.6 "/>
<polygon class="st17" points="910.6,644.8 856.9,671.6 856.9,652.7 910.6,633.7 "/>
<polygon class="st15" points="895.6,615.4 882.4,615.4 845.4,617.9 856.9,645.8 "/>
<polygon class="st16" points="845.4,642.3 856.9,645.8 856.9,619.1 845.4,617.9 "/>
<polygon class="st17" points="895.6,615.4 856.9,619.1 856.9,645.8 895.6,634.2 "/>
</svg>
