<svg id="Layer_2" data-name="Layer 2" xmlns="http://www.w3.org/2000/svg" viewBox="0 0 650 454"><title>illust_browsers</title><g id="browser"><path d="M186,195V75a10,10,0,0,1,10-10H454.89a10,10,0,0,1,10,10V354.5a10,10,0,0,1-10,10H186" style="fill:#fff"/><path d="M186,195V75a10,10,0,0,1,10-10H454.89a10,10,0,0,1,10,10V354.5a10,10,0,0,1-10,10H186" style="fill:none;stroke:#616161;stroke-miterlimit:10;stroke-width:3px"/><line x1="186" y1="102" x2="464.89" y2="102" style="fill:#fff;stroke:#616161;stroke-miterlimit:10;stroke-width:3px"/><g id="browser-fill-bar"><rect x="253.28" y="216.44" width="130.91" height="21.12" rx="10" ry="10" style="fill:#5d89fb"/></g><g id="browser-fill-stroke"><rect x="253.28" y="216.44" width="166.33" height="21.12" rx="10" ry="10" style="fill:none;stroke:#5d89fb;stroke-linecap:round;stroke-miterlimit:10;stroke-width:3px"/></g><g id="pips"><circle cx="204.92" cy="81.92" r="3.92" style="fill:#616161"/><circle cx="218.92" cy="81.92" r="3.92" style="fill:#616161"/><circle cx="232.92" cy="81.92" r="3.92" style="fill:#616161"/></g></g><g id="phone"><rect x="110.98" y="200.64" width="105.18" height="187.18" rx="10" ry="10" style="fill:#fff"/><rect x="110.98" y="200.64" width="105.18" height="187.18" rx="10" ry="10" style="fill:none;stroke:#616161;stroke-linecap:round;stroke-miterlimit:10;stroke-width:3px"/><line x1="111.98" y1="237" x2="216.15" y2="237" style="fill:none;stroke:#616161;stroke-linecap:round;stroke-miterlimit:10;stroke-width:3px"/><line x1="147" y1="218" x2="177" y2="218" style="fill:none;stroke:#616161;stroke-linecap:round;stroke-miterlimit:10;stroke-width:3px"/><line x1="111.98" y1="346" x2="213.67" y2="346" style="fill:none;stroke:#616161;stroke-linecap:round;stroke-miterlimit:10;stroke-width:3px"/><circle cx="164" cy="364.33" r="7.67" style="fill:#fff;stroke:#616161;stroke-linecap:round;stroke-miterlimit:10;stroke-width:3px"/><g id="phone-fill-bar"><path d="M183,284.11c0,5.1-4.5,9.26-10,9.26H136.15c-5.5,0-10-4.17-10-9.26s4.5-9.26,10-9.26H173C178.47,274.85,183,279,183,284.11Z" style="fill:#5d89fb"/></g><g id="phone-fill-stroke"><path d="M201.49,284.11c0,5.1-4.5,9.26-10,9.26H136.15c-5.5,0-10-4.17-10-9.26s4.5-9.26,10-9.26h55.33C197,274.85,201.49,279,201.49,284.11Z" style="fill:none;stroke:#5d89fb;stroke-linecap:round;stroke-miterlimit:10;stroke-width:3px"/></g></g><g id="sparkles"><line x1="135" y1="102" x2="135" y2="126" style="fill:none;stroke:#bdbdbd;stroke-linecap:round;stroke-miterlimit:10;stroke-width:3px"/><line x1="123" y1="114" x2="147" y2="114" style="fill:none;stroke:#bdbdbd;stroke-linecap:round;stroke-miterlimit:10;stroke-width:3px"/><line x1="65.33" y1="249" x2="65.33" y2="273" style="fill:none;stroke:#bdbdbd;stroke-linecap:round;stroke-miterlimit:10;stroke-width:3px"/><line x1="53.33" y1="261" x2="77.33" y2="261" style="fill:none;stroke:#bdbdbd;stroke-linecap:round;stroke-miterlimit:10;stroke-width:3px"/><circle cx="99.97" cy="138.91" r="7.67" style="fill:none;stroke:#bdbdbd;stroke-linecap:round;stroke-miterlimit:10;stroke-width:3px"/><line x1="562.89" y1="307.82" x2="562.89" y2="331.82" style="fill:none;stroke:#bdbdbd;stroke-linecap:round;stroke-miterlimit:10;stroke-width:3px"/><line x1="550.89" y1="319.82" x2="574.89" y2="319.82" style="fill:none;stroke:#bdbdbd;stroke-linecap:round;stroke-miterlimit:10;stroke-width:3px"/><circle cx="518.74" cy="94.05" r="7.67" style="fill:none;stroke:#bdbdbd;stroke-linecap:round;stroke-miterlimit:10;stroke-width:3px"/></g><g id="logo"><path d="M337,169.81a0.87,0.87,0,0,0,.86-0.86v-5.18a0.86,0.86,0,0,0-1.73,0v5.18A0.87,0.87,0,0,0,337,169.81Z" style="fill:#bdbdbd"/><path d="M350.77,162.9a0.87,0.87,0,0,0-.86.86v5.18a0.86,0.86,0,0,0,1.73,0v-5.18A0.87,0.87,0,0,0,350.77,162.9Z" style="fill:#bdbdbd"/><path d="M350.77,156a7.77,7.77,0,0,0-6.91,4.23,7.75,7.75,0,0,0-13.82,0,7.75,7.75,0,0,0-13.82,0,7.75,7.75,0,0,0-13.82,0,7.76,7.76,0,0,0-14.68,3.54v15.54a7.79,7.79,0,0,0,7.77,7.77,7.7,7.7,0,0,0,6-2.89v8.07a4.32,4.32,0,0,0,8.63,0V187a7.76,7.76,0,0,0,6-4.19,7.75,7.75,0,0,0,13.82,0,7.75,7.75,0,0,0,13.82,0,7.76,7.76,0,0,0,14.68-3.54V163.77A7.79,7.79,0,0,0,350.77,156Zm-55.26,29.36a6.06,6.06,0,0,1-6-6V163.77a6,6,0,1,1,12.09,0h0v15.54h0A6.06,6.06,0,0,1,295.51,185.35Zm13.82,0a5.85,5.85,0,0,1-.86-0.09v7a2.59,2.59,0,1,1-5.18,0V163.77a6,6,0,1,1,12.09,0h0v15.54h0A6.06,6.06,0,0,1,309.32,185.35Zm13.51,0a6.19,6.19,0,0,1-5.74-6.22v-2.42a0.87,0.87,0,0,1,.86-0.86h3.45a0.87,0.87,0,0,1,.86.86v2.55a0.92,0.92,0,0,0,.73.91,0.85,0.85,0,0,0,1-.86v-2.59a2.6,2.6,0,0,0-2.59-2.59H321a3.87,3.87,0,0,1-3.89-3.89v-6.3a6.19,6.19,0,0,1,5.74-6.22,6.05,6.05,0,0,1,6.35,6h0v2.59a0.87,0.87,0,0,1-.86.86h-3.45a0.87,0.87,0,0,1-.86-0.86v-2.55a0.92,0.92,0,0,0-.73-0.91,0.85,0.85,0,0,0-1,.86v2.59a2.6,2.6,0,0,0,2.59,2.59h0.43a3.87,3.87,0,0,1,3.89,3.89v6.48h0A6.05,6.05,0,0,1,322.83,185.35Zm13.82,0a6.19,6.19,0,0,1-5.74-6.22v-15.2a6.19,6.19,0,0,1,5.74-6.22,6.05,6.05,0,0,1,6.35,6h0v10.36a0.87,0.87,0,0,1-.86.86h-3.45a2.6,2.6,0,0,0-2.59,2.59v1.68a0.92,0.92,0,0,0,.73.91,0.85,0.85,0,0,0,1-.86v-2a0.87,0.87,0,0,1,.86-0.86h3.45a0.87,0.87,0,0,1,.86.86v2h0A6.05,6.05,0,0,1,336.65,185.35Zm20.16-11.22a0.87,0.87,0,0,1-.86.86h-3.45a2.6,2.6,0,0,0-2.59,2.59v1.68a0.92,0.92,0,0,0,.73.91,0.85,0.85,0,0,0,1-.86v-2a0.87,0.87,0,0,1,.86-0.86h3.45a0.87,0.87,0,0,1,.86.86v2a6.05,6.05,0,0,1-6.35,6,6.19,6.19,0,0,1-5.74-6.22v-15.2a6.19,6.19,0,0,1,5.74-6.22,6.05,6.05,0,0,1,6.35,6v10.36Z" style="fill:#bdbdbd"/><path d="M309.32,162.9a0.87,0.87,0,0,0-.86.86v15.54a0.86,0.86,0,1,0,1.73,0V163.77A0.87,0.87,0,0,0,309.32,162.9Z" style="fill:#bdbdbd"/><path d="M295.51,162.9a0.87,0.87,0,0,0-.86.86v15.54a0.86,0.86,0,0,0,1.73,0V163.77A0.87,0.87,0,0,0,295.51,162.9Z" style="fill:#bdbdbd"/></g><circle cx="530.03" cy="171.54" r="33.47" style="fill:#5d89fb"/><text transform="translate(521.5 181.41)" style="font-size:30px;fill:#fff;font-family:Geogrotesque;font-weight:700">2</text><line x1="530.03" y1="205" x2="530.03" y2="399.82" style="fill:none;stroke:#5d89fb;stroke-linecap:round;stroke-miterlimit:10;stroke-width:3px"/><path d="M530,399.82H303.28v34.76" style="fill:none;stroke:#5d89fb;stroke-linecap:round;stroke-miterlimit:10;stroke-width:3px"/></svg>