<svg id="Layer_2" data-name="Layer 2" xmlns="http://www.w3.org/2000/svg" viewBox="0 0 650 454"><title>illust_browsers-01</title><g id="browser"><path d="M484.89,354.5a10,10,0,0,1-10,10H216a10,10,0,0,1-10-10V75a10,10,0,0,1,10-10H474.89a10,10,0,0,1,10,10V354.5Z" style="fill:none;stroke:#4c4c4c;stroke-miterlimit:10;stroke-width:5px"/><line x1="206" y1="102" x2="484.89" y2="102" style="fill:none;stroke:#4c4c4c;stroke-miterlimit:10;stroke-width:5px"/></g><g id="phone"><rect x="130.98" y="200.64" width="105.18" height="187.18" rx="10" ry="10" style="fill:#fff;stroke:#4c4c4c;stroke-miterlimit:10"/><rect x="130.98" y="200.64" width="105.18" height="187.18" rx="10" ry="10" style="fill:none;stroke:#4c4c4c;stroke-linecap:round;stroke-miterlimit:10;stroke-width:5px"/><line x1="130.98" y1="237" x2="232.67" y2="237" style="fill:none;stroke:#4c4c4c;stroke-linecap:round;stroke-miterlimit:10;stroke-width:5px"/><line x1="167" y1="218" x2="197" y2="218" style="fill:none;stroke:#4c4c4c;stroke-linecap:round;stroke-miterlimit:10;stroke-width:5px"/><line x1="131.98" y1="346" x2="233.67" y2="346" style="fill:none;stroke:#4c4c4c;stroke-linecap:round;stroke-miterlimit:10;stroke-width:5px"/><circle cx="184" cy="364.33" r="7.67" style="fill:#fff;stroke:#4c4c4c;stroke-linecap:round;stroke-miterlimit:10;stroke-width:5px"/></g><g id="pips"><circle cx="224.92" cy="81.92" r="3.92" style="fill:#4c4c4c"/><circle cx="238.92" cy="81.92" r="3.92" style="fill:#4c4c4c"/><circle cx="252.92" cy="81.92" r="3.92" style="fill:#4c4c4c"/></g><rect id="big_fill" data-name="big fill" x="238.84" y="154.75" width="168.15" height="26.58" rx="13.29" ry="13.29" style="fill:#5d89fb"/><rect x="239" y="154.75" width="209.33" height="26.58" rx="10" ry="10" style="fill:none;stroke:#4c4c4c;stroke-linecap:round;stroke-miterlimit:10;stroke-width:5px"/><rect id="little_fill" data-name="little fill" x="148.15" y="274.85" width="49.85" height="18.52" rx="9.26" ry="9.26" style="fill:#5d89fb"/><path d="M221.49,284.11c0,5.1-4.5,9.26-10,9.26H156.15c-5.5,0-10-4.17-10-9.26s4.5-9.26,10-9.26h55.33C217,274.85,221.49,279,221.49,284.11Z" style="fill:none;stroke:#4c4c4c;stroke-linecap:round;stroke-miterlimit:10;stroke-width:5px"/><line x1="155" y1="102" x2="155" y2="126" style="fill:none;stroke:#9b9b9b;stroke-linecap:round;stroke-miterlimit:10;stroke-width:5px"/><line x1="143" y1="114" x2="167" y2="114" style="fill:none;stroke:#9b9b9b;stroke-linecap:round;stroke-miterlimit:10;stroke-width:5px"/><line x1="85.33" y1="249" x2="85.33" y2="273" style="fill:none;stroke:#9b9b9b;stroke-linecap:round;stroke-miterlimit:10;stroke-width:5px"/><line x1="73.33" y1="261" x2="97.33" y2="261" style="fill:none;stroke:#9b9b9b;stroke-linecap:round;stroke-miterlimit:10;stroke-width:5px"/><circle cx="119.97" cy="138.91" r="7.67" style="fill:none;stroke:#9b9b9b;stroke-linecap:round;stroke-miterlimit:10;stroke-width:5px"/><line x1="472.89" y1="387.82" x2="472.89" y2="411.82" style="fill:none;stroke:#9b9b9b;stroke-linecap:round;stroke-miterlimit:10;stroke-width:5px"/><line x1="460.89" y1="399.82" x2="484.89" y2="399.82" style="fill:none;stroke:#9b9b9b;stroke-linecap:round;stroke-miterlimit:10;stroke-width:5px"/><circle cx="528.74" cy="324.05" r="7.67" style="fill:none;stroke:#9b9b9b;stroke-linecap:round;stroke-miterlimit:10;stroke-width:5px"/></svg>