<?xml version="1.0" encoding="utf-8"?>
<!-- Generator: Adobe Illustrator 19.2.1, SVG Export Plug-In . SVG Version: 6.00 Build 0)  -->
<svg version="1.1" id="key" xmlns="http://www.w3.org/2000/svg" xmlns:xlink="http://www.w3.org/1999/xlink" x="0px" y="0px"
	 viewBox="0 0 650 500" style="enable-background:new 0 0 650 500;" xml:space="preserve">
<style type="text/css">
	.st0{fill:none;stroke:#616262;stroke-width:3;stroke-miterlimit:10;}
	.st1{fill:#616262;}
	.st2{fill:none;stroke:#F7941E;stroke-width:3;stroke-miterlimit:10;}
	.st3{display:none;}
	.st4{display:inline;fill:none;stroke:#BDBDBD;stroke-width:3;stroke-linecap:round;stroke-miterlimit:10;}
	.st5{fill:#5D89FB;}
	.st6{enable-background:new    ;}
	.st7{fill:#FFFFFF;}
	.st8{fill:none;stroke:#5D89FB;stroke-width:3;stroke-miterlimit:10;}
</style>
<title>illust_aws_key</title>
<g id="tag">
	<path class="st0" d="M37.1,373.5c0,2.2,1.8,4,4,4h184.4c2.6-0.1,5.1-0.9,7.2-2.4l48-35.3c1.9-1.6,3.1-3.9,3.2-6.4v-54
		c-0.1-2.5-1.4-4.7-3.3-6.2l-47.2-31c-2.2-1.3-4.8-2.1-7.3-2.2H41c-2.2,0-4,1.8-4,4L37.1,373.5L37.1,373.5z"/>
	<circle class="st0" cx="246.7" cy="307.2" r="14.7"/>
</g>
<path id="keychain_round_" class="st1" d="M292.9,306.9h53.2l0,0v3l0,0h-53.2c-0.8,0-1.5-0.7-1.5-1.5l0,0
	C291.4,307.6,292.1,306.9,292.9,306.9z"/>
<g id="key-2">
	<circle class="st0" cx="367.8" cy="308.4" r="23"/>
	<path class="st0" d="M599,291.2H468.6c-0.6,0-1-0.4-1-1v-11.5c0-0.6-0.4-1-1-1h-10.9c-0.4,0-0.7-0.2-0.9-0.6
		c-12.4-26.8-39.3-43.8-68.8-43.4c-40.8,0.5-74,34.3-73.8,75.1c0.2,41.3,33.9,74.5,75.1,74.3c27.2-0.1,52.2-15.1,65.2-38.9
		c0.2-0.3,0.5-0.5,0.9-0.5h13.1c0.6,0,1-0.4,1-1v-12.2c0-0.6,0.4-1,1-1h59.2l17.9,17.9c0.4,0.4,1,0.4,1.4,0l0,0l15.6-17.1
		c0.4-0.4,1-0.4,1.4,0l0,0l16.9,17.1c0.4,0.4,1,0.4,1.4,0l0,0l34-36.1c0.4-0.4,0.4-1,0-1.4l-16.6-18.4
		C599.5,291.3,599.2,291.2,599,291.2z"/>
	<path class="st1" d="M572.2,308.4c0,0.8-1.3,1.5-3,1.5h-47.7c-1.7,0-3-0.7-3-1.5s1.3-1.5,3-1.5h47.7
		C570.8,306.9,572.2,307.6,572.2,308.4z"/>
</g>
<path class="st2" d="M88.3,293.6c0.5-0.3,1.2-0.3,1.7,0l13.6,7.9c0.5,0.3,0.8,0.9,0.9,1.5v15.7c0,0.6-0.4,1.2-0.9,1.5L90,328.1
	c-0.5,0.3-1.2,0.3-1.7,0l-13.6-7.9c-0.5-0.3-0.8-0.9-0.9-1.5V303c0-0.6,0.4-1.2,0.9-1.5L88.3,293.6z"/>
<path class="st2" d="M127.9,293.6c0.5-0.3,1.2-0.3,1.7,0l13.6,7.9c0.5,0.3,0.8,0.9,0.9,1.5v15.7c0,0.6-0.4,1.2-0.9,1.5l-13.6,7.9
	c-0.5,0.3-1.2,0.3-1.7,0l-13.6-7.9c-0.5-0.3-0.8-0.9-0.9-1.5V303c0-0.6,0.4-1.2,0.9-1.5L127.9,293.6z"/>
<path class="st2" d="M108.1,326.9c0.5-0.3,1.2-0.3,1.7,0l13.6,7.9c0.5,0.3,0.8,0.9,0.9,1.5V352c0,0.6-0.4,1.2-0.9,1.5l-13.6,7.9
	c-0.5,0.3-1.2,0.3-1.7,0l-13.6-7.9c-0.5-0.3-0.8-0.9-0.9-1.5v-15.7c0-0.6,0.4-1.2,0.9-1.5L108.1,326.9z"/>
<path class="st2" d="M148.6,261.2c0.5-0.3,1.2-0.3,1.7,0l13.7,7.9c0.5,0.3,0.8,0.9,0.9,1.5v15.7c0,0.6-0.4,1.2-0.9,1.5l-13.6,7.9
	c-0.5,0.3-1.2,0.3-1.7,0l-13.7-7.8c-0.5-0.3-0.8-0.9-0.9-1.5v-15.7c0-0.6,0.4-1.2,0.9-1.5L148.6,261.2z"/>
<path class="st2" d="M187.3,261.2c0.5-0.3,1.2-0.3,1.7,0l13.6,7.9c0.5,0.3,0.8,0.9,0.9,1.5v15.7c0,0.6-0.4,1.2-0.9,1.5l-13.7,7.9
	c-0.5,0.3-1.2,0.3-1.7,0l-13.6-7.9c-0.5-0.3-0.8-0.9-0.9-1.5v-15.7c0-0.6,0.4-1.2,0.9-1.5L187.3,261.2z"/>
<path id="keychain_round_2" class="st1" d="M270,309.9h-10.1l0,0v-3l0,0H270c0.8,0,1.5,0.7,1.5,1.5l0,0
	C271.5,309.2,270.8,309.9,270,309.9z"/>
<g id="sparkles" class="st3">
	<line class="st4" x1="59.2" y1="34" x2="59.2" y2="58"/>
	<line class="st4" x1="47.2" y1="46" x2="71.2" y2="46"/>
	<circle class="st4" cx="74.2" cy="270.9" r="7.7"/>
	<line class="st4" x1="199" y1="285" x2="199" y2="301"/>
	<line class="st4" x1="191" y1="293" x2="207" y2="293"/>
	<line class="st4" x1="539" y1="67" x2="539" y2="83"/>
	<line class="st4" x1="531" y1="75" x2="547" y2="75"/>
	<circle class="st4" cx="588.2" cy="114.9" r="7.7"/>
</g>
<g>
	<circle class="st5" cx="265.5" cy="141.3" r="33.5"/>
	<g class="st6">
		<path class="st7" d="M266.1,130.7c0.2,0,0.4,0,0.4,0.4v18.3h4.7c0.3,0,0.4,0.1,0.4,0.4v1c0,0.3-0.1,0.5-0.4,0.5h-11.7
			c-0.3,0-0.4-0.1-0.4-0.5v-1c0-0.3,0.1-0.4,0.4-0.4h4.8V133l-4.8,1.1c-0.3,0.1-0.5-0.1-0.5-0.4v-1c0-0.3,0.2-0.5,0.5-0.5
			L266.1,130.7z"/>
	</g>
</g>
<path class="st8" d="M265.5,174.8c0,0,0,30.8,0,42h222.8"/>
<polyline class="st8" points="488.3,217 507,217 507,284.1 "/>
<path class="st8" d="M507,338.7v118.1c0,0-205.3,0-215.6,0V500"/>
</svg>
