<?xml version="1.0" encoding="utf-8"?>
<!-- Generator: Adobe Illustrator 19.2.1, SVG Export Plug-In . SVG Version: 6.00 Build 0)  -->
<svg version="1.1" id="Layer_2" xmlns="http://www.w3.org/2000/svg" xmlns:xlink="http://www.w3.org/1999/xlink" x="0px" y="0px"
	 viewBox="0 0 650 500" style="enable-background:new 0 0 650 500;" xml:space="preserve">
<style type="text/css">
	.st0{fill:#FFFFFF;}
	.st1{fill:none;stroke:#616161;stroke-width:3;stroke-miterlimit:10;}
	.st2{fill:#5D89FB;}
	.st3{fill:none;stroke:#5D89FB;stroke-width:3;stroke-linecap:round;stroke-miterlimit:10;}
	.st4{fill:#616161;}
	.st5{fill:none;stroke:#616161;stroke-width:3;stroke-linecap:round;stroke-miterlimit:10;}
	.st6{fill:#FFFFFF;stroke:#616161;stroke-width:3;stroke-linecap:round;stroke-miterlimit:10;}
	.st7{display:none;}
	.st8{display:inline;fill:none;stroke:#BDBDBD;stroke-width:3;stroke-linecap:round;stroke-miterlimit:10;}
	.st9{fill:#BDBDBD;}
	.st10{enable-background:new    ;}
</style>
<title>illust_browsers</title>
<g id="browser">
	<path class="st0" d="M236,258V138c0-5.5,4.5-10,10-10h258.9c5.5,0,10,4.5,10,10v279.5c0,5.5-4.5,10-10,10H236"/>
	<path class="st1" d="M236,258V138c0-5.5,4.5-10,10-10h258.9c5.5,0,10,4.5,10,10v279.5c0,5.5-4.5,10-10,10H236"/>
	<line class="st1" x1="236" y1="165" x2="514.9" y2="165"/>
	<g id="browser-fill-bar">
		<path class="st2" d="M313.3,279.4h110.9c5.5,0,10,4.5,10,10v1.1c0,5.5-4.5,10-10,10H313.3c-5.5,0-10-4.5-10-10v-1.1
			C303.3,283.9,307.8,279.4,313.3,279.4z"/>
	</g>
	<g id="browser-fill-stroke">
		<path class="st3" d="M313.3,279.4h146.3c5.5,0,10,4.5,10,10v1.1c0,5.5-4.5,10-10,10H313.3c-5.5,0-10-4.5-10-10v-1.1
			C303.3,283.9,307.8,279.4,313.3,279.4z"/>
	</g>
	<g id="pips">
		<circle class="st4" cx="254.9" cy="144.9" r="3.9"/>
		<circle class="st4" cx="268.9" cy="144.9" r="3.9"/>
		<circle class="st4" cx="282.9" cy="144.9" r="3.9"/>
	</g>
</g>
<g id="phone">
	<path class="st0" d="M171,263.6h85.2c5.5,0,10,4.5,10,10v167.2c0,5.5-4.5,10-10,10H171c-5.5,0-10-4.5-10-10V273.6
		C161,268.1,165.5,263.6,171,263.6z"/>
	<path class="st5" d="M171,263.6h85.2c5.5,0,10,4.5,10,10v167.2c0,5.5-4.5,10-10,10H171c-5.5,0-10-4.5-10-10V273.6
		C161,268.1,165.5,263.6,171,263.6z"/>
	<line class="st5" x1="162" y1="300" x2="266.1" y2="300"/>
	<line class="st5" x1="197" y1="281" x2="227" y2="281"/>
	<line class="st5" x1="162" y1="409" x2="263.7" y2="409"/>
	<circle class="st6" cx="214" cy="427.3" r="7.7"/>
	<g id="phone-fill-bar">
		<path class="st2" d="M233,347.1c0,5.1-4.5,9.3-10,9.3h-36.9c-5.5,0-10-4.2-10-9.3s4.5-9.3,10-9.3H223
			C228.5,337.9,233,342,233,347.1z"/>
	</g>
	<g id="phone-fill-stroke">
		<path class="st3" d="M251.5,347.1c0,5.1-4.5,9.3-10,9.3h-55.3c-5.5,0-10-4.2-10-9.3s4.5-9.3,10-9.3h55.3
			C247,337.9,251.5,342,251.5,347.1z"/>
	</g>
</g>
<g id="sparkles" class="st7">
	<line class="st8" x1="135" y1="125" x2="135" y2="149"/>
	<line class="st8" x1="123" y1="137" x2="147" y2="137"/>
	<line class="st8" x1="65.3" y1="272" x2="65.3" y2="296"/>
	<line class="st8" x1="53.3" y1="284" x2="77.3" y2="284"/>
	<circle class="st8" cx="100" cy="161.9" r="7.7"/>
	<line class="st8" x1="562.9" y1="330.8" x2="562.9" y2="354.8"/>
	<line class="st8" x1="550.9" y1="342.8" x2="574.9" y2="342.8"/>
	<circle class="st8" cx="518.7" cy="117.1" r="7.7"/>
</g>
<g id="logo">
	<path class="st9" d="M387,232.8c0.5,0,0.9-0.4,0.9-0.9v-5.2c0-0.5-0.4-0.9-0.9-0.9s-0.9,0.4-0.9,0.9v5.2
		C386.1,232.4,386.5,232.8,387,232.8z"/>
	<path class="st9" d="M400.8,225.9c-0.5,0-0.9,0.4-0.9,0.9v5.2c0,0.5,0.4,0.9,0.9,0.9s0.9-0.4,0.9-0.9v-5.2
		C401.6,226.3,401.2,225.9,400.8,225.9z"/>
	<path class="st9" d="M400.8,219c-2.9,0-5.6,1.6-6.9,4.2c-1.9-3.8-6.6-5.3-10.4-3.4c-1.5,0.7-2.7,1.9-3.4,3.4
		c-1.9-3.8-6.6-5.3-10.4-3.4c-1.5,0.7-2.7,1.9-3.4,3.4c-1.9-3.8-6.6-5.3-10.4-3.4c-1.5,0.7-2.7,1.9-3.4,3.4
		c-1.9-3.8-6.6-5.3-10.4-3.4c-2.6,1.3-4.3,4-4.2,6.9v15.5c0,4.3,3.5,7.8,7.8,7.8c2.3,0,4.5-1.1,6-2.9v8.1c0.1,2.4,2.1,4.2,4.5,4.1
		c2.2-0.1,4-1.9,4.1-4.1V250c2.6-0.3,4.8-1.9,6-4.2c1.9,3.8,6.6,5.3,10.4,3.4c1.5-0.7,2.7-1.9,3.4-3.4c1.9,3.8,6.6,5.3,10.4,3.4
		c1.5-0.7,2.7-1.9,3.4-3.4c1.9,3.8,6.6,5.3,10.4,3.4c2.6-1.3,4.3-4,4.2-6.9v-15.5C408.4,222.5,405,219.1,400.8,219z M345.5,248.4
		c-3.3,0-6-2.7-6-6v-15.6c0-3.3,2.7-6,6-6s6,2.7,6,6l0,0v15.5l0,0C351.6,245.7,348.9,248.4,345.5,248.4L345.5,248.4L345.5,248.4z
		 M359.3,248.4c-0.3,0-0.6,0-0.9-0.1v7c0,1.4-1.2,2.6-2.6,2.6s-2.6-1.2-2.6-2.6l0,0v-28.5c0-3.3,2.7-6,6-6s6,2.7,6,6l0,0v15.5l0,0
		C365.4,245.6,362.7,248.4,359.3,248.4L359.3,248.4z M372.8,248.4c-3.3-0.2-5.8-3-5.7-6.2v-2.4c0-0.5,0.4-0.9,0.9-0.9h3.5
		c0.5,0,0.9,0.4,0.9,0.9v2.6c0,0.4,0.3,0.8,0.7,0.9c0.5,0.1,0.9-0.2,1-0.7c0-0.1,0-0.1,0-0.2v-2.6c0-1.4-1.2-2.6-2.6-2.6H371
		c-2.1,0-3.9-1.7-3.9-3.8l0,0V227c0-3.3,2.5-6,5.7-6.2c3.3-0.2,6.2,2.4,6.3,5.7c0,0.1,0,0.2,0,0.3l0,0v2.6c0,0.5-0.4,0.9-0.9,0.9
		h-3.5c-0.5,0-0.9-0.4-0.9-0.9v-2.6c0-0.4-0.3-0.8-0.7-0.9c-0.5-0.1-0.9,0.2-1,0.7c0,0.1,0,0.1,0,0.2v2.6c0,1.4,1.2,2.6,2.6,2.6h0.4
		c2.1,0,3.9,1.7,3.9,3.8l0,0v6.5l0,0c0,3.3-2.7,6.1-6,6.1C373.1,248.4,373,248.4,372.8,248.4L372.8,248.4z M386.7,248.4
		c-3.3-0.2-5.8-3-5.7-6.2V227c0-3.3,2.5-6,5.7-6.2c3.3-0.2,6.2,2.4,6.3,5.7c0,0.1,0,0.2,0,0.3l0,0v10.4c0,0.5-0.4,0.9-0.9,0.9h-3.5
		c-1.4,0-2.6,1.2-2.6,2.6v1.7c0,0.4,0.3,0.8,0.7,0.9c0.5,0.1,0.9-0.2,1-0.7c0-0.1,0-0.1,0-0.2v-2c0-0.5,0.4-0.9,0.9-0.9h3.5
		c0.5,0,0.9,0.4,0.9,0.9v2l0,0c0,3.3-2.7,6.1-6,6.1C386.9,248.4,386.8,248.4,386.7,248.4L386.7,248.4z M406.8,237.1
		c0,0.5-0.4,0.9-0.9,0.9h-3.5c-1.4,0-2.6,1.2-2.6,2.6v1.7c0,0.4,0.3,0.8,0.7,0.9c0.5,0.1,0.9-0.2,1-0.7c0-0.1,0-0.1,0-0.2v-2
		c0-0.5,0.4-0.9,0.9-0.9h3.5c0.5,0,0.9,0.4,0.9,0.9v2c0,3.3-2.8,6-6.1,6c-0.1,0-0.2,0-0.3,0c-3.3-0.2-5.8-3-5.7-6.2v-15.2
		c0-3.3,2.5-6,5.7-6.2c3.3-0.2,6.2,2.4,6.3,5.7c0,0.1,0,0.2,0,0.3V237v0.1H406.8z"/>
	<path class="st9" d="M359.3,225.9c-0.5,0-0.9,0.4-0.9,0.9v15.5c0,0.5,0.4,0.9,0.9,0.9s0.9-0.4,0.9-0.9v-15.5
		C360.2,226.3,359.8,225.9,359.3,225.9L359.3,225.9z"/>
	<path class="st9" d="M345.5,225.9c-0.5,0-0.9,0.4-0.9,0.9v15.5c0,0.5,0.4,0.9,0.9,0.9s0.9-0.4,0.9-0.9v-15.5
		C346.4,226.3,346,225.9,345.5,225.9L345.5,225.9z"/>
</g>
<circle class="st2" cx="110" cy="174.5" r="33.5"/>
<g class="st10">
	<path class="st0" d="M115.5,182.6c0.3,0,0.4,0.1,0.4,0.4v1c0,0.3-0.1,0.5-0.4,0.5h-11.1c-0.3,0-0.4-0.1-0.4-0.5v-5.8
		c0-1.8,1.6-2.4,2.5-2.7l5.6-1.9c0.6-0.2,1.7-0.7,1.7-2.1v-3c0-1.8-0.8-2.9-4-2.9c-3.1,0-4,1.1-4,2.9v1.4c0,0.3-0.1,0.5-0.4,0.5
		h-1.2c-0.3,0-0.4-0.2-0.4-0.5v-1.7c0-2.4,1.2-4.4,6.1-4.4c4.9,0,6.1,2,6.1,4.4v3.3c0,2.4-1.7,3.4-2.7,3.7l-5.1,1.6
		c-0.7,0.2-2,0.7-2,2v3.8H115.5z"/>
</g>
<line class="st3" x1="110" y1="208.6" x2="110" y2="476.3"/>
<path class="st3" d="M336.8,476.3H110"/>
<line class="st3" x1="336.8" y1="476.3" x2="336.8" y2="497.9"/>
</svg>
