<?xml version="1.0" encoding="utf-8"?>
<!-- Generator: Adobe Illustrator 19.1.0, SVG Export Plug-In . SVG Version: 6.00 Build 0)  -->
<svg version="1.1" id="Layer_1" xmlns="http://www.w3.org/2000/svg" xmlns:xlink="http://www.w3.org/1999/xlink" x="0px" y="0px"
	 viewBox="-475 300 650 500" style="enable-background:new -475 300 650 500;" xml:space="preserve">
<style type="text/css">
	.st0{display:none;}
	.st1{display:inline;fill:#616262;}
	.st2{display:inline;fill:none;stroke:#BDBCBC;stroke-width:3;stroke-linecap:round;stroke-miterlimit:10;}
	.st3{fill:#9D5025;}
	.st4{fill:#F58536;}
	.st5{fill:#6B3A19;}
	.st6{fill:#FBBF93;}
	.st7{fill:#2E73B8;}
	.st8{fill:#5294CF;}
	.st9{fill:#205B99;}
	.st10{fill:#19486F;}
	.st11{fill:#B7CA9D;}
	.st12{fill:#4B612C;}
	.st13{fill:#759C3E;}
	.st14{fill:#F8991D;}
	.st15{fill:#010101;}
</style>
<g id="old_text" class="st0">
	<path class="st1" d="M707.1-193.3c-0.2,0-0.4-0.2-0.5-0.4v-0.1v-22.8c-0.1-0.2,0.1-0.5,0.3-0.5c0.1,0,0.1,0,0.2,0H719
		c0.2,0,0.5,0.1,0.5,0.4c0,0.1,0,0.1,0,0.2v1.1c0,0.2-0.1,0.5-0.4,0.5c-0.1,0-0.1,0-0.2,0h-10v8.2h9.4c0.2-0.1,0.5,0.1,0.5,0.3
		c0,0.1,0,0.1,0,0.2v1c0.1,0.2-0.1,0.5-0.3,0.5c-0.1,0-0.1,0-0.2,0h-9.4v9.3h10.6c0.2,0,0.5,0.1,0.5,0.3v0.1v1.1
		c0,0.2-0.1,0.5-0.4,0.5c-0.1,0-0.1,0-0.2,0L707.1-193.3L707.1-193.3z"/>
	<path class="st1" d="M727-193.8c0,0.2-0.1,0.5-0.3,0.5h-0.1h-1.4c-0.2,0-0.5-0.1-0.5-0.4c0-0.1,0-0.1,0-0.2v-23.4
		c0-0.2,0.1-0.5,0.4-0.5c0.1,0,0.1,0,0.2,0h1.4c0.2,0,0.5,0.1,0.5,0.4c0,0.1,0,0.1,0,0.2L727-193.8L727-193.8z"/>
	<path class="st1" d="M732.3-206.4c0-2.6,1.6-4.4,6.3-4.4s6.3,1.8,6.3,4.4v12.6c0,0.2-0.1,0.5-0.3,0.5h-0.1h-1.3
		c-0.3,0-0.5-0.1-0.5-0.4v-0.1l-0.1-1.2c-1.6,1.3-3.7,2.1-5.8,2.1c-3.3,0-4.8-1.9-4.8-4.1v-1.8c0-2.3,1.5-4.1,4.6-4.1h6v-3.1
		c0-1.6-0.8-2.7-4-2.7s-4,1.1-4,2.6v0.4c0.1,0.2-0.1,0.5-0.3,0.6c-0.1,0-0.1,0-0.2,0h-1.3c-0.2,0-0.5-0.1-0.5-0.4c0-0.1,0-0.1,0-0.2
		V-206.4L732.3-206.4z M742.6-197v-4.1H737c-1.9,0-2.7,1-2.7,2.5v1.1c0,1.5,0.9,2.4,3,2.4C739.3-195.1,741.1-195.8,742.6-197z"/>
	<path class="st1" d="M759.6-206.9c0-1.4-1.3-2.2-3.9-2.2s-3.8,0.8-3.8,2.2v0.9c0.1,1,0.8,1.7,1.8,1.9l5.4,1.8c1.8,0.6,3,1.7,3,3.3
		v2c0,2.1-1.9,4-6.4,4s-6.3-1.9-6.3-4v-0.9c0-0.2,0.1-0.5,0.4-0.5h0.1h1.3c0.2,0,0.4,0.1,0.5,0.3c0,0.1,0,0.1,0,0.2v0.9
		c0,1.4,1.4,2.2,4.1,2.2c2.7,0,4.1-0.8,4.1-2.2v-1.3c0-1-0.9-1.6-2.1-2l-5.4-1.8c-1.5-0.5-2.6-1.8-2.7-3.4v-1.4c0-2.1,1.6-4,6.1-4
		s6.1,1.9,6.1,4v1c0,0.2-0.1,0.4-0.3,0.5h-0.1h-1.3c-0.2,0-0.4-0.1-0.5-0.3c0-0.1,0-0.1,0-0.2L759.6-206.9
		C759.7-206.9,759.6-206.9,759.6-206.9z"/>
	<path class="st1" d="M773.6-210.5c0.2,0,0.5,0.1,0.5,0.3v0.1v1c0,0.3-0.1,0.5-0.4,0.5h-0.1h-3.9v10.6c0,1.6,0.9,2.7,4.1,2.7h0.6
		c0.2,0,0.5,0.1,0.5,0.4c0,0.1,0,0.1,0,0.2v1c0,0.2-0.1,0.5-0.4,0.5c-0.1,0-0.1,0-0.2,0h-0.8c-4.8,0-6.2-1.7-6.2-4.5v-10.7h-2.1
		c-0.2,0-0.5-0.1-0.5-0.4v-0.1v-0.8c0-0.2,0.1-0.5,0.4-0.5h0.1l1.8-0.1h0.3v-3.7c0-0.3,0.1-0.5,0.4-0.5h0.1h1.4
		c0.2,0,0.5,0.1,0.5,0.4v0.1v3.7L773.6-210.5L773.6-210.5z"/>
	<path class="st1" d="M781.1-214c0,0.2-0.1,0.5-0.3,0.5h-0.1h-1.4c-0.2,0-0.5-0.1-0.5-0.4c0-0.1,0-0.1,0-0.2v-3.2
		c0-0.2,0.1-0.5,0.4-0.5c0.1,0,0.1,0,0.2,0h1.4c0.2,0,0.5,0.1,0.5,0.4c0,0.1,0,0.1,0,0.2v3.2C781.3-214,781.1-214,781.1-214z
		 M781.1-193.8c0,0.2-0.1,0.5-0.3,0.5h-0.1h-1.4c-0.2,0-0.5-0.1-0.5-0.4c0-0.1,0-0.1,0-0.2V-210c0-0.2,0.1-0.5,0.4-0.5
		c0.1,0,0.1,0,0.2,0h1.4c0.2,0,0.5,0.1,0.5,0.4c0,0.1,0,0.1,0,0.2v16.1C781.3-193.8,781.1-193.8,781.1-193.8z"/>
	<path class="st1" d="M799-206.4v0.7c0,0.2-0.1,0.5-0.4,0.5c-0.1,0-0.1,0-0.2,0h-1.3c-0.2,0-0.5-0.1-0.5-0.4c0-0.1,0-0.1,0-0.2v-0.5
		c0-1.6-0.9-2.7-4-2.7s-4,1.1-4,2.7v8.5c0,1.6,0.9,2.7,4,2.7s4-1,4-2.7v-0.8c0-0.2,0.1-0.5,0.3-0.5c0.1,0,0.1,0,0.2,0h1.3
		c0.2,0,0.5,0.1,0.5,0.3c0,0.1,0,0.1,0,0.2v0.9c0,2.7-1.6,4.5-6.4,4.5s-6.3-1.8-6.3-4.5v-8.8c0-2.7,1.6-4.5,6.4-4.5
		S799-209,799-206.4z"/>
	<path class="st1" d="M814.2-195.4h9.8c0.2,0,0.4,0.1,0.5,0.3c0,0.1,0,0.1,0,0.2v1.1c0.1,0.2-0.1,0.5-0.3,0.5c-0.1,0-0.1,0-0.2,0
		h-11.9c-0.2,0-0.4-0.2-0.4-0.4v-0.1v-22.8c-0.1-0.2,0.1-0.5,0.3-0.5c0.1,0,0.1,0,0.2,0h1.5c0.2,0,0.5,0.1,0.5,0.4
		c0,0.1,0,0.1,0,0.2L814.2-195.4L814.2-195.4z"/>
	<path class="st1" d="M827.8-206.4c0-2.7,1.8-4.5,6.6-4.5s6.6,1.8,6.6,4.5v8.8c0,2.7-1.8,4.5-6.6,4.5s-6.6-1.8-6.6-4.5V-206.4z
		 M838.6-206.2c0-1.6-1.1-2.7-4.2-2.7c-3.1,0-4.2,1.1-4.2,2.7v8.5c0,1.6,1.1,2.7,4.2,2.7c3.1,0,4.2-1,4.2-2.7V-206.2z"/>
	<path class="st1" d="M845.9-206.4c0-2.6,1.6-4.4,6.3-4.4s6.3,1.8,6.3,4.4v12.6c0,0.2-0.1,0.5-0.3,0.5h-0.1h-1.3
		c-0.3,0-0.5-0.1-0.5-0.4v-0.1l-0.1-1.2c-1.6,1.3-3.7,2.1-5.8,2.1c-3.3,0-4.8-1.9-4.8-4.1v-1.8c0-2.3,1.5-4.1,4.5-4.1h6v-3.1
		c0-1.6-0.8-2.7-4-2.7s-4,1.1-4,2.6v0.4c0.1,0.2-0.1,0.5-0.3,0.6c-0.1,0-0.1,0-0.2,0h-1.3c-0.2,0-0.5-0.1-0.5-0.4c0-0.1,0-0.1,0-0.2
		L845.9-206.4L845.9-206.4z M856.1-197v-4.1h-5.6c-1.9,0-2.7,1-2.7,2.5v1.1c0,1.5,1,2.4,3,2.4S854.6-195.8,856.1-197z"/>
	<path class="st1" d="M874.2-195.1c-1.7,1.4-3.8,2.1-6,2.1c-3.4,0-4.9-1.8-4.9-4.5v-8.9c0-2.7,1.5-4.5,4.9-4.5
		c2.1,0,4.2,0.7,5.9,2.1v-8.4c-0.1-0.2,0.1-0.5,0.3-0.5c0.1,0,0.1,0,0.2,0h1.4c0.2,0,0.5,0.1,0.5,0.4c0,0.1,0,0.1,0,0.2v23.4
		c0,0.2-0.1,0.5-0.4,0.5c-0.1,0-0.1,0-0.2,0h-1.3c-0.3,0-0.5-0.1-0.5-0.4v-0.1L874.2-195.1z M865.8-197.9c0,1.4,0.8,2.6,3.1,2.6
		c1.9-0.1,3.8-0.8,5.3-2v-9.5c-1.5-1.2-3.4-1.9-5.3-2c-2.2,0-3.1,1.2-3.1,2.6V-197.9L865.8-197.9z"/>
	<path class="st1" d="M890.9-193.3c-0.2,0-0.5-0.1-0.5-0.4v-0.1v-22.8c-0.1-0.2,0.1-0.5,0.3-0.5c0.1,0,0.1,0,0.2,0h6
		c5.8,0,7.6,2.1,7.6,4.9v2.3c0.1,2-1.2,3.7-3.1,4.1c2.8,0.6,4.1,2.2,4.1,4.3v3.1c0,2.8-1.8,5-7.6,5L890.9-193.3L890.9-193.3z
		 M892.9-215v8.5h4.4c3.4,0,4.8-1.4,4.8-3.4v-1.9c0-2.1-1.4-3.2-5.1-3.2H892.9L892.9-215z M892.9-204.6v9.2h5c3.8,0,5.1-1.3,5.1-3.4
		v-2.6c0-1.9-1.4-3.3-5.1-3.3L892.9-204.6L892.9-204.6z"/>
	<path class="st1" d="M910.1-206.4c0-2.6,1.6-4.4,6.3-4.4s6.3,1.8,6.3,4.4v12.6c0,0.2-0.1,0.5-0.3,0.5h-0.1H921
		c-0.3,0-0.5-0.1-0.5-0.4v-0.1l-0.1-1.2c-1.6,1.3-3.7,2.1-5.8,2.1c-3.3,0-4.8-1.9-4.8-4.1v-1.8c0-2.3,1.5-4.1,4.5-4.1h6v-3.1
		c0-1.6-0.8-2.7-4-2.7s-4,1.1-4,2.6v0.4c0.1,0.2-0.1,0.5-0.3,0.6c-0.1,0-0.1,0-0.2,0h-1.3c-0.2,0-0.5-0.1-0.5-0.4c0-0.1,0-0.1,0-0.2
		L910.1-206.4L910.1-206.4z M920.3-197v-4.1h-5.6c-1.9,0-2.7,1-2.7,2.5v1.1c0,1.5,1,2.4,3,2.4S918.8-195.8,920.3-197z"/>
	<path class="st1" d="M930.4-193.8c0,0.2-0.1,0.5-0.3,0.5H930h-1.5c-0.2,0-0.5-0.1-0.5-0.4c0-0.1,0-0.1,0-0.2v-23.4
		c0-0.2,0.1-0.5,0.4-0.5c0.1,0,0.1,0,0.2,0h1.4c0.2,0,0.5,0.1,0.5,0.4c0,0.1,0,0.1,0,0.2L930.4-193.8L930.4-193.8z"/>
	<path class="st1" d="M935.8-206.4c0-2.6,1.6-4.4,6.3-4.4s6.3,1.8,6.3,4.4v12.6c0,0.2-0.1,0.5-0.3,0.5H948h-1.3
		c-0.3,0-0.5-0.1-0.5-0.4v-0.1l-0.1-1.2c-1.6,1.3-3.7,2.1-5.8,2.1c-3.3,0-4.8-1.9-4.8-4.1v-1.8c0-2.3,1.5-4.1,4.5-4.1h6v-3.1
		c0-1.6-0.8-2.7-4-2.7s-4,1.1-4,2.6v0.4c0.1,0.2-0.1,0.5-0.3,0.6c-0.1,0-0.1,0-0.2,0h-1.3c-0.2,0-0.5-0.1-0.5-0.4c0-0.1,0-0.1,0-0.2
		L935.8-206.4L935.8-206.4z M946-197v-4.1h-5.6c-1.9,0-2.7,1-2.7,2.5v1.1c0,1.5,1,2.4,3,2.4S944.5-195.8,946-197z"/>
	<path class="st1" d="M956-210l0.1,1.3c1.7-1.4,3.8-2.2,6-2.1c3.3,0,4.8,1.8,4.8,4.3v12.7c0,0.2-0.1,0.5-0.3,0.5h-0.1h-1.4
		c-0.3,0-0.5-0.1-0.5-0.4v-0.1V-206c0-1.6-0.8-2.7-3.1-2.7c-1.9,0.1-3.8,0.8-5.3,2v12.9c0,0.2-0.1,0.5-0.3,0.5h-0.1h-1.4
		c-0.2,0-0.5-0.1-0.5-0.4c0-0.1,0-0.1,0-0.2V-210c0-0.2,0.1-0.5,0.4-0.5c0.1,0,0.1,0,0.2,0h1.3c0.3,0,0.5,0.2,0.5,0.4
		C956-210.1,956-210.1,956-210z"/>
	<path class="st1" d="M984.5-206.4v0.7c0,0.2-0.1,0.5-0.4,0.5c-0.1,0-0.1,0-0.2,0h-1.3c-0.2,0-0.5-0.1-0.5-0.4c0-0.1,0-0.1,0-0.2
		v-0.5c0-1.6-0.9-2.7-4-2.7s-4,1.1-4,2.7v8.5c0,1.6,0.9,2.7,4,2.7s4-1,4-2.7v-0.8c-0.1-0.2,0.1-0.5,0.3-0.5c0.1,0,0.1,0,0.2,0h1.3
		c0.2-0.1,0.5,0.1,0.5,0.3c0,0.1,0,0.1,0,0.2v0.9c0,2.7-1.6,4.5-6.4,4.5s-6.3-1.8-6.3-4.5v-8.8c0-2.7,1.6-4.5,6.4-4.5
		S984.5-209,984.5-206.4z"/>
	<path class="st1" d="M1001.3-202c0,0.2-0.1,0.5-0.4,0.5h-0.1h-9.9v3.9c0,1.6,0.8,2.7,4.1,2.7s4.1-1.1,4.1-2.7v-0.6
		c0-0.2,0.1-0.4,0.3-0.5c0.1,0,0.1,0,0.2,0h1.3c0.2,0,0.5,0.1,0.5,0.3v0.1v0.7c0,2.7-1.6,4.5-6.4,4.5c-4.8,0-6.4-1.8-6.4-4.5v-8.8
		c0-2.7,1.6-4.5,6.4-4.5c4.8,0,6.3,1.8,6.3,4.5L1001.3-202L1001.3-202z M990.9-203.4h8.1v-2.8c0-1.6-1-2.7-4.1-2.7s-4.1,1.1-4.1,2.7
		L990.9-203.4L990.9-203.4z"/>
	<path class="st1" d="M1014.9-210.4v1.2c0,0.3-0.2,0.5-0.5,0.5h-0.1c-2.1,0.2-4.1,1-5.7,2.4v12.5c0,0.2-0.1,0.5-0.3,0.5h-0.1h-1.4
		c-0.2,0-0.5-0.1-0.5-0.4c0-0.1,0-0.1,0-0.2V-210c0-0.2,0.1-0.5,0.4-0.5c0.1,0,0.1,0,0.2,0h1.3c0.3,0,0.5,0.1,0.5,0.4v0.1l0.1,1.7
		c1.5-1.5,3.6-2.4,5.7-2.5C1014.6-210.9,1014.8-210.7,1014.9-210.4L1014.9-210.4z"/>
	<path class="st1" d="M713.5-96.9c-3.7,0-4.8,1.3-4.8,3.3v1c0,1.3,0.8,2.4,2,2.7l6.6,2.5c1.9,0.7,3.6,2.1,3.6,4.5v3
		c0,2.8-1.8,5.1-7.5,5.1s-7.5-2.3-7.5-5.1v-1.9c-0.1-0.2,0.1-0.5,0.3-0.5c0.1,0,0.1,0,0.2,0h1.4c0.2,0,0.5,0.1,0.5,0.4
		c0,0.1,0,0.1,0,0.2v1.7c0,2,1.3,3.3,5,3.3s5.2-1.3,5.2-3.3v-2.2c0-1.8-1.5-2.6-2.9-3.1l-6.3-2.4c-1.8-0.7-3-2.3-3-4.2v-2
		c0-2.8,1.6-5.1,7.2-5.1s7.3,2.3,7.3,5.1v1.6c0,0.2-0.1,0.5-0.4,0.5c-0.1,0-0.1,0-0.2,0h-1.4c-0.2,0-0.5-0.1-0.5-0.4v-0.1v-1.3
		C718.3-95.6,717.2-96.9,713.5-96.9z"/>
	<path class="st1" d="M738.4-83.7c0,0.2-0.1,0.5-0.4,0.5h-0.1H728v3.9c0,1.6,0.8,2.7,4.1,2.7s4.1-1.1,4.1-2.7v-0.6
		c0-0.2,0.1-0.4,0.3-0.5c0.1,0,0.1,0,0.2,0h1.3c0.2-0.1,0.5,0.1,0.5,0.3c0,0.1,0,0.1,0,0.2v0.7c0,2.7-1.6,4.5-6.4,4.5
		c-4.8,0-6.4-1.8-6.4-4.5V-88c0-2.7,1.6-4.5,6.4-4.5c4.8,0,6.3,1.8,6.3,4.5L738.4-83.7L738.4-83.7z M728-85h8.1v-2.8
		c0-1.6-1-2.7-4.1-2.7s-4.1,1.1-4.1,2.7L728-85L728-85z"/>
	<path class="st1" d="M755.6-88v0.7c0,0.2-0.1,0.5-0.4,0.5c-0.1,0-0.1,0-0.2,0h-1.3c-0.2,0-0.5-0.1-0.5-0.4c0-0.1,0-0.1,0-0.2v-0.5
		c0-1.6-0.9-2.7-4-2.7s-4,1-4,2.7v8.5c0,1.6,0.9,2.7,4,2.7s4-1,4-2.7v-0.8c0-0.2,0.1-0.5,0.3-0.5c0.1,0,0.1,0,0.2,0h1.3
		c0.2,0,0.5,0.1,0.5,0.3c0,0.1,0,0.1,0,0.2v1c0,2.7-1.6,4.5-6.4,4.5c-4.8,0-6.3-1.8-6.3-4.5V-88c0-2.7,1.6-4.5,6.4-4.5
		S755.6-90.7,755.6-88z"/>
	<path class="st1" d="M770.4-76.7c-1.6,1.4-3.6,2.1-5.7,2.1c-3.3,0-4.9-1.8-4.9-4.3v-12.8c-0.1-0.2,0.1-0.5,0.3-0.5
		c0.1,0,0.1,0,0.2,0h1.4c0.2,0,0.5,0.1,0.5,0.4c0,0.1,0,0.1,0,0.2v12.2c0,1.6,0.9,2.7,3.1,2.7c1.8,0,3.6-0.7,5-1.9v-13
		c-0.1-0.2,0.1-0.5,0.3-0.5c0.1,0,0.1,0,0.2,0h1.4c0.2,0,0.5,0.1,0.5,0.4c0,0.1,0,0.1,0,0.2v16.2c0.1,0.2-0.1,0.5-0.3,0.5
		c-0.1,0-0.1,0-0.2,0h-1.3c-0.2,0-0.5-0.1-0.5-0.4c0-0.1,0-0.1,0-0.2V-76.7z"/>
	<path class="st1" d="M787-92v1.2c0,0.3-0.2,0.5-0.5,0.5h-0.1c-2.1,0.2-4.1,1-5.7,2.4v12.5c0,0.2-0.1,0.5-0.3,0.5h-0.1h-1.4
		c-0.2,0-0.5-0.1-0.5-0.4c0-0.1,0-0.1,0-0.2v-16.2c0-0.2,0.1-0.5,0.4-0.5c0.1,0,0.1,0,0.2,0h1.3c0.3,0,0.5,0.1,0.5,0.4
		c0,0.1,0,0.1,0,0.2l0.1,1.7c1.5-1.5,3.6-2.4,5.7-2.5c0.3,0,0.5,0.1,0.6,0.4C787-92.1,787-92,787-92z"/>
	<path class="st1" d="M792.8-95.6c0,0.2-0.1,0.5-0.3,0.5h-0.1H791c-0.2,0-0.5-0.1-0.5-0.4c0-0.1,0-0.1,0-0.2V-99
		c0-0.2,0.1-0.5,0.4-0.5c0.1,0,0.1,0,0.2,0h1.4c0.2,0,0.5,0.1,0.5,0.4c0,0.1,0,0.1,0,0.2v3.3H792.8z M792.8-75.5
		c0,0.2-0.1,0.5-0.3,0.5h-0.1H791c-0.2,0-0.5-0.1-0.5-0.4c0-0.1,0-0.1,0-0.2v-16.2c0-0.2,0.1-0.5,0.4-0.5c0.1,0,0.1,0,0.2,0h1.4
		c0.2,0,0.5,0.1,0.5,0.4c0,0.1,0,0.1,0,0.2v16.2H792.8z"/>
	<path class="st1" d="M805.5-92.1c0.2,0,0.5,0.1,0.5,0.3v0.1v1c0,0.3-0.1,0.5-0.4,0.5h-0.1h-3.9v10.5c0,1.6,0.9,2.7,4.1,2.7h0.6
		c0.2,0,0.5,0.1,0.5,0.4c0,0.1,0,0.1,0,0.2v1c0,0.2-0.1,0.5-0.4,0.5c-0.1,0-0.1,0-0.2,0h-0.9c-4.8,0-6.2-1.7-6.2-4.5v-10.7H797
		c-0.2,0-0.5-0.1-0.5-0.4v-0.1v-0.8c0-0.2,0.1-0.5,0.4-0.5h0.1l1.8-0.1h0.3v-3.7c0-0.3,0.1-0.5,0.4-0.5h0.1h1.4
		c0.2,0,0.5,0.1,0.5,0.4v0.1v3.7L805.5-92.1L805.5-92.1z"/>
	<path class="st1" d="M814.8-80c0.2,0.7,0.4,1.4,0.5,2.1c0-0.1,0.3-1.3,0.6-2l4-11.7c0-0.3,0.3-0.5,0.6-0.5h1.3
		c0.4,0,0.6,0.2,0.5,0.5l-8,23.5c0,0.3-0.3,0.5-0.6,0.5h-1.1c-0.2,0-0.4-0.1-0.4-0.3c0-0.1,0-0.2,0-0.2l2.1-6.6l-5.9-16.9
		c-0.1-0.2,0-0.4,0.2-0.5c0.1,0,0.1,0,0.2,0h1.4c0.3,0,0.6,0.2,0.6,0.5L814.8-80z"/>
	<path class="st1" d="M833.1-79.1V-88c0-2.7,1.5-4.5,4.9-4.5c2.2,0,4.3,0.7,6,2.1l0.1-1.3c0-0.3,0.1-0.5,0.4-0.5h0.1h1.3
		c0.2,0,0.5,0.1,0.5,0.4c0,0.1,0,0.1,0,0.2v19.5c0,2.7-1.8,4.5-6.5,4.5h-4.8c-0.2,0.1-0.5-0.1-0.5-0.3c0-0.1,0-0.1,0-0.2v-1
		c0-0.2,0.1-0.5,0.4-0.5c0.1,0,0.1,0,0.2,0h4.8c3.1,0,4.1-1.1,4.1-2.7v-4.2c-1.7,1.3-3.8,2-5.9,2C834.6-74.6,833.1-76.5,833.1-79.1z
		 M835.5-79.5c0,1.4,0.8,2.6,3.1,2.6c1.9-0.1,3.8-0.8,5.3-2v-9.5c-1.5-1.2-3.4-1.9-5.3-2c-2.2,0-3.1,1.2-3.1,2.6V-79.5L835.5-79.5z"
		/>
	<path class="st1" d="M860.5-92v1.2c0,0.3-0.2,0.5-0.5,0.5h-0.1c-2.1,0.2-4.1,1-5.7,2.4v12.5c0,0.2-0.1,0.5-0.3,0.5h-0.1h-1.4
		c-0.2,0-0.5-0.1-0.5-0.4c0-0.1,0-0.1,0-0.2v-16.2c0-0.2,0.1-0.5,0.4-0.5c0.1,0,0.1,0,0.2,0h1.3c0.3,0,0.5,0.1,0.5,0.4v0.1l0.1,1.7
		c1.5-1.5,3.6-2.4,5.7-2.5c0.3,0,0.5,0.1,0.6,0.4C860.5-92.1,860.5-92,860.5-92z"/>
	<path class="st1" d="M863.5-88c0-2.7,1.8-4.5,6.6-4.5s6.6,1.8,6.6,4.5v8.8c0,2.7-1.8,4.5-6.6,4.5s-6.6-1.8-6.6-4.5V-88z
		 M874.3-87.8c0-1.6-1.1-2.7-4.2-2.7s-4.2,1-4.2,2.7v8.5c0,1.6,1.1,2.7,4.2,2.7s4.2-1,4.2-2.7V-87.8z"/>
	<path class="st1" d="M892.3-76.7c-1.6,1.4-3.6,2.1-5.8,2.1c-3.3,0-4.9-1.8-4.9-4.3v-12.8c-0.1-0.2,0.1-0.5,0.3-0.5
		c0.1,0,0.1,0,0.2,0h1.4c0.2,0,0.5,0.1,0.5,0.4c0,0.1,0,0.1,0,0.2v12.2c0,1.6,0.9,2.7,3.1,2.7c1.8,0,3.6-0.7,5-1.9v-13
		c-0.1-0.2,0.1-0.5,0.3-0.5c0.1,0,0.1,0,0.2,0h1.4c0.2,0,0.5,0.1,0.5,0.4c0,0.1,0,0.1,0,0.2v16.2c0.1,0.2-0.1,0.5-0.3,0.5
		c-0.1,0-0.1,0-0.2,0h-1.3c-0.2,0-0.5-0.1-0.5-0.4c0-0.1,0-0.1,0-0.2L892.3-76.7z"/>
	<path class="st1" d="M902.5-91.7l0.1,1.3c1.7-1.4,3.8-2.2,6-2.1c3.3,0,4.8,1.8,4.8,4.5v8.9c0,2.7-1.5,4.5-4.8,4.5
		c-2.2,0-4.3-0.7-6-2v8.5c0,0.2-0.1,0.4-0.3,0.5c-0.1,0-0.1,0-0.2,0h-1.4c-0.2,0.1-0.5-0.1-0.5-0.3c0-0.1,0-0.1,0-0.2v-23.5
		c0-0.2,0.1-0.5,0.4-0.5c0.1,0,0.1,0,0.2,0h1.3c0.2-0.1,0.5,0.1,0.6,0.3C902.5-91.8,902.5-91.8,902.5-91.7z M911-87.7
		c0-1.4-0.8-2.6-3.1-2.6c-1.9,0-3.8,0.8-5.3,2v9.5c1.5,1.2,3.4,1.9,5.3,2c2.3,0,3.1-1.2,3.1-2.6V-87.7L911-87.7z"/>
	<path class="st1" d="M709.1,27v9.2c0.1,0.2-0.1,0.5-0.3,0.5c-0.1,0-0.1,0-0.2,0h-1.5c-0.2,0-0.5-0.1-0.5-0.4c0-0.1,0-0.1,0-0.2
		V13.4c-0.1-0.2,0.1-0.5,0.3-0.5h0.1h6.9c5.8,0,7.6,2.3,7.6,5.1v3.9c0,2.2-1.1,4.1-4.3,4.8l4.6,9.5c0.1,0.3-0.1,0.5-0.5,0.5h-1.5
		c-0.3,0-0.6-0.2-0.6-0.5l-4.3-9.2L709.1,27L709.1,27z M709.1,15v9.9h4.9c3.8,0,5.1-1.3,5.1-3.4v-3.1c0-2-1.4-3.4-5.1-3.4H709.1
		L709.1,15z"/>
	<path class="st1" d="M727.8,36.7c-0.3,0-0.4-0.2-0.4-0.5V13.4c-0.1-0.2,0.1-0.5,0.3-0.5h0.1h7.1c5.8,0,7.6,2.3,7.6,5.1v13.6
		c0,2.8-1.8,5.1-7.6,5.1L727.8,36.7L727.8,36.7z M729.8,15v19.5h5.1c3.8,0,5.1-1.3,5.1-3.4V18.3c0-2-1.4-3.4-5.1-3.4L729.8,15
		L729.8,15z"/>
	<path class="st1" d="M755.3,14.7c-3.7,0-4.8,1.3-4.8,3.3v1c0,1.3,0.8,2.4,2,2.7l6.6,2.5c1.9,0.7,3.6,2.1,3.6,4.5v3
		c0,2.8-1.8,5.1-7.5,5.1s-7.5-2.3-7.5-5.1V30c-0.1-0.2,0.1-0.5,0.3-0.5c0.1,0,0.1,0,0.2,0h1.4c0.2,0,0.5,0.1,0.5,0.4
		c0,0.1,0,0.1,0,0.2v1.6c0,2,1.3,3.3,5,3.3s5.1-1.3,5.1-3.3v-2.2c0-1.8-1.5-2.6-2.9-3.1L751,24c-1.8-0.7-3-2.3-3-4.2v-2
		c0-2.8,1.6-5.1,7.2-5.1s7.3,2.3,7.3,5.1v1.6c0,0.2-0.1,0.5-0.4,0.5c-0.1,0-0.1,0-0.2,0h-1.4c-0.2,0-0.5-0.1-0.5-0.4
		c0-0.1,0-0.1,0-0.2V18C760.1,16,758.9,14.7,755.3,14.7z"/>
	<path class="st1" d="M776.4,36.7c-0.3,0-0.4-0.2-0.4-0.5V13.4c-0.1-0.2,0.1-0.5,0.3-0.5h0.1h7c5.8,0,7.6,2.3,7.6,5.1v13.6
		c0,2.8-1.8,5.1-7.6,5.1L776.4,36.7L776.4,36.7z M778.5,15v19.5h5c3.8,0,5.1-1.3,5.1-3.4V18.3c0-2-1.4-3.4-5.1-3.4L778.5,15
		L778.5,15z"/>
	<path class="st1" d="M796.4,23.5c0-2.6,1.6-4.5,6.3-4.5s6.3,1.8,6.3,4.5v12.6c0.1,0.2-0.1,0.5-0.3,0.5c-0.1,0-0.1,0-0.2,0h-1.3
		c-0.3,0-0.5-0.1-0.5-0.4c0-0.1,0-0.1,0-0.2l-0.1-1.3c-1.6,1.3-3.7,2.1-5.8,2.1c-3.2,0-4.8-1.9-4.8-4.1v-1.8c0-2.3,1.5-4.1,4.5-4.1
		h6v-3.1c0-1.6-0.8-2.7-4-2.7s-4,1-4,2.6V24c0.1,0.2-0.1,0.5-0.3,0.6c-0.1,0-0.1,0-0.2,0h-1.3c-0.2,0-0.5-0.1-0.5-0.4
		c0-0.1,0-0.1,0-0.2L796.4,23.5L796.4,23.5z M806.6,33v-4.1H801c-1.9,0-2.7,1-2.7,2.5v1.1c0,1.5,0.9,2.4,3,2.4
		C803.3,34.9,805.2,34.2,806.6,33z"/>
	<path class="st1" d="M821.5,19.5c0.2-0.1,0.5,0.1,0.5,0.3c0,0.1,0,0.1,0,0.2v1c0,0.3-0.1,0.5-0.4,0.5c-0.1,0-0.1,0-0.2,0h-4V32
		c0,1.6,1,2.7,4.1,2.7h0.6c0.2,0,0.5,0.1,0.5,0.4c0,0.1,0,0.1,0,0.2v1c0,0.2-0.1,0.5-0.4,0.5c-0.1,0-0.1,0-0.2,0h-0.9
		c-4.8,0-6.2-1.7-6.2-4.5V21.5h-2.1c-0.2,0-0.4-0.2-0.4-0.4c0,0,0,0,0-0.1v-0.8c0-0.2,0.1-0.5,0.4-0.5h0.1l1.8-0.1h0.3v-3.7
		c0-0.3,0.1-0.5,0.4-0.5h0.1h1.4c0.2,0,0.5,0.1,0.5,0.4v0.1v3.7L821.5,19.5L821.5,19.5z"/>
	<path class="st1" d="M826.2,23.5c0-2.6,1.6-4.5,6.3-4.5s6.3,1.8,6.3,4.5v12.6c0.1,0.2-0.1,0.5-0.3,0.5c-0.1,0-0.1,0-0.2,0H837
		c-0.3,0-0.5-0.1-0.5-0.4v-0.1l-0.1-1.3c-1.6,1.3-3.7,2.1-5.8,2.1c-3.3,0-4.8-1.9-4.8-4.1V31c0-2.3,1.5-4.1,4.5-4.1h6v-3.1
		c0-1.6-0.8-2.7-4-2.7s-4,1-4,2.6v0.4c0.1,0.2-0.1,0.5-0.3,0.6c-0.1,0-0.1,0-0.2,0h-1.3c-0.2,0-0.5-0.1-0.5-0.4c0-0.1,0-0.1,0-0.2
		L826.2,23.5L826.2,23.5z M836.5,33v-4.1h-5.6c-1.9,0-2.7,1-2.7,2.5v1.1c0,1.5,1,2.4,3,2.4S835,34.2,836.5,33z"/>
	<path class="st1" d="M844.7,36.7c-0.2,0-0.5-0.1-0.5-0.4c0-0.1,0-0.1,0-0.2V12.7c0-0.2,0.1-0.5,0.4-0.5c0.1,0,0.1,0,0.2,0h1.4
		c0.2,0,0.5,0.1,0.5,0.4c0,0.1,0,0.1,0,0.2v8.4c1.7-1.4,3.8-2.1,6-2.1c3.3,0,4.8,1.8,4.8,4.5v8.9c0,2.7-1.5,4.5-4.8,4.5
		c-2.2,0-4.3-0.7-6-2.1l-0.1,1.3c0,0.3-0.1,0.5-0.4,0.5h-0.1L844.7,36.7L844.7,36.7z M854.9,24c0-1.4-0.8-2.6-3.1-2.6
		c-1.9,0-3.8,0.8-5.3,2v9.5c1.5,1.2,3.4,1.9,5.3,2c2.3,0,3.1-1.2,3.1-2.6V24z"/>
	<path class="st1" d="M862.3,23.5c0-2.6,1.6-4.5,6.3-4.5s6.3,1.8,6.3,4.5v12.6c0.1,0.2-0.1,0.5-0.3,0.5c-0.1,0-0.1,0-0.2,0h-1.3
		c-0.3,0-0.5-0.1-0.5-0.4v-0.1l-0.1-1.3c-1.6,1.3-3.7,2.1-5.8,2.1c-3.3,0-4.8-1.9-4.8-4.1V31c0-2.3,1.5-4.1,4.5-4.1h6v-3.1
		c0-1.6-0.8-2.7-4-2.7s-4,1-4,2.6v0.4c0.1,0.2-0.1,0.5-0.3,0.6c-0.1,0-0.1,0-0.2,0h-1.3c-0.2,0-0.5-0.1-0.5-0.4c0-0.1,0-0.1,0-0.2
		v-0.6H862.3L862.3,23.5z M872.5,33v-4.1h-5.6c-1.9,0-2.7,1-2.7,2.5v1.1c0,1.5,1,2.4,3,2.4S871,34.2,872.5,33z"/>
	<path class="st1" d="M889.6,23.1c0-1.4-1.3-2.2-3.9-2.2s-3.8,0.8-3.8,2.2V24c0.1,1,0.8,1.7,1.8,1.9l5.4,1.8c1.8,0.6,3,1.7,3,3.3v2
		c0,2.1-1.9,4-6.4,4s-6.3-1.9-6.3-4v-0.9c0-0.2,0.1-0.5,0.4-0.5h0.1h1.3c0.2,0,0.4,0.1,0.5,0.3c0,0.1,0,0.1,0,0.2v0.8
		c0,1.4,1.4,2.2,4.1,2.2c2.7,0,4.1-0.8,4.1-2.2v-1.3c0-1-0.9-1.6-2.1-2l-5.4-1.8c-1.5-0.5-2.6-1.8-2.7-3.4V23c0-2.1,1.6-4,6.1-4
		s6.1,1.9,6.1,4v1c0,0.2-0.1,0.4-0.3,0.5h-0.1h-1.3c-0.2,0-0.4-0.1-0.5-0.3c0-0.1,0-0.1,0-0.2L889.6,23.1L889.6,23.1z"/>
	<path class="st1" d="M908.8,28c0,0.2-0.1,0.5-0.4,0.5h-0.1h-9.9v3.9c0,1.6,0.8,2.7,4.1,2.7s4.1-1.1,4.1-2.7v-0.6
		c0-0.2,0.1-0.4,0.3-0.5c0.1,0,0.1,0,0.2,0h1.3c0.2,0,0.5,0.1,0.5,0.3v0.1v0.7c0,2.7-1.6,4.5-6.4,4.5s-6.4-1.8-6.4-4.5v-8.8
		c0-2.7,1.6-4.5,6.4-4.5s6.3,1.8,6.3,4.5L908.8,28L908.8,28z M898.4,26.6h8.1v-2.8c0-1.6-1-2.7-4.1-2.7s-4.1,1.1-4.1,2.7L898.4,26.6
		L898.4,26.6z"/>
</g>
<title>illust_checks</title>
<g id="sparkles" class="st0">
	<line class="st2" x1="877" y1="-616.9" x2="877" y2="-592.9"/>
	<line class="st2" x1="865" y1="-604.9" x2="889" y2="-604.9"/>
	<line class="st2" x1="869" y1="-275.6" x2="869" y2="-259.6"/>
	<line class="st2" x1="861" y1="-267.6" x2="877" y2="-267.6"/>
	<line class="st2" x1="1379" y1="-496.6" x2="1379" y2="-480.6"/>
	<line class="st2" x1="1371" y1="-488.6" x2="1387" y2="-488.6"/>
	<circle class="st2" cx="1332" cy="-347.1" r="7.7"/>
	<circle class="st2" cx="919" cy="-239.3" r="7.7"/>
</g>
<path d="M-428.1,721.6v-18.6h14v3.6h-10v3.8h8.8v3.6h-8.8v3.9h10.1v3.6L-428.1,721.6L-428.1,721.6z"/>
<path d="M-401.6,721.9c-5.2,0.1-9.4-4.1-9.5-9.2c0-0.1,0-0.2,0-0.3l0,0c-0.1-5.2,4.1-9.5,9.3-9.6c0.1,0,0.3,0,0.4,0
	c2.8-0.2,5.4,0.9,7.4,2.9l-2.6,3c-1.2-1.3-3-2-4.7-2.1c-3,0.1-5.5,2.6-5.4,5.6c0,0.1,0,0.1,0,0.2l0,0c-0.2,3,2.1,5.7,5.1,5.9
	c0.1,0,0.2,0,0.3,0c1.9,0,3.6-0.8,4.9-2.2l2.6,2.6C-395.9,720.9-398.7,722.1-401.6,721.9z"/>
<path d="M-384.1,721.9c-2.9,0-5.7-1-7.9-3l2.4-3c1.5,1.4,3.5,2.2,5.6,2.3c1.7,0,2.7-0.7,2.7-1.8l0,0c0-1-0.6-1.6-3.7-2.4
	c-3.7-1-6.2-2-6.2-5.7l0,0c0-3.4,2.7-5.6,6.5-5.6c2.5,0,4.9,0.8,6.9,2.4l-2.1,3.1c-1.4-1.1-3.1-1.7-4.8-1.8c-1.6,0-2.4,0.7-2.4,1.6
	l0,0c0,1.2,0.8,1.6,4,2.4c3.8,1,5.9,2.3,5.9,5.6l0,0C-377.2,719.8-380,721.9-384.1,721.9z"/>
<g id="Layer_1-2">
	<polygon class="st3" points="-445,588.9 -450,591.5 -450,662.3 -445,664.8 -425.2,628.3 	"/>
	<polygon class="st3" points="-429.6,601.6 -422.3,591.2 -389.1,605.9 -396.9,607.2 	"/>
	<polygon class="st3" points="-435.4,652.8 -427.3,664 -389.1,647.5 -396.5,646.3 	"/>
	<polygon class="st4" points="-433.3,662.1 -445,664.8 -445,588.9 -433.3,591.6 	"/>
	<polygon class="st3" points="-439.5,586.1 -433.3,583 -421.7,631.7 -433.3,670.7 -439.5,667.6 	"/>
	<polygon class="st3" points="-396.9,646.3 -389.1,647.5 -382,627.6 -389.1,605.9 -396.9,607.2 	"/>
	<polygon class="st4" points="-421.4,667.3 -433.3,670.7 -433.3,583 -421.4,586.4 	"/>
	<polygon class="st4" points="-381,646 -433.3,655.8 -433.3,670.7 -381,655.9 	"/>
	<polygon class="st4" points="-380.8,607.5 -433.3,597.5 -433.3,583 -380.8,597.9 	"/>
	<polygon class="st4" points="-389.1,595.6 -380.7,597.9 -380.7,655.9 -389.1,658.3 	"/>
	<polygon class="st5" points="-356.2,619.2 -378.6,620.2 -386.6,619.8 -363.9,601.3 	"/>
	<polygon class="st3" points="-386.6,619.8 -363.9,618.4 -363.9,601.3 -386.6,605 	"/>
	<polygon class="st5" points="-408,618.3 -385,595 -373.3,617.4 -397.2,619 	"/>
	<polygon class="st3" points="-408,618.3 -385,616.4 -385,595 -408,600.5 	"/>
	<polygon class="st3" points="-386.6,634.2 -356.2,634.8 -363.9,652.7 -386.6,649 	"/>
	<polygon class="st3" points="-408,635.7 -373.3,636.6 -385,659 -408,653.6 	"/>
	<polygon class="st6" points="-408,635.7 -385,637.8 -373.3,636.6 -397.2,635 	"/>
	<polygon class="st6" points="-356.2,634.8 -378.6,633.8 -386.6,634.2 -363.9,635.6 	"/>
	<polygon class="st4" points="-363.9,618.4 -356.2,619.2 -356.2,603.7 -363.9,601.3 	"/>
	<polygon class="st4" points="-373.3,617.4 -385,616.4 -385,595 -373.3,598.5 	"/>
	<polygon class="st4" points="-363.9,635.6 -356.2,634.8 -356.2,650.3 -363.9,652.7 	"/>
	<polygon class="st4" points="-373.3,636.6 -385,637.8 -385,659 -373.3,655.5 	"/>
</g>
<path d="M-280.3,721.6v-18.6h14v3.6h-9.9v3.8h8.8v3.6h-8.8v3.9h10.1v3.6L-280.3,721.6L-280.3,721.6z"/>
<path d="M-253.8,721.9c-5.2,0.1-9.4-4.1-9.5-9.2c0-0.1,0-0.2,0-0.3l0,0c-0.1-5.2,4.1-9.5,9.3-9.6c0.1,0,0.3,0,0.4,0
	c2.8-0.2,5.4,0.9,7.4,2.9l-2.6,3c-1.2-1.3-3-2-4.7-2.1c-3,0.1-5.5,2.6-5.4,5.6c0,0.1,0,0.1,0,0.2l0,0c-0.2,3,2.1,5.7,5.1,5.9
	c0.1,0,0.2,0,0.3,0c1.9,0,3.6-0.8,4.9-2.2l2.6,2.6C-248.1,720.9-250.9,722.1-253.8,721.9z"/>
<path d="M-240.8,708.9l-2.9-2.3c1.8-2.5,3.6-3.8,6.9-3.8c4,0,6.4,2.3,6.4,5.8c0,3.1-1.6,4.7-4.9,7.2l-3,2.3h8.1v3.5h-13.8v-3.2
	l6.2-5.1c2.3-1.9,3.2-3,3.2-4.4c0.1-1.3-0.9-2.3-2.1-2.4c-0.1,0-0.2,0-0.4,0C-238.4,706.4-239.4,707.2-240.8,708.9z"/>
<g id="Layer_1-3">
	<polygon class="st3" points="-300.9,588.8 -305.9,591.3 -305.9,662.4 -300.9,664.9 -280.4,628.8 	"/>
	<polygon class="st4" points="-289.1,662.3 -300.9,664.9 -300.9,588.8 -289.1,591.5 	"/>
	<polygon class="st3" points="-295.3,586 -289.1,582.9 -259.6,630.1 -289.1,670.8 -295.3,667.7 	"/>
	<polygon class="st4" points="-274.5,666.7 -289.1,670.8 -289.1,582.9 -274.5,587 	"/>
	<polygon class="st3" points="-282.1,579.4 -274.5,575.5 -231,635.3 -274.5,678.2 -282.1,674.4 	"/>
	<polygon class="st4" points="-255.6,671.3 -274.5,678.2 -274.5,575.5 -255.6,582.5 	"/>
	<polygon class="st3" points="-265.6,571.1 -255.6,566.1 -208.7,630.2 -255.6,687.6 -265.6,682.6 	"/>
	<polygon class="st4" points="-205.3,662.4 -255.6,687.6 -255.6,566.1 -205.3,591.3 	"/>
</g>
<path d="M-122.8,721.6l-4-5.9h-3.2v5.9h-4.2v-18.6h8.5c4.4,0,7,2.3,7,6.1l0,0c0.1,2.6-1.5,5-4,5.8l4.5,6.6L-122.8,721.6
	L-122.8,721.6z M-122.8,709.4c0-1.8-1.2-2.7-3.2-2.7h-4.1v5.3h4.1C-123.9,712.1-122.7,711-122.8,709.4L-122.8,709.4L-122.8,709.4z"
	/>
<path d="M-107.7,721.6h-7.3v-18.6h7.3c5.9,0,9.9,4,9.9,9.2l0,0C-97.9,717.6-101.9,721.6-107.7,721.6z M-102.1,712.3
	c0.2-2.9-2.1-5.5-5.1-5.6c-0.2,0-0.4,0-0.5,0h-3.2V718h3.2c2.9,0.2,5.4-2.1,5.6-5C-102.1,712.8-102.1,712.6-102.1,712.3
	L-102.1,712.3L-102.1,712.3z"/>
<path d="M-87.9,721.9c-2.9,0-5.7-1-7.9-3l2.4-3c1.5,1.4,3.5,2.2,5.5,2.3c1.7,0,2.7-0.7,2.7-1.8l0,0c0-1-0.6-1.6-3.7-2.4
	c-3.7-1-6.2-2-6.2-5.7l0,0c0-3.4,2.7-5.6,6.5-5.6c2.5,0,4.9,0.8,6.9,2.4l-2.1,3.1c-1.4-1.1-3.1-1.7-4.8-1.8c-1.6,0-2.4,0.7-2.4,1.6
	l0,0c0,1.2,0.8,1.6,4,2.4c3.8,1,5.9,2.3,5.9,5.6l0,0C-81.1,719.8-83.9,721.9-87.9,721.9z"/>
<g id="Layer_1-4">
	<polygon class="st7" points="-60.9,597.2 -72.7,584.2 -89.4,626.9 -72.7,669.5 -60.9,656.5 	"/>
	<polygon class="st8" points="-93.3,680 -72.7,669.5 -72.7,584.2 -93.3,573.8 -117.8,626.9 	"/>
	<polygon class="st7" points="-122.8,680 -93.3,680 -93.3,573.8 -122.8,573.8 -140.5,626.9 	"/>
	<polygon class="st9" points="-143.5,669.5 -122.8,680 -122.8,573.8 -143.5,584.2 -152.6,626.9 	"/>
	<polygon class="st10" points="-155.3,656.5 -143.5,669.5 -143.5,584.2 -155.3,597.2 	"/>
</g>
<path d="M-2.9,721.9c-5.2,0.1-9.4-4.1-9.5-9.2c0-0.1,0-0.2,0-0.3l0,0c-0.1-5.2,4.1-9.5,9.3-9.6c0.1,0,0.3,0,0.4,0
	c2.8-0.2,5.4,0.9,7.4,2.9l-2.6,3c-1.2-1.3-3-2-4.7-2.1c-3,0.1-5.5,2.6-5.4,5.6c0,0.1,0,0.1,0,0.2l0,0c-0.2,3,2.1,5.7,5.1,5.9
	c0.1,0,0.2,0,0.3,0c1.9,0,3.6-0.8,4.9-2.2l2.6,2.6C2.8,720.9,0,722.1-2.9,721.9z"/>
<path d="M7.7,721.6v-19.4h4v19.4L7.7,721.6L7.7,721.6z"/>
<path d="M22.6,721.9c-4.1,0.2-7.5-3-7.7-7.1c0-0.1,0-0.2,0-0.3l0,0c0.3-4.3,3.9-7.5,8.2-7.2c3.9,0.2,7,3.3,7.2,7.2l0,0
	c0,4.1-3.4,7.4-7.5,7.4C22.7,722,22.6,722,22.6,721.9z M26.3,714.6c0.1-2.1-1.5-3.8-3.6-3.9c0,0-0.1,0-0.1,0c-2,0-3.7,1.6-3.7,3.6
	c0,0.1,0,0.2,0,0.3l0,0c-0.1,2.1,1.5,3.8,3.6,3.9c0,0,0.1,0,0.1,0c2,0,3.7-1.6,3.7-3.6C26.3,714.8,26.3,714.7,26.3,714.6L26.3,714.6
	z"/>
<path d="M42.1,721.6v-2c-0.9,1.4-2.5,2.3-4.2,2.3c-3.1,0-4.8-2-4.8-5.3v-9.2h4v7.9c0,1.9,0.9,3,2.4,3c1.4,0,2.5-1,2.6-2.4
	c0-0.2,0-0.4,0-0.6v-7.9h4v14.2H42.1z"/>
<path d="M60.1,721.6v-2.1c-1,1.5-2.7,2.3-4.4,2.3c-3.3,0-6.5-2.6-6.5-7.4l0,0c0-4.7,3.1-7.4,6.5-7.4c1.7,0,3.4,0.8,4.4,2.1v-7h4
	v19.4L60.1,721.6L60.1,721.6z M60.1,714.5c0.3-1.9-1.1-3.7-3-3.9c-1.9-0.3-3.7,1.1-3.9,3c0,0.3,0,0.6,0,0.9l0,0
	c-0.3,1.9,1.1,3.7,3,3.9c1.9,0.3,3.7-1.1,3.9-3C60.1,715.1,60.1,714.8,60.1,714.5L60.1,714.5z"/>
<path d="M88.5,721.7H85l-4.2-12.1l-4.2,12.1H73L66.7,703h4.4l3.8,12.6l4.2-12.6h3.5l4.2,12.6l3.8-12.6h4.3L88.5,721.7z"/>
<path d="M103.9,721.6v-1.5c-1.1,1.2-2.7,1.9-4.3,1.8c-2.7,0-4.9-1.5-4.9-4.4l0,0c0-3.1,2.4-4.5,5.7-4.5c1.2,0,2.4,0.2,3.5,0.6v-0.2
	c0-1.7-1-2.6-3.1-2.6c-1.3,0-2.7,0.3-3.9,0.8l-1-3.1c1.7-0.8,3.6-1.2,5.5-1.1c4.4,0,6.3,2.3,6.3,6.1v8.3L103.9,721.6L103.9,721.6z
	 M104,715.9c-0.8-0.4-1.7-0.5-2.6-0.5c-1.7,0-2.8,0.7-2.8,2l0,0c0.1,1,1,1.8,2,1.8c0.1,0,0.1,0,0.2,0c1.9,0,3.2-1,3.2-2.5L104,715.9
	L104,715.9z"/>
<path d="M116,721.9c-2.5,0-4.1-1-4.1-4.3v-6.7h-1.7v-3.5h1.7v-3.6h4v3.6h3.3v3.5h-3.3v6.1c-0.1,0.6,0.3,1.2,0.9,1.4
	c0.1,0,0.3,0,0.4,0c0.7,0,1.4-0.2,2-0.5v3.2C118.2,721.6,117.1,721.9,116,721.9z"/>
<path d="M128.5,721.9c-4,0.1-7.3-3.2-7.4-7.2c0-0.1,0-0.1,0-0.2l0,0c0-4.1,3.3-7.4,7.4-7.4c0,0,0.1,0,0.1,0c2.2-0.1,4.3,0.8,5.7,2.4
	l-2.5,2.7c-0.8-1-2-1.6-3.2-1.6c-2,0.1-3.6,1.8-3.5,3.8c0,0,0,0,0,0.1l0,0c-0.2,2,1.3,3.8,3.3,3.9c0.1,0,0.2,0,0.3,0
	c1.2,0,2.4-0.6,3.3-1.5l2.4,2.4C132.9,721.1,130.7,722.1,128.5,721.9z"/>
<path d="M146,721.6v-7.9c0-1.9-0.9-3-2.4-3c-1.4,0-2.5,1-2.6,2.4c0,0.2,0,0.4,0,0.6v7.9h-4v-19.4h4v7.2c0.9-1.4,2.5-2.3,4.2-2.3
	c3.1,0,4.8,2,4.8,5.3v9.2L146,721.6L146,721.6z"/>
<polygon class="st11" points="122.6,649.7 68.9,641.8 15.2,649.7 68.9,687.6 "/>
<polygon class="st12" points="26,648.8 35,651.5 56.4,618.9 35,586.1 26,589.5 "/>
<polygon class="st13" points="67.1,646 35,651.6 35,586.1 67.1,593.4 "/>
<polygon class="st12" points="52.8,656.9 40.3,653.3 40.3,572.4 52.8,566.1 90,614 "/>
<polygon class="st13" points="95.8,647.1 52.8,657.1 52.8,566.1 95.8,582.9 "/>
<polygon class="st12" points="68.9,668.7 15.2,649.7 15.2,660.8 68.9,687.6 "/>
<polygon class="st13" points="122.6,660.8 68.9,687.6 68.9,668.7 122.6,649.7 "/>
<polygon class="st11" points="107.6,631.4 94.4,631.4 57.4,633.9 68.9,661.8 "/>
<polygon class="st12" points="57.4,658.3 68.9,661.8 68.9,635.1 57.4,633.9 "/>
<polygon class="st13" points="107.6,631.4 68.9,635.1 68.9,661.8 107.6,650.2 "/>
<polygon class="st14" points="-289.8,515.4 -311.6,507.5 -311.6,475.7 -289.8,483.1 "/>
<polygon class="st14" points="-285.8,515.4 -264,507.5 -264,475.7 -285.8,483.1 "/>
<polygon class="st14" points="-309.3,473.3 -287.3,467.1 -266.9,473.6 -287.3,480.5 "/>
<polygon class="st14" points="-315.8,470.8 -337.5,463 -337.5,431.1 -315.8,438.5 "/>
<polygon class="st14" points="-311.8,470.8 -290,463 -290,431.1 -311.8,438.5 "/>
<polygon class="st14" points="-335.2,428.8 -313.3,422.6 -292.8,429.1 -313.3,436 "/>
<polygon class="st14" points="-264.9,470.8 -286.7,463 -286.7,431.1 -264.9,438.5 "/>
<polygon class="st14" points="-260.9,470.8 -239.2,463 -239.2,431.1 -260.9,438.5 "/>
<polygon class="st14" points="-284.5,428.8 -262.5,422.6 -242,429.1 -262.5,436 "/>
<polygon class="st14" points="-239.1,426.3 -260.8,418.4 -260.8,386.6 -239.1,394 "/>
<polygon class="st14" points="-235.1,426.3 -213.3,418.4 -213.3,386.6 -235.1,394 "/>
<polygon class="st14" points="-258.5,384.2 -236.6,378 -216.1,384.5 -236.6,391.5 "/>
<polygon class="st14" points="-188.3,426.3 -210,418.4 -210,386.6 -188.3,394 "/>
<polygon class="st14" points="-184.3,426.3 -162.5,418.4 -162.5,386.6 -184.3,394 "/>
<polygon class="st14" points="-207.8,384.2 -185.8,378 -165.3,384.5 -185.8,391.5 "/>
<polygon class="st15" points="-203.1,493.8 -208.2,511.1 -213.4,493.8 -217.4,493.8 -222.1,510.8 -227.1,493.8 -232.6,493.8 
	-224.5,520.7 -220.2,520.7 -215.5,503.9 -210.5,520.7 -206,520.7 -198.4,493.8 "/>
<path class="st15" d="M-174.3,507.7c0-4.7-1.2-8.4-3.2-10.8c-2.1-2.5-5.3-3.8-8.6-3.7c-3.4-0.1-6.7,1.4-9,4
	c-4.7,6-4.7,14.3-0.1,20.4c2.2,2.6,5.5,4.1,9,4c2.6,0.1,5.1-0.7,7.2-2.2c2-1.4,3.5-3.4,4.1-5.8l0.3-0.7l-5-1l-0.3,0.6
	c-0.8,2.8-3.3,4.7-6.2,4.6c-1.7,0-3.3-0.7-4.6-1.8c-1.3-1.2-2.1-3.2-2.1-6.5h18.4V507.7z M-192.5,504c0.2-1.7,0.9-3.2,2.1-4.4
	c1.1-1.3,2.7-2,4.4-1.9c1.2-0.1,2.3,0.3,3.2,1c0.9,0.6,1.6,1.5,1.9,2.5c0.4,0.9,0.6,1.8,0.6,2.8L-192.5,504L-192.5,504z"/>
<path class="st15" d="M-158.4,493.1c-2.6-0.1-5.2,1.2-6.8,3.2v-11.5h-5.5v35.7h3.1l1-3.2c1.7,2.5,4.6,4,7.7,4
	c3.2,0.1,6.3-1.5,8.1-4.1c2.1-2.9,3.2-6.3,3.1-9.9c0-4.6-1-8.1-3.1-10.5C-152.6,494.4-155.4,493.1-158.4,493.1z M-153.1,507.7
	c0.1,2.4-0.5,4.8-1.8,6.8c-0.9,1.5-2.5,2.4-4.3,2.4c-1.5-0.1-2.9-0.6-4-1.6c-1.3-1.4-2.1-3.2-2.1-5.2v-5.6c0.1-1.8,0.9-3.5,2.2-4.7
	c1-1.1,2.5-1.8,4-1.8c1.8-0.1,3.5,0.9,4.3,2.5C-153.4,502.6-152.9,505.2-153.1,507.7z"/>
<path class="st15" d="M-124,504.6l-5-0.9c-3-0.6-3.4-1.9-3.4-2.8c0-0.9,0.5-1.7,1.2-2.2c1.1-0.6,2.3-0.9,3.5-0.9
	c2.5-0.2,4.8,1.2,5.8,3.5l0.3,0.6l5-1l-0.3-0.7c-1.3-4.6-5-6.9-10.9-6.9c-2.7-0.2-5.3,0.7-7.4,2.4c-1.8,1.4-2.8,3.6-2.8,5.9
	c0,1.9,0.7,3.8,2.1,5.2c1.5,1.4,3.3,2.2,5.3,2.5l5.3,1c3.7,0.7,3.7,2.5,3.7,3.1c0,1-0.5,2-1.3,2.5c-1.2,0.7-2.5,1-3.8,1
	c-4.1,0-6.5-1.3-7.2-4.3l-0.1-0.7l-5.3,1l0.3,0.7c1.5,5.2,5.5,7.8,11.8,7.8c2.9,0.2,5.8-0.7,8.1-2.4c2-1.4,3.2-3.7,3.2-6.2
	C-115.6,508.4-118.4,505.6-124,504.6z"/>
<path class="st15" d="M-90.4,507.7c0-4.7-1.2-8.4-3.2-10.8c-2.1-2.5-5.3-3.8-8.6-3.7c-3.4-0.1-6.7,1.4-9,4c-4.7,6-4.7,14.3-0.1,20.4
	c2.2,2.6,5.5,4.1,9,4c2.6,0.1,5.1-0.7,7.2-2.2c2-1.4,3.5-3.4,4.1-5.8l0.3-0.7l-5-1l-0.3,0.6c-0.8,2.8-3.3,4.7-6.2,4.6
	c-1.7,0-3.3-0.7-4.6-1.8c-1.3-1.2-2.1-3.2-2.1-6.5h18.4V507.7z M-108.7,504c0.2-1.7,0.9-3.2,2.1-4.4c1.1-1.3,2.7-2,4.4-1.9
	c1.2-0.1,2.3,0.3,3.2,1c0.9,0.6,1.6,1.5,1.9,2.5c0.4,0.9,0.6,1.8,0.6,2.8L-108.7,504L-108.7,504z"/>
<path class="st15" d="M-76.1,493.1c-1.5,0-2.9,0.5-4.1,1.3c-1.1,0.7-1.9,1.8-2.5,3v-3.5h-4.9v26.8h5.5v-14.2c0-2.1,0.7-4.2,2.1-5.9
	c1.2-1.4,3-2.2,4.9-2.2h1.5v-5.2h-0.7C-75,493.2-75.6,493.1-76.1,493.1z"/>
<polygon class="st15" points="-60.4,513 -66.9,493.8 -72.8,493.8 -63.2,520.7 -58.1,520.7 -48.8,493.8 -54,493.8 "/>
<rect x="-47.5" y="485" class="st15" width="5.8" height="5.9"/>
<rect x="-47.3" y="493.8" class="st15" width="5.5" height="26.8"/>
<path class="st15" d="M-22.7,510.9c-0.7,3.8-2.7,5.8-5.5,5.8c-1.8,0.1-3.4-0.8-4.3-2.4c-1.2-2.2-1.8-4.7-1.6-7.2
	c-0.1-2.4,0.5-4.7,1.6-6.8c0.9-1.5,2.6-2.4,4.4-2.4c3,0,4.7,1.9,5.3,5.6l0.1,0.7l5-0.9l-0.1-0.7c-0.3-2.6-1.5-4.9-3.2-6.8
	c-2-1.8-4.6-2.8-7.2-2.7c-3.4-0.1-6.5,1.4-8.6,4.1c-2.1,2.9-3.2,6.4-3.1,10c-0.1,3.5,0.9,7,3,9.9c1.9,2.8,5.2,4.3,8.6,4.1
	c2.5,0.1,5-0.8,6.9-2.5c1.9-1.8,3.2-4.3,3.5-6.9l0.1-0.7l-5-0.9V510.9L-22.7,510.9z"/>
<path class="st15" d="M8.7,507.7c0-4.7-1.2-8.4-3.2-10.8c-2.1-2.5-5.3-3.8-8.6-3.7c-3.4-0.1-6.7,1.4-9,4c-4.7,6-4.7,14.3-0.1,20.4
	c2.2,2.6,5.5,4.1,9,4c2.6,0.1,5.1-0.7,7.2-2.2c2-1.4,3.5-3.4,4.1-5.8l0.3-0.7l-5-1l-0.3,0.6c-0.8,2.8-3.3,4.7-6.2,4.6
	c-1.7,0-3.3-0.7-4.6-1.8c-1.3-1.2-2.1-3.2-2.1-6.5H8.7L8.7,507.7L8.7,507.7z M-9.4,504c0.2-1.7,0.9-3.2,2.1-4.4
	c1.1-1.3,2.7-2,4.4-1.9c1.2-0.1,2.3,0.3,3.2,1c0.9,0.6,1.6,1.5,1.9,2.5c0.4,0.9,0.6,1.8,0.6,2.8C2.8,504-9.4,504-9.4,504z"/>
<path class="st15" d="M24.4,504.6l-5-0.9c-3-0.6-3.4-1.9-3.4-2.8c0-0.9,0.5-1.7,1.2-2.2c1.1-0.6,2.3-0.9,3.5-0.9
	c2.5-0.2,4.8,1.2,5.8,3.5l0.3,0.6l5-1l-0.3-0.7c-1.3-4.6-5-6.9-10.9-6.9c-2.7-0.2-5.3,0.7-7.4,2.4c-1.8,1.4-2.8,3.6-2.8,5.9
	c0,1.9,0.7,3.8,2.1,5.2c1.5,1.4,3.3,2.2,5.3,2.5l5.3,1c3.7,0.7,3.7,2.5,3.7,3.1c0,1-0.5,2-1.3,2.5c-1.2,0.7-2.5,1-3.8,1
	c-4.1,0-6.5-1.3-7.2-4.3l-0.1-0.7l-5.3,1l0.3,0.7c1.5,5.2,5.5,7.8,11.8,7.8c2.9,0.2,5.8-0.7,8.1-2.4c2-1.4,3.2-3.7,3.2-6.2
	C32.8,508.4,30,505.6,24.4,504.6z"/>
<path class="st15" d="M-78.9,440.3v-6c0-0.8,0.7-1.5,1.5-1.5h27.3c0.8-0.1,1.5,0.5,1.6,1.3c0,0.1,0,0.1,0,0.2v5.2
	c0,0.9-0.7,2.1-2.1,3.8l-14.2,20.2c5.4-0.3,10.8,0.8,15.6,3.4c0.9,0.5,1.4,1.4,1.5,2.4v6.5c0,0.8-0.7,1.5-1.5,1.5
	c-0.2,0-0.4,0-0.6-0.1c-9.1-4.6-19.8-4.6-28.9,0c-0.8,0.2-1.6-0.2-1.9-1c-0.1-0.2-0.1-0.3-0.1-0.5v-6.2c-0.1-1.5,0.3-2.9,1-4.1
	l16.4-23.6h-14.3c-0.6,0.2-1.3-0.1-1.4-0.7C-78.9,440.7-78.9,440.5-78.9,440.3z"/>
<path class="st15" d="M-176.7,478.5h-8.3c-0.8,0-1.5-0.7-1.5-1.5v-42.6c0-0.8,0.7-1.5,1.5-1.5c0.1,0,0.1,0,0.2,0h7.8
	c0.8,0,1.5,0.7,1.5,1.5v5.6h0.1c2.1-5.5,5.8-8,10.9-8s8.4,2.5,10.8,8c1.7-4.9,6.3-8.1,11.5-8c3.8,0,7.3,1.7,9.6,4.7
	c2.7,3.5,2.1,8.9,2.1,13.4v27c0,0.8-0.7,1.5-1.5,1.5c-0.1,0-0.1,0-0.2,0h-8.3c-0.8,0-1.5-0.7-1.5-1.5v-22.6c0.1-2.7,0-5.3-0.3-8
	c-0.4-2.3-2.5-4-4.9-3.7c-2.2,0.1-4.2,1.5-5,3.5c-0.9,2.2-0.7,5.8-0.7,8.1v22.6c0,0.8-0.7,1.5-1.5,1.5c-0.1,0-0.1,0-0.2,0h-8.3
	c-0.8,0-1.5-0.7-1.5-1.5v-22.6c0-4.7,0.7-11.8-5.2-11.8c-5.9,0-5.8,6.8-5.8,11.8v22.6C-175.2,477.9-175.9,478.5-176.7,478.5z"/>
<path class="st15" d="M-28.3,431.9c12.2,0,18.9,10.6,18.9,24c0,13-7.4,23.3-18.9,23.3c-11.9,0-18.6-10.6-18.6-23.7
	S-40.2,431.9-28.3,431.9z M-28.3,441.8c-6,0-6.5,8.4-6.5,13.6s-0.1,15.2,6.3,15.2s6.6-7.8,6.6-13.4c0.1-3.8-0.3-7.6-1.2-11.4
	C-23.5,443.3-25.8,441.6-28.3,441.8z"/>
<path class="st15" d="M8.3,478.5H0c-0.8,0-1.5-0.7-1.5-1.5v-42.6c0.1-0.8,0.8-1.4,1.6-1.3c0,0,0,0,0,0h7.7c0.7,0,1.3,0.5,1.5,1.2
	v6.5h0.1c2.4-5.9,5.6-8.6,11.4-8.6c3.9-0.2,7.6,1.7,9.7,5c2.2,3.4,2.2,9.1,2.2,13.3v26.8c-0.1,0.8-0.8,1.3-1.6,1.3h-8.4
	c-0.7,0-1.4-0.6-1.5-1.3v-23.5c0-4.7,0.6-11.5-5.2-11.5c-2.1,0.1-4,1.4-4.9,3.4c-1,2.6-1.5,5.3-1.3,8.1v23
	C9.9,477.8,9.2,478.5,8.3,478.5z"/>
<path class="st15" d="M-84.8,470.4c-1.5-2.1-3.1-3.8-3.1-7.7v-13c0-5.5,0.3-10.5-3.7-14.3c-3.2-3.1-8.6-4.1-12.5-4.1
	c-8,0-16.7,3-18.6,12.7c-0.2,0.7,0.2,1.5,0.9,1.7c0.1,0,0.2,0,0.3,0.1l8.1,0.9c0.8-0.1,1.4-0.7,1.5-1.5c0.6-3.4,3.4-5,6.6-5
	c1.8-0.1,3.6,0.8,4.7,2.2c1.2,1.8,1,4.1,1,6v1c-4.9,0.6-11.1,1-15.6,3c-5.5,2.2-9.1,7.6-8.9,13.6c0,8.7,5.5,13,12.4,13
	c5.9,0,9.1-1.3,13.7-6c1.2,2.2,2.8,4.1,4.7,5.6c0.6,0.4,1.4,0.3,1.9-0.1c1.6-1.5,4.6-4.1,6.5-5.8C-84.2,472-84.2,471-84.8,470.4z
	 M-101.3,466.8c-1.1,2.2-3.3,3.7-5.8,3.8c-3.2,0-5-2.4-5-6c0-7.1,6.3-8.4,12.4-8.4v1.8C-99.7,461.2-99.5,463.9-101.3,466.8
	L-101.3,466.8z"/>
<path class="st15" d="M-192.9,470.4c-1.5-2.1-3.1-3.8-3.1-7.7v-13c0-5.5,0.3-10.5-3.7-14.3c-3.2-3.1-8.6-4.1-12.5-4.1
	c-8,0-16.7,3-18.6,12.7c-0.2,0.7,0.2,1.5,0.9,1.7c0.1,0,0.2,0,0.3,0.1l8.1,0.9c0.8-0.1,1.4-0.7,1.5-1.5c0.6-3.4,3.4-5,6.6-5
	c1.8-0.1,3.6,0.8,4.7,2.2c1.2,1.8,1,4.1,1,6v1c-4.9,0.6-11.1,1-15.6,3c-5.5,2.2-9.1,7.6-8.9,13.6c0,8.7,5.5,13,12.4,13
	c5.9,0,9.1-1.3,13.7-6c1.2,2.2,2.8,4.1,4.7,5.6c0.6,0.4,1.4,0.3,1.9-0.1c1.6-1.5,4.7-4.1,6.5-5.8C-192.3,472-192.3,471-192.9,470.4z
	 M-209.4,466.8c-1.1,2.2-3.3,3.7-5.8,3.8c-3.2,0-5-2.4-5-6c0-7.1,6.3-8.4,12.4-8.4v1.8C-207.8,461.2-207.7,463.9-209.4,466.8z"/>
</svg>
