<?xml version="1.0" encoding="utf-8"?>
<!-- Generator: Adobe Illustrator 19.2.1, SVG Export Plug-In . SVG Version: 6.00 Build 0)  -->
<svg version="1.1" id="Layer_1" xmlns="http://www.w3.org/2000/svg" xmlns:xlink="http://www.w3.org/1999/xlink" x="0px" y="0px"
	 viewBox="0 0 650 500" style="enable-background:new 0 0 650 500;" xml:space="preserve">
<style type="text/css">
	.st0{fill:none;stroke:#5D89FB;stroke-width:3;stroke-miterlimit:10;}
	.st1{display:none;}
	.st2{display:inline;fill:none;stroke:#BDBCBC;stroke-width:3;stroke-linecap:round;stroke-miterlimit:10;}
	.st3{fill:#616262;}
	.st4{fill:#5D89FB;}
	.st5{enable-background:new    ;}
	.st6{fill:#FFFFFF;}
	.st7{fill:none;stroke:#5D89FB;stroke-width:3;stroke-linecap:round;stroke-miterlimit:10;}
</style>
<title>illust_checks</title>
<circle class="st0" cx="156.2" cy="174.7" r="43.7"/>
<polyline class="st0" points="173.1,159.4 152.2,190 139.2,177 "/>
<circle class="st0" cx="156.2" cy="287.7" r="43.7"/>
<polyline class="st0" points="173.1,272.4 152.2,303.1 139.2,290 "/>
<circle class="st0" cx="156.2" cy="399.3" r="43.7"/>
<polyline class="st0" points="173.1,384 152.2,414.7 139.2,401.6 "/>
<g id="sparkles" class="st1">
	<line class="st2" x1="71" y1="-10.9" x2="71" y2="13.1"/>
	<line class="st2" x1="59" y1="1.1" x2="83" y2="1.1"/>
	<line class="st2" x1="63" y1="330.4" x2="63" y2="346.4"/>
	<line class="st2" x1="55" y1="338.4" x2="71" y2="338.4"/>
	<line class="st2" x1="573" y1="109.4" x2="573" y2="125.4"/>
	<line class="st2" x1="565" y1="117.4" x2="581" y2="117.4"/>
	<circle class="st2" cx="526" cy="258.9" r="7.7"/>
	<circle class="st2" cx="113" cy="366.7" r="7.7"/>
</g>
<path class="st3" d="M220.6,184.7c-0.2,0-0.4-0.2-0.5-0.4v-0.1v-22.8c-0.1-0.2,0.1-0.5,0.3-0.5c0.1,0,0.1,0,0.2,0h11.9
	c0.2,0,0.5,0.1,0.5,0.4c0,0.1,0,0.1,0,0.2v1.1c0,0.2-0.1,0.5-0.4,0.5c-0.1,0-0.1,0-0.2,0h-10v8.2h9.4c0.2-0.1,0.5,0.1,0.5,0.3
	c0,0.1,0,0.1,0,0.2v1c0.1,0.2-0.1,0.5-0.3,0.5c-0.1,0-0.1,0-0.2,0h-9.4v9.3H233c0.2,0,0.5,0.1,0.5,0.3v0.1v1.1
	c0,0.2-0.1,0.5-0.4,0.5c-0.1,0-0.1,0-0.2,0L220.6,184.7L220.6,184.7z"/>
<path class="st3" d="M240.5,184.2c0,0.2-0.1,0.5-0.3,0.5h-0.1h-1.4c-0.2,0-0.5-0.1-0.5-0.4c0-0.1,0-0.1,0-0.2v-23.4
	c0-0.2,0.1-0.5,0.4-0.5c0.1,0,0.1,0,0.2,0h1.4c0.2,0,0.5,0.1,0.5,0.4c0,0.1,0,0.1,0,0.2L240.5,184.2L240.5,184.2z"/>
<path class="st3" d="M245.8,171.6c0-2.6,1.6-4.4,6.3-4.4c4.7,0,6.3,1.8,6.3,4.4v12.6c0,0.2-0.1,0.5-0.3,0.5H258h-1.3
	c-0.3,0-0.5-0.1-0.5-0.4v-0.1l-0.1-1.2c-1.6,1.3-3.7,2.1-5.8,2.1c-3.3,0-4.8-1.9-4.8-4.1v-1.8c0-2.3,1.5-4.1,4.6-4.1h6V172
	c0-1.6-0.8-2.7-4-2.7s-4,1.1-4,2.6v0.4c0.1,0.2-0.1,0.5-0.3,0.6c-0.1,0-0.1,0-0.2,0h-1.3c-0.2,0-0.5-0.1-0.5-0.4c0-0.1,0-0.1,0-0.2
	V171.6L245.8,171.6z M256.1,181v-4.1h-5.6c-1.9,0-2.7,1-2.7,2.5v1.1c0,1.5,0.9,2.4,3,2.4C252.8,182.9,254.6,182.2,256.1,181z"/>
<path class="st3" d="M273.1,171.1c0-1.4-1.3-2.2-3.9-2.2s-3.8,0.8-3.8,2.2v0.9c0.1,1,0.8,1.7,1.8,1.9l5.4,1.8c1.8,0.6,3,1.7,3,3.3v2
	c0,2.1-1.9,4-6.4,4s-6.3-1.9-6.3-4v-0.9c0-0.2,0.1-0.5,0.4-0.5h0.1h1.3c0.2,0,0.4,0.1,0.5,0.3c0,0.1,0,0.1,0,0.2v0.9
	c0,1.4,1.4,2.2,4.1,2.2s4.1-0.8,4.1-2.2v-1.3c0-1-0.9-1.6-2.1-2l-5.4-1.8c-1.5-0.5-2.6-1.8-2.7-3.4v-1.4c0-2.1,1.6-4,6.1-4
	s6.1,1.9,6.1,4v1c0,0.2-0.1,0.4-0.3,0.5H275h-1.3c-0.2,0-0.4-0.1-0.5-0.3c0-0.1,0-0.1,0-0.2v-1H273.1z"/>
<path class="st3" d="M287.1,167.5c0.2,0,0.5,0.1,0.5,0.3v0.1v1c0,0.3-0.1,0.5-0.4,0.5h-0.1h-3.9V180c0,1.6,0.9,2.7,4.1,2.7h0.6
	c0.2,0,0.5,0.1,0.5,0.4c0,0.1,0,0.1,0,0.2v1c0,0.2-0.1,0.5-0.4,0.5c-0.1,0-0.1,0-0.2,0H287c-4.8,0-6.2-1.7-6.2-4.5v-10.7h-2.1
	c-0.2,0-0.5-0.1-0.5-0.4v-0.1v-0.8c0-0.2,0.1-0.5,0.4-0.5h0.1l1.8-0.1h0.3V164c0-0.3,0.1-0.5,0.4-0.5h0.1h1.4c0.2,0,0.5,0.1,0.5,0.4
	v0.1v3.7L287.1,167.5L287.1,167.5z"/>
<path class="st3" d="M294.6,164c0,0.2-0.1,0.5-0.3,0.5h-0.1h-1.4c-0.2,0-0.5-0.1-0.5-0.4c0-0.1,0-0.1,0-0.2v-3.2
	c0-0.2,0.1-0.5,0.4-0.5c0.1,0,0.1,0,0.2,0h1.4c0.2,0,0.5,0.1,0.5,0.4c0,0.1,0,0.1,0,0.2v3.2H294.6z M294.6,184.2
	c0,0.2-0.1,0.5-0.3,0.5h-0.1h-1.4c-0.2,0-0.5-0.1-0.5-0.4c0-0.1,0-0.1,0-0.2V168c0-0.2,0.1-0.5,0.4-0.5c0.1,0,0.1,0,0.2,0h1.4
	c0.2,0,0.5,0.1,0.5,0.4c0,0.1,0,0.1,0,0.2v16.1H294.6z"/>
<path class="st3" d="M312.5,171.6v0.7c0,0.2-0.1,0.5-0.4,0.5c-0.1,0-0.1,0-0.2,0h-1.3c-0.2,0-0.5-0.1-0.5-0.4c0-0.1,0-0.1,0-0.2
	v-0.5c0-1.6-0.9-2.7-4-2.7s-4,1.1-4,2.7v8.5c0,1.6,0.9,2.7,4,2.7s4-1,4-2.7v-0.8c0-0.2,0.1-0.5,0.3-0.5c0.1,0,0.1,0,0.2,0h1.3
	c0.2,0,0.5,0.1,0.5,0.3c0,0.1,0,0.1,0,0.2v0.9c0,2.7-1.6,4.5-6.4,4.5s-6.3-1.8-6.3-4.5v-8.8c0-2.7,1.6-4.5,6.4-4.5
	S312.5,169,312.5,171.6z"/>
<path class="st3" d="M327.7,182.6h9.8c0.2,0,0.4,0.1,0.5,0.3c0,0.1,0,0.1,0,0.2v1.1c0.1,0.2-0.1,0.5-0.3,0.5c-0.1,0-0.1,0-0.2,0
	h-11.9c-0.2,0-0.4-0.2-0.4-0.4v-0.1v-22.8c-0.1-0.2,0.1-0.5,0.3-0.5c0.1,0,0.1,0,0.2,0h1.5c0.2,0,0.5,0.1,0.5,0.4c0,0.1,0,0.1,0,0.2
	V182.6L327.7,182.6z"/>
<path class="st3" d="M341.3,171.6c0-2.7,1.8-4.5,6.6-4.5s6.6,1.8,6.6,4.5v8.8c0,2.7-1.8,4.5-6.6,4.5s-6.6-1.8-6.6-4.5V171.6z
	 M352.1,171.8c0-1.6-1.1-2.7-4.2-2.7s-4.2,1.1-4.2,2.7v8.5c0,1.6,1.1,2.7,4.2,2.7s4.2-1,4.2-2.7V171.8z"/>
<path class="st3" d="M359.4,171.6c0-2.6,1.6-4.4,6.3-4.4s6.3,1.8,6.3,4.4v12.6c0,0.2-0.1,0.5-0.3,0.5h-0.1h-1.3
	c-0.3,0-0.5-0.1-0.5-0.4v-0.1l-0.1-1.2c-1.6,1.3-3.7,2.1-5.8,2.1c-3.3,0-4.8-1.9-4.8-4.1v-1.8c0-2.3,1.5-4.1,4.5-4.1h6V172
	c0-1.6-0.8-2.7-4-2.7s-4,1.1-4,2.6v0.4c0.1,0.2-0.1,0.5-0.3,0.6c-0.1,0-0.1,0-0.2,0h-1.3c-0.2,0-0.5-0.1-0.5-0.4c0-0.1,0-0.1,0-0.2
	L359.4,171.6L359.4,171.6z M369.6,181v-4.1H364c-1.9,0-2.7,1-2.7,2.5v1.1c0,1.5,1,2.4,3,2.4S368.1,182.2,369.6,181z"/>
<path class="st3" d="M387.7,182.9c-1.7,1.4-3.8,2.1-6,2.1c-3.4,0-4.9-1.8-4.9-4.5v-8.9c0-2.7,1.5-4.5,4.9-4.5c2.1,0,4.2,0.7,5.9,2.1
	v-8.4c-0.1-0.2,0.1-0.5,0.3-0.5c0.1,0,0.1,0,0.2,0h1.4c0.2,0,0.5,0.1,0.5,0.4c0,0.1,0,0.1,0,0.2v23.4c0,0.2-0.1,0.5-0.4,0.5
	c-0.1,0-0.1,0-0.2,0h-1.3c-0.3,0-0.5-0.1-0.5-0.4v-0.1L387.7,182.9z M379.3,180.1c0,1.4,0.8,2.6,3.1,2.6c1.9-0.1,3.8-0.8,5.3-2v-9.5
	c-1.5-1.2-3.4-1.9-5.3-2c-2.2,0-3.1,1.2-3.1,2.6V180.1L379.3,180.1z"/>
<path class="st3" d="M404.4,184.7c-0.2,0-0.5-0.1-0.5-0.4v-0.1v-22.8c-0.1-0.2,0.1-0.5,0.3-0.5c0.1,0,0.1,0,0.2,0h6
	c5.8,0,7.6,2.1,7.6,4.9v2.3c0.1,2-1.2,3.7-3.1,4.1c2.8,0.6,4.1,2.2,4.1,4.3v3.1c0,2.8-1.8,5-7.6,5L404.4,184.7L404.4,184.7z
	 M406.4,163v8.5h4.4c3.4,0,4.8-1.4,4.8-3.4v-1.9c0-2.1-1.4-3.2-5.1-3.2L406.4,163L406.4,163z M406.4,173.4v9.2h5
	c3.8,0,5.1-1.3,5.1-3.4v-2.6c0-1.9-1.4-3.3-5.1-3.3L406.4,173.4L406.4,173.4z"/>
<path class="st3" d="M423.6,171.6c0-2.6,1.6-4.4,6.3-4.4s6.3,1.8,6.3,4.4v12.6c0,0.2-0.1,0.5-0.3,0.5h-0.1h-1.3
	c-0.3,0-0.5-0.1-0.5-0.4v-0.1l-0.1-1.2c-1.6,1.3-3.7,2.1-5.8,2.1c-3.3,0-4.8-1.9-4.8-4.1v-1.8c0-2.3,1.5-4.1,4.5-4.1h6V172
	c0-1.6-0.8-2.7-4-2.7s-4,1.1-4,2.6v0.4c0.1,0.2-0.1,0.5-0.3,0.6c-0.1,0-0.1,0-0.2,0H424c-0.2,0-0.5-0.1-0.5-0.4c0-0.1,0-0.1,0-0.2
	L423.6,171.6L423.6,171.6z M433.8,181v-4.1h-5.6c-1.9,0-2.7,1-2.7,2.5v1.1c0,1.5,1,2.4,3,2.4C430.5,182.9,432.3,182.2,433.8,181z"/>
<path class="st3" d="M443.9,184.2c0,0.2-0.1,0.5-0.3,0.5h-0.1H442c-0.2,0-0.5-0.1-0.5-0.4c0-0.1,0-0.1,0-0.2v-23.4
	c0-0.2,0.1-0.5,0.4-0.5c0.1,0,0.1,0,0.2,0h1.4c0.2,0,0.5,0.1,0.5,0.4c0,0.1,0,0.1,0,0.2L443.9,184.2L443.9,184.2z"/>
<path class="st3" d="M449.3,171.6c0-2.6,1.6-4.4,6.3-4.4s6.3,1.8,6.3,4.4v12.6c0,0.2-0.1,0.5-0.3,0.5h-0.1h-1.3
	c-0.3,0-0.5-0.1-0.5-0.4v-0.1l-0.1-1.2c-1.6,1.3-3.7,2.1-5.8,2.1c-3.3,0-4.8-1.9-4.8-4.1v-1.8c0-2.3,1.5-4.1,4.5-4.1h6V172
	c0-1.6-0.8-2.7-4-2.7s-4,1.1-4,2.6v0.4c0.1,0.2-0.1,0.5-0.3,0.6c-0.1,0-0.1,0-0.2,0h-1.3c-0.2,0-0.5-0.1-0.5-0.4c0-0.1,0-0.1,0-0.2
	L449.3,171.6L449.3,171.6z M459.5,181v-4.1h-5.6c-1.9,0-2.7,1-2.7,2.5v1.1c0,1.5,1,2.4,3,2.4C456.2,182.9,458,182.2,459.5,181z"/>
<path class="st3" d="M469.5,168l0.1,1.3c1.7-1.4,3.8-2.2,6-2.1c3.3,0,4.8,1.8,4.8,4.3v12.7c0,0.2-0.1,0.5-0.3,0.5H480h-1.4
	c-0.3,0-0.5-0.1-0.5-0.4v-0.1V172c0-1.6-0.8-2.7-3.1-2.7c-1.9,0.1-3.8,0.8-5.3,2v12.9c0,0.2-0.1,0.5-0.3,0.5h-0.1h-1.4
	c-0.2,0-0.5-0.1-0.5-0.4c0-0.1,0-0.1,0-0.2V168c0-0.2,0.1-0.5,0.4-0.5c0.1,0,0.1,0,0.2,0h1.3c0.3,0,0.5,0.2,0.5,0.4
	C469.5,167.9,469.5,167.9,469.5,168z"/>
<path class="st3" d="M498,171.6v0.7c0,0.2-0.1,0.5-0.4,0.5c-0.1,0-0.1,0-0.2,0h-1.3c-0.2,0-0.5-0.1-0.5-0.4c0-0.1,0-0.1,0-0.2v-0.5
	c0-1.6-0.9-2.7-4-2.7s-4,1.1-4,2.7v8.5c0,1.6,0.9,2.7,4,2.7s4-1,4-2.7v-0.8c-0.1-0.2,0.1-0.5,0.3-0.5c0.1,0,0.1,0,0.2,0h1.3
	c0.2-0.1,0.5,0.1,0.5,0.3c0,0.1,0,0.1,0,0.2v0.9c0,2.7-1.6,4.5-6.4,4.5s-6.3-1.8-6.3-4.5v-8.8c0-2.7,1.6-4.5,6.4-4.5
	S498,169,498,171.6z"/>
<path class="st3" d="M514.8,176c0,0.2-0.1,0.5-0.4,0.5h-0.1h-9.9v3.9c0,1.6,0.8,2.7,4.1,2.7s4.1-1.1,4.1-2.7v-0.6
	c0-0.2,0.1-0.4,0.3-0.5c0.1,0,0.1,0,0.2,0h1.3c0.2,0,0.5,0.1,0.5,0.3v0.1v0.7c0,2.7-1.6,4.5-6.4,4.5s-6.4-1.8-6.4-4.5v-8.8
	c0-2.7,1.6-4.5,6.4-4.5c4.8,0,6.3,1.8,6.3,4.5V176L514.8,176z M504.4,174.6h8.1v-2.8c0-1.6-1-2.7-4.1-2.7s-4.1,1.1-4.1,2.7
	L504.4,174.6L504.4,174.6z"/>
<path class="st3" d="M528.4,167.6v1.2c0,0.3-0.2,0.5-0.5,0.5h-0.1c-2.1,0.2-4.1,1-5.7,2.4v12.5c0,0.2-0.1,0.5-0.3,0.5h-0.1h-1.4
	c-0.2,0-0.5-0.1-0.5-0.4c0-0.1,0-0.1,0-0.2V168c0-0.2,0.1-0.5,0.4-0.5c0.1,0,0.1,0,0.2,0h1.3c0.3,0,0.5,0.1,0.5,0.4v0.1l0.1,1.7
	c1.5-1.5,3.6-2.4,5.7-2.5C528.1,167.1,528.3,167.3,528.4,167.6L528.4,167.6z"/>
<path class="st3" d="M227,281.1c-3.7,0-4.8,1.3-4.8,3.3v1c0,1.3,0.8,2.4,2,2.7l6.6,2.5c1.9,0.7,3.6,2.1,3.6,4.5v3
	c0,2.8-1.8,5.1-7.5,5.1s-7.5-2.3-7.5-5.1v-1.9c-0.1-0.2,0.1-0.5,0.3-0.5c0.1,0,0.1,0,0.2,0h1.4c0.2,0,0.5,0.1,0.5,0.4
	c0,0.1,0,0.1,0,0.2v1.7c0,2,1.3,3.3,5,3.3s5.2-1.3,5.2-3.3v-2.2c0-1.8-1.5-2.6-2.9-3.1l-6.3-2.4c-1.8-0.7-3-2.3-3-4.2v-2
	c0-2.8,1.6-5.1,7.2-5.1s7.3,2.3,7.3,5.1v1.6c0,0.2-0.1,0.5-0.4,0.5c-0.1,0-0.1,0-0.2,0h-1.4c-0.2,0-0.5-0.1-0.5-0.4v-0.1v-1.3
	C231.8,282.4,230.7,281.1,227,281.1z"/>
<path class="st3" d="M251.9,294.3c0,0.2-0.1,0.5-0.4,0.5h-0.1h-9.9v3.9c0,1.6,0.8,2.7,4.1,2.7s4.1-1.1,4.1-2.7v-0.6
	c0-0.2,0.1-0.4,0.3-0.5c0.1,0,0.1,0,0.2,0h1.3c0.2-0.1,0.5,0.1,0.5,0.3c0,0.1,0,0.1,0,0.2v0.7c0,2.7-1.6,4.5-6.4,4.5
	s-6.4-1.8-6.4-4.5V290c0-2.7,1.6-4.5,6.4-4.5s6.3,1.8,6.3,4.5L251.9,294.3L251.9,294.3z M241.5,293h8.1v-2.8c0-1.6-1-2.7-4.1-2.7
	s-4.1,1.1-4.1,2.7v2.8H241.5z"/>
<path class="st3" d="M269.1,290v0.7c0,0.2-0.1,0.5-0.4,0.5c-0.1,0-0.1,0-0.2,0h-1.3c-0.2,0-0.5-0.1-0.5-0.4c0-0.1,0-0.1,0-0.2v-0.5
	c0-1.6-0.9-2.7-4-2.7s-4,1-4,2.7v8.5c0,1.6,0.9,2.7,4,2.7s4-1,4-2.7v-0.8c0-0.2,0.1-0.5,0.3-0.5c0.1,0,0.1,0,0.2,0h1.3
	c0.2,0,0.5,0.1,0.5,0.3c0,0.1,0,0.1,0,0.2v1c0,2.7-1.6,4.5-6.4,4.5s-6.3-1.8-6.3-4.5V290c0-2.7,1.6-4.5,6.4-4.5
	S269.1,287.3,269.1,290z"/>
<path class="st3" d="M283.9,301.3c-1.6,1.4-3.6,2.1-5.7,2.1c-3.3,0-4.9-1.8-4.9-4.3v-12.8c-0.1-0.2,0.1-0.5,0.3-0.5
	c0.1,0,0.1,0,0.2,0h1.4c0.2,0,0.5,0.1,0.5,0.4c0,0.1,0,0.1,0,0.2v12.2c0,1.6,0.9,2.7,3.1,2.7c1.8,0,3.6-0.7,5-1.9v-13
	c-0.1-0.2,0.1-0.5,0.3-0.5c0.1,0,0.1,0,0.2,0h1.4c0.2,0,0.5,0.1,0.5,0.4c0,0.1,0,0.1,0,0.2v16.2c0.1,0.2-0.1,0.5-0.3,0.5
	c-0.1,0-0.1,0-0.2,0h-1.3c-0.2,0-0.5-0.1-0.5-0.4c0-0.1,0-0.1,0-0.2V301.3z"/>
<path class="st3" d="M300.5,286v1.2c0,0.3-0.2,0.5-0.5,0.5h-0.1c-2.1,0.2-4.1,1-5.7,2.4v12.5c0,0.2-0.1,0.5-0.3,0.5h-0.1h-1.4
	c-0.2,0-0.5-0.1-0.5-0.4c0-0.1,0-0.1,0-0.2v-16.2c0-0.2,0.1-0.5,0.4-0.5c0.1,0,0.1,0,0.2,0h1.3c0.3,0,0.5,0.1,0.5,0.4
	c0,0.1,0,0.1,0,0.2l0.1,1.7c1.5-1.5,3.6-2.4,5.7-2.5c0.3,0,0.5,0.1,0.6,0.4C300.5,285.9,300.5,286,300.5,286z"/>
<path class="st3" d="M306.3,282.4c0,0.2-0.1,0.5-0.3,0.5h-0.1h-1.4c-0.2,0-0.5-0.1-0.5-0.4c0-0.1,0-0.1,0-0.2V279
	c0-0.2,0.1-0.5,0.4-0.5c0.1,0,0.1,0,0.2,0h1.4c0.2,0,0.5,0.1,0.5,0.4c0,0.1,0,0.1,0,0.2v3.3H306.3z M306.3,302.5
	c0,0.2-0.1,0.5-0.3,0.5h-0.1h-1.4c-0.2,0-0.5-0.1-0.5-0.4c0-0.1,0-0.1,0-0.2v-16.2c0-0.2,0.1-0.5,0.4-0.5c0.1,0,0.1,0,0.2,0h1.4
	c0.2,0,0.5,0.1,0.5,0.4c0,0.1,0,0.1,0,0.2v16.2H306.3z"/>
<path class="st3" d="M319,285.9c0.2,0,0.5,0.1,0.5,0.3v0.1v1c0,0.3-0.1,0.5-0.4,0.5H319h-3.9v10.5c0,1.6,0.9,2.7,4.1,2.7h0.6
	c0.2,0,0.5,0.1,0.5,0.4c0,0.1,0,0.1,0,0.2v1c0,0.2-0.1,0.5-0.4,0.5c-0.1,0-0.1,0-0.2,0h-0.9c-4.8,0-6.2-1.7-6.2-4.5v-10.7h-2.1
	c-0.2,0-0.5-0.1-0.5-0.4v-0.1v-0.8c0-0.2,0.1-0.5,0.4-0.5h0.1l1.8-0.1h0.3v-3.7c0-0.3,0.1-0.5,0.4-0.5h0.1h1.4
	c0.2,0,0.5,0.1,0.5,0.4v0.1v3.7L319,285.9L319,285.9z"/>
<path class="st3" d="M328.3,298c0.2,0.7,0.4,1.4,0.5,2.1c0-0.1,0.3-1.3,0.6-2l4-11.7c0-0.3,0.3-0.5,0.6-0.5h1.3
	c0.4,0,0.6,0.2,0.5,0.5l-8,23.5c0,0.3-0.3,0.5-0.6,0.5h-1.1c-0.2,0-0.4-0.1-0.4-0.3c0-0.1,0-0.2,0-0.2l2.1-6.6l-5.9-16.9
	c-0.1-0.2,0-0.4,0.2-0.5c0.1,0,0.1,0,0.2,0h1.4c0.3,0,0.6,0.2,0.6,0.5L328.3,298z"/>
<path class="st3" d="M346.6,298.9V290c0-2.7,1.5-4.5,4.9-4.5c2.2,0,4.3,0.7,6,2.1l0.1-1.3c0-0.3,0.1-0.5,0.4-0.5h0.1h1.3
	c0.2,0,0.5,0.1,0.5,0.4c0,0.1,0,0.1,0,0.2v19.5c0,2.7-1.8,4.5-6.5,4.5h-4.8c-0.2,0.1-0.5-0.1-0.5-0.3c0-0.1,0-0.1,0-0.2v-1
	c0-0.2,0.1-0.5,0.4-0.5c0.1,0,0.1,0,0.2,0h4.8c3.1,0,4.1-1.1,4.1-2.7v-4.2c-1.7,1.3-3.8,2-5.9,2
	C348.1,303.4,346.6,301.5,346.6,298.9z M349,298.5c0,1.4,0.8,2.6,3.1,2.6c1.9-0.1,3.8-0.8,5.3-2v-9.5c-1.5-1.2-3.4-1.9-5.3-2
	c-2.2,0-3.1,1.2-3.1,2.6V298.5L349,298.5z"/>
<path class="st3" d="M374,286v1.2c0,0.3-0.2,0.5-0.5,0.5h-0.1c-2.1,0.2-4.1,1-5.7,2.4v12.5c0,0.2-0.1,0.5-0.3,0.5h-0.1h-1.4
	c-0.2,0-0.5-0.1-0.5-0.4c0-0.1,0-0.1,0-0.2v-16.2c0-0.2,0.1-0.5,0.4-0.5c0.1,0,0.1,0,0.2,0h1.3c0.3,0,0.5,0.1,0.5,0.4v0.1l0.1,1.7
	c1.5-1.5,3.6-2.4,5.7-2.5c0.3,0,0.5,0.1,0.6,0.4C374,285.9,374,286,374,286z"/>
<path class="st3" d="M377,290c0-2.7,1.8-4.5,6.6-4.5s6.6,1.8,6.6,4.5v8.8c0,2.7-1.8,4.5-6.6,4.5s-6.6-1.8-6.6-4.5V290z M387.8,290.2
	c0-1.6-1.1-2.7-4.2-2.7s-4.2,1-4.2,2.7v8.5c0,1.6,1.1,2.7,4.2,2.7s4.2-1,4.2-2.7V290.2z"/>
<path class="st3" d="M405.8,301.3c-1.6,1.4-3.6,2.1-5.8,2.1c-3.3,0-4.9-1.8-4.9-4.3v-12.8c-0.1-0.2,0.1-0.5,0.3-0.5
	c0.1,0,0.1,0,0.2,0h1.4c0.2,0,0.5,0.1,0.5,0.4c0,0.1,0,0.1,0,0.2v12.2c0,1.6,0.9,2.7,3.1,2.7c1.8,0,3.6-0.7,5-1.9v-13
	c-0.1-0.2,0.1-0.5,0.3-0.5c0.1,0,0.1,0,0.2,0h1.4c0.2,0,0.5,0.1,0.5,0.4c0,0.1,0,0.1,0,0.2v16.2c0.1,0.2-0.1,0.5-0.3,0.5
	c-0.1,0-0.1,0-0.2,0h-1.3c-0.2,0-0.5-0.1-0.5-0.4c0-0.1,0-0.1,0-0.2L405.8,301.3z"/>
<path class="st3" d="M416,286.3l0.1,1.3c1.7-1.4,3.8-2.2,6-2.1c3.3,0,4.8,1.8,4.8,4.5v8.9c0,2.7-1.5,4.5-4.8,4.5c-2.2,0-4.3-0.7-6-2
	v8.5c0,0.2-0.1,0.4-0.3,0.5c-0.1,0-0.1,0-0.2,0h-1.4c-0.2,0.1-0.5-0.1-0.5-0.3c0-0.1,0-0.1,0-0.2v-23.5c0-0.2,0.1-0.5,0.4-0.5
	c0.1,0,0.1,0,0.2,0h1.3c0.2-0.1,0.5,0.1,0.6,0.3C416,286.2,416,286.2,416,286.3z M424.5,290.3c0-1.4-0.8-2.6-3.1-2.6
	c-1.9,0-3.8,0.8-5.3,2v9.5c1.5,1.2,3.4,1.9,5.3,2c2.3,0,3.1-1.2,3.1-2.6V290.3L424.5,290.3z"/>
<path class="st3" d="M222.6,405v9.2c0.1,0.2-0.1,0.5-0.3,0.5c-0.1,0-0.1,0-0.2,0h-1.5c-0.2,0-0.5-0.1-0.5-0.4c0-0.1,0-0.1,0-0.2
	v-22.7c-0.1-0.2,0.1-0.5,0.3-0.5h0.1h6.9c5.8,0,7.6,2.3,7.6,5.1v3.9c0,2.2-1.1,4.1-4.3,4.8l4.6,9.5c0.1,0.3-0.1,0.5-0.5,0.5h-1.5
	c-0.3,0-0.6-0.2-0.6-0.5l-4.3-9.2L222.6,405L222.6,405z M222.6,393v9.9h4.9c3.8,0,5.1-1.3,5.1-3.4v-3.1c0-2-1.4-3.4-5.1-3.4H222.6
	L222.6,393z"/>
<path class="st3" d="M241.3,414.7c-0.3,0-0.4-0.2-0.4-0.5v-22.8c-0.1-0.2,0.1-0.5,0.3-0.5h0.1h7.1c5.8,0,7.6,2.3,7.6,5.1v13.6
	c0,2.8-1.8,5.1-7.6,5.1L241.3,414.7L241.3,414.7z M243.3,393v19.5h5.1c3.8,0,5.1-1.3,5.1-3.4v-12.8c0-2-1.4-3.4-5.1-3.4L243.3,393
	L243.3,393z"/>
<path class="st3" d="M268.8,392.7c-3.7,0-4.8,1.3-4.8,3.3v1c0,1.3,0.8,2.4,2,2.7l6.6,2.5c1.9,0.7,3.6,2.1,3.6,4.5v3
	c0,2.8-1.8,5.1-7.5,5.1s-7.5-2.3-7.5-5.1V408c-0.1-0.2,0.1-0.5,0.3-0.5c0.1,0,0.1,0,0.2,0h1.4c0.2,0,0.5,0.1,0.5,0.4
	c0,0.1,0,0.1,0,0.2v1.6c0,2,1.3,3.3,5,3.3s5.1-1.3,5.1-3.3v-2.2c0-1.8-1.5-2.6-2.9-3.1l-6.3-2.4c-1.8-0.7-3-2.3-3-4.2v-2
	c0-2.8,1.6-5.1,7.2-5.1s7.3,2.3,7.3,5.1v1.6c0,0.2-0.1,0.5-0.4,0.5c-0.1,0-0.1,0-0.2,0H274c-0.2,0-0.5-0.1-0.5-0.4
	c0-0.1,0-0.1,0-0.2V396C273.6,394,272.4,392.7,268.8,392.7z"/>
<path class="st3" d="M289.9,414.7c-0.3,0-0.4-0.2-0.4-0.5v-22.8c-0.1-0.2,0.1-0.5,0.3-0.5h0.1h7c5.8,0,7.6,2.3,7.6,5.1v13.6
	c0,2.8-1.8,5.1-7.6,5.1L289.9,414.7L289.9,414.7z M292,393v19.5h5c3.8,0,5.1-1.3,5.1-3.4v-12.8c0-2-1.4-3.4-5.1-3.4L292,393L292,393
	z"/>
<path class="st3" d="M309.9,401.5c0-2.6,1.6-4.5,6.3-4.5s6.3,1.8,6.3,4.5v12.6c0.1,0.2-0.1,0.5-0.3,0.5c-0.1,0-0.1,0-0.2,0h-1.3
	c-0.3,0-0.5-0.1-0.5-0.4c0-0.1,0-0.1,0-0.2l-0.1-1.3c-1.6,1.3-3.7,2.1-5.8,2.1c-3.2,0-4.8-1.9-4.8-4.1v-1.8c0-2.3,1.5-4.1,4.5-4.1h6
	v-3.1c0-1.6-0.8-2.7-4-2.7s-4,1-4,2.6v0.4c0.1,0.2-0.1,0.5-0.3,0.6c-0.1,0-0.1,0-0.2,0h-1.3c-0.2,0-0.5-0.1-0.5-0.4
	c0-0.1,0-0.1,0-0.2L309.9,401.5L309.9,401.5z M320.1,411v-4.1h-5.6c-1.9,0-2.7,1-2.7,2.5v1.1c0,1.5,0.9,2.4,3,2.4
	C316.8,412.9,318.7,412.2,320.1,411z"/>
<path class="st3" d="M335,397.5c0.2-0.1,0.5,0.1,0.5,0.3c0,0.1,0,0.1,0,0.2v1c0,0.3-0.1,0.5-0.4,0.5c-0.1,0-0.1,0-0.2,0h-4V410
	c0,1.6,1,2.7,4.1,2.7h0.6c0.2,0,0.5,0.1,0.5,0.4c0,0.1,0,0.1,0,0.2v1c0,0.2-0.1,0.5-0.4,0.5c-0.1,0-0.1,0-0.2,0h-0.9
	c-4.8,0-6.2-1.7-6.2-4.5v-10.8h-2.1c-0.2,0-0.4-0.2-0.4-0.4c0,0,0,0,0-0.1v-0.8c0-0.2,0.1-0.5,0.4-0.5h0.1l1.8-0.1h0.3v-3.7
	c0-0.3,0.1-0.5,0.4-0.5h0.1h1.4c0.2,0,0.5,0.1,0.5,0.4v0.1v3.7L335,397.5L335,397.5z"/>
<path class="st3" d="M339.7,401.5c0-2.6,1.6-4.5,6.3-4.5s6.3,1.8,6.3,4.5v12.6c0.1,0.2-0.1,0.5-0.3,0.5c-0.1,0-0.1,0-0.2,0h-1.3
	c-0.3,0-0.5-0.1-0.5-0.4v-0.1l-0.1-1.3c-1.6,1.3-3.7,2.1-5.8,2.1c-3.3,0-4.8-1.9-4.8-4.1V409c0-2.3,1.5-4.1,4.5-4.1h6v-3.1
	c0-1.6-0.8-2.7-4-2.7s-4,1-4,2.6v0.4c0.1,0.2-0.1,0.5-0.3,0.6c-0.1,0-0.1,0-0.2,0H340c-0.2,0-0.5-0.1-0.5-0.4c0-0.1,0-0.1,0-0.2
	L339.7,401.5L339.7,401.5z M350,411v-4.1h-5.6c-1.9,0-2.7,1-2.7,2.5v1.1c0,1.5,1,2.4,3,2.4C346.7,412.9,348.5,412.2,350,411z"/>
<path class="st3" d="M358.2,414.7c-0.2,0-0.5-0.1-0.5-0.4c0-0.1,0-0.1,0-0.2v-23.4c0-0.2,0.1-0.5,0.4-0.5c0.1,0,0.1,0,0.2,0h1.4
	c0.2,0,0.5,0.1,0.5,0.4c0,0.1,0,0.1,0,0.2v8.4c1.7-1.4,3.8-2.1,6-2.1c3.3,0,4.8,1.8,4.8,4.5v8.9c0,2.7-1.5,4.5-4.8,4.5
	c-2.2,0-4.3-0.7-6-2.1l-0.1,1.3c0,0.3-0.1,0.5-0.4,0.5h-0.1L358.2,414.7L358.2,414.7z M368.4,402c0-1.4-0.8-2.6-3.1-2.6
	c-1.9,0-3.8,0.8-5.3,2v9.5c1.5,1.2,3.4,1.9,5.3,2c2.3,0,3.1-1.2,3.1-2.6V402z"/>
<path class="st3" d="M375.8,401.5c0-2.6,1.6-4.5,6.3-4.5s6.3,1.8,6.3,4.5v12.6c0.1,0.2-0.1,0.5-0.3,0.5c-0.1,0-0.1,0-0.2,0h-1.3
	c-0.3,0-0.5-0.1-0.5-0.4v-0.1l-0.1-1.3c-1.6,1.3-3.7,2.1-5.8,2.1c-3.3,0-4.8-1.9-4.8-4.1V409c0-2.3,1.5-4.1,4.5-4.1h6v-3.1
	c0-1.6-0.8-2.7-4-2.7s-4,1-4,2.6v0.4c0.1,0.2-0.1,0.5-0.3,0.6c-0.1,0-0.1,0-0.2,0h-1.3c-0.2,0-0.5-0.1-0.5-0.4c0-0.1,0-0.1,0-0.2
	v-0.6H375.8z M386,411v-4.1h-5.6c-1.9,0-2.7,1-2.7,2.5v1.1c0,1.5,1,2.4,3,2.4C382.7,412.9,384.5,412.2,386,411z"/>
<path class="st3" d="M403.1,401.1c0-1.4-1.3-2.2-3.9-2.2s-3.8,0.8-3.8,2.2v0.9c0.1,1,0.8,1.7,1.8,1.9l5.4,1.8c1.8,0.6,3,1.7,3,3.3v2
	c0,2.1-1.9,4-6.4,4s-6.3-1.9-6.3-4v-0.9c0-0.2,0.1-0.5,0.4-0.5h0.1h1.3c0.2,0,0.4,0.1,0.5,0.3c0,0.1,0,0.1,0,0.2v0.8
	c0,1.4,1.4,2.2,4.1,2.2s4.1-0.8,4.1-2.2v-1.3c0-1-0.9-1.6-2.1-2l-5.4-1.8c-1.5-0.5-2.6-1.8-2.7-3.4V401c0-2.1,1.6-4,6.1-4
	s6.1,1.9,6.1,4v1c0,0.2-0.1,0.4-0.3,0.5H405h-1.3c-0.2,0-0.4-0.1-0.5-0.3c0-0.1,0-0.1,0-0.2L403.1,401.1L403.1,401.1z"/>
<path class="st3" d="M422.3,406c0,0.2-0.1,0.5-0.4,0.5h-0.1h-9.9v3.9c0,1.6,0.8,2.7,4.1,2.7s4.1-1.1,4.1-2.7v-0.6
	c0-0.2,0.1-0.4,0.3-0.5c0.1,0,0.1,0,0.2,0h1.3c0.2,0,0.5,0.1,0.5,0.3v0.1v0.7c0,2.7-1.6,4.5-6.4,4.5s-6.4-1.8-6.4-4.5v-8.8
	c0-2.7,1.6-4.5,6.4-4.5s6.3,1.8,6.3,4.5V406L422.3,406z M411.9,404.6h8.1v-2.8c0-1.6-1-2.7-4.1-2.7s-4.1,1.1-4.1,2.7v2.8H411.9z"/>
<g>
	<circle class="st4" cx="541" cy="269.2" r="33.5"/>
	<g class="st5">
		<path class="st6" d="M540.3,267.4c3.2,0,3.9-1,3.9-2.8v-1.6c0-1.7-0.8-2.8-3.8-2.8c-3,0-3.9,1.1-3.9,2.8v0.4
			c0,0.3-0.1,0.4-0.4,0.4h-1.2c-0.3,0-0.4-0.1-0.4-0.4v-0.7c0-2.4,1.2-4.3,6-4.3c4.7,0,5.9,1.9,5.9,4.3v2.2c0,1.7-0.5,2.8-2.6,3.3
			c2.2,0.5,2.8,1.8,2.8,3.5v3.3c0,2.4-1.3,4.3-6.1,4.3c-4.8,0-6.1-2-6.1-4.3v-0.7c0-0.3,0.1-0.4,0.4-0.4h1.2c0.3,0,0.4,0.1,0.4,0.4
			v0.4c0,1.7,1,2.8,4,2.8c3.1,0,4-1.1,4-2.8V272c0-1.8-0.8-2.8-3.9-2.8h-2.7c-0.3,0-0.5-0.1-0.5-0.4v-0.9c0-0.3,0.1-0.5,0.5-0.5
			H540.3z"/>
	</g>
	<path class="st7" d="M540.4,296.9c0,0,0,118,0,163.1c-0.5,0-0.7,0-0.7,0h-261v38"/>
</g>
</svg>
