<?xml version="1.0" encoding="utf-8"?>
<!-- Generator: Adobe Illustrator 19.1.0, SVG Export Plug-In . SVG Version: 6.00 Build 0)  -->
<svg version="1.1" id="Layer_1" xmlns="http://www.w3.org/2000/svg" xmlns:xlink="http://www.w3.org/1999/xlink" x="0px" y="0px"
	 viewBox="0 0 80 40" style="enable-background:new 0 0 80 40;" xml:space="preserve">
<style type="text/css">
	.st0{fill:#FFFFFF;}
</style>
<g>
	<path class="st0" d="M40,25c-6.2,6.2-12.6,13-22.5,13C7.3,38,0,30.4,0,20C0,10.4,7.8,2,18.5,2c9,0,15.7,7.2,21.5,13
		C46.2,8.8,52.6,2,62.5,2C72.8,2,80,9.5,80,20c0,9.6-7.8,18-18.5,18C52.5,38,45.8,30.8,40,25z M35.1,20c-4.7-4.4-9.7-10.7-16.8-10.7
		c-6.1,0-10.7,5-10.7,10.7c0,6.2,4.4,10.7,10.3,10.7C24.9,30.7,30.5,24.7,35.1,20z M72.3,20C72.3,13.8,68,9.3,62,9.3
		c-6.9,0-12.5,6-17.1,10.7c4.7,4.4,9.7,10.7,16.8,10.7C67.7,30.7,72.3,25.7,72.3,20z"/>
</g>
</svg>
