<?xml version="1.0" encoding="utf-8"?>
<!-- Generator: Adobe Illustrator 19.1.0, SVG Export Plug-In . SVG Version: 6.00 Build 0)  -->
<svg version="1.1" id="Layer_1" xmlns="http://www.w3.org/2000/svg" xmlns:xlink="http://www.w3.org/1999/xlink" x="0px" y="0px"
	 viewBox="0 1 80 80" style="enable-background:new 0 1 80 80;" xml:space="preserve">
<style type="text/css">
	.st0{fill:#FFFFFF;}
</style>
<g>
	<path class="st0" d="M40,46c-6.2,6.2-12.6,13-22.5,13C7.3,59,0,51.4,0,41c0-9.6,7.8-18,18.5-18c9,0,15.7,7.2,21.5,13
		c6.2-6.2,12.6-13,22.5-13C72.8,23,80,30.5,80,41c0,9.6-7.8,18-18.5,18C52.5,59,45.8,51.8,40,46z M35.1,41
		c-4.7-4.4-9.7-10.7-16.8-10.7c-6.1,0-10.7,5-10.7,10.7c0,6.2,4.4,10.7,10.3,10.7C24.9,51.7,30.5,45.7,35.1,41z M72.3,41
		c0-6.2-4.3-10.7-10.3-10.7c-6.9,0-12.5,6-17.1,10.7c4.7,4.4,9.7,10.7,16.8,10.7C67.7,51.7,72.3,46.7,72.3,41z"/>
</g>
</svg>
