<svg id="Layer_1" data-name="Layer 1" xmlns="http://www.w3.org/2000/svg" xmlns:xlink="http://www.w3.org/1999/xlink" viewBox="0 0 637.9 510.38"><defs><style>.cls-1,.cls-2,.cls-22,.cls-23,.cls-4{fill:none;}.cls-1{clip-rule:evenodd;}.cls-3{fill:#69a92c;}.cls-4{fill-rule:evenodd;}.cls-5{fill:#fffffe;}.cls-6{fill:#303030;}.cls-7{fill:#bdbdbd;}.cls-8{fill:#4e4e4e;}.cls-28,.cls-9{opacity:0.87;}.cls-9{font-size:22px;font-family:Tungsten;}.cls-10,.cls-12,.cls-14,.cls-17,.cls-27,.cls-28,.cls-29,.cls-9{fill:#fff;}.cls-10,.cls-12,.cls-29,.cls-36{opacity:0.56;}.cls-10,.cls-14{font-size:9.98px;}.cls-10,.cls-12,.cls-20,.cls-28,.cls-29{font-family:Gotham HTF Book;}.cls-11{letter-spacing:-1px;}.cls-12,.cls-20{font-size:8.74px;}.cls-13{fill:#7eb249;}.cls-14,.cls-27,.cls-36{font-family:Gotham HTF;}.cls-15{clip-path:url(#clip-path);}.cls-16{clip-path:url(#clip-path-2);}.cls-18{clip-path:url(#clip-path-3);}.cls-19{clip-path:url(#clip-path-4);}.cls-20{fill:#ccc;}.cls-21{clip-path:url(#clip-path-5);}.cls-22{stroke:#ddd;stroke-width:3.12px;}.cls-22,.cls-23{stroke-miterlimit:10;}.cls-23{stroke:#eaeaea;stroke-width:1.56px;}.cls-24{clip-path:url(#clip-path-7);}.cls-25{fill:#7dbcfa;}.cls-26{fill:#5d89fb;}.cls-27{font-size:36px;}.cls-28,.cls-29{font-size:10px;}.cls-30{clip-path:url(#clip-path-11);}.cls-31{clip-path:url(#clip-path-12);}.cls-32{clip-path:url(#clip-path-13);}.cls-33{clip-path:url(#clip-path-14);}.cls-34{clip-path:url(#clip-path-15);}.cls-35{clip-path:url(#clip-path-16);}.cls-36{font-size:12px;fill:#ff0;}</style><clipPath id="clip-path" transform="translate(-23 -20)"><polygon class="cls-1" points="175.44 363.51 174.56 364.38 177.42 367.25 174.56 370.11 175.44 370.99 179.18 367.25 175.44 363.51"/></clipPath><clipPath id="clip-path-2" transform="translate(-23 -20)"><rect class="cls-2" x="46.95" y="-84" width="234" height="476.21"/></clipPath><clipPath id="clip-path-3" transform="translate(-23 -20)"><rect class="cls-2" x="323.36" y="297.56" width="39.31" height="15.6"/></clipPath><clipPath id="clip-path-4" transform="translate(-23 -20)"><rect class="cls-2" x="226.95" y="98.82" width="234" height="356.21"/></clipPath><clipPath id="clip-path-5" transform="translate(-23 -20)"><path class="cls-1" d="M246.45,305.36a9.36,9.36,0,0,1,9.36-9.36H433a9.36,9.36,0,0,1,0,18.72H255.81A9.36,9.36,0,0,1,246.45,305.36Z"/></clipPath><clipPath id="clip-path-7" transform="translate(-23 -20)"><path class="cls-1" d="M250.19,305.2a5.62,5.62,0,0,1,5.62-5.62h110.6a5.62,5.62,0,1,1,0,11.23H255.81A5.62,5.62,0,0,1,250.19,305.2Z"/></clipPath><clipPath id="clip-path-11" transform="translate(-23 -20)"><circle class="cls-3" cx="429.43" cy="291.48" r="12.48"/></clipPath><clipPath id="clip-path-12" transform="translate(-23 -20)"><rect class="cls-3" x="406.97" y="174.17" width="234" height="356.21"/></clipPath><clipPath id="clip-path-13" transform="translate(-23 -20)"><circle class="cls-3" cx="429.43" cy="331.48" r="12.48"/></clipPath><clipPath id="clip-path-14" transform="translate(-23 -20)"><rect class="cls-3" x="406.97" y="169.24" width="234" height="356.21"/></clipPath><clipPath id="clip-path-15" transform="translate(-23 -20)"><circle class="cls-3" cx="429.43" cy="371.48" r="12.48"/></clipPath><clipPath id="clip-path-16" transform="translate(-23 -20)"><rect class="cls-3" x="406.97" y="164.31" width="234" height="356.21"/></clipPath></defs><title>install-steps2</title><path class="cls-5" d="M300.9,146.5a44.11,44.11,0,0,0-44-43.9h-1.5v-1.3a1.44,1.44,0,0,0-1.5-1.3H211.4a1.44,1.44,0,0,0-1.5,1.3v1.3H70a44.13,44.13,0,0,0-44,44v36.6H24.5a1.43,1.43,0,0,0-1.5,1.3v22.7a1.71,1.71,0,0,0,1.5,1.6H26v29.3H24.5a1.43,1.43,0,0,0-1.5,1.3v17.2a1.71,1.71,0,0,0,1.5,1.6H26v27.9H24.5a1.43,1.43,0,0,0-1.5,1.3v17.2a1.71,1.71,0,0,0,1.5,1.6H26V400H300.9V146.5Z" transform="translate(-23 -20)"/><rect class="cls-6" x="23.6" y="167.2" width="234.5" height="212.8"/><path class="cls-7" d="M186.1,147.3h-44a5.5,5.5,0,0,0,0,11h44a5.55,5.55,0,0,0,5.5-5.5A5.42,5.42,0,0,0,186.1,147.3Z" transform="translate(-23 -20)"/><circle class="cls-7" cx="140.4" cy="110.8" r="5.5"/><path class="cls-2" d="M256.9,104.6h-1.5a2,2,0,0,1-2-2V102H211.9v0.4a2,2,0,0,1-2,2H69.9a42.06,42.06,0,0,0-42,42V183a2,2,0,0,1-2,2H25v21.7h0.9a2,2,0,0,1,2,2V238a2,2,0,0,1-2,2H25v16.2h0.9a2,2,0,0,1,2,2v27.9a2,2,0,0,1-2,2H25v16.2h0.9a2,2,0,0,1,2,2V400h271V146.6A42.12,42.12,0,0,0,256.9,104.6Z" transform="translate(-23 -20)"/><path class="cls-7" d="M28,306.3a2,2,0,0,0-2-2H25.1V288.1H26a2,2,0,0,0,2-2V258.2a2,2,0,0,0-2-2H25.1V240H26a2,2,0,0,0,2-2V208.7a2,2,0,0,0-2-2H25.1V185H26a2,2,0,0,0,2-2V146.4a42.06,42.06,0,0,1,42-42H210a2,2,0,0,0,2-2V102h41.4v0.6a2,2,0,0,0,2,2h1.5a42.06,42.06,0,0,1,42,42V400h2V146.5a44.13,44.13,0,0,0-44-44h-1.5v-1.3A1.27,1.27,0,0,0,254,100H211.5a1.44,1.44,0,0,0-1.5,1.3v1.3H70a44.13,44.13,0,0,0-44,44v36.6H24.5a1.43,1.43,0,0,0-1.5,1.3v22.7a1.71,1.71,0,0,0,1.5,1.6H26v29.3H24.5a1.43,1.43,0,0,0-1.5,1.3v17.2a1.71,1.71,0,0,0,1.5,1.6H26v27.9H24.5a1.43,1.43,0,0,0-1.5,1.3v17.2a1.71,1.71,0,0,0,1.5,1.6H26V400h2V306.3Z" transform="translate(-23 -20)"/><rect class="cls-8" x="23.95" y="167" width="234" height="48"/><text class="cls-9" transform="translate(33.93 198.33)">A<tspan x="7.06" y="0">W</tspan><tspan x="18.55" y="0">S C</tspan><tspan x="36.41" y="0">r</tspan><tspan x="40.66" y="0">edentials</tspan></text><rect x="30.95" y="251.17" width="217.15" height="23.09"/><rect x="30.95" y="299.22" width="217.15" height="23.09"/><text class="cls-10" transform="translate(38.93 265.52)"><tspan class="cls-11">Y</tspan><tspan x="6.06" y="0">our </tspan><tspan x="25.7" y="0">A</tspan><tspan x="32.69" y="0">W</tspan><tspan x="43.55" y="0">S </tspan><tspan x="52.93" y="0">A</tspan><tspan x="60.57" y="0">cc</tspan><tspan x="71.69" y="0">e</tspan><tspan x="77.6" y="0">s</tspan><tspan x="82.49" y="0">s </tspan><tspan x="90.45" y="0">K</tspan><tspan x="97.34" y="0">e</tspan><tspan x="103.01" y="0">y ID</tspan></text><text class="cls-12" transform="translate(35.51 247.43)">A<tspan x="6.69" y="0">c</tspan><tspan x="11.55" y="0">c</tspan><tspan x="16.42" y="0">e</tspan><tspan x="21.59" y="0">s</tspan><tspan x="25.86" y="0">s </tspan><tspan x="32.83" y="0">K</tspan><tspan x="38.85" y="0">e</tspan><tspan x="43.8" y="0">y ID</tspan></text><text class="cls-10" transform="translate(38.93 313.57)"><tspan class="cls-11">Y</tspan><tspan x="6.06" y="0">our </tspan><tspan x="25.7" y="0">A</tspan><tspan x="32.69" y="0">W</tspan><tspan x="43.55" y="0">S Sec</tspan><tspan x="70.94" y="0">r</tspan><tspan x="74.77" y="0">et </tspan><tspan x="87.71" y="0">K</tspan><tspan x="94.6" y="0">e</tspan><tspan x="100.27" y="0">y</tspan></text><text class="cls-12" transform="translate(35.51 295.47)">Sec<tspan x="15.75" y="0">r</tspan><tspan x="19.1" y="0">et </tspan><tspan x="30.42" y="0">K</tspan><tspan x="36.45" y="0">e</tspan><tspan x="41.4" y="0">y</tspan></text><rect class="cls-13" x="33.93" y="337.27" width="214.03" height="19.97" rx="2.5" ry="2.5"/><text class="cls-14" transform="translate(115.09 350.68)">NEXT</text><g class="cls-15"><g class="cls-16"><rect class="cls-17" x="150" y="341.95" width="7.74" height="10.61"/></g></g><path class="cls-5" d="M480.9,146.5a44.11,44.11,0,0,0-44-43.9h-1.5v-1.3a1.44,1.44,0,0,0-1.5-1.3H391.4a1.44,1.44,0,0,0-1.5,1.3v1.3H250a44.13,44.13,0,0,0-44,44v36.6h-1.5a1.43,1.43,0,0,0-1.5,1.3v22.7a1.71,1.71,0,0,0,1.5,1.6H206v29.3h-1.5a1.43,1.43,0,0,0-1.5,1.3v17.2a1.71,1.71,0,0,0,1.5,1.6H206v27.9h-1.5a1.43,1.43,0,0,0-1.5,1.3v17.2a1.71,1.71,0,0,0,1.5,1.6H206V400H480.9V146.5Z" transform="translate(-23 -20)"/><rect class="cls-6" x="203.6" y="167.2" width="234.5" height="212.8"/><path class="cls-7" d="M366.1,147.3h-44a5.5,5.5,0,0,0,0,11h44a5.55,5.55,0,0,0,5.5-5.5A5.42,5.42,0,0,0,366.1,147.3Z" transform="translate(-23 -20)"/><circle class="cls-7" cx="320.4" cy="110.8" r="5.5"/><path class="cls-2" d="M436.9,104.6h-1.5a2,2,0,0,1-2-2V102H391.9v0.4a2,2,0,0,1-2,2h-140a42.06,42.06,0,0,0-42,42V183a2,2,0,0,1-2,2H205v21.7h0.9a2,2,0,0,1,2,2V238a2,2,0,0,1-2,2H205v16.2h0.9a2,2,0,0,1,2,2v27.9a2,2,0,0,1-2,2H205v16.2h0.9a2,2,0,0,1,2,2V400h271V146.6A42.12,42.12,0,0,0,436.9,104.6Z" transform="translate(-23 -20)"/><path class="cls-7" d="M208,306.3a2,2,0,0,0-2-2h-0.9V288.1H206a2,2,0,0,0,2-2V258.2a2,2,0,0,0-2-2h-0.9V240H206a2,2,0,0,0,2-2V208.7a2,2,0,0,0-2-2h-0.9V185H206a2,2,0,0,0,2-2V146.4a42.06,42.06,0,0,1,42-42H390a2,2,0,0,0,2-2V102h41.4v0.6a2,2,0,0,0,2,2h1.5a42.06,42.06,0,0,1,42,42V400h2V146.5a44.13,44.13,0,0,0-44-44h-1.5v-1.3A1.27,1.27,0,0,0,434,100H391.5a1.44,1.44,0,0,0-1.5,1.3v1.3H250a44.13,44.13,0,0,0-44,44v36.6h-1.5a1.43,1.43,0,0,0-1.5,1.3v22.7a1.71,1.71,0,0,0,1.5,1.6H206v29.3h-1.5a1.43,1.43,0,0,0-1.5,1.3v17.2a1.71,1.71,0,0,0,1.5,1.6H206v27.9h-1.5a1.43,1.43,0,0,0-1.5,1.3v17.2a1.71,1.71,0,0,0,1.5,1.6H206V400h2V306.3Z" transform="translate(-23 -20)"/><rect class="cls-8" x="203.95" y="167" width="234" height="48"/><text class="cls-9" transform="translate(213.93 198.33)">Add Our Instance</text><g class="cls-18"><g class="cls-19"><rect class="cls-6" x="298.8" y="276" width="42.43" height="18.72"/></g></g><text class="cls-20" transform="translate(260.5 312.82)">(5 of 8) Adding In<tspan x="77.67" y="0">s</tspan><tspan x="81.94" y="0">tan</tspan><tspan x="95.91" y="0">c</tspan><tspan x="100.77" y="0">e</tspan></text><g class="cls-21"><g class="cls-19"><path class="cls-22" d="M246.45,305.36a9.36,9.36,0,0,1,9.36-9.36H433a9.36,9.36,0,0,1,0,18.72H255.81A9.36,9.36,0,0,1,246.45,305.36Z" transform="translate(-23 -20)"/></g></g><line class="cls-23" x1="261.83" y1="297.53" x2="261.83" y2="294.41"/><line class="cls-23" x1="300.51" y1="297.53" x2="300.51" y2="294.41"/><line class="cls-23" x1="339.2" y1="297.53" x2="339.2" y2="294.41"/><line class="cls-23" x1="381.01" y1="297.53" x2="381.01" y2="294.41"/><g class="cls-24"><g class="cls-19"><rect class="cls-25" x="225.63" y="278.03" width="124.96" height="14.35"/></g></g><g class="cls-21"><g class="cls-19"><path class="cls-22" d="M246.45,305.36a9.36,9.36,0,0,1,9.36-9.36H433a9.36,9.36,0,0,1,0,18.72H255.81A9.36,9.36,0,0,1,246.45,305.36Z" transform="translate(-23 -20)"/></g></g><circle class="cls-26" cx="138.95" cy="30" r="30"/><text class="cls-27" transform="translate(131.82 42.28)">1</text><circle class="cls-26" cx="318.95" cy="30" r="30"/><text class="cls-27" transform="translate(307.92 42.28)">2</text><circle class="cls-26" cx="498.95" cy="30" r="30"/><text class="cls-27" transform="translate(487.83 42.28)">3</text><text x="-23" y="-20"/><path class="cls-5" d="M660.9,146.5a44.11,44.11,0,0,0-44-43.9h-1.5v-1.3a1.44,1.44,0,0,0-1.5-1.3H571.4a1.44,1.44,0,0,0-1.5,1.3v1.3H430a44.13,44.13,0,0,0-44,44v36.6h-1.5a1.43,1.43,0,0,0-1.5,1.3v22.7a1.71,1.71,0,0,0,1.5,1.6H386v29.3h-1.5a1.43,1.43,0,0,0-1.5,1.3v17.2a1.71,1.71,0,0,0,1.5,1.6H386v27.9h-1.5a1.43,1.43,0,0,0-1.5,1.3v17.2a1.71,1.71,0,0,0,1.5,1.6H386V400H660.9V146.5Z" transform="translate(-23 -20)"/><rect class="cls-6" x="383.6" y="167.2" width="234.5" height="212.8"/><path class="cls-7" d="M546.1,147.3h-44a5.5,5.5,0,0,0,0,11h44a5.55,5.55,0,0,0,5.5-5.5A5.42,5.42,0,0,0,546.1,147.3Z" transform="translate(-23 -20)"/><circle class="cls-7" cx="500.4" cy="110.8" r="5.5"/><path class="cls-2" d="M616.9,104.6h-1.5a2,2,0,0,1-2-2V102H571.9v0.4a2,2,0,0,1-2,2h-140a42.06,42.06,0,0,0-42,42V183a2,2,0,0,1-2,2H385v21.7h0.9a2,2,0,0,1,2,2V238a2,2,0,0,1-2,2H385v16.2h0.9a2,2,0,0,1,2,2v27.9a2,2,0,0,1-2,2H385v16.2h0.9a2,2,0,0,1,2,2V400h271V146.6A42.12,42.12,0,0,0,616.9,104.6Z" transform="translate(-23 -20)"/><path class="cls-7" d="M388,306.3a2,2,0,0,0-2-2h-0.9V288.1H386a2,2,0,0,0,2-2V258.2a2,2,0,0,0-2-2h-0.9V240H386a2,2,0,0,0,2-2V208.7a2,2,0,0,0-2-2h-0.9V185H386a2,2,0,0,0,2-2V146.4a42.06,42.06,0,0,1,42-42H570a2,2,0,0,0,2-2V102h41.4v0.6a2,2,0,0,0,2,2h1.5a42.06,42.06,0,0,1,42,42V400h2V146.5a44.13,44.13,0,0,0-44-44h-1.5v-1.3A1.27,1.27,0,0,0,614,100H571.5a1.44,1.44,0,0,0-1.5,1.3v1.3H430a44.13,44.13,0,0,0-44,44v36.6h-1.5a1.43,1.43,0,0,0-1.5,1.3v22.7a1.71,1.71,0,0,0,1.5,1.6H386v29.3h-1.5a1.43,1.43,0,0,0-1.5,1.3v17.2a1.71,1.71,0,0,0,1.5,1.6H386v27.9h-1.5a1.43,1.43,0,0,0-1.5,1.3v17.2a1.71,1.71,0,0,0,1.5,1.6H386V400h2V306.3Z" transform="translate(-23 -20)"/><rect class="cls-8" x="383.95" y="167" width="234" height="48"/><rect class="cls-2" x="383.95" y="167" width="234" height="44.93"/><text class="cls-9" transform="translate(393.93 198.33)">Y<tspan x="6.29" y="0">our Chec</tspan><tspan x="56.78" y="0">k</tspan><tspan x="62.94" y="0">s</tspan></text><text class="cls-28" transform="translate(428.95 268.49)">HTTP (ELB)</text><text class="cls-29" transform="translate(428.95 280.49)">12 of 12 pa<tspan x="50.7" y="0">s</tspan><tspan x="55.59" y="0">sing</tspan></text><text class="cls-28" transform="translate(428.95 308.49)">HTTPS (Security G<tspan x="92.64" y="0">r</tspan><tspan x="96.47" y="0">ou</tspan><tspan x="109.09" y="0">p</tspan><tspan x="115.44" y="0">)</tspan></text><text class="cls-29" transform="translate(428.95 320.49)">5 of 5 pa<tspan x="43.8" y="0">s</tspan><tspan x="48.69" y="0">sing</tspan></text><text class="cls-28" transform="translate(428.95 348.49)">SQL (R<tspan x="35.66" y="0">D</tspan><tspan x="43.38" y="0">S DB)</tspan></text><text class="cls-29" transform="translate(428.95 360.49)">3 of 3 pa<tspan x="43.82" y="0">s</tspan><tspan x="48.71" y="0">sing</tspan></text><circle class="cls-3" cx="406.43" cy="271.48" r="12.48"/><g class="cls-30"><rect class="cls-3" x="383.97" y="154.17" width="234" height="356.21"/><g class="cls-31"><circle class="cls-3" cx="406.43" cy="271.48" r="12.48"/></g></g><path class="cls-2" d="M420.43,282.48h18v18h-18v-18Z" transform="translate(-23 -20)"/><path class="cls-6" d="M427.18,294.61l-3.13-3.13L423,292.54l4.19,4.19,9-9-1.06-1.06Z" transform="translate(-23 -20)"/><circle class="cls-3" cx="406.43" cy="311.48" r="12.48"/><g class="cls-32"><rect class="cls-3" x="383.97" y="149.24" width="234" height="356.21"/><g class="cls-33"><circle class="cls-3" cx="406.43" cy="311.48" r="12.48"/></g></g><circle class="cls-3" cx="406.43" cy="351.48" r="12.48"/><g class="cls-34"><rect class="cls-3" x="383.97" y="144.31" width="234" height="356.21"/><g class="cls-35"><circle class="cls-3" cx="406.43" cy="351.48" r="12.48"/></g></g><text class="cls-36" transform="translate(393.95 243.49)">3 Checks Passing</text><path class="cls-2" d="M420.43,322.48h18v18h-18v-18Z" transform="translate(-23 -20)"/><path class="cls-6" d="M427.18,334.61l-3.13-3.13L423,332.54l4.19,4.19,9-9-1.06-1.06Z" transform="translate(-23 -20)"/><path class="cls-2" d="M420.43,362.48h18v18h-18v-18Z" transform="translate(-23 -20)"/><path class="cls-6" d="M427.18,374.61l-3.13-3.13L423,372.54l4.19,4.19,9-9-1.06-1.06Z" transform="translate(-23 -20)"/></svg>