<svg id="Layer_1" data-name="Layer 1" xmlns="http://www.w3.org/2000/svg" viewBox="0 0 552 195.23"><defs><style>.cls-1{fill:#f8991d;}.cls-2{fill:#010101;}.cls-3{fill:#e8a723;}.cls-4{fill:#3eb890;}.cls-5{fill:#e01765;}.cls-6{fill:#472a49;}.cls-7{fill:#cc2027;}.cls-8{fill:#70cadb;}.cls-9{fill:#1a937d;}.cls-10{fill:#65863a;}.cls-11{fill:#3b434b;}.cls-12{fill:#25c151;}.cls-13{fill:none;stroke:#ccc;stroke-miterlimit:10;}</style></defs><title>integration-logos</title><polygon class="cls-1" points="182.8 93.1 168 87.8 168 66.2 182.8 71.2 182.8 93.1"/><polygon class="cls-1" points="185.5 93.1 200.3 87.8 200.3 66.2 185.5 71.2 185.5 93.1"/><polygon class="cls-1" points="169.6 64.6 184.5 60.4 198.3 64.8 184.5 69.5 169.6 64.6"/><polygon class="cls-1" points="165.2 62.9 150.5 57.6 150.5 36 165.2 41 165.2 62.9"/><polygon class="cls-1" points="167.9 62.9 182.7 57.6 182.7 36 167.9 41 167.9 62.9"/><polygon class="cls-1" points="152 34.4 166.9 30.2 180.8 34.6 166.9 39.3 152 34.4"/><polygon class="cls-1" points="199.7 62.9 184.9 57.6 184.9 36 199.7 41 199.7 62.9"/><polygon class="cls-1" points="202.4 62.9 217.1 57.6 217.1 36 202.4 41 202.4 62.9"/><polygon class="cls-1" points="186.4 34.4 201.3 30.2 215.2 34.6 201.3 39.3 186.4 34.4"/><polygon class="cls-1" points="217.2 32.7 202.5 27.4 202.5 5.8 217.2 10.8 217.2 32.7"/><polygon class="cls-1" points="219.9 32.7 234.7 27.4 234.7 5.8 219.9 10.8 219.9 32.7"/><polygon class="cls-1" points="204 4.2 218.9 0 232.8 4.4 218.9 9.1 204 4.2"/><polygon class="cls-1" points="251.6 32.7 236.9 27.4 236.9 5.8 251.6 10.8 251.6 32.7"/><polygon class="cls-1" points="254.3 32.7 269.1 27.4 269.1 5.8 254.3 10.8 254.3 32.7"/><polygon class="cls-1" points="238.4 4.2 253.3 0 267.2 4.4 253.3 9.1 238.4 4.2"/><polygon class="cls-2" points="241.6 78.5 238.1 90.2 234.6 78.5 231.9 78.5 228.7 90 225.3 78.5 221.6 78.5 227.1 96.7 230 96.7 233.2 85.3 236.6 96.7 239.6 96.7 244.8 78.5 241.6 78.5"/><path class="cls-2" d="M285.1,120.45c0-3.2-.8-5.7-2.2-7.3a7.29,7.29,0,0,0-5.8-2.5,7.9,7.9,0,0,0-6.1,2.7,11.31,11.31,0,0,0-.1,13.8,7.61,7.61,0,0,0,6.1,2.7,8.14,8.14,0,0,0,4.9-1.5,6.83,6.83,0,0,0,2.8-3.9l0.2-.5-3.4-.7-0.2.4a4.23,4.23,0,0,1-4.2,3.1,4.85,4.85,0,0,1-3.1-1.2c-0.9-.8-1.4-2.2-1.4-4.4h12.5v-0.7ZM272.8,118a5.26,5.26,0,0,1,1.4-3,3.8,3.8,0,0,1,3-1.3,3.23,3.23,0,0,1,2.2.7,3.56,3.56,0,0,1,1.3,1.7,5.85,5.85,0,0,1,.4,1.9h-8.3Z" transform="translate(-24 -32.55)"/><path class="cls-2" d="M295.9,110.55a5.68,5.68,0,0,0-4.6,2.2V105h-3.7v24.2h2.1l0.7-2.2a6.19,6.19,0,0,0,5.2,2.7,6.44,6.44,0,0,0,5.5-2.8,10.71,10.71,0,0,0,2.1-6.7c0-3.1-.7-5.5-2.1-7.1A6.54,6.54,0,0,0,295.9,110.55Zm3.6,9.9a7.84,7.84,0,0,1-1.2,4.6,3.26,3.26,0,0,1-2.9,1.6,4.25,4.25,0,0,1-2.7-1.1,4.94,4.94,0,0,1-1.4-3.5v-3.8a5.07,5.07,0,0,1,1.5-3.2,3.73,3.73,0,0,1,2.7-1.2,3.06,3.06,0,0,1,2.9,1.7A8.48,8.48,0,0,1,299.5,120.45Z" transform="translate(-24 -32.55)"/><path class="cls-2" d="M319.2,118.35l-3.4-.6c-2-.4-2.3-1.3-2.3-1.9a1.9,1.9,0,0,1,.8-1.5,4.27,4.27,0,0,1,2.4-.6,3.8,3.8,0,0,1,3.9,2.4l0.2,0.4,3.4-.7-0.2-.5c-0.9-3.1-3.4-4.7-7.4-4.7a7.33,7.33,0,0,0-5,1.6,5,5,0,0,0-1.9,4,4.83,4.83,0,0,0,1.4,3.5,6.75,6.75,0,0,0,3.6,1.7l3.6,0.7c2.5,0.5,2.5,1.7,2.5,2.1a2,2,0,0,1-.9,1.7,5,5,0,0,1-2.6.7c-2.8,0-4.4-.9-4.9-2.9l-0.1-.5-3.6.7,0.2,0.5c1,3.5,3.7,5.3,8,5.3a8.57,8.57,0,0,0,5.5-1.6,5.22,5.22,0,0,0,2.2-4.2C324.9,121,323,119.05,319.2,118.35Z" transform="translate(-24 -32.55)"/><path class="cls-2" d="M342,120.45c0-3.2-.8-5.7-2.2-7.3a7.29,7.29,0,0,0-5.8-2.5,7.9,7.9,0,0,0-6.1,2.7,11.31,11.31,0,0,0-.1,13.8,7.61,7.61,0,0,0,6.1,2.7,8.14,8.14,0,0,0,4.9-1.5,6.83,6.83,0,0,0,2.8-3.9l0.2-.5-3.4-.7-0.2.4a4.23,4.23,0,0,1-4.2,3.1,4.85,4.85,0,0,1-3.1-1.2c-0.9-.8-1.4-2.2-1.4-4.4H342v-0.7ZM329.6,118a5.26,5.26,0,0,1,1.4-3,3.8,3.8,0,0,1,3-1.3,3.23,3.23,0,0,1,2.2.7,3.56,3.56,0,0,1,1.3,1.7,5.85,5.85,0,0,1,.4,1.9h-8.3Z" transform="translate(-24 -32.55)"/><path class="cls-2" d="M351.7,110.55a4.9,4.9,0,0,0-2.8.9,5,5,0,0,0-1.7,2v-2.4h-3.3v18.2h3.7v-9.6a6.23,6.23,0,0,1,1.4-4,4.27,4.27,0,0,1,3.3-1.5h1v-3.5h-0.5C352.4,110.65,352,110.55,351.7,110.55Z" transform="translate(-24 -32.55)"/><polygon class="cls-2" points="338.3 91.5 333.9 78.5 329.9 78.5 336.4 96.7 339.9 96.7 346.2 78.5 342.7 78.5 338.3 91.5"/><rect class="cls-2" x="347.1" y="72.5" width="3.9" height="4"/><rect class="cls-2" x="347.2" y="78.5" width="3.7" height="18.2"/><path class="cls-2" d="M387.9,122.65c-0.5,2.6-1.8,3.9-3.7,3.9a3.15,3.15,0,0,1-2.9-1.6,9.35,9.35,0,0,1-1.1-4.9,8.94,8.94,0,0,1,1.1-4.6,3.31,3.31,0,0,1,3-1.6c2,0,3.2,1.3,3.6,3.8l0.1,0.5,3.4-.6-0.1-.5a8,8,0,0,0-2.2-4.6,6.73,6.73,0,0,0-4.9-1.8,7,7,0,0,0-5.8,2.8,10.81,10.81,0,0,0-2.1,6.8,11.31,11.31,0,0,0,2,6.7,6.61,6.61,0,0,0,5.8,2.8,6.77,6.77,0,0,0,4.7-1.7,7.87,7.87,0,0,0,2.4-4.7l0.1-.5-3.4-.6v0.4Z" transform="translate(-24 -32.55)"/><path class="cls-2" d="M409.2,120.45c0-3.2-.8-5.7-2.2-7.3a7.29,7.29,0,0,0-5.8-2.5,7.9,7.9,0,0,0-6.1,2.7,11.31,11.31,0,0,0-.1,13.8,7.61,7.61,0,0,0,6.1,2.7,8.14,8.14,0,0,0,4.9-1.5,6.83,6.83,0,0,0,2.8-3.9l0.2-.5-3.4-.7-0.2.4a4.23,4.23,0,0,1-4.2,3.1,4.85,4.85,0,0,1-3.1-1.2c-0.9-.8-1.4-2.2-1.4-4.4h12.5v-0.7ZM396.9,118a5.26,5.26,0,0,1,1.4-3,3.8,3.8,0,0,1,3-1.3,3.23,3.23,0,0,1,2.2.7,3.56,3.56,0,0,1,1.3,1.7,5.85,5.85,0,0,1,.4,1.9h-8.3Z" transform="translate(-24 -32.55)"/><path class="cls-2" d="M419.8,118.35l-3.4-.6c-2-.4-2.3-1.3-2.3-1.9a1.9,1.9,0,0,1,.8-1.5,4.27,4.27,0,0,1,2.4-.6,3.8,3.8,0,0,1,3.9,2.4l0.2,0.4,3.4-.7-0.2-.5c-0.9-3.1-3.4-4.7-7.4-4.7a7.33,7.33,0,0,0-5,1.6,5,5,0,0,0-1.9,4,4.83,4.83,0,0,0,1.4,3.5,6.75,6.75,0,0,0,3.6,1.7l3.6,0.7c2.5,0.5,2.5,1.7,2.5,2.1a2,2,0,0,1-.9,1.7,5,5,0,0,1-2.6.7c-2.8,0-4.4-.9-4.9-2.9l-0.1-.5-3.6.7,0.2,0.5c1,3.5,3.7,5.3,8,5.3a8.57,8.57,0,0,0,5.5-1.6,5.22,5.22,0,0,0,2.2-4.2C425.5,121,423.6,119.05,419.8,118.35Z" transform="translate(-24 -32.55)"/><path class="cls-2" d="M349.8,74.75v-4.1a1,1,0,0,1,1-1h18.5a1,1,0,0,1,1.1,1v3.5c0,0.6-.5,1.4-1.4,2.6l-9.6,13.7a19.81,19.81,0,0,1,10.6,2.3,2,2,0,0,1,1,1.6v4.4a1,1,0,0,1-1.4.9,21.5,21.5,0,0,0-19.6,0,1,1,0,0,1-1.3-1v-4.2a4.63,4.63,0,0,1,.7-2.8l11.1-16h-9.7A0.78,0.78,0,0,1,349.8,74.75Z" transform="translate(-24 -32.55)"/><path class="cls-2" d="M283.5,100.65h-5.6a1,1,0,0,1-1-1V70.75a1,1,0,0,1,1.1-1h5.3a1,1,0,0,1,1,1v3.8h0.1c1.4-3.7,3.9-5.4,7.4-5.4s5.7,1.7,7.3,5.4a8,8,0,0,1,7.8-5.4,8,8,0,0,1,6.5,3.2c1.8,2.4,1.4,6,1.4,9.1v18.3a1,1,0,0,1-1.1,1h-5.6a1,1,0,0,1-1-1V84.45a32.12,32.12,0,0,0-.2-5.4,3,3,0,0,0-3.3-2.5,3.73,3.73,0,0,0-3.4,2.4c-0.6,1.5-.5,3.9-0.5,5.5v15.3a1,1,0,0,1-1.1,1H293a1,1,0,0,1-1-1V84.45c0-3.2.5-8-3.5-8s-3.9,4.6-3.9,8v15.3A1.1,1.1,0,0,1,283.5,100.65Z" transform="translate(-24 -32.55)"/><path class="cls-2" d="M384.1,69.05c8.3,0,12.8,7.2,12.8,16.3,0,8.8-5,15.8-12.8,15.8-8.1,0-12.6-7.2-12.6-16.1S376,69.05,384.1,69.05Zm0,6.7c-4.1,0-4.4,5.7-4.4,9.2s-0.1,10.3,4.3,10.3,4.5-5.3,4.5-9.1a28.41,28.41,0,0,0-.8-7.7A3.43,3.43,0,0,0,384.1,75.75Z" transform="translate(-24 -32.55)"/><path class="cls-2" d="M408.9,100.65h-5.6a1,1,0,0,1-1-1V70.75a1,1,0,0,1,1.1-.9h5.2a1.08,1.08,0,0,1,1,.8V75h0.1c1.6-4,3.8-5.8,7.7-5.8a7.46,7.46,0,0,1,6.6,3.4c1.5,2.3,1.5,6.2,1.5,9v18.2a1.09,1.09,0,0,1-1.1.9h-5.7a1.06,1.06,0,0,1-1-.9V84c0-3.2.4-7.8-3.5-7.8a3.77,3.77,0,0,0-3.3,2.3A12.75,12.75,0,0,0,410,84v15.6A1.11,1.11,0,0,1,408.9,100.65Z" transform="translate(-24 -32.55)"/><path class="cls-2" d="M345.8,95.15c-1-1.4-2.1-2.6-2.1-5.2v-8.8c0-3.7.2-7.1-2.5-9.7-2.2-2.1-5.8-2.8-8.5-2.8-5.4,0-11.3,2-12.6,8.6a0.93,0.93,0,0,0,.8,1.2l5.5,0.6a1.17,1.17,0,0,0,1-1c0.4-2.3,2.3-3.4,4.5-3.4a3.93,3.93,0,0,1,3.2,1.5c0.8,1.2.7,2.8,0.7,4.1V81c-3.3.4-7.5,0.7-10.6,2a9.55,9.55,0,0,0-6,9.2c0,5.9,3.7,8.8,8.4,8.8,4,0,6.2-.9,9.3-4.1a13.17,13.17,0,0,0,3.2,3.8,1.06,1.06,0,0,0,1.3-.1c1.1-1,3.1-2.8,4.4-3.9A1.09,1.09,0,0,0,345.8,95.15Zm-11.2-2.4a4.57,4.57,0,0,1-3.9,2.6c-2.2,0-3.4-1.6-3.4-4.1,0-4.8,4.3-5.7,8.4-5.7v1.2C335.7,89,335.8,90.75,334.6,92.75Z" transform="translate(-24 -32.55)"/><path class="cls-2" d="M272.5,95.15c-1-1.4-2.1-2.6-2.1-5.2v-8.8c0-3.7.2-7.1-2.5-9.7-2.2-2.1-5.8-2.8-8.5-2.8-5.4,0-11.3,2-12.6,8.6a0.93,0.93,0,0,0,.8,1.2l5.5,0.6a1.17,1.17,0,0,0,1-1c0.4-2.3,2.3-3.4,4.5-3.4a3.93,3.93,0,0,1,3.2,1.5c0.8,1.2.7,2.8,0.7,4.1V81c-3.3.4-7.5,0.7-10.6,2a9.55,9.55,0,0,0-6,9.2c0,5.9,3.7,8.8,8.4,8.8,4,0,6.2-.9,9.3-4.1a13.17,13.17,0,0,0,3.2,3.8,1.06,1.06,0,0,0,1.3-.1c1.1-1,3.2-2.8,4.4-3.9A1.09,1.09,0,0,0,272.5,95.15Zm-11.2-2.4a4.57,4.57,0,0,1-3.9,2.6c-2.2,0-3.4-1.6-3.4-4.1,0-4.8,4.3-5.7,8.4-5.7v1.2C262.4,89,262.5,90.75,261.3,92.75Z" transform="translate(-24 -32.55)"/><path class="cls-3" d="M69.82,175.62a5,5,0,0,0-9.42,3.06l12.8,39.39A5,5,0,0,0,82.62,215Z" transform="translate(-24 -32.55)"/><path class="cls-4" d="M50,182.07a5,5,0,0,0-9.42,3.06l12.8,39.39a5,5,0,0,0,9.41-3.06Z" transform="translate(-24 -32.55)"/><path class="cls-5" d="M85.94,208.24a5,5,0,1,0-3.06-9.42l-39.39,12.8A5,5,0,0,0,46.55,221Z" transform="translate(-24 -32.55)"/><path class="cls-6" d="M51.7,219.37l9.41-3.06-3.06-9.41L48.64,210Z" transform="translate(-24 -32.55)"/><path class="cls-7" d="M71.53,212.92l9.41-3.06-3.06-9.42-9.41,3.06Z" transform="translate(-24 -32.55)"/><path class="cls-8" d="M79.49,188.4A5,5,0,1,0,76.43,179L37,191.79a5,5,0,0,0,3.06,9.41Z" transform="translate(-24 -32.55)"/><path class="cls-9" d="M45.25,199.53l9.42-3.06-3.06-9.41-9.42,3.06Z" transform="translate(-24 -32.55)"/><path class="cls-10" d="M65.09,193.08L74.5,190l-3.06-9.42L62,183.67Z" transform="translate(-24 -32.55)"/><path class="cls-11" d="M125.89,186c1.74,0.76,1.87,1.33.51,3.93s-1.74,2.82-3.45,2.12a19.69,19.69,0,0,0-6.68-1.62c-2.91,0-4.85,1-4.85,2.63,0,5.23,16.69,2.41,16.69,13.56,0,5.61-4.81,9.34-12,9.34A28.32,28.32,0,0,1,104.35,213c-1.62-.82-1.71-1.3-0.32-4,1.2-2.34,1.58-2.6,3.33-1.87a24.48,24.48,0,0,0,8.58,2.12c2.66,0,4.43-1.08,4.43-2.66,0-5.07-17-2.66-17-13.46,0-5.73,4.78-9.57,11.94-9.57A28.29,28.29,0,0,1,125.89,186Z" transform="translate(-24 -32.55)"/><path class="cls-11" d="M139.35,172.75V214.3a1.5,1.5,0,0,1-1.62,1.3h-4.37a1.5,1.5,0,0,1-1.62-1.3V172.75c0-2.06.57-2.25,3.8-2.25C139.23,170.5,139.35,170.75,139.35,172.75Z" transform="translate(-24 -32.55)"/><path class="cls-11" d="M170.42,196.12V214a1.55,1.55,0,0,1-1.62,1.62H164.5a1.56,1.56,0,0,1-1.62-1.71l0.06-1.93a12.22,12.22,0,0,1-9.06,4c-6.52,0-10.9-3.77-10.9-9.41,0-6,4.94-10,12.35-10a19.92,19.92,0,0,1,7.47,1.36v-2.06c0-3.29-2.6-5.26-7-5.26a14.28,14.28,0,0,0-6.62,2c-1.55.89-1.93,0.82-3.61-1.68s-1.58-3,0-4a21.12,21.12,0,0,1,11-3.23C165.07,183.64,170.42,188.27,170.42,196.12Zm-20.14,10.36c0,2.12,1.81,3.55,4.53,3.55a9.43,9.43,0,0,0,8-4.28V203a16.88,16.88,0,0,0-5.76-1C153,201.92,150.28,203.85,150.28,206.48Z" transform="translate(-24 -32.55)"/><path class="cls-11" d="M200.07,186.05c1.58,0.92,1.65,1.43-.1,4.12-1.65,2.53-1.93,2.69-3.67,1.81a12.45,12.45,0,0,0-5.19-1.3c-5.48,0-9.12,3.61-9.12,9.06,0,5.67,3.64,9.47,9.12,9.47a13.43,13.43,0,0,0,5.83-1.58c1.58-.92,1.93-0.86,3.61,1.58,1.52,2.28,1.49,2.82.13,3.77a18.53,18.53,0,0,1-9.69,3c-10.14,0-16.91-6.49-16.91-16.22s6.78-16.09,17-16.09A19.3,19.3,0,0,1,200.07,186.05Z" transform="translate(-24 -32.55)"/><path class="cls-11" d="M233.14,211.67c1.27,1.62.76,2.19-2.41,3.33s-3.67,1.11-4.81-.38l-9.06-12.1-4.05,3.93v7.85a1.5,1.5,0,0,1-1.62,1.3h-4.37a1.5,1.5,0,0,1-1.62-1.3V172.75c0-2.06.57-2.25,3.8-2.25,3.67,0,3.8.25,3.8,2.25v23.63l12.42-11.91c1.36-1.3,2.12-1.2,4.56.41,2.69,1.74,2.88,2.22,1.58,3.48l-9.25,9Z" transform="translate(-24 -32.55)"/><path class="cls-12" d="M362,189.93a8.38,8.38,0,0,0-5-4.24,9.85,9.85,0,0,0-2.86-.47H338.78v6.06h15.28a2.72,2.72,0,0,1,2,.74,2.6,2.6,0,0,1,.78,2v2.67H345.06a8.72,8.72,0,0,0-4.09.88,8.46,8.46,0,0,0-2.72,2.2,8.57,8.57,0,0,0-1.51,2.86,9.94,9.94,0,0,0-.47,2.87,8.74,8.74,0,0,0,.88,4.09,8.41,8.41,0,0,0,2.2,2.72,8.56,8.56,0,0,0,2.85,1.51,9.85,9.85,0,0,0,2.86.47h9a8.72,8.72,0,0,0,4.09-.88,8.46,8.46,0,0,0,2.72-2.2,8.6,8.6,0,0,0,1.51-2.85,9.82,9.82,0,0,0,.47-2.86V194A8.68,8.68,0,0,0,362,189.93Zm-5.18,15.52a2.81,2.81,0,0,1-.71,2,2.58,2.58,0,0,1-2,.79h-9a2.91,2.91,0,0,1-2-.7,2.43,2.43,0,0,1-.82-2,2.86,2.86,0,0,1,.71-2,2.57,2.57,0,0,1,2-.8h11.73v2.68Z" transform="translate(-24 -32.55)"/><path class="cls-12" d="M414.13,202.9a8.75,8.75,0,0,0,4.11-.89,8.43,8.43,0,0,0,4.26-5.08,9.87,9.87,0,0,0,.47-2.88,8.77,8.77,0,0,0-.89-4.12,8.45,8.45,0,0,0-2.21-2.74,8.56,8.56,0,0,0-2.87-1.52,9.87,9.87,0,0,0-2.88-.47h-9.06a8.73,8.73,0,0,0-4.11.89,8.47,8.47,0,0,0-2.75,2.21,8.7,8.7,0,0,0-1.52,2.87,10.08,10.08,0,0,0-.47,2.88v11.55a8.73,8.73,0,0,0,.89,4.11A8.35,8.35,0,0,0,402.2,214a9.89,9.89,0,0,0,2.88.47h17v-6.13H405.12a2.87,2.87,0,0,1-2-.72,2.53,2.53,0,0,1-.8-2V202.9h11.8Zm-11.8-8.79a2.89,2.89,0,0,1,.72-2,2.57,2.57,0,0,1,2-.8h9.06a2.81,2.81,0,0,1,1.94.72,2.52,2.52,0,0,1,.8,2,2.88,2.88,0,0,1-.72,2,2.58,2.58,0,0,1-2,.8h-11.8v-2.69Z" transform="translate(-24 -32.55)"/><path class="cls-12" d="M467,214.33h-9.71a8.5,8.5,0,0,1-6.54-2.58,8.84,8.84,0,0,1-2.13-6.19V193.93a8.44,8.44,0,0,1,2.52-6.43,9,9,0,0,1,6.2-2.22h12.11V174.8h6.17v30.92a8.33,8.33,0,0,1-2.39,6.17A9.3,9.3,0,0,1,467,214.33Zm-12.24-8.44a2.68,2.68,0,0,0,.53,1.7,2.89,2.89,0,0,0,2,.57H467a2.17,2.17,0,0,0,2.42-2.45V191.44H457a2.78,2.78,0,0,0-1.73.57,2.64,2.64,0,0,0-.56,1.92v12Z" transform="translate(-24 -32.55)"/><path class="cls-12" d="M312.37,224.8H306.2v-31a8.35,8.35,0,0,1,2.39-6.18,9.29,9.29,0,0,1,6.25-2.45h9.7a8.51,8.51,0,0,1,6.55,2.58,8.86,8.86,0,0,1,2.14,6.2v11.67a8.46,8.46,0,0,1-2.53,6.44,9,9,0,0,1-6.21,2.22H312.37V224.8Zm12.39-16.67a2.86,2.86,0,0,0,1.75-.58,2.65,2.65,0,0,0,.56-1.93v-12a2.69,2.69,0,0,0-.54-1.71,2.9,2.9,0,0,0-2-.57H314.8a2.18,2.18,0,0,0-2.43,2.46v14.32h12.39Z" transform="translate(-24 -32.55)"/><path class="cls-12" d="M431.63,214.34h-6.17V193.84a8.35,8.35,0,0,1,2.39-6.17,9.38,9.38,0,0,1,6.27-2.47h12v6.17h-12a2.2,2.2,0,0,0-2.46,2.47v20.51Z" transform="translate(-24 -32.55)"/><path class="cls-12" d="M487.4,214.36a9.43,9.43,0,0,1-6.26-2.51,8.34,8.34,0,0,1-2.37-6.14V185.2h6.17v20.51a2,2,0,0,0,1,2.07,3.79,3.79,0,0,0,1.53.41H499.5v-23h6.17v29.16H487.4Z" transform="translate(-24 -32.55)"/><path class="cls-12" d="M384,224.52H369.33v-6.17H384a2.36,2.36,0,0,0,2.41-1.19,4.54,4.54,0,0,0,.5-1.77v-1.18H375.25a9.44,9.44,0,0,1-6.54-2.33,8.9,8.9,0,0,1-2.65-6.79V194.35a9.53,9.53,0,0,1,2.39-6.56,8.89,8.89,0,0,1,6.74-2.63h8.76c3.66,0,9.1,2.42,9.1,9.1v21.18C393,219.11,390.57,224.52,384,224.52Zm-11.75-30.39v11a3.06,3.06,0,0,0,.7,2.28,3.44,3.44,0,0,0,2,.68h11.9V194.27c0-1.64-.66-2.19-1.31-2.51a4.55,4.55,0,0,0-1.63-.43h-8.76a3.06,3.06,0,0,0-2.24.68A3.33,3.33,0,0,0,372.22,194.14Z" transform="translate(-24 -32.55)"/><path class="cls-12" d="M557.16,224.6H542.54v-6.17h14.62a2.35,2.35,0,0,0,2.4-1.18,4.48,4.48,0,0,0,.49-1.76v-1.13H548.39a8.92,8.92,0,0,1-6.79-2.65,9.48,9.48,0,0,1-2.35-6.56V185.23h6.17v20.18a3.28,3.28,0,0,0,.71,2.11,3.1,3.1,0,0,0,2.28.69h11.67v-23h6.17v30.36C566.19,219.2,563.76,224.6,557.16,224.6Z" transform="translate(-24 -32.55)"/><polygon class="cls-12" points="501.48 181.83 495.32 181.83 495.32 158.83 484.82 158.83 484.82 152.67 495.32 152.67 495.32 144.75 501.48 144.75 501.48 152.67 512.01 152.67 512.01 158.83 501.48 158.83 501.48 181.83"/><line class="cls-13" y1="117.95" x2="552" y2="117.95"/></svg>