<?xml version="1.0" encoding="utf-8"?>
<!-- Generator: Adobe Illustrator 19.1.0, SVG Export Plug-In . SVG Version: 6.00 Build 0)  -->
<svg version="1.1" id="Layer_1" xmlns="http://www.w3.org/2000/svg" xmlns:xlink="http://www.w3.org/1999/xlink" x="0px" y="0px"
	 viewBox="0 0 600 300" style="enable-background:new 0 0 600 300;" xml:space="preserve">
<style type="text/css">
	.st0{fill:#E8A723;}
	.st1{fill:#3EB890;}
	.st2{fill:#E01765;}
	.st3{fill:#472A49;}
	.st4{fill:#CC2027;}
	.st5{fill:#70CADB;}
	.st6{fill:#1A937D;}
	.st7{fill:#65863A;}
	.st8{fill:#3B434B;}
	.st9{fill:#25C151;}
	.st10{fill:#9D5025;}
	.st11{fill:#F58536;}
	.st12{fill:#6B3A19;}
	.st13{fill:#FBBF93;}
	.st14{fill:#2E73B8;}
	.st15{fill:#5294CF;}
	.st16{fill:#205B99;}
	.st17{fill:#19486F;}
	.st18{fill:#B7CA9D;}
	.st19{fill:#4B612C;}
	.st20{fill:#759C3E;}
	.st21{fill:#F8991D;}
	.st22{fill:#010101;}
</style>
<g>
	<g>
		<g>
			<path class="st0" d="M74.2,110c-0.8-2.5-3.5-3.8-5.9-3c-2.5,0.8-3.8,3.5-3,5.9l12.2,37.4c0.8,2.3,3.3,3.6,5.7,2.9
				c2.5-0.7,4-3.4,3.2-5.8C86.4,147.3,74.2,110,74.2,110z"/>
			<path class="st1" d="M55.4,116.1c-0.8-2.5-3.5-3.8-5.9-3c-2.5,0.8-3.8,3.5-3,5.9l12.2,37.4c0.8,2.3,3.3,3.6,5.7,2.9
				c2.5-0.7,4-3.4,3.2-5.8C67.5,153.4,55.4,116.1,55.4,116.1z"/>
			<path class="st2" d="M89.5,141c2.5-0.8,3.8-3.5,3-5.9s-3.5-3.8-5.9-3l-37.4,12.2c-2.3,0.8-3.6,3.3-2.9,5.7c0.7,2.5,3.4,4,5.8,3.2
				C52.2,153.1,89.5,141,89.5,141z"/>
			<path class="st3" d="M57,151.6c2.4-0.8,5.6-1.8,8.9-2.9c-0.8-2.4-1.8-5.6-2.9-8.9l-8.9,2.9L57,151.6z"/>
			<path class="st4" d="M75.9,145.4c3.4-1.1,6.5-2.1,8.9-2.9c-0.8-2.4-1.8-5.6-2.9-8.9l-8.9,2.9L75.9,145.4z"/>
			<path class="st5" d="M83.4,122.1c2.5-0.8,3.8-3.5,3-5.9s-3.5-3.8-5.9-3l-37.4,12.2c-2.3,0.8-3.6,3.3-2.9,5.7
				c0.7,2.5,3.4,4,5.8,3.2C46.1,134.3,83.4,122.1,83.4,122.1z"/>
			<path class="st6" d="M50.9,132.7c2.4-0.8,5.6-1.8,8.9-2.9c-1.1-3.4-2.1-6.5-2.9-8.9l-8.9,2.9L50.9,132.7z"/>
			<path class="st7" d="M69.7,126.6c3.4-1.1,6.5-2.1,8.9-2.9c-1.1-3.4-2.1-6.5-2.9-8.9l-8.9,2.9L69.7,126.6z"/>
		</g>
	</g>
	<path class="st8" d="M127.5,119.8c1.7,0.7,1.8,1.3,0.5,3.7c-1.3,2.5-1.7,2.7-3.3,2c-2-0.9-4.7-1.5-6.3-1.5c-2.8,0-4.6,1-4.6,2.5
		c0,5,15.9,2.3,15.9,12.9c0,5.3-4.6,8.9-11.4,8.9c-3.6,0-8.1-1.2-11.1-2.8c-1.5-0.8-1.6-1.2-0.3-3.8c1.1-2.2,1.5-2.5,3.2-1.8
		c2.6,1.1,5.9,2,8.2,2c2.5,0,4.2-1,4.2-2.5c0-4.8-16.1-2.5-16.1-12.8c0-5.4,4.5-9.1,11.3-9.1C120.7,117.6,124.7,118.6,127.5,119.8z"
		/>
	<path class="st8" d="M140.3,107.3v39.5c0,0.6-0.6,1.2-1.5,1.2h-4.2c-0.9,0-1.5-0.6-1.5-1.2v-39.5c0-2,0.5-2.1,3.6-2.1
		C140.2,105.1,140.3,105.4,140.3,107.3z"/>
	<path class="st8" d="M169.8,129.5v17c0,0.9-0.6,1.5-1.5,1.5h-4.1c-0.9,0-1.6-0.7-1.5-1.6l0.1-1.8c-2.2,2.5-5.4,3.8-8.6,3.8
		c-6.2,0-10.4-3.6-10.4-8.9c0-5.7,4.7-9.5,11.7-9.5c2.7,0,5.1,0.5,7.1,1.3v-2c0-3.1-2.5-5-6.6-5c-2,0-4.4,0.8-6.3,1.9
		c-1.5,0.8-1.8,0.8-3.4-1.6c-1.6-2.4-1.5-2.8,0-3.8c2.9-1.9,6.8-3.1,10.4-3.1C164.7,117.6,169.8,122,169.8,129.5z M150.7,139.3
		c0,2,1.7,3.4,4.3,3.4c3.1,0,6-1.5,7.6-4.1V136c-1.7-0.6-3.7-1-5.5-1C153.3,135,150.7,136.8,150.7,139.3z"/>
	<path class="st8" d="M198,119.9c1.5,0.9,1.6,1.4-0.1,3.9c-1.6,2.4-1.8,2.6-3.5,1.7c-1.3-0.7-3.3-1.2-4.9-1.2
		c-5.2,0-8.7,3.4-8.7,8.6c0,5.4,3.5,9,8.7,9c1.8,0,4.1-0.7,5.5-1.5c1.5-0.9,1.8-0.8,3.4,1.5c1.4,2.2,1.4,2.7,0.1,3.6
		c-2.3,1.6-6,2.8-9.2,2.8c-9.6,0-16.1-6.2-16.1-15.4c0-9.2,6.4-15.3,16.1-15.3C192.3,117.6,195.8,118.6,198,119.9z"/>
	<path class="st8" d="M229.4,144.2c1.2,1.5,0.7,2.1-2.3,3.2c-3.1,1.1-3.5,1.1-4.6-0.4l-8.6-11.5l-3.9,3.7v7.5c0,0.6-0.6,1.2-1.5,1.2
		h-4.2c-0.9,0-1.5-0.6-1.5-1.2v-39.5c0-2,0.5-2.1,3.6-2.1c3.5,0,3.6,0.2,3.6,2.1v22.4l11.8-11.3c1.3-1.2,2-1.1,4.3,0.4
		c2.6,1.7,2.7,2.1,1.5,3.3l-8.8,8.5L229.4,144.2z"/>
</g>
<g>
	<g>
		<path class="st9" d="M91.5,51.5c-0.5-1-1.2-1.9-2-2.5c-0.8-0.6-1.7-1.1-2.6-1.4c-0.9-0.3-1.8-0.4-2.6-0.4H70.1v5.6h14.1
			c0.7,0,1.3,0.2,1.8,0.7c0.5,0.5,0.7,1.1,0.7,1.8v2.5H75.9c-1.5,0-2.7,0.3-3.8,0.8c-1,0.5-1.9,1.2-2.5,2c-0.6,0.8-1.1,1.7-1.4,2.6
			c-0.3,1-0.4,1.8-0.4,2.7c0,1.5,0.3,2.7,0.8,3.8c0.5,1,1.2,1.9,2,2.5c0.8,0.6,1.7,1.1,2.6,1.4c0.9,0.3,1.8,0.4,2.6,0.4h8.3
			c1.5,0,2.7-0.3,3.8-0.8c1-0.5,1.9-1.2,2.5-2c0.6-0.8,1.1-1.7,1.4-2.6c0.3-0.9,0.4-1.8,0.4-2.6V55.2C92.3,53.7,92,52.5,91.5,51.5z
			 M86.7,65.8c0,0.7-0.2,1.3-0.7,1.8s-1.1,0.7-1.9,0.7h-8.3c-0.7,0-1.3-0.2-1.8-0.6c-0.5-0.4-0.8-1-0.8-1.8c0-0.7,0.2-1.3,0.7-1.8
			c0.4-0.5,1.1-0.7,1.9-0.7h10.8V65.8z"/>
	</g>
	<g>
		<path class="st9" d="M139.6,63.4c1.5,0,2.8-0.3,3.8-0.8c1-0.5,1.9-1.2,2.5-2c0.6-0.8,1.1-1.7,1.4-2.6c0.3-0.9,0.4-1.8,0.4-2.7
			c0-1.5-0.3-2.8-0.8-3.8c-0.5-1-1.2-1.9-2-2.5c-0.8-0.6-1.7-1.1-2.6-1.4c-0.9-0.3-1.8-0.4-2.7-0.4h-8.4c-1.5,0-2.8,0.3-3.8,0.8
			c-1,0.5-1.9,1.2-2.5,2c-0.6,0.8-1.1,1.7-1.4,2.6c-0.3,1-0.4,1.8-0.4,2.7v10.7c0,1.5,0.3,2.8,0.8,3.8c0.5,1,1.2,1.9,2,2.5
			c0.8,0.6,1.7,1.1,2.6,1.4c0.9,0.3,1.8,0.4,2.7,0.4h15.7v-5.7h-15.6c-0.7,0-1.3-0.2-1.8-0.7c-0.5-0.4-0.7-1.1-0.7-1.8v-2.5H139.6z
			 M128.7,55.3c0-0.7,0.2-1.3,0.7-1.8c0.4-0.5,1.1-0.7,1.9-0.7h8.4c0.7,0,1.3,0.2,1.8,0.7c0.5,0.4,0.7,1,0.7,1.8
			c0,0.7-0.2,1.3-0.7,1.8c-0.4,0.5-1.1,0.7-1.9,0.7h-10.9V55.3z"/>
	</g>
	<g>
		<path class="st9" d="M188.4,74C188.4,74,188.4,74,188.4,74l-9,0c-3.2,0-5-1.3-6-2.4c-2-2.2-2-5-2-5.7V55.1c0-3.1,1.3-4.9,2.3-5.9
			c2.2-2,5-2.1,5.7-2h11.2v-9.7h5.7V66c0,2.9-1.2,4.7-2.2,5.7C191.9,73.9,189,74,188.4,74z M177.1,66.2c0,0.3,0.1,1.1,0.5,1.6
			c0.4,0.4,1.2,0.5,1.8,0.5h9c2.2,0,2.2-1.7,2.2-2.3V52.9l-11.4,0c0,0,0,0,0,0c-0.3,0-1.1,0.1-1.6,0.5c-0.3,0.3-0.5,0.9-0.5,1.8
			L177.1,66.2z"/>
	</g>
	<g>
		<path class="st9" d="M45.7,83.6H40V55c0-2.9,1.2-4.7,2.2-5.7c2.2-2.2,5.3-2.3,5.8-2.3h9c3.2,0,5,1.3,6,2.4c2,2.2,2,5,2,5.7v10.8
			c0,3.1-1.3,4.9-2.3,5.9c-2.2,2-5,2.1-5.7,2.1H45.7V83.6z M57.1,68.2c0.3,0,1.2-0.1,1.6-0.5c0.3-0.3,0.5-0.9,0.5-1.8l0-11.1
			c0-0.3-0.1-1.1-0.5-1.6c-0.4-0.4-1.2-0.5-1.8-0.5h-9c-2.2,0-2.2,1.7-2.2,2.3v13.2L57.1,68.2z"/>
	</g>
	<g>
		<path class="st9" d="M155.8,74h-5.7V55.1c0-2.9,1.2-4.7,2.2-5.7c2.2-2.2,5.3-2.3,5.8-2.3h11.1v5.7H158c-2.3,0-2.3,1.7-2.3,2.3V74z
			"/>
	</g>
	<g>
		<path class="st9" d="M207.2,74c-0.4,0-3.5-0.1-5.8-2.3c-1-1-2.2-2.8-2.2-5.7V47.1h5.7V66c0,1.2,0.4,1.7,0.9,1.9
			c0.5,0.3,1.2,0.4,1.4,0.4l11.1,0V47.1h5.7V74L207.2,74C207.3,74,207.3,74,207.2,74z"/>
	</g>
	<g>
		<path class="st9" d="M111.8,83.4H98.3v-5.7h13.5c1.4,0,1.9-0.6,2.2-1.1c0.3-0.6,0.4-1.4,0.5-1.6v-1.1h-10.7c-0.7,0-3.7,0-6-2.2
			c-1.1-1-2.5-3-2.5-6.3v-9.9c0-0.7,0-3.7,2.2-6.1c1-1.1,3-2.4,6.2-2.4h8.1c3.4,0,8.4,2.2,8.4,8.4V75
			C120.1,78.4,117.9,83.4,111.8,83.4z M100.9,55.3l0,0.1l0,0v10c0,1,0.2,1.7,0.6,2.1c0.7,0.6,1.9,0.6,1.9,0.6l0.2,0h10.8l0-12.7
			c0-1.5-0.6-2-1.2-2.3c-0.7-0.4-1.5-0.4-1.5-0.4h-8.1c-1,0-1.7,0.2-2.1,0.6C101,54,100.9,55,100.9,55.3z"/>
	</g>
	<g>
		<path class="st9" d="M271.6,83.5h-13.5v-5.7h13.5c1.4,0,1.9-0.5,2.2-1.1c0.3-0.6,0.4-1.4,0.5-1.6v-1h-10.8c-3.3,0-5.2-1.3-6.3-2.4
			c-2.2-2.3-2.2-5.3-2.2-6.1V47.1h5.7l0,18.6c0,0.4,0.1,1.4,0.7,1.9c0.4,0.4,1.1,0.6,2.1,0.6h10.8V47.1h5.7v28
			C280,78.5,277.7,83.5,271.6,83.5z"/>
	</g>
	<g>
		<polygon class="st9" points="242.4,74 236.7,74 236.7,52.8 227,52.8 227,47.1 236.7,47.1 236.7,39.8 242.4,39.8 242.4,47.1 
			252.1,47.1 252.1,52.8 242.4,52.8 		"/>
	</g>
</g>
<g id="Layer_2">
</g>
<g id="Layer_2_1_">
</g>
<g id="Layer_2_2_">
</g>
<g>
	<path d="M495.5,132.3h-7.1v3.3h6.3v2h-6.3v3.4h7.2v2h-9.4v-12.6h9.3V132.3z"/>
	<path d="M504.1,143.2c-3.7,0-6.4-2.9-6.4-6.5c0-3.6,2.7-6.5,6.5-6.5c2.3,0,3.7,0.8,4.9,2l-1.4,1.6c-1-0.9-2.1-1.6-3.5-1.6
		c-2.4,0-4.2,2-4.2,4.5c0,2.5,1.7,4.5,4.2,4.5c1.5,0,2.5-0.6,3.6-1.6l1.4,1.4C507.9,142.3,506.5,143.2,504.1,143.2z"/>
	<path d="M516.4,135.6c2.7,0.6,4.1,1.6,4.1,3.7c0,2.4-1.9,3.8-4.5,3.8c-1.9,0-3.7-0.7-5.3-2l1.3-1.6c1.2,1,2.4,1.6,4,1.6
		c1.4,0,2.2-0.6,2.2-1.6c0-0.9-0.5-1.4-2.8-1.9c-2.7-0.6-4.2-1.4-4.2-3.8c0-2.2,1.8-3.7,4.3-3.7c1.8,0,3.3,0.6,4.6,1.6l-1.2,1.7
		c-1.1-0.8-2.3-1.3-3.4-1.3c-1.3,0-2.1,0.7-2.1,1.5C513.4,134.6,514,135.1,516.4,135.6z"/>
</g>
<g>
	<path d="M385.8,132.3h-7.1v3.3h6.3v2h-6.3v3.4h7.2v2h-9.4v-12.6h9.3V132.3z"/>
	<path d="M394.3,143.2c-3.7,0-6.4-2.9-6.4-6.5c0-3.6,2.7-6.5,6.5-6.5c2.3,0,3.7,0.8,4.9,2l-1.4,1.6c-1-0.9-2.1-1.6-3.5-1.6
		c-2.4,0-4.2,2-4.2,4.5c0,2.5,1.7,4.5,4.2,4.5c1.5,0,2.5-0.6,3.6-1.6l1.4,1.4C398.1,142.3,396.7,143.2,394.3,143.2z"/>
	<path d="M402.8,134l-1.6-1.2c1.2-1.7,2.4-2.6,4.6-2.6c2.5,0,4.2,1.5,4.2,3.8c0,2-1,3.1-3.3,4.9l-2.6,2.2h6v1.9H401v-1.7l4.3-3.7
		c1.7-1.5,2.4-2.3,2.4-3.4c0-1.2-0.9-2-2-2S403.8,132.8,402.8,134z"/>
</g>
<g>
	<path d="M383.5,262.9l-3.1-4.4h-2.8v4.4h-2.2v-12.6h5.6c2.9,0,4.7,1.5,4.7,4c0,2.1-1.2,3.3-3,3.8l3.4,4.8H383.5z M380.8,252.4h-3.2
		v4.2h3.2c1.6,0,2.6-0.8,2.6-2.1C383.5,253.1,382.5,252.4,380.8,252.4z"/>
	<path d="M393.1,262.9h-4.7v-12.6h4.7c4,0,6.7,2.7,6.7,6.3C399.8,260.2,397.1,262.9,393.1,262.9z M393.1,252.4h-2.5v8.6h2.5
		c2.6,0,4.4-1.8,4.4-4.3C397.5,254.2,395.8,252.4,393.1,252.4z"/>
	<path d="M407.2,255.6c2.7,0.6,4.1,1.6,4.1,3.7c0,2.4-1.9,3.8-4.5,3.8c-1.9,0-3.7-0.7-5.3-2l1.3-1.6c1.2,1,2.4,1.6,4,1.6
		c1.4,0,2.2-0.6,2.2-1.6c0-0.9-0.5-1.4-2.8-1.9c-2.7-0.6-4.2-1.4-4.2-3.8c0-2.2,1.8-3.7,4.3-3.7c1.8,0,3.3,0.6,4.6,1.6l-1.2,1.7
		c-1.1-0.8-2.3-1.3-3.4-1.3c-1.3,0-2.1,0.7-2.1,1.5C404.2,254.6,404.8,255.1,407.2,255.6z"/>
</g>
<g id="Layer_1_1_">
	<g>
		<polygon class="st10" points="474.6,53 471.2,54.7 471.2,102.7 474.6,104.4 488,79.7 		"/>
		<polygon class="st10" points="485,61.6 490,54.5 512.5,64.5 507.2,65.4 		"/>
		<polygon class="st10" points="481.1,96.3 486.6,103.9 512.5,92.7 507.5,91.9 		"/>
		<polygon class="st11" points="482.5,102.6 474.6,104.4 474.6,53 482.5,54.8 		"/>
		<polygon class="st10" points="478.3,51.1 482.5,49 490.4,82 482.5,108.4 478.3,106.3 		"/>
		<polygon class="st10" points="507.2,91.9 512.5,92.7 517.3,79.2 512.5,64.5 507.2,65.4 		"/>
		<polygon class="st11" points="490.6,106.1 482.5,108.4 482.5,49 490.6,51.3 		"/>
		<polygon class="st11" points="518,91.7 482.5,98.3 482.5,108.4 518,98.4 		"/>
		<polygon class="st11" points="518.1,65.6 482.5,58.8 482.5,49 518.1,59.1 		"/>
		<polygon class="st11" points="512.5,57.5 518.2,59.1 518.2,98.4 512.5,100 		"/>
		<polygon class="st12" points="534.8,73.5 519.6,74.2 514.2,73.9 529.6,61.4 		"/>
		<polygon class="st10" points="514.2,73.9 529.6,73 529.6,61.4 514.2,63.9 		"/>
		<polygon class="st12" points="499.7,72.9 515.3,57.1 523.2,72.3 507,73.4 		"/>
		<polygon class="st10" points="499.7,72.9 515.3,71.6 515.3,57.1 499.7,60.8 		"/>
		<polygon class="st10" points="514.2,83.7 534.8,84.1 529.6,96.2 514.2,93.7 		"/>
		<polygon class="st10" points="499.7,84.7 523.2,85.3 515.3,100.5 499.7,96.8 		"/>
		<polygon class="st13" points="499.7,84.7 515.3,86.1 523.2,85.3 507,84.2 		"/>
		<polygon class="st13" points="534.8,84.1 519.6,83.4 514.2,83.7 529.6,84.6 		"/>
		<polygon class="st11" points="529.6,73 534.8,73.5 534.8,63 529.6,61.4 		"/>
		<polygon class="st11" points="523.2,72.3 515.3,71.6 515.3,57.1 523.2,59.5 		"/>
		<polygon class="st11" points="529.6,84.6 534.8,84.1 534.8,94.6 529.6,96.2 		"/>
		<polygon class="st11" points="523.2,85.3 515.3,86.1 515.3,100.5 523.2,98.1 		"/>
	</g>
</g>
<g id="Layer_1_2_">
	<polygon class="st10" points="362.3,52.9 358.9,54.6 358.9,102.8 362.3,104.5 376.2,80 	"/>
	<polygon class="st11" points="370.3,102.7 362.3,104.5 362.3,52.9 370.3,54.7 	"/>
	<polygon class="st10" points="366.1,51 370.3,48.9 390.3,80.9 370.3,108.5 366.1,106.4 	"/>
	<polygon class="st11" points="380.2,105.7 370.3,108.5 370.3,48.9 380.2,51.7 	"/>
	<polygon class="st10" points="375,46.5 380.2,43.9 409.7,84.4 380.2,113.5 375,110.9 	"/>
	<polygon class="st11" points="393,108.8 380.2,113.5 380.2,43.9 393,48.6 	"/>
	<polygon class="st10" points="386.2,40.9 393,37.5 424.8,81 393,119.9 386.2,116.5 	"/>
	<polygon class="st11" points="427.1,102.8 393,119.9 393,37.5 427.1,54.6 	"/>
</g>
<g id="Layer_1_3_">
	<g>
		<polygon class="st14" points="425,178.6 417,169.8 405.7,198.7 417,227.6 425,218.8 		"/>
		<polygon class="st15" points="403,234.7 417,227.6 417,169.8 403,162.7 386.4,198.7 		"/>
		<polygon class="st14" points="383,234.7 403,234.7 403,162.7 383,162.7 371,198.7 		"/>
		<polygon class="st16" points="369,227.6 383,234.7 383,162.7 369,169.8 362.8,198.7 		"/>
		<polygon class="st17" points="361,218.8 369,227.6 369,169.8 361,178.6 		"/>
	</g>
</g>
<g>
	<path d="M454.8,263.2c-3.7,0-6.4-2.9-6.4-6.5c0-3.6,2.7-6.5,6.5-6.5c2.3,0,3.7,0.8,4.9,2l-1.4,1.6c-1-0.9-2.1-1.6-3.5-1.6
		c-2.4,0-4.2,2-4.2,4.5c0,2.5,1.7,4.5,4.2,4.5c1.5,0,2.5-0.6,3.6-1.6l1.4,1.4C458.6,262.3,457.2,263.2,454.8,263.2z"/>
	<path d="M462.1,262.9v-13.1h2.2v13.1H462.1z"/>
	<path d="M471.7,263.2c-2.9,0-5-2.2-5-4.9c0-2.7,2.2-5,5.1-5s5.1,2.2,5.1,5C476.8,260.9,474.6,263.2,471.7,263.2z M471.7,255.2
		c-1.7,0-2.9,1.4-2.9,3c0,1.7,1.2,3.1,2.9,3.1c1.8,0,2.9-1.4,2.9-3C474.6,256.5,473.4,255.2,471.7,255.2z"/>
	<path d="M485.2,253.4h2.2v9.5h-2.2v-1.5c-0.6,0.9-1.5,1.7-3,1.7c-2.1,0-3.4-1.4-3.4-3.7v-6h2.2v5.4c0,1.5,0.7,2.3,2,2.3
		c1.3,0,2.1-0.9,2.1-2.4V253.4z"/>
	<path d="M497.3,262.9v-1.6c-0.7,1-1.7,1.8-3.2,1.8c-2.2,0-4.4-1.8-4.4-5c0-3.2,2.1-5,4.4-5c1.6,0,2.6,0.8,3.2,1.7v-5.1h2.2v13.1
		H497.3z M494.6,255.1c-1.5,0-2.7,1.2-2.7,3.1c0,1.9,1.3,3.1,2.7,3.1c1.5,0,2.8-1.2,2.8-3.1C497.3,256.3,496,255.1,494.6,255.1z"/>
	<path d="M510,250.3h1.9l3.1,9.4l3-9.3h2.3l-4.4,12.7H514l-3.1-9.1l-3.1,9.1h-1.9l-4.4-12.7h2.4l3,9.3L510,250.3z"/>
	<path d="M526.8,262.9v-1.2c-0.6,0.8-1.6,1.4-3.1,1.4c-1.8,0-3.4-1-3.4-2.9v0c0-2.1,1.6-3.1,3.9-3.1c1.2,0,1.9,0.2,2.6,0.4v-0.2
		c0-1.3-0.8-2-2.3-2c-1.1,0-1.9,0.2-2.7,0.6l-0.6-1.7c1-0.5,2.1-0.8,3.6-0.8c2.8,0,4.2,1.5,4.2,4v5.6H526.8z M526.9,258.9
		c-0.6-0.2-1.3-0.4-2.2-0.4c-1.4,0-2.2,0.6-2.2,1.5v0c0,0.9,0.8,1.4,1.8,1.4c1.4,0,2.5-0.8,2.5-2V258.9z"/>
	<path d="M534.1,260c0,0.8,0.4,1.2,1.2,1.2c0.5,0,0.9-0.1,1.3-0.3v1.8c-0.5,0.3-1.2,0.5-2,0.5c-1.6,0-2.7-0.7-2.7-2.8v-5h-1.2v-1.9
		h1.2v-2.6h2.2v2.6h2.6v1.9h-2.6V260z"/>
	<path d="M543,263.2c-2.8,0-4.9-2.2-4.9-4.9s2.1-5,4.9-5c1.8,0,2.9,0.7,3.8,1.6l-1.4,1.5c-0.7-0.7-1.4-1.2-2.5-1.2
		c-1.6,0-2.7,1.4-2.7,3c0,1.7,1.2,3.1,2.8,3.1c1,0,1.8-0.5,2.5-1.2l1.3,1.3C545.9,262.4,544.8,263.2,543,263.2z"/>
	<path d="M551.1,262.9h-2.2v-13.1h2.2v5.1c0.6-0.9,1.5-1.7,3-1.7c2.1,0,3.4,1.4,3.4,3.7v6h-2.2v-5.4c0-1.5-0.7-2.3-2-2.3
		c-1.3,0-2.1,0.9-2.1,2.4V262.9z"/>
</g>
<g>
	<polygon class="st18" points="539.4,214.2 503,208.8 466.6,214.2 503,239.9 	"/>
	<polygon class="st19" points="473.9,213.6 480,215.4 494.5,193.3 480,171.1 473.9,173.4 	"/>
	<polygon class="st20" points="501.8,211.7 480,215.5 480,171.1 501.8,176 	"/>
	<polygon class="st19" points="492.1,219.1 483.6,216.6 483.6,161.8 492.1,157.5 517.3,190 	"/>
	<polygon class="st20" points="521.2,212.4 492.1,219.2 492.1,157.5 521.2,168.9 	"/>
	<polygon class="st19" points="503,227.1 466.6,214.2 466.6,221.7 503,239.9 	"/>
	<polygon class="st20" points="539.4,221.7 503,239.9 503,227.1 539.4,214.2 	"/>
	<polygon class="st18" points="529.2,201.8 520.3,201.8 495.2,203.5 503,222.4 	"/>
	<polygon class="st19" points="495.2,220 503,222.4 503,204.3 495.2,203.5 	"/>
	<polygon class="st20" points="529.2,201.8 503,204.3 503,222.4 529.2,214.5 	"/>
</g>
<g>
	<g>
		<polygon class="st21" points="68.3,264.1 55.3,259.5 55.3,240.5 68.3,244.9 		"/>
		<polygon class="st21" points="70.7,264.1 83.6,259.5 83.6,240.5 70.7,244.9 		"/>
		<polygon class="st21" points="56.7,239.1 69.8,235.5 81.9,239.3 69.8,243.4 		"/>
	</g>
	<g>
		<polygon class="st21" points="52.9,237.7 40,233 40,214.1 52.9,218.5 		"/>
		<polygon class="st21" points="55.3,237.7 68.2,233 68.2,214.1 55.3,218.5 		"/>
		<polygon class="st21" points="41.3,212.7 54.4,209 66.6,212.9 54.4,217 		"/>
	</g>
	<g>
		<polygon class="st21" points="83.1,237.7 70.2,233 70.2,214.1 83.1,218.5 		"/>
		<polygon class="st21" points="85.5,237.7 98.4,233 98.4,214.1 85.5,218.5 		"/>
		<polygon class="st21" points="71.5,212.7 84.5,209 96.7,212.9 84.5,217 		"/>
	</g>
	<g>
		<polygon class="st21" points="98.5,211.2 85.6,206.5 85.6,187.6 98.5,192 		"/>
		<polygon class="st21" points="100.8,211.2 113.8,206.5 113.8,187.6 100.8,192 		"/>
		<polygon class="st21" points="86.9,186.2 100,182.5 112.1,186.4 100,190.5 		"/>
	</g>
	<g>
		<polygon class="st21" points="128.6,211.2 115.7,206.5 115.7,187.6 128.6,192 		"/>
		<polygon class="st21" points="131,211.2 144,206.5 144,187.6 131,192 		"/>
		<polygon class="st21" points="117,186.2 130.1,182.5 142.3,186.4 130.1,190.5 		"/>
	</g>
	<g>
		<polygon class="st22" points="119.8,251.3 116.8,261.6 113.7,251.3 111.3,251.3 108.5,261.4 105.6,251.3 102.3,251.3 107.1,267.3 
			109.7,267.3 112.5,257.3 115.5,267.3 118.1,267.3 122.7,251.3 		"/>
		<path class="st22" d="M136.9,259.6c0-2.8-0.7-5-1.9-6.4c-1.3-1.5-3-2.2-5.1-2.2c-2.1,0-3.9,0.8-5.3,2.4c-1.4,1.6-2.1,3.6-2.1,6.1
			c0,2.5,0.7,4.5,2,6c1.3,1.6,3.2,2.4,5.3,2.4c1.7,0,3.1-0.4,4.3-1.3s2.1-2,2.5-3.4l0.2-0.4l-3-0.6l-0.2,0.4
			c-0.7,1.8-1.9,2.7-3.7,2.7c-1,0-1.8-0.4-2.7-1.1c-0.8-0.7-1.2-1.9-1.2-3.9h11L136.9,259.6z M126.2,257.4c0.2-1.1,0.5-1.9,1.2-2.6
			c0.7-0.8,1.6-1.1,2.6-1.1c0.8,0,1.4,0.2,1.9,0.6c0.5,0.4,1,0.9,1.1,1.5c0.2,0.5,0.4,1.1,0.4,1.7L126.2,257.4L126.2,257.4z"/>
		<path class="st22" d="M146.4,250.9c-1.6,0-3,0.6-4,1.9V246h-3.2v21.2h1.8l0.6-1.9c1.1,1.6,2.7,2.4,4.6,2.4c2,0,3.6-0.8,4.8-2.5
			c1.2-1.6,1.8-3.6,1.8-5.9c0-2.7-0.6-4.8-1.8-6.2C149.8,251.7,148.2,250.9,146.4,250.9z M149.6,259.6c0,1.7-0.4,3.1-1.1,4
			c-0.6,1-1.5,1.4-2.5,1.4c-0.9,0-1.6-0.4-2.4-1c-0.7-0.6-1.1-1.7-1.2-3.1v-3.3c0.2-1.1,0.5-2.1,1.3-2.8c0.7-0.7,1.5-1.1,2.4-1.1
			c1.1,0,1.9,0.4,2.5,1.5C149.3,256.2,149.6,257.7,149.6,259.6z"/>
		<path class="st22" d="M166.8,257.7l-3-0.5c-1.8-0.4-2-1.1-2-1.7c0-0.5,0.3-1,0.7-1.3c0.5-0.4,1.2-0.5,2.1-0.5
			c1.8,0,2.8,0.7,3.4,2.1l0.2,0.4l3-0.6l-0.2-0.4c-0.8-2.7-3-4.1-6.5-4.1c-1.8,0-3.2,0.4-4.4,1.4c-1.1,1-1.7,2.1-1.7,3.5
			c0,1.2,0.4,2.3,1.2,3.1c0.8,0.8,1.8,1.2,3.2,1.5l3.2,0.6c2.2,0.4,2.2,1.5,2.2,1.8c0,0.6-0.3,1.1-0.8,1.5c-0.6,0.4-1.3,0.6-2.3,0.6
			c-2.5,0-3.9-0.8-4.3-2.5l-0.1-0.4l-3.2,0.6l0.2,0.4c0.9,3.1,3.2,4.6,7,4.6c2,0,3.6-0.4,4.8-1.4c1.2-1,1.9-2.2,1.9-3.7
			C171.8,260,170.2,258.3,166.8,257.7z"/>
		<path class="st22" d="M186.8,259.6c0-2.8-0.7-5-1.9-6.4c-1.3-1.5-3-2.2-5.1-2.2s-3.9,0.8-5.3,2.4c-1.4,1.6-2.1,3.6-2.1,6.1
			c0,2.5,0.7,4.5,2,6c1.3,1.6,3.2,2.4,5.3,2.4c1.7,0,3.1-0.4,4.3-1.3c1.2-0.9,2.1-2,2.5-3.4l0.2-0.4l-3-0.6l-0.2,0.4
			c-0.7,1.8-1.9,2.7-3.7,2.7c-1,0-1.8-0.4-2.7-1.1c-0.8-0.7-1.2-1.9-1.2-3.9h11L186.8,259.6z M175.9,257.4c0.2-1.1,0.5-1.9,1.2-2.6
			c0.7-0.8,1.6-1.1,2.6-1.1c0.8,0,1.4,0.2,1.9,0.6c0.5,0.4,1,0.9,1.1,1.5c0.2,0.5,0.4,1.1,0.4,1.7L175.9,257.4L175.9,257.4z"/>
		<path class="st22" d="M195.3,250.9c-0.9,0-1.7,0.3-2.5,0.8c-0.5,0.4-1.1,0.9-1.5,1.8v-2.1h-2.9v16h3.2v-8.4
			c0.1-1.5,0.4-2.6,1.2-3.5c0.8-0.9,1.8-1.3,2.9-1.3h0.9V251h-0.4C195.9,251,195.6,250.9,195.3,250.9z"/>
		<polygon class="st22" points="204.6,262.7 200.7,251.3 197.2,251.3 202.9,267.3 206,267.3 211.5,251.3 208.5,251.3 		"/>
		<rect x="212.3" y="246.1" class="st22" width="3.4" height="3.5"/>
		<rect x="212.4" y="251.3" class="st22" width="3.2" height="16"/>
		<path class="st22" d="M227,261.5c-0.4,2.3-1.6,3.4-3.2,3.4c-1.1,0-1.9-0.4-2.5-1.4c-0.6-1-1-2.5-1-4.3c0-1.7,0.4-3,1-4
			c0.6-1,1.5-1.4,2.6-1.4c1.8,0,2.8,1.1,3.2,3.3l0.1,0.4l3-0.5l-0.1-0.4c-0.3-1.7-0.9-3-1.9-4s-2.5-1.6-4.3-1.6
			c-2.1,0-3.8,0.8-5.1,2.5c-1.2,1.6-1.8,3.6-1.8,6c0,2.3,0.6,4.3,1.8,5.9c1.1,1.7,2.9,2.5,5.1,2.5c1.7,0,3.1-0.5,4.1-1.5
			c1.1-1,1.8-2.4,2.1-4.1l0.1-0.4l-3-0.5V261.5z"/>
		<path class="st22" d="M245.7,259.6c0-2.8-0.7-5-1.9-6.4c-1.3-1.5-3-2.2-5.1-2.2s-3.9,0.8-5.3,2.4c-1.4,1.6-2.1,3.6-2.1,6.1
			c0,2.5,0.7,4.5,2,6c1.3,1.6,3.2,2.4,5.3,2.4c1.7,0,3.1-0.4,4.3-1.3c1.2-0.9,2.1-2,2.5-3.4l0.2-0.4l-3-0.6l-0.2,0.4
			c-0.7,1.8-1.9,2.7-3.7,2.7c-1,0-1.8-0.4-2.7-1.1c-0.8-0.7-1.2-1.9-1.2-3.9h11L245.7,259.6z M234.9,257.4c0.2-1.1,0.5-1.9,1.2-2.6
			c0.7-0.8,1.6-1.1,2.6-1.1c0.8,0,1.4,0.2,1.9,0.6c0.5,0.4,1,0.9,1.1,1.5c0.2,0.5,0.4,1.1,0.4,1.7L234.9,257.4L234.9,257.4z"/>
		<path class="st22" d="M255,257.7l-3-0.5c-1.8-0.4-2-1.1-2-1.7c0-0.5,0.3-1,0.7-1.3c0.5-0.4,1.2-0.5,2.1-0.5c1.8,0,2.8,0.7,3.4,2.1
			l0.2,0.4l3-0.6l-0.2-0.4c-0.8-2.7-3-4.1-6.5-4.1c-1.8,0-3.2,0.4-4.4,1.4c-1.1,1-1.7,2.1-1.7,3.5c0,1.2,0.4,2.3,1.2,3.1
			c0.8,0.8,1.8,1.2,3.2,1.5l3.2,0.6c2.2,0.4,2.2,1.5,2.2,1.8c0,0.6-0.3,1.1-0.8,1.5c-0.6,0.4-1.3,0.6-2.3,0.6
			c-2.5,0-3.9-0.8-4.3-2.5L249,262l-3.2,0.6l0.2,0.4c0.9,3.1,3.2,4.6,7,4.6c2,0,3.6-0.4,4.8-1.4c1.2-1,1.9-2.2,1.9-3.7
			C260,260,258.3,258.3,255,257.7z"/>
	</g>
	<path class="st22" d="M193.6,219.5v-3.6c0-0.5,0.4-0.9,0.9-0.9h16.2c0.5,0,1,0.4,1,0.9v3.1c0,0.5-0.4,1.2-1.2,2.3l-8.4,12
		c3.2-0.1,6.4,0.4,9.3,2c0.6,0.4,0.8,0.9,0.9,1.4v3.9c0,0.5-0.6,1.1-1.2,0.8c-5-2.6-11.7-2.9-17.2,0c-0.5,0.3-1.1-0.3-1.1-0.9v-3.7
		c0-0.6,0-1.6,0.6-2.5l9.7-14h-8.5C194.1,220.5,193.6,220.1,193.6,219.5z"/>
	<path class="st22" d="M135.5,242.2h-4.9c-0.4,0-0.9-0.4-0.9-0.9V216c0-0.5,0.4-0.9,1-0.9h4.6c0.4,0,0.9,0.4,0.9,0.9v3.3h0.1
		c1.2-3.2,3.4-4.7,6.5-4.7c3.1,0,5,1.5,6.4,4.7c1.2-3.2,3.9-4.7,6.8-4.7c2.1,0,4.3,0.9,5.7,2.8c1.6,2.1,1.2,5.3,1.2,8v16
		c0,0.5-0.4,0.9-1,0.9h-4.9c-0.5,0-0.9-0.4-0.9-0.9V228c0-1.1,0.1-3.8-0.2-4.7c-0.4-1.7-1.5-2.2-2.9-2.2c-1.2,0-2.5,0.8-3,2.1
		c-0.5,1.3-0.4,3.4-0.4,4.8v13.4c0,0.5-0.4,0.9-1,0.9h-4.9c-0.5,0-0.9-0.4-0.9-0.9V228c0-2.8,0.4-7-3.1-7c-3.6,0-3.4,4-3.4,7v13.4
		C136.5,241.8,136.1,242.2,135.5,242.2z"/>
	<path class="st22" d="M223.7,214.5c7.3,0,11.2,6.3,11.2,14.3c0,7.7-4.4,13.8-11.2,13.8c-7.1,0-11-6.3-11-14.1
		C212.7,220.7,216.6,214.5,223.7,214.5z M223.7,220.4c-3.6,0-3.9,5-3.9,8.1c0,3.1-0.1,9,3.8,9c3.8,0,3.9-4.6,3.9-8
		c0-2.1-0.1-4.7-0.7-6.7C226.3,221.1,225.3,220.4,223.7,220.4z"/>
	<path class="st22" d="M245.5,242.2h-4.9c-0.5,0-0.9-0.4-0.9-0.9V216c0-0.4,0.4-0.8,1-0.8h4.6c0.4,0,0.8,0.4,0.9,0.7v3.9h0.1
		c1.4-3.5,3.3-5.1,6.7-5.1c2.2,0,4.4,0.8,5.8,3c1.3,2,1.3,5.4,1.3,7.9v16c-0.1,0.4-0.4,0.8-1,0.8h-5c-0.4,0-0.8-0.4-0.9-0.8v-13.9
		c0-2.8,0.4-6.8-3.1-6.8c-1.2,0-2.3,0.8-2.9,2c-0.7,1.6-0.8,3.1-0.8,4.8v13.7C246.4,241.8,246,242.2,245.5,242.2z"/>
	<path class="st22" d="M190.1,237.4c-0.9-1.2-1.8-2.3-1.8-4.6v-7.7c0-3.2,0.2-6.2-2.2-8.5c-1.9-1.8-5.1-2.5-7.5-2.5
		c-4.7,0-9.9,1.8-11,7.5c-0.2,0.6,0.3,1,0.7,1.1l4.8,0.5c0.4,0,0.8-0.4,0.9-0.9c0.4-2,2-3,3.9-3c1.1,0,2.2,0.4,2.8,1.3
		c0.7,1.1,0.6,2.5,0.6,3.6v0.6c-2.9,0.4-6.6,0.6-9.3,1.8c-3.1,1.3-5.3,4-5.3,8.1c0,5.2,3.2,7.7,7.4,7.7c3.5,0,5.4-0.8,8.2-3.6
		c0.9,1.3,1.1,1.9,2.8,3.3c0.4,0.3,0.8,0.2,1.1-0.1c1-0.9,2.7-2.5,3.9-3.4C190.5,238.4,190.5,237.8,190.1,237.4z M180.3,235.3
		c-0.8,1.4-2,2.3-3.4,2.3c-1.9,0-3-1.4-3-3.6c0-4.2,3.8-5,7.4-5v1.1C181.3,232,181.4,233.5,180.3,235.3z"/>
	<path class="st22" d="M125.9,237.4c-0.9-1.2-1.8-2.3-1.8-4.6v-7.7c0-3.2,0.2-6.2-2.2-8.5c-1.9-1.8-5.1-2.5-7.5-2.5
		c-4.7,0-9.9,1.8-11,7.5c-0.2,0.6,0.3,1,0.7,1.1l4.8,0.5c0.4,0,0.8-0.4,0.9-0.9c0.4-2,2-3,3.9-3c1.1,0,2.2,0.4,2.8,1.3
		c0.7,1.1,0.6,2.5,0.6,3.6v0.6c-2.9,0.4-6.6,0.6-9.3,1.8c-3.1,1.3-5.3,4-5.3,8.1c0,5.2,3.2,7.7,7.4,7.7c3.5,0,5.4-0.8,8.2-3.6
		c0.9,1.3,1.1,1.9,2.8,3.3c0.4,0.3,0.8,0.2,1.1-0.1c1-0.9,2.8-2.5,3.9-3.4C126.2,238.4,126.2,237.8,125.9,237.4z M116.1,235.3
		c-0.8,1.4-2,2.3-3.4,2.3c-1.9,0-3-1.4-3-3.6c0-4.2,3.8-5,7.4-5v1.1C117,232,117.1,233.5,116.1,235.3z"/>
</g>
</svg>
