<svg id="Layer_1" data-name="Layer 1" xmlns="http://www.w3.org/2000/svg" viewBox="0 0 430 237.81"><title>integrations-aws</title><path d="M28.08,232.95v-12.6h9.51v2.47H30.84v2.56h5.94v2.47H30.84v2.65h6.84v2.47h-9.6Z"/><path d="M46,233.16a6.36,6.36,0,0,1-6.46-6.48v0a6.41,6.41,0,0,1,6.57-6.52,6.5,6.5,0,0,1,5,1.94l-1.76,2a4.65,4.65,0,0,0-3.22-1.42,3.73,3.73,0,0,0-3.65,3.92v0a3.74,3.74,0,0,0,3.65,4,4.55,4.55,0,0,0,3.31-1.48l1.76,1.78A6.45,6.45,0,0,1,46,233.16Z"/><path d="M57.91,233.13a8,8,0,0,1-5.35-2l1.64-2A5.78,5.78,0,0,0,58,230.68c1.13,0,1.82-.45,1.82-1.19v0c0-.7-0.43-1.06-2.54-1.6-2.54-.65-4.18-1.35-4.18-3.85v0c0-2.29,1.84-3.8,4.41-3.8a7.3,7.3,0,0,1,4.68,1.6l-1.44,2.09a5.91,5.91,0,0,0-3.28-1.24c-1.06,0-1.62.49-1.62,1.1v0c0,0.83.54,1.1,2.72,1.66,2.56,0.67,4,1.58,4,3.78v0C62.54,231.72,60.63,233.13,57.91,233.13Z"/><g id="Layer_1-2" data-name="Layer 1"><polygon points="16.6 142.99 13.2 144.69 13.2 192.69 16.6 194.39 30 169.69 16.6 142.99" style="fill:#9d5025"/><polygon points="27 151.59 32 144.49 54.5 154.49 49.2 155.39 27 151.59" style="fill:#9d5025"/><polygon points="23.1 186.29 28.6 193.89 54.5 182.69 49.5 181.89 23.1 186.29" style="fill:#9d5025"/><polygon points="24.5 192.59 16.6 194.39 16.6 142.99 24.5 144.79 24.5 192.59" style="fill:#f58536"/><polygon points="20.3 141.09 24.5 138.99 32.4 171.99 24.5 198.39 20.3 196.29 20.3 141.09" style="fill:#9d5025"/><polygon points="49.2 181.89 54.5 182.69 59.3 169.19 54.5 154.49 49.2 155.39 49.2 181.89" style="fill:#9d5025"/><polygon points="32.6 196.09 24.5 198.39 24.5 138.99 32.6 141.29 32.6 196.09" style="fill:#f58536"/><polygon points="60 181.69 24.5 188.29 24.5 198.39 60 188.39 60 181.69" style="fill:#f58536"/><polygon points="60.1 155.59 24.5 148.79 24.5 138.99 60.1 149.09 60.1 155.59" style="fill:#f58536"/><polygon points="54.5 147.49 60.2 149.09 60.2 188.39 54.5 189.99 54.5 147.49" style="fill:#f58536"/><polygon points="76.8 163.49 61.6 164.19 56.2 163.89 71.6 151.39 76.8 163.49" style="fill:#6b3a19"/><polygon points="56.2 163.89 71.6 162.99 71.6 151.39 56.2 153.89 56.2 163.89" style="fill:#9d5025"/><polygon points="41.7 162.89 57.3 147.09 65.2 162.29 49 163.39 41.7 162.89" style="fill:#6b3a19"/><polygon points="41.7 162.89 57.3 161.59 57.3 147.09 41.7 150.79 41.7 162.89" style="fill:#9d5025"/><polygon points="56.2 173.69 76.8 174.09 71.6 186.19 56.2 183.69 56.2 173.69" style="fill:#9d5025"/><polygon points="41.7 174.69 65.2 175.29 57.3 190.49 41.7 186.79 41.7 174.69" style="fill:#9d5025"/><polygon points="41.7 174.69 57.3 176.09 65.2 175.29 49 174.19 41.7 174.69" style="fill:#fbbf93"/><polygon points="76.8 174.09 61.6 173.39 56.2 173.69 71.6 174.59 76.8 174.09" style="fill:#fbbf93"/><polygon points="71.6 162.99 76.8 163.49 76.8 152.99 71.6 151.39 71.6 162.99" style="fill:#f58536"/><polygon points="65.2 162.29 57.3 161.59 57.3 147.09 65.2 149.49 65.2 162.29" style="fill:#f58536"/><polygon points="71.6 174.59 76.8 174.09 76.8 184.59 71.6 186.19 71.6 174.59" style="fill:#f58536"/><polygon points="65.2 175.29 57.3 176.09 57.3 190.49 65.2 188.09 65.2 175.29" style="fill:#f58536"/></g><path d="M128.23,232.95v-12.6h9.51v2.47H131v2.56h5.94v2.47H131v2.65h6.84v2.47h-9.6Z"/><path d="M146.2,233.16a6.36,6.36,0,0,1-6.46-6.48v0a6.41,6.41,0,0,1,6.57-6.52,6.5,6.5,0,0,1,5,1.94l-1.76,2a4.65,4.65,0,0,0-3.22-1.42,3.73,3.73,0,0,0-3.65,3.92v0a3.74,3.74,0,0,0,3.65,4,4.55,4.55,0,0,0,3.31-1.48l1.76,1.78A6.45,6.45,0,0,1,146.2,233.16Z"/><path d="M155.05,224.34l-1.95-1.57c1.24-1.69,2.45-2.61,4.7-2.61,2.68,0,4.34,1.55,4.34,3.91,0,2.11-1.08,3.17-3.31,4.9l-2.05,1.58h5.49v2.39h-9.33v-2.2l4.2-3.44c1.57-1.3,2.18-2,2.18-3a1.55,1.55,0,0,0-1.69-1.64C156.66,222.65,156,223.19,155.05,224.34Z"/><g id="Layer_1-3" data-name="Layer 1"><polygon points="114.3 142.89 110.9 144.59 110.9 192.79 114.3 194.49 128.2 169.99 114.3 142.89" style="fill:#9d5025"/><polygon points="122.3 192.69 114.3 194.49 114.3 142.89 122.3 144.69 122.3 192.69" style="fill:#f58536"/><polygon points="118.1 140.99 122.3 138.89 142.3 170.89 122.3 198.49 118.1 196.39 118.1 140.99" style="fill:#9d5025"/><polygon points="132.2 195.69 122.3 198.49 122.3 138.89 132.2 141.69 132.2 195.69" style="fill:#f58536"/><polygon points="127 136.49 132.2 133.89 161.7 174.39 132.2 203.49 127 200.89 127 136.49" style="fill:#9d5025"/><polygon points="145 198.79 132.2 203.49 132.2 133.89 145 138.59 145 198.79" style="fill:#f58536"/><polygon points="138.2 130.89 145 127.49 176.8 170.99 145 209.89 138.2 206.49 138.2 130.89" style="fill:#9d5025"/><polygon points="179.1 192.79 145 209.89 145 127.49 179.1 144.59 179.1 192.79" style="fill:#f58536"/></g><path d="M235,232.95l-2.7-4h-2.18v4H227.3v-12.6h5.76c3,0,4.75,1.57,4.75,4.16v0a3.91,3.91,0,0,1-2.7,3.91l3.08,4.5H235Zm0.05-8.3c0-1.19-.83-1.8-2.18-1.8h-2.75v3.62h2.81c1.35,0,2.13-.72,2.13-1.78v0Z"/><path d="M245.23,232.95h-4.92v-12.6h4.92c4,0,6.7,2.72,6.7,6.27v0C251.92,230.19,249.19,232.95,245.23,232.95Zm3.8-6.3a3.62,3.62,0,0,0-3.8-3.8h-2.14v7.6h2.14a3.59,3.59,0,0,0,3.8-3.76v0Z"/><path d="M258.69,233.13a8,8,0,0,1-5.35-2l1.64-2a5.78,5.78,0,0,0,3.76,1.53c1.13,0,1.82-.45,1.82-1.19v0c0-.7-0.43-1.06-2.54-1.6-2.54-.65-4.18-1.35-4.18-3.85v0c0-2.29,1.84-3.8,4.41-3.8a7.3,7.3,0,0,1,4.68,1.6l-1.44,2.09a5.91,5.91,0,0,0-3.28-1.24c-1.06,0-1.62.49-1.62,1.1v0c0,0.83.54,1.1,2.72,1.66,2.56,0.67,4,1.58,4,3.78v0C263.32,231.72,261.41,233.13,258.69,233.13Z"/><g id="Layer_1-4" data-name="Layer 1"><polygon points="277 148.59 269 139.79 257.7 168.69 269 197.59 277 188.79 277 148.59" style="fill:#2e73b8"/><polygon points="255 204.69 269 197.59 269 139.79 255 132.69 238.4 168.69 255 204.69" style="fill:#5294cf"/><polygon points="235 204.69 255 204.69 255 132.69 235 132.69 223 168.69 235 204.69" style="fill:#2e73b8"/><polygon points="221 197.59 235 204.69 235 132.69 221 139.79 214.8 168.69 221 197.59" style="fill:#205b99"/><polygon points="213 188.79 221 197.59 221 139.79 213 148.59 213 188.79" style="fill:#19486f"/></g><path d="M316.3,233.16a6.36,6.36,0,0,1-6.46-6.48v0a6.41,6.41,0,0,1,6.57-6.52,6.5,6.5,0,0,1,5,1.94l-1.76,2a4.65,4.65,0,0,0-3.22-1.42,3.73,3.73,0,0,0-3.65,3.92v0a3.74,3.74,0,0,0,3.65,4,4.55,4.55,0,0,0,3.31-1.48l1.76,1.78A6.45,6.45,0,0,1,316.3,233.16Z"/><path d="M323.52,232.95V219.8h2.74v13.14h-2.74Z"/><path d="M333.57,233.16a5,5,0,0,1-5.2-5v0a5.23,5.23,0,0,1,10.44,0v0A5.06,5.06,0,0,1,333.57,233.16Zm2.54-5a2.56,2.56,0,0,0-2.54-2.67,2.47,2.47,0,0,0-2.5,2.63v0a2.56,2.56,0,0,0,2.54,2.67,2.47,2.47,0,0,0,2.5-2.63v0Z"/><path d="M346.81,232.95v-1.37a3.41,3.41,0,0,1-2.83,1.55c-2.07,0-3.28-1.37-3.28-3.58V223.3h2.74v5.38c0,1.3.61,2,1.66,2a1.68,1.68,0,0,0,1.71-2V223.3h2.74v9.65h-2.74Z"/><path d="M359,232.95v-1.39a3.54,3.54,0,0,1-3,1.57c-2.25,0-4.39-1.76-4.39-5v0c0-3.22,2.11-5,4.39-5a3.71,3.71,0,0,1,3,1.44V219.8h2.74v13.14H359Zm0-4.84a2.37,2.37,0,1,0-4.7,0v0a2.37,2.37,0,1,0,4.7,0v0Z"/><path d="M378.28,233h-2.41L373,224.79,370.18,233h-2.41l-4.3-12.69h3l2.61,8.53,2.83-8.57h2.38l2.83,8.57,2.61-8.53h2.9Z"/><path d="M388.74,232.95v-1a3.71,3.71,0,0,1-2.92,1.22c-1.82,0-3.31-1-3.31-3v0c0-2.11,1.6-3.08,3.89-3.08a6.85,6.85,0,0,1,2.36.4v-0.16c0-1.13-.7-1.76-2.07-1.76a7.12,7.12,0,0,0-2.67.52L383.33,224a8.51,8.51,0,0,1,3.75-.77c3,0,4.3,1.55,4.3,4.16v5.6h-2.65Zm0.05-3.89a4.25,4.25,0,0,0-1.75-.36c-1.17,0-1.89.47-1.89,1.33v0a1.27,1.27,0,0,0,1.49,1.17c1.28,0,2.14-.7,2.14-1.69v-0.49Z"/><path d="M396.91,233.11c-1.67,0-2.81-.67-2.81-2.9v-4.57h-1.15V223.3h1.15v-2.47h2.74v2.47h2.27v2.34h-2.27v4.12a0.79,0.79,0,0,0,.88.94,2.78,2.78,0,0,0,1.35-.34v2.2A4,4,0,0,1,396.91,233.11Z"/><path d="M405.4,233.16a4.93,4.93,0,0,1-5-5v0a5,5,0,0,1,5.06-5,4.74,4.74,0,0,1,3.85,1.62l-1.67,1.8a2.82,2.82,0,0,0-2.2-1.06,2.47,2.47,0,0,0-2.34,2.63v0a2.47,2.47,0,0,0,2.45,2.67,3.06,3.06,0,0,0,2.21-1l1.6,1.62A4.86,4.86,0,0,1,405.4,233.16Z"/><path d="M417.23,232.95v-5.38c0-1.3-.61-2-1.66-2a1.68,1.68,0,0,0-1.71,2v5.38h-2.74V219.8h2.74v4.86a3.42,3.42,0,0,1,2.83-1.55c2.07,0,3.28,1.37,3.28,3.58v6.25h-2.74Z"/><polygon points="401.4 184.19 365 178.79 328.6 184.19 365 209.89 401.4 184.19" style="fill:#b7ca9d"/><polygon points="335.9 183.59 342 185.39 356.5 163.29 342 141.09 335.9 143.39 335.9 183.59" style="fill:#4b612c"/><polygon points="363.8 181.69 342 185.49 342 141.09 363.8 145.99 363.8 181.69" style="fill:#759c3e"/><polygon points="354.1 189.09 345.6 186.59 345.6 131.79 354.1 127.49 379.3 159.99 354.1 189.09" style="fill:#4b612c"/><polygon points="383.2 182.39 354.1 189.19 354.1 127.49 383.2 138.89 383.2 182.39" style="fill:#759c3e"/><polygon points="365 197.09 328.6 184.19 328.6 191.69 365 209.89 365 197.09" style="fill:#4b612c"/><polygon points="401.4 191.69 365 209.89 365 197.09 401.4 184.19 401.4 191.69" style="fill:#759c3e"/><polygon points="391.2 171.79 382.3 171.79 357.2 173.49 365 192.39 391.2 171.79" style="fill:#b7ca9d"/><polygon points="357.2 189.99 365 192.39 365 174.29 357.2 173.49 357.2 189.99" style="fill:#4b612c"/><polygon points="391.2 171.79 365 174.29 365 192.39 391.2 184.49 391.2 171.79" style="fill:#759c3e"/><polygon points="121.8 93.1 107 87.8 107 66.2 121.8 71.2 121.8 93.1" style="fill:#f8991d"/><polygon points="124.5 93.1 139.3 87.8 139.3 66.2 124.5 71.2 124.5 93.1" style="fill:#f8991d"/><polygon points="108.6 64.6 123.5 60.4 137.3 64.8 123.5 69.5 108.6 64.6" style="fill:#f8991d"/><polygon points="104.2 62.9 89.5 57.6 89.5 36 104.2 41 104.2 62.9" style="fill:#f8991d"/><polygon points="106.9 62.9 121.7 57.6 121.7 36 106.9 41 106.9 62.9" style="fill:#f8991d"/><polygon points="91 34.4 105.9 30.2 119.8 34.6 105.9 39.3 91 34.4" style="fill:#f8991d"/><polygon points="138.7 62.9 123.9 57.6 123.9 36 138.7 41 138.7 62.9" style="fill:#f8991d"/><polygon points="141.4 62.9 156.1 57.6 156.1 36 141.4 41 141.4 62.9" style="fill:#f8991d"/><polygon points="125.4 34.4 140.3 30.2 154.2 34.6 140.3 39.3 125.4 34.4" style="fill:#f8991d"/><polygon points="156.2 32.7 141.5 27.4 141.5 5.8 156.2 10.8 156.2 32.7" style="fill:#f8991d"/><polygon points="158.9 32.7 173.7 27.4 173.7 5.8 158.9 10.8 158.9 32.7" style="fill:#f8991d"/><polygon points="143 4.2 157.9 0 171.8 4.4 157.9 9.1 143 4.2" style="fill:#f8991d"/><polygon points="190.6 32.7 175.9 27.4 175.9 5.8 190.6 10.8 190.6 32.7" style="fill:#f8991d"/><polygon points="193.3 32.7 208.1 27.4 208.1 5.8 193.3 10.8 193.3 32.7" style="fill:#f8991d"/><polygon points="177.4 4.2 192.3 0 206.2 4.4 192.3 9.1 177.4 4.2" style="fill:#f8991d"/><polygon points="180.6 78.5 177.1 90.2 173.6 78.5 170.9 78.5 167.7 90 164.3 78.5 160.6 78.5 166.1 96.7 169 96.7 172.2 85.3 175.6 96.7 178.6 96.7 183.8 78.5 180.6 78.5" style="fill:#010101"/><path d="M200.1,87.9c0-3.2-.8-5.7-2.2-7.3a7.29,7.29,0,0,0-5.8-2.5,7.9,7.9,0,0,0-6.1,2.7,11.31,11.31,0,0,0-.1,13.8,7.61,7.61,0,0,0,6.1,2.7,8.14,8.14,0,0,0,4.9-1.5,6.83,6.83,0,0,0,2.8-3.9l0.2-.5-3.4-.7-0.2.4a4.23,4.23,0,0,1-4.2,3.1A4.85,4.85,0,0,1,189,93c-0.9-.8-1.4-2.2-1.4-4.4h12.5V87.9Zm-12.3-2.5a5.26,5.26,0,0,1,1.4-3,3.8,3.8,0,0,1,3-1.3,3.23,3.23,0,0,1,2.2.7,3.56,3.56,0,0,1,1.3,1.7,5.85,5.85,0,0,1,.4,1.9h-8.3Z" style="fill:#010101"/><path d="M210.9,78a5.68,5.68,0,0,0-4.6,2.2V72.4h-3.7V96.6h2.1l0.7-2.2a6.19,6.19,0,0,0,5.2,2.7,6.44,6.44,0,0,0,5.5-2.8,10.71,10.71,0,0,0,2.1-6.7c0-3.1-.7-5.5-2.1-7.1A6.54,6.54,0,0,0,210.9,78Zm3.6,9.9a7.84,7.84,0,0,1-1.2,4.6,3.26,3.26,0,0,1-2.9,1.6,4.25,4.25,0,0,1-2.7-1.1,4.94,4.94,0,0,1-1.4-3.5V85.7a5.07,5.07,0,0,1,1.5-3.2,3.73,3.73,0,0,1,2.7-1.2,3.06,3.06,0,0,1,2.9,1.7A8.48,8.48,0,0,1,214.5,87.9Z" style="fill:#010101"/><path d="M234.2,85.8l-3.4-.6c-2-.4-2.3-1.3-2.3-1.9a1.9,1.9,0,0,1,.8-1.5,4.27,4.27,0,0,1,2.4-.6,3.8,3.8,0,0,1,3.9,2.4l0.2,0.4,3.4-.7-0.2-.5c-0.9-3.1-3.4-4.7-7.4-4.7a7.33,7.33,0,0,0-5,1.6,5,5,0,0,0-1.9,4,4.83,4.83,0,0,0,1.4,3.5,6.75,6.75,0,0,0,3.6,1.7l3.6,0.7c2.5,0.5,2.5,1.7,2.5,2.1a2,2,0,0,1-.9,1.7,5,5,0,0,1-2.6.7c-2.8,0-4.4-.9-4.9-2.9l-0.1-.5-3.6.7,0.2,0.5c1,3.5,3.7,5.3,8,5.3a8.57,8.57,0,0,0,5.5-1.6,5.22,5.22,0,0,0,2.2-4.2C239.9,88.4,238,86.5,234.2,85.8Z" style="fill:#010101"/><path d="M257,87.9c0-3.2-.8-5.7-2.2-7.3a7.29,7.29,0,0,0-5.8-2.5,7.9,7.9,0,0,0-6.1,2.7,11.31,11.31,0,0,0-.1,13.8,7.61,7.61,0,0,0,6.1,2.7,8.14,8.14,0,0,0,4.9-1.5,6.83,6.83,0,0,0,2.8-3.9l0.2-.5-3.4-.7-0.2.4a4.23,4.23,0,0,1-4.2,3.1,4.85,4.85,0,0,1-3.1-1.2c-0.9-.8-1.4-2.2-1.4-4.4H257V87.9Zm-12.4-2.5a5.26,5.26,0,0,1,1.4-3,3.8,3.8,0,0,1,3-1.3,3.23,3.23,0,0,1,2.2.7,3.56,3.56,0,0,1,1.3,1.7,5.85,5.85,0,0,1,.4,1.9h-8.3Z" style="fill:#010101"/><path d="M266.7,78a4.9,4.9,0,0,0-2.8.9,5,5,0,0,0-1.7,2V78.5h-3.3V96.7h3.7V87.1a6.23,6.23,0,0,1,1.4-4,4.27,4.27,0,0,1,3.3-1.5h1V78.1h-0.5C267.4,78.1,267,78,266.7,78Z" style="fill:#010101"/><polygon points="277.3 91.5 272.9 78.5 268.9 78.5 275.4 96.7 278.9 96.7 285.2 78.5 281.7 78.5 277.3 91.5" style="fill:#010101"/><rect x="286.1" y="72.5" width="3.9" height="4" style="fill:#010101"/><rect x="286.2" y="78.5" width="3.7" height="18.2" style="fill:#010101"/><path d="M302.9,90.1c-0.5,2.6-1.8,3.9-3.7,3.9a3.15,3.15,0,0,1-2.9-1.6,9.35,9.35,0,0,1-1.1-4.9,8.94,8.94,0,0,1,1.1-4.6,3.31,3.31,0,0,1,3-1.6c2,0,3.2,1.3,3.6,3.8l0.1,0.5,3.4-.6-0.1-.5a8,8,0,0,0-2.2-4.6,6.73,6.73,0,0,0-4.9-1.8,7,7,0,0,0-5.8,2.8,10.81,10.81,0,0,0-2.1,6.8,11.31,11.31,0,0,0,2,6.7,6.61,6.61,0,0,0,5.8,2.8,6.77,6.77,0,0,0,4.7-1.7,7.87,7.87,0,0,0,2.4-4.7l0.1-.5-3.4-.6v0.4Z" style="fill:#010101"/><path d="M324.2,87.9c0-3.2-.8-5.7-2.2-7.3a7.29,7.29,0,0,0-5.8-2.5,7.9,7.9,0,0,0-6.1,2.7,11.31,11.31,0,0,0-.1,13.8,7.61,7.61,0,0,0,6.1,2.7,8.14,8.14,0,0,0,4.9-1.5,6.83,6.83,0,0,0,2.8-3.9l0.2-.5-3.4-.7-0.2.4a4.23,4.23,0,0,1-4.2,3.1,4.85,4.85,0,0,1-3.1-1.2c-0.9-.8-1.4-2.2-1.4-4.4h12.5V87.9Zm-12.3-2.5a5.26,5.26,0,0,1,1.4-3,3.8,3.8,0,0,1,3-1.3,3.23,3.23,0,0,1,2.2.7,3.56,3.56,0,0,1,1.3,1.7,5.85,5.85,0,0,1,.4,1.9h-8.3Z" style="fill:#010101"/><path d="M334.8,85.8l-3.4-.6c-2-.4-2.3-1.3-2.3-1.9a1.9,1.9,0,0,1,.8-1.5,4.27,4.27,0,0,1,2.4-.6,3.8,3.8,0,0,1,3.9,2.4l0.2,0.4,3.4-.7-0.2-.5c-0.9-3.1-3.4-4.7-7.4-4.7a7.33,7.33,0,0,0-5,1.6,5,5,0,0,0-1.9,4,4.83,4.83,0,0,0,1.4,3.5,6.75,6.75,0,0,0,3.6,1.7l3.6,0.7c2.5,0.5,2.5,1.7,2.5,2.1a2,2,0,0,1-.9,1.7,5,5,0,0,1-2.6.7c-2.8,0-4.4-.9-4.9-2.9l-0.1-.5-3.6.7,0.2,0.5c1,3.5,3.7,5.3,8,5.3a8.57,8.57,0,0,0,5.5-1.6,5.22,5.22,0,0,0,2.2-4.2C340.5,88.4,338.6,86.5,334.8,85.8Z" style="fill:#010101"/><path d="M264.8,42.2V38.1a1,1,0,0,1,1-1h18.5a1,1,0,0,1,1.1,1v3.5c0,0.6-.5,1.4-1.4,2.6l-9.6,13.7A19.81,19.81,0,0,1,285,60.2a2,2,0,0,1,1,1.6v4.4a1,1,0,0,1-1.4.9,21.5,21.5,0,0,0-19.6,0,1,1,0,0,1-1.3-1V61.9a4.63,4.63,0,0,1,.7-2.8l11.1-16h-9.7A0.78,0.78,0,0,1,264.8,42.2Z" style="fill:#010101"/><path d="M198.5,68.1h-5.6a1,1,0,0,1-1-1V38.2a1,1,0,0,1,1.1-1h5.3a1,1,0,0,1,1,1V42h0.1c1.4-3.7,3.9-5.4,7.4-5.4s5.7,1.7,7.3,5.4a8,8,0,0,1,7.8-5.4,8,8,0,0,1,6.5,3.2c1.8,2.4,1.4,6,1.4,9.1V67.2a1,1,0,0,1-1.1,1h-5.6a1,1,0,0,1-1-1V51.9a32.12,32.12,0,0,0-.2-5.4,3,3,0,0,0-3.3-2.5,3.73,3.73,0,0,0-3.4,2.4c-0.6,1.5-.5,3.9-0.5,5.5V67.2a1,1,0,0,1-1.1,1H208a1,1,0,0,1-1-1V51.9c0-3.2.5-8-3.5-8s-3.9,4.6-3.9,8V67.2A1.1,1.1,0,0,1,198.5,68.1Z" style="fill:#010101"/><path d="M299.1,36.5c8.3,0,12.8,7.2,12.8,16.3,0,8.8-5,15.8-12.8,15.8-8.1,0-12.6-7.2-12.6-16.1S291,36.5,299.1,36.5Zm0,6.7c-4.1,0-4.4,5.7-4.4,9.2s-0.1,10.3,4.3,10.3,4.5-5.3,4.5-9.1a28.41,28.41,0,0,0-.8-7.7A3.43,3.43,0,0,0,299.1,43.2Z" style="fill:#010101"/><path d="M323.9,68.1h-5.6a1,1,0,0,1-1-1V38.2a1,1,0,0,1,1.1-.9h5.2a1.08,1.08,0,0,1,1,.8v4.4h0.1c1.6-4,3.8-5.8,7.7-5.8a7.46,7.46,0,0,1,6.6,3.4c1.5,2.3,1.5,6.2,1.5,9V67.3a1.09,1.09,0,0,1-1.1.9h-5.7a1.06,1.06,0,0,1-1-.9V51.4c0-3.2.4-7.8-3.5-7.8a3.77,3.77,0,0,0-3.3,2.3,12.75,12.75,0,0,0-.9,5.5V67A1.11,1.11,0,0,1,323.9,68.1Z" style="fill:#010101"/><path d="M260.8,62.6c-1-1.4-2.1-2.6-2.1-5.2V48.6c0-3.7.2-7.1-2.5-9.7-2.2-2.1-5.8-2.8-8.5-2.8-5.4,0-11.3,2-12.6,8.6a0.93,0.93,0,0,0,.8,1.2l5.5,0.6a1.17,1.17,0,0,0,1-1c0.4-2.3,2.3-3.4,4.5-3.4a3.93,3.93,0,0,1,3.2,1.5c0.8,1.2.7,2.8,0.7,4.1v0.7c-3.3.4-7.5,0.7-10.6,2a9.55,9.55,0,0,0-6,9.2c0,5.9,3.7,8.8,8.4,8.8,4,0,6.2-.9,9.3-4.1a13.17,13.17,0,0,0,3.2,3.8,1.06,1.06,0,0,0,1.3-.1c1.1-1,3.1-2.8,4.4-3.9A1.09,1.09,0,0,0,260.8,62.6Zm-11.2-2.4a4.57,4.57,0,0,1-3.9,2.6c-2.2,0-3.4-1.6-3.4-4.1,0-4.8,4.3-5.7,8.4-5.7v1.2C250.7,56.4,250.8,58.2,249.6,60.2Z" style="fill:#010101"/><path d="M187.5,62.6c-1-1.4-2.1-2.6-2.1-5.2V48.6c0-3.7.2-7.1-2.5-9.7-2.2-2.1-5.8-2.8-8.5-2.8-5.4,0-11.3,2-12.6,8.6a0.93,0.93,0,0,0,.8,1.2l5.5,0.6a1.17,1.17,0,0,0,1-1c0.4-2.3,2.3-3.4,4.5-3.4a3.93,3.93,0,0,1,3.2,1.5c0.8,1.2.7,2.8,0.7,4.1v0.7c-3.3.4-7.5,0.7-10.6,2a9.55,9.55,0,0,0-6,9.2c0,5.9,3.7,8.8,8.4,8.8,4,0,6.2-.9,9.3-4.1a13.17,13.17,0,0,0,3.2,3.8,1.06,1.06,0,0,0,1.3-.1c1.1-1,3.2-2.8,4.4-3.9A1.09,1.09,0,0,0,187.5,62.6Zm-11.2-2.4a4.57,4.57,0,0,1-3.9,2.6c-2.2,0-3.4-1.6-3.4-4.1,0-4.8,4.3-5.7,8.4-5.7v1.2C177.4,56.4,177.5,58.2,176.3,60.2Z" style="fill:#010101"/></svg>