<?xml version="1.0" encoding="utf-8"?>
<!-- Generator: Adobe Illustrator 19.1.0, SVG Export Plug-In . SVG Version: 6.00 Build 0)  -->
<svg version="1.1" id="Layer_1" xmlns="http://www.w3.org/2000/svg" xmlns:xlink="http://www.w3.org/1999/xlink" x="0px" y="0px"
	 viewBox="-460 311 600 300" style="enable-background:new -460 311 600 300;" xml:space="preserve">
<style type="text/css">
	.st0{fill:#E8A723;}
	.st1{fill:#3EB890;}
	.st2{fill:#E01765;}
	.st3{fill:#472A49;}
	.st4{fill:#CC2027;}
	.st5{fill:#70CADB;}
	.st6{fill:#1A937D;}
	.st7{fill:#65863A;}
	.st8{fill:#3B434B;}
	.st9{fill:#25C151;}
</style>
<g id="Layer_2">
</g>
<g id="Layer_2_1_">
</g>
<g>
	<g>
		<g>
			<path class="st0" d="M-220.8,471.2c-0.8-2.5-3.5-3.8-5.9-3c-2.5,0.8-3.8,3.5-3,5.9l12.2,37.4c0.8,2.3,3.3,3.6,5.7,2.9
				c2.5-0.7,4-3.4,3.2-5.8C-208.6,508.5-220.8,471.2-220.8,471.2z"/>
			<path class="st1" d="M-239.6,477.3c-0.8-2.5-3.5-3.8-5.9-3c-2.5,0.8-3.8,3.5-3,5.9l12.2,37.4c0.8,2.3,3.3,3.6,5.7,2.9
				c2.5-0.7,4-3.4,3.2-5.8C-227.5,514.6-239.6,477.3-239.6,477.3z"/>
			<path class="st2" d="M-205.5,502.2c2.5-0.8,3.8-3.5,3-5.9s-3.5-3.8-5.9-3l-37.4,12.2c-2.3,0.8-3.6,3.3-2.9,5.7
				c0.7,2.5,3.4,4,5.8,3.2C-242.8,514.3-205.5,502.2-205.5,502.2z"/>
			<path class="st3" d="M-238,512.8c2.4-0.8,5.6-1.8,8.9-2.9c-0.8-2.4-1.8-5.6-2.9-8.9l-8.9,2.9L-238,512.8z"/>
			<path class="st4" d="M-219.1,506.6c3.4-1.1,6.5-2.1,8.9-2.9c-0.8-2.4-1.8-5.6-2.9-8.9l-8.9,2.9L-219.1,506.6z"/>
			<path class="st5" d="M-211.6,483.3c2.5-0.8,3.8-3.5,3-5.9s-3.5-3.8-5.9-3l-37.4,12.2c-2.3,0.8-3.6,3.3-2.9,5.7
				c0.7,2.5,3.4,4,5.8,3.2C-248.9,495.5-211.6,483.3-211.6,483.3z"/>
			<path class="st6" d="M-244.1,493.9c2.4-0.8,5.6-1.8,8.9-2.9c-1.1-3.4-2.1-6.5-2.9-8.9l-8.9,2.9L-244.1,493.9z"/>
			<path class="st7" d="M-225.3,487.8c3.4-1.1,6.5-2.1,8.9-2.9c-1.1-3.4-2.1-6.5-2.9-8.9l-8.9,2.9L-225.3,487.8z"/>
		</g>
	</g>
	<path class="st8" d="M-167.5,481c1.7,0.7,1.8,1.3,0.5,3.7c-1.3,2.5-1.7,2.7-3.3,2c-2-0.9-4.7-1.5-6.3-1.5c-2.8,0-4.6,1-4.6,2.5
		c0,5,15.9,2.3,15.9,12.9c0,5.3-4.6,8.9-11.4,8.9c-3.6,0-8.1-1.2-11.1-2.8c-1.5-0.8-1.6-1.2-0.3-3.8c1.1-2.2,1.5-2.5,3.2-1.8
		c2.6,1.1,5.9,2,8.2,2c2.5,0,4.2-1,4.2-2.5c0-4.8-16.1-2.5-16.1-12.8c0-5.4,4.5-9.1,11.3-9.1C-174.3,478.8-170.3,479.8-167.5,481z"
		/>
	<path class="st8" d="M-154.7,468.5V508c0,0.6-0.6,1.2-1.5,1.2h-4.2c-0.9,0-1.5-0.6-1.5-1.2v-39.5c0-2,0.5-2.1,3.6-2.1
		C-154.8,466.3-154.7,466.6-154.7,468.5z"/>
	<path class="st8" d="M-125.2,490.7v17c0,0.9-0.6,1.5-1.5,1.5h-4.1c-0.9,0-1.6-0.7-1.5-1.6l0.1-1.8c-2.2,2.5-5.4,3.8-8.6,3.8
		c-6.2,0-10.4-3.6-10.4-8.9c0-5.7,4.7-9.5,11.7-9.5c2.7,0,5.1,0.5,7.1,1.3v-2c0-3.1-2.5-5-6.6-5c-2,0-4.4,0.8-6.3,1.9
		c-1.5,0.8-1.8,0.8-3.4-1.6c-1.6-2.4-1.5-2.8,0-3.8c2.9-1.9,6.8-3.1,10.4-3.1C-130.3,478.8-125.2,483.2-125.2,490.7z M-144.3,500.5
		c0,2,1.7,3.4,4.3,3.4c3.1,0,6-1.5,7.6-4.1v-2.6c-1.7-0.6-3.7-1-5.5-1C-141.7,496.2-144.3,498-144.3,500.5z"/>
	<path class="st8" d="M-97,481.1c1.5,0.9,1.6,1.4-0.1,3.9c-1.6,2.4-1.8,2.6-3.5,1.7c-1.3-0.7-3.3-1.2-4.9-1.2
		c-5.2,0-8.7,3.4-8.7,8.6c0,5.4,3.5,9,8.7,9c1.8,0,4.1-0.7,5.5-1.5c1.5-0.9,1.8-0.8,3.4,1.5c1.4,2.2,1.4,2.7,0.1,3.6
		c-2.3,1.6-6,2.8-9.2,2.8c-9.6,0-16.1-6.2-16.1-15.4c0-9.2,6.4-15.3,16.1-15.3C-102.7,478.8-99.2,479.8-97,481.1z"/>
	<path class="st8" d="M-65.6,505.4c1.2,1.5,0.7,2.1-2.3,3.2c-3.1,1.1-3.5,1.1-4.6-0.4l-8.6-11.5l-3.9,3.7v7.5c0,0.6-0.6,1.2-1.5,1.2
		h-4.2c-0.9,0-1.5-0.6-1.5-1.2v-39.5c0-2,0.5-2.1,3.6-2.1c3.5,0,3.6,0.2,3.6,2.1v22.4l11.8-11.3c1.3-1.2,2-1.1,4.3,0.4
		c2.6,1.7,2.7,2.1,1.5,3.3l-8.8,8.5L-65.6,505.4z"/>
</g>
<g>
	<g>
		<path class="st9" d="M-228.5,402.7c-0.5-1-1.2-1.9-2-2.5c-0.8-0.6-1.7-1.1-2.6-1.4c-0.9-0.3-1.8-0.4-2.6-0.4h-14.2v5.6h14.1
			c0.7,0,1.3,0.2,1.8,0.7s0.7,1.1,0.7,1.8v2.5h-10.8c-1.5,0-2.7,0.3-3.8,0.8c-1,0.5-1.9,1.2-2.5,2c-0.6,0.8-1.1,1.7-1.4,2.6
			c-0.3,1-0.4,1.8-0.4,2.7c0,1.5,0.3,2.7,0.8,3.8c0.5,1,1.2,1.9,2,2.5c0.8,0.6,1.7,1.1,2.6,1.4c0.9,0.3,1.8,0.4,2.6,0.4h8.3
			c1.5,0,2.7-0.3,3.8-0.8c1-0.5,1.9-1.2,2.5-2c0.6-0.8,1.1-1.7,1.4-2.6s0.4-1.8,0.4-2.6v-10.8C-227.7,404.9-228,403.7-228.5,402.7z
			 M-233.3,417c0,0.7-0.2,1.3-0.7,1.8s-1.1,0.7-1.9,0.7h-8.3c-0.7,0-1.3-0.2-1.8-0.6s-0.8-1-0.8-1.8c0-0.7,0.2-1.3,0.7-1.8
			c0.4-0.5,1.1-0.7,1.9-0.7h10.8v2.4H-233.3z"/>
	</g>
	<g>
		<path class="st9" d="M-180.4,414.6c1.5,0,2.8-0.3,3.8-0.8s1.9-1.2,2.5-2c0.6-0.8,1.1-1.7,1.4-2.6c0.3-0.9,0.4-1.8,0.4-2.7
			c0-1.5-0.3-2.8-0.8-3.8s-1.2-1.9-2-2.5c-0.8-0.6-1.7-1.1-2.6-1.4c-0.9-0.3-1.8-0.4-2.7-0.4h-8.4c-1.5,0-2.8,0.3-3.8,0.8
			s-1.9,1.2-2.5,2c-0.6,0.8-1.1,1.7-1.4,2.6c-0.3,1-0.4,1.8-0.4,2.7v10.7c0,1.5,0.3,2.8,0.8,3.8s1.2,1.9,2,2.5s1.7,1.1,2.6,1.4
			c0.9,0.3,1.8,0.4,2.7,0.4h15.7v-5.7h-15.6c-0.7,0-1.3-0.2-1.8-0.7c-0.5-0.4-0.7-1.1-0.7-1.8v-2.5
			C-191.2,414.6-180.4,414.6-180.4,414.6z M-191.3,406.5c0-0.7,0.2-1.3,0.7-1.8c0.4-0.5,1.1-0.7,1.9-0.7h8.4c0.7,0,1.3,0.2,1.8,0.7
			c0.5,0.4,0.7,1,0.7,1.8c0,0.7-0.2,1.3-0.7,1.8c-0.4,0.5-1.1,0.7-1.9,0.7h-10.9V406.5z"/>
	</g>
	<g>
		<path class="st9" d="M-131.6,425.2L-131.6,425.2h-9c-3.2,0-5-1.3-6-2.4c-2-2.2-2-5-2-5.7v-10.8c0-3.1,1.3-4.9,2.3-5.9
			c2.2-2,5-2.1,5.7-2h11.2v-9.7h5.7v28.5c0,2.9-1.2,4.7-2.2,5.7C-128.1,425.1-131,425.2-131.6,425.2z M-142.9,417.4
			c0,0.3,0.1,1.1,0.5,1.6c0.4,0.4,1.2,0.5,1.8,0.5h9c2.2,0,2.2-1.7,2.2-2.3v-13.1h-11.4l0,0c-0.3,0-1.1,0.1-1.6,0.5
			c-0.3,0.3-0.5,0.9-0.5,1.8V417.4z"/>
	</g>
	<g>
		<path class="st9" d="M-274.3,434.8h-5.7v-28.6c0-2.9,1.2-4.7,2.2-5.7c2.2-2.2,5.3-2.3,5.8-2.3h9c3.2,0,5,1.3,6,2.4
			c2,2.2,2,5,2,5.7v10.8c0,3.1-1.3,4.9-2.3,5.9c-2.2,2-5,2.1-5.7,2.1h-11.3V434.8z M-262.9,419.4c0.3,0,1.2-0.1,1.6-0.5
			c0.3-0.3,0.5-0.9,0.5-1.8V406c0-0.3-0.1-1.1-0.5-1.6c-0.4-0.4-1.2-0.5-1.8-0.5h-9c-2.2,0-2.2,1.7-2.2,2.3v13.2H-262.9z"/>
	</g>
	<g>
		<path class="st9" d="M-164.2,425.2h-5.7v-18.9c0-2.9,1.2-4.7,2.2-5.7c2.2-2.2,5.3-2.3,5.8-2.3h11.1v5.7H-162
			c-2.3,0-2.3,1.7-2.3,2.3v18.9H-164.2z"/>
	</g>
	<g>
		<path class="st9" d="M-112.8,425.2c-0.4,0-3.5-0.1-5.8-2.3c-1-1-2.2-2.8-2.2-5.7v-18.9h5.7v18.9c0,1.2,0.4,1.7,0.9,1.9
			c0.5,0.3,1.2,0.4,1.4,0.4h11.1v-21.2h5.7v26.9H-112.8C-112.7,425.2-112.7,425.2-112.8,425.2z"/>
	</g>
	<g>
		<path class="st9" d="M-208.2,434.6h-13.5v-5.7h13.5c1.4,0,1.9-0.6,2.2-1.1c0.3-0.6,0.4-1.4,0.5-1.6v-1.1h-10.7c-0.7,0-3.7,0-6-2.2
			c-1.1-1-2.5-3-2.5-6.3v-9.9c0-0.7,0-3.7,2.2-6.1c1-1.1,3-2.4,6.2-2.4h8.1c3.4,0,8.4,2.2,8.4,8.4v19.6
			C-199.9,429.6-202.1,434.6-208.2,434.6z M-219.1,406.5L-219.1,406.5L-219.1,406.5v10.1c0,1,0.2,1.7,0.6,2.1
			c0.7,0.6,1.9,0.6,1.9,0.6h0.2h10.8v-12.7c0-1.5-0.6-2-1.2-2.3c-0.7-0.4-1.5-0.4-1.5-0.4h-8.1c-1,0-1.7,0.2-2.1,0.6
			C-219,405.2-219.1,406.2-219.1,406.5z"/>
	</g>
	<g>
		<path class="st9" d="M-48.4,434.7h-13.5V429h13.5c1.4,0,1.9-0.5,2.2-1.1c0.3-0.6,0.4-1.4,0.5-1.6v-1h-10.8c-3.3,0-5.2-1.3-6.3-2.4
			c-2.2-2.3-2.2-5.3-2.2-6.1v-18.5h5.7v18.6c0,0.4,0.1,1.4,0.7,1.9c0.4,0.4,1.1,0.6,2.1,0.6h10.8v-21.1h5.7v28
			C-40,429.7-42.3,434.7-48.4,434.7z"/>
	</g>
	<g>
		<polygon class="st9" points="-77.6,425.2 -83.3,425.2 -83.3,404 -93,404 -93,398.3 -83.3,398.3 -83.3,391 -77.6,391 -77.6,398.3 
			-67.9,398.3 -67.9,404 -77.6,404 		"/>
	</g>
</g>
<g id="Layer_2_2_">
</g>
</svg>
