<?xml version="1.0" encoding="utf-8"?>
<!-- Generator: Adobe Illustrator 19.1.0, SVG Export Plug-In . SVG Version: 6.00 Build 0)  -->
<svg version="1.1" id="Layer_1" xmlns="http://www.w3.org/2000/svg" xmlns:xlink="http://www.w3.org/1999/xlink" x="0px" y="0px"
	 viewBox="203 -106.8 430 237.8" style="enable-background:new 203 -106.8 430 237.8;" xml:space="preserve">
<style type="text/css">
	.st0{fill:#FF9F36;}
	.st1{fill-rule:evenodd;clip-rule:evenodd;}
	.st2{fill:#231F20;}
	.st3{fill:#5A5B5E;}
	.st4{fill:#9D5025;}
	.st5{fill:#F58536;}
	.st6{fill:#6B3A19;}
	.st7{fill:#FBBF93;}
	.st8{fill:#2E73B8;}
	.st9{fill:#5294CF;}
	.st10{fill:#205B99;}
	.st11{fill:#19486F;}
	.st12{fill:#B7CA9D;}
	.st13{fill:#4B612C;}
	.st14{fill:#759C3E;}
</style>
<title>integrations-aws</title>
<g>
	<g>
		<g>
			<polygon class="st0" points="346.1,-73.9 338.9,-76.3 338.9,-86.8 346.1,-84.7 			"/>
			<polyline class="st0" points="348,-84.7 355.3,-86.8 355.3,-76.3 348,-73.9 348,-84.7 			"/>
			<polyline class="st0" points="353.8,-88 347,-90.1 340.3,-88 347,-86.2 353.8,-88 			"/>
			<polygon class="st0" points="364.4,-73.9 357.2,-76.3 357.2,-86.8 364.4,-84.7 			"/>
			<polyline class="st0" points="366.3,-84.7 373.6,-86.8 373.6,-76.3 366.3,-73.9 366.3,-84.7 			"/>
			<polyline class="st0" points="372.1,-88 365.3,-90.1 358.6,-88 365.3,-86.2 372.1,-88 			"/>
			<polygon class="st0" points="318.6,-69.3 311.4,-71.5 311.4,-60.9 318.6,-58.5 			"/>
			<polyline class="st0" points="320.5,-69.3 327.8,-71.5 327.8,-60.9 320.5,-58.5 320.5,-69.3 			"/>
			<polyline class="st0" points="326.3,-72.6 319.5,-74.7 312.9,-72.6 319.6,-70.8 326.3,-72.6 			"/>
			<polygon class="st0" points="337,-58.5 329.7,-60.9 329.7,-71.5 337,-69.3 			"/>
			<polyline class="st0" points="338.9,-69.3 346.1,-71.5 346.1,-60.9 338.9,-58.5 338.9,-69.3 			"/>
			<polyline class="st0" points="344.6,-72.6 337.9,-74.7 331.2,-72.6 337.9,-70.8 344.6,-72.6 			"/>
			<polygon class="st0" points="327.8,-43.1 320.5,-45.5 320.5,-56.1 327.8,-53.9 			"/>
			<polyline class="st0" points="329.7,-53.9 337,-56.1 336.9,-45.5 329.7,-43.1 329.7,-53.9 			"/>
			<polyline class="st0" points="335.5,-57.2 328.7,-59.3 322,-57.2 328.7,-55.4 335.5,-57.2 			"/>
		</g>
		<g>
			<path d="M360-52.4l-0.5,0c-0.2,0-0.4,0.1-0.5,0.3l-1.6,5.7l-1.6-5.7c0-0.2-0.2-0.4-0.4-0.4h-0.6c-0.2,0-0.4,0.2-0.4,0.4l-1.5,5.7
				l-1.5-5.7c-0.1-0.2-0.3-0.3-0.5-0.3l-0.8,0c-0.2,0-0.3,0.1-0.4,0.2c-0.1,0.1-0.1,0.2,0,0.2l2.4,8.4c0.1,0.2,0.2,0.4,0.4,0.4h0.8
				c0.2,0,0.4-0.2,0.4-0.4l1.5-5.6l1.6,5.6c0,0.2,0.2,0.4,0.4,0.4h0.8c0.2,0,0.4-0.1,0.4-0.4l2.3-8.4c0-0.1,0-0.2,0-0.2
				C360.3-52.3,360.1-52.4,360-52.4z"/>
			<path d="M364.6-52.5c-2.7,0-4,2.4-4,4.7c0,2.8,1.5,4.6,3.9,4.6c1.7,0,3-0.9,3.6-2.4c0-0.1,0-0.2,0-0.3c-0.1-0.1-0.2-0.2-0.3-0.2
				l-0.8-0.1c-0.2,0-0.4,0.1-0.5,0.3c-0.4,0.8-1,1.3-1.9,1.3c-0.8,0-1.6-0.5-1.9-1.2c-0.3-0.6-0.3-1.2-0.3-1.8l5.5,0
				c0.1,0,0.2-0.1,0.3-0.1c0.1-0.1,0.1-0.2,0.1-0.2C368.4-50.1,367.4-52.5,364.6-52.5z M366.6-48.8h-4c0.1-1.1,0.8-2.3,2.1-2.4
				C365.9-51.1,366.5-50,366.6-48.8z"/>
			<path d="M373.5-52.6h-0.1c-0.9,0-1.6,0.4-2.2,1.1l0-3.6c0-0.2-0.2-0.4-0.4-0.4H370c-0.2,0-0.4,0.2-0.4,0.4v11.1
				c0,0.2,0.2,0.4,0.4,0.4l0.2,0c0.2,0,0.4-0.2,0.4-0.3l0.2-0.8c0.6,0.8,1.4,1.3,2.4,1.3h0.1c2.4,0,3.5-2.4,3.5-4.7
				c0-1.2-0.3-2.3-0.8-3.1C375.5-52,374.5-52.6,373.5-52.6z M375.1-47.8c0,0.5-0.1,3.1-1.9,3.2c-0.6,0-1.2-0.4-1.6-0.9
				c-0.3-0.4-0.4-1-0.4-1.7v-1.5c0-1.2,0.8-2.4,2-2.5C375-51.1,375.1-48.4,375.1-47.8z"/>
			<path d="M385.5-48.1c-0.5-0.4-1.1-0.5-1.7-0.6l-1.2-0.2c-0.9-0.1-1.3-0.4-1.3-1.1c0-0.8,0.8-1.1,1.5-1.1c0.9,0,1.5,0.4,1.8,1.1
				c0.1,0.2,0.2,0.3,0.4,0.3c0,0,0.1,0,0.1,0l0.7-0.2c0.1,0,0.2-0.1,0.3-0.2c0-0.1,0.1-0.2,0-0.3c-0.5-1.3-1.6-2-3.3-2
				c-1.6,0-3.2,0.7-3.2,2.7c0,1.3,0.8,2.2,2.5,2.5l1.3,0.3c0.7,0.1,1.5,0.4,1.5,1.2c0,1.2-1.3,1.3-1.8,1.3c-0.9,0-1.9-0.4-2.2-1.3
				c-0.1-0.2-0.3-0.3-0.5-0.3l-0.8,0.2c-0.1,0-0.2,0.1-0.3,0.2c-0.1,0.1-0.1,0.2,0,0.3c0.4,1.4,1.8,2.3,3.7,2.3h0
				c1.7,0,3.5-0.7,3.5-2.8C386.5-46.8,386.2-47.6,385.5-48.1z"/>
			<path d="M391.4-52.5c-2.7,0-4,2.4-4,4.7c0,2.8,1.5,4.6,3.9,4.6c1.7,0,3-0.9,3.6-2.4c0-0.1,0-0.2,0-0.3c-0.1-0.1-0.2-0.2-0.3-0.2
				l-0.8-0.1c-0.2,0-0.4,0.1-0.5,0.3c-0.4,0.8-1,1.3-1.9,1.3c-0.8,0-1.6-0.5-1.9-1.2c-0.3-0.6-0.3-1.2-0.3-1.8l5.5,0
				c0.1,0,0.2-0.1,0.3-0.1c0.1-0.1,0.1-0.2,0.1-0.2C395.1-50.1,394.1-52.5,391.4-52.5z M393.3-48.8h-4c0.1-1.1,0.8-2.3,2.1-2.4
				C392.7-51.1,393.3-50,393.3-48.8z"/>
			<path d="M400.3-52.4c-0.1,0-0.2,0-0.3,0c-0.9,0-1.7,0.5-2.2,1.5l0-0.8c0-0.2-0.2-0.4-0.4-0.4h-0.7c-0.2,0-0.4,0.2-0.4,0.4l0,8.2
				c0,0.2,0.2,0.4,0.4,0.4h0.8c0.2,0,0.4-0.2,0.4-0.4l0-4.1c0-0.7,0.1-1.2,0.4-1.8c0.5-0.9,1.1-1.3,2-1.3c0.2,0,0.4-0.2,0.4-0.4V-52
				C400.7-52.2,400.5-52.3,400.3-52.4z"/>
			<path d="M408.7-52.5h-0.6c-0.2,0-0.5,0.1-0.5,0.4l-2,6.4l-2.1-6.4c-0.1-0.2-0.3-0.4-0.5-0.4H402c-0.2,0-0.3,0.1-0.4,0.2
				c-0.1,0.1-0.1,0.2,0,0.2l2.9,8.5c0.1,0.2,0.2,0.4,0.4,0.4h1.1c0.2,0,0.4-0.1,0.4-0.4l2.8-8.5c0-0.1,0-0.2,0-0.2
				C409-52.5,408.9-52.5,408.7-52.5z"/>
			<path d="M410.8-55.8c-0.6,0-1.1,0.5-1.1,1.1c0,0.6,0.5,1.1,1.1,1.1c0.6,0,1.1-0.5,1.1-1.1C411.8-55.3,411.3-55.8,410.8-55.8z"/>
			<path d="M411.2-52.6h-0.9c-0.2,0-0.4,0.2-0.4,0.4l0,8.7c0,0.1,0.1,0.2,0.1,0.3c0.1,0.1,0.2,0.1,0.3,0.1l0.9,0h0
				c0.2,0,0.4-0.2,0.4-0.4v-8.7C411.7-52.4,411.4-52.6,411.2-52.6z"/>
			<path d="M419.3-46.7l-0.7,0c-0.2,0-0.4,0.1-0.4,0.3c-0.3,1.1-0.9,1.7-1.8,1.8c-1.8-0.1-1.9-2.5-1.9-3.3c0-1.5,0.5-3.1,2-3.2
				c0.9,0,1.5,0.7,1.7,1.7c0,0.2,0.2,0.4,0.4,0.4l0.8,0c0.2,0,0.4-0.2,0.4-0.4c-0.3-1.9-1.6-3.1-3.3-3.1l-0.1,0l-0.1,0
				c-2.5,0-3.6,2.3-3.6,4.6c0,2.1,0.9,4.6,3.6,4.6h0.1c1.7,0,2.9-1.2,3.3-3.1c0-0.1,0-0.2-0.1-0.3C419.6-46.6,419.4-46.7,419.3-46.7
				z"/>
			<path d="M424.5-52.5c-2.7,0-4,2.4-4,4.7c0,2.8,1.5,4.6,3.9,4.6c1.7,0,3-0.9,3.6-2.4c0-0.1,0-0.2,0-0.3c-0.1-0.1-0.2-0.2-0.3-0.2
				l-0.8-0.1c-0.2,0-0.4,0.1-0.5,0.3c-0.4,0.8-1,1.3-1.9,1.3c-0.8,0-1.6-0.5-1.9-1.2c-0.3-0.6-0.3-1.2-0.3-1.8l5.5,0
				c0.1,0,0.2-0.1,0.3-0.1c0.1-0.1,0.1-0.2,0.1-0.2C428.2-50.1,427.2-52.5,424.5-52.5z M426.4-48.8h-4c0.1-1.1,0.8-2.3,2.1-2.4
				C425.8-51.1,426.4-50,426.4-48.8z"/>
			<path d="M435.1-48.1c-0.5-0.4-1.1-0.5-1.8-0.6l-1.2-0.2c-0.8-0.1-1.3-0.4-1.3-1.1c0-1,1.3-1.1,1.5-1.1c0.9,0,1.5,0.4,1.8,1.1
				c0.1,0.2,0.2,0.3,0.4,0.3c0,0,0.1,0,0.1,0l0.7-0.2c0.1,0,0.2-0.1,0.3-0.2c0-0.1,0.1-0.2,0-0.3c-0.5-1.3-1.6-2-3.3-2
				c-1.6,0-3.2,0.7-3.2,2.7c0,1.3,0.8,2.2,2.5,2.5l1.3,0.3c0.7,0.1,1.5,0.4,1.5,1.2c0,1.2-1.3,1.3-1.8,1.3c-0.8,0-1.9-0.4-2.2-1.3
				c0-0.2-0.3-0.3-0.5-0.3l-0.8,0.2c-0.1,0-0.2,0.1-0.3,0.2c-0.1,0.1-0.1,0.2,0,0.3c0.4,1.4,1.8,2.3,3.7,2.3h0
				c1.7,0,3.5-0.7,3.5-2.8C436.1-46.8,435.7-47.6,435.1-48.1z"/>
		</g>
		<g>
			<path class="st1" d="M399.9-69.2v-2c0-0.3,0.2-0.5,0.5-0.5h8.8c0.3,0,0.5,0.2,0.5,0.5v1.7c0,0.3-0.2,0.7-0.7,1.2l-4.5,6.5
				c1.7,0,3.5,0.2,5,1.1c0.3,0.2,0.4,0.5,0.5,0.8v2.1c0,0.3-0.3,0.6-0.6,0.4c-2.7-1.4-6.3-1.6-9.3,0c-0.3,0.2-0.6-0.2-0.6-0.5v-2
				c0-0.3,0-0.9,0.3-1.4l5.3-7.6l-4.6,0C400.1-68.7,399.9-68.9,399.9-69.2"/>
			<path class="st1" d="M367.9-57h-2.7c-0.3,0-0.5-0.2-0.5-0.5l0-13.7c0-0.3,0.2-0.5,0.5-0.5l2.5,0c0.3,0,0.5,0.2,0.5,0.5v1.8h0
				c0.6-1.7,1.9-2.5,3.5-2.5c1.7,0,2.7,0.8,3.5,2.5c0.7-1.7,2.1-2.5,3.7-2.5c1.1,0,2.3,0.5,3.1,1.5c0.8,1.2,0.7,2.8,0.7,4.3l0,8.7
				c0,0.3-0.2,0.5-0.5,0.5h-2.7c-0.3,0-0.5-0.2-0.5-0.5v-7.3c0-0.6,0-2-0.1-2.6c-0.2-0.9-0.8-1.2-1.6-1.2c-0.6,0-1.3,0.4-1.6,1.1
				c-0.3,0.7-0.2,1.9-0.2,2.6v7.3c0,0.3-0.2,0.5-0.5,0.5h-2.7c-0.3,0-0.5-0.2-0.5-0.5l0-7.3c0-1.5,0.3-3.8-1.6-3.8
				c-1.9,0-1.8,2.2-1.8,3.8l0,7.3C368.4-57.2,368.2-57,367.9-57"/>
			<path class="st1" d="M417.3-72c4,0,6.1,3.4,6.1,7.8c0,4.2-2.4,7.5-6.1,7.5c-3.9,0-6-3.4-6-7.7C411.3-68.6,413.4-72,417.3-72
				 M417.3-69.1c-2,0-2.1,2.7-2.1,4.4c0,1.7,0,5.3,2.1,5.3c2.1,0,2.2-2.9,2.2-4.7c0-1.2-0.1-2.5-0.4-3.6
				C418.7-68.8,418.1-69.1,417.3-69.1z"/>
			<path class="st1" d="M428.5-57h-2.7c-0.3,0-0.5-0.2-0.5-0.5l0-13.8c0-0.3,0.2-0.4,0.5-0.4l2.5,0c0.2,0,0.4,0.2,0.5,0.4v2.1h0
				c0.7-1.9,1.8-2.8,3.6-2.8c1.2,0,2.4,0.4,3.1,1.6c0.7,1.1,0.7,2.9,0.7,4.3v8.7c0,0.2-0.2,0.4-0.5,0.4h-2.7c-0.2,0-0.4-0.2-0.5-0.4
				v-7.5c0-1.5,0.2-3.7-1.7-3.7c-0.6,0-1.2,0.4-1.5,1.1c-0.4,0.8-0.4,1.7-0.4,2.6v7.4C429-57.2,428.8-57,428.5-57"/>
			<path class="st1" d="M392.9-63.5c0,1,0,1.9-0.5,2.8c-0.4,0.8-1.1,1.2-1.9,1.2c-1,0-1.6-0.8-1.6-1.9c0-2.3,2-2.7,4-2.7V-63.5
				 M395.6-57c-0.2,0.2-0.4,0.2-0.6,0.1c-0.9-0.7-1-1.1-1.5-1.8c-1.5,1.5-2.5,1.9-4.4,1.9c-2.3,0-4-1.4-4-4.2c0-2.2,1.2-3.7,2.8-4.4
				c1.4-0.6,3.5-0.8,5-0.9v-0.3c0-0.6,0-1.4-0.3-1.9c-0.3-0.5-0.9-0.7-1.5-0.7c-1,0-1.9,0.5-2.1,1.6c0,0.2-0.2,0.5-0.5,0.5l-2.6-0.3
				c-0.2,0-0.5-0.2-0.4-0.6c0.6-3.2,3.4-4.1,6-4.1c1.3,0,3,0.3,4,1.3c1.3,1.2,1.2,2.8,1.2,4.6v4.2c0,1.3,0.5,1.8,1,2.5
				c0.2,0.2,0.2,0.5,0,0.7C397.1-58.3,396.1-57.5,395.6-57L395.6-57z"/>
			<path class="st1" d="M357.9-63.5c0,1,0,1.9-0.5,2.8c-0.4,0.8-1.1,1.2-1.8,1.2c-1,0-1.6-0.8-1.6-1.9c0-2.3,2-2.7,4-2.7V-63.5
				 M360.6-57c-0.2,0.2-0.4,0.2-0.6,0.1c-0.9-0.7-1-1.1-1.5-1.8c-1.5,1.5-2.5,1.9-4.4,1.9c-2.3,0-4-1.4-4-4.2c0-2.2,1.2-3.7,2.9-4.4
				c1.5-0.6,3.5-0.8,5-0.9v-0.3c0-0.6,0-1.4-0.3-1.9c-0.3-0.5-0.9-0.7-1.5-0.7c-1,0-1.9,0.5-2.1,1.6c0,0.2-0.2,0.5-0.5,0.5l-2.6-0.3
				c-0.2,0-0.5-0.2-0.4-0.6c0.6-3.2,3.4-4.1,6-4.1c1.3,0,3,0.3,4,1.3c1.3,1.2,1.2,2.8,1.2,4.6v4.2c0,1.3,0.5,1.8,1,2.5
				c0.2,0.2,0.2,0.5,0,0.7C362.1-58.3,361.1-57.5,360.6-57L360.6-57z"/>
		</g>
	</g>
	<g>
		<path class="st2" d="M457.9-54.7h1.1l8.7,11.8h0v-11.8h0.8v12.8h-1l-8.7-11.9h0v11.9h-0.8V-54.7z"/>
		<path class="st2" d="M470.8-46.4c0,2.2,1.2,4.2,3.6,4.2c1.9,0,3.2-1,3.5-2.8h0.7c-0.4,2.2-1.9,3.3-4.3,3.3c-2.9,0-4.4-2.1-4.4-4.7
			c0-2.5,1.4-5,4.4-5c3.1,0,4.5,2.3,4.4,4.9H470.8z M478.1-47c0-1.9-1.3-3.7-3.6-3.7c-2.2,0-3.5,1.9-3.6,3.7H478.1z"/>
		<path class="st2" d="M484.1-50.5h-2.2v6.5c0,1.5,0.8,1.6,2.1,1.6v0.6c-1.5,0.1-2.9-0.1-2.9-2.2v-6.5h-1.8v-0.6h1.8V-54h0.7v2.9
			h2.2V-50.5z"/>
		<path class="st2" d="M488-42.7L488-42.7l2.7-8.5h1l2.7,8.5h0l2.8-8.5h0.8l-3.2,9.2h-0.9l-2.7-8.4h0l-2.7,8.4h-0.9l-3.1-9.2h0.8
			L488-42.7z"/>
		<path class="st2" d="M502.8-51.3c2.9,0,4.5,2.2,4.5,4.8c0,2.6-1.6,4.8-4.5,4.8c-2.9,0-4.5-2.2-4.5-4.8
			C498.3-49.1,499.9-51.3,502.8-51.3z M502.8-42.3c2.5,0,3.8-2,3.8-4.2c0-2.2-1.3-4.2-3.8-4.2c-2.5,0-3.8,2-3.8,4.2
			C499-44.3,500.3-42.3,502.8-42.3z"/>
		<path class="st2" d="M509.7-49.1L509.7-49.1c0.4-1.2,2.1-2.2,3.9-2.1v0.7c-0.8-0.1-1.9,0.1-2.7,0.9c-0.7,0.7-1,1.3-1.1,2.7v5.1
			H509v-9.2h0.7V-49.1z"/>
		<path class="st2" d="M514.4-54.7h0.7v8.5l6.1-4.9h1.1l-4.3,3.5l4.6,5.8h-1l-4.2-5.3l-2.3,1.8v3.5h-0.7V-54.7z"/>
	</g>
	<g>
		<path class="st2" d="M458-71.5h5.8c1.5,0,3.9,0.5,3.9,3.5c0,2.2-1.6,3.5-4.2,3.5h-4.6v5.6H458V-71.5z M458.8-65.2h4.8
			c2.4,0,3.3-1.5,3.3-2.8c0-0.9-0.5-2.9-3.2-2.9h-4.9V-65.2z"/>
		<path class="st2" d="M476.3-60.5c0,0.5,0,1.1,0.6,1.1c0.1,0,0.3,0,0.5-0.1v0.6c-0.2,0-0.4,0.1-0.6,0.1c-1.1,0-1.3-0.6-1.3-1.3
			v-0.5h0c-0.5,1.1-1.8,2-3.6,2c-1.8,0-3.3-0.7-3.3-2.6c0-2.1,2-2.6,3.6-2.7c3.2-0.2,3.4-0.4,3.4-1.9c0-0.4-0.5-1.8-2.7-1.8
			c-1.7,0-2.9,0.8-3,2.4h-0.7c0.1-2,1.4-3,3.7-3c1.7,0,3.4,0.5,3.4,2.4V-60.5z M475.6-64c-0.6,0.6-2.1,0.5-3.5,0.7
			c-1.7,0.2-2.7,0.7-2.7,2.1c0,1.1,0.9,2,2.6,2c3.3,0,3.6-2.6,3.6-3.1V-64z"/>
		<path class="st2" d="M479.3-65.9L479.3-65.9c0.4-1.2,2-2.1,3.8-2.1v0.7c-0.8-0.1-1.8,0.1-2.7,0.9c-0.7,0.7-1,1.3-1.1,2.6v5h-0.7
			V-68h0.7V-65.9z"/>
		<path class="st2" d="M488-67.4h-2.1v6.4c0,1.5,0.7,1.6,2.1,1.6v0.6c-1.5,0.1-2.9-0.1-2.8-2.2v-6.4h-1.8V-68h1.8v-2.8h0.7v2.8h2.1
			V-67.4z"/>
		<path class="st2" d="M489.4-68h0.7v1.9h0c0.5-1.4,2-2.2,3.5-2.2c3.4,0,3.5,2.6,3.5,3.7v5.6h-0.7v-5.8c0-0.9-0.1-3-2.8-3
			c-2.2,0-3.5,1.6-3.5,3.8v4.9h-0.7V-68z"/>
		<path class="st2" d="M499.5-63.3c0,2.1,1.2,4.1,3.6,4.1c1.8,0,3.1-1,3.5-2.7h0.7c-0.4,2.1-1.9,3.3-4.2,3.3c-2.8,0-4.3-2.1-4.3-4.6
			c0-2.5,1.4-4.9,4.3-4.9c3.1,0,4.4,2.2,4.3,4.9H499.5z M506.7-63.9c0-1.9-1.3-3.7-3.6-3.7c-2.2,0-3.4,1.9-3.6,3.7H506.7z"/>
		<path class="st2" d="M509.8-65.9L509.8-65.9c0.4-1.2,2-2.1,3.8-2.1v0.7c-0.8-0.1-1.8,0.1-2.7,0.9c-0.7,0.7-1,1.3-1.1,2.6v5h-0.7
			V-68h0.7V-65.9z"/>
	</g>
	<g>
		<rect x="447.4" y="-81.2" class="st2" width="0.8" height="49.5"/>
	</g>
</g>
<g>
	<path class="st3" d="M355.5-19.4v-0.9h6.1v0.9H359v6.7h-1v-6.7H355.5z"/>
	<path class="st3" d="M367.6-20.3v0.9h-4.2v2.4h3.9v0.9h-3.9v2.6h4.3v0.9h-5.3v-7.6H367.6z"/>
	<path class="st3" d="M373.5-19.2c-0.4-0.3-0.8-0.4-1.4-0.4c-0.5,0-0.8,0.1-1.2,0.3c-0.3,0.2-0.6,0.4-0.8,0.7
		c-0.2,0.3-0.4,0.6-0.5,1c-0.1,0.4-0.1,0.8-0.1,1.1c0,0.4,0,0.8,0.1,1.2c0.1,0.4,0.3,0.7,0.5,1c0.2,0.3,0.5,0.5,0.8,0.7
		c0.3,0.2,0.7,0.3,1.2,0.3c0.3,0,0.6-0.1,0.9-0.2c0.3-0.1,0.5-0.3,0.7-0.5c0.2-0.2,0.3-0.4,0.4-0.7c0.1-0.3,0.2-0.6,0.2-0.9h1
		c-0.1,1-0.4,1.7-1,2.2c-0.6,0.5-1.3,0.8-2.3,0.8c-0.6,0-1.1-0.1-1.5-0.3c-0.4-0.2-0.8-0.5-1.1-0.8c-0.3-0.4-0.5-0.8-0.7-1.3
		c-0.1-0.5-0.2-1-0.2-1.6c0-0.6,0.1-1.1,0.2-1.6c0.2-0.5,0.4-0.9,0.7-1.3c0.3-0.4,0.7-0.6,1.1-0.9c0.5-0.2,1-0.3,1.5-0.3
		c0.4,0,0.8,0.1,1.1,0.2c0.4,0.1,0.7,0.3,0.9,0.5c0.3,0.2,0.5,0.5,0.7,0.8c0.2,0.3,0.3,0.7,0.4,1.1h-1
		C374.1-18.5,373.9-18.9,373.5-19.2z"/>
	<path class="st3" d="M377.6-20.3v3.3h4v-3.3h1v7.6h-1v-3.5h-4v3.5h-1v-7.6H377.6z"/>
	<path class="st3" d="M385.3-20.3l4,6.2h0v-6.2h1v7.6h-1.1l-4-6.1h0v6.1h-1v-7.6H385.3z"/>
	<path class="st3" d="M391.7-18c0.2-0.5,0.4-0.9,0.7-1.3c0.3-0.4,0.7-0.7,1.1-0.9c0.5-0.2,1-0.3,1.6-0.3c0.6,0,1.1,0.1,1.6,0.3
		c0.5,0.2,0.8,0.5,1.1,0.9c0.3,0.4,0.5,0.8,0.7,1.3c0.2,0.5,0.2,1,0.2,1.5c0,0.5-0.1,1-0.2,1.5c-0.2,0.5-0.4,0.9-0.7,1.3
		c-0.3,0.4-0.7,0.7-1.1,0.9c-0.5,0.2-1,0.3-1.6,0.3c-0.6,0-1.1-0.1-1.6-0.3c-0.5-0.2-0.8-0.5-1.1-0.9c-0.3-0.4-0.5-0.8-0.7-1.3
		c-0.2-0.5-0.2-1-0.2-1.5C391.5-17,391.6-17.5,391.7-18z M392.7-15.3c0.1,0.4,0.3,0.7,0.5,1c0.2,0.3,0.5,0.5,0.8,0.7
		c0.3,0.2,0.7,0.3,1.2,0.3c0.5,0,0.9-0.1,1.2-0.3c0.3-0.2,0.6-0.4,0.8-0.7c0.2-0.3,0.4-0.6,0.5-1c0.1-0.4,0.1-0.8,0.1-1.1
		c0-0.4,0-0.8-0.1-1.1c-0.1-0.4-0.3-0.7-0.5-1c-0.2-0.3-0.5-0.5-0.8-0.7c-0.3-0.2-0.7-0.3-1.2-0.3c-0.5,0-0.9,0.1-1.2,0.3
		c-0.3,0.2-0.6,0.4-0.8,0.7c-0.2,0.3-0.4,0.6-0.5,1c-0.1,0.4-0.1,0.8-0.1,1.1C392.5-16.1,392.6-15.7,392.7-15.3z"/>
	<path class="st3" d="M401-20.3v6.7h4v0.9h-5v-7.6H401z"/>
	<path class="st3" d="M405.8-18c0.2-0.5,0.4-0.9,0.7-1.3c0.3-0.4,0.7-0.7,1.1-0.9c0.5-0.2,1-0.3,1.6-0.3c0.6,0,1.1,0.1,1.6,0.3
		c0.5,0.2,0.8,0.5,1.1,0.9c0.3,0.4,0.5,0.8,0.7,1.3c0.2,0.5,0.2,1,0.2,1.5c0,0.5-0.1,1-0.2,1.5c-0.2,0.5-0.4,0.9-0.7,1.3
		c-0.3,0.4-0.7,0.7-1.1,0.9c-0.5,0.2-1,0.3-1.6,0.3c-0.6,0-1.1-0.1-1.6-0.3c-0.5-0.2-0.8-0.5-1.1-0.9c-0.3-0.4-0.5-0.8-0.7-1.3
		c-0.2-0.5-0.2-1-0.2-1.5C405.5-17,405.6-17.5,405.8-18z M406.7-15.3c0.1,0.4,0.3,0.7,0.5,1c0.2,0.3,0.5,0.5,0.8,0.7
		c0.3,0.2,0.7,0.3,1.2,0.3c0.5,0,0.9-0.1,1.2-0.3c0.3-0.2,0.6-0.4,0.8-0.7c0.2-0.3,0.4-0.6,0.5-1c0.1-0.4,0.1-0.8,0.1-1.1
		c0-0.4,0-0.8-0.1-1.1c-0.1-0.4-0.3-0.7-0.5-1c-0.2-0.3-0.5-0.5-0.8-0.7c-0.3-0.2-0.7-0.3-1.2-0.3c-0.5,0-0.9,0.1-1.2,0.3
		c-0.3,0.2-0.6,0.4-0.8,0.7c-0.2,0.3-0.4,0.6-0.5,1c-0.1,0.4-0.1,0.8-0.1,1.1C406.5-16.1,406.6-15.7,406.7-15.3z"/>
	<path class="st3" d="M418.6-12.7c-0.4,0.2-0.9,0.3-1.3,0.3c-0.6,0-1.1-0.1-1.5-0.3c-0.4-0.2-0.8-0.5-1.1-0.8
		c-0.3-0.4-0.6-0.8-0.7-1.2c-0.2-0.5-0.2-0.9-0.2-1.4c0-0.6,0.1-1.1,0.2-1.6c0.2-0.5,0.4-0.9,0.7-1.3c0.3-0.4,0.7-0.7,1.1-0.9
		c0.5-0.2,1-0.3,1.6-0.3c0.4,0,0.8,0,1.2,0.1c0.4,0.1,0.7,0.2,1,0.5c0.3,0.2,0.5,0.5,0.7,0.8c0.2,0.3,0.3,0.7,0.4,1.1h-1
		c0-0.3-0.1-0.5-0.3-0.8c-0.1-0.2-0.3-0.4-0.5-0.5c-0.2-0.1-0.4-0.2-0.7-0.3c-0.3-0.1-0.5-0.1-0.8-0.1c-0.5,0-0.9,0.1-1.2,0.3
		c-0.3,0.2-0.6,0.4-0.8,0.7c-0.2,0.3-0.4,0.6-0.5,1c-0.1,0.4-0.1,0.8-0.1,1.2c0,0.4,0.1,0.8,0.2,1.1c0.1,0.4,0.3,0.7,0.5,1
		c0.2,0.3,0.5,0.5,0.8,0.7c0.3,0.2,0.7,0.2,1.1,0.2c0.4,0,0.7-0.1,1.1-0.2c0.3-0.1,0.6-0.3,0.8-0.5c0.2-0.2,0.4-0.5,0.5-0.8
		c0.1-0.3,0.2-0.6,0.1-1h-2.4v-0.9h3.3v4H420l-0.3-0.9C419.4-13.2,419.1-12.9,418.6-12.7z"/>
	<path class="st3" d="M425.3-12.7h-1v-3.1l-2.9-4.5h1.2l2.3,3.6l2.2-3.6h1.1l-2.9,4.5V-12.7z"/>
	<path class="st3" d="M435.3-20.3c0.8,0,1.3,0.2,1.7,0.6c0.4,0.4,0.6,0.9,0.6,1.7c0,0.7-0.2,1.3-0.6,1.7c-0.4,0.4-1,0.6-1.7,0.6H433
		v3.1h-1v-7.6H435.3z M435-16.6c0.6,0,1-0.1,1.3-0.4c0.3-0.2,0.4-0.6,0.4-1c0-0.5-0.1-0.8-0.4-1c-0.3-0.2-0.7-0.4-1.3-0.4h-2v2.8
		H435z"/>
	<path class="st3" d="M441.3-20.3l3,7.6h-1.1l-0.8-2.3h-3.2l-0.9,2.3h-1l3-7.6H441.3z M442-15.8l-1.3-3.5h0l-1.3,3.5H442z"/>
	<path class="st3" d="M448.6-20.3c0.7,0,1.3,0.2,1.7,0.5c0.4,0.4,0.6,0.8,0.6,1.5c0,0.5-0.1,0.9-0.3,1.2c-0.2,0.3-0.5,0.6-1,0.7v0
		c0.2,0,0.4,0.1,0.5,0.2c0.1,0.1,0.2,0.2,0.3,0.4c0.1,0.1,0.1,0.3,0.2,0.5c0,0.2,0.1,0.3,0.1,0.5c0,0.2,0,0.4,0,0.6
		c0,0.2,0,0.4,0.1,0.6c0,0.2,0.1,0.4,0.1,0.5c0.1,0.2,0.1,0.3,0.2,0.4H450c-0.1-0.1-0.1-0.2-0.1-0.3c0-0.1,0-0.3,0-0.5
		c0-0.2,0-0.3,0-0.5c0-0.2,0-0.4-0.1-0.6c0-0.2-0.1-0.4-0.1-0.5c0-0.2-0.1-0.3-0.2-0.4c-0.1-0.1-0.2-0.2-0.4-0.3
		c-0.1-0.1-0.3-0.1-0.6-0.1H446v3.2h-1v-7.6H448.6z M448.8-16.8c0.2,0,0.4-0.1,0.6-0.2c0.2-0.1,0.3-0.2,0.4-0.4
		c0.1-0.2,0.1-0.4,0.1-0.7c0-0.4-0.1-0.7-0.3-0.9c-0.2-0.2-0.6-0.4-1-0.4H446v2.7h2.1C448.3-16.8,448.6-16.8,448.8-16.8z"/>
	<path class="st3" d="M451.3-19.4v-0.9h6.1v0.9h-2.5v6.7h-1v-6.7H451.3z"/>
	<path class="st3" d="M459.3-20.3l4,6.2h0v-6.2h1v7.6h-1.1l-4-6.1h0v6.1h-1v-7.6H459.3z"/>
	<path class="st3" d="M471.1-20.3v0.9h-4.2v2.4h3.9v0.9h-3.9v2.6h4.3v0.9h-5.3v-7.6H471.1z"/>
	<path class="st3" d="M476-20.3c0.7,0,1.3,0.2,1.7,0.5c0.4,0.4,0.6,0.8,0.6,1.5c0,0.5-0.1,0.9-0.3,1.2c-0.2,0.3-0.5,0.6-1,0.7v0
		c0.2,0,0.4,0.1,0.5,0.2c0.1,0.1,0.2,0.2,0.3,0.4c0.1,0.1,0.1,0.3,0.2,0.5c0,0.2,0.1,0.3,0.1,0.5c0,0.2,0,0.4,0,0.6s0,0.4,0.1,0.6
		c0,0.2,0.1,0.4,0.1,0.5c0.1,0.2,0.1,0.3,0.2,0.4h-1.1c-0.1-0.1-0.1-0.2-0.1-0.3c0-0.1,0-0.3,0-0.5c0-0.2,0-0.3,0-0.5
		c0-0.2,0-0.4-0.1-0.6c0-0.2-0.1-0.4-0.1-0.5c0-0.2-0.1-0.3-0.2-0.4c-0.1-0.1-0.2-0.2-0.4-0.3c-0.1-0.1-0.3-0.1-0.6-0.1h-2.5v3.2h-1
		v-7.6H476z M476.2-16.8c0.2,0,0.4-0.1,0.6-0.2c0.2-0.1,0.3-0.2,0.4-0.4c0.1-0.2,0.1-0.4,0.1-0.7c0-0.4-0.1-0.7-0.3-0.9
		c-0.2-0.2-0.6-0.4-1-0.4h-2.5v2.7h2.1C475.7-16.8,476-16.8,476.2-16.8z"/>
</g>
<g>
	<g>
		<path class="st3" d="M538-1.5c0,4.2-3.4,7.5-7.5,7.5H307.5c-4.2,0-7.5-3.4-7.5-7.5v-91.9c0-4.2,3.4-7.5,7.5-7.5h222.9
			c4.2,0,7.5,3.4,7.5,7.5V-1.5z M537-93.5c0-3.6-2.9-6.5-6.5-6.5H307.5c-3.6,0-6.5,2.9-6.5,6.5v91.9c0,3.6,2.9,6.5,6.5,6.5h222.9
			c3.6,0,6.5-2.9,6.5-6.5V-93.5z"/>
	</g>
</g>
<path d="M251.9,125.1v-11h8.3v2.1h-5.9v2.3h5.2v2.1h-5.2v2.3h6v2.1L251.9,125.1L251.9,125.1z"/>
<path d="M267.7,125.3c-3.1,0.1-5.6-2.4-5.6-5.5c0-0.1,0-0.1,0-0.2l0,0c-0.1-3.1,2.4-5.6,5.5-5.7c0.1,0,0.2,0,0.2,0
	c1.7-0.1,3.2,0.5,4.4,1.7l-1.5,1.8c-0.7-0.8-1.8-1.2-2.8-1.2c-1.8,0.1-3.3,1.5-3.2,3.3c0,0.1,0,0.1,0,0.1l0,0
	c-0.1,1.8,1.2,3.4,3,3.5c0.1,0,0.1,0,0.2,0c1.1,0,2.1-0.5,2.9-1.3l1.5,1.5C271.1,124.7,269.4,125.4,267.7,125.3z"/>
<path d="M278.1,125.3c-1.7,0-3.4-0.6-4.7-1.8l1.4-1.8c0.9,0.8,2.1,1.3,3.3,1.4c1,0,1.6-0.4,1.6-1.1l0,0c0-0.6-0.4-0.9-2.2-1.4
	c-2.2-0.6-3.7-1.2-3.7-3.4l0,0c0-2,1.6-3.3,3.9-3.3c1.5,0,2.9,0.5,4.1,1.4l-1.2,1.8c-0.8-0.7-1.8-1-2.8-1.1c-0.9,0-1.4,0.4-1.4,0.9
	l0,0c0,0.7,0.5,0.9,2.4,1.4c2.3,0.6,3.5,1.4,3.5,3.3l0,0C282.2,124,280.5,125.3,278.1,125.3z"/>
<g id="Layer_1-2">
	<polygon class="st4" points="241.9,46.3 239,47.9 239,89.9 241.9,91.4 253.7,69.7 	"/>
	<polygon class="st4" points="251.1,53.9 255.4,47.7 275.1,56.4 270.5,57.2 	"/>
	<polygon class="st4" points="247.6,84.2 252.4,90.9 275.1,81.1 270.7,80.4 	"/>
	<polygon class="st5" points="248.9,89.8 241.9,91.4 241.9,46.3 248.9,47.9 	"/>
	<polygon class="st4" points="245.2,44.7 248.9,42.8 255.7,71.7 248.9,94.9 245.2,93 	"/>
	<polygon class="st4" points="270.5,80.4 275.1,81.1 279.3,69.3 275.1,56.4 270.5,57.2 	"/>
	<polygon class="st5" points="255.9,92.8 248.9,94.9 248.9,42.8 255.9,44.8 	"/>
	<polygon class="st5" points="279.9,80.2 248.9,86 248.9,94.9 279.9,86.1 	"/>
	<polygon class="st5" points="280,57.4 248.9,51.4 248.9,42.8 280,51.7 	"/>
	<polygon class="st5" points="275.1,50.3 280.1,51.7 280.1,86.1 275.1,87.5 	"/>
	<polygon class="st6" points="294.6,64.3 281.3,64.9 276.6,64.7 290.1,53.7 	"/>
	<polygon class="st4" points="276.6,64.7 290.1,63.8 290.1,53.7 276.6,55.9 	"/>
	<polygon class="st6" points="263.9,63.8 277.5,49.9 284.5,63.2 270.3,64.2 	"/>
	<polygon class="st4" points="263.9,63.8 277.5,62.6 277.5,49.9 263.9,53.2 	"/>
	<polygon class="st4" points="276.6,73.2 294.6,73.6 290.1,84.2 276.6,82 	"/>
	<polygon class="st4" points="263.9,74.1 284.5,74.6 277.5,87.9 263.9,84.7 	"/>
	<polygon class="st7" points="263.9,74.1 277.5,75.3 284.5,74.6 270.3,73.7 	"/>
	<polygon class="st7" points="294.6,73.6 281.3,73 276.6,73.2 290.1,74 	"/>
	<polygon class="st5" points="290.1,63.8 294.6,64.3 294.6,55.1 290.1,53.7 	"/>
	<polygon class="st5" points="284.5,63.2 277.5,62.6 277.5,49.9 284.5,52 	"/>
	<polygon class="st5" points="290.1,74 294.6,73.6 294.6,82.8 290.1,84.2 	"/>
	<polygon class="st5" points="284.5,74.6 277.5,75.3 277.5,87.9 284.5,85.8 	"/>
</g>
<path d="M339.7,125.1v-11h8.3v2.1h-5.9v2.3h5.2v2.1h-5.2v2.3h6v2.1L339.7,125.1L339.7,125.1z"/>
<path d="M355.4,125.3c-3.1,0.1-5.6-2.4-5.6-5.5c0-0.1,0-0.1,0-0.2l0,0c-0.1-3.1,2.4-5.6,5.5-5.7c0.1,0,0.2,0,0.2,0
	c1.7-0.1,3.2,0.5,4.4,1.7l-1.5,1.8c-0.7-0.8-1.8-1.2-2.8-1.2c-1.8,0.1-3.3,1.5-3.2,3.3c0,0.1,0,0.1,0,0.1l0,0
	c-0.1,1.8,1.2,3.4,3,3.5c0.1,0,0.1,0,0.2,0c1.1,0,2.1-0.5,2.9-1.3l1.5,1.5C358.8,124.7,357.1,125.4,355.4,125.3z"/>
<path d="M363.1,117.5l-1.7-1.4c1.1-1.5,2.1-2.3,4.1-2.3c2.4,0,3.8,1.4,3.8,3.4c0,1.8-0.9,2.8-2.9,4.3l-1.8,1.4h4.8v2.1h-8.2v-1.9
	l3.7-3c1.4-1.1,1.9-1.8,1.9-2.6c0.1-0.8-0.5-1.4-1.2-1.4c-0.1,0-0.1,0-0.2,0C364.5,116.1,363.9,116.5,363.1,117.5z"/>
<g id="Layer_1-3">
	<polygon class="st4" points="327.4,46.3 324.5,47.7 324.5,89.9 327.4,91.4 339.6,70 	"/>
	<polygon class="st5" points="334.4,89.9 327.4,91.4 327.4,46.3 334.4,47.9 	"/>
	<polygon class="st4" points="330.8,44.6 334.4,42.8 352,70.8 334.4,94.9 330.8,93.1 	"/>
	<polygon class="st5" points="343.1,92.5 334.4,94.9 334.4,42.8 343.1,45.2 	"/>
	<polygon class="st4" points="338.6,40.7 343.1,38.4 368.9,73.9 343.1,99.3 338.6,97.1 	"/>
	<polygon class="st5" points="354.3,95.2 343.1,99.3 343.1,38.4 354.3,42.5 	"/>
	<polygon class="st4" points="348.4,35.8 354.3,32.8 382.2,70.8 354.3,104.9 348.4,101.9 	"/>
	<polygon class="st5" points="384.2,89.9 354.3,104.9 354.3,32.8 384.2,47.7 	"/>
</g>
<path d="M433.1,125.1l-2.4-3.5h-1.9v3.5h-2.5v-11h5c2.6,0,4.2,1.4,4.2,3.6l0,0c0.1,1.5-0.9,3-2.4,3.4l2.7,3.9L433.1,125.1
	L433.1,125.1z M433.1,117.8c0-1.1-0.7-1.6-1.9-1.6h-2.4v3.1h2.4C432.5,119.4,433.2,118.8,433.1,117.8L433.1,117.8L433.1,117.8z"/>
<path d="M442.1,125.1h-4.3v-11h4.3c3.5,0,5.9,2.4,5.9,5.5l0,0C447.9,122.7,445.5,125.1,442.1,125.1z M445.4,119.6
	c0.1-1.7-1.2-3.3-3-3.3c-0.1,0-0.2,0-0.3,0h-1.9v6.7h1.9c1.7,0.1,3.2-1.2,3.3-3C445.4,119.9,445.4,119.7,445.4,119.6L445.4,119.6
	L445.4,119.6z"/>
<path d="M453.9,125.3c-1.7,0-3.4-0.6-4.7-1.8l1.4-1.8c0.9,0.8,2.1,1.3,3.3,1.4c1,0,1.6-0.4,1.6-1.1l0,0c0-0.6-0.4-0.9-2.2-1.4
	c-2.2-0.6-3.7-1.2-3.7-3.4l0,0c0-2,1.6-3.3,3.9-3.3c1.5,0,2.9,0.5,4.1,1.4l-1.2,1.8c-0.8-0.7-1.8-1-2.8-1.1c-0.9,0-1.4,0.4-1.4,0.9
	l0,0c0,0.7,0.5,0.9,2.4,1.4c2.3,0.6,3.5,1.4,3.5,3.3l0,0C457.9,124,456.2,125.3,453.9,125.3z"/>
<g id="Layer_1-4">
	<polygon class="st8" points="469.9,51.2 462.9,43.5 453,68.9 462.9,94.2 469.9,86.4 	"/>
	<polygon class="st9" points="450.7,100.4 462.9,94.2 462.9,43.5 450.7,37.4 436.1,68.9 	"/>
	<polygon class="st8" points="433.1,100.4 450.7,100.4 450.7,37.4 433.1,37.4 422.6,68.9 	"/>
	<polygon class="st10" points="420.9,94.2 433.1,100.4 433.1,37.4 420.9,43.5 415.5,68.9 	"/>
	<polygon class="st11" points="413.9,86.4 420.9,94.2 420.9,43.5 413.9,51.2 	"/>
</g>
<path d="M504.3,125.3c-3.1,0.1-5.6-2.4-5.6-5.5c0-0.1,0-0.1,0-0.2l0,0c-0.1-3.1,2.4-5.6,5.5-5.7c0.1,0,0.2,0,0.2,0
	c1.7-0.1,3.2,0.5,4.4,1.7l-1.5,1.8c-0.7-0.8-1.8-1.2-2.8-1.2c-1.8,0.1-3.3,1.5-3.2,3.3c0,0.1,0,0.1,0,0.1l0,0
	c-0.1,1.8,1.2,3.4,3,3.5c0.1,0,0.1,0,0.2,0c1.1,0,2.1-0.5,2.9-1.3l1.5,1.5C507.7,124.7,506,125.4,504.3,125.3z"/>
<path d="M510.6,125.1v-11.5h2.4v11.5H510.6L510.6,125.1z"/>
<path d="M519.4,125.3c-2.4,0.1-4.5-1.8-4.6-4.2c0-0.1,0-0.1,0-0.2l0,0c0.2-2.6,2.3-4.5,4.9-4.3c2.3,0.1,4.2,2,4.3,4.3l0,0
	c0,2.4-2,4.4-4.5,4.4C519.5,125.3,519.4,125.3,519.4,125.3z M521.6,120.9c0.1-1.2-0.9-2.3-2.1-2.3h-0.1c-1.2,0-2.2,0.9-2.2,2.1
	c0,0.1,0,0.1,0,0.2l0,0c-0.1,1.2,0.9,2.3,2.1,2.3h0.1c1.2,0,2.2-0.9,2.2-2.1C521.6,121,521.6,121,521.6,120.9L521.6,120.9z"/>
<path d="M531,125.1v-1.2c-0.5,0.8-1.5,1.4-2.5,1.4c-1.8,0-2.8-1.2-2.8-3.1v-5.5h2.4v4.7c0,1.1,0.5,1.8,1.4,1.8
	c0.8,0,1.5-0.6,1.5-1.4c0-0.1,0-0.2,0-0.4v-4.7h2.4v8.4H531z"/>
<path d="M541.7,125.1v-1.2c-0.6,0.9-1.6,1.4-2.6,1.4c-2,0-3.9-1.5-3.9-4.4l0,0c0-2.8,1.8-4.4,3.9-4.4c1,0,2,0.5,2.6,1.2v-4.2h2.4
	V125L541.7,125.1L541.7,125.1z M541.7,120.9c0.2-1.1-0.7-2.2-1.8-2.3c-1.1-0.2-2.2,0.7-2.3,1.8c0,0.2,0,0.4,0,0.5l0,0
	c-0.2,1.1,0.7,2.2,1.8,2.3c1.1,0.2,2.2-0.7,2.3-1.8C541.7,121.2,541.7,121,541.7,120.9L541.7,120.9z"/>
<path d="M558.5,125.1h-2.1L554,118l-2.5,7.2h-2.1l-3.7-11.1h2.6l2.3,7.5l2.5-7.5h2.1l2.5,7.5l2.3-7.5h2.6L558.5,125.1z"/>
<path d="M567.7,125.1v-0.9c-0.7,0.7-1.6,1.1-2.6,1.1c-1.6,0-2.9-0.9-2.9-2.6l0,0c0-1.8,1.4-2.7,3.4-2.7c0.7,0,1.4,0.1,2.1,0.4v-0.1
	c0-1-0.6-1.5-1.8-1.5c-0.8,0-1.6,0.2-2.3,0.5l-0.6-1.8c1-0.5,2.1-0.7,3.3-0.7c2.6,0,3.7,1.4,3.7,3.6v4.9L567.7,125.1L567.7,125.1z
	 M567.7,121.7c-0.5-0.2-1-0.3-1.5-0.3c-1,0-1.7,0.4-1.7,1.2l0,0c0.1,0.6,0.6,1.1,1.2,1.1c0.1,0,0.1,0,0.1,0c1.1,0,1.9-0.6,1.9-1.5
	V121.7L567.7,121.7z"/>
<path d="M574.9,125.3c-1.5,0-2.4-0.6-2.4-2.6v-4h-1v-2.1h1v-2.1h2.4v2.1h2v2.1h-2v3.6c-0.1,0.4,0.2,0.7,0.5,0.8c0.1,0,0.2,0,0.2,0
	c0.4,0,0.8-0.1,1.2-0.3v1.9C576.2,125.1,575.5,125.3,574.9,125.3z"/>
<path d="M582.3,125.3c-2.4,0.1-4.3-1.9-4.4-4.3c0-0.1,0-0.1,0-0.1l0,0c0-2.4,2-4.4,4.4-4.4h0.1c1.3-0.1,2.6,0.5,3.4,1.4l-1.5,1.6
	c-0.5-0.6-1.2-0.9-1.9-0.9c-1.2,0.1-2.1,1.1-2.1,2.3c0,0,0,0,0,0.1l0,0c-0.1,1.2,0.8,2.3,2,2.3c0.1,0,0.1,0,0.2,0
	c0.7,0,1.4-0.4,2-0.9l1.4,1.4C584.9,124.8,583.6,125.4,582.3,125.3z"/>
<path d="M592.7,125.1v-4.7c0-1.1-0.5-1.8-1.4-1.8c-0.8,0-1.5,0.6-1.5,1.4c0,0.1,0,0.2,0,0.4v4.7h-2.4v-11.5h2.4v4.3
	c0.5-0.8,1.5-1.4,2.5-1.4c1.8,0,2.8,1.2,2.8,3.1v5.5H592.7L592.7,125.1z"/>
<polygon class="st12" points="578.8,82.4 546.9,77.7 515,82.4 546.9,104.9 "/>
<polygon class="st13" points="521.5,81.9 526.8,83.5 539.5,64.1 526.8,44.7 521.5,46.7 "/>
<polygon class="st14" points="545.8,80.2 526.8,83.5 526.8,44.7 545.8,49 "/>
<polygon class="st13" points="537.4,86.7 529.9,84.5 529.9,36.5 537.4,32.8 559.4,61.2 "/>
<polygon class="st14" points="562.9,80.9 537.4,86.8 537.4,32.8 562.9,42.8 "/>
<polygon class="st13" points="546.9,93.7 515,82.4 515,89 546.9,104.9 "/>
<polygon class="st14" points="578.8,89 546.9,104.9 546.9,93.7 578.8,82.4 "/>
<polygon class="st12" points="569.9,71.5 562.1,71.5 540.1,73 546.9,89.6 "/>
<polygon class="st13" points="540.1,87.5 546.9,89.6 546.9,73.7 540.1,73 "/>
<polygon class="st14" points="569.9,71.5 546.9,73.7 546.9,89.6 569.9,82.7 "/>
</svg>
