<svg id="Layer_1" data-name="Layer 1" xmlns="http://www.w3.org/2000/svg" viewBox="0 0 832.94 363.31"><title>landing-logos</title><path d="M58,77.48a8,8,0,1,0-15.16,4.93l20.61,63.41a8,8,0,0,0,15.15-4.92Z" style="fill:#e8a725"/><path d="M26.09,87.86a8,8,0,0,0-15.16,4.93L31.54,156.2a8,8,0,0,0,15.15-4.92Z" style="fill:#3fb890"/><path d="M84,130A8,8,0,1,0,79,114.84L15.63,135.45a8,8,0,0,0,4.92,15.15Z" style="fill:#df1766"/><path d="M28.85,147.91L44,143l-4.92-15.16-15.16,4.93Z" style="fill:#472b49"/><path d="M60.78,137.53l15.16-4.92L71,117.45l-15.16,4.93Z" style="fill:#cc2128"/><path d="M73.59,98.07a8,8,0,0,0-4.93-15.16L5.25,103.52a8,8,0,0,0,4.92,15.15Z" style="fill:#72cada"/><path d="M18.47,116l15.16-4.93L28.7,95.89l-15.16,4.93Z" style="fill:#1e937d"/><path d="M50.4,105.6l15.16-4.93L60.63,85.52,45.47,90.44Z" style="fill:#66873a"/><path d="M148.29,94.18c2.8,1.22,3,2.14.82,6.32s-2.8,4.54-5.56,3.42a31.69,31.69,0,0,0-10.76-2.6c-4.69,0-7.8,1.68-7.8,4.23,0,8.41,26.87,3.88,26.87,21.82,0,9-7.75,15-19.38,15a45.59,45.59,0,0,1-18.87-4.69c-2.6-1.33-2.75-2.09-.51-6.37,1.94-3.77,2.55-4.18,5.35-3,4.44,1.94,10,3.42,13.82,3.42,4.28,0,7.14-1.73,7.14-4.28,0-8.16-27.33-4.28-27.33-21.67,0-9.23,7.7-15.4,19.22-15.4A45.54,45.54,0,0,1,148.29,94.18Z" style="fill:#3c444c"/><path d="M170,72.86v66.9a2.42,2.42,0,0,1-2.6,2.09h-7a2.42,2.42,0,0,1-2.6-2.09V72.86c0-3.31.92-3.62,6.12-3.62C169.75,69.24,170,69.65,170,72.86Z" style="fill:#3c444c"/><path d="M220,110.49V139.3a2.49,2.49,0,0,1-2.6,2.6h-6.93a2.5,2.5,0,0,1-2.6-2.75l0.1-3.11a19.67,19.67,0,0,1-14.58,6.37c-10.5,0-17.54-6.07-17.54-15.14,0-9.64,8-16.11,19.89-16.16a32.07,32.07,0,0,1,12,2.19V110c0-5.3-4.18-8.46-11.27-8.46a23,23,0,0,0-10.66,3.21c-2.5,1.43-3.11,1.33-5.81-2.7s-2.55-4.79,0-6.42a34,34,0,0,1,17.64-5.2C211.36,90.4,220,97.85,220,110.49Zm-32.43,16.67c0,3.42,2.91,5.71,7.29,5.71a15.19,15.19,0,0,0,12.9-6.88V121.5a27.18,27.18,0,0,0-9.28-1.68C191.93,119.82,187.55,122.93,187.55,127.16Z" style="fill:#3c444c"/><path d="M267.7,94.28c2.55,1.48,2.65,2.29-.15,6.63-2.65,4.08-3.11,4.33-5.91,2.91a20,20,0,0,0-8.36-2.09c-8.82,0-14.68,5.81-14.68,14.58,0,9.13,5.86,15.25,14.68,15.25a21.62,21.62,0,0,0,9.38-2.55c2.55-1.48,3.11-1.38,5.81,2.55,2.45,3.67,2.4,4.54.2,6.07a29.82,29.82,0,0,1-15.6,4.79c-16.32,0-27.23-10.45-27.23-26.11s10.91-25.9,27.33-25.9A31.07,31.07,0,0,1,267.7,94.28Z" style="fill:#3c444c"/><path d="M320.93,135.53c2,2.6,1.22,3.52-3.88,5.35s-5.91,1.78-7.75-.61l-14.58-19.48-6.53,6.32v12.64a2.42,2.42,0,0,1-2.6,2.09h-7a2.42,2.42,0,0,1-2.6-2.09V72.86c0-3.31.92-3.62,6.12-3.62,5.91,0,6.12.41,6.12,3.62v38l20-19.17c2.19-2.09,3.42-1.94,7.34.66,4.33,2.8,4.64,3.57,2.55,5.61l-14.89,14.48Z" style="fill:#3c444c"/><path d="M89.79,245.4a13.49,13.49,0,0,0-8.13-6.82,15.85,15.85,0,0,0-4.61-.75H52.45v9.76H77a4.37,4.37,0,0,1,3.14,1.19,4.19,4.19,0,0,1,1.25,3.2v4.29H62.56A14,14,0,0,0,56,257.69a13.62,13.62,0,0,0-4.39,3.54,13.8,13.8,0,0,0-2.43,4.61,16,16,0,0,0-.75,4.63A14.07,14.07,0,0,0,49.82,277a13.53,13.53,0,0,0,3.54,4.39,13.78,13.78,0,0,0,4.59,2.43,15.86,15.86,0,0,0,4.61.75H77a14,14,0,0,0,6.59-1.42A13.62,13.62,0,0,0,88,279.66a13.85,13.85,0,0,0,2.43-4.59,15.8,15.8,0,0,0,.75-4.6V252A14,14,0,0,0,89.79,245.4Zm-8.34,25a4.53,4.53,0,0,1-1.15,3.16A4.16,4.16,0,0,1,77,274.82H62.64a4.69,4.69,0,0,1-3.14-1.12,3.91,3.91,0,0,1-1.32-3.15,4.61,4.61,0,0,1,1.14-3.18,4.14,4.14,0,0,1,3.25-1.28H81.44v4.31Z" style="fill:#43b654"/><path d="M173.76,266.29a14.08,14.08,0,0,0,6.62-1.43,13.57,13.57,0,0,0,6.86-8.17,15.89,15.89,0,0,0,.75-4.63,14.11,14.11,0,0,0-1.43-6.63A13.61,13.61,0,0,0,183,241a13.78,13.78,0,0,0-4.61-2.45,15.89,15.89,0,0,0-4.63-.75H159.17a14.06,14.06,0,0,0-6.62,1.43,13.64,13.64,0,0,0-4.42,3.56,14,14,0,0,0-2.45,4.61,16.22,16.22,0,0,0-.75,4.64v18.59a14.06,14.06,0,0,0,1.44,6.62,13.45,13.45,0,0,0,8.17,6.86,15.92,15.92,0,0,0,4.63.76h27.35V275H159.25a4.62,4.62,0,0,1-3.2-1.16,4.07,4.07,0,0,1-1.29-3.22v-4.36h19Zm-19-14.15a4.65,4.65,0,0,1,1.16-3.21,4.14,4.14,0,0,1,3.26-1.29h14.59a4.53,4.53,0,0,1,3.12,1.16,4.06,4.06,0,0,1,1.29,3.18,4.63,4.63,0,0,1-1.16,3.2,4.15,4.15,0,0,1-3.26,1.29h-19v-4.33Z" style="fill:#43b654"/><path d="M258.78,284.7H243.14c-5.55,0-8.79-2.26-10.53-4.15a14.24,14.24,0,0,1-3.44-10V251.85c0-5.41,2.21-8.62,4.06-10.35a14.44,14.44,0,0,1,10-3.58h19.49V221h9.93v49.78a13.42,13.42,0,0,1-3.85,9.94A15,15,0,0,1,258.78,284.7Zm-19.7-13.58a4.32,4.32,0,0,0,.86,2.74,4.65,4.65,0,0,0,3.2.92H258.8c3.9-.05,3.9-3,3.9-3.95v-23H242.78a4.48,4.48,0,0,0-2.78.93,4.24,4.24,0,0,0-.89,3.08v19.27Z" style="fill:#43b654"/><path d="M9.93,301.54H0V251.64a13.44,13.44,0,0,1,3.85-10,15,15,0,0,1,10.06-3.94H29.54c5.56,0,8.81,2.26,10.55,4.16a14.26,14.26,0,0,1,3.44,10v18.78c0,5.42-2.21,8.63-4.07,10.37a14.46,14.46,0,0,1-10,3.58H9.93v16.92Zm20-26.84a4.6,4.6,0,0,0,2.82-.93,4.26,4.26,0,0,0,.9-3.1V251.35a4.34,4.34,0,0,0-.86-2.75,4.67,4.67,0,0,0-3.22-.92H13.84c-3.92.05-3.92,3-3.92,4v23h20Z" style="fill:#43b654"/><path d="M201.92,284.71H192v-33a13.44,13.44,0,0,1,3.84-9.93,15.09,15.09,0,0,1,10.09-4h19.3v9.93H205.88c-4,.06-4,3-4,4v33Z" style="fill:#43b654"/><path d="M291.69,284.74a15.19,15.19,0,0,1-10.07-4,13.43,13.43,0,0,1-3.81-9.88v-33h9.93v33c0,2.17.75,2.88,1.56,3.33a6.1,6.1,0,0,0,2.47.67h19.41v-37h9.93v46.94H291.69Z" style="fill:#43b654"/><path d="M125.2,301.1H101.62v-9.93H125.2c2.48,0,3.35-1,3.88-1.92a7.31,7.31,0,0,0,.8-2.85v-1.9H111.16a15.19,15.19,0,0,1-10.52-3.76c-1.95-1.82-4.27-5.2-4.27-10.93v-17.3A15.34,15.34,0,0,1,100.2,242c1.83-1.93,5.19-4.23,10.85-4.23h14.1c5.89,0,14.65,3.9,14.65,14.65v34.09C139.75,292.39,135.81,301.1,125.2,301.1Zm-18.91-48.92,0,0.18v17.46a4.92,4.92,0,0,0,1.13,3.68,5.53,5.53,0,0,0,3.3,1.09h19.16V252.4c0-2.63-1.06-3.52-2.1-4a7.32,7.32,0,0,0-2.63-.69h-14.1a4.93,4.93,0,0,0-3.61,1.1A5.35,5.35,0,0,0,106.28,252.18Z" style="fill:#43b654"/><path d="M404,301.23H380.47V291.3H404c2.47,0,3.34-1,3.86-1.9a7.21,7.21,0,0,0,.79-2.83v-1.82H389.88c-5.72,0-9.1-2.32-10.93-4.27a15.26,15.26,0,0,1-3.79-10.55V237.85h9.93v32.48a5.29,5.29,0,0,0,1.14,3.39,5,5,0,0,0,3.66,1.11h18.78V237.78h9.93v48.87C418.55,292.53,414.63,301.23,404,301.23Z" style="fill:#43b654"/><polygon points="353.01 284.76 343.08 284.76 343.08 247.75 326.19 247.75 326.19 237.82 343.08 237.82 343.08 225.07 353.01 225.07 353.01 237.82 369.96 237.82 369.96 247.75 353.01 247.75 353.01 284.76" style="fill:#43b654"/><path d="M733.33,152.68H721.86V158H732v3.19H721.86v5.45h11.62v3.19H718.29V149.49h15v3.19Z" style="fill:#010101"/><path d="M747.13,170.12a10.49,10.49,0,0,1,.14-21,10.57,10.57,0,0,1,7.94,3.16l-2.29,2.64a8.07,8.07,0,0,0-5.68-2.52c-3.88,0-6.69,3.19-6.69,7.19s2.81,7.24,6.69,7.24c2.49,0,4.08-1,5.82-2.64l2.29,2.32A10.47,10.47,0,0,1,747.13,170.12Z" style="fill:#010101"/><path d="M766.92,158c4.29,1,6.52,2.58,6.52,6,0,3.82-3,6.08-7.24,6.08a12.49,12.49,0,0,1-8.46-3.25l2.14-2.55a9.34,9.34,0,0,0,6.4,2.64c2.2,0,3.59-1,3.59-2.58s-0.81-2.26-4.58-3.13c-4.32-1-6.75-2.32-6.75-6.08,0-3.54,2.9-5.91,6.92-5.91a11.24,11.24,0,0,1,7.36,2.55l-1.91,2.7a9.21,9.21,0,0,0-5.51-2.09c-2.09,0-3.3,1.07-3.3,2.43C762.11,156.39,763,157.08,766.92,158Z" style="fill:#010101"/><path d="M556.64,152.68H545.17V158h10.17v3.19H545.17v5.45h11.62v3.19H541.6V149.49h15v3.19Z" style="fill:#010101"/><path d="M570.43,170.12a10.49,10.49,0,0,1,.14-21,10.57,10.57,0,0,1,7.94,3.16l-2.29,2.64a8.07,8.07,0,0,0-5.68-2.52c-3.88,0-6.69,3.19-6.69,7.19s2.81,7.24,6.69,7.24c2.49,0,4.08-1,5.82-2.64l2.29,2.32A10.47,10.47,0,0,1,570.43,170.12Z" style="fill:#010101"/><path d="M584,155.43l-2.52-2c1.94-2.72,3.85-4.26,7.48-4.26,4.06,0,6.69,2.46,6.69,6.08,0,3.22-1.68,5-5.27,7.88l-4.17,3.48h9.65v3.13H581.21V167l7-5.94c2.78-2.35,3.8-3.65,3.8-5.48a3,3,0,0,0-3.27-3.16C586.86,152.39,585.59,153.4,584,155.43Z" style="fill:#010101"/><path d="M553,363l-5-7.07h-4.46V363h-3.56V342.67h9c4.67,0,7.53,2.46,7.53,6.43a6.07,6.07,0,0,1-4.84,6.17l5.48,7.68H553Zm-4.26-17h-5.19v6.81h5.22c2.55,0,4.17-1.33,4.17-3.42S551.34,345.92,548.7,345.92Z" style="fill:#010101"/><path d="M568.46,363H560.9V342.67h7.56c6.38,0,10.78,4.38,10.78,10.11S574.84,363,568.46,363Zm0-17h-4v13.79h4c4.26,0,7-2.87,7-6.87A6.66,6.66,0,0,0,568.46,345.92Z" style="fill:#010101"/><path d="M591.09,351.19c4.29,1,6.52,2.58,6.52,6,0,3.82-3,6.08-7.24,6.08a12.49,12.49,0,0,1-8.46-3.25l2.14-2.55a9.34,9.34,0,0,0,6.4,2.64c2.2,0,3.59-1,3.59-2.58s-0.81-2.26-4.58-3.13c-4.32-1-6.75-2.32-6.75-6.08,0-3.54,2.9-5.91,6.92-5.91a11.24,11.24,0,0,1,7.36,2.55l-1.91,2.7a9.21,9.21,0,0,0-5.51-2.09c-2.09,0-3.3,1.07-3.3,2.43C586.28,349.57,587.21,350.27,591.09,351.19Z" style="fill:#010101"/><g id="Layer_1-2" data-name="Layer 1"><polygon points="699.64 24.95 694.17 27.69 694.17 104.96 699.64 107.7 721.21 67.94 699.64 24.95" style="fill:#9e5125"/><polygon points="716.38 38.8 724.43 27.37 760.65 43.47 752.12 44.91 716.38 38.8" style="fill:#9e5125"/><polygon points="710.1 94.66 718.96 106.89 760.65 88.86 752.6 87.58 710.1 94.66" style="fill:#9e5125"/><polygon points="712.36 104.8 699.64 107.7 699.64 24.95 712.36 27.85 712.36 104.8" style="fill:#f68635"/><polygon points="705.6 21.89 712.36 18.51 725.08 71.64 712.36 114.14 705.6 110.76 705.6 21.89" style="fill:#9e5125"/><polygon points="752.12 87.58 760.65 88.86 768.38 67.13 760.65 43.47 752.12 44.91 752.12 87.58" style="fill:#9e5125"/><polygon points="725.4 110.44 712.36 114.14 712.36 18.51 725.4 22.22 725.4 110.44" style="fill:#f68635"/><polygon points="769.51 87.25 712.36 97.88 712.36 114.14 769.51 98.04 769.51 87.25" style="fill:#f68635"/><polygon points="769.67 45.24 712.36 34.29 712.36 18.51 769.67 34.77 769.67 45.24" style="fill:#f68635"/><polygon points="760.65 32.2 769.83 34.77 769.83 98.04 760.65 100.62 760.65 32.2" style="fill:#f68635"/><polygon points="796.55 57.95 772.08 59.08 763.39 58.6 788.18 38.48 796.55 57.95" style="fill:#6c3b1a"/><polygon points="763.39 58.6 788.18 57.15 788.18 38.48 763.39 42.5 763.39 58.6" style="fill:#9e5125"/><polygon points="740.05 56.99 765.16 31.55 777.88 56.02 751.8 57.79 740.05 56.99" style="fill:#6c3b1a"/><polygon points="740.05 56.99 765.16 54.9 765.16 31.55 740.05 37.51 740.05 56.99" style="fill:#9e5125"/><polygon points="763.39 74.38 796.55 75.02 788.18 94.5 763.39 90.47 763.39 74.38" style="fill:#9e5125"/><polygon points="740.05 75.98 777.88 76.95 765.16 101.42 740.05 95.46 740.05 75.98" style="fill:#9e5125"/><polygon points="740.05 75.98 765.16 78.24 777.88 76.95 751.8 75.18 740.05 75.98" style="fill:#fcc093"/><polygon points="796.55 75.02 772.08 73.89 763.39 74.38 788.18 75.82 796.55 75.02" style="fill:#fcc093"/><polygon points="788.18 57.15 796.55 57.95 796.55 41.05 788.18 38.48 788.18 57.15" style="fill:#f68635"/><polygon points="777.88 56.02 765.16 54.9 765.16 31.55 777.88 35.42 777.88 56.02" style="fill:#f68635"/><polygon points="788.18 75.82 796.55 75.02 796.55 91.92 788.18 94.5 788.18 75.82" style="fill:#f68635"/><polygon points="777.88 76.95 765.16 78.24 765.16 101.42 777.88 97.56 777.88 76.95" style="fill:#f68635"/></g><g id="Layer_1-3" data-name="Layer 1"><polygon points="518.85 24.79 513.38 27.53 513.38 105.12 518.85 107.86 541.23 68.42 518.85 24.79" style="fill:#9e5125"/><polygon points="531.73 104.96 518.85 107.86 518.85 24.79 531.73 27.69 531.73 104.96" style="fill:#f68635"/><polygon points="524.97 21.73 531.73 18.35 563.93 69.87 531.73 114.3 524.97 110.92 524.97 21.73" style="fill:#9e5125"/><polygon points="547.67 109.79 531.73 114.3 531.73 18.35 547.67 22.86 547.67 109.79" style="fill:#f68635"/><polygon points="539.3 14.49 547.67 10.3 595.16 75.5 547.67 122.35 539.3 118.16 539.3 14.49" style="fill:#9e5125"/><polygon points="568.28 114.78 547.67 122.35 547.67 10.3 568.28 17.87 568.28 114.78" style="fill:#f68635"/><polygon points="557.33 5.47 568.28 0 619.47 70.03 568.28 132.65 557.33 127.18 557.33 5.47" style="fill:#9e5125"/><polygon points="623.17 105.12 568.28 132.65 568.28 0 623.17 27.53 623.17 105.12" style="fill:#f68635"/></g><g id="Layer_1-4" data-name="Layer 1"><polygon points="619.79 227.15 606.91 212.98 588.72 259.51 606.91 306.03 619.79 291.87 619.79 227.15" style="fill:#3074b8"/><polygon points="584.38 317.46 606.91 306.03 606.91 212.98 584.38 201.55 557.65 259.51 584.38 317.46" style="fill:#5295d0"/><polygon points="552.18 317.46 584.38 317.46 584.38 201.55 552.18 201.55 532.86 259.51 552.18 317.46" style="fill:#3074b8"/><polygon points="529.64 306.03 552.18 317.46 552.18 201.55 529.64 212.98 519.66 259.51 529.64 306.03" style="fill:#215c9a"/><polygon points="516.76 291.87 529.64 306.03 529.64 212.98 516.76 227.15 516.76 291.87" style="fill:#194970"/></g><path d="M667.77,363.31a10.49,10.49,0,0,1,.14-21,10.57,10.57,0,0,1,7.94,3.16l-2.29,2.64a8.07,8.07,0,0,0-5.68-2.52c-3.88,0-6.69,3.19-6.69,7.19S664,360,667.89,360c2.49,0,4.08-1,5.82-2.64l2.29,2.32A10.47,10.47,0,0,1,667.77,363.31Z" style="fill:#010101"/><path d="M679.54,363V341.81H683V363h-3.51Z" style="fill:#010101"/><path d="M694.9,363.31a7.92,7.92,0,0,1-8.11-7.94A8.16,8.16,0,1,1,694.9,363.31Zm0-12.89a4.6,4.6,0,0,0-4.61,4.9,4.73,4.73,0,0,0,4.67,5,4.61,4.61,0,0,0,4.64-4.9A4.74,4.74,0,0,0,694.9,350.41Z" style="fill:#010101"/><path d="M716.71,347.66h3.51V363h-3.51v-2.38a5.51,5.51,0,0,1-4.78,2.69c-3.45,0-5.45-2.32-5.45-5.88v-9.74H710v8.69c0,2.38,1.19,3.74,3.27,3.74s3.45-1.42,3.45-3.8v-8.63Z" style="fill:#010101"/><path d="M736.16,363v-2.55a6.12,6.12,0,0,1-5.21,2.87c-3.59,0-7.1-2.87-7.1-8s3.45-8,7.1-8a6.33,6.33,0,0,1,5.21,2.69v-8.23h3.51V363h-3.51Zm-4.37-12.58c-2.41,0-4.4,1.85-4.4,4.93s2,4.93,4.4,4.93A5,5,0,0,0,731.78,350.38Z" style="fill:#010101"/><path d="M756.56,342.62h3l5,15.1,4.84-15h3.74l-7.07,20.43H763l-5-14.58-5,14.58H750l-7.07-20.43h3.85l4.84,15Z" style="fill:#010101"/><path d="M783.71,363v-1.88a6.18,6.18,0,0,1-5,2.2c-2.9,0-5.45-1.65-5.45-4.72V358.5c0-3.3,2.64-4.93,6.2-4.93a12.87,12.87,0,0,1,4.23.64v-0.38c0-2.12-1.33-3.27-3.77-3.27a10.64,10.64,0,0,0-4.37,1l-1-2.81a13.13,13.13,0,0,1,5.82-1.27c4.52,0,6.72,2.38,6.72,6.46V363h-3.48Zm0.09-6.49a10,10,0,0,0-3.51-.61c-2.2,0-3.51.9-3.51,2.46v0.06c0,1.45,1.3,2.26,3,2.26,2.32,0,4.06-1.3,4.06-3.22v-1Z" style="fill:#010101"/><path d="M795.45,358.18a1.67,1.67,0,0,0,1.88,1.91,4.71,4.71,0,0,0,2.17-.52v2.87a6.14,6.14,0,0,1-3.16.78c-2.58,0-4.4-1.13-4.4-4.49v-8.06H790v-3h1.94v-4.2h3.51v4.2h4.12v3h-4.12v7.5Z" style="fill:#010101"/><path d="M809.73,363.31a7.82,7.82,0,0,1-7.91-7.94,7.9,7.9,0,0,1,7.94-8,7.64,7.64,0,0,1,6.11,2.64l-2.17,2.35a5.15,5.15,0,0,0-4-1.91,4.6,4.6,0,0,0-4.4,4.9,4.66,4.66,0,0,0,4.58,5,5.39,5.39,0,0,0,4-1.91l2.12,2.09A7.74,7.74,0,0,1,809.73,363.31Z" style="fill:#010101"/><path d="M822.71,363h-3.51V341.81h3.51V350a5.51,5.51,0,0,1,4.78-2.69c3.45,0,5.45,2.32,5.45,5.88V363h-3.51v-8.69c0-2.38-1.19-3.74-3.27-3.74s-3.45,1.42-3.45,3.8V363Z" style="fill:#010101"/><polygon points="803.96 284.46 745.36 275.77 686.76 284.46 745.36 325.83 803.96 284.46" style="fill:#b7ca9d"/><polygon points="698.51 283.49 708.33 286.39 731.68 250.81 708.33 215.08 698.51 218.78 698.51 283.49" style="fill:#4d622c"/><polygon points="743.43 280.44 708.33 286.55 708.33 215.08 743.43 222.96 743.43 280.44" style="fill:#769c3e"/><polygon points="727.81 292.35 714.13 288.32 714.13 200.1 727.81 193.18 768.38 245.5 727.81 292.35" style="fill:#4d622c"/><polygon points="774.66 281.56 727.81 292.51 727.81 193.18 774.66 211.53 774.66 281.56" style="fill:#769c3e"/><polygon points="745.36 305.23 686.76 284.46 686.76 296.53 745.36 325.83 745.36 305.23" style="fill:#4d622c"/><polygon points="803.96 296.53 745.36 325.83 745.36 305.23 803.96 284.46 803.96 296.53" style="fill:#769c3e"/><polygon points="787.54 264.5 773.21 264.5 732.8 267.24 745.36 297.66 787.54 264.5" style="fill:#b7ca9d"/><polygon points="732.8 293.8 745.36 297.66 745.36 268.52 732.8 267.24 732.8 293.8" style="fill:#4d622c"/><polygon points="787.54 264.5 745.36 268.52 745.36 297.66 787.54 284.94 787.54 264.5" style="fill:#769c3e"/></svg>