<?xml version="1.0" encoding="utf-8"?>
<!-- Generator: Adobe Illustrator 19.1.0, SVG Export Plug-In . SVG Version: 6.00 Build 0)  -->
<svg version="1.1" id="Layer_1" xmlns="http://www.w3.org/2000/svg" xmlns:xlink="http://www.w3.org/1999/xlink" x="0px" y="0px"
	 viewBox="0 0 80 80" style="enable-background:new 0 0 80 80;" xml:space="preserve">
<style type="text/css">
	.st0{fill:#FFFFFF;}
</style>
<path class="st0" d="M76.5,29.4c0-0.3-0.1-0.5-0.2-0.8C71.4,13.2,57,2,40,2C19,2,2,19,2,40c0,3.6,0.5,7.1,1.4,10.3
	c0,0.3,0.1,0.7,0.3,1C8.6,66.8,23,78,40,78c21,0,38-17,38-38C78,36.3,77.5,32.8,76.5,29.4z M40,72c-13,0-24.2-8-29.2-19h21.1
	l-4.8,4.8C26,59,26,60.9,27.1,62c0.6,0.6,1.4,0.9,2.1,0.9c0.8,0,1.5-0.3,2.1-0.9l9.9-9.9c0.6-0.6,0.9-1.4,0.9-2.1
	c0-0.8-0.3-1.5-0.9-2.1l-10-10c-1.2-1.2-3.1-1.2-4.2,0c-1.2,1.2-1.2,3.1,0,4.2l4.9,4.9H8.8C8.3,45,8,42.4,8,40
	C8,22.4,22.4,8.1,40,8.1C53,8.1,64.2,16,69.2,27H48.1l4.8-4.8c1.2-1.2,1.2-3.1,0-4.3c-1.2-1.2-3.1-1.2-4.2,0l-9.9,9.9
	c-0.6,0.6-0.8,1.3-0.9,2c0,0,0,0.1,0,0.1c0,0,0,0.1,0,0.1c0,0.3,0.1,0.7,0.2,1c0,0.1,0.1,0.2,0.1,0.2c0,0.1,0.1,0.2,0.1,0.3
	c0.1,0.1,0.1,0.2,0.2,0.2c0.1,0.1,0.1,0.2,0.2,0.2l10,10c0.6,0.6,1.4,0.9,2.1,0.9s1.5-0.3,2.1-0.9c1.2-1.2,1.2-3,0-4.2L48.1,33h23.1
	c0.5,2,0.8,4.6,0.8,7C72,57.7,57.6,72,40,72z"/>
</svg>
