<?xml version="1.0" encoding="utf-8"?>
<!-- Generator: Adobe Illustrator 19.1.0, SVG Export Plug-In . SVG Version: 6.00 Build 0)  -->
<svg version="1.1" id="Layer_1" xmlns="http://www.w3.org/2000/svg" xmlns:xlink="http://www.w3.org/1999/xlink" x="0px" y="0px"
	 viewBox="0 0 230 24" style="enable-background:new 0 0 230 24;" xml:space="preserve">
<style type="text/css">
	.st0{fill:#E8A723;}
	.st1{fill:#3EB890;}
	.st2{fill:#E01765;}
	.st3{fill:#472A49;}
	.st4{fill:#CC2027;}
	.st5{fill:#70CADB;}
	.st6{fill:#1A937D;}
	.st7{fill:#65863A;}
	.st8{fill:#3B434B;}
	.st9{fill:#25C151;}
</style>
<g>
	<g>
		<g>
			<path class="st0" d="M15.1,2.2c-0.4-1.1-1.5-1.7-2.6-1.4s-1.7,1.5-1.4,2.6l5.4,16.5c0.4,1,1.4,1.6,2.6,1.3
				c1.1-0.3,1.8-1.5,1.4-2.6C20.5,18.6,15.1,2.2,15.1,2.2z"/>
			<path class="st1" d="M6.8,4.9C6.4,3.8,5.3,3.2,4.2,3.5c-1,0.3-1.7,1.5-1.3,2.6l5.4,16.5c0.4,1,1.4,1.6,2.6,1.3
				c1.1-0.3,1.8-1.5,1.4-2.6C12.2,21.3,6.8,4.9,6.8,4.9z"/>
			<path class="st2" d="M21.8,15.8c1.1-0.3,1.7-1.5,1.4-2.6c-0.3-1.1-1.5-1.7-2.6-1.4L4.1,17.2c-1,0.4-1.6,1.4-1.3,2.6
				c0.3,1.1,1.5,1.8,2.6,1.4L21.8,15.8z"/>
			<path class="st3" d="M7.5,20.5c1-0.3,2.5-0.8,3.9-1.3c-0.3-1-0.8-2.5-1.3-3.9l-3.9,1.3L7.5,20.5z"/>
			<path class="st4" d="M15.8,17.8c1.5-0.5,2.9-1,3.9-1.3c-0.3-1-0.8-2.5-1.3-3.9l-3.9,1.3L15.8,17.8z"/>
			<path class="st5" d="M19.1,7.5c1.1-0.3,1.7-1.5,1.4-2.6c-0.3-1.1-1.5-1.7-2.6-1.4L1.4,9c-1,0.4-1.6,1.4-1.3,2.6s1.5,1.8,2.6,1.4
				C2.7,12.9,19.1,7.5,19.1,7.5z"/>
			<path class="st6" d="M4.8,12.2c1-0.3,2.5-0.8,3.9-1.3C8.2,9.4,7.8,8,7.4,7L3.5,8.2L4.8,12.2z"/>
			<path class="st7" d="M13.1,9.4C14.6,9,16,8.5,17,8.2c-0.5-1.5-1-2.9-1.3-3.9l-3.9,1.3L13.1,9.4z"/>
		</g>
	</g>
	<path class="st8" d="M38.5,6.5c0.7,0.3,0.8,0.6,0.2,1.7c-0.6,1.1-0.7,1.2-1.4,0.9c-0.9-0.4-2.1-0.6-2.8-0.6c-1.2,0-2,0.4-2,1.1
		c0,2.2,7,1,7,5.7c0,2.3-2,3.9-5,3.9c-1.6,0-3.5-0.6-4.9-1.2c-0.6-0.3-0.7-0.6-0.2-1.7c0.5-1,0.6-1.1,1.4-0.8
		c1.1,0.5,2.6,0.9,3.6,0.9c1.1,0,1.8-0.5,1.8-1.1c0-2.2-7.1-1.1-7.1-5.7c0-2.4,2-4,5-4C35.6,5.5,37.3,5.9,38.5,6.5z"/>
	<path class="st8" d="M44.2,1v17.4c0,0.2-0.2,0.6-0.6,0.6h-1.8c-0.4,0-0.6-0.2-0.6-0.6V1c0-0.9,0.2-1,1.6-1C44.1,0,44.2,0.1,44.2,1z
		"/>
	<path class="st8" d="M57.3,10.7v7.5c0,0.4-0.2,0.6-0.6,0.6h-1.8c-0.4,0-0.7-0.3-0.6-0.7v-0.8c-1,1.1-2.4,1.7-3.8,1.7
		c-2.7,0-4.6-1.6-4.6-3.9c0-2.5,2.1-4.2,5.2-4.2c1.2,0,2.2,0.2,3.1,0.6v-0.9c0-1.4-1.1-2.2-3-2.2c-0.9,0-1.9,0.3-2.8,0.8
		c-0.6,0.4-0.8,0.3-1.5-0.7s-0.6-1.3,0-1.7c1.3-0.8,3-1.4,4.6-1.4C55,5.5,57.3,7.4,57.3,10.7z M48.8,15c0,0.9,0.7,1.5,1.9,1.5
		c1.4,0,2.6-0.6,3.4-1.8v-1.2c-0.7-0.2-1.6-0.4-2.4-0.4C49.9,13.2,48.8,14,48.8,15z"/>
	<path class="st8" d="M69.6,6.5c0.6,0.4,0.7,0.6,0,1.8c-0.7,1-0.8,1.1-1.5,0.7c-0.6-0.3-1.4-0.6-2.2-0.6c-2.3,0-3.8,1.5-3.8,3.8
		c0,2.4,1.5,4,3.8,4c0.8,0,1.8-0.3,2.5-0.6c0.6-0.4,0.8-0.3,1.5,0.6c0.6,1,0.6,1.2,0.1,1.6C69,18.5,67.4,19,66,19
		c-4.2,0-7.1-2.7-7.1-6.8s2.9-6.7,7.1-6.7C67.2,5.5,68.7,5.9,69.6,6.5z"/>
	<path class="st8" d="M83.5,17.3c0.6,0.6,0.3,0.9-1,1.4c-1.4,0.5-1.5,0.5-2-0.2l-3.8-5L75,15.1v3.3c0,0.2-0.2,0.6-0.6,0.6h-1.8
		c-0.4,0-0.6-0.2-0.6-0.6V1c0-0.9,0.2-1,1.6-1c1.5,0,1.6,0.1,1.6,1v9.9l5.2-5c0.6-0.6,0.9-0.5,1.9,0.2c1.1,0.7,1.2,1,0.6,1.4
		L79,11.3L83.5,17.3z"/>
</g>
<g>
	<g>
		<path class="st9" d="M129.7,7.3c-0.3-0.6-0.6-1-1-1.3c-0.4-0.3-0.9-0.6-1.4-0.7c-0.5-0.2-1-0.2-1.4-0.2h-7.4v2.9h7.4
			c0.4,0,0.7,0.1,1,0.3c0.2,0.2,0.4,0.6,0.4,1v1.3h-5.6c-0.8,0-1.4,0.2-2,0.4c-0.6,0.3-1,0.6-1.3,1c-0.3,0.4-0.6,0.9-0.7,1.4
			c-0.2,0.5-0.2,1-0.2,1.4c0,0.8,0.2,1.4,0.4,2c0.3,0.6,0.6,1,1,1.3c0.4,0.3,0.9,0.6,1.4,0.7c0.5,0.2,1,0.2,1.4,0.2h4.3
			c0.8,0,1.4-0.2,2-0.4c0.6-0.3,1-0.6,1.3-1c0.3-0.4,0.6-0.9,0.7-1.4c0.2-0.5,0.2-1,0.2-1.4V9.2C130.1,8.5,129.9,7.8,129.7,7.3z
			 M127.2,14.7c0,0.4-0.1,0.7-0.3,1c-0.2,0.2-0.6,0.4-1,0.4h-4.3c-0.4,0-0.6-0.1-1-0.3c-0.2-0.2-0.4-0.6-0.4-1c0-0.4,0.1-0.7,0.3-1
			c0.2-0.2,0.6-0.4,1-0.4h5.6L127.2,14.7L127.2,14.7z"/>
	</g>
	<g>
		<path class="st9" d="M154.7,13.5c0.8,0,1.4-0.2,2-0.4c0.6-0.3,1-0.6,1.3-1c0.3-0.4,0.6-0.9,0.7-1.4c0.2-0.5,0.2-1,0.2-1.4
			c0-0.8-0.2-1.4-0.4-2c-0.3-0.6-0.6-1-1-1.3c-0.4-0.3-0.9-0.6-1.4-0.7s-1-0.2-1.4-0.2h-4.3c-0.8,0-1.4,0.2-2,0.4
			c-0.6,0.3-1,0.6-1.3,1s-0.6,0.9-0.7,1.4c-0.2,0.5-0.2,1-0.2,1.4v5.5c0,0.8,0.2,1.4,0.4,2c0.3,0.6,0.6,1,1,1.3
			c0.4,0.3,0.9,0.6,1.4,0.7c0.5,0.2,1,0.2,1.4,0.2h8.2v-3h-8.2c-0.4,0-0.7-0.1-1-0.3c-0.2-0.2-0.4-0.6-0.4-1v-1.3
			C149,13.5,154.7,13.5,154.7,13.5z M149,9.3c0-0.4,0.1-0.7,0.3-1c0.2-0.2,0.6-0.4,1-0.4h4.3c0.4,0,0.6,0.1,1,0.3
			c0.2,0.2,0.4,0.6,0.4,1c0,0.4-0.1,0.7-0.3,1c-0.2,0.2-0.6,0.4-1,0.4H149L149,9.3L149,9.3z"/>
	</g>
	<g>
		<path class="st9" d="M180,19C180,19,180,19,180,19h-4.6c-1.7,0-2.6-0.6-3.1-1.2c-1-1.1-1-2.6-1-3V9.2c0-1.6,0.6-2.6,1.2-3.1
			c1.1-1,2.6-1,3-1h5.8V0h3v14.9c0,1.5-0.6,2.5-1.1,3C181.9,18.9,180.3,19,180,19z M174.1,15c0,0.2,0,0.6,0.2,0.8
			c0.2,0.2,0.6,0.2,1,0.2h4.6c1.2,0,1.2-0.9,1.2-1.2V8h-5.9l0,0c-0.2,0-0.6,0.1-0.8,0.2c-0.2,0.2-0.2,0.5-0.2,0.9L174.1,15z"/>
	</g>
	<g>
		<path class="st9" d="M105.8,24h-3V9.1c0-1.5,0.6-2.5,1.1-3c1.2-1.1,2.7-1.2,3-1.2h4.6c1.7,0,2.6,0.6,3.1,1.2c1,1.1,1,2.6,1,3v5.6
			c0,1.6-0.6,2.6-1.2,3.1c-1.1,1-2.6,1-3,1h-5.8V24z M111.7,16c0.2,0,0.6-0.1,0.9-0.2c0.2-0.2,0.2-0.5,0.2-1V9c0-0.2,0-0.6-0.2-0.8
			C112.4,8,112,8,111.7,8H107c-1.2,0-1.2,0.9-1.2,1.2V16H111.7z"/>
	</g>
	<g>
		<path class="st9" d="M163.1,19h-3V9.1c0-1.5,0.6-2.5,1.1-3c1.2-1.1,2.7-1.2,3-1.2h5.8v3h-5.8c-1.2,0-1.2,0.9-1.2,1.2V19z"/>
	</g>
	<g>
		<path class="st9" d="M189.8,19c-0.2,0-1.8-0.1-3-1.2c-0.5-0.5-1.1-1.4-1.1-3V5h3v9.8c0,0.6,0.2,0.9,0.5,1c0.2,0.2,0.6,0.2,0.7,0.2
			h5.8V5h3v14H189.8L189.8,19z"/>
	</g>
	<g>
		<path class="st9" d="M140.2,23.8h-7v-3h7c0.7,0,1-0.3,1.1-0.6c0.2-0.3,0.2-0.7,0.2-0.9v-0.6H136c-0.4,0-1.9,0-3.1-1.1
			c-0.6-0.6-1.3-1.5-1.3-3.3V9.4c0-0.3,0-1.9,1.1-3.1c0.6-0.6,1.5-1.3,3.2-1.3h4.2c1.8,0,4.4,1.2,4.4,4.4v10.2
			C144.5,21.3,143.3,23.8,140.2,23.8z M134.5,9.3L134.5,9.3L134.5,9.3v5.3c0,0.5,0.1,0.9,0.3,1.1c0.3,0.3,1,0.3,1,0.3h0.1h5.6V9.4
			c0-0.8-0.3-1-0.6-1.2c-0.4-0.2-0.8-0.2-0.8-0.2h-4.2c-0.5,0-0.9,0.1-1,0.3C134.6,8.6,134.5,9.1,134.5,9.3z"/>
	</g>
	<g>
		<path class="st9" d="M223.3,23.9h-7v-3h7c0.7,0,1-0.3,1.1-0.6c0.2-0.3,0.2-0.7,0.2-0.9V19h-5.6c-1.7,0-2.7-0.7-3.3-1.3
			c-1.1-1.2-1.1-2.8-1.1-3.1V5h3v9.7c0,0.2,0.1,0.7,0.3,1c0.2,0.2,0.6,0.3,1.1,0.3h5.6V5h3v14.6C227.6,21.3,226.4,23.9,223.3,23.9z"
			/>
	</g>
	<g>
		<polygon class="st9" points="208.1,19 205.2,19 205.2,8 200.1,8 200.1,5.1 205.2,5.1 205.2,1.2 208.1,1.2 208.1,5.1 213.1,5.1 
			213.1,8 208.1,8 		"/>
	</g>
</g>
</svg>
