<?xml version="1.0" encoding="utf-8"?>
<!-- Generator: Adobe Illustrator 19.1.0, SVG Export Plug-In . SVG Version: 6.00 Build 0)  -->
<svg version="1.1" id="Layer_1" xmlns="http://www.w3.org/2000/svg" xmlns:xlink="http://www.w3.org/1999/xlink" x="0px" y="0px"
	 viewBox="75 9 80 40" style="enable-background:new 75 9 80 40;" xml:space="preserve">
<style type="text/css">
	.st0{fill:#FFFFFF;}
</style>
<g>
	<g>
		<g>
			<path class="st0" d="M97.8,12.4c-0.3-0.7-1-1.1-1.7-0.9c-0.7,0.2-1.1,1-0.9,1.7l3.5,10.6c0.3,0.6,0.9,1,1.7,0.8
				c0.7-0.2,1.2-1,0.9-1.7C101.3,22.9,97.8,12.4,97.8,12.4z"/>
			<path class="st0" d="M92.5,14.1c-0.3-0.7-1-1.1-1.7-0.9c-0.6,0.2-1.1,1-0.8,1.7l3.5,10.6c0.3,0.6,0.9,1,1.7,0.8
				c0.7-0.2,1.2-1,0.9-1.7C96,24.7,92.5,14.1,92.5,14.1z"/>
			<path class="st0" d="M102.1,21.1c0.7-0.2,1.1-1,0.9-1.7s-1-1.1-1.7-0.9L90.8,22c-0.6,0.3-1,0.9-0.8,1.7c0.2,0.7,1,1.2,1.7,0.9
				L102.1,21.1z"/>
			<path class="st0" d="M92.9,24.1c0.6-0.2,1.6-0.5,2.5-0.8c-0.2-0.6-0.5-1.6-0.8-2.5l-2.5,0.8L92.9,24.1z"/>
			<path class="st0" d="M98.3,22.4c1-0.3,1.9-0.6,2.5-0.8c-0.2-0.6-0.5-1.6-0.8-2.5l-2.5,0.8L98.3,22.4z"/>
			<path class="st0" d="M100.4,15.8c0.7-0.2,1.1-1,0.9-1.7c-0.2-0.7-1-1.1-1.7-0.9L89,16.8c-0.6,0.3-1,0.9-0.8,1.7
				c0.2,0.8,1,1.2,1.7,0.9C89.9,19.3,100.4,15.8,100.4,15.8z"/>
			<path class="st0" d="M91.2,18.8c0.6-0.2,1.6-0.5,2.5-0.8c-0.3-1-0.6-1.9-0.8-2.5l-2.5,0.8L91.2,18.8z"/>
			<path class="st0" d="M96.5,17c1-0.3,1.9-0.6,2.5-0.8c-0.3-1-0.6-1.9-0.8-2.5l-2.5,0.8L96.5,17z"/>
		</g>
	</g>
	<path class="st0" d="M112.8,15.2c0.4,0.2,0.5,0.4,0.1,1.1c-0.4,0.7-0.4,0.8-0.9,0.6c-0.6-0.3-1.3-0.4-1.8-0.4
		c-0.8,0-1.3,0.3-1.3,0.7c0,1.4,4.5,0.6,4.5,3.7c0,1.5-1.3,2.5-3.2,2.5c-1,0-2.2-0.4-3.1-0.8c-0.4-0.2-0.4-0.4-0.1-1.1
		c0.3-0.6,0.4-0.7,0.9-0.5c0.7,0.3,1.7,0.6,2.3,0.6c0.7,0,1.2-0.3,1.2-0.7c0-1.4-4.6-0.7-4.6-3.7c0-1.5,1.3-2.6,3.2-2.6
		C111,14.5,112,14.8,112.8,15.2z"/>
	<path class="st0" d="M116.5,11.6v11.2c0,0.1-0.1,0.4-0.4,0.4h-1.2c-0.3,0-0.4-0.1-0.4-0.4V11.6c0-0.6,0.1-0.6,1-0.6
		C116.4,11,116.5,11.1,116.5,11.6z"/>
	<path class="st0" d="M124.9,17.9v4.8c0,0.3-0.1,0.4-0.4,0.4h-1.2c-0.3,0-0.4-0.2-0.4-0.4v-0.5c-0.6,0.7-1.5,1.1-2.4,1.1
		c-1.7,0-2.9-1-2.9-2.5c0-1.6,1.3-2.7,3.3-2.7c0.8,0,1.4,0.1,2,0.4v-0.6c0-0.9-0.7-1.4-1.9-1.4c-0.6,0-1.2,0.2-1.8,0.5
		c-0.4,0.3-0.5,0.2-1-0.4c-0.4-0.6-0.4-0.8,0-1.1c0.8-0.5,1.9-0.9,2.9-0.9C123.4,14.5,124.9,15.7,124.9,17.9z M119.4,20.6
		c0,0.6,0.4,1,1.2,1c0.9,0,1.7-0.4,2.2-1.2v-0.8c-0.4-0.1-1-0.3-1.5-0.3C120.1,19.5,119.4,20,119.4,20.6z"/>
	<path class="st0" d="M132.8,15.2c0.4,0.3,0.4,0.4,0,1.2c-0.4,0.6-0.5,0.7-1,0.4c-0.4-0.2-0.9-0.4-1.4-0.4c-1.5,0-2.4,1-2.4,2.4
		c0,1.5,1,2.6,2.4,2.6c0.5,0,1.2-0.2,1.6-0.4c0.4-0.3,0.5-0.2,1,0.4c0.4,0.6,0.4,0.8,0.1,1c-0.6,0.4-1.7,0.8-2.6,0.8
		c-2.7,0-4.6-1.7-4.6-4.4s1.9-4.3,4.6-4.3C131.2,14.5,132.2,14.8,132.8,15.2z"/>
	<path class="st0" d="M141.7,22.1c0.4,0.4,0.2,0.6-0.6,0.9c-0.9,0.3-1,0.3-1.3-0.1l-2.4-3.2l-1.1,1v2.1c0,0.1-0.1,0.4-0.4,0.4h-1.2
		c-0.3,0-0.4-0.1-0.4-0.4V11.6c0-0.6,0.1-0.6,1-0.6c1,0,1,0.1,1,0.6V18l3.3-3.2c0.4-0.4,0.6-0.3,1.2,0.1c0.7,0.4,0.8,0.6,0.4,0.9
		l-2.5,2.4L141.7,22.1z"/>
</g>
<g>
	<g>
		<path class="st0" d="M92.2,34.9c-0.2-0.4-0.4-0.6-0.6-0.8c-0.3-0.2-0.6-0.4-0.9-0.4c-0.3-0.1-0.6-0.1-0.9-0.1h-4.7v1.9h4.7
			c0.3,0,0.4,0.1,0.6,0.2c0.1,0.1,0.3,0.4,0.3,0.6V37h-3.6c-0.5,0-0.9,0.1-1.3,0.3c-0.4,0.2-0.6,0.4-0.8,0.6
			c-0.2,0.3-0.4,0.6-0.4,0.9c-0.1,0.3-0.1,0.6-0.1,0.9c0,0.5,0.1,0.9,0.3,1.3c0.2,0.4,0.4,0.6,0.6,0.8s0.6,0.4,0.9,0.4
			c0.3,0.1,0.6,0.1,0.9,0.1h2.8c0.5,0,0.9-0.1,1.3-0.3c0.4-0.2,0.6-0.4,0.8-0.6c0.2-0.3,0.4-0.6,0.4-0.9c0.1-0.3,0.1-0.6,0.1-0.9
			v-3.6C92.5,35.7,92.4,35.2,92.2,34.9z M90.6,39.7c0,0.3-0.1,0.4-0.2,0.6c-0.1,0.1-0.4,0.3-0.6,0.3h-2.8c-0.3,0-0.4-0.1-0.6-0.2
			c-0.1-0.1-0.3-0.4-0.3-0.6c0-0.3,0.1-0.4,0.2-0.6c0.1-0.1,0.4-0.3,0.6-0.3h3.6L90.6,39.7L90.6,39.7z"/>
	</g>
	<g>
		<path class="st0" d="M108.3,38.9c0.5,0,0.9-0.1,1.3-0.3c0.4-0.2,0.6-0.4,0.8-0.6s0.4-0.6,0.4-0.9c0.1-0.3,0.1-0.6,0.1-0.9
			c0-0.5-0.1-0.9-0.3-1.3c-0.2-0.4-0.4-0.6-0.6-0.8c-0.3-0.2-0.6-0.4-0.9-0.4c-0.3-0.1-0.6-0.1-0.9-0.1h-2.8c-0.5,0-0.9,0.1-1.3,0.3
			c-0.4,0.2-0.6,0.4-0.8,0.6c-0.2,0.3-0.4,0.6-0.4,0.9c-0.1,0.3-0.1,0.6-0.1,0.9v3.5c0,0.5,0.1,0.9,0.3,1.3c0.2,0.4,0.4,0.6,0.6,0.8
			s0.6,0.4,0.9,0.4c0.3,0.1,0.6,0.1,0.9,0.1h5.3v-1.9h-5.3c-0.3,0-0.4-0.1-0.6-0.2c-0.1-0.1-0.3-0.4-0.3-0.6v-0.8
			C104.6,38.9,108.3,38.9,108.3,38.9z M104.6,36.2c0-0.3,0.1-0.4,0.2-0.6c0.1-0.1,0.4-0.3,0.6-0.3h2.8c0.3,0,0.4,0.1,0.6,0.2
			c0.1,0.1,0.3,0.4,0.3,0.6s-0.1,0.4-0.2,0.6c-0.1,0.1-0.4,0.3-0.6,0.3h-3.7V36.2L104.6,36.2z"/>
	</g>
	<g>
		<path class="st0" d="M124.5,42.4L124.5,42.4h-2.9c-1.1,0-1.7-0.4-2-0.8c-0.6-0.7-0.6-1.7-0.6-1.9v-3.6c0-1,0.4-1.7,0.8-2
			c0.7-0.6,1.7-0.6,1.9-0.6h3.7v-3.3h1.9v9.6c0,1-0.4,1.6-0.7,1.9C125.7,42.3,124.7,42.4,124.5,42.4z M120.7,39.8
			c0,0.1,0,0.4,0.1,0.5c0.1,0.1,0.4,0.1,0.6,0.1h2.9c0.8,0,0.8-0.6,0.8-0.8v-4.4h-3.8l0,0c-0.1,0-0.4,0.1-0.5,0.1
			c-0.1,0.1-0.1,0.3-0.1,0.6L120.7,39.8z"/>
	</g>
	<g>
		<path class="st0" d="M76.9,45.6H75v-9.6c0-1,0.4-1.6,0.7-1.9c0.8-0.7,1.7-0.8,1.9-0.8h2.9c1.1,0,1.7,0.4,2,0.8
			c0.6,0.7,0.6,1.7,0.6,1.9v3.6c0,1-0.4,1.7-0.8,2c-0.7,0.6-1.7,0.6-1.9,0.6h-3.7v3.3H76.9z M80.7,40.5c0.1,0,0.4-0.1,0.6-0.1
			c0.1-0.1,0.1-0.3,0.1-0.6V36c0-0.1,0-0.4-0.1-0.5c-0.1-0.1-0.4-0.1-0.6-0.1h-3c-0.8,0-0.8,0.6-0.8,0.8v4.4H80.7z"/>
	</g>
	<g>
		<path class="st0" d="M113.7,42.4h-1.9v-6.3c0-1,0.4-1.6,0.7-1.9c0.8-0.7,1.7-0.8,1.9-0.8h3.7v1.9h-3.7c-0.8,0-0.8,0.6-0.8,0.8
			L113.7,42.4L113.7,42.4z"/>
	</g>
	<g>
		<path class="st0" d="M130.8,42.4c-0.1,0-1.2-0.1-1.9-0.8c-0.3-0.3-0.7-0.9-0.7-1.9v-6.3h1.9v6.3c0,0.4,0.1,0.6,0.3,0.6
			c0.1,0.1,0.4,0.1,0.4,0.1h3.7v-7.1h1.9v9H130.8L130.8,42.4z"/>
	</g>
	<g>
		<path class="st0" d="M99,45.5h-4.5v-1.9H99c0.4,0,0.6-0.2,0.7-0.4c0.1-0.2,0.1-0.4,0.1-0.6v-0.4h-3.5c-0.3,0-1.2,0-2-0.7
			c-0.4-0.4-0.8-1-0.8-2.1v-3.1c0-0.2,0-1.2,0.7-2c0.4-0.4,1-0.8,2.1-0.8h2.7c1.2,0,2.8,0.8,2.8,2.8v6.5
			C101.7,43.9,101,45.5,99,45.5z M95.3,36.2L95.3,36.2L95.3,36.2v3.4c0,0.3,0.1,0.6,0.2,0.7c0.2,0.2,0.6,0.2,0.6,0.2h0.1h3.6v-4.2
			c0-0.5-0.2-0.6-0.4-0.8c-0.3-0.1-0.5-0.1-0.5-0.1h-2.7c-0.3,0-0.6,0.1-0.6,0.2C95.4,35.7,95.3,36.1,95.3,36.2z"/>
	</g>
	<g>
		<path class="st0" d="M152.2,45.6h-4.5v-1.9h4.5c0.4,0,0.6-0.2,0.7-0.4c0.1-0.2,0.1-0.4,0.1-0.6v-0.3h-3.6c-1.1,0-1.7-0.4-2.1-0.8
			c-0.7-0.8-0.7-1.8-0.7-2v-6.2h1.9v6.2c0,0.1,0.1,0.4,0.2,0.6c0.1,0.1,0.4,0.2,0.7,0.2h3.6v-7.1h1.9v9.4
			C155,43.9,154.2,45.6,152.2,45.6z"/>
	</g>
	<g>
		<polygon class="st0" points="142.5,42.4 140.6,42.4 140.6,35.4 137.4,35.4 137.4,33.5 140.6,33.5 140.6,31 142.5,31 142.5,33.5 
			145.7,33.5 145.7,35.4 142.5,35.4 		"/>
	</g>
</g>
</svg>
