<svg id="Layer_1" data-name="Layer 1" xmlns="http://www.w3.org/2000/svg" xmlns:xlink="http://www.w3.org/1999/xlink" viewBox="0 0 850 524.29"><defs><clipPath id="clip-path"><polygon points="194.05 344.87 192.75 346.17 196.96 350.38 192.75 354.6 194.05 355.89 199.56 350.38 194.05 344.87" style="fill:none;clip-rule:evenodd"/></clipPath><clipPath id="clip-path-2"><rect x="4.93" y="-313.79" width="344.42" height="700.91" style="fill:none"/></clipPath><clipPath id="clip-path-3"><path d="M283.85,304a13.77,13.77,0,0,1,13.78-13.78H558.46a13.78,13.78,0,0,1,0,27.55H297.62A13.78,13.78,0,0,1,283.85,304Z" style="fill:none;clip-rule:evenodd"/></clipPath><clipPath id="clip-path-4"><rect x="255.15" width="344.42" height="524.29" style="fill:none"/></clipPath><clipPath id="clip-path-5"><path d="M289.36,303.77a8.27,8.27,0,0,1,8.27-8.27H430.42a8.27,8.27,0,1,1,0,16.53H297.63A8.27,8.27,0,0,1,289.36,303.77Z" style="fill:none;clip-rule:evenodd"/></clipPath><clipPath id="clip-path-9"><circle cx="538.45" cy="328.29" r="18.37" style="fill:#69a944"/></clipPath><clipPath id="clip-path-10"><rect x="505.39" y="155.62" width="344.42" height="524.29" style="fill:#69a944"/></clipPath><clipPath id="clip-path-11"><circle cx="538.45" cy="387.17" r="18.37" style="fill:#69a944"/></clipPath><clipPath id="clip-path-12"><rect x="505.39" y="148.37" width="344.42" height="524.29" style="fill:#69a944"/></clipPath><clipPath id="clip-path-13"><circle cx="538.45" cy="446.04" r="18.37" style="fill:#69a944"/></clipPath><clipPath id="clip-path-14"><rect x="505.39" y="141.12" width="344.42" height="524.29" style="fill:#69a944"/></clipPath></defs><title>onboarding</title><g style="opacity:0.2"><path d="M5.37,80.57H338.75a6.54,6.54,0,0,1,6.4,6.43V403.11a5.29,5.29,0,0,1-5.37,5.39H6.4A6.54,6.54,0,0,1,0,402.08V86A5.29,5.29,0,0,1,5.37,80.57Z" style="fill:#303030"/></g><rect x="4.42" y="85.37" width="345.15" height="327.93" style="fill:#303030"/><rect x="4.93" y="85.08" width="344.42" height="70.65" style="fill:#4f4f4f"/><g style="opacity:0.870000004768372"><path d="M31.47,133.19H29.38l-0.76-4.75H23.26l-0.72,4.75H20.45l4.21-25.27h2.59Zm-7.88-6.77H28.3l-2.38-14.94Z" style="fill:#fff"/><path d="M45.76,130.13L48.5,108h2.09l-3.42,25.2H44.43l-2.48-19.94L39.5,133.19H36.76L33.34,108h2.2l2.66,22.25L40.94,108h2.12Z" style="fill:#fff"/><path d="M62.68,125.23v3.82c0,2.88-1.48,4.36-4.43,4.36H57.46c-2.92,0-4.39-1.48-4.39-4.32V123.9h2.12v5.26c0,1.51.79,2.23,2.34,2.23h0.65c1.55,0,2.34-.72,2.34-2.23v-3.85a3,3,0,0,0-1.44-2.77l-3.71-2.77a4.88,4.88,0,0,1-2.27-4.5v-3.13c0-2.88,1.44-4.36,4.43-4.36h0.68c2.92,0,4.39,1.48,4.39,4.32v4.43H60.48V112c0-1.51-.76-2.23-2.34-2.23H57.6c-1.58,0-2.34.72-2.34,2.23v3.2A3.05,3.05,0,0,0,56.7,118l3.71,2.74A4.85,4.85,0,0,1,62.68,125.23Z" style="fill:#fff"/><path d="M79.71,123.65V129c0,2.92-1.48,4.43-4.43,4.43h-1c-3,0-4.43-1.51-4.43-4.43V112.17c0-2.88,1.48-4.39,4.43-4.39h1c2.92,0,4.36,1.48,4.36,4.36v4.64H77.51V112.1a2,2,0,0,0-2.34-2.3H74.38A2,2,0,0,0,72,112.1v17a2,2,0,0,0,2.34,2.3h0.86a2,2,0,0,0,2.34-2.3v-5.44h2.12Z" style="fill:#fff"/><path d="M82.55,113.86H84.6v1.94a3.72,3.72,0,0,1,3.31-2.12V116a4.76,4.76,0,0,0-3.31,1.4v15.77H82.55V113.86Z" style="fill:#fff"/><path d="M91.88,124.34v4.93a1.92,1.92,0,0,0,2.2,2.16H94.5a1.93,1.93,0,0,0,2.2-2.16V127h2v2.16c0,2.77-1.44,4.21-4.21,4.21H94c-2.81,0-4.21-1.44-4.21-4.21V117.86c0-2.77,1.4-4.21,4.21-4.21h0.5c2.77,0,4.21,1.44,4.21,4.21v6.48H91.88Zm0-2h4.75v-4.57a1.93,1.93,0,0,0-2.16-2.2h-0.4a2,2,0,0,0-2.2,2.2v4.57Z" style="fill:#fff"/><path d="M110.41,133.19h-2.05v-1.33a5.1,5.1,0,0,1-3.53,1.55h-0.07c-2.23,0-3.38-1.37-3.38-3.56V117.21c0-2.2,1.15-3.56,3.38-3.56h0.07a5.08,5.08,0,0,1,3.53,1.51v-7.52h2.05v25.56ZM108.36,117a4.25,4.25,0,0,0-2.92-1.33h-0.07a1.65,1.65,0,0,0-1.94,1.8v12.2a1.65,1.65,0,0,0,1.94,1.8h0.07a4.49,4.49,0,0,0,2.92-1.3V117Z" style="fill:#fff"/><path d="M115.35,124.34v4.93a1.92,1.92,0,0,0,2.2,2.16H118a1.93,1.93,0,0,0,2.2-2.16V127h2v2.16c0,2.77-1.44,4.21-4.21,4.21h-0.5c-2.81,0-4.21-1.44-4.21-4.21V117.86c0-2.77,1.4-4.21,4.21-4.21H118c2.77,0,4.21,1.44,4.21,4.21v6.48h-6.84Zm0-2h4.75v-4.57a1.93,1.93,0,0,0-2.16-2.2h-0.4a2,2,0,0,0-2.2,2.2v4.57Z" style="fill:#fff"/><path d="M125,113.86H127v1.33a5.32,5.32,0,0,1,3.56-1.55h0.11c2.16,0,3.24,1.19,3.24,3.31v16.23h-2.05V117.35a1.58,1.58,0,0,0-1.8-1.76h0a4.92,4.92,0,0,0-3,1.22v16.38H125V113.86Z" style="fill:#fff"/><path d="M139.65,133.19h-2.09V115.77h-1.4v-1.91h1.4v-3.24h2.09v3.24h2.23v1.91h-2.23v17.42Z" style="fill:#fff"/><path d="M143.89,108.82h2.16v2.74h-2.16v-2.74Zm0,5H146v19.33h-2.09V113.86Z" style="fill:#fff"/><path d="M148.83,126.57c0-2.23.79-3.17,2.88-4l3.82-1.4v-3.56a1.84,1.84,0,0,0-2.09-2.05h-0.25a1.87,1.87,0,0,0-2.12,2.05v2.48h-2v-2.41c0-2.66,1.4-4.07,4.14-4.07h0.29c2.74,0,4.1,1.4,4.1,4.07v15.48h-2.05v-1.3a5.28,5.28,0,0,1-3.49,1.51H152c-2.09,0-3.13-1.15-3.13-3.28v-3.56Zm6.7,3.74v-7.16l-3,1.12a2.14,2.14,0,0,0-1.66,2.34v3.13a1.49,1.49,0,0,0,1.69,1.69h0A5.21,5.21,0,0,0,155.52,130.31Z" style="fill:#fff"/><path d="M160.6,107.63h2.09v25.56H160.6V107.63Z" style="fill:#fff"/><path d="M172.26,117.53a1.78,1.78,0,0,0-2.05-2h-0.5a1.79,1.79,0,0,0-2.05,2v1.76a2.29,2.29,0,0,0,1.22,2.2l3.28,2a3.93,3.93,0,0,1,2.2,3.78v2.05c0,2.63-1.37,4.07-4.1,4.07h-0.58c-2.74,0-4.07-1.44-4.07-4v-3h2v3.1a1.77,1.77,0,0,0,2.05,1.94h0.61a1.74,1.74,0,0,0,2-1.94v-2a2.24,2.24,0,0,0-1.22-2.16l-3.28-2.05a3.92,3.92,0,0,1-2.16-3.78v-1.84c0-2.66,1.33-4.07,4.1-4.07h0.5c2.74,0,4,1.4,4,4v2.81h-2v-3Z" style="fill:#fff"/></g><rect x="15.23" y="208.96" width="319.62" height="33.98" style="fill:#010101"/><rect x="15.23" y="279.68" width="319.62" height="33.98" style="fill:#010101"/><g style="opacity:0.560000002384186"><path d="M34,199.51H32.61l-1.31-3H25.2l-1.33,3h-1.3l5.11-11.29h1.18Zm-5.71-9.81-2.56,5.71H30.8Z" style="fill:#fff"/><path d="M39.31,199.7a4.32,4.32,0,1,1,3.31-7.17l-0.82.87a3.34,3.34,0,0,0-2.51-1.25,3.06,3.06,0,0,0-3,3.22,3.1,3.1,0,0,0,3,3.23,3.41,3.41,0,0,0,2.53-1.23l0.78,0.74A4.26,4.26,0,0,1,39.31,199.7Z" style="fill:#fff"/><path d="M48.21,199.7a4.32,4.32,0,1,1,3.31-7.17l-0.82.87a3.34,3.34,0,0,0-2.51-1.25,3.06,3.06,0,0,0-3,3.22,3.1,3.1,0,0,0,3,3.23,3.41,3.41,0,0,0,2.53-1.23l0.78,0.74A4.26,4.26,0,0,1,48.21,199.7Z" style="fill:#fff"/><path d="M57,198.63a3.42,3.42,0,0,0,2.61-1.17l0.77,0.69A4.27,4.27,0,0,1,57,199.7a4.33,4.33,0,0,1-.16-8.64c2.45,0,3.86,2,3.86,4.39a3.44,3.44,0,0,1,0,.38H54.12A2.9,2.9,0,0,0,57,198.63Zm2.42-3.71c-0.13-1.5-1-2.82-2.64-2.82a2.85,2.85,0,0,0-2.69,2.82h5.33Z" style="fill:#fff"/><path d="M65.6,199.67a5.69,5.69,0,0,1-3.42-1.22l0.62-.88a4.83,4.83,0,0,0,2.87,1.06,1.48,1.48,0,0,0,1.71-1.31v0c0-.83-1-1.15-2.07-1.46-1.3-.37-2.74-0.82-2.74-2.34v0c0-1.42,1.18-2.37,2.82-2.37a5.66,5.66,0,0,1,3,.91l-0.56.93a4.68,4.68,0,0,0-2.45-.8,1.37,1.37,0,0,0-1.6,1.2v0c0,0.78,1,1.09,2.13,1.42,1.28,0.38,2.66.88,2.66,2.37v0C68.54,198.76,67.25,199.67,65.6,199.67Z" style="fill:#fff"/><path d="M73.42,199.67A5.69,5.69,0,0,1,70,198.45l0.62-.88a4.83,4.83,0,0,0,2.87,1.06,1.48,1.48,0,0,0,1.71-1.31v0c0-.83-1-1.15-2.07-1.46-1.3-.37-2.74-0.82-2.74-2.34v0c0-1.42,1.18-2.37,2.82-2.37a5.66,5.66,0,0,1,3,.91l-0.56.93a4.68,4.68,0,0,0-2.45-.8,1.37,1.37,0,0,0-1.6,1.2v0c0,0.78,1,1.09,2.13,1.42,1.28,0.38,2.66.88,2.66,2.37v0C76.36,198.76,75.07,199.67,73.42,199.67Z" style="fill:#fff"/><path d="M93.2,199.51H91.61l-4.31-5.43-2.38,2.42v3H83.66V188.3h1.26V195l6.43-6.69H93l-4.8,4.9Z" style="fill:#fff"/><path d="M98.12,198.63a3.42,3.42,0,0,0,2.61-1.17l0.77,0.69a4.27,4.27,0,0,1-3.41,1.55,4.33,4.33,0,0,1-.16-8.64c2.45,0,3.86,2,3.86,4.39a3.44,3.44,0,0,1,0,.38H95.21A2.9,2.9,0,0,0,98.12,198.63Zm2.42-3.71c-0.13-1.5-1-2.82-2.64-2.82a2.85,2.85,0,0,0-2.69,2.82h5.33Z" style="fill:#fff"/><path d="M107.58,199.78c-0.7,1.71-1.5,2.34-2.75,2.34a3.76,3.76,0,0,1-1.76-.42l0.42-1a2.58,2.58,0,0,0,1.3.3c0.74,0,1.2-.38,1.7-1.55l-3.76-8.24h1.36l3,6.9,2.66-6.9h1.31Z" style="fill:#fff"/><path d="M119.39,188.3v11.21h-1.26V188.3h1.26Z" style="fill:#fff"/><path d="M126.56,199.51h-3.89V188.3h3.89c3.52,0,6,2.42,6,5.59A5.61,5.61,0,0,1,126.56,199.51Zm0-10h-2.62v8.87h2.63A4.44,4.44,0,1,0,126.56,189.47Z" style="fill:#fff"/></g><g style="opacity:0.560000002384186"><path d="M27.55,264c2.5,0.54,3.65,1.46,3.65,3.19,0,1.94-1.6,3.19-3.83,3.19a6.56,6.56,0,0,1-4.58-1.79l0.78-.93a5.33,5.33,0,0,0,3.84,1.58c1.5,0,2.5-.78,2.5-1.92s-0.56-1.65-2.91-2.14c-2.58-.56-3.76-1.39-3.76-3.25s1.55-3.07,3.68-3.07a5.85,5.85,0,0,1,3.94,1.38l-0.74,1A4.92,4.92,0,0,0,26.89,260c-1.46,0-2.38.8-2.38,1.83S25.08,263.49,27.55,264Z" style="fill:#fff"/><path d="M37.21,269.35a3.42,3.42,0,0,0,2.61-1.17l0.77,0.69a4.27,4.27,0,0,1-3.41,1.55,4.33,4.33,0,0,1-.16-8.64c2.45,0,3.86,2,3.86,4.39a3.44,3.44,0,0,1,0,.38H34.3A2.9,2.9,0,0,0,37.21,269.35Zm2.42-3.71c-0.13-1.5-1-2.82-2.64-2.82a2.85,2.85,0,0,0-2.69,2.82h5.33Z" style="fill:#fff"/><path d="M46.76,270.42a4.32,4.32,0,1,1,3.31-7.17l-0.82.87a3.34,3.34,0,0,0-2.51-1.25,3.06,3.06,0,0,0-3,3.22,3.1,3.1,0,0,0,3,3.23,3.41,3.41,0,0,0,2.53-1.23l0.78,0.74A4.26,4.26,0,0,1,46.76,270.42Z" style="fill:#fff"/><path d="M53.4,270.23H52.17V262H53.4v2.16a3.54,3.54,0,0,1,3.38-2.31v1.33h-0.1c-1.81,0-3.28,1.3-3.28,3.79v3.3Z" style="fill:#fff"/><path d="M61.95,269.35a3.42,3.42,0,0,0,2.61-1.17l0.77,0.69a4.27,4.27,0,0,1-3.41,1.55,4.33,4.33,0,0,1-.16-8.64c2.45,0,3.86,2,3.86,4.39a3.44,3.44,0,0,1,0,.38H59A2.9,2.9,0,0,0,61.95,269.35Zm2.42-3.71c-0.13-1.5-1-2.82-2.64-2.82A2.85,2.85,0,0,0,59,265.64h5.33Z" style="fill:#fff"/><path d="M69.44,267.88a1.22,1.22,0,0,0,1.39,1.38A2.6,2.6,0,0,0,72,269V270a3.11,3.11,0,0,1-1.49.35A2.11,2.11,0,0,1,68.2,268v-5H67.05V262H68.2v-2.5h1.23V262h2.63V263H69.44v4.83Z" style="fill:#fff"/><path d="M88.78,270.23H87.2l-4.31-5.43-2.38,2.42v3H79.24V259h1.26v6.69L86.94,259h1.63l-4.8,4.9Z" style="fill:#fff"/><path d="M93.72,269.35a3.42,3.42,0,0,0,2.61-1.17l0.77,0.69a4.27,4.27,0,0,1-3.41,1.55,4.33,4.33,0,0,1-.16-8.64c2.45,0,3.86,2,3.86,4.39a3.44,3.44,0,0,1,0,.38H90.81A2.9,2.9,0,0,0,93.72,269.35Zm2.42-3.71c-0.13-1.5-1-2.82-2.64-2.82a2.85,2.85,0,0,0-2.69,2.82h5.33Z" style="fill:#fff"/><path d="M103.18,270.5c-0.7,1.71-1.5,2.34-2.75,2.34a3.76,3.76,0,0,1-1.76-.42l0.42-1a2.58,2.58,0,0,0,1.3.3c0.74,0,1.2-.38,1.7-1.55L98.31,262h1.36l3,6.9,2.66-6.9h1.31Z" style="fill:#fff"/></g><path d="M23.3,335.69H331a3.67,3.67,0,0,1,3.67,3.67v22a3.68,3.68,0,0,1-3.68,3.68H23.3a3.67,3.67,0,0,1-3.67-3.67v-22a3.68,3.68,0,0,1,3.68-3.68Z" style="fill:#7eb248"/><path d="M147.34,345.23h1.94v11.2h-1.65l-6.18-8v8h-1.94v-11.2h1.83l6,7.75v-7.75Z" style="fill:#fff"/><path d="M160.46,347h-6.34v2.91h5.62v1.76h-5.62v3h6.42v1.76h-8.39v-11.2h8.31V347Z" style="fill:#fff"/><path d="M170.19,356.43l-2.95-4.24-3,4.24H162l4.08-5.7-3.92-5.51h2.32l2.79,4,2.8-4h2.26l-3.91,5.47,4.07,5.73h-2.32Z" style="fill:#fff"/><path d="M179.27,356.43h-2v-9.38h-3.55v-1.82h9.09v1.82h-3.55v9.38Z" style="fill:#fff"/><g style="clip-path:url(#clip-path)"><g style="clip-path:url(#clip-path-2)"><rect x="190.46" y="342.57" width="11.4" height="15.61" style="fill:#fff"/></g></g><path d="M33.34,231.56H32.06v-4.43l-4.66-6.77h1.54l3.78,5.6,3.81-5.6H38l-4.66,6.75v4.45Z" style="fill:#fff"/><path d="M41.84,231.75a4.24,4.24,0,0,1-4.29-4.31A4.31,4.31,0,1,1,41.84,231.75Zm0-7.55a3,3,0,0,0-3,3.22,3.11,3.11,0,0,0,3.06,3.23,3,3,0,0,0,3-3.2A3.13,3.13,0,0,0,41.84,224.2Z" style="fill:#fff"/><path d="M54.27,223.29h1.22v8.28H54.27v-1.44a3.15,3.15,0,0,1-2.83,1.62,3,3,0,0,1-3.17-3.31v-5.14H49.5v4.83a2.21,2.21,0,0,0,2.29,2.5A2.44,2.44,0,0,0,54.27,228v-4.74Z" style="fill:#fff"/><path d="M59.49,231.56H58.25v-8.28h1.23v2.16a3.54,3.54,0,0,1,3.38-2.31v1.33h-0.1c-1.81,0-3.28,1.3-3.28,3.79v3.3Z" style="fill:#fff"/><path d="M80.18,231.56H78.82l-1.31-3h-6.1l-1.33,3h-1.3l5.11-11.28h1.18Zm-5.71-9.81-2.56,5.71H77Z" style="fill:#fff"/><path d="M87.73,220.32h1l3.07,9.36,3.2-9.33h1.33l-4,11.28H91.3l-3.07-9.09-3.09,9.09H84.08l-4-11.28h1.38l3.2,9.33Z" style="fill:#fff"/><path d="M102.37,225.35c2.5,0.54,3.65,1.46,3.65,3.19,0,1.94-1.6,3.19-3.83,3.19a6.55,6.55,0,0,1-4.58-1.79L98.4,229a5.33,5.33,0,0,0,3.84,1.58c1.5,0,2.5-.78,2.5-1.92s-0.56-1.65-2.91-2.15c-2.58-.56-3.76-1.39-3.76-3.25s1.55-3.07,3.68-3.07a5.85,5.85,0,0,1,3.94,1.38l-0.74,1a4.92,4.92,0,0,0-3.23-1.22c-1.46,0-2.38.8-2.38,1.82S99.9,224.82,102.37,225.35Z" style="fill:#fff"/><path d="M123.83,231.56h-1.36l-1.31-3h-6.1l-1.33,3h-1.3l5.11-11.28h1.18Zm-5.71-9.81-2.56,5.71h5.11Z" style="fill:#fff"/><path d="M129.15,231.75a4.32,4.32,0,1,1,3.31-7.17l-0.82.86a3.34,3.34,0,0,0-2.51-1.25,3.06,3.06,0,0,0-3,3.22,3.1,3.1,0,0,0,3,3.23,3.41,3.41,0,0,0,2.53-1.23l0.78,0.74A4.26,4.26,0,0,1,129.15,231.75Z" style="fill:#fff"/><path d="M138.06,231.75a4.32,4.32,0,1,1,3.31-7.17l-0.82.86A3.34,3.34,0,0,0,138,224.2a3.06,3.06,0,0,0-3,3.22,3.1,3.1,0,0,0,3,3.23,3.41,3.41,0,0,0,2.53-1.23l0.78,0.74A4.26,4.26,0,0,1,138.06,231.75Z" style="fill:#fff"/><path d="M146.89,230.68a3.42,3.42,0,0,0,2.61-1.17l0.77,0.69a4.27,4.27,0,0,1-3.41,1.55,4.33,4.33,0,0,1-.16-8.64c2.45,0,3.86,2,3.86,4.39a3.43,3.43,0,0,1,0,.38H144A2.9,2.9,0,0,0,146.89,230.68Zm2.42-3.71c-0.13-1.5-1-2.82-2.64-2.82A2.85,2.85,0,0,0,144,227h5.33Z" style="fill:#fff"/><path d="M155.45,231.72A5.69,5.69,0,0,1,152,230.5l0.62-.88a4.84,4.84,0,0,0,2.87,1.06,1.48,1.48,0,0,0,1.71-1.31v0c0-.83-1-1.15-2.07-1.46-1.3-.37-2.74-0.82-2.74-2.34v0c0-1.42,1.18-2.37,2.82-2.37a5.66,5.66,0,0,1,3,.91l-0.56.93a4.68,4.68,0,0,0-2.45-.8,1.37,1.37,0,0,0-1.6,1.2v0c0,0.78,1,1.09,2.13,1.42,1.28,0.38,2.66.88,2.66,2.37v0C158.4,230.81,157.1,231.72,155.45,231.72Z" style="fill:#fff"/><path d="M163.28,231.72a5.69,5.69,0,0,1-3.42-1.22l0.62-.88a4.84,4.84,0,0,0,2.87,1.06,1.48,1.48,0,0,0,1.71-1.31v0c0-.83-1-1.15-2.07-1.46-1.3-.37-2.74-0.82-2.74-2.34v0c0-1.42,1.18-2.37,2.82-2.37a5.66,5.66,0,0,1,3,.91l-0.56.93a4.68,4.68,0,0,0-2.45-.8,1.37,1.37,0,0,0-1.6,1.2v0c0,0.78,1,1.09,2.13,1.42,1.28,0.38,2.66.88,2.66,2.37v0C166.22,230.81,164.93,231.72,163.28,231.72Z" style="fill:#fff"/><path d="M183.06,231.56h-1.58l-4.31-5.43-2.38,2.42v3h-1.26v-11.2h1.26V227l6.43-6.69h1.63l-4.8,4.9Z" style="fill:#fff"/><path d="M188,230.68a3.42,3.42,0,0,0,2.61-1.17l0.77,0.69a4.27,4.27,0,0,1-3.41,1.55,4.33,4.33,0,0,1-.16-8.64c2.45,0,3.86,2,3.86,4.39a3.43,3.43,0,0,1,0,.38h-6.56A2.9,2.9,0,0,0,188,230.68Zm2.42-3.71c-0.13-1.5-1-2.82-2.64-2.82a2.85,2.85,0,0,0-2.69,2.82h5.33Z" style="fill:#fff"/><path d="M197.47,231.83c-0.7,1.71-1.5,2.34-2.75,2.34a3.76,3.76,0,0,1-1.76-.42l0.42-1a2.59,2.59,0,0,0,1.3.3c0.74,0,1.2-.38,1.7-1.55l-3.76-8.24H194l3,6.9,2.66-6.9h1.31Z" style="fill:#fff"/><path d="M209.28,220.36v11.2H208v-11.2h1.26Z" style="fill:#fff"/><path d="M216.45,231.56h-3.89v-11.2h3.89c3.52,0,6,2.42,6,5.59A5.61,5.61,0,0,1,216.45,231.56Zm0-10h-2.62v8.87h2.63A4.44,4.44,0,1,0,216.45,221.52Z" style="fill:#fff"/><path d="M33.34,302.28H32.06v-4.43l-4.66-6.77h1.54l3.78,5.6,3.81-5.6H38l-4.66,6.75v4.45Z" style="fill:#fff"/><path d="M41.84,302.47a4.24,4.24,0,0,1-4.29-4.31A4.31,4.31,0,1,1,41.84,302.47Zm0-7.55a3,3,0,0,0-3,3.22,3.11,3.11,0,0,0,3.06,3.23,3,3,0,0,0,3-3.2A3.13,3.13,0,0,0,41.84,294.92Z" style="fill:#fff"/><path d="M54.27,294h1.22v8.28H54.27v-1.44a3.15,3.15,0,0,1-2.83,1.62,3,3,0,0,1-3.17-3.31V294H49.5v4.83a2.21,2.21,0,0,0,2.29,2.5,2.44,2.44,0,0,0,2.48-2.59V294Z" style="fill:#fff"/><path d="M59.49,302.28H58.25V294h1.23v2.16a3.54,3.54,0,0,1,3.38-2.31v1.33h-0.1c-1.81,0-3.28,1.3-3.28,3.79v3.3Z" style="fill:#fff"/><path d="M80.18,302.28H78.82l-1.31-3h-6.1l-1.33,3h-1.3L73.89,291h1.18Zm-5.71-9.81-2.56,5.71H77Z" style="fill:#fff"/><path d="M87.73,291h1l3.07,9.36,3.2-9.33h1.33l-4,11.28H91.3l-3.07-9.09-3.09,9.09H84.08l-4-11.28h1.38l3.2,9.33Z" style="fill:#fff"/><path d="M102.37,296.07c2.5,0.54,3.65,1.46,3.65,3.19,0,1.94-1.6,3.19-3.83,3.19a6.55,6.55,0,0,1-4.58-1.79l0.78-.93a5.33,5.33,0,0,0,3.84,1.58c1.5,0,2.5-.78,2.5-1.92s-0.56-1.65-2.91-2.15c-2.58-.56-3.76-1.39-3.76-3.25s1.55-3.07,3.68-3.07a5.85,5.85,0,0,1,3.94,1.38l-0.74,1a4.92,4.92,0,0,0-3.23-1.22c-1.46,0-2.38.8-2.38,1.82S99.9,295.54,102.37,296.07Z" style="fill:#fff"/><path d="M117.41,296.07c2.5,0.54,3.65,1.46,3.65,3.19,0,1.94-1.6,3.19-3.83,3.19a6.55,6.55,0,0,1-4.58-1.79l0.78-.93a5.33,5.33,0,0,0,3.84,1.58c1.5,0,2.5-.78,2.5-1.92s-0.56-1.65-2.91-2.15c-2.58-.56-3.76-1.39-3.76-3.25s1.55-3.07,3.68-3.07a5.85,5.85,0,0,1,3.94,1.38l-0.74,1a4.92,4.92,0,0,0-3.23-1.22c-1.46,0-2.39.8-2.39,1.82S114.94,295.54,117.41,296.07Z" style="fill:#fff"/><path d="M127.07,301.4a3.42,3.42,0,0,0,2.61-1.17l0.77,0.69a4.27,4.27,0,0,1-3.41,1.55,4.33,4.33,0,0,1-.16-8.64c2.45,0,3.86,2,3.86,4.39a3.43,3.43,0,0,1,0,.38h-6.56A2.9,2.9,0,0,0,127.07,301.4Zm2.42-3.71c-0.13-1.5-1-2.82-2.64-2.82a2.85,2.85,0,0,0-2.69,2.82h5.33Z" style="fill:#fff"/><path d="M136.62,302.47a4.32,4.32,0,1,1,3.31-7.17l-0.82.86a3.34,3.34,0,0,0-2.51-1.25,3.06,3.06,0,0,0-3,3.22,3.1,3.1,0,0,0,3,3.23,3.41,3.41,0,0,0,2.53-1.23l0.78,0.74A4.26,4.26,0,0,1,136.62,302.47Z" style="fill:#fff"/><path d="M143.26,302.28H142V294h1.23v2.16a3.54,3.54,0,0,1,3.38-2.31v1.33h-0.1c-1.81,0-3.28,1.3-3.28,3.79v3.3Z" style="fill:#fff"/><path d="M151.82,301.4a3.42,3.42,0,0,0,2.61-1.17l0.77,0.69a4.27,4.27,0,0,1-3.41,1.55,4.33,4.33,0,0,1-.16-8.64c2.45,0,3.86,2,3.86,4.39a3.43,3.43,0,0,1,0,.38h-6.56A2.9,2.9,0,0,0,151.82,301.4Zm2.42-3.71c-0.13-1.5-1-2.82-2.64-2.82a2.85,2.85,0,0,0-2.69,2.82h5.33Z" style="fill:#fff"/><path d="M159.31,299.93a1.22,1.22,0,0,0,1.39,1.38,2.59,2.59,0,0,0,1.2-.29v1.06a3.1,3.1,0,0,1-1.49.35,2.11,2.11,0,0,1-2.34-2.34v-5h-1.15V294h1.15v-2.5h1.23V294h2.63v1.09h-2.62v4.83Z" style="fill:#fff"/><path d="M178.66,302.28h-1.58l-4.31-5.43-2.38,2.42v3h-1.26v-11.2h1.26v6.69l6.43-6.69h1.63l-4.8,4.9Z" style="fill:#fff"/><path d="M183.6,301.4a3.42,3.42,0,0,0,2.61-1.17l0.77,0.69a4.27,4.27,0,0,1-3.41,1.55,4.33,4.33,0,0,1-.16-8.64c2.45,0,3.86,2,3.86,4.39a3.43,3.43,0,0,1,0,.38h-6.56A2.9,2.9,0,0,0,183.6,301.4Zm2.42-3.71c-0.13-1.5-1-2.82-2.64-2.82a2.85,2.85,0,0,0-2.69,2.82H186Z" style="fill:#fff"/><path d="M193.07,302.55c-0.7,1.71-1.5,2.34-2.75,2.34a3.76,3.76,0,0,1-1.76-.42l0.42-1a2.59,2.59,0,0,0,1.3.3c0.74,0,1.2-.38,1.7-1.55L188.2,294h1.36l3,6.9,2.66-6.9h1.31Z" style="fill:#fff"/><g style="opacity:0.2"><path d="M255.59,125.29H589a6.54,6.54,0,0,1,6.4,6.43V447.82a5.29,5.29,0,0,1-5.37,5.39H256.62a6.54,6.54,0,0,1-6.4-6.43V130.68A5.29,5.29,0,0,1,255.59,125.29Z" style="fill:#303030"/></g><rect x="254.63" y="130.09" width="345.15" height="327.93" style="fill:#303030"/><rect x="255.15" y="129.79" width="344.42" height="70.65" style="fill:#4f4f4f"/><g style="opacity:0.870000004768372"><path d="M281.69,177.91H279.6l-0.76-4.75h-5.36l-0.72,4.75h-2.09l4.21-25.27h2.59Zm-7.88-6.77h4.71l-2.38-14.94Z" style="fill:#fff"/><path d="M292.92,177.91h-2.05v-1.33a5.1,5.1,0,0,1-3.53,1.55h-0.07c-2.23,0-3.38-1.37-3.38-3.56V161.92c0-2.2,1.15-3.56,3.38-3.56h0.07a5.08,5.08,0,0,1,3.53,1.51v-7.52h2.05v25.56Zm-2.05-16.23a4.25,4.25,0,0,0-2.92-1.33h-0.07a1.65,1.65,0,0,0-1.94,1.8v12.2a1.65,1.65,0,0,0,1.94,1.8H288a4.49,4.49,0,0,0,2.92-1.3V161.67Z" style="fill:#fff"/><path d="M304.83,177.91h-2.05v-1.33a5.1,5.1,0,0,1-3.53,1.55h-0.07c-2.23,0-3.38-1.37-3.38-3.56V161.92c0-2.2,1.15-3.56,3.38-3.56h0.07a5.08,5.08,0,0,1,3.53,1.51v-7.52h2.05v25.56Zm-2.05-16.23a4.25,4.25,0,0,0-2.92-1.33h-0.07a1.65,1.65,0,0,0-1.94,1.8v12.2a1.65,1.65,0,0,0,1.94,1.8h0.07a4.49,4.49,0,0,0,2.92-1.3V161.67Z" style="fill:#fff"/><path d="M317.76,178.12h-1.15c-3,0-4.43-1.51-4.43-4.43V156.88c0-2.88,1.48-4.39,4.43-4.39h1.15c3,0,4.43,1.51,4.43,4.39v16.81C322.19,176.61,320.71,178.12,317.76,178.12Zm-0.07-23.61h-1a2,2,0,0,0-2.34,2.3v17a2,2,0,0,0,2.34,2.3h1a2,2,0,0,0,2.34-2.3v-17A2,2,0,0,0,317.69,154.51Z" style="fill:#fff"/><path d="M334.14,177.91H332v-1.33a5.32,5.32,0,0,1-3.56,1.55h-0.11c-2.16,0-3.24-1.19-3.24-3.31V158.58h2.09v15.84a1.52,1.52,0,0,0,1.76,1.73h0.07a5.06,5.06,0,0,0,3-1.19V158.58h2.09v19.33Z" style="fill:#fff"/><path d="M337.13,158.58h2.05v1.94a3.72,3.72,0,0,1,3.31-2.12v2.34a4.76,4.76,0,0,0-3.31,1.4v15.77h-2.05V158.58Z" style="fill:#fff"/><path d="M351.2,177.91H349v-25.2h2.16v25.2Z" style="fill:#fff"/><path d="M354.41,158.58h2.05v1.33a5.32,5.32,0,0,1,3.56-1.55h0.11c2.16,0,3.24,1.19,3.24,3.31v16.23h-2.05V162.07a1.58,1.58,0,0,0-1.8-1.76h0a4.92,4.92,0,0,0-3,1.22v16.38h-2.05V158.58Z" style="fill:#fff"/><path d="M372.8,162.25a1.78,1.78,0,0,0-2.05-2h-0.5a1.79,1.79,0,0,0-2.05,2V164a2.29,2.29,0,0,0,1.22,2.2l3.28,2a3.93,3.93,0,0,1,2.2,3.78v2.05c0,2.63-1.37,4.07-4.1,4.07h-0.58c-2.74,0-4.07-1.44-4.07-4v-3h2v3.1a1.77,1.77,0,0,0,2.05,1.94h0.61a1.74,1.74,0,0,0,2-1.94v-2a2.24,2.24,0,0,0-1.22-2.16L368.34,168a3.92,3.92,0,0,1-2.16-3.78v-1.84c0-2.66,1.33-4.07,4.1-4.07h0.5c2.74,0,4,1.4,4,4v2.81h-2v-3Z" style="fill:#fff"/><path d="M380.43,177.91h-2.09V160.48h-1.4v-1.91h1.4v-3.24h2.09v3.24h2.23v1.91h-2.23v17.42Z" style="fill:#fff"/><path d="M384.36,171.28c0-2.23.79-3.17,2.88-4l3.82-1.4v-3.56A1.84,1.84,0,0,0,389,160.3h-0.25a1.87,1.87,0,0,0-2.12,2.05v2.48h-2v-2.41c0-2.66,1.4-4.07,4.14-4.07H389c2.74,0,4.1,1.4,4.1,4.07v15.48h-2.05v-1.3a5.28,5.28,0,0,1-3.49,1.51h-0.07c-2.09,0-3.13-1.15-3.13-3.28v-3.56Zm6.7,3.74v-7.16l-3,1.12a2.14,2.14,0,0,0-1.66,2.34v3.13a1.49,1.49,0,0,0,1.69,1.69h0A5.22,5.22,0,0,0,391.05,175Z" style="fill:#fff"/><path d="M396.06,158.58h2.05v1.33a5.32,5.32,0,0,1,3.56-1.55h0.11c2.16,0,3.24,1.19,3.24,3.31v16.23H403V162.07a1.58,1.58,0,0,0-1.8-1.76h0a4.92,4.92,0,0,0-3,1.22v16.38h-2.05V158.58Z" style="fill:#fff"/><path d="M414.7,162.5a1.92,1.92,0,0,0-2.16-2.2H412a1.92,1.92,0,0,0-2.16,2.2V174a1.89,1.89,0,0,0,2.16,2.16h0.54a1.9,1.9,0,0,0,2.16-2.16v-3.67h2.05v3.6c0,2.77-1.4,4.21-4.18,4.21H412c-2.81,0-4.21-1.44-4.21-4.21V162.57q0-4.21,4.21-4.21h0.61c2.77,0,4.14,1.4,4.14,4.14v3.06H414.7V162.5Z" style="fill:#fff"/><path d="M421.54,169.05V174a1.92,1.92,0,0,0,2.2,2.16h0.43a1.93,1.93,0,0,0,2.2-2.16v-2.23h2v2.16c0,2.77-1.44,4.21-4.21,4.21h-0.5c-2.81,0-4.21-1.44-4.21-4.21V162.57c0-2.77,1.4-4.21,4.21-4.21h0.5c2.77,0,4.21,1.44,4.21,4.21v6.48h-6.84Zm0-2h4.75V162.5a1.93,1.93,0,0,0-2.16-2.2h-0.4a2,2,0,0,0-2.2,2.2v4.57Z" style="fill:#fff"/></g><g style="opacity:0.87"><path d="M368.63,351.41H367.1l-1.48-3.33h-6.86l-1.5,3.33h-1.46l5.74-12.69h1.33Zm-6.43-11-2.88,6.43h5.74Z" style="fill:#cdcccc"/><path d="M378.35,351.41v-1.87a4.18,4.18,0,0,1-3.56,2.07,4.87,4.87,0,0,1,0-9.71,4.2,4.2,0,0,1,3.56,2v-5.62h1.39v13.14h-1.39ZM375,343.15a3.29,3.29,0,0,0-3.28,3.6,3.36,3.36,0,0,0,3.28,3.62A3.62,3.62,0,0,0,375,343.15Z" style="fill:#cdcccc"/><path d="M390.3,351.41v-1.87a4.18,4.18,0,0,1-3.56,2.07,4.87,4.87,0,0,1,0-9.71,4.2,4.2,0,0,1,3.56,2v-5.62h1.39v13.14H390.3ZM387,343.15a3.29,3.29,0,0,0-3.28,3.6,3.36,3.36,0,0,0,3.28,3.62A3.62,3.62,0,0,0,387,343.15Z" style="fill:#cdcccc"/><path d="M394.82,340.07v-1.53h1.58v1.53h-1.58Zm0.09,11.34v-9.31h1.39v9.31h-1.39Z" style="fill:#cdcccc"/><path d="M400.9,351.41h-1.39v-9.31h1.39v1.62a3.53,3.53,0,0,1,3.19-1.82,3.4,3.4,0,0,1,3.56,3.73v5.78h-1.39V346c0-1.73-.94-2.81-2.58-2.81a2.74,2.74,0,0,0-2.79,2.92v5.33Z" style="fill:#cdcccc"/><path d="M414.73,354.33a7.3,7.3,0,0,1-4.23-1.3l0.63-1.08a6,6,0,0,0,3.58,1.19,3.06,3.06,0,0,0,3.39-3.31v-1.1a4.42,4.42,0,0,1-3.66,2,4.39,4.39,0,0,1,0-8.79,4.36,4.36,0,0,1,3.64,1.87v-1.67h1.39v7.69C419.46,352.8,417.59,354.33,414.73,354.33Zm0-11.2a3.07,3.07,0,0,0-3.22,3.15,3.14,3.14,0,0,0,3.22,3.19A3.18,3.18,0,1,0,414.71,343.13Z" style="fill:#cdcccc"/><path d="M429.74,338.81v12.6h-1.42v-12.6h1.42Z" style="fill:#cdcccc"/><path d="M434.58,351.41h-1.39v-9.31h1.39v1.62a3.53,3.53,0,0,1,3.19-1.82,3.4,3.4,0,0,1,3.56,3.73v5.78h-1.39V346c0-1.73-.94-2.81-2.58-2.81a2.74,2.74,0,0,0-2.79,2.92v5.33Z" style="fill:#cdcccc"/><path d="M447.36,351.59a6.4,6.4,0,0,1-3.85-1.37l0.7-1a5.44,5.44,0,0,0,3.22,1.19c1.12,0,1.93-.58,1.93-1.48v0c0-.94-1.1-1.3-2.32-1.64-1.46-.41-3.08-0.92-3.08-2.63v0c0-1.6,1.33-2.66,3.17-2.66a6.36,6.36,0,0,1,3.35,1l-0.63,1a5.26,5.26,0,0,0-2.75-.9,1.54,1.54,0,0,0-1.8,1.35v0c0,0.88,1.15,1.22,2.39,1.6,1.44,0.43,3,1,3,2.66v0C450.67,350.57,449.21,351.59,447.36,351.59Z" style="fill:#cdcccc"/><path d="M455,348.77a1.38,1.38,0,0,0,1.57,1.55,2.92,2.92,0,0,0,1.35-.32v1.19a3.49,3.49,0,0,1-1.67.4,2.37,2.37,0,0,1-2.63-2.63v-5.62h-1.3v-1.22h1.3V339.3H455v2.81h3v1.22h-3v5.44Z" style="fill:#cdcccc"/><path d="M460.89,343.89l-0.41-1.13a7.68,7.68,0,0,1,3.38-.77c2.54,0,4,1.3,4,3.75v5.69h-1.33V350a4.08,4.08,0,0,1-3.37,1.6c-1.73,0-3.47-1-3.47-2.92s1.62-3,4-3a9.89,9.89,0,0,1,2.86.4v-0.32c0-1.67-1-2.54-2.77-2.54A6.48,6.48,0,0,0,460.89,343.89Zm0.16,4.75c0,1.19,1.08,1.87,2.34,1.87,1.71,0,3.11-1,3.11-2.52v-0.9a9.7,9.7,0,0,0-2.74-.4C462,346.7,461.06,347.45,461.06,348.64Z" style="fill:#cdcccc"/><path d="M472.16,351.41h-1.39v-9.31h1.39v1.62a3.53,3.53,0,0,1,3.19-1.82,3.4,3.4,0,0,1,3.56,3.73v5.78h-1.39V346c0-1.73-.94-2.81-2.58-2.81a2.74,2.74,0,0,0-2.79,2.92v5.33Z" style="fill:#cdcccc"/><path d="M486.06,351.63a4.86,4.86,0,1,1,3.73-8.07l-0.92,1a3.76,3.76,0,0,0-2.83-1.4,3.44,3.44,0,0,0-3.33,3.62,3.48,3.48,0,0,0,3.42,3.64A3.84,3.84,0,0,0,489,349l0.88,0.83A4.8,4.8,0,0,1,486.06,351.63Z" style="fill:#cdcccc"/><path d="M496,350.42a3.85,3.85,0,0,0,2.94-1.31l0.86,0.77a4.81,4.81,0,0,1-3.83,1.75,4.87,4.87,0,0,1-.18-9.72c2.75,0,4.34,2.2,4.34,4.93a3.66,3.66,0,0,1,0,.43H492.7A3.26,3.26,0,0,0,496,350.42Zm2.72-4.18c-0.14-1.69-1.12-3.17-3-3.17a3.21,3.21,0,0,0-3,3.17h6Z" style="fill:#cdcccc"/></g><g style="clip-path:url(#clip-path-3)"><g style="clip-path:url(#clip-path-4)"><path d="M283.85,304a13.77,13.77,0,0,1,13.78-13.78H558.46a13.78,13.78,0,0,1,0,27.55H297.62A13.78,13.78,0,0,1,283.85,304Z" style="fill:none;stroke:#dededd;stroke-miterlimit:10;stroke-width:4.59220767087063px"/></g></g><line x1="340.33" y1="321.91" x2="340.33" y2="317.32" style="fill:none;stroke:#eaeaea;stroke-miterlimit:10;stroke-width:2.29610383543531px"/><line x1="397.28" y1="321.91" x2="397.28" y2="317.32" style="fill:none;stroke:#eaeaea;stroke-miterlimit:10;stroke-width:2.29610383543531px"/><line x1="454.22" y1="321.91" x2="454.22" y2="317.32" style="fill:none;stroke:#eaeaea;stroke-miterlimit:10;stroke-width:2.29610383543531px"/><line x1="515.75" y1="321.91" x2="515.75" y2="317.32" style="fill:none;stroke:#eaeaea;stroke-miterlimit:10;stroke-width:2.29610383543531px"/><g style="clip-path:url(#clip-path-5)"><g style="clip-path:url(#clip-path-4)"><rect x="287.06" y="293.21" width="153.92" height="21.12" style="fill:#87b9e4"/></g></g><g style="clip-path:url(#clip-path-3)"><g style="clip-path:url(#clip-path-4)"><path d="M283.85,304a13.77,13.77,0,0,1,13.78-13.78H558.46a13.78,13.78,0,0,1,0,27.55H297.62A13.78,13.78,0,0,1,283.85,304Z" style="fill:none;stroke:#dededd;stroke-miterlimit:10;stroke-width:4.59220767087063px"/></g></g><g style="opacity:0.2"><path d="M505.81,170H839.18a6.54,6.54,0,0,1,6.4,6.43V492.54a5.29,5.29,0,0,1-5.37,5.39H506.83a6.54,6.54,0,0,1-6.4-6.43V175.4A5.29,5.29,0,0,1,505.81,170Z" style="fill:#303030"/></g><rect x="504.85" y="174.8" width="345.15" height="327.93" style="fill:#303030"/><rect x="505.36" y="174.51" width="344.42" height="70.65" style="fill:#4f4f4f"/><rect x="505.36" y="174.51" width="344.42" height="66.13" style="fill:none"/><g style="opacity:0.870000004768372"><path d="M526.83,213.91v8.71h-2.16V214l-4.18-16.56h2.23l3,13.35,3.1-13.35H531Z" style="fill:#fff"/><path d="M536.94,222.84c-2.81,0-4.21-1.44-4.21-4.21V207.29q0-4.21,4.21-4.21h0.76c2.77,0,4.18,1.4,4.18,4.21v11.34c0,2.77-1.4,4.21-4.18,4.21h-0.76ZM537,205a1.92,1.92,0,0,0-2.16,2.2V218.7a1.89,1.89,0,0,0,2.16,2.16h0.68a1.89,1.89,0,0,0,2.16-2.16V207.21a1.92,1.92,0,0,0-2.16-2.2H537Z" style="fill:#fff"/><path d="M553.65,222.62h-2.09v-1.33a5.32,5.32,0,0,1-3.56,1.55h-0.11c-2.16,0-3.24-1.19-3.24-3.31V203.29h2.09v15.84a1.52,1.52,0,0,0,1.76,1.73h0.07a5.06,5.06,0,0,0,3-1.19V203.29h2.09v19.33Z" style="fill:#fff"/><path d="M556.63,203.29h2.05v1.94a3.72,3.72,0,0,1,3.31-2.12v2.34a4.76,4.76,0,0,0-3.31,1.4v15.77h-2.05V203.29Z" style="fill:#fff"/><path d="M578.2,213.08v5.33c0,2.92-1.48,4.43-4.43,4.43h-1c-3,0-4.43-1.51-4.43-4.43V201.6c0-2.88,1.48-4.39,4.43-4.39h1c2.92,0,4.36,1.48,4.36,4.36v4.64H576v-4.68a2,2,0,0,0-2.34-2.3h-0.79a2,2,0,0,0-2.34,2.3v17a2,2,0,0,0,2.34,2.3h0.86a2,2,0,0,0,2.34-2.3v-5.44h2.12Z" style="fill:#fff"/><path d="M581,197.06h2.05v7.56a5.32,5.32,0,0,1,3.56-1.55h0.11c2.16,0,3.24,1.19,3.24,3.31v16.23H588V206.78a1.58,1.58,0,0,0-1.8-1.76h0a5,5,0,0,0-3,1.22v16.38H581V197.06Z" style="fill:#fff"/><path d="M594.87,213.77v4.93a1.92,1.92,0,0,0,2.2,2.16h0.43a1.93,1.93,0,0,0,2.2-2.16v-2.23h2v2.16c0,2.77-1.44,4.21-4.21,4.21H597c-2.81,0-4.21-1.44-4.21-4.21V207.29c0-2.77,1.4-4.21,4.21-4.21h0.5c2.77,0,4.21,1.44,4.21,4.21v6.48h-6.84Zm0-2h4.75v-4.57a1.93,1.93,0,0,0-2.16-2.2h-0.4a2,2,0,0,0-2.2,2.2v4.57Z" style="fill:#fff"/><path d="M611.24,207.21a1.92,1.92,0,0,0-2.16-2.2h-0.5a1.92,1.92,0,0,0-2.16,2.2V218.7a1.89,1.89,0,0,0,2.16,2.16h0.54a1.9,1.9,0,0,0,2.16-2.16V215h2.05v3.6c0,2.77-1.4,4.21-4.18,4.21h-0.61c-2.81,0-4.21-1.44-4.21-4.21V207.29q0-4.21,4.21-4.21h0.61c2.77,0,4.14,1.4,4.14,4.14v3.06h-2.05v-3.06Z" style="fill:#fff"/><path d="M625.28,203.29l-5,9.43,4.93,9.9h-2.3L618.23,213v9.65h-2.05V197.06h2.05v15.59l4.86-9.36h2.2Z" style="fill:#fff"/><path d="M633.56,207a1.78,1.78,0,0,0-2.05-2H631a1.79,1.79,0,0,0-2.05,2v1.76a2.29,2.29,0,0,0,1.22,2.2l3.28,2a3.93,3.93,0,0,1,2.2,3.78v2.05c0,2.63-1.37,4.07-4.1,4.07H631c-2.74,0-4.07-1.44-4.07-4v-3h2v3.1a1.77,1.77,0,0,0,2.05,1.94h0.61a1.74,1.74,0,0,0,2-1.94v-2a2.24,2.24,0,0,0-1.22-2.16l-3.28-2.05a3.92,3.92,0,0,1-2.16-3.78v-1.84c0-2.66,1.33-4.07,4.1-4.07h0.5c2.74,0,4,1.4,4,4v2.81h-2v-3Z" style="fill:#fff"/></g><g style="opacity:0.870000004768372"><path d="M574.8,328.62v5.67h-1.42v-12.6h1.42v5.6h7.27v-5.6h1.42v12.6h-1.42v-5.67H574.8Z" style="fill:#fff"/><path d="M591.83,334.3h-1.44V323h-4.23v-1.31h9.9V323h-4.23V334.3Z" style="fill:#fff"/><path d="M603.5,334.3h-1.44V323h-4.23v-1.31h9.9V323H603.5V334.3Z" style="fill:#fff"/><path d="M614.87,329.85h-3.06v4.45h-1.42v-12.6h4.72c2.84,0,4.72,1.51,4.72,4C619.82,328.44,617.55,329.85,614.87,329.85ZM615,323h-3.19v5.55h3.12c2.09,0,3.46-1.12,3.46-2.79S617,323,615,323Z" style="fill:#fff"/><path d="M628.66,329.13c0,2.88,1.44,5,4.18,6.79l-0.59.92c-3.21-1.8-5-4.39-5-7.71s1.78-5.91,5-7.71l0.59,0.92C630.1,324.09,628.66,326.25,628.66,329.13Z" style="fill:#fff"/><path d="M644.74,323H637v4.3h6.88v1.3H637V333h7.78v1.3h-9.2v-12.6h9.11V323Z" style="fill:#fff"/><path d="M647.68,321.69h1.42V333h7.09v1.31h-8.52v-12.6Z" style="fill:#fff"/><path d="M668.3,324.84a3,3,0,0,1-2,2.93c1.49,0.45,2.7,1.31,2.7,3.06,0,2.18-1.82,3.46-4.57,3.46h-5.6v-12.6h5.37C666.68,321.69,668.3,322.92,668.3,324.84Zm-1.44.2c0-1.26-1-2.07-2.79-2.07h-3.84v4.34H664C665.67,327.31,666.86,326.54,666.86,325Zm0.7,5.71c0-1.39-1.15-2.18-3.35-2.18h-4V333h4.23C666.37,333,667.56,332.17,667.56,330.75Z" style="fill:#fff"/><path d="M671.64,321.42c3.21,1.8,5,4.39,5,7.71s-1.78,5.91-5,7.71l-0.59-.92c2.74-1.75,4.18-3.91,4.18-6.79s-1.44-5-4.18-6.79Z" style="fill:#fff"/></g><g style="opacity:0.870000004768372"><path d="M574.8,387.5v5.67h-1.42v-12.6h1.42v5.6h7.27v-5.6h1.42v12.6h-1.42V387.5H574.8Z" style="fill:#fff"/><path d="M591.83,393.17h-1.44V381.88h-4.23v-1.31h9.9v1.31h-4.23v11.29Z" style="fill:#fff"/><path d="M603.5,393.17h-1.44V381.88h-4.23v-1.31h9.9v1.31H603.5v11.29Z" style="fill:#fff"/><path d="M614.87,388.72h-3.06v4.45h-1.42v-12.6h4.72c2.84,0,4.72,1.51,4.72,4C619.82,387.32,617.55,388.72,614.87,388.72Zm0.13-6.84h-3.19v5.55h3.12c2.09,0,3.46-1.12,3.46-2.79S617,381.88,615,381.88Z" style="fill:#fff"/><path d="M626.93,386.18c2.81,0.61,4.11,1.64,4.11,3.58,0,2.18-1.8,3.58-4.3,3.58a7.38,7.38,0,0,1-5.15-2l0.88-1a6,6,0,0,0,4.32,1.78c1.69,0,2.81-.88,2.81-2.16s-0.63-1.85-3.28-2.41c-2.9-.63-4.23-1.57-4.23-3.65s1.75-3.46,4.14-3.46a6.58,6.58,0,0,1,4.43,1.55l-0.83,1.1a5.54,5.54,0,0,0-3.64-1.37c-1.64,0-2.68.9-2.68,2.05S624.16,385.59,626.93,386.18Z" style="fill:#fff"/><path d="M640.18,388c0,2.88,1.44,5,4.18,6.79l-0.59.92c-3.21-1.8-5-4.39-5-7.71s1.78-5.91,5-7.71l0.59,0.92C641.62,383,640.18,385.12,640.18,388Z" style="fill:#fff"/><path d="M651.66,386.18c2.81,0.61,4.11,1.64,4.11,3.58,0,2.18-1.8,3.58-4.3,3.58a7.38,7.38,0,0,1-5.15-2l0.88-1a6,6,0,0,0,4.32,1.78c1.69,0,2.81-.88,2.81-2.16s-0.63-1.85-3.28-2.41c-2.9-.63-4.23-1.57-4.23-3.65s1.75-3.46,4.14-3.46a6.58,6.58,0,0,1,4.43,1.55l-0.83,1.1a5.54,5.54,0,0,0-3.64-1.37c-1.64,0-2.68.9-2.68,2.05S648.89,385.59,651.66,386.18Z" style="fill:#fff"/><path d="M662.54,392.18a3.85,3.85,0,0,0,2.94-1.31l0.86,0.77a4.81,4.81,0,0,1-3.83,1.75,4.87,4.87,0,0,1-.18-9.72c2.75,0,4.34,2.2,4.34,4.93a3.66,3.66,0,0,1,0,.43h-7.38A3.26,3.26,0,0,0,662.54,392.18Zm2.72-4.18c-0.14-1.69-1.12-3.17-3-3.17a3.21,3.21,0,0,0-3,3.17h6Z" style="fill:#fff"/><path d="M673.28,393.39a4.86,4.86,0,1,1,3.73-8.07l-0.92,1a3.76,3.76,0,0,0-2.83-1.4,3.44,3.44,0,0,0-3.33,3.62,3.48,3.48,0,0,0,3.42,3.64,3.84,3.84,0,0,0,2.84-1.39l0.88,0.83A4.8,4.8,0,0,1,673.28,393.39Z" style="fill:#fff"/><path d="M690.85,393.39a6.18,6.18,0,0,1-6.41-6.5,6.33,6.33,0,0,1,6.32-6.54,6.64,6.64,0,0,1,4.7,1.67l-0.92,1.08a5.36,5.36,0,0,0-3.83-1.44,4.93,4.93,0,0,0-4.79,5.19c0,3,1.93,5.26,5,5.26a5.93,5.93,0,0,0,3.64-1.26v-3.13h-3.83v-1.28h5.2v5A7.64,7.64,0,0,1,690.85,393.39Z" style="fill:#fff"/><path d="M700.26,393.17h-1.39v-9.31h1.39v2.43a4,4,0,0,1,3.8-2.59v1.49H704c-2,0-3.69,1.46-3.69,4.27v3.71Z" style="fill:#fff"/><path d="M710,393.39a4.77,4.77,0,0,1-4.83-4.84A4.85,4.85,0,1,1,710,393.39Zm0-8.5a3.42,3.42,0,0,0-3.4,3.62,3.5,3.5,0,0,0,3.44,3.64,3.43,3.43,0,0,0,3.42-3.6A3.52,3.52,0,0,0,710,384.89Z" style="fill:#fff"/><path d="M724,383.86h1.37v9.31H724v-1.62a3.55,3.55,0,0,1-3.19,1.82,3.4,3.4,0,0,1-3.57-3.73v-5.78h1.39v5.44c0,1.73.94,2.81,2.57,2.81a2.75,2.75,0,0,0,2.79-2.92v-5.33Z" style="fill:#fff"/><path d="M733.44,393.37a4.2,4.2,0,0,1-3.57-2v4.66h-1.39V383.86h1.39v1.87a4.19,4.19,0,0,1,3.57-2.07A4.87,4.87,0,0,1,733.44,393.37Zm-0.25-8.46a3.62,3.62,0,0,0,0,7.22,3.29,3.29,0,0,0,3.28-3.6A3.36,3.36,0,0,0,733.19,384.91Z" style="fill:#fff"/><path d="M740,380.3c3.21,1.8,5,4.39,5,7.71s-1.78,5.91-5,7.71l-0.59-.92c2.74-1.75,4.18-3.91,4.18-6.79s-1.44-5-4.18-6.79Z" style="fill:#fff"/></g><g style="opacity:0.870000004768372"><path d="M577.9,445.06c2.81,0.61,4.11,1.64,4.11,3.58,0,2.18-1.8,3.58-4.3,3.58a7.38,7.38,0,0,1-5.15-2l0.88-1a6,6,0,0,0,4.32,1.78c1.69,0,2.81-.88,2.81-2.16s-0.63-1.85-3.28-2.41c-2.9-.63-4.23-1.57-4.23-3.65s1.75-3.46,4.14-3.46a6.58,6.58,0,0,1,4.43,1.55l-0.83,1.1a5.54,5.54,0,0,0-3.64-1.37c-1.64,0-2.68.9-2.68,2.05S575.13,444.46,577.9,445.06Z" style="fill:#fff"/><path d="M597.36,451.36l-1,1.06-1.66-1.51a6.56,6.56,0,1,1,2.47-5.19,6.59,6.59,0,0,1-1.51,4.25Zm-6-3.37,1-1.06,2.32,2.11a5.36,5.36,0,0,0,1.1-3.28,5,5,0,0,0-5-5.22,5,5,0,0,0-4.93,5.19,5,5,0,0,0,5,5.22,4.75,4.75,0,0,0,2.9-1Z" style="fill:#fff"/><path d="M600.2,439.44h1.42v11.29h7.09V452H600.2v-12.6Z" style="fill:#fff"/><path d="M617.59,446.88c0,2.88,1.44,5,4.18,6.79l-0.59.92c-3.21-1.8-5-4.39-5-7.71s1.78-5.91,5-7.71l0.59,0.92C619,441.84,617.59,444,617.59,446.88Z" style="fill:#fff"/><path d="M633.23,452l-3.66-4.9H626V452h-1.42v-12.6H630c2.77,0,4.56,1.49,4.56,3.76,0,2.11-1.44,3.33-3.42,3.69L635,452h-1.75Zm-3.37-11.29H626v5.11h3.87c1.89,0,3.24-1,3.24-2.61S631.9,440.76,629.87,440.76Z" style="fill:#fff"/><path d="M641.94,452h-4.38v-12.6h4.38c4,0,6.7,2.72,6.7,6.28S645.91,452,641.94,452Zm0-11.29h-3v10h3A5,5,0,1,0,641.94,440.76Z" style="fill:#fff"/><path d="M656,445.06c2.81,0.61,4.11,1.64,4.11,3.58,0,2.18-1.8,3.58-4.3,3.58a7.38,7.38,0,0,1-5.15-2l0.88-1a6,6,0,0,0,4.32,1.78c1.69,0,2.81-.88,2.81-2.16s-0.63-1.85-3.28-2.41c-2.9-.63-4.23-1.57-4.23-3.65s1.75-3.46,4.14-3.46a6.58,6.58,0,0,1,4.43,1.55l-0.83,1.1a5.54,5.54,0,0,0-3.64-1.37c-1.64,0-2.68.9-2.68,2.05S653.21,444.46,656,445.06Z" style="fill:#fff"/><path d="M672.76,452h-4.38v-12.6h4.38c4,0,6.7,2.72,6.7,6.28S676.72,452,672.76,452Zm0-11.29h-3v10h3A5,5,0,1,0,672.76,440.76Z" style="fill:#fff"/><path d="M691.93,442.59a3,3,0,0,1-2,2.93c1.49,0.45,2.7,1.31,2.7,3.06,0,2.18-1.82,3.46-4.57,3.46h-5.6v-12.6h5.37C690.31,439.44,691.93,440.67,691.93,442.59Zm-1.44.2c0-1.26-1-2.07-2.79-2.07h-3.84v4.34h3.73C689.3,445.06,690.49,444.28,690.49,442.79Zm0.7,5.71c0-1.39-1.15-2.18-3.35-2.18h-4v4.45h4.23C690,450.77,691.19,449.92,691.19,448.5Z" style="fill:#fff"/><path d="M695.28,439.17c3.21,1.8,5,4.39,5,7.71s-1.78,5.91-5,7.71l-0.59-.92c2.74-1.75,4.18-3.91,4.18-6.79s-1.44-5-4.18-6.79Z" style="fill:#fff"/></g><circle cx="538.45" cy="328.29" r="18.37" style="fill:#69a944"/><g style="clip-path:url(#clip-path-9)"><rect x="505.39" y="155.62" width="344.42" height="524.29" style="fill:#69a944"/><g style="clip-path:url(#clip-path-10)"><circle cx="538.45" cy="328.29" r="18.37" style="fill:#69a944"/></g></g><path d="M525.2,315H551.7v26.49H525.2V315Z" style="fill:none"/><path d="M535.14,332.89l-4.6-4.6L529,329.85l6.17,6.17,13.25-13.25-1.56-1.56Z" style="fill:#303030"/><circle cx="538.45" cy="387.17" r="18.37" style="fill:#69a944"/><g style="clip-path:url(#clip-path-11)"><rect x="505.39" y="148.37" width="344.42" height="524.29" style="fill:#69a944"/><g style="clip-path:url(#clip-path-12)"><circle cx="538.45" cy="387.17" r="18.37" style="fill:#69a944"/></g></g><circle cx="538.45" cy="446.04" r="18.37" style="fill:#69a944"/><g style="clip-path:url(#clip-path-13)"><rect x="505.39" y="141.12" width="344.42" height="524.29" style="fill:#69a944"/><g style="clip-path:url(#clip-path-14)"><circle cx="538.45" cy="446.04" r="18.37" style="fill:#69a944"/></g></g><g style="opacity:0.560000002384186"><path d="M521.77,273.4v-2.2h9.54v1.9l-4,4.12c2.2,0.29,4.24,1.38,4.24,4.08s-2.06,4.57-5,4.57a6.84,6.84,0,0,1-5.52-2.53l1.77-1.65a4.7,4.7,0,0,0,3.79,1.9,2.26,2.26,0,0,0,2.49-2.2c0-1.44-1.28-2.25-3.32-2.25h-1.17l-0.41-1.59L528,273.4h-6.24Z" style="fill:#f6eb16"/><path d="M547.55,285.86a7.46,7.46,0,0,1,.1-14.91,7.52,7.52,0,0,1,5.64,2.25l-1.63,1.87a5.74,5.74,0,0,0-4-1.79,5.14,5.14,0,0,0,0,10.26,5.65,5.65,0,0,0,4.14-1.87l1.63,1.65A7.44,7.44,0,0,1,547.55,285.86Z" style="fill:#f6eb16"/><path d="M558.26,285.62h-2.49v-15h2.49v5.85a3.92,3.92,0,0,1,3.4-1.92c2.45,0,3.87,1.65,3.87,4.18v6.92H563v-6.18c0-1.69-.84-2.66-2.33-2.66a2.42,2.42,0,0,0-2.45,2.7v6.14Z" style="fill:#f6eb16"/><path d="M573.57,283.82a4,4,0,0,0,2.95-1.3l1.46,1.3a5.5,5.5,0,0,1-4.45,2,5.68,5.68,0,0,1-.27-11.35c3.46,0,5.21,2.72,5.21,5.87,0,0.23,0,.43,0,0.68h-8A3,3,0,0,0,573.57,283.82Zm2.43-4.41c-0.17-1.61-1.11-2.86-2.76-2.86a2.94,2.94,0,0,0-2.82,2.86H576Z" style="fill:#f6eb16"/><path d="M586,285.86a5.56,5.56,0,0,1-5.62-5.64,5.61,5.61,0,0,1,5.64-5.71,5.43,5.43,0,0,1,4.35,1.87l-1.54,1.67A3.66,3.66,0,0,0,586,276.7a3.27,3.27,0,0,0-3.13,3.48,3.32,3.32,0,0,0,3.25,3.52,3.82,3.82,0,0,0,2.82-1.36l1.5,1.48A5.5,5.5,0,0,1,586,285.86Z" style="fill:#f6eb16"/><path d="M602.93,285.62h-2.88l-3.28-4.7-1.52,1.59v3.11h-2.49v-15h2.49v9l4.51-4.82h3l-4.33,4.43Z" style="fill:#f6eb16"/><path d="M608.48,285.82a7.64,7.64,0,0,1-4.61-1.63l1.11-1.69a6.1,6.1,0,0,0,3.56,1.34c1.07,0,1.69-.45,1.69-1.17v0c0-.84-1.15-1.13-2.43-1.52-1.61-.45-3.4-1.11-3.4-3.19v0c0-2.06,1.71-3.32,3.87-3.32a7.54,7.54,0,0,1,4,1.24l-1,1.77a6.31,6.31,0,0,0-3.07-1c-1,0-1.52.45-1.52,1.09v0c0,0.78,1.17,1.11,2.45,1.52,1.59,0.49,3.38,1.22,3.38,3.17v0C612.52,284.69,610.75,285.82,608.48,285.82Z" style="fill:#f6eb16"/><path d="M626.92,281h-2.86v4.63h-2.53V271.2h5.69c3.36,0,5.48,1.9,5.48,4.84C632.69,279.29,630.09,281,626.92,281ZM627,273.5h-2.95v5.19H627c1.92,0,3.11-1.05,3.11-2.6C630.12,274.39,628.9,273.5,627,273.5Z" style="fill:#f6eb16"/><path d="M641.65,285.62v-1.34a4.39,4.39,0,0,1-3.52,1.57c-2.06,0-3.87-1.17-3.87-3.36v0c0-2.35,1.87-3.5,4.41-3.5a9.16,9.16,0,0,1,3,.45v-0.27c0-1.5-.95-2.33-2.68-2.33a7.57,7.57,0,0,0-3.11.68l-0.68-2a9.33,9.33,0,0,1,4.14-.91c3.21,0,4.78,1.69,4.78,4.59v6.45h-2.47Zm0.06-4.61a7.12,7.12,0,0,0-2.49-.43c-1.57,0-2.49.64-2.49,1.75v0c0,1,.93,1.61,2.1,1.61,1.65,0,2.88-.93,2.88-2.29V281Z" style="fill:#f6eb16"/><path d="M650.83,285.82a7.64,7.64,0,0,1-4.61-1.63l1.11-1.69a6.11,6.11,0,0,0,3.56,1.34c1.07,0,1.69-.45,1.69-1.17v0c0-.84-1.15-1.13-2.43-1.52-1.61-.45-3.4-1.11-3.4-3.19v0c0-2.06,1.71-3.32,3.87-3.32a7.54,7.54,0,0,1,4,1.24l-1,1.77a6.31,6.31,0,0,0-3.07-1c-1,0-1.52.45-1.52,1.09v0c0,0.78,1.17,1.11,2.45,1.52,1.59,0.49,3.38,1.22,3.38,3.17v0C654.86,284.69,653.09,285.82,650.83,285.82Z" style="fill:#f6eb16"/><path d="M661.13,285.82a7.64,7.64,0,0,1-4.61-1.63l1.11-1.69a6.11,6.11,0,0,0,3.56,1.34c1.07,0,1.69-.45,1.69-1.17v0c0-.84-1.15-1.13-2.43-1.52-1.61-.45-3.4-1.11-3.4-3.19v0c0-2.06,1.71-3.32,3.87-3.32a7.54,7.54,0,0,1,4,1.24l-1,1.77a6.31,6.31,0,0,0-3.07-1c-1,0-1.52.45-1.52,1.09v0c0,0.78,1.17,1.11,2.45,1.52,1.59,0.49,3.38,1.22,3.38,3.17v0C665.17,284.69,663.39,285.82,661.13,285.82Z" style="fill:#f6eb16"/><path d="M667.74,273.07V270.7h2.68v2.37h-2.68Zm0.1,12.54V274.74h2.49v10.88h-2.49Z" style="fill:#f6eb16"/><path d="M676.09,285.62H673.6V274.74h2.49v1.69a3.92,3.92,0,0,1,3.4-1.92c2.45,0,3.87,1.65,3.87,4.18v6.92h-2.49v-6.18c0-1.69-.84-2.66-2.33-2.66a2.42,2.42,0,0,0-2.45,2.7v6.14Z" style="fill:#f6eb16"/><path d="M691.21,289a9.37,9.37,0,0,1-4.86-1.3l0.93-1.87a7.08,7.08,0,0,0,3.87,1.15c2.22,0,3.44-1.15,3.44-3.34v-0.84a4.56,4.56,0,0,1-3.83,2,5.12,5.12,0,0,1,0-10.24,4.69,4.69,0,0,1,3.81,1.85v-1.63h2.49v8.65C697.06,287.24,695,289,691.21,289Zm0.21-12.34a3,3,0,1,0,0,6A3,3,0,1,0,691.42,276.61Z" style="fill:#f6eb16"/></g><path d="M525.2,373.92H551.7v26.49H525.2V373.92Z" style="fill:none"/><path d="M535.14,391.77l-4.6-4.6L529,388.72l6.17,6.17,13.25-13.25-1.56-1.56Z" style="fill:#303030"/><path d="M525.2,432.79H551.7v26.49H525.2V432.79Z" style="fill:none"/><path d="M535.14,450.64l-4.6-4.6L529,447.6l6.17,6.17,13.25-13.25L546.83,439Z" style="fill:#303030"/></svg>