<?xml version="1.0" encoding="utf-8"?>
<!-- Generator: Adobe Illustrator 19.1.0, SVG Export Plug-In . SVG Version: 6.00 Build 0)  -->
<svg version="1.1" id="Layer_1" xmlns="http://www.w3.org/2000/svg" xmlns:xlink="http://www.w3.org/1999/xlink" x="0px" y="0px"
	 viewBox="-150 50 350 240" style="enable-background:new -150 50 350 240;" xml:space="preserve">
<style type="text/css">
	.st0{opacity:0.87;enable-background:new    ;}
	.st1{opacity:0.56;enable-background:new    ;}
	.st2{fill:#7CB342;}
</style>
<g>
	<path class="st0" d="M-34.7,100.2c0,1.5-0.9,2.7-3.9,2.7c-3,0-3.9-1.2-3.9-2.7v-7.5c0-1.5,0.9-2.7,3.9-2.7c3,0,3.9,1.2,3.9,2.7v1
		c0,0.2-0.1,0.3-0.3,0.3h-0.7c-0.2,0-0.3-0.1-0.3-0.3V93c0-1.1-0.6-1.8-2.6-1.8c-2,0-2.6,0.7-2.6,1.8v7c0,1.1,0.6,1.8,2.6,1.8
		c2,0,2.6-0.7,2.6-1.8v-1c0-0.2,0.1-0.3,0.3-0.3h0.7c0.2,0,0.3,0.1,0.3,0.3V100.2z"/>
	<path class="st0" d="M-32.5,95.8c0-1.4,1-2.4,3.4-2.4s3.5,1,3.5,2.4v4.7c0,1.4-1,2.4-3.5,2.4s-3.4-1-3.4-2.4V95.8z M-26.7,96
		c0-0.9-0.6-1.4-2.2-1.4c-1.7-0.1-2.2,0.5-2.2,1.4v4.4c0,0.9,0.6,1.4,2.2,1.4c1.7,0,2.2-0.5,2.2-1.4V96z"/>
	<path class="st0" d="M-21.5,93.9v0.7c0.5-0.4,1.6-1.1,3.2-1.1c1.8,0,2.6,1,2.6,2.3v6.7c0,0.2-0.1,0.3-0.3,0.3h-0.7
		c-0.2,0-0.3-0.1-0.3-0.3V96c0-0.8-0.4-1.4-1.6-1.4c-1.4,0-2.4,0.7-2.8,1.1v6.8c0,0.2-0.1,0.3-0.3,0.3h-0.7c-0.2,0-0.3-0.1-0.3-0.3
		v-8.5c0-0.2,0.1-0.3,0.3-0.3h0.7C-21.6,93.6-21.5,93.7-21.5,93.9z"/>
	<path class="st0" d="M-9.2,93.6c0.2,0,0.3,0.1,0.3,0.3v0.5c0,0.2-0.1,0.3-0.3,0.3h-2.1v5.5c0,0.9,0.5,1.4,2.1,1.4h0.4
		c0.2,0,0.3,0.1,0.3,0.3v0.5c0,0.2-0.1,0.3-0.3,0.3h-0.4c-2.6,0-3.3-0.9-3.3-2.4v-5.6h-1.1c-0.2,0-0.3-0.1-0.3-0.3V94
		c0-0.2,0.1-0.3,0.3-0.3l1-0.1h0.2v-1.9c0-0.2,0.1-0.3,0.3-0.3h0.8c0.2,0,0.3,0.1,0.3,0.3v1.9C-11.2,93.6-9.2,93.6-9.2,93.6z"/>
	<path class="st0" d="M-0.1,98.1c0,0.2-0.1,0.3-0.3,0.3h-5.2v2c0,0.9,0.4,1.4,2.1,1.4s2.1-0.6,2.1-1.4v-0.4c0-0.2,0.1-0.3,0.3-0.3
		h0.7c0.2,0,0.3,0.1,0.3,0.3v0.4c0,1.4-0.8,2.4-3.3,2.4c-2.6,0-3.3-1-3.3-2.4v-4.7c0-1.4,0.9-2.4,3.4-2.4s3.3,1,3.3,2.4L-0.1,98.1
		L-0.1,98.1z M-5.6,97.4h4.3v-1.5c0-0.8-0.5-1.4-2.1-1.4c-1.7,0-2.1,0.6-2.1,1.4L-5.6,97.4L-5.6,97.4z"/>
	<path class="st0" d="M3.6,93.9v0.7c0.5-0.4,1.6-1.1,3.2-1.1c1.8,0,2.6,1,2.6,2.3v6.7c0,0.2-0.1,0.3-0.3,0.3H8.4
		c-0.2,0-0.3-0.1-0.3-0.3V96c0-0.8-0.4-1.4-1.6-1.4c-1.4,0-2.4,0.7-2.8,1.1v6.8c0,0.2-0.1,0.3-0.3,0.3H2.8c-0.2,0-0.3-0.1-0.3-0.3
		v-8.5c0-0.2,0.1-0.3,0.3-0.3h0.7C3.6,93.6,3.6,93.7,3.6,93.9z"/>
	<path class="st0" d="M16,93.6c0.2,0,0.3,0.1,0.3,0.3v0.5c0,0.2-0.1,0.3-0.3,0.3h-2.1v5.5c0,0.9,0.5,1.4,2.1,1.4h0.4
		c0.2,0,0.3,0.1,0.3,0.3v0.5c0,0.2-0.1,0.3-0.3,0.3h-0.4c-2.6,0-3.3-0.9-3.3-2.4v-5.6h-1.1c-0.2,0-0.3-0.1-0.3-0.3V94
		c0-0.2,0.1-0.3,0.3-0.3l1-0.1h0.2v-1.9c0-0.2,0.1-0.3,0.3-0.3h0.8c0.2,0,0.3,0.1,0.3,0.3v1.9C13.9,93.6,16,93.6,16,93.6z"/>
	<path class="st0" d="M23.9,96.9c0.2,0,0.3,0.1,0.3,0.3v0.5c0,0.2-0.1,0.3-0.3,0.3H19c-0.2,0-0.3-0.1-0.3-0.3v-0.5
		c0-0.2,0.1-0.3,0.3-0.3H23.9z"/>
	<path class="st0" d="M32.4,90.2c0.2,0,0.3,0.1,0.3,0.3v0.6c0,0.2-0.1,0.3-0.3,0.3h-3.2v11.2c0,0.2-0.1,0.3-0.3,0.3h-0.8
		c-0.2,0-0.3-0.1-0.3-0.3V91.4h-3.2c-0.2,0-0.3-0.1-0.3-0.3v-0.6c0-0.2,0.1-0.3,0.3-0.3C24.7,90.2,32.4,90.2,32.4,90.2z"/>
	<path class="st0" d="M35.8,100.1c0.2,0.5,0.3,1.1,0.3,1.1c0-0.1,0.2-0.7,0.3-1.1l2.1-6.2c0.1-0.2,0.1-0.3,0.4-0.3h0.7
		c0.2,0,0.3,0.1,0.3,0.3l-4.2,12.4c-0.1,0.2-0.1,0.3-0.4,0.3h-0.6c-0.2,0-0.3-0.1-0.3-0.3l1.1-3.4l-3.1-8.9
		c-0.1-0.2,0.1-0.3,0.3-0.3h0.8c0.2,0,0.3,0.1,0.4,0.3L35.8,100.1z"/>
	<path class="st0" d="M42.7,93.9v0.7c0.5-0.4,1.6-1.1,3.2-1.1c1.8,0,2.6,1,2.6,2.4v4.7c0,1.4-0.8,2.4-2.6,2.4
		c-1.6,0-2.6-0.7-3.2-1.1v4.5c0,0.2-0.1,0.3-0.3,0.3h-0.7c-0.2,0-0.3-0.1-0.3-0.3V93.9c0-0.2,0.1-0.3,0.3-0.3h0.7
		C42.7,93.6,42.7,93.7,42.7,93.9z M47.2,96c0-0.8-0.4-1.4-1.6-1.4c-1.4,0-2.4,0.7-2.8,1.1v5c0.4,0.4,1.4,1.1,2.8,1.1
		c1.2,0,1.6-0.6,1.6-1.4V96z"/>
	<path class="st0" d="M57.7,98.1c0,0.2-0.1,0.3-0.3,0.3h-5.2v2c0,0.9,0.4,1.4,2.1,1.4c1.7,0,2.1-0.6,2.1-1.4v-0.4
		c0-0.2,0.1-0.3,0.3-0.3h0.7c0.2,0,0.3,0.1,0.3,0.3v0.4c0,1.4-0.8,2.4-3.3,2.4c-2.6,0-3.3-1-3.3-2.4v-4.7c0-1.4,0.9-2.4,3.4-2.4
		s3.3,1,3.3,2.4L57.7,98.1L57.7,98.1z M52.3,97.4h4.3v-1.5c0-0.8-0.5-1.4-2.1-1.4c-1.7,0-2.1,0.6-2.1,1.4L52.3,97.4L52.3,97.4z"/>
	<path class="st1" d="M-35.9,120.3c0,0.2-0.1,0.3-0.3,0.3h-5.2v2c0,0.9,0.4,1.4,2.1,1.4c1.7,0,2.1-0.6,2.1-1.4v-0.4
		c0-0.2,0.1-0.3,0.3-0.3h0.7c0.2,0,0.3,0.1,0.3,0.3v0.4c0,1.4-0.8,2.4-3.3,2.4s-3.3-1-3.3-2.4V118c0-1.4,0.9-2.4,3.4-2.4
		c2.6,0,3.3,1,3.3,2.4L-35.9,120.3L-35.9,120.3z M-41.4,119.6h4.3v-1.5c0-0.8-0.5-1.4-2.1-1.4c-1.7,0-2.1,0.6-2.1,1.4L-41.4,119.6
		L-41.4,119.6z"/>
	<path class="st1" d="M-27.8,116.1c0-0.2,0.1-0.3,0.3-0.3h0.7c0.2,0,0.3,0.1,0.3,0.3v12.4c0,0.2-0.1,0.3-0.3,0.3h-0.8
		c-0.2,0-0.3-0.1-0.3-0.3V124c-0.5,0.4-1.6,1.1-3.1,1.1c-1.8,0-2.6-1-2.6-2.4V118c0-1.4,0.8-2.4,2.6-2.4c1.6,0,2.6,0.7,3.2,1.1
		L-27.8,116.1z M-32.3,122.5c0,0.8,0.4,1.4,1.6,1.4c1.4,0,2.4-0.7,2.8-1.1v-5c-0.4-0.4-1.4-1.1-2.8-1.1c-1.1,0-1.6,0.6-1.6,1.4
		V122.5z"/>
	<path class="st1" d="M-18.2,124c-0.5,0.4-1.5,1.1-3,1.1c-1.8,0-2.6-1-2.6-2.3V116c0-0.2,0.1-0.3,0.3-0.3h0.8c0.2,0,0.3,0.1,0.3,0.3
		v6.4c0,0.9,0.4,1.4,1.7,1.4c1.3,0,2.3-0.7,2.6-1.1v-6.9c0-0.2,0.1-0.3,0.3-0.3h0.8c0.2,0,0.3,0.1,0.3,0.3v8.5
		c0,0.2-0.1,0.3-0.3,0.3h-0.7c-0.2,0-0.3-0.1-0.3-0.3L-18.2,124z"/>
	<path class="st1" d="M-14.1,118c0-1.4,0.8-2.4,3.3-2.4s3.3,1,3.3,2.4v6.7c0,0.2-0.1,0.3-0.3,0.3h-0.7c-0.2,0-0.3-0.1-0.3-0.3V124
		c-0.5,0.4-1.6,1.1-3.1,1.1c-1.8,0-2.6-1-2.6-2.2V122c0-1.2,0.8-2.2,2.4-2.2h3.2v-1.7c0-0.8-0.4-1.4-2.1-1.4s-2.1,0.5-2.1,1.4v0.3
		c0,0.2-0.1,0.3-0.3,0.3H-14c-0.2,0-0.3-0.1-0.3-0.3L-14.1,118L-14.1,118z M-8.7,123.1v-2.2h-2.9c-1,0-1.4,0.5-1.4,1.3v0.6
		c0,0.8,0.5,1.2,1.6,1.2C-10.1,124-9.1,123.3-8.7,123.1z"/>
	<path class="st1" d="M-3.4,124.7c0,0.2-0.1,0.3-0.3,0.3h-0.7c-0.2,0-0.3-0.1-0.3-0.3v-12.3c0-0.2,0.1-0.3,0.3-0.3h0.7
		c0.2,0,0.3,0.1,0.3,0.3V124.7z"/>
	<path class="st1" d="M7.4,115.8c0.2,0,0.3,0.1,0.3,0.3v0.5c0,0.2-0.1,0.3-0.3,0.3H5.3v5.5c0,0.9,0.5,1.4,2.1,1.4h0.4
		c0.2,0,0.3,0.1,0.3,0.3v0.5c0,0.2-0.1,0.3-0.3,0.3H7.3c-2.6,0-3.3-0.9-3.3-2.4v-5.6H2.9c-0.2,0-0.3-0.1-0.3-0.3v-0.4
		c0-0.2,0.1-0.3,0.3-0.3l1-0.1h0.2v-1.9c0-0.2,0.1-0.3,0.3-0.3h0.8c0.2,0,0.3,0.1,0.3,0.3v1.9C5.4,115.8,7.4,115.8,7.4,115.8z"/>
	<path class="st1" d="M9.8,118c0-1.4,1-2.4,3.4-2.4s3.5,1,3.5,2.4v4.7c0,1.4-1,2.4-3.5,2.4s-3.4-1-3.4-2.4V118z M15.5,118.2
		c0-0.9-0.6-1.4-2.2-1.4s-2.2,0.5-2.2,1.4v4.5c0,0.9,0.6,1.4,2.2,1.4c1.7,0,2.2-0.5,2.2-1.4V118.2z"/>
	<path class="st0" d="M23.5,118c0-1.4,0.8-2.4,3.3-2.4c2.6,0,3.3,1,3.3,2.4v6.7c0,0.2-0.1,0.3-0.3,0.3h-0.7c-0.2,0-0.3-0.1-0.3-0.3
		V124c-0.5,0.4-1.6,1.1-3.1,1.1c-1.8,0-2.6-1-2.6-2.2V122c0-1.2,0.8-2.2,2.4-2.2h3.2v-1.7c0-0.8-0.4-1.4-2.1-1.4s-2.1,0.5-2.1,1.4
		v0.3c0,0.2-0.1,0.3-0.3,0.3h-0.7c-0.2,0-0.3-0.1-0.3-0.3L23.5,118L23.5,118z M28.9,123.1v-2.2H26c-1,0-1.4,0.5-1.4,1.3v0.6
		c0,0.8,0.5,1.2,1.6,1.2C27.5,124,28.5,123.3,28.9,123.1z"/>
	<path class="st0" d="M34.2,116.1v0.7c0.5-0.4,1.6-1.1,3.2-1.1c1.8,0,2.6,1,2.6,2.4v4.7c0,1.4-0.8,2.4-2.6,2.4
		c-1.6,0-2.6-0.7-3.2-1.1v4.5c0,0.2-0.1,0.3-0.3,0.3h-0.7c-0.2,0-0.3-0.1-0.3-0.3v-12.4c0-0.2,0.1-0.3,0.3-0.3h0.7
		C34.1,115.8,34.2,115.9,34.2,116.1z M38.7,118.2c0-0.8-0.4-1.4-1.6-1.4c-1.4,0-2.4,0.7-2.8,1.1v5c0.4,0.4,1.4,1.1,2.8,1.1
		c1.2,0,1.6-0.6,1.6-1.4V118.2z"/>
	<path class="st0" d="M43.9,116.1v0.7c0.5-0.4,1.6-1.1,3.2-1.1c1.8,0,2.6,1,2.6,2.4v4.7c0,1.4-0.8,2.4-2.6,2.4
		c-1.6,0-2.6-0.7-3.2-1.1v4.5c0,0.2-0.1,0.3-0.3,0.3h-0.7c-0.2,0-0.3-0.1-0.3-0.3v-12.4c0-0.2,0.1-0.3,0.3-0.3h0.7
		C43.8,115.8,43.9,115.9,43.9,116.1z M48.4,118.2c0-0.8-0.4-1.4-1.6-1.4c-1.4,0-2.4,0.7-2.8,1.1v5c0.4,0.4,1.4,1.1,2.8,1.1
		c1.2,0,1.6-0.6,1.6-1.4V118.2z"/>
	<path class="st0" d="M53.7,124.7c0,0.2-0.1,0.3-0.3,0.3h-0.7c-0.2,0-0.3-0.1-0.3-0.3v-12.3c0-0.2,0.1-0.3,0.3-0.3h0.7
		c0.2,0,0.3,0.1,0.3,0.3V124.7z"/>
	<path class="st0" d="M57.9,114.1c0,0.2-0.1,0.3-0.3,0.3h-0.7c-0.2,0-0.3-0.1-0.3-0.3v-1.8c0-0.2,0.1-0.3,0.3-0.3h0.7
		c0.2,0,0.3,0.1,0.3,0.3V114.1z M57.9,124.7c0,0.2-0.1,0.3-0.3,0.3h-0.7c-0.2,0-0.3-0.1-0.3-0.3v-8.5c0-0.2,0.1-0.3,0.3-0.3h0.7
		c0.2,0,0.3,0.1,0.3,0.3V124.7z"/>
	<path class="st0" d="M67.3,118v0.4c0,0.2-0.1,0.3-0.3,0.3h-0.7c-0.2,0-0.3-0.1-0.3-0.3v-0.3c0-0.9-0.4-1.4-2.1-1.4
		s-2.1,0.5-2.1,1.4v4.5c0,0.9,0.4,1.4,2.1,1.4s2.1-0.5,2.1-1.4v-0.4c0-0.2,0.1-0.3,0.3-0.3h0.7c0.2,0,0.3,0.1,0.3,0.3v0.5
		c0,1.4-0.9,2.4-3.3,2.4c-2.5,0-3.3-1-3.3-2.4V118c0-1.4,0.8-2.4,3.3-2.4C66.5,115.7,67.3,116.6,67.3,118z"/>
	<path class="st0" d="M69.5,118c0-1.4,0.8-2.4,3.3-2.4c2.6,0,3.3,1,3.3,2.4v6.7c0,0.2-0.1,0.3-0.3,0.3h-0.7c-0.2,0-0.3-0.1-0.3-0.3
		V124c-0.5,0.4-1.6,1.1-3.1,1.1c-1.8,0-2.6-1-2.6-2.2V122c0-1.2,0.8-2.2,2.4-2.2h3.2v-1.7c0-0.8-0.4-1.4-2.1-1.4
		c-1.7,0-2.1,0.5-2.1,1.4v0.3c0,0.2-0.1,0.3-0.3,0.3h-0.7c-0.2,0-0.3-0.1-0.3-0.3L69.5,118L69.5,118z M74.9,123.1v-2.2H72
		c-1,0-1.4,0.5-1.4,1.3v0.6c0,0.8,0.5,1.2,1.6,1.2C73.5,124,74.5,123.3,74.9,123.1z"/>
	<path class="st0" d="M82.7,115.8c0.2,0,0.3,0.1,0.3,0.3v0.5c0,0.2-0.1,0.3-0.3,0.3h-2v5.5c0,0.9,0.5,1.4,2.1,1.4h0.4
		c0.2,0,0.3,0.1,0.3,0.3v0.5c0,0.2-0.1,0.3-0.3,0.3h-0.4c-2.6,0-3.3-0.9-3.3-2.4v-5.6h-1.1c-0.2,0-0.3-0.1-0.3-0.3v-0.4
		c0-0.2,0.1-0.3,0.3-0.3l1-0.1h0.2v-1.9c0-0.2,0.1-0.3,0.3-0.3h0.8c0.2,0,0.3,0.1,0.3,0.3v1.9C80.8,115.8,82.7,115.8,82.7,115.8z"/>
	<path class="st0" d="M86.7,114.1c0,0.2-0.1,0.3-0.3,0.3h-0.7c-0.2,0-0.3-0.1-0.3-0.3v-1.8c0-0.2,0.1-0.3,0.3-0.3h0.7
		c0.2,0,0.3,0.1,0.3,0.3V114.1z M86.7,124.7c0,0.2-0.1,0.3-0.3,0.3h-0.7c-0.2,0-0.3-0.1-0.3-0.3v-8.5c0-0.2,0.1-0.3,0.3-0.3h0.7
		c0.2,0,0.3,0.1,0.3,0.3V124.7z"/>
	<path class="st0" d="M89.4,118c0-1.4,1-2.4,3.4-2.4c2.5,0,3.5,1,3.5,2.4v4.7c0,1.4-1,2.4-3.5,2.4s-3.4-1-3.4-2.4V118z M95.2,118.2
		c0-0.9-0.6-1.4-2.2-1.4c-1.6,0-2.2,0.5-2.2,1.4v4.5c0,0.9,0.6,1.4,2.2,1.4c1.7,0,2.2-0.5,2.2-1.4V118.2z"/>
	<path class="st0" d="M100.3,116.1v0.7c0.5-0.4,1.6-1.1,3.2-1.1c1.8,0,2.6,1,2.6,2.3v6.7c0,0.2-0.1,0.3-0.3,0.3h-0.7
		c-0.2,0-0.3-0.1-0.3-0.3v-6.4c0-0.8-0.4-1.4-1.6-1.4c-1.4,0-2.4,0.7-2.8,1.1v6.8c0,0.2-0.1,0.3-0.3,0.3h-0.7
		c-0.2,0-0.3-0.1-0.3-0.3v-8.5c0-0.2,0.1-0.3,0.3-0.3h0.7C100.3,115.8,100.3,115.9,100.3,116.1z"/>
	<path class="st0" d="M109.6,127.5c-0.1,0.2-0.1,0.3-0.4,0.3h-0.8c-0.2,0-0.3-0.1-0.2-0.3l4-15.1c0.1-0.2,0.1-0.3,0.4-0.3h0.8
		c0.2,0,0.3,0.1,0.2,0.3L109.6,127.5z"/>
	<path class="st0" d="M117,126.4c0,1.4-0.9,2.4-3.4,2.4h-0.1c-0.2,0-0.3-0.1-0.3-0.3V128c0-0.2,0.1-0.3,0.3-0.3h0.1
		c1.7,0,2.2-0.6,2.2-1.4v-10.2c0-0.2,0.1-0.3,0.3-0.3h0.8c0.2,0,0.3,0.1,0.3,0.3L117,126.4L117,126.4z M117,114.1
		c0,0.2-0.1,0.3-0.3,0.3h-0.8c-0.2,0-0.3-0.1-0.3-0.3v-1.8c0-0.2,0.1-0.3,0.3-0.3h0.8c0.2,0,0.3,0.1,0.3,0.3V114.1z"/>
	<path class="st0" d="M124.9,117.8c0-0.7-0.7-1.1-2-1.1c-1.4,0-2,0.4-2,1.1v0.4c0,0.6,0.5,0.9,1,1.1l2.8,0.9
		c0.9,0.3,1.6,0.9,1.6,1.8v1.1c0,1.1-1,2.1-3.3,2.1c-2.4,0-3.3-1-3.3-2.1v-0.5c0-0.2,0.1-0.3,0.3-0.3h0.7c0.2,0,0.3,0.1,0.3,0.3v0.4
		c0,0.7,0.7,1.1,2.2,1.1c1.4,0,2.2-0.4,2.2-1.1v-0.7c0-0.5-0.4-0.8-1.1-1.1l-2.8-1c-0.6-0.3-1.4-0.9-1.4-1.8v-0.7
		c0-1.1,0.8-2.1,3.2-2.1c2.4,0,3.3,1,3.3,2.1v0.5c0,0.2-0.1,0.3-0.3,0.3h-0.7c-0.2,0-0.3-0.1-0.3-0.3v-0.4H124.9z"/>
	<path class="st0" d="M128.4,118c0-1.4,1-2.4,3.4-2.4c2.5,0,3.5,1,3.5,2.4v4.7c0,1.4-1,2.4-3.5,2.4s-3.4-1-3.4-2.4V118z M134,118.2
		c0-0.9-0.6-1.4-2.2-1.4s-2.2,0.5-2.2,1.4v4.5c0,0.9,0.6,1.4,2.2,1.4c1.7,0,2.2-0.5,2.2-1.4V118.2z"/>
	<path class="st0" d="M139.3,116.1v0.7c0.5-0.4,1.6-1.1,3.2-1.1c1.8,0,2.6,1,2.6,2.3v6.7c0,0.2-0.1,0.3-0.3,0.3H144
		c-0.2,0-0.3-0.1-0.3-0.3v-6.4c0-0.8-0.4-1.4-1.6-1.4c-1.4,0-2.4,0.7-2.8,1.1v6.8c0,0.2-0.1,0.3-0.3,0.3h-0.7
		c-0.2,0-0.3-0.1-0.3-0.3v-8.5c0-0.2,0.1-0.3,0.3-0.3h0.7C139.2,115.8,139.2,115.9,139.3,116.1z"/>
</g>
<path class="st2" d="M-73.9,87.2c-11.7,0-21.1,9.4-21.1,21.1s9.4,21.1,21.1,21.1s21.1-9.4,21.1-21.1S-62.1,87.2-73.9,87.2z
	 M-77.4,116.5L-84,110l1.7-1.7l4.9,4.9l12.4-12.4l1.7,1.7L-77.4,116.5z"/>
<g>
	<path class="st0" d="M-40.9,159.3v4.8c0,0.2-0.1,0.3-0.3,0.3H-42c-0.2,0-0.3-0.1-0.3-0.3v-12.1c0-0.2,0.1-0.3,0.3-0.3h3.7
		c3.1,0,4.1,1.2,4.1,2.7v2.1c0,1.1-0.6,2.1-2.3,2.6l2.4,5c0.1,0.2-0.1,0.3-0.3,0.3h-0.8c-0.2,0-0.3-0.1-0.4-0.3l-2.3-4.8h-0.4
		L-40.9,159.3L-40.9,159.3z M-40.9,153v5.2h2.6c1.9,0,2.7-0.7,2.7-1.8v-1.7c0-1.1-0.7-1.8-2.7-1.8H-40.9z"/>
	<path class="st0" d="M-25.1,159.8c0,0.2-0.1,0.3-0.3,0.3h-5.2v2c0,0.9,0.4,1.4,2.1,1.4s2.1-0.6,2.1-1.4v-0.4c0-0.2,0.1-0.3,0.3-0.3
		h0.7c0.2,0,0.3,0.1,0.3,0.3v0.4c0,1.4-0.8,2.4-3.3,2.4s-3.3-1-3.3-2.4v-4.7c0-1.4,0.9-2.4,3.4-2.4s3.3,1,3.3,2.4L-25.1,159.8
		L-25.1,159.8z M-30.6,159.1h4.3v-1.5c0-0.8-0.5-1.4-2.1-1.4c-1.7,0-2.1,0.6-2.1,1.4L-30.6,159.1L-30.6,159.1z"/>
	<path class="st0" d="M-17.6,157.2c0-0.7-0.7-1.1-2-1.1c-1.4,0-2,0.4-2,1.1v0.4c0,0.6,0.5,0.9,1,1.1l2.8,1c0.9,0.3,1.6,0.9,1.6,1.8
		v1.1c0,1.1-1,2.1-3.3,2.1c-2.4,0-3.3-1-3.3-2.1V162c0-0.2,0.1-0.3,0.3-0.3h0.7c0.2,0,0.3,0.1,0.3,0.3v0.4c0,0.7,0.7,1.1,2.2,1.1
		c1.4,0,2.2-0.4,2.2-1.1v-0.7c0-0.5-0.4-0.8-1.1-1.1l-2.8-1c-0.6-0.3-1.4-0.9-1.4-1.8v-0.7c0-1.1,0.8-2.1,3.2-2.1s3.3,1,3.3,2.1v0.5
		c0,0.2-0.1,0.3-0.3,0.3h-0.7c-0.2,0-0.3-0.1-0.3-0.3v-0.5H-17.6z"/>
	<path class="st0" d="M-12.7,155.6v0.7c0.5-0.4,1.6-1.1,3.2-1.1c1.8,0,2.6,1,2.6,2.4v4.7c0,1.4-0.8,2.4-2.6,2.4
		c-1.6,0-2.6-0.7-3.2-1.1v4.5c0,0.2-0.1,0.3-0.3,0.3h-0.7c-0.2,0-0.3-0.1-0.3-0.3v-12.4c0-0.2,0.1-0.3,0.3-0.3h0.7
		C-12.8,155.3-12.7,155.4-12.7,155.6z M-8.2,157.7c0-0.8-0.4-1.4-1.6-1.4c-1.4,0-2.4,0.7-2.8,1.1v5c0.4,0.4,1.4,1.1,2.8,1.1
		c1.2,0,1.6-0.6,1.6-1.4V157.7z"/>
	<path class="st0" d="M-4.5,157.5c0-1.4,1-2.4,3.4-2.4s3.5,1,3.5,2.4v4.7c0,1.4-1,2.4-3.5,2.4s-3.4-1-3.4-2.4V157.5z M1.3,157.7
		c0-0.9-0.6-1.4-2.2-1.4s-2.2,0.5-2.2,1.4v4.5c0,0.9,0.6,1.4,2.2,1.4c1.7,0,2.2-0.5,2.2-1.4V157.7z"/>
	<path class="st0" d="M6.5,155.6v0.7c0.5-0.4,1.6-1.1,3.2-1.1c1.8,0,2.6,1,2.6,2.3v6.7c0,0.2-0.1,0.3-0.3,0.3h-0.7
		c-0.2,0-0.3-0.1-0.3-0.3v-6.4c0-0.8-0.4-1.4-1.6-1.4c-1.4,0-2.4,0.7-2.8,1.1v6.8c0,0.2-0.1,0.3-0.3,0.3H5.6c-0.2,0-0.3-0.1-0.3-0.3
		v-8.5c0-0.2,0.1-0.3,0.3-0.3h0.7C6.4,155.3,6.5,155.4,6.5,155.6z"/>
	<path class="st0" d="M19.9,157.2c0-0.7-0.7-1.1-2-1.1c-1.4,0-2,0.4-2,1.1v0.4c0,0.6,0.5,0.9,1,1.1l2.8,1c0.9,0.3,1.6,0.9,1.6,1.8
		v1.1c0,1.1-1,2.1-3.3,2.1s-3.3-1-3.3-2.1V162c0-0.2,0.1-0.3,0.3-0.3h0.7c0.2,0,0.3,0.1,0.3,0.3v0.4c0,0.7,0.7,1.1,2.2,1.1
		c1.4,0,2.2-0.4,2.2-1.1v-0.7c0-0.5-0.4-0.8-1.1-1.1l-2.8-1c-0.6-0.3-1.4-0.9-1.4-1.8v-0.7c0-1.1,0.8-2.1,3.2-2.1
		c2.4,0,3.3,1,3.3,2.1v0.5c0,0.2-0.1,0.3-0.3,0.3h-0.7c-0.2,0-0.3-0.1-0.3-0.3v-0.5H19.9z"/>
	<path class="st0" d="M30.2,159.8c0,0.2-0.1,0.3-0.3,0.3h-5.2v2c0,0.9,0.4,1.4,2.1,1.4s2.1-0.6,2.1-1.4v-0.4c0-0.2,0.1-0.3,0.3-0.3
		h0.7c0.2,0,0.3,0.1,0.3,0.3v0.4c0,1.4-0.8,2.4-3.3,2.4c-2.6,0-3.3-1-3.3-2.4v-4.7c0-1.4,0.9-2.4,3.4-2.4s3.3,1,3.3,2.4L30.2,159.8
		L30.2,159.8z M24.7,159.1H29v-1.5c0-0.8-0.5-1.4-2.1-1.4c-1.7,0-2.1,0.6-2.1,1.4L24.7,159.1L24.7,159.1z"/>
	<path class="st0" d="M37.1,164.5c-0.2,0-0.3-0.1-0.3-0.3v-12.3c0-0.2,0.1-0.3,0.3-0.3h0.7c0.2,0,0.3,0.1,0.3,0.3v4.5
		c0.5-0.4,1.6-1.1,3.2-1.1c1.8,0,2.6,1,2.6,2.4v4.7c0,1.4-0.8,2.4-2.6,2.4c-1.6,0-2.6-0.7-3.2-1.1v0.7c0,0.2-0.1,0.3-0.3,0.3
		L37.1,164.5L37.1,164.5z M42.6,157.7c0-0.8-0.4-1.4-1.6-1.4c-1.4,0-2.4,0.7-2.8,1.1v5c0.4,0.4,1.4,1.1,2.8,1.1
		c1.2,0,1.6-0.6,1.6-1.4V157.7z"/>
	<path class="st0" d="M46.4,157.5c0-1.4,1-2.4,3.4-2.4s3.5,1,3.5,2.4v4.7c0,1.4-1,2.4-3.5,2.4s-3.4-1-3.4-2.4V157.5z M52,157.7
		c0-0.9-0.6-1.4-2.2-1.4s-2.2,0.5-2.2,1.4v4.5c0,0.9,0.6,1.4,2.2,1.4c1.7,0,2.2-0.5,2.2-1.4V157.7z"/>
	<path class="st0" d="M61.5,163.5c-0.5,0.4-1.6,1.1-3.2,1.1c-1.8,0-2.6-1-2.6-2.4v-4.7c0-1.4,0.8-2.4,2.6-2.4c1.5,0,2.6,0.7,3.1,1.1
		v-4.5c0-0.2,0.1-0.3,0.3-0.3h0.7c0.2,0,0.3,0.1,0.3,0.3v12.3c0,0.2-0.1,0.3-0.3,0.3h-0.7c-0.2,0-0.3-0.1-0.3-0.3L61.5,163.5z
		 M57.1,162c0,0.8,0.4,1.4,1.6,1.4c1.4,0,2.4-0.7,2.8-1.1v-5c-0.4-0.4-1.4-1.1-2.8-1.1c-1.1,0-1.6,0.6-1.6,1.4V162z"/>
	<path class="st0" d="M68,161.7c0.2,0.5,0.3,1.1,0.3,1.1c0-0.1,0.2-0.7,0.3-1.1l2.1-6.2c0.1-0.2,0.1-0.3,0.4-0.3h0.7
		c0.2,0,0.3,0.1,0.3,0.3l-4.2,12.4c-0.1,0.2-0.1,0.3-0.4,0.3h-0.6c-0.2,0-0.3-0.1-0.3-0.3l1.1-3.4l-3.1-8.9
		c-0.1-0.2,0.1-0.3,0.3-0.3h0.8c0.2,0,0.3,0.1,0.4,0.3L68,161.7z"/>
	<path class="st0" d="M78.2,161.7c0,1.1,0.4,1.8,2.2,1.8s2.2-0.7,2.2-1.8v-9.6c0-0.2,0.1-0.3,0.3-0.3h0.8c0.2,0,0.3,0.1,0.3,0.3v9.8
		c0,1.5-0.7,2.7-3.5,2.7s-3.5-1.2-3.5-2.7v-0.8c0-0.2,0.1-0.3,0.3-0.3H78c0.2,0,0.3,0.1,0.3,0.3V161.7z"/>
	<path class="st0" d="M90.8,152.8c-1.9,0-2.6,0.7-2.6,1.8v0.5c0,0.9,0.6,1.2,1.1,1.4l3.4,1.3c1,0.4,1.9,1.1,1.9,2.4v1.6
		c0,1.5-1,2.7-4,2.7c-3,0-4-1.2-4-2.7v-1.1c0-0.2,0.1-0.3,0.3-0.3h0.8c0.2,0,0.3,0.1,0.3,0.3v0.9c0,1.1,0.7,1.8,2.6,1.8
		c1.9,0,2.6-0.7,2.6-1.8v-1.1c0-1-0.8-1.3-1.5-1.6l-3.3-1.2c-0.8-0.3-1.6-1.1-1.6-2.2v-1.1c0-1.5,0.9-2.7,3.8-2.7s3.9,1.2,3.9,2.7
		v0.9c0,0.2-0.1,0.3-0.3,0.3h-0.8c-0.2,0-0.3-0.1-0.3-0.3v-0.7C93.4,153.5,92.8,152.8,90.8,152.8z"/>
	<path class="st0" d="M97.4,154.4c0-1.5,1-2.7,4-2.7c3.1,0,4.1,1.2,4.1,2.7v7.5c0,1.5-1,2.7-4.1,2.7c-3,0-4-1.2-4-2.7V154.4z
		 M104.1,154.6c0-1.1-0.7-1.8-2.7-1.8c-1.9,0-2.6,0.7-2.6,1.8v7c0,1.1,0.7,1.8,2.6,1.8c1.9,0,2.7-0.7,2.7-1.8V154.6z"/>
	<path class="st0" d="M116.6,164.2c0,0.2-0.1,0.3-0.3,0.3h-0.7c-0.1,0-0.2,0-0.3-0.1l-4.9-8.7c-0.4-0.7-0.6-1.1-0.6-1.2v9.8
		c0,0.2-0.1,0.3-0.3,0.3h-0.7c-0.2,0-0.3-0.1-0.3-0.3v-12.1c0-0.2,0.1-0.3,0.3-0.3h0.7c0.1,0,0.2,0,0.3,0.1l5,8.8
		c0.2,0.3,0.5,1.1,0.5,1.1v-9.8c0-0.2,0.1-0.3,0.3-0.3h0.7c0.2,0,0.3,0.1,0.3,0.3L116.6,164.2L116.6,164.2z"/>
	<path class="st1" d="M-35.9,179.7v0.4c0,0.2-0.1,0.3-0.3,0.3h-0.7c-0.2,0-0.3-0.1-0.3-0.3v-0.3c0-0.9-0.4-1.4-2.1-1.4
		c-1.7,0-2.1,0.5-2.1,1.4v4.5c0,0.9,0.4,1.4,2.1,1.4c1.7,0,2.1-0.5,2.1-1.4v-0.4c0-0.2,0.1-0.3,0.3-0.3h0.7c0.2,0,0.3,0.1,0.3,0.3
		v0.5c0,1.4-0.9,2.4-3.3,2.4s-3.3-1-3.3-2.4v-4.7c0-1.4,0.8-2.4,3.3-2.4S-35.9,178.3-35.9,179.7z"/>
	<path class="st1" d="M-33.8,179.7c0-1.4,1-2.4,3.4-2.4s3.5,1,3.5,2.4v4.7c0,1.4-1,2.4-3.5,2.4s-3.4-0.9-3.4-2.4V179.7z
		 M-28.1,179.9c0-0.9-0.6-1.4-2.2-1.4c-1.6,0-2.2,0.5-2.2,1.4v4.5c0,0.9,0.6,1.4,2.2,1.4c1.7,0,2.2-0.5,2.2-1.4V179.9z"/>
	<path class="st1" d="M-22.9,177.8v0.7c0.5-0.4,1.6-1.1,3.2-1.1c1.8,0,2.6,1,2.6,2.3v6.7c0,0.2-0.1,0.3-0.3,0.3h-0.7
		c-0.2,0-0.3-0.1-0.3-0.3v-6.4c0-0.8-0.4-1.4-1.6-1.4c-1.4,0-2.4,0.7-2.8,1.1v6.8c0,0.2-0.1,0.3-0.3,0.3h-0.7
		c-0.2,0-0.3-0.1-0.3-0.3v-8.5c0-0.2,0.1-0.3,0.3-0.3h0.7C-23,177.5-22.9,177.6-22.9,177.8z"/>
	<path class="st1" d="M-10.5,177.5c0.2,0,0.3,0.1,0.3,0.3v0.5c0,0.2-0.1,0.3-0.3,0.3h-2.1v5.5c0,0.9,0.5,1.4,2.1,1.4h0.4
		c0.2,0,0.3,0.1,0.3,0.3v0.5c0,0.2-0.1,0.3-0.3,0.3h-0.4c-2.6,0-3.3-0.9-3.3-2.4v-5.6H-15c-0.2,0-0.3-0.1-0.3-0.3v-0.4
		c0-0.2,0.1-0.3,0.3-0.3l1-0.1h0.2v-1.9c0-0.2,0.1-0.3,0.3-0.3h0.8c0.2,0,0.3,0.1,0.3,0.3v1.9L-10.5,177.5L-10.5,177.5z"/>
	<path class="st1" d="M-8.1,179.7c0-1.4,0.8-2.4,3.3-2.4c2.6,0,3.3,1,3.3,2.4v6.7c0,0.2-0.1,0.3-0.3,0.3h-0.7
		c-0.2,0-0.3-0.1-0.3-0.3v-0.7c-0.5,0.4-1.6,1.1-3.1,1.1c-1.8,0-2.6-1-2.6-2.2v-0.9c0-1.2,0.8-2.2,2.4-2.2h3.2v-1.7
		c0-0.8-0.4-1.4-2.1-1.4s-2.1,0.5-2.1,1.4v0.3c0,0.2-0.1,0.3-0.3,0.3h-0.7c-0.2,0-0.3-0.1-0.3-0.3L-8.1,179.7L-8.1,179.7z
		 M-2.6,184.7v-2.2h-3c-1,0-1.4,0.5-1.4,1.3v0.6c0,0.8,0.5,1.2,1.6,1.2C-4,185.7-3.1,185-2.6,184.7z"/>
	<path class="st1" d="M2.7,175.7c0,0.2-0.1,0.3-0.3,0.3H1.7c-0.2,0-0.3-0.1-0.3-0.3V174c0-0.2,0.1-0.3,0.3-0.3h0.7
		c0.2,0,0.3,0.1,0.3,0.3V175.7z M2.7,186.4c0,0.2-0.1,0.3-0.3,0.3H1.7c-0.2,0-0.3-0.1-0.3-0.3v-8.5c0-0.2,0.1-0.3,0.3-0.3h0.7
		c0.2,0,0.3,0.1,0.3,0.3V186.4z"/>
	<path class="st1" d="M6.9,177.8v0.7c0.5-0.4,1.6-1.1,3.2-1.1c1.8,0,2.6,1,2.6,2.3v6.7c0,0.2-0.1,0.3-0.3,0.3h-0.7
		c-0.2,0-0.3-0.1-0.3-0.3v-6.4c0-0.8-0.4-1.4-1.6-1.4c-1.4,0-2.4,0.7-2.8,1.1v6.8c0,0.2-0.1,0.3-0.3,0.3H6c-0.2,0-0.3-0.1-0.3-0.3
		v-8.5c0-0.2,0.1-0.3,0.3-0.3h0.7C6.8,177.5,6.8,177.6,6.9,177.8z"/>
	<path class="st1" d="M20.4,179.4c0-0.7-0.7-1.1-2-1.1c-1.4,0-2,0.4-2,1.1v0.4c0,0.6,0.5,0.9,1,1.1l2.8,0.9c0.9,0.3,1.6,0.9,1.6,1.8
		v1.1c0,1.1-1,2.1-3.3,2.1s-3.3-1-3.3-2.1v-0.5c0-0.2,0.1-0.3,0.3-0.3H16c0.2,0,0.3,0.1,0.3,0.3v0.4c0,0.7,0.7,1.1,2.2,1.1
		c1.4,0,2.2-0.4,2.2-1.1v-0.7c0-0.5-0.4-0.8-1.1-1.1l-2.8-1c-0.6-0.3-1.4-0.9-1.4-1.8v-0.7c0-1.1,0.8-2.1,3.2-2.1
		c2.4,0,3.3,1,3.3,2.1v0.5c0,0.2-0.1,0.3-0.3,0.3h-0.7c-0.2,0-0.3-0.1-0.3-0.3v-0.4H20.4z"/>
	<path class="st0" d="M29.4,178.5c0.5-0.4,1.6-1.1,3.2-1.1c1.8,0,2.6,1,2.6,2.3v6.7c0,0.2-0.1,0.3-0.3,0.3h-0.7
		c-0.2,0-0.3-0.1-0.3-0.3V180c0-0.8-0.4-1.4-1.6-1.4c-1.4,0-2.4,0.7-2.8,1.1v6.8c0,0.2-0.1,0.3-0.3,0.3h-0.7c-0.2,0-0.3-0.1-0.3-0.3
		v-12.3c0-0.2,0.1-0.3,0.3-0.3h0.7c0.2,0,0.3,0.1,0.3,0.3L29.4,178.5L29.4,178.5z"/>
	<path class="st0" d="M44.5,182c0,0.2-0.1,0.3-0.3,0.3H39v2c0,0.9,0.4,1.4,2.1,1.4s2.1-0.6,2.1-1.4v-0.4c0-0.2,0.1-0.3,0.3-0.3h0.7
		c0.2,0,0.3,0.1,0.3,0.3v0.4c0,1.4-0.8,2.4-3.3,2.4c-2.6,0-3.3-1-3.3-2.4v-4.6c0-1.4,0.9-2.4,3.4-2.4c2.6,0,3.3,1,3.3,2.4L44.5,182
		L44.5,182z M39,181.3h4.3v-1.5c0-0.8-0.5-1.4-2.1-1.4c-1.7,0-2.1,0.6-2.1,1.4L39,181.3L39,181.3z"/>
	<path class="st0" d="M46.9,179.7c0-1.4,0.8-2.4,3.3-2.4c2.6,0,3.3,1,3.3,2.4v6.7c0,0.2-0.1,0.3-0.3,0.3h-0.7
		c-0.2,0-0.3-0.1-0.3-0.3v-0.7c-0.5,0.4-1.6,1.1-3.1,1.1c-1.8,0-2.6-1-2.6-2.2v-0.9c0-1.2,0.8-2.2,2.4-2.2h3.2v-1.7
		c0-0.8-0.4-1.4-2.1-1.4s-2.1,0.5-2.1,1.4v0.3c0,0.2-0.1,0.3-0.3,0.3h-0.7c-0.2,0-0.3-0.1-0.3-0.3L46.9,179.7L46.9,179.7z
		 M52.3,184.7v-2.2h-2.9c-1,0-1.4,0.5-1.4,1.3v0.6c0,0.8,0.5,1.2,1.6,1.2C50.9,185.7,51.9,185,52.3,184.7z"/>
	<path class="st0" d="M57.7,186.4c0,0.2-0.1,0.3-0.3,0.3h-0.7c-0.2,0-0.3-0.1-0.3-0.3v-12.3c0-0.2,0.1-0.3,0.3-0.3h0.7
		c0.2,0,0.3,0.1,0.3,0.3V186.4z"/>
	<path class="st0" d="M64.4,177.5c0.2,0,0.3,0.1,0.3,0.3v0.5c0,0.2-0.1,0.3-0.3,0.3h-2.1v5.5c0,0.9,0.5,1.4,2.1,1.4h0.4
		c0.2,0,0.3,0.1,0.3,0.3v0.5c0,0.2-0.1,0.3-0.3,0.3h-0.4c-2.6,0-3.3-0.9-3.3-2.4v-5.6h-1.1c-0.2,0-0.3-0.1-0.3-0.3v-0.4
		c0-0.2,0.1-0.3,0.3-0.3l1-0.1h0.2v-1.9c0-0.2,0.1-0.3,0.3-0.3h0.8c0.2,0,0.3,0.1,0.3,0.3v1.9L64.4,177.5L64.4,177.5z"/>
	<path class="st0" d="M68.3,178.5c0.5-0.4,1.6-1.1,3.2-1.1c1.8,0,2.6,1,2.6,2.3v6.7c0,0.2-0.1,0.3-0.3,0.3H73
		c-0.2,0-0.3-0.1-0.3-0.3V180c0-0.8-0.4-1.4-1.6-1.4c-1.4,0-2.4,0.7-2.8,1.1v6.8c0,0.2-0.1,0.3-0.3,0.3h-0.7c-0.2,0-0.3-0.1-0.3-0.3
		v-12.3c0-0.2,0.1-0.3,0.3-0.3h0.7c0.2,0,0.3,0.1,0.3,0.3L68.3,178.5L68.3,178.5z"/>
	<path class="st0" d="M78.1,186.4c0,0.2-0.1,0.3-0.3,0.3H77c-0.2,0-0.3-0.1-0.3-0.3V185c0-0.2,0.1-0.3,0.3-0.3h0.8
		c0.2,0,0.3,0.1,0.3,0.3V186.4z"/>
	<path class="st0" d="M80.7,179.7c0-1.4,1-2.4,3.4-2.4c2.5,0,3.5,1,3.5,2.4v4.7c0,1.4-1,2.4-3.5,2.4s-3.4-1-3.4-2.4V179.7z
		 M86.4,179.9c0-0.9-0.6-1.4-2.2-1.4c-1.6,0-2.2,0.5-2.2,1.4v4.5c0,0.9,0.6,1.4,2.2,1.4c1.7,0,2.2-0.5,2.2-1.4V179.9z"/>
	<path class="st0" d="M97.3,186.4c0.1,0.1,0.1,0.3-0.1,0.3h-0.8c-0.2,0-0.4-0.1-0.4-0.3l-3.5-4.4h-0.6v4.4c0,0.2-0.1,0.3-0.3,0.3
		h-0.8c-0.2,0-0.3-0.1-0.3-0.3v-12.3c0-0.2,0.1-0.3,0.3-0.3h0.8c0.2,0,0.3,0.1,0.3,0.3v7h0.6l3.2-3.3c0.1-0.2,0.3-0.3,0.4-0.3h0.8
		c0.2,0,0.3,0.1,0.1,0.3l-3.5,3.7L97.3,186.4z"/>
	<path class="st0" d="M104.2,179.2c0,0.2-0.1,0.3-0.3,0.3h-0.8c-0.2,0-0.3-0.1-0.3-0.3v-1.5c0-0.2,0.1-0.3,0.3-0.3h0.8
		c0.2,0,0.3,0.1,0.3,0.3V179.2z M104.2,186.4c0,0.2-0.1,0.3-0.3,0.3h-0.8c-0.2,0-0.3-0.1-0.3-0.3V185c0-0.2,0.1-0.3,0.3-0.3h0.8
		c0.2,0,0.3,0.1,0.3,0.3V186.4z"/>
	<path class="st0" d="M115,177.5c0.2,0,0.3,0.1,0.3,0.3v0.5c0,0.2-0.1,0.3-0.3,0.3h-2.1v5.5c0,0.9,0.5,1.4,2.1,1.4h0.4
		c0.2,0,0.3,0.1,0.3,0.3v0.5c0,0.2-0.1,0.3-0.3,0.3h-0.4c-2.6,0-3.3-0.9-3.3-2.4v-5.6h-1.1c-0.2,0-0.3-0.1-0.3-0.3v-0.4
		c0-0.2,0.1-0.3,0.3-0.3l1-0.1h0.2v-1.9c0-0.2,0.1-0.3,0.3-0.3h0.8c0.2,0,0.3,0.1,0.3,0.3v1.9L115,177.5L115,177.5z"/>
	<path class="st0" d="M122.3,177.7v0.6c0,0.2-0.1,0.3-0.3,0.3c-1.4,0.1-2.6,0.9-3,1.2v6.6c0,0.2-0.1,0.3-0.3,0.3H118
		c-0.2,0-0.3-0.1-0.3-0.3v-8.5c0-0.2,0.1-0.3,0.3-0.3h0.7c0.2,0,0.3,0.1,0.3,0.3l0.1,0.9c0.5-0.4,1.7-1.3,3-1.3
		C122.2,177.3,122.3,177.4,122.3,177.7z"/>
	<path class="st0" d="M129.6,185.7c-0.5,0.4-1.5,1.1-3,1.1c-1.8,0-2.6-1-2.6-2.3v-6.8c0-0.2,0.1-0.3,0.3-0.3h0.8
		c0.2,0,0.3,0.1,0.3,0.3v6.4c0,0.9,0.4,1.4,1.7,1.4c1.3,0,2.3-0.7,2.6-1.1v-6.9c0-0.2,0.1-0.3,0.3-0.3h0.8c0.2,0,0.3,0.1,0.3,0.3
		v8.5c0,0.2-0.1,0.3-0.3,0.3H130c-0.2,0-0.3-0.1-0.3-0.3L129.6,185.7z"/>
	<path class="st0" d="M140.2,182c0,0.2-0.1,0.3-0.3,0.3h-5.2v2c0,0.9,0.4,1.4,2.1,1.4s2.1-0.6,2.1-1.4v-0.4c0-0.2,0.1-0.3,0.3-0.3
		h0.7c0.2,0,0.3,0.1,0.3,0.3v0.4c0,1.4-0.8,2.4-3.3,2.4s-3.3-1-3.3-2.4v-4.6c0-1.4,0.9-2.4,3.4-2.4s3.3,1,3.3,2.4L140.2,182
		L140.2,182z M134.8,181.3h4.3v-1.5c0-0.8-0.5-1.4-2.1-1.4c-1.7,0-2.1,0.6-2.1,1.4L134.8,181.3L134.8,181.3z"/>
</g>
<path class="st2" d="M-73.9,148.9c-11.7,0-21.1,9.4-21.1,21.1s9.4,21.1,21.1,21.1s21.1-9.4,21.1-21.1S-62.1,148.9-73.9,148.9z
	 M-77.4,178.2l-6.6-6.6l1.7-1.7l4.9,4.9l12.4-12.4l1.7,1.7L-77.4,178.2z"/>
<g>
	<path class="st0" d="M-40.9,221v4.8c0,0.2-0.1,0.3-0.3,0.3H-42c-0.2,0-0.3-0.1-0.3-0.3v-12c0-0.2,0.1-0.3,0.3-0.3h3.7
		c3.1,0,4.1,1.2,4.1,2.7v2.1c0,1.1-0.6,2.1-2.3,2.6l2.4,5c0.1,0.2-0.1,0.3-0.3,0.3h-0.8c-0.2,0-0.3-0.1-0.4-0.3l-2.3-4.8h-0.4h-2.6
		V221z M-40.9,214.7v5.2h2.6c1.9,0,2.7-0.7,2.7-1.8v-1.7c0-1.1-0.7-1.8-2.7-1.8H-40.9z"/>
	<path class="st0" d="M-31.9,219.1c0-1.4,1-2.4,3.4-2.4s3.5,1,3.5,2.4v4.7c0,1.4-1,2.4-3.5,2.4s-3.4-1-3.4-2.4V219.1z M-26.1,219.3
		c0-0.9-0.6-1.4-2.2-1.4s-2.2,0.5-2.2,1.4v4.5c0,0.9,0.6,1.4,2.2,1.4c1.7,0,2.2-0.5,2.2-1.4V219.3z"/>
	<path class="st0" d="M-16.7,225.1c-0.5,0.4-1.5,1.1-3,1.1c-1.8,0-2.6-1-2.6-2.3v-6.8c0-0.2,0.1-0.3,0.3-0.3h0.8
		c0.2,0,0.3,0.1,0.3,0.3v6.4c0,0.9,0.4,1.4,1.7,1.4c1.3,0,2.3-0.7,2.6-1.1V217c0-0.2,0.1-0.3,0.3-0.3h0.8c0.2,0,0.3,0.1,0.3,0.3v8.5
		c0,0.2-0.1,0.3-0.3,0.3h-0.7c-0.2,0-0.3-0.1-0.3-0.3L-16.7,225.1z"/>
	<path class="st0" d="M-11.2,217.2v0.7c0.5-0.4,1.6-1.1,3.2-1.1c1.8,0,2.6,1,2.6,2.3v6.7c0,0.2-0.1,0.3-0.3,0.3h-0.7
		c-0.2,0-0.3-0.1-0.3-0.3v-6.4c0-0.8-0.4-1.4-1.6-1.4c-1.4,0-2.4,0.7-2.8,1.1v6.8c0,0.2-0.1,0.3-0.3,0.3h-0.7
		c-0.2,0-0.3-0.1-0.3-0.3v-8.5c0-0.2,0.1-0.3,0.3-0.3h0.7C-11.3,216.9-11.3,217-11.2,217.2z"/>
	<path class="st0" d="M2.8,225.1c-0.5,0.4-1.6,1.1-3.2,1.1c-1.8,0-2.6-1-2.6-2.4v-4.7c0-1.4,0.8-2.4,2.6-2.4c1.5,0,2.6,0.7,3.1,1.1
		v-4.5c0-0.2,0.1-0.3,0.3-0.3h0.7c0.2,0,0.3,0.1,0.3,0.3v12.3c0,0.2-0.1,0.3-0.3,0.3H2.9c-0.2,0-0.3-0.1-0.3-0.3L2.8,225.1z
		 M-1.6,223.6c0,0.8,0.4,1.4,1.6,1.4c1.4,0,2.4-0.7,2.8-1.1v-5c-0.4-0.4-1.4-1.1-2.8-1.1c-1.1,0-1.6,0.6-1.6,1.4V223.6z"/>
	<path class="st0" d="M12.2,220.2c0.2,0,0.3,0.1,0.3,0.3v0.5c0,0.2-0.1,0.3-0.3,0.3H7.3c-0.2,0-0.3-0.1-0.3-0.3v-0.5
		c0-0.2,0.1-0.3,0.3-0.3H12.2z"/>
	<path class="st0" d="M19.1,216.9c0.2,0,0.3,0.1,0.3,0.3v0.5c0,0.2-0.1,0.3-0.3,0.3H17v5.5c0,0.9,0.5,1.4,2.1,1.4h0.4
		c0.2,0,0.3,0.1,0.3,0.3v0.5c0,0.2-0.1,0.3-0.3,0.3h-0.4c-2.6,0-3.3-0.9-3.3-2.4V218h-1.1c-0.2,0-0.3-0.1-0.3-0.3v-0.4
		c0-0.2,0.1-0.3,0.3-0.3l1-0.1h0.2V215c0-0.2,0.1-0.3,0.3-0.3h0.8c0.2,0,0.3,0.1,0.3,0.3v1.9L19.1,216.9L19.1,216.9z"/>
	<path class="st0" d="M26.5,217.1v0.6c0,0.2-0.1,0.3-0.3,0.3c-1.4,0.1-2.6,0.9-3,1.2v6.6c0,0.2-0.1,0.3-0.3,0.3h-0.7
		c-0.2,0-0.3-0.1-0.3-0.3v-8.5c0-0.2,0.1-0.3,0.3-0.3h0.7c0.2,0,0.3,0.1,0.3,0.3l0.1,0.9c0.5-0.4,1.7-1.3,3-1.3
		C26.3,216.8,26.5,216.9,26.5,217.1z"/>
	<path class="st0" d="M29.4,215.2c0,0.2-0.1,0.3-0.3,0.3h-0.7c-0.2,0-0.3-0.1-0.3-0.3v-1.8c0-0.2,0.1-0.3,0.3-0.3h0.7
		c0.2,0,0.3,0.1,0.3,0.3V215.2z M29.4,225.8c0,0.2-0.1,0.3-0.3,0.3h-0.7c-0.2,0-0.3-0.1-0.3-0.3v-8.5c0-0.2,0.1-0.3,0.3-0.3h0.7
		c0.2,0,0.3,0.1,0.3,0.3V225.8z"/>
	<path class="st0" d="M33.7,217.2v0.7c0.5-0.4,1.6-1.1,3.2-1.1c1.8,0,2.6,1,2.6,2.4v4.7c0,1.4-0.8,2.4-2.6,2.4
		c-1.6,0-2.6-0.7-3.2-1.1v4.5c0,0.2-0.1,0.3-0.3,0.3h-0.7c-0.2,0-0.3-0.1-0.3-0.3v-12.4c0-0.2,0.1-0.3,0.3-0.3h0.7
		C33.6,216.9,33.7,217,33.7,217.2z M38.2,219.3c0-0.8-0.4-1.4-1.6-1.4c-1.4,0-2.4,0.7-2.8,1.1v5c0.4,0.4,1.4,1.1,2.8,1.1
		c1.2,0,1.6-0.6,1.6-1.4V219.3z"/>
	<path class="st0" d="M50.1,216.9c0.2,0,0.3,0.1,0.3,0.3v0.5c0,0.2-0.1,0.3-0.3,0.3h-2.1v5.5c0,0.9,0.5,1.4,2.1,1.4h0.4
		c0.2,0,0.3,0.1,0.3,0.3v0.5c0,0.2-0.1,0.3-0.3,0.3H50c-2.6,0-3.3-0.9-3.3-2.4V218h-1.1c-0.2,0-0.3-0.1-0.3-0.3v-0.4
		c0-0.2,0.1-0.3,0.3-0.3l1-0.1h0.2V215c0-0.2,0.1-0.3,0.3-0.3h0.8c0.2,0,0.3,0.1,0.3,0.3v1.9L50.1,216.9L50.1,216.9z"/>
	<path class="st0" d="M53.9,215.2c0,0.2-0.1,0.3-0.3,0.3H53c-0.2,0-0.3-0.1-0.3-0.3v-1.8c0-0.2,0.1-0.3,0.3-0.3h0.7
		c0.2,0,0.3,0.1,0.3,0.3V215.2z M53.9,225.8c0,0.2-0.1,0.3-0.3,0.3H53c-0.2,0-0.3-0.1-0.3-0.3v-8.5c0-0.2,0.1-0.3,0.3-0.3h0.7
		c0.2,0,0.3,0.1,0.3,0.3V225.8z"/>
	<path class="st0" d="M57.8,216.9c0.2,0,0.3,0.1,0.3,0.3v0.7c0.5-0.4,1.5-1.1,3.1-1.1c1.2,0,2,0.5,2.4,1.2c0.4-0.4,1.5-1.2,3.3-1.2
		s2.6,1,2.6,2.3v6.7c0,0.2-0.1,0.3-0.3,0.3h-0.7c-0.2,0-0.3-0.1-0.3-0.3v-6.4c0-0.8-0.4-1.4-1.6-1.4c-1.4,0-2.4,0.7-2.7,1.1
		c0,0.1,0,0.3,0,0.4v6.4c0,0.2-0.1,0.3-0.3,0.3h-0.7c-0.2,0-0.3-0.1-0.3-0.3v-6.4c0-0.8-0.4-1.4-1.6-1.4c-1.4,0-2.3,0.7-2.6,1.1v6.8
		c0,0.2-0.1,0.3-0.3,0.3h-0.7c-0.2,0-0.3-0.1-0.3-0.3v-8.5c0-0.2,0.1-0.3,0.3-0.3H57.8L57.8,216.9z"/>
	<path class="st0" d="M78.7,221.4c0,0.2-0.1,0.3-0.3,0.3h-5.2v2c0,0.9,0.4,1.4,2.1,1.4c1.7,0,2.1-0.6,2.1-1.4v-0.4
		c0-0.2,0.1-0.3,0.3-0.3h0.7c0.2,0,0.3,0.1,0.3,0.3v0.4c0,1.4-0.8,2.4-3.3,2.4c-2.6,0-3.3-1-3.3-2.4v-4.7c0-1.4,0.9-2.4,3.4-2.4
		s3.3,1,3.3,2.4L78.7,221.4L78.7,221.4z M73.2,220.7h4.3v-1.5c0-0.8-0.5-1.4-2.1-1.4c-1.7,0-2.1,0.6-2.1,1.4L73.2,220.7L73.2,220.7z
		"/>
	<path class="st1" d="M-41.2,248c0,0.2-0.1,0.3-0.3,0.3h-0.7c-0.2,0-0.3-0.1-0.3-0.3v-12.3c0-0.2,0.1-0.3,0.3-0.3h0.7
		c0.2,0,0.3,0.1,0.3,0.3V248z"/>
	<path class="st1" d="M-31.7,243.6c0,0.2-0.1,0.3-0.3,0.3h-5.2v2c0,0.9,0.4,1.4,2.1,1.4c1.7,0,2.1-0.6,2.1-1.4v-0.4
		c0-0.2,0.1-0.3,0.3-0.3h0.7c0.2,0,0.3,0.1,0.3,0.3v0.4c0,1.4-0.8,2.4-3.3,2.4c-2.6,0-3.3-1-3.3-2.4v-4.6c0-1.4,0.9-2.4,3.4-2.4
		s3.3,1,3.3,2.4L-31.7,243.6L-31.7,243.6z M-37.2,242.9h4.3v-1.5c0-0.8-0.5-1.4-2.1-1.4c-1.7,0-2.1,0.6-2.1,1.4L-37.2,242.9
		L-37.2,242.9z"/>
	<path class="st1" d="M-24.2,241.1c0-0.7-0.7-1.1-2-1.1c-1.4,0-2,0.4-2,1.1v0.4c0,0.6,0.5,0.9,1,1.1l2.8,0.9
		c0.9,0.3,1.6,0.9,1.6,1.8v1.1c0,1.1-1,2.1-3.3,2.1c-2.4,0-3.3-1-3.3-2.1v-0.5c0-0.2,0.1-0.3,0.3-0.3h0.7c0.2,0,0.3,0.1,0.3,0.3v0.4
		c0,0.7,0.7,1.1,2.2,1.1c1.4,0,2.2-0.4,2.2-1.1v-0.7c0-0.5-0.4-0.8-1.1-1.1l-2.8-1c-0.6-0.3-1.4-0.9-1.4-1.8V241
		c0-1.1,0.8-2.1,3.2-2.1s3.3,1,3.3,2.1v0.5c0,0.2-0.1,0.3-0.3,0.3h-0.7c-0.2,0-0.3-0.1-0.3-0.3v-0.4H-24.2z"/>
	<path class="st1" d="M-15.6,241.1c0-0.7-0.7-1.1-2-1.1c-1.4,0-2,0.4-2,1.1v0.4c0,0.6,0.5,0.9,1,1.1l2.8,0.9
		c0.9,0.3,1.6,0.9,1.6,1.8v1.1c0,1.1-1,2.1-3.3,2.1c-2.4,0-3.3-1-3.3-2.1v-0.5c0-0.2,0.1-0.3,0.3-0.3h0.7c0.2,0,0.3,0.1,0.3,0.3v0.4
		c0,0.7,0.7,1.1,2.2,1.1c1.4,0,2.2-0.4,2.2-1.1v-0.7c0-0.5-0.4-0.8-1.1-1.1l-2.8-1c-0.6-0.3-1.4-0.9-1.4-1.8V241
		c0-1.1,0.8-2.1,3.2-2.1s3.3,1,3.3,2.1v0.5c0,0.2-0.1,0.3-0.3,0.3h-0.7c-0.2,0-0.3-0.1-0.3-0.3v-0.4H-15.6z"/>
	<path class="st1" d="M-4,239.1c0.2,0,0.3,0.1,0.3,0.3v0.5c0,0.2-0.1,0.3-0.3,0.3h-2.1v5.5c0,0.9,0.5,1.4,2.1,1.4h0.4
		c0.2,0,0.3,0.1,0.3,0.3v0.5c0,0.2-0.1,0.3-0.3,0.3h-0.4c-2.6,0-3.3-0.9-3.3-2.4v-5.6h-1.1c-0.2,0-0.3-0.1-0.3-0.3v-0.4
		c0-0.2,0.1-0.3,0.3-0.3l1-0.1h0.2v-1.9c0-0.2,0.1-0.3,0.3-0.3h0.8c0.2,0,0.3,0.1,0.3,0.3v1.9L-4,239.1L-4,239.1z"/>
	<path class="st1" d="M-0.1,240.1c0.5-0.4,1.6-1.1,3.2-1.1c1.8,0,2.6,1,2.6,2.3v6.7c0,0.2-0.1,0.3-0.3,0.3H4.6
		c-0.2,0-0.3-0.1-0.3-0.3v-6.4c0-0.8-0.4-1.4-1.6-1.4c-1.4,0-2.4,0.7-2.8,1.1v6.8c0,0.2-0.1,0.3-0.3,0.3H-1c-0.2,0-0.3-0.1-0.3-0.3
		v-12.3c0-0.2,0.1-0.3,0.3-0.3h0.7c0.2,0,0.3,0.1,0.3,0.3L-0.1,240.1L-0.1,240.1z"/>
	<path class="st1" d="M8.3,241.3c0-1.4,0.8-2.4,3.3-2.4c2.6,0,3.3,1,3.3,2.4v6.7c0,0.2-0.1,0.3-0.3,0.3H14c-0.2,0-0.3-0.1-0.3-0.3
		v-0.7c-0.5,0.4-1.6,1.1-3.1,1.1c-1.8,0-2.6-1-2.6-2.2v-0.9c0-1.2,0.8-2.2,2.4-2.2h3.2v-1.7c0-0.8-0.4-1.4-2.1-1.4s-2.1,0.5-2.1,1.4
		v0.3c0,0.2-0.1,0.3-0.3,0.3H8.5c-0.2,0-0.3-0.1-0.3-0.3L8.3,241.3L8.3,241.3z M13.7,246.4v-2.2h-2.9c-1,0-1.4,0.5-1.4,1.3v0.6
		c0,0.8,0.5,1.2,1.6,1.2C12.3,247.3,13.2,246.6,13.7,246.4z"/>
	<path class="st1" d="M19,239.4v0.7c0.5-0.4,1.6-1.1,3.2-1.1c1.8,0,2.6,1,2.6,2.3v6.7c0,0.2-0.1,0.3-0.3,0.3h-0.7
		c-0.2,0-0.3-0.1-0.3-0.3v-6.4c0-0.8-0.4-1.4-1.6-1.4c-1.4,0-2.4,0.7-2.8,1.1v6.8c0,0.2-0.1,0.3-0.3,0.3h-0.7
		c-0.2,0-0.3-0.1-0.3-0.3v-8.5c0-0.2,0.1-0.3,0.3-0.3h0.7C18.9,239.1,19,239.2,19,239.4z"/>
	<path class="st0" d="M38.3,235.7c0.2,0,0.3,0.1,0.3,0.3v0.6c0,0.2-0.1,0.3-0.3,0.3h-5.1v3.8h2c2.6,0,3.7,1,3.7,2.5v2.6
		c0,1.5-0.7,2.6-3.7,2.6c-3,0-3.7-1.2-3.7-2.6v-0.4c0-0.2,0.1-0.3,0.3-0.3h0.7c0.2,0,0.3,0.1,0.3,0.3v0.3c0,1.1,0.4,1.8,2.4,1.8
		c1.9,0,2.4-0.7,2.4-1.8v-2.3c0-0.8-0.5-1.6-2.4-1.6h-3c-0.2,0-0.3-0.1-0.3-0.3V236c0-0.2,0.1-0.3,0.3-0.3H38.3z"/>
	<path class="st0" d="M41.4,238.3c0-1.5,0.8-2.7,3.8-2.7s3.8,1.2,3.8,2.7v7.5c0,1.5-0.8,2.7-3.8,2.7s-3.8-1.2-3.8-2.7V238.3z
		 M47.8,238.4c0-1.1-0.5-1.8-2.5-1.8c-1.9,0-2.5,0.7-2.5,1.8v7c0,1.1,0.5,1.8,2.5,1.8c1.9,0,2.5-0.7,2.5-1.8V238.4z"/>
	<path class="st0" d="M51.5,238.3c0-1.5,0.8-2.7,3.8-2.7s3.8,1.2,3.8,2.7v7.5c0,1.5-0.8,2.7-3.8,2.7s-3.8-1.2-3.8-2.7V238.3z
		 M57.8,238.4c0-1.1-0.5-1.8-2.5-1.8s-2.5,0.7-2.5,1.8v7c0,1.1,0.5,1.8,2.5,1.8s2.5-0.7,2.5-1.8V238.4z"/>
	<path class="st0" d="M62.7,239.1c0.2,0,0.3,0.1,0.3,0.3v0.7c0.5-0.4,1.5-1.1,3.1-1.1c1.2,0,2,0.5,2.4,1.2c0.4-0.4,1.5-1.2,3.3-1.2
		s2.6,1,2.6,2.3v6.7c0,0.2-0.1,0.3-0.3,0.3h-0.7c-0.2,0-0.3-0.1-0.3-0.3v-6.4c0-0.8-0.4-1.4-1.6-1.4c-1.4,0-2.4,0.7-2.7,1.1
		c0,0.1,0,0.3,0,0.4v6.4c0,0.2-0.1,0.3-0.3,0.3h-0.7c-0.2,0-0.3-0.1-0.3-0.3v-6.4c0-0.8-0.4-1.4-1.6-1.4c-1.4,0-2.3,0.7-2.6,1.1v6.8
		c0,0.2-0.1,0.3-0.3,0.3h-0.7c-0.2,0-0.3-0.1-0.3-0.3v-8.5c0-0.2,0.1-0.3,0.3-0.3L62.7,239.1L62.7,239.1z"/>
	<path class="st0" d="M81.9,241.1c0-0.7-0.7-1.1-2-1.1c-1.4,0-2,0.4-2,1.1v0.4c0,0.6,0.5,0.9,1,1.1l2.8,0.9c0.9,0.3,1.6,0.9,1.6,1.8
		v1.1c0,1.1-1,2.1-3.3,2.1c-2.4,0-3.3-1-3.3-2.1v-0.5c0-0.2,0.1-0.3,0.3-0.3h0.7c0.2,0,0.3,0.1,0.3,0.3v0.4c0,0.7,0.7,1.1,2.2,1.1
		c1.4,0,2.2-0.4,2.2-1.1v-0.7c0-0.5-0.4-0.8-1.1-1.1l-2.8-1c-0.6-0.3-1.4-0.9-1.4-1.8V241c0-1.1,0.8-2.1,3.2-2.1
		c2.4,0,3.3,1,3.3,2.1v0.5c0,0.2-0.1,0.3-0.3,0.3h-0.7c-0.2,0-0.3-0.1-0.3-0.3v-0.4H81.9z"/>
</g>
<path class="st2" d="M-73.9,210.5c-11.7,0-21.1,9.4-21.1,21.1c0,11.7,9.4,21.1,21.1,21.1s21.1-9.4,21.1-21.1
	C-52.7,219.9-62.1,210.5-73.9,210.5z M-77.4,239.8l-6.6-6.6l1.7-1.7l4.9,4.9l12.4-12.4l1.7,1.7L-77.4,239.8z"/>
</svg>
