<svg id="Layer_1" data-name="Layer 1" xmlns="http://www.w3.org/2000/svg" viewBox="0 0 760 299.91"><title>passing-assertions</title><path d="M189.37,30.44c8,1.75,11.72,4.68,11.72,10.23,0,6.22-5.14,10.23-12.29,10.23a21.06,21.06,0,0,1-14.7-5.76l2.52-3c3.75,3.39,7.35,5.09,12.34,5.09,4.83,0,8-2.52,8-6.17,0-3.39-1.8-5.3-9.36-6.89-8.28-1.8-12.08-4.47-12.08-10.44,0-5.76,5-9.87,11.82-9.87A18.78,18.78,0,0,1,200,18.31l-2.37,3.14a15.8,15.8,0,0,0-10.38-3.91c-4.68,0-7.66,2.57-7.66,5.86C179.6,26.84,181.46,28.74,189.37,30.44Z" style="fill:#010101;opacity:0.870000004768372"/><path d="M213.79,42.83c0,3.24,1.8,4.42,4.47,4.42a8.32,8.32,0,0,0,3.86-.93v3.39a10,10,0,0,1-4.78,1.13c-4.27,0-7.51-2.11-7.51-7.51v-16h-3.7v-3.5h3.7v-8h4v8h8.43v3.5h-8.43V42.83Z" style="fill:#010101;opacity:0.870000004768372"/><path d="M230.76,28.9l-1.18-3.24a22,22,0,0,1,9.67-2.21c7.25,0,11.31,3.7,11.31,10.69V50.39h-3.81v-4A11.65,11.65,0,0,1,237.14,51c-4.93,0-9.92-2.78-9.92-8.33S231.84,34,238.58,34a28.22,28.22,0,0,1,8.17,1.13V34.19c0-4.78-2.93-7.25-7.92-7.25A18.51,18.51,0,0,0,230.76,28.9Zm0.46,13.57c0,3.39,3.09,5.35,6.68,5.35,4.88,0,8.89-3,8.89-7.2V38A27.71,27.71,0,0,0,239,36.92C234,36.92,231.22,39.08,231.22,42.47Z" style="fill:#010101;opacity:0.870000004768372"/><path d="M264.08,42.83c0,3.24,1.8,4.42,4.47,4.42a8.32,8.32,0,0,0,3.86-.93v3.39a10,10,0,0,1-4.78,1.13c-4.27,0-7.51-2.11-7.51-7.51v-16h-3.7v-3.5h3.7v-8h4v8h8.43v3.5h-8.43V42.83Z" style="fill:#010101;opacity:0.870000004768372"/><path d="M298.37,23.81h3.91V50.39h-3.91V45.76a10.12,10.12,0,0,1-9.1,5.19c-6.43,0-10.18-4.32-10.18-10.64V23.81h4V39.33c0,4.94,2.67,8,7.35,8,4.53,0,8-3.34,8-8.33V23.81Z" style="fill:#010101;opacity:0.870000004768372"/><path d="M320,50.9A18.28,18.28,0,0,1,309,47l2-2.83a15.54,15.54,0,0,0,9.2,3.39c3.19,0,5.5-1.65,5.5-4.22v-0.1c0-2.67-3.14-3.7-6.63-4.68-4.17-1.18-8.79-2.62-8.79-7.51V31c0-4.58,3.81-7.61,9-7.61a18.17,18.17,0,0,1,9.56,2.93l-1.8,3a15,15,0,0,0-7.87-2.57c-3.14,0-5.14,1.65-5.14,3.86v0.1c0,2.52,3.29,3.5,6.84,4.58,4.11,1.23,8.53,2.83,8.53,7.61v0.1C329.42,48,325.26,50.9,320,50.9Z" style="fill:#010101;opacity:0.870000004768372"/><path d="M364.18,51a13.66,13.66,0,0,1-13.62-13.83A13.84,13.84,0,0,1,374.82,28l-2.62,2.78c-2.11-2.21-4.47-4-8.07-4-5.4,0-9.51,4.58-9.51,10.33s4.22,10.38,9.77,10.38a11,11,0,0,0,8.12-4L375,45.86C372.35,48.84,369.16,51,364.18,51Z" style="fill:#010101;opacity:0.870000004768372"/><path d="M392.92,51a13.63,13.63,0,0,1-13.78-13.83A13.85,13.85,0,1,1,392.92,51Zm0-24.27c-5.76,0-9.72,4.58-9.72,10.33s4.22,10.38,9.82,10.38c5.76,0,9.77-4.58,9.77-10.28S398.52,26.74,392.92,26.74Z" style="fill:#010101;opacity:0.870000004768372"/><path d="M435.33,50.39V45C433.17,48.23,430,51,425.15,51c-6.38,0-12.7-5-12.7-13.83s6.32-13.88,12.7-13.88a12,12,0,0,1,10.18,5.66v-16h4V50.39h-4Zm-9.46-23.6c-5.14,0-9.36,3.8-9.36,10.28,0,6.32,4.32,10.33,9.36,10.33s9.61-4.11,9.61-10.33S430.81,26.79,425.87,26.79Z" style="fill:#010101;opacity:0.870000004768372"/><path d="M459.86,47.56a11,11,0,0,0,8.38-3.75L470.7,46a13.72,13.72,0,0,1-11,5c-7.3,0-13.26-5.6-13.26-13.88,0-7.71,5.4-13.88,12.75-13.88,7.87,0,12.39,6.27,12.39,14.09a10.72,10.72,0,0,1-.05,1.23H450.5C451.07,44.32,455.18,47.56,459.86,47.56Zm7.76-11.93c-0.41-4.83-3.19-9-8.48-9-4.63,0-8.12,3.86-8.64,9h17.12Z" style="fill:#010101;opacity:0.870000004768372"/><path d="M187.52,109.25a11,11,0,0,0,8.38-3.75l2.47,2.21a13.72,13.72,0,0,1-11,5c-7.3,0-13.26-5.6-13.26-13.88,0-7.71,5.4-13.88,12.75-13.88,7.87,0,12.39,6.27,12.39,14.09a10.72,10.72,0,0,1-.05,1.23H178.16C178.73,106,182.84,109.25,187.52,109.25Zm7.76-11.93c-0.41-4.83-3.19-9-8.48-9-4.63,0-8.12,3.86-8.64,9h17.12Z" style="fill:#010101;opacity:0.560000002384186"/><path d="M227.57,120.31V106.74c-2.16,3.19-5.3,5.91-10.18,5.91-6.38,0-12.7-5-12.7-13.83s6.32-13.88,12.7-13.88a12,12,0,0,1,10.18,5.66V85.5h4v34.8h-4Zm-9.46-31.82c-5.14,0-9.36,3.8-9.36,10.28,0,6.32,4.32,10.33,9.36,10.33s9.61-4.11,9.61-10.33S223,88.48,218.11,88.48Z" style="fill:#010101;opacity:0.560000002384186"/><path d="M259.24,85.5h3.91v26.58h-3.91v-4.63a10.12,10.12,0,0,1-9.1,5.19c-6.43,0-10.18-4.32-10.18-10.64V85.5h4V101c0,4.94,2.67,8,7.35,8,4.53,0,8-3.34,8-8.33V85.5Z" style="fill:#010101;opacity:0.560000002384186"/><path d="M273.59,90.59l-1.18-3.24a22,22,0,0,1,9.67-2.21c7.25,0,11.31,3.7,11.31,10.69v16.25h-3.81v-4a11.65,11.65,0,0,1-9.61,4.58c-4.93,0-9.92-2.78-9.92-8.33s4.63-8.64,11.36-8.64a28.22,28.22,0,0,1,8.17,1.13V95.89c0-4.78-2.93-7.25-7.92-7.25A18.5,18.5,0,0,0,273.59,90.59ZM274,104.16c0,3.39,3.09,5.35,6.68,5.35,4.88,0,8.89-3,8.89-7.2V99.74a27.71,27.71,0,0,0-7.81-1.13C276.83,98.61,274,100.77,274,104.16Z" style="fill:#010101;opacity:0.560000002384186"/><path d="M302.17,112.08V74.55h4v37.53h-4Z" style="fill:#010101;opacity:0.560000002384186"/><path d="M336.1,104.52c0,3.24,1.8,4.42,4.47,4.42a8.32,8.32,0,0,0,3.86-.93v3.39a10,10,0,0,1-4.78,1.13c-4.27,0-7.51-2.11-7.51-7.51V89h-3.7V85.5h3.7v-8h4v8h8.43V89H336.1v15.53Z" style="fill:#010101;opacity:0.560000002384186"/><path d="M362.89,112.7a13.63,13.63,0,0,1-13.78-13.83A13.85,13.85,0,1,1,362.89,112.7Zm0-24.27c-5.76,0-9.72,4.58-9.72,10.33s4.22,10.38,9.82,10.38c5.76,0,9.77-4.58,9.77-10.28S368.49,88.43,362.89,88.43Z" style="fill:#010101;opacity:0.560000002384186"/><path d="M403.51,87.51L398,83c3.55-4.83,7-7.45,13.42-7.45,7.66,0,12.39,4.42,12.39,11.16,0,6-3.08,9-9.46,14l-5.86,4.52h15.68v6.84H397.49v-6.27l12-9.82c4.47-3.7,6.22-5.66,6.22-8.64s-2-4.68-4.83-4.68S406.18,84.22,403.51,87.51Z" style="fill:#010101;opacity:0.870000004768372"/><path d="M445.71,112.7c-9.61,0-15.94-8.07-15.94-18.56s6.43-18.66,16-18.66S461.75,83.55,461.75,94,455.33,112.7,445.71,112.7Zm0-30.07c-4.78,0-7.81,4.78-7.81,11.41s3.14,11.52,7.92,11.52,7.81-4.83,7.81-11.41S450.5,82.62,445.71,82.62Z" style="fill:#010101;opacity:0.870000004768372"/><path d="M483.25,112.7c-9.61,0-15.94-8.07-15.94-18.56s6.43-18.66,16-18.66S499.29,83.55,499.29,94,492.86,112.7,483.25,112.7Zm0-30.07c-4.78,0-7.81,4.78-7.81,11.41s3.14,11.52,7.92,11.52,7.81-4.83,7.81-11.41S488,82.62,483.25,82.62Z" style="fill:#010101;opacity:0.870000004768372"/><path d="M201.25,221.76l-10.44-14H180.53v14h-4.06v-36h15.47c7.92,0,13,4.27,13,10.75,0,6-4.11,9.51-9.77,10.54l11.05,14.7h-5Zm-9.61-32.23h-11.1v14.6h11.05c5.4,0,9.25-2.78,9.25-7.46C200.84,192.2,197.44,189.53,191.63,189.53Z" style="fill:#010101;opacity:0.870000004768372"/><path d="M224.18,218.94a11,11,0,0,0,8.38-3.75l2.47,2.21a13.72,13.72,0,0,1-11,5c-7.3,0-13.26-5.6-13.26-13.88,0-7.71,5.4-13.88,12.75-13.88,7.87,0,12.39,6.27,12.39,14.09a10.72,10.72,0,0,1-.05,1.23H214.82C215.39,215.7,219.5,218.94,224.18,218.94ZM231.94,207c-0.41-4.83-3.19-9-8.48-9-4.63,0-8.12,3.86-8.64,9h17.12Z" style="fill:#010101;opacity:0.870000004768372"/><path d="M251.69,222.28a18.28,18.28,0,0,1-11-3.91l2-2.83a15.54,15.54,0,0,0,9.2,3.39c3.19,0,5.5-1.65,5.5-4.22v-0.1c0-2.67-3.14-3.7-6.63-4.68-4.17-1.18-8.79-2.62-8.79-7.51v-0.1c0-4.58,3.81-7.61,9-7.61a18.18,18.18,0,0,1,9.56,2.93l-1.8,3a15,15,0,0,0-7.87-2.57c-3.14,0-5.14,1.65-5.14,3.86V202c0,2.52,3.29,3.5,6.84,4.58,4.11,1.23,8.53,2.83,8.53,7.61v0.1C261.15,219.35,257,222.28,251.69,222.28Z" style="fill:#010101;opacity:0.870000004768372"/><path d="M282.64,222.33a12,12,0,0,1-10.18-5.66V230h-4v-34.8h4v5.35c2.16-3.19,5.29-5.91,10.18-5.91,6.37,0,12.7,5,12.7,13.83S289.06,222.33,282.64,222.33Zm-0.72-24.16c-4.94,0-9.61,4.11-9.61,10.28s4.68,10.33,9.61,10.33c5.14,0,9.36-3.8,9.36-10.28C291.27,202.18,287,198.17,281.92,198.17Z" style="fill:#010101;opacity:0.870000004768372"/><path d="M314.77,222.38A13.63,13.63,0,0,1,301,208.55,13.85,13.85,0,1,1,314.77,222.38Zm0-24.27c-5.76,0-9.72,4.58-9.72,10.33s4.22,10.39,9.82,10.39c5.76,0,9.77-4.58,9.77-10.28S320.37,198.12,314.77,198.12Z" style="fill:#010101;opacity:0.870000004768372"/><path d="M339.81,221.76h-4V195.19h4v4.63a10.06,10.06,0,0,1,9.1-5.19c6.43,0,10.18,4.32,10.18,10.64v16.5h-4V206.24c0-4.94-2.67-8-7.35-8s-8,3.34-8,8.33v15.22Z" style="fill:#010101;opacity:0.870000004768372"/><path d="M376.31,222.28a18.28,18.28,0,0,1-11-3.91l2-2.83a15.54,15.54,0,0,0,9.2,3.39c3.19,0,5.5-1.65,5.5-4.22v-0.1c0-2.67-3.14-3.7-6.63-4.68-4.17-1.18-8.79-2.62-8.79-7.51v-0.1c0-4.58,3.81-7.61,9-7.61a18.18,18.18,0,0,1,9.56,2.93l-1.8,3a15,15,0,0,0-7.87-2.57c-3.14,0-5.14,1.65-5.14,3.86V202c0,2.52,3.29,3.5,6.84,4.58,4.11,1.23,8.53,2.83,8.53,7.61v0.1C385.77,219.35,381.61,222.28,376.31,222.28Z" style="fill:#010101;opacity:0.870000004768372"/><path d="M404.84,218.94a11,11,0,0,0,8.38-3.75l2.47,2.21a13.72,13.72,0,0,1-11,5c-7.3,0-13.26-5.6-13.26-13.88,0-7.71,5.4-13.88,12.75-13.88,7.87,0,12.39,6.27,12.39,14.09a10.72,10.72,0,0,1-.05,1.23H395.49C396.05,215.7,400.17,218.94,404.84,218.94ZM412.61,207c-0.41-4.83-3.19-9-8.48-9-4.63,0-8.12,3.86-8.64,9h17.12Z" style="fill:#010101;opacity:0.870000004768372"/><path d="M447.26,222.28a12.32,12.32,0,0,1-11.1-6.37l2.93-2.52c2.21,3.34,4.47,5.14,8.23,5.14,4.06,0,7-2.93,7-8.64V185.78h4.11v24.06C458.47,218.11,453.69,222.28,447.26,222.28Z" style="fill:#010101;opacity:0.870000004768372"/><path d="M481,201.82c8,1.75,11.72,4.68,11.72,10.23,0,6.22-5.14,10.23-12.29,10.23a21.06,21.06,0,0,1-14.7-5.76l2.52-3c3.75,3.39,7.35,5.09,12.34,5.09,4.83,0,8-2.52,8-6.17,0-3.39-1.8-5.3-9.36-6.89-8.28-1.8-12.08-4.47-12.08-10.44,0-5.76,5-9.87,11.82-9.87a18.77,18.77,0,0,1,12.65,4.42l-2.37,3.14a15.8,15.8,0,0,0-10.38-3.91c-4.68,0-7.66,2.57-7.66,5.86C471.22,198.22,473.07,200.12,481,201.82Z" style="fill:#010101;opacity:0.870000004768372"/><path d="M517.7,222.38c-11,0-18.3-8.59-18.3-18.56s7.46-18.66,18.4-18.66,18.3,8.59,18.3,18.56S528.65,222.38,517.7,222.38Zm0-33.47c-8.23,0-14.09,6.58-14.09,14.81s6,14.91,14.19,14.91,14.09-6.58,14.09-14.81S525.92,188.91,517.7,188.91Z" style="fill:#010101;opacity:0.870000004768372"/><path d="M571.16,185.78h4v36h-3.24l-23.24-29.51v29.51h-4v-36h3.8l22.67,28.84V185.78Z" style="fill:#010101;opacity:0.870000004768372"/><path d="M187.78,284.08a13.88,13.88,0,1,1,10.64-23l-2.62,2.78c-2.11-2.21-4.47-4-8.07-4-5.4,0-9.51,4.58-9.51,10.33s4.22,10.39,9.77,10.39a11,11,0,0,0,8.12-4l2.52,2.37C196,281.92,192.77,284.08,187.78,284.08Z" style="fill:#010101;opacity:0.560000002384186"/><path d="M216.52,284.08a13.63,13.63,0,0,1-13.78-13.83A13.85,13.85,0,1,1,216.52,284.08Zm0-24.27c-5.76,0-9.72,4.58-9.72,10.33s4.22,10.39,9.82,10.39c5.76,0,9.77-4.58,9.77-10.28S222.12,259.81,216.52,259.81Z" style="fill:#010101;opacity:0.560000002384186"/><path d="M241.56,283.46h-4V256.88h4v4.63a10.06,10.06,0,0,1,9.1-5.19c6.43,0,10.18,4.32,10.18,10.64v16.5h-4V267.93c0-4.94-2.67-8-7.35-8s-8,3.34-8,8.33v15.22Z" style="fill:#010101;opacity:0.560000002384186"/><path d="M274.61,275.9c0,3.24,1.8,4.42,4.47,4.42a8.32,8.32,0,0,0,3.86-.93v3.39a10,10,0,0,1-4.78,1.13c-4.27,0-7.51-2.11-7.51-7.51v-16H267v-3.5h3.7v-8h4v8H283v3.5h-8.43V275.9Z" style="fill:#010101;opacity:0.560000002384186"/><path d="M291.58,262l-1.18-3.24a22,22,0,0,1,9.67-2.21c7.25,0,11.31,3.7,11.31,10.69v16.25h-3.81v-4A11.65,11.65,0,0,1,298,284c-4.93,0-9.92-2.78-9.92-8.33s4.63-8.64,11.36-8.64a28.22,28.22,0,0,1,8.17,1.13v-0.93c0-4.78-2.93-7.25-7.92-7.25A18.52,18.52,0,0,0,291.58,262ZM292,275.54c0,3.39,3.09,5.35,6.68,5.35,4.88,0,8.89-3,8.89-7.2v-2.57a27.69,27.69,0,0,0-7.81-1.13C294.82,270,292,272.15,292,275.54Z" style="fill:#010101;opacity:0.560000002384186"/><path d="M319.91,251.07V246.7h4.52v4.37h-4.52Zm0.26,32.39V256.88h4v26.58h-4Z" style="fill:#010101;opacity:0.560000002384186"/><path d="M337.29,283.46h-4V256.88h4v4.63a10.06,10.06,0,0,1,9.1-5.19c6.43,0,10.18,4.32,10.18,10.64v16.5h-4V267.93c0-4.94-2.67-8-7.35-8s-8,3.34-8,8.33v15.22Z" style="fill:#010101;opacity:0.560000002384186"/><path d="M373.79,284a18.28,18.28,0,0,1-11-3.91l2-2.83a15.54,15.54,0,0,0,9.2,3.39c3.19,0,5.5-1.65,5.5-4.22v-0.1c0-2.67-3.14-3.7-6.63-4.68-4.17-1.18-8.79-2.62-8.79-7.51V264c0-4.58,3.81-7.61,9-7.61a18.18,18.18,0,0,1,9.56,2.93l-1.8,3a15,15,0,0,0-7.87-2.57c-3.14,0-5.14,1.65-5.14,3.86v0.1c0,2.52,3.29,3.5,6.84,4.58,4.11,1.23,8.53,2.83,8.53,7.61V276C383.25,281,379.09,284,373.79,284Z" style="fill:#010101;opacity:0.560000002384186"/><path d="M421.5,284a10.58,10.58,0,0,1-8.59-4.11v3.6H405.1V245.93h7.82v13.93a10.12,10.12,0,0,1,8.59-4.47c6.43,0,12.54,5,12.54,14.24v0.1C434,278.94,428,284,421.5,284Zm4.73-14.34c0-4.58-3.08-7.61-6.73-7.61s-6.68,3-6.68,7.61v0.1c0,4.58,3,7.61,6.68,7.61s6.73-3,6.73-7.61v-0.1Z" style="fill:#010101;opacity:0.870000004768372"/><path d="M453.32,284.08c-8.53,0-14.86-6.32-14.86-14.24v-0.1c0-7.92,6.38-14.34,15-14.34s14.86,6.32,14.86,14.24v0.1C468.28,277.65,461.91,284.08,453.32,284.08Zm7.25-14.34a7.32,7.32,0,0,0-7.25-7.61c-4.47,0-7.15,3.44-7.15,7.51v0.1a7.32,7.32,0,0,0,7.25,7.61c4.47,0,7.15-3.45,7.15-7.51v-0.1Z" style="fill:#010101;opacity:0.870000004768372"/><path d="M493.84,283.46v-4a10.12,10.12,0,0,1-8.59,4.47c-6.43,0-12.54-5-12.54-14.24v-0.1c0-9.2,6-14.24,12.54-14.24a10.58,10.58,0,0,1,8.59,4.11V245.93h7.81v37.53h-7.81Zm0.1-13.83c0-4.58-3-7.61-6.68-7.61s-6.74,3-6.74,7.61v0.1c0,4.58,3.09,7.61,6.74,7.61s6.68-3,6.68-7.61v-0.1Z" style="fill:#010101;opacity:0.870000004768372"/><path d="M524.27,284.13c-2.11,5.6-4.37,7.71-9,7.71a12.93,12.93,0,0,1-6.94-1.9l2.62-5.65a7.09,7.09,0,0,0,3.34,1.08,2.61,2.61,0,0,0,2.73-1.8l-10.8-27.66h8.28l6.27,18.76,6-18.76h8.12Z" style="fill:#010101;opacity:0.870000004768372"/><path d="M534.81,283.46v-8.23h8.33v8.23h-8.33Z" style="fill:#010101;opacity:0.870000004768372"/><path d="M562.32,284.08c-8.53,0-14.86-6.32-14.86-14.24v-0.1c0-7.92,6.38-14.34,15-14.34s14.86,6.32,14.86,14.24v0.1C577.28,277.65,570.91,284.08,562.32,284.08Zm7.25-14.34a7.32,7.32,0,0,0-7.25-7.61c-4.47,0-7.15,3.44-7.15,7.51v0.1a7.32,7.32,0,0,0,7.25,7.61c4.47,0,7.15-3.45,7.15-7.51v-0.1Z" style="fill:#010101;opacity:0.870000004768372"/><path d="M600.67,283.46l-7.2-11.26-2.72,2.88v8.38h-7.82V245.93h7.82v20l9.15-10h9.36l-10.49,10.85,10.85,16.71h-8.95Z" style="fill:#010101;opacity:0.870000004768372"/><path d="M628.75,264.13v-8.23h8.33v8.23h-8.33Zm0,19.33v-8.23h8.33v8.23h-8.33Z" style="fill:#010101;opacity:0.870000004768372"/><path d="M668.74,283.92c-4.78,0-8-1.9-8-8.28V262.59h-3.29v-6.68h3.29v-7h7.82v7H675v6.68h-6.48v11.77c0,1.8.77,2.67,2.52,2.67a7.93,7.93,0,0,0,3.86-1v6.27A11.52,11.52,0,0,1,668.74,283.92Z" style="fill:#010101;opacity:0.870000004768372"/><path d="M697,263.56c-5.19,0-8.38,3.14-8.38,9.72v10.18h-7.82V255.91h7.82v5.55c1.59-3.81,4.16-6.27,8.79-6.07v8.17H697Z" style="fill:#010101;opacity:0.870000004768372"/><path d="M719.49,283.46v-3.91c-1.8,2.31-4.11,4.42-8.07,4.42-5.91,0-9.36-3.91-9.36-10.23V255.91h7.81v15.37c0,3.7,1.75,5.6,4.73,5.6s4.88-1.9,4.88-5.6V255.91h7.81v27.56h-7.81Z" style="fill:#010101;opacity:0.870000004768372"/><path d="M759.9,272.41H740.72a6.39,6.39,0,0,0,6.73,5.4,9,9,0,0,0,6.68-2.83l4.47,4a13.78,13.78,0,0,1-11.26,5.14c-8.28,0-14.4-5.81-14.4-14.24v-0.1c0-7.87,5.6-14.34,13.62-14.34,9.2,0,13.42,7.15,13.42,15v0.1C760,271.22,759.95,271.69,759.9,272.41Zm-13.32-10.75c-3.24,0-5.35,2.31-6,5.86h11.77C751.93,264,749.87,261.66,746.58,261.66Z" style="fill:#010101;opacity:0.870000004768372"/><path d="M64.27,0a64.27,64.27,0,1,0,64.27,64.27A64.27,64.27,0,0,0,64.27,0ZM53.56,89.26l-20-20,5.07-5L53.56,79.16,91.37,41.38l5,5Z" style="fill:#7cb342"/><path d="M64.27,171.38a64.27,64.27,0,1,0,64.27,64.27A64.27,64.27,0,0,0,64.27,171.38ZM53.56,260.64l-20-20,5.07-5,14.89,14.89,37.81-37.77,5,5Z" style="fill:#7cb342"/></svg>