<svg id="tut-1" xmlns="http://www.w3.org/2000/svg" viewBox="0 0 243 243"><title>security</title><circle cx="121.5" cy="121.5" r="120" style="fill:none;stroke:#4f362f;stroke-linecap:round;stroke-linejoin:round;stroke-width:3px;stroke-dasharray:5.98422384262085,11.9684476852417"/><path d="M104.67,78.55a5,5,0,0,1-5.2-5v0a5.21,5.21,0,0,1,10.42,0v0A5.07,5.07,0,0,1,104.67,78.55Zm3-5.07a3,3,0,0,0-3-3.08,2.93,2.93,0,0,0-2.94,3.05v0a3,3,0,0,0,3,3.08,2.93,2.93,0,0,0,2.94-3.05v0Z" style="fill:#f47c20"/><path d="M116,78.53a2.88,2.88,0,0,1-2.34-1.12v3.22h-2.13V70.88h2.13V72A2.76,2.76,0,0,1,116,70.74c1.75,0,3.42,1.37,3.42,3.88v0C119.47,77.15,117.83,78.53,116,78.53Zm1.29-3.91a1.84,1.84,0,1,0-3.66,0v0a1.84,1.84,0,1,0,3.66,0v0Z" style="fill:#f47c20"/><path d="M123.66,78.53a5.26,5.26,0,0,1-3.22-1.13l0.91-1.4a4.24,4.24,0,0,0,2.37.9c0.62,0,.9-0.22.9-0.56v0c0-.46-0.73-0.62-1.56-0.87-1-.31-2.24-0.8-2.24-2.26v0a2.45,2.45,0,0,1,2.75-2.38,5.2,5.2,0,0,1,2.8.87l-0.81,1.47a4.46,4.46,0,0,0-2-.7c-0.52,0-.78.22-0.78,0.52v0c0,0.42.71,0.62,1.53,0.9,1.05,0.35,2.27.85,2.27,2.23v0C126.54,77.77,125.29,78.53,123.66,78.53Z" style="fill:#f47c20"/><path d="M135,75.37h-5.22a1.74,1.74,0,0,0,1.83,1.47,2.46,2.46,0,0,0,1.82-.77l1.22,1.08a4,4,0,0,1-7-2.48v0a3.74,3.74,0,0,1,3.71-3.91c2.51,0,3.66,1.95,3.66,4.08v0C135.06,75.05,135,75.18,135,75.37Zm-3.63-2.93a1.67,1.67,0,0,0-1.62,1.6H133A1.61,1.61,0,0,0,131.41,72.45Z" style="fill:#f47c20"/><path d="M143.62,75.37h-5.23a1.74,1.74,0,0,0,1.83,1.47,2.46,2.46,0,0,0,1.82-.77l1.22,1.08a4,4,0,0,1-7-2.48v0A3.74,3.74,0,0,1,140,70.74c2.51,0,3.66,1.95,3.66,4.08v0C143.64,75.05,143.63,75.18,143.62,75.37ZM140,72.45a1.67,1.67,0,0,0-1.62,1.6h3.21A1.61,1.61,0,0,0,140,72.45Z" style="fill:#f47c20"/><path d="M92.85,95.19V85.38H95v9.81H92.85Z" style="fill:#f47c20"/><path d="M102,95.19V91a1.28,1.28,0,0,0-1.29-1.53A1.31,1.31,0,0,0,99.36,91v4.19H97.23V87.68h2.13v1.06a2.66,2.66,0,0,1,2.2-1.2c1.61,0,2.55,1.06,2.55,2.79v4.86H102Z" style="fill:#f47c20"/><path d="M108.59,95.33a5.26,5.26,0,0,1-3.22-1.13l0.91-1.4a4.24,4.24,0,0,0,2.37.9c0.62,0,.9-0.22.9-0.56v0c0-.46-0.73-0.62-1.56-0.87-1.05-.31-2.24-0.8-2.24-2.26v0a2.45,2.45,0,0,1,2.75-2.38,5.2,5.2,0,0,1,2.8.87l-0.81,1.47a4.45,4.45,0,0,0-2-.7c-0.52,0-.78.22-0.78,0.52v0c0,0.42.71,0.62,1.53,0.9,1.05,0.35,2.27.85,2.27,2.23v0C111.46,94.57,110.21,95.33,108.59,95.33Z" style="fill:#f47c20"/><path d="M115.52,95.31c-1.3,0-2.19-.52-2.19-2.26V89.5h-0.9V87.68h0.9V85.76h2.13v1.92h1.77V89.5h-1.77v3.21a0.62,0.62,0,0,0,.69.73,2.17,2.17,0,0,0,1.05-.27v1.71A3.14,3.14,0,0,1,115.52,95.31Z" style="fill:#f47c20"/><path d="M123.19,95.19V94.37a2.89,2.89,0,0,1-2.27,1,2.32,2.32,0,0,1-2.58-2.3v0c0-1.64,1.25-2.4,3-2.4a5.33,5.33,0,0,1,1.83.31V90.79a1.35,1.35,0,0,0-1.61-1.37,5.52,5.52,0,0,0-2.07.41L119,88.2a6.62,6.62,0,0,1,2.91-.6c2.33,0,3.35,1.21,3.35,3.24v4.36h-2.06Zm0-3a3.3,3.3,0,0,0-1.36-.28c-0.91,0-1.47.36-1.47,1v0a1,1,0,0,0,1.16.91,1.45,1.45,0,0,0,1.67-1.32V92.16Z" style="fill:#f47c20"/><path d="M131.83,95.19V91a1.28,1.28,0,0,0-1.29-1.53A1.31,1.31,0,0,0,129.21,91v4.19h-2.13V87.68h2.13v1.06a2.66,2.66,0,0,1,2.2-1.2c1.61,0,2.55,1.06,2.55,2.79v4.86h-2.13Z" style="fill:#f47c20"/><path d="M139.34,95.35a3.83,3.83,0,0,1-3.91-3.88v0a3.86,3.86,0,0,1,3.94-3.91,3.69,3.69,0,0,1,3,1.26l-1.3,1.4a2.2,2.2,0,0,0-1.71-.83,1.92,1.92,0,0,0-1.82,2v0a1.92,1.92,0,0,0,1.91,2.07,2.38,2.38,0,0,0,1.72-.8L142.41,94A3.78,3.78,0,0,1,139.34,95.35Z" style="fill:#f47c20"/><path d="M150.77,92.18h-5.23a1.74,1.74,0,0,0,1.83,1.47,2.46,2.46,0,0,0,1.82-.77L150.42,94a4,4,0,0,1-7-2.48v0a3.74,3.74,0,0,1,3.71-3.91c2.51,0,3.66,1.95,3.66,4.08v0C150.8,91.85,150.79,92,150.77,92.18Zm-3.63-2.93a1.67,1.67,0,0,0-1.62,1.6h3.21A1.61,1.61,0,0,0,147.14,89.25Z" style="fill:#f47c20"/><path d="M92.06,205.54H90.94v-3.88l-4.08-5.93h1.34l3.31,4.9,3.33-4.9h1.29l-4.08,5.91v3.89Z" style="fill:#4f352f"/><path d="M99.49,205.71a3.71,3.71,0,0,1-3.75-3.77A3.77,3.77,0,1,1,99.49,205.71Zm0-6.61a2.66,2.66,0,0,0-2.65,2.82,2.72,2.72,0,0,0,2.67,2.83,2.67,2.67,0,0,0,2.66-2.8A2.74,2.74,0,0,0,99.49,199.1Z" style="fill:#4f352f"/><path d="M110.37,198.3h1.06v7.24h-1.06v-1.26a2.76,2.76,0,0,1-2.48,1.42,2.65,2.65,0,0,1-2.77-2.9v-4.5h1.08v4.23a1.93,1.93,0,0,0,2,2.19,2.14,2.14,0,0,0,2.17-2.27V198.3Z" style="fill:#4f352f"/><path d="M114.93,205.54h-1.08V198.3h1.08v1.89a3.1,3.1,0,0,1,3-2v1.16h-0.08c-1.58,0-2.87,1.13-2.87,3.32v2.89Z" style="fill:#4f352f"/><path d="M133,205.54h-1.19l-1.15-2.59h-5.34l-1.16,2.59h-1.13l4.47-9.88h1ZM128,197l-2.24,5h4.47Z" style="fill:#4f352f"/><path d="M139.65,195.71h0.91l2.69,8.19,2.8-8.17h1.16l-3.5,9.88h-0.94l-2.69-8-2.7,8h-0.92l-3.5-9.88h1.21l2.8,8.17Z" style="fill:#4f352f"/><path d="M152.46,200.1c2.19,0.48,3.19,1.27,3.19,2.79,0,1.7-1.4,2.79-3.35,2.79a5.74,5.74,0,0,1-4-1.57l0.69-.81a4.67,4.67,0,0,0,3.36,1.39c1.32,0,2.18-.69,2.18-1.68s-0.49-1.44-2.55-1.88c-2.26-.49-3.29-1.22-3.29-2.84s1.36-2.69,3.22-2.69a5.11,5.11,0,0,1,3.45,1.2l-0.64.85a4.31,4.31,0,0,0-2.83-1.06c-1.27,0-2.09.7-2.09,1.6S150.3,199.64,152.46,200.1Z" style="fill:#4f352f"/><path d="M81.88,221.57a3,3,0,0,0,2.28-1l0.67,0.6a3.74,3.74,0,0,1-3,1.36,3.79,3.79,0,0,1-.14-7.56c2.14,0,3.38,1.71,3.38,3.84a2.8,2.8,0,0,1,0,.34H79.33A2.54,2.54,0,0,0,81.88,221.57ZM84,218.32a2.38,2.38,0,0,0-2.31-2.46,2.5,2.5,0,0,0-2.35,2.46H84Z" style="fill:#4f352f"/><path d="M88.06,222.34H87V215.1h1.08v1.26a2.74,2.74,0,0,1,2.48-1.42,2.65,2.65,0,0,1,2.77,2.9v4.5H92.23v-4.23a1.93,1.93,0,0,0-2-2.18,2.13,2.13,0,0,0-2.17,2.27v4.15Z" style="fill:#4f352f"/><path d="M101,215.1h1.16L99,222.4H98l-3.14-7.3h1.19l2.44,6Z" style="fill:#4f352f"/><path d="M103.85,213.51v-1.19h1.23v1.19h-1.23Zm0.07,8.83V215.1H105v7.24h-1.08Z" style="fill:#4f352f"/><path d="M108.58,222.34H107.5V215.1h1.08V217a3.1,3.1,0,0,1,3-2v1.16h-0.08c-1.58,0-2.87,1.13-2.87,3.32v2.89Z" style="fill:#4f352f"/><path d="M116.48,222.51a3.71,3.71,0,0,1-3.75-3.77A3.77,3.77,0,1,1,116.48,222.51Zm0-6.61a2.66,2.66,0,0,0-2.65,2.82,2.72,2.72,0,0,0,2.67,2.83,2.67,2.67,0,0,0,2.66-2.8A2.74,2.74,0,0,0,116.48,215.9Z" style="fill:#4f352f"/><path d="M123.29,222.34h-1.08V215.1h1.08v1.26a2.74,2.74,0,0,1,2.48-1.42,2.65,2.65,0,0,1,2.77,2.9v4.5h-1.08v-4.23a1.93,1.93,0,0,0-2-2.18,2.13,2.13,0,0,0-2.17,2.27v4.15Z" style="fill:#4f352f"/><path d="M139.13,214.94a2.6,2.6,0,0,1,2.69,2.91v4.48h-1.08v-4.23c0-1.4-.7-2.18-1.88-2.18a2,2,0,0,0-2,2.24v4.17H135.8v-4.26a1.86,1.86,0,0,0-1.86-2.16,2.1,2.1,0,0,0-2,2.28v4.13h-1.08V215.1h1.08v1.22a2.65,2.65,0,0,1,2.34-1.37,2.46,2.46,0,0,1,2.33,1.44A2.89,2.89,0,0,1,139.13,214.94Z" style="fill:#4f352f"/><path d="M147.35,221.57a3,3,0,0,0,2.28-1l0.67,0.6a3.74,3.74,0,0,1-3,1.36,3.79,3.79,0,0,1-.14-7.56c2.14,0,3.38,1.71,3.38,3.84a2.8,2.8,0,0,1,0,.34H144.8A2.54,2.54,0,0,0,147.35,221.57Zm2.12-3.25a2.38,2.38,0,0,0-2.31-2.46,2.5,2.5,0,0,0-2.35,2.46h4.67Z" style="fill:#4f352f"/><path d="M153.52,222.34h-1.08V215.1h1.08v1.26a2.74,2.74,0,0,1,2.48-1.42,2.65,2.65,0,0,1,2.77,2.9v4.5h-1.08v-4.23a1.93,1.93,0,0,0-2-2.18,2.13,2.13,0,0,0-2.17,2.27v4.15Z" style="fill:#4f352f"/><path d="M162.52,220.28a1.07,1.07,0,0,0,1.22,1.21,2.27,2.27,0,0,0,1.05-.25v0.92a2.72,2.72,0,0,1-1.3.31,1.84,1.84,0,0,1-2-2v-4.37h-1v-1h1v-2.18h1.08v2.18h2.3v1h-2.3v4.23Z" style="fill:#4f352f"/><path d="M36.71,172.87v-0.81a2.89,2.89,0,0,1-2.27,1,2.32,2.32,0,0,1-2.58-2.3v0c0-1.64,1.25-2.4,3-2.4a5.33,5.33,0,0,1,1.83.31v-0.13a1.35,1.35,0,0,0-1.61-1.37,5.52,5.52,0,0,0-2.07.41l-0.53-1.62a6.62,6.62,0,0,1,2.91-.6c2.33,0,3.35,1.2,3.35,3.24v4.36H36.71Zm0-3a3.3,3.3,0,0,0-1.36-.28c-0.91,0-1.47.36-1.47,1v0a1,1,0,0,0,1.16.91,1.45,1.45,0,0,0,1.67-1.32v-0.38Z" style="fill:#4f352f"/><path d="M45.07,173a2.88,2.88,0,0,1-2.34-1.12v3.22H40.6v-9.75h2.13v1.08a2.76,2.76,0,0,1,2.34-1.22c1.75,0,3.42,1.37,3.42,3.88v0C48.49,171.64,46.85,173,45.07,173Zm1.29-3.91a1.84,1.84,0,1,0-3.66,0v0a1.84,1.84,0,1,0,3.66,0v0Z" style="fill:#4f352f"/><path d="M50.1,164.54v-1.89h2.24v1.89H50.1Zm0.06,8.33v-7.51h2.13v7.51H50.15Z" style="fill:#4f352f"/><path d="M61.76,173.49v1.63H53.3v-1.62h8.46Z" style="fill:#4f352f"/><path d="M64.88,163h1.47v9.88H64.22v-7.69l-1.71.42-0.45-1.76Z" style="fill:#4f352f"/><circle cx="49.8" cy="134.65" r="18" style="fill:#4f352f"/><path d="M105.31,172.87v-0.81a2.89,2.89,0,0,1-2.27,1,2.32,2.32,0,0,1-2.58-2.3v0c0-1.64,1.25-2.4,3-2.4a5.33,5.33,0,0,1,1.83.31v-0.13a1.35,1.35,0,0,0-1.61-1.37,5.52,5.52,0,0,0-2.07.41l-0.53-1.62a6.62,6.62,0,0,1,2.91-.6c2.33,0,3.35,1.2,3.35,3.24v4.36h-2.06Zm0-3a3.3,3.3,0,0,0-1.36-.28c-0.91,0-1.47.36-1.47,1v0a1,1,0,0,0,1.16.91,1.45,1.45,0,0,0,1.67-1.32v-0.38Z" style="fill:#4f352f"/><path d="M113.67,173a2.88,2.88,0,0,1-2.34-1.12v3.22H109.2v-9.75h2.13v1.08a2.76,2.76,0,0,1,2.34-1.22c1.75,0,3.42,1.37,3.42,3.88v0C117.08,171.64,115.44,173,113.67,173ZM115,169.1a1.84,1.84,0,1,0-3.66,0v0a1.84,1.84,0,1,0,3.66,0v0Z" style="fill:#4f352f"/><path d="M118.69,164.54v-1.89h2.24v1.89h-2.24Zm0.06,8.33v-7.51h2.13v7.51h-2.13Z" style="fill:#4f352f"/><path d="M130.35,173.49v1.63h-8.46v-1.62h8.46Z" style="fill:#4f352f"/><path d="M132.65,166.18L131.13,165a4.09,4.09,0,0,1,3.66-2c2.09,0,3.38,1.2,3.38,3,0,1.64-.84,2.47-2.58,3.81L134,171h4.27v1.86H131v-1.71l3.26-2.68c1.22-1,1.7-1.54,1.7-2.35a1.2,1.2,0,0,0-1.32-1.27C133.89,164.86,133.38,165.28,132.65,166.18Z" style="fill:#4f352f"/><circle cx="119.8" cy="134.65" r="18" style="fill:#4f352f"/><circle cx="119.8" cy="44.65" r="18" style="fill:#f47c20"/><path d="M176.69,172.93h-1.92l-1.44-4.61-1.47,4.61H170l-2.31-7.56h2.16l1.21,4.55,1.42-4.58h1.83l1.43,4.59,1.23-4.57H179Z" style="fill:#4f352f"/><path d="M187.29,169.86h-5.22a1.74,1.74,0,0,0,1.83,1.47,2.46,2.46,0,0,0,1.82-.77l1.22,1.08a4,4,0,0,1-7-2.48v0a3.74,3.74,0,0,1,3.71-3.91c2.51,0,3.66,1.95,3.66,4.08v0C187.31,169.54,187.3,169.67,187.29,169.86Zm-3.63-2.93a1.67,1.67,0,0,0-1.62,1.6h3.21A1.61,1.61,0,0,0,183.66,166.93Z" style="fill:#4f352f"/><path d="M193.36,173a2.88,2.88,0,0,1-2.34-1.12v1h-2.13V162.65H191v3.8a2.76,2.76,0,0,1,2.34-1.22c1.75,0,3.42,1.37,3.42,3.88v0C196.78,171.64,195.14,173,193.36,173Zm1.29-3.91a1.84,1.84,0,1,0-3.66,0v0a1.84,1.84,0,1,0,3.66,0v0Z" style="fill:#4f352f"/><path d="M205.82,173.49v1.63h-8.46v-1.62h8.46Z" style="fill:#4f352f"/><path d="M208.94,163h1.47v9.88h-2.13v-7.69l-1.71.42-0.45-1.76Z" style="fill:#4f352f"/><circle cx="189.8" cy="134.65" r="18" style="fill:#4f352f"/></svg>