<?xml version="1.0" encoding="utf-8"?>
<!-- Generator: Adobe Illustrator 19.1.0, SVG Export Plug-In . SVG Version: 6.00 Build 0)  -->
<svg version="1.1" id="Layer_1" xmlns="http://www.w3.org/2000/svg" xmlns:xlink="http://www.w3.org/1999/xlink" x="0px" y="0px"
	 viewBox="0 0 48 48" style="enable-background:new 0 0 48 48;" xml:space="preserve">
<style type="text/css">
	.st0{fill-rule:evenodd;clip-rule:evenodd;fill:#66A3C6;}
	.st1{opacity:0.2902;clip-path:url(#SVGID_2_);}
	.st2{fill-rule:evenodd;clip-rule:evenodd;fill:#FFFFFF;}
	.st3{opacity:0.702;clip-path:url(#SVGID_2_);}
	.st4{fill-rule:evenodd;clip-rule:evenodd;fill:#3E7493;}
	.st5{fill-rule:evenodd;clip-rule:evenodd;fill:#F8F8F8;}
	.st6{fill-rule:evenodd;clip-rule:evenodd;fill:#5CA3CB;}
</style>
<g id="BG_-_circle_83_">
	<g>
		<circle class="st0" cx="24" cy="24" r="24"/>
	</g>
</g>
<g>
	<defs>
		<circle id="SVGID_1_" cx="24" cy="24" r="24"/>
	</defs>
	<clipPath id="SVGID_2_">
		<use xlink:href="#SVGID_1_"  style="overflow:visible;"/>
	</clipPath>
	<g id="Jet_Stream" class="st1">
		<g>
			<path class="st2" d="M8.6,21.7c0,0,7.5,2.1,11.4,6.4c3.9,4.3,4.4,12.2,4.4,12.2L12,50L-2.4,31.2L8.6,21.7z"/>
		</g>
	</g>
	<g id="Flame" class="st3">
		<g>
			<path class="st2" d="M11.5,32.1c0.4-0.5,1.9-2.6,4-0.5c2.1,2.1-0.2,3.7-0.5,4C14.4,36,2.4,44.4,2.4,44.4S11,32.8,11.5,32.1z"/>
		</g>
	</g>
</g>
<g id="Wings">
	<g>
		<path class="st4" d="M30.2,25.6l-8.6,7l2.9,7.8L30.2,25.6z M8.6,21.7l6.7,4.2l6.9-7.9L8.6,21.7z"/>
	</g>
</g>
<g id="Body_15_">
	<g>
		<path class="st5" d="M15.2,25.4c0,0,2.2-5.9,10.6-10.6c4.8-2.7,9.7-2.5,9.7-2.5l1,1c0,0-0.8,5.2-3.3,9.6
			c-4.9,8.5-11.3,9.8-11.3,9.8s-2.4,0.3-5-2.2C14.7,28.3,15.2,25.4,15.2,25.4z"/>
	</g>
</g>
<g id="Window_1_">
	<g>
		<circle class="st6" cx="28.3" cy="19.9" r="2.1"/>
	</g>
</g>
</svg>
