<?xml version="1.0" encoding="utf-8"?>
<!-- Generator: Adobe Illustrator 19.1.0, SVG Export Plug-In . SVG Version: 6.00 Build 0)  -->
<svg version="1.1" id="Layer_1" xmlns="http://www.w3.org/2000/svg" xmlns:xlink="http://www.w3.org/1999/xlink" x="0px" y="0px"
	 viewBox="0 0 48 48" style="enable-background:new 0 0 48 48;" xml:space="preserve">
<style type="text/css">
	.st0{fill:#FABC3D;}
	.st1{fill:#40C9E7;}
	.st2{fill:#F0F1F1;}
	.st3{fill:#FFFFFF;}
	.st4{fill:#84462D;}
	.st5{fill:#0D9681;}
	.st6{fill:#FA5655;}
	.st7{fill:#9CE5F4;}
</style>
<g>
	<circle class="st0" cx="24" cy="24" r="24"/>
	<g>
		<rect x="17" y="10" class="st1" width="14" height="20.9"/>
		<rect x="10" y="36.2" class="st2" width="27.9" height="1.7"/>
		<rect x="17.9" y="32.7" class="st3" width="12.2" height="3.5"/>
		<rect x="19.6" y="33.6" class="st1" width="1.7" height="2.6"/>
		<rect x="23.1" y="33.6" class="st1" width="1.7" height="2.6"/>
		<rect x="26.6" y="33.6" class="st1" width="1.7" height="2.6"/>
		<path class="st4" d="M12.7,34c-0.1,0-0.3,0-0.4,0v2.2h0.9V34C12.9,34,12.8,34,12.7,34z"/>
		<path class="st5" d="M13.9,30.8c-0.1-0.6-0.6-1.1-1.3-1.1c-0.7,0-1.2,0.5-1.3,1.1c-0.8,0.3-1.3,0.9-1.3,1.5c0,1,1.2,1.7,2.6,1.7
			s2.6-0.8,2.6-1.7C15.3,31.6,14.7,31.1,13.9,30.8z"/>
		<path class="st4" d="M35.8,34.5c-0.2,0-0.3,0-0.4-0.1v1.8h0.9v-1.8C36.1,34.4,35.9,34.5,35.8,34.5z"/>
		<path class="st5" d="M37.5,32.7c0,1-0.8,1.7-1.7,1.7S34,33.7,34,32.7s1.7-6.1,1.7-6.1S37.5,31.8,37.5,32.7z"/>
		<rect x="16.1" y="31" class="st6" width="15.7" height="1.7"/>
		<path class="st7" d="M31,14v-0.9h-3.1V10h-0.9v3.1h-2.6V10h-0.9v3.1h-2.6V10h-0.9v3.1H17V14h3.1v2.6H17v0.9h3.1v2.6H17v0.9h3.1
			v2.6H17v0.9h3.1v2.6H17v0.9h3.1V31h0.9v-3.1h2.6V31h0.9v-3.1h2.6V31h0.9v-3.1H31v-0.9h-3.1v-2.6H31v-0.9h-3.1v-2.6H31v-0.9h-3.1
			v-2.6H31v-0.9h-3.1V14H31z M20.9,14h2.6v2.6h-2.6V14z M20.9,17.5h2.6v2.6h-2.6V17.5z M20.9,20.9h2.6v2.6h-2.6V20.9z M20.9,27.1
			v-2.6h2.6v2.6H20.9z M27.1,27.1h-2.6v-2.6h2.6V27.1z M27.1,23.6h-2.6v-2.6h2.6V23.6z M27.1,20.1h-2.6v-2.6h2.6V20.1z M27.1,16.6
			h-2.6V14h2.6V16.6z"/>
	</g>
</g>
</svg>
