<?xml version="1.0" encoding="utf-8"?>
<!-- Generator: Adobe Illustrator 19.2.1, SVG Export Plug-In . SVG Version: 6.00 Build 0)  -->
<svg version="1.1" id="Layer_1" xmlns="http://www.w3.org/2000/svg" xmlns:xlink="http://www.w3.org/1999/xlink" x="0px" y="0px"
	 viewBox="0 0 164 94" style="enable-background:new 0 0 164 94;" xml:space="preserve">
<style type="text/css">
	.st0{fill:#EEEEEE;}
</style>
<g>
	<path class="st0" d="M114,32c1.1,0,2-0.9,2-2V18c0-1.1-0.9-2-2-2s-2,0.9-2,2v12C112,31.1,112.9,32,114,32z"/>
	<path class="st0" d="M146,16c-1.1,0-2,0.9-2,2v12c0,1.1,0.9,2,2,2s2-0.9,2-2V18C148,16.9,147.1,16,146,16z"/>
	<path class="st0" d="M146,0c-7,0-13,4-16,9.8C127,4,121,0,114,0s-13,4-16,9.8C95,4,89,0,82,0S69,4,66,9.8C63,4,57,0,50,0
		S37,4,34,9.8C31,4,25,0,18,0C8.1,0,0,8.1,0,18v36c0,9.9,8.1,18,18,18c5.7,0,10.7-2.6,14-6.7V84c0,5.5,4.5,10,10,10s10-4.5,10-10
		V71.9c6.1-0.7,11.3-4.4,14-9.7C69,68,75,72,82,72s13-4,16-9.8c3,5.8,9,9.8,16,9.8s13-4,16-9.8c3,5.8,9,9.8,16,9.8
		c9.9,0,18-8.1,18-18V18C164,8.1,155.9,0,146,0z M18,68c-7.7,0-14-6.3-14-14V18c0-7.7,6.3-14,14-14s14,6.3,14,14l0,0v36l0,0
		C32,61.7,25.7,68,18,68z M50,68c-0.7,0-1.3-0.1-2-0.2V84c0,3.3-2.7,6-6,6s-6-2.7-6-6V54V18c0-7.7,6.3-14,14-14s14,6.3,14,14l0,0v36
		l0,0C64,61.7,57.7,68,50,68z M81.3,68C73.8,67.6,68,61.1,68,53.6V48c0-1.1,0.9-2,2-2h8c1.1,0,2,0.9,2,2v5.9c0,1,0.7,1.9,1.7,2.1
		c1.3,0.2,2.3-0.8,2.3-2v-6c0-3.3-2.7-6-6-6h-1c-5,0-9-4-9-9V18.4c0-7.5,5.8-14,13.3-14.4c8-0.4,14.7,6,14.7,14l0,0v6
		c0,1.1-0.9,2-2,2h-8c-1.1,0-2-0.9-2-2v-5.9c0-1-0.7-1.9-1.7-2.1C81,15.8,80,16.8,80,18v6c0,3.3,2.7,6,6,6h1c5,0,9,4,9,9v15l0,0
		C96,62,89.3,68.4,81.3,68z M113.3,68c-7.5-0.4-13.3-6.9-13.3-14.4V18.4c0-7.5,5.8-14,13.3-14.4c8-0.4,14.7,6,14.7,14l0,0v24
		c0,1.1-0.9,2-2,2h-8c-3.3,0-6,2.7-6,6v3.9c0,1,0.7,1.9,1.7,2.1c1.3,0.2,2.3-0.8,2.3-2v-4.7c0-1.1,0.9-2,2-2h8c1.1,0,2,0.9,2,2V54
		l0,0C128,62,121.3,68.4,113.3,68z M160,42c0,1.1-0.9,2-2,2h-8c-3.3,0-6,2.7-6,6v3.9c0,1,0.7,1.9,1.7,2.1c1.3,0.2,2.3-0.8,2.3-2
		v-4.7c0-1.1,0.9-2,2-2h8c1.1,0,2,0.9,2,2V54c0,8-6.7,14.4-14.7,14c-7.5-0.4-13.3-6.9-13.3-14.4V18.4c0-7.5,5.8-14,13.3-14.4
		c8-0.4,14.7,6,14.7,14V42z"/>
	<path class="st0" d="M50,16c-1.1,0-2,0.9-2,2v36c0,1.1,0.9,2,2,2s2-0.9,2-2V18C52,16.9,51.1,16,50,16z"/>
	<path class="st0" d="M18,16c-1.1,0-2,0.9-2,2v36c0,1.1,0.9,2,2,2s2-0.9,2-2V18C20,16.9,19.1,16,18,16z"/>
</g>
</svg>
