<?xml version="1.0" encoding="utf-8"?>
<!-- Generator: Adobe Illustrator 19.2.1, SVG Export Plug-In . SVG Version: 6.00 Build 0)  -->
<svg version="1.1" id="Layer_1" xmlns="http://www.w3.org/2000/svg" xmlns:xlink="http://www.w3.org/1999/xlink" x="0px" y="0px"
	 viewBox="0 0 164 94" style="enable-background:new 0 0 164 94;" xml:space="preserve">
<style type="text/css">
	.st0{fill:#E53A35;}
	.st1{fill:#F05323;}
	.st2{fill:#ED6D23;}
	.st3{fill:#F78C1F;}
	.st4{fill:#FCB316;}
	.st5{fill:#30302F;}
</style>
<g>
	<path class="st0" d="M32,18c0-7.7-6.3-14-14-14l0,0C10.3,4,4,10.3,4,18v1h28V18z"/>
	<path class="st0" d="M36,18v1h28v-1c0-7.7-6.3-14-14-14l0,0C42.3,4,36,10.3,36,18z"/>
	<path class="st0" d="M96,18c0-8-6.7-14.4-14.7-14C73.8,4.4,68,10.9,68,18.4V19h12v-1c0-1.2,1.1-2.2,2.3-2c1,0.2,1.7,1.1,1.7,2.1V19
		h12V18z"/>
	<path class="st0" d="M113.3,4c-7.5,0.4-13.3,6.9-13.3,14.4V19h28v-1C128,10,121.3,3.6,113.3,4z"/>
	<path class="st0" d="M145.3,4c-7.5,0.4-13.3,6.9-13.3,14.4V19h28v-1C160,10,153.3,3.6,145.3,4z"/>
</g>
<g>
	<rect x="4" y="19" class="st1" width="28" height="17"/>
	<rect x="36" y="19" class="st1" width="28" height="17"/>
	<path class="st1" d="M87,30h-1c-3.3,0-6-2.7-6-6v-5H68v14c0,1.1,0.2,2.1,0.5,3h27C94.2,32.5,90.9,30,87,30z"/>
	<path class="st1" d="M86,26h8c1.1,0,2-0.9,2-2v-5H84v5C84,25.1,84.9,26,86,26z"/>
	<rect x="100" y="19" class="st1" width="28" height="17"/>
	<rect x="132" y="19" class="st1" width="28" height="17"/>
</g>
<g>
	<rect x="4" y="36" class="st2" width="28" height="18"/>
	<rect x="36" y="36" class="st2" width="28" height="18"/>
	<path class="st2" d="M80,53.9V48c0-1.1-0.9-2-2-2h-8c-1.1,0-2,0.9-2,2v5.6c0,0.1,0,0.3,0,0.4L80,53.9L80,53.9z"/>
	<path class="st2" d="M96,54V39c0-1.1-0.2-2.1-0.5-3h-27c1.2,3.5,4.6,6,8.5,6h1c3.3,0,6,2.7,6,6v6H96z"/>
	<path class="st2" d="M126,47.3h-8c-1.1,0-2,0.9-2,2V54h12v-4.7C128,48.2,127.1,47.3,126,47.3z"/>
	<path class="st2" d="M100,36v17.6c0,0.1,0,0.3,0,0.4h12v-0.1V50c0-3.3,2.7-6,6-6h8c1.1,0,2-0.9,2-2v-6H100z"/>
	<path class="st2" d="M132,53.6c0,0.1,0,0.3,0,0.4h12v-0.1V50c0-3.3,2.7-6,6-6h8c1.1,0,2-0.9,2-2v-6h-28V53.6z"/>
	<path class="st2" d="M158,47.3h-8c-1.1,0-2,0.9-2,2V54h12v-4.7C160,48.2,159.1,47.3,158,47.3z"/>
</g>
<g>
	<path class="st3" d="M18,68c7.7,0,14-6.3,14-14l0,0H4l0,0C4,61.7,10.3,68,18,68z"/>
	<path class="st3" d="M48,71v-3.2c0.7,0.1,1.3,0.2,2,0.2c7.7,0,14-6.3,14-14l0,0H36l0,0v17H48z"/>
	<path class="st3" d="M81.3,68c8,0.4,14.7-6,14.7-14l0,0H84l0,0c0,1.2-1.1,2.2-2.3,2c-0.9-0.2-1.6-1-1.7-2H68
		C68.2,61.4,73.9,67.6,81.3,68z"/>
	<path class="st3" d="M116,54L116,54c0,1.2-1.1,2.2-2.3,2c-0.9-0.2-1.6-1-1.7-2h-12c0.2,7.4,5.9,13.6,13.3,14c8,0.4,14.7-6,14.7-14
		l0,0H116z"/>
	<path class="st3" d="M148,54c0,1.2-1.1,2.2-2.3,2c-0.9-0.2-1.6-1-1.7-2h-12c0.2,7.4,5.9,13.6,13.3,14c8,0.4,14.7-6,14.7-14l0,0H148
		L148,54z"/>
</g>
<path class="st4" d="M48,84V71H36v13c0,3.3,2.7,6,6,6S48,87.3,48,84z"/>
<g>
	<path class="st5" d="M114,32c1.1,0,2-0.9,2-2V18c0-1.1-0.9-2-2-2s-2,0.9-2,2v12C112,31.1,112.9,32,114,32z"/>
	<path class="st5" d="M146,16c-1.1,0-2,0.9-2,2v12c0,1.1,0.9,2,2,2s2-0.9,2-2V18C148,16.9,147.1,16,146,16z"/>
	<path class="st5" d="M146,0c-7,0-13,4-16,9.8C127,4,121,0,114,0s-13,4-16,9.8C95,4,89,0,82,0S69,4,66,9.8C63,4,57,0,50,0
		S37,4,34,9.8C31,4,25,0,18,0C8.1,0,0,8.1,0,18v36c0,9.9,8.1,18,18,18c5.7,0,10.7-2.6,14-6.7V84c0,5.5,4.5,10,10,10s10-4.5,10-10
		V71.9c6.1-0.7,11.3-4.4,14-9.7C69,68,75,72,82,72s13-4,16-9.8c3,5.8,9,9.8,16,9.8s13-4,16-9.8c3,5.8,9,9.8,16,9.8
		c9.9,0,18-8.1,18-18V18C164,8.1,155.9,0,146,0z M18,68c-7.7,0-14-6.3-14-14V18c0-7.7,6.3-14,14-14s14,6.3,14,14l0,0v36l0,0
		C32,61.7,25.7,68,18,68z M50,68c-0.7,0-1.3-0.1-2-0.2V84c0,3.3-2.7,6-6,6s-6-2.7-6-6V54V18c0-7.7,6.3-14,14-14s14,6.3,14,14l0,0v36
		l0,0C64,61.7,57.7,68,50,68z M81.3,68C73.8,67.6,68,61.1,68,53.6V48c0-1.1,0.9-2,2-2h8c1.1,0,2,0.9,2,2v5.9c0,1,0.7,1.9,1.7,2.1
		c1.3,0.2,2.3-0.8,2.3-2v-6c0-3.3-2.7-6-6-6h-1c-5,0-9-4-9-9V18.4c0-7.5,5.8-14,13.3-14.4c8-0.4,14.7,6,14.7,14l0,0v6
		c0,1.1-0.9,2-2,2h-8c-1.1,0-2-0.9-2-2v-5.9c0-1-0.7-1.9-1.7-2.1C81,15.8,80,16.8,80,18v6c0,3.3,2.7,6,6,6h1c5,0,9,4,9,9v15l0,0
		C96,62,89.3,68.4,81.3,68z M113.3,68c-7.5-0.4-13.3-6.9-13.3-14.4V18.4c0-7.5,5.8-14,13.3-14.4c8-0.4,14.7,6,14.7,14l0,0v24
		c0,1.1-0.9,2-2,2h-8c-3.3,0-6,2.7-6,6v3.9c0,1,0.7,1.9,1.7,2.1c1.3,0.2,2.3-0.8,2.3-2v-4.7c0-1.1,0.9-2,2-2h8c1.1,0,2,0.9,2,2V54
		l0,0C128,62,121.3,68.4,113.3,68z M160,42c0,1.1-0.9,2-2,2h-8c-3.3,0-6,2.7-6,6v3.9c0,1,0.7,1.9,1.7,2.1c1.3,0.2,2.3-0.8,2.3-2
		v-4.7c0-1.1,0.9-2,2-2h8c1.1,0,2,0.9,2,2V54c0,8-6.7,14.4-14.7,14c-7.5-0.4-13.3-6.9-13.3-14.4V18.4c0-7.5,5.8-14,13.3-14.4
		c8-0.4,14.7,6,14.7,14V42z"/>
	<path class="st5" d="M50,16c-1.1,0-2,0.9-2,2v36c0,1.1,0.9,2,2,2s2-0.9,2-2V18C52,16.9,51.1,16,50,16z"/>
	<path class="st5" d="M18,16c-1.1,0-2,0.9-2,2v36c0,1.1,0.9,2,2,2s2-0.9,2-2V18C20,16.9,19.1,16,18,16z"/>
</g>
</svg>
