<svg id="Layer_1" data-name="Layer 1" xmlns="http://www.w3.org/2000/svg" viewBox="0 0 200 200"><title>ecs</title><g id="Layer_1-2" data-name="Layer 1"><polygon points="10.69 19.18 0 24.53 0 175.47 10.69 180.82 52.83 103.14 10.69 19.18" style="fill:#9e5125"/><polygon points="43.4 46.23 59.12 23.9 129.87 55.35 113.21 58.18 43.4 46.23" style="fill:#9e5125"/><polygon points="31.13 155.35 48.43 179.25 129.87 144.03 114.15 141.51 31.13 155.35" style="fill:#9e5125"/><polygon points="35.53 175.16 10.69 180.82 10.69 19.18 35.53 24.84 35.53 175.16" style="fill:#f68635"/><polygon points="22.33 13.21 35.53 6.6 60.38 110.38 35.53 193.4 22.33 186.79 22.33 13.21" style="fill:#9e5125"/><polygon points="113.21 141.51 129.87 144.03 144.97 101.57 129.87 55.35 113.21 58.18 113.21 141.51" style="fill:#9e5125"/><polygon points="61.01 186.16 35.53 193.4 35.53 6.6 61.01 13.84 61.01 186.16" style="fill:#f68635"/><polygon points="147.17 140.88 35.53 161.63 35.53 193.4 147.17 161.95 147.17 140.88" style="fill:#f68635"/><polygon points="147.48 58.8 35.53 37.42 35.53 6.6 147.48 38.37 147.48 58.8" style="fill:#f68635"/><polygon points="129.87 33.33 147.8 38.37 147.8 161.95 129.87 166.98 129.87 33.33" style="fill:#f68635"/><polygon points="200 83.65 152.2 85.85 135.22 84.91 183.65 45.6 200 83.65" style="fill:#6c3b1a"/><polygon points="135.22 84.91 183.65 82.08 183.65 45.6 135.22 53.46 135.22 84.91" style="fill:#9e5125"/><polygon points="89.62 81.76 138.68 32.08 163.52 79.87 112.58 83.33 89.62 81.76" style="fill:#6c3b1a"/><polygon points="89.62 81.76 138.68 77.67 138.68 32.08 89.62 43.71 89.62 81.76" style="fill:#9e5125"/><polygon points="135.22 115.72 200 116.98 183.65 155.03 135.22 147.17 135.22 115.72" style="fill:#9e5125"/><polygon points="89.62 118.87 163.52 120.75 138.68 168.55 89.62 156.92 89.62 118.87" style="fill:#9e5125"/><polygon points="89.62 118.87 138.68 123.27 163.52 120.75 112.58 117.3 89.62 118.87" style="fill:#fcc093"/><polygon points="200 116.98 152.2 114.78 135.22 115.72 183.65 118.55 200 116.98" style="fill:#fcc093"/><polygon points="183.65 82.08 200 83.65 200 50.63 183.65 45.6 183.65 82.08" style="fill:#f68635"/><polygon points="163.52 79.87 138.68 77.67 138.68 32.08 163.52 39.62 163.52 79.87" style="fill:#f68635"/><polygon points="183.65 118.55 200 116.98 200 150 183.65 155.03 183.65 118.55" style="fill:#f68635"/><polygon points="163.52 120.75 138.68 123.27 138.68 168.55 163.52 161.01 163.52 120.75" style="fill:#f68635"/></g></svg>